<svg width="512.019" height="512.019" xmlns="http://www.w3.org/2000/svg">

 <g>
  <title>background</title>
  <rect fill="none" id="canvas_background" height="402" width="582" y="-1" x="-1"/>
 </g>
 <g>
  <title>Layer 1</title>
  <g id="XMLID_629_">
   <ellipse transform="matrix(0.707,-0.707,0.707,0.707,-69.71,240.785) " ry="119.097" rx="119.097" fill="#ff9171" cy="204.54" cx="255.798" id="XMLID_494_"/>
   <g id="XMLID_2843_">
    <circle r="21.123" fill="#b7eabc" cy="331.546" cx="128.791" id="XMLID_2844_"/>
   </g>
   <g id="XMLID_2841_">
    <circle r="21.123" fill="#b7eabc" cy="331.546" cx="128.791" id="XMLID_2842_"/>
   </g>
   <g id="svg_1" fill="#b7eabc">
    <circle r="18.105" cy="372.013" cx="255.798" id="XMLID_2830_"/>
    <circle r="18.105" cy="372.013" cx="255.798" id="XMLID_1797_"/>
    <ellipse transform="matrix(0.987,-0.16,0.16,0.987,-1.917,41.395) " ry="22.581" rx="22.581" cy="32.59" cx="255.798" id="XMLID_1768_"/>
    <ellipse transform="matrix(0.987,-0.16,0.16,0.987,-1.917,41.395) " ry="22.581" rx="22.581" cy="32.59" cx="255.798" id="XMLID_1614_"/>
    <ellipse transform="matrix(0.23,-0.973,0.973,0.23,-131.037,243.507) " ry="18.105" rx="18.105" cy="204.54" cx="88.324" id="XMLID_1822_"/>
    <ellipse transform="matrix(0.23,-0.973,0.973,0.23,-131.037,243.507) " ry="18.105" rx="18.105" cy="204.54" cx="88.324" id="XMLID_1821_"/>
    <ellipse transform="matrix(0.707,-0.707,0.707,0.707,-20.658,359.206) " ry="18.105" rx="18.105" cy="204.54" cx="423.271" id="XMLID_1798_"/>
    <ellipse transform="matrix(0.707,-0.707,0.707,0.707,-20.658,359.206) " ry="18.105" rx="18.105" cy="204.54" cx="423.271" id="XMLID_1796_"/>
   </g>
   <g id="XMLID_1788_">
    <ellipse transform="matrix(0.987,-0.16,0.16,0.987,-47,64.23) " ry="21.123" rx="21.123" fill="#b7eabc" cy="323.637" cx="374.895" id="XMLID_1791_"/>
   </g>
   <g id="XMLID_1786_">
    <ellipse transform="matrix(0.987,-0.16,0.16,0.987,-47,64.23) " ry="21.123" rx="21.123" fill="#b7eabc" cy="323.637" cx="374.895" id="XMLID_1787_"/>
   </g>
   <g id="XMLID_179_">
    <circle r="21.123" fill="#b7eabc" cy="204.54" cx="201.117" id="XMLID_181_"/>
   </g>
   <g id="XMLID_177_">
    <circle r="21.123" fill="#b7eabc" cy="204.54" cx="201.117" id="XMLID_178_"/>
   </g>
   <g id="XMLID_204_">
    <ellipse transform="matrix(0.987,-0.16,0.16,0.987,-22.419,46.474) " ry="21.123" rx="21.123" fill="#b7eabc" cy="162.294" cx="277.047" id="XMLID_207_"/>
   </g>
   <g id="XMLID_185_">
    <ellipse transform="matrix(0.987,-0.16,0.16,0.987,-22.419,46.474) " ry="21.123" rx="21.123" fill="#b7eabc" cy="162.294" cx="277.047" id="XMLID_186_"/>
   </g>
   <g id="XMLID_212_">
    <circle r="21.123" fill="#b7eabc" cy="259.221" cx="268.406" id="XMLID_213_"/>
   </g>
   <g id="XMLID_210_">
    <circle r="21.123" fill="#b7eabc" cy="259.221" cx="268.406" id="XMLID_211_"/>
   </g>
   <g id="XMLID_1843_">
    <circle r="21.123" fill="#b7eabc" cy="84.781" cx="136.039" id="XMLID_1844_"/>
   </g>
   <g id="XMLID_1833_">
    <circle r="21.123" fill="#b7eabc" cy="84.781" cx="136.039" id="XMLID_1842_"/>
   </g>
   <g id="XMLID_1545_">
    <g id="XMLID_1828_">
     <ellipse transform="matrix(0.924,-0.383,0.383,0.924,1.282,153.607) " ry="21.123" rx="21.123" fill="#b7eabc" cy="73.58" cx="386.757" id="XMLID_1829_"/>
    </g>
    <g id="XMLID_1826_">
     <ellipse transform="matrix(0.924,-0.383,0.383,0.924,1.282,153.607) " ry="21.123" rx="21.123" fill="#b7eabc" cy="73.58" cx="386.757" id="XMLID_1827_"/>
    </g>
   </g>
   <g id="XMLID_624_">
    <path fill="#ffffff" d="m279.132,420.01c-5.523,0 -10,4.478 -10,10l0,72c0,5.523 4.477,10 10,10s10,-4.478 10,-10l0,-72c0,-5.523 -4.477,-10 -10,-10z" id="XMLID_626_"/>
    <path fill="#ffffff" d="m58.031,487.455c-3.332,3.022 -7.599,4.555 -12.682,4.555c-13.977,0 -25.349,-11.663 -25.349,-26s11.372,-26 25.349,-26c4.431,0 8.787,1.187 12.598,3.432c4.757,2.801 10.889,1.218 13.692,-3.541c2.803,-4.758 1.218,-10.888 -3.541,-13.691c-6.885,-4.056 -14.751,-6.199 -22.749,-6.199c-25.005,-0.001 -45.349,20.634 -45.349,45.999c0,25.364 20.344,46 45.349,46c10.062,0 19.094,-3.369 26.12,-9.742c4.091,-3.711 4.398,-10.035 0.688,-14.125c-3.711,-4.091 -10.035,-4.4 -14.126,-0.688z" id="XMLID_1032_"/>
    <path fill="#ffffff" stroke="null" d="m253.130587,420.651c-6.124299,-1.741 -12.738216,1.096 -14.773806,6.338l-18.382246,47.354l-19.312401,-47.613c-2.117388,-5.217 -8.77454,-7.981 -14.871963,-6.168c-6.096255,1.812 -9.323752,7.509 -7.207533,12.727l28.793906,70.985c1.922242,4.636 7.059129,7.735 12.800148,7.735l0.089977,0c5.777244,-0.033 10.909456,-3.199 12.797811,-7.949l27.471123,-70.767c2.034422,-5.24 -1.280716,-10.9 -7.405015,-12.642z" id="XMLID_1033_"/>
    <path fill="#ffffff" d="m131.211,420.085c-19.152,0 -34.734,15.581 -34.734,34.733l0,22.458c0,19.152 15.582,34.733 34.734,34.733s34.733,-15.581 34.733,-34.733l0,-22.458c0.001,-19.152 -15.581,-34.733 -34.733,-34.733zm14.734,57.191c0,8.124 -6.609,14.733 -14.733,14.733s-14.734,-6.609 -14.734,-14.733l0,-22.458c0,-8.124 6.609,-14.733 14.734,-14.733c8.124,0 14.733,6.609 14.733,14.733l0,22.458z" id="XMLID_1036_"/>
    <path fill="#ffffff" d="m417.048,420.01l-12.64,0c-5.523,0 -10,4.478 -10,10c0,5.523 4.477,10 10,10l2.64,0l0,62c0,5.523 4.477,10 10,10s10,-4.478 10,-10l0,-72c0,-5.523 -4.477,-10 -10,-10z" id="XMLID_1037_"/>
    <path fill="#ffffff" d="m512.019,451.42c0,-16.995 -13.826,-30.821 -30.821,-30.821c-16.994,0 -30.82,13.826 -30.82,30.821c0,16.83 13.562,30.544 30.331,30.808c-5.26,7.479 -10.367,11.474 -10.538,11.605c-4.396,3.305 -5.302,9.544 -2.016,13.962c1.963,2.639 4.978,4.033 8.032,4.033c2.075,0 4.167,-0.644 5.96,-1.978c1.035,-0.77 25.237,-19.148 29.487,-53.577c0.251,-1.581 0.385,-3.202 0.385,-4.853zm-41.641,0c0,-5.967 4.854,-10.821 10.82,-10.821c5.967,0 10.821,4.854 10.821,10.821s-4.854,10.82 -10.821,10.82c-5.966,0 -10.82,-4.853 -10.82,-10.82z" id="XMLID_1040_"/>
    <path d="m423.272,176.435c-11.976,0 -22.22,7.532 -26.26,18.105l-12.496,0c-1.083,-14.226 -4.485,-28.03 -10.155,-41.155c-2.191,-5.07 -8.077,-7.405 -13.146,-5.214c-5.07,2.19 -7.404,8.076 -5.214,13.146c5.902,13.663 8.895,28.205 8.895,43.224c0,26.485 -9.49,50.793 -25.244,69.711l-6.297,-6.297c-3.905,-3.903 -10.237,-3.904 -14.142,0c-3.905,3.905 -3.906,10.237 -0.001,14.142l6.297,6.297c-18.918,15.754 -43.226,25.244 -69.711,25.244s-50.794,-9.49 -69.711,-25.244l0.978,-0.978c3.905,-3.905 3.905,-10.237 0,-14.143c-3.905,-3.904 -10.237,-3.904 -14.143,0l-0.978,0.978c-15.754,-18.918 -25.244,-43.226 -25.244,-69.711s9.49,-50.793 25.244,-69.711l8.226,8.226c1.953,1.953 4.512,2.929 7.071,2.929s5.119,-0.976 7.071,-2.929c3.905,-3.905 3.905,-10.237 0,-14.143l-8.226,-8.226c18.918,-15.754 43.226,-25.244 69.711,-25.244c14.865,0 29.27,2.934 42.814,8.719c5.081,2.17 10.955,-0.19 13.124,-5.268c2.17,-5.079 -0.189,-10.955 -5.268,-13.124c-12.982,-5.545 -26.623,-8.876 -40.671,-9.946l0,-12.228c13.087,-4.231 22.58,-16.527 22.58,-31.005c0,-17.965 -14.616,-32.581 -32.58,-32.581c-17.965,0 -32.581,14.616 -32.581,32.581c0,14.477 9.494,26.773 22.581,31.005l0,12.232c-28.091,2.162 -53.689,13.358 -73.895,30.675l-7.959,-7.959c2.056,-4.152 3.218,-8.823 3.218,-13.762c0,-17.161 -13.961,-31.123 -31.123,-31.123c-17.161,0 -31.123,13.962 -31.123,31.123s13.962,31.123 31.123,31.123c4.939,0 9.61,-1.162 13.762,-3.218l7.959,7.959c-17.317,20.206 -28.513,45.804 -30.675,73.895l-12.501,0c-4.04,-10.573 -14.284,-18.105 -26.26,-18.105c-15.498,0 -28.105,12.608 -28.105,28.105s12.608,28.105 28.105,28.105c11.976,0 22.22,-7.532 26.26,-18.105l12.5,0c2.162,28.091 13.359,53.689 30.676,73.895l-15.207,15.207c-4.152,-2.056 -8.823,-3.218 -13.762,-3.218c-17.161,0 -31.123,13.961 -31.123,31.122s13.962,31.123 31.123,31.123s31.123,-13.962 31.123,-31.123c0,-4.939 -1.162,-9.61 -3.218,-13.762l15.207,-15.207c20.207,17.317 45.804,28.513 73.895,30.675l0,12.501c-10.574,4.04 -18.105,14.285 -18.105,26.26c0,15.497 12.608,28.105 28.105,28.105s28.105,-12.608 28.105,-28.105c0,-11.976 -7.532,-22.22 -18.105,-26.26l0,-12.501c28.091,-2.162 53.688,-13.359 73.895,-30.675l7.297,7.298c-2.056,4.152 -3.218,8.823 -3.218,13.762c0,17.161 13.962,31.123 31.123,31.123s31.123,-13.962 31.123,-31.123s-13.961,-31.122 -31.123,-31.122c-4.939,0 -9.61,1.162 -13.762,3.218l-7.298,-7.298c17.317,-20.206 28.513,-45.804 30.675,-73.895l12.5,0c4.04,10.574 14.284,18.105 26.261,18.105c15.497,0 28.105,-12.608 28.105,-28.105c0.002,-15.498 -12.605,-28.105 -28.102,-28.105zm-167.474,-156.425c6.937,0 12.58,5.644 12.58,12.581s-5.643,12.581 -12.58,12.581s-12.581,-5.644 -12.581,-12.581s5.644,-12.581 12.581,-12.581zm-119.759,75.894c-6.133,0 -11.123,-4.99 -11.123,-11.123s4.99,-11.123 11.123,-11.123s11.123,4.99 11.123,11.123s-4.99,11.123 -11.123,11.123zm-47.715,116.741c-4.469,0 -8.105,-3.636 -8.105,-8.105s3.636,-8.105 8.105,-8.105s8.105,3.636 8.105,8.105s-3.635,8.105 -8.105,8.105zm40.468,130.024c-6.133,0 -11.123,-4.99 -11.123,-11.123s4.99,-11.122 11.123,-11.122s11.123,4.989 11.123,11.122c-0.001,6.133 -4.991,11.123 -11.123,11.123zm127.006,37.45c-4.469,0 -8.105,-3.636 -8.105,-8.105s3.636,-8.105 8.105,-8.105s8.105,3.636 8.105,8.105s-3.636,8.105 -8.105,8.105zm119.097,-67.604c6.133,0 11.123,4.989 11.123,11.122s-4.99,11.123 -11.123,11.123s-11.123,-4.99 -11.123,-11.123s4.99,-11.122 11.123,-11.122zm48.377,-99.87c-4.469,0 -8.106,-3.636 -8.106,-8.105s3.636,-8.105 8.106,-8.105c4.469,0 8.105,3.636 8.105,8.105c-0.001,4.469 -3.636,8.105 -8.105,8.105z" id="XMLID_1043_"/>
    <path d="m169.994,204.54c0,17.161 13.962,31.123 31.123,31.123s31.123,-13.962 31.123,-31.123s-13.962,-31.123 -31.123,-31.123s-31.123,13.961 -31.123,31.123zm42.245,0c0,6.133 -4.99,11.123 -11.123,11.123s-11.123,-4.99 -11.123,-11.123s4.99,-11.123 11.123,-11.123s11.123,4.99 11.123,11.123z" id="XMLID_1052_"/>
    <path d="m277.047,131.171c-17.161,0 -31.123,13.961 -31.123,31.123c0,17.161 13.961,31.123 31.123,31.123c17.161,0 31.123,-13.962 31.123,-31.123s-13.962,-31.123 -31.123,-31.123zm0,42.246c-6.133,0 -11.123,-4.99 -11.123,-11.123s4.99,-11.123 11.123,-11.123s11.123,4.99 11.123,11.123s-4.989,11.123 -11.123,11.123z" id="XMLID_1055_"/>
    <path d="m268.406,228.098c-17.161,0 -31.123,13.961 -31.123,31.122s13.962,31.123 31.123,31.123s31.122,-13.962 31.122,-31.123c0,-17.16 -13.961,-31.122 -31.122,-31.122zm0,42.246c-6.133,0 -11.123,-4.99 -11.123,-11.123s4.99,-11.122 11.123,-11.122s11.122,4.99 11.122,11.122c0,6.133 -4.989,11.123 -11.122,11.123z" id="XMLID_1058_"/>
    <path d="m386.757,104.703c17.161,0 31.123,-13.961 31.123,-31.123s-13.962,-31.123 -31.123,-31.123s-31.122,13.962 -31.122,31.123s13.961,31.123 31.122,31.123zm0,-42.245c6.133,0 11.123,4.99 11.123,11.123s-4.99,11.123 -11.123,11.123s-11.122,-4.99 -11.122,-11.123c-0.001,-6.134 4.989,-11.123 11.122,-11.123z" id="XMLID_1061_"/>
    <path d="m339.84,130.16c2.63,0 5.21,-1.07 7.07,-2.93s2.93,-4.44 2.93,-7.08c0,-2.63 -1.07,-5.21 -2.93,-7.07s-4.44,-2.93 -7.07,-2.93s-5.21,1.07 -7.07,2.93s-2.93,4.44 -2.93,7.07c0,2.64 1.07,5.22 2.93,7.08c1.86,1.859 4.44,2.93 7.07,2.93z" id="XMLID_1062_"/>
    <path fill="#ffffff" d="m335.332,420.01l-16.2,0c-2.655,0 -5.202,1.057 -7.078,2.936c-1.876,1.88 -2.927,4.428 -2.922,7.083l0,72.017c0.01,2.655 1.221,5.197 3.106,7.066c1.873,1.857 4.404,2.898 7.04,2.898l0.052,0c0.445,-0.003 10.964,-0.059 16.773,-0.16c22.195,-0.388 38.304,-19.667 38.304,-45.84c0.001,-27.514 -15.702,-46 -39.075,-46zm0.422,71.844c-1.823,0.031 -4.165,0.059 -6.51,0.082c-0.027,-8.445 -0.079,-43.13 -0.094,-51.926l6.182,0c17.7,0 19.076,19.9 19.076,26c0,12.701 -5.768,25.618 -18.654,25.844z" id="XMLID_1065_"/>
   </g>
  </g>
 </g>
</svg>