<svg width="120" height="120" xmlns="http://www.w3.org/2000/svg">

 <g>
  <title>background</title>
  <rect fill="none" id="canvas_background" height="122" width="122" y="-1" x="-1"/>
 </g>
 <g>
  <title>Layer 1</title>
  <g stroke="null" id="XMLID_629_">
   <ellipse stroke="null" transform="matrix(0.15881915931666205,-0.15780894102855858,0.15881915931666205,0.15780894102855858,-14.884162312986101,56.859593669884156) " ry="119.097" rx="119.097" fill="#ff9171" cy="205.954427" cx="255.798" id="XMLID_494_"/>
   <g stroke="null" id="XMLID_2843_">
    <circle stroke="null" r="4.714848" fill="#b7eabc" cy="77.341498" cx="29.93137" id="XMLID_2844_"/>
   </g>
   <g stroke="null" id="XMLID_2841_">
    <circle stroke="null" r="4.714848" fill="#b7eabc" cy="77.341498" cx="29.93137" id="XMLID_2842_"/>
   </g>
   <g stroke="null" id="svg_1" fill="#b7eabc">
    <circle stroke="null" r="4.041199" cy="86.374107" cx="58.461985" id="XMLID_2830_"/>
    <circle stroke="null" r="4.041199" cy="86.374107" cx="58.461985" id="XMLID_1797_"/>
    <ellipse stroke="null" transform="matrix(0.22171783627375594,-0.03571348028934848,0.03594210111833936,0.22030753153491842,0.34473056898627563,12.353900951801696) " ry="22.581" rx="22.581" cy="33.737265" cx="256.625191" id="XMLID_1768_"/>
    <ellipse stroke="null" transform="matrix(0.22171783627375594,-0.03571348028934848,0.03594210111833936,0.22030753153491842,0.34473056898627563,12.353900951801696) " ry="22.581" rx="22.581" cy="33.737265" cx="256.625191" id="XMLID_1614_"/>
    <ellipse stroke="null" transform="matrix(0.051666770357612836,-0.2171826020096004,0.21857290242590122,0.05133812791593844,-28.660545033513586,57.467169253306686) " ry="18.105" rx="18.105" cy="205.743446" cx="87.580724" id="XMLID_1822_"/>
    <ellipse stroke="null" transform="matrix(0.051666770357612836,-0.2171826020096004,0.21857290242590122,0.05133812791593844,-28.660545033513586,57.467169253306686) " ry="18.105" rx="18.105" cy="205.743446" cx="87.580724" id="XMLID_1821_"/>
    <ellipse stroke="null" transform="matrix(0.15881915931666205,-0.15780894102855858,0.15881915931666205,0.15780894102855858,-3.8652126626312118,83.29225647829) " ry="18.105" rx="18.105" cy="205.954427" cx="423.271" id="XMLID_1798_"/>
    <ellipse stroke="null" transform="matrix(0.15881915931666205,-0.15780894102855858,0.15881915931666205,0.15780894102855858,-3.8652126626312118,83.29225647829) " ry="18.105" rx="18.105" cy="205.954427" cx="423.271" id="XMLID_1796_"/>
   </g>
   <g stroke="null" id="XMLID_1788_">
    <ellipse stroke="null" transform="matrix(0.22171783627375594,-0.03571348028934848,0.03594210111833936,0.22030753153491842,-9.782630335501809,17.45088421684715) " ry="21.123" rx="21.123" fill="#b7eabc" cy="324.784265" cx="375.722191" id="XMLID_1791_"/>
   </g>
   <g stroke="null" id="XMLID_1786_">
    <ellipse stroke="null" transform="matrix(0.22171783627375594,-0.03571348028934848,0.03594210111833936,0.22030753153491842,-9.782630335501809,17.45088421684715) " ry="21.123" rx="21.123" fill="#b7eabc" cy="324.784265" cx="375.722191" id="XMLID_1787_"/>
   </g>
   <g stroke="null" id="XMLID_179_">
    <circle stroke="null" r="4.714848" fill="#b7eabc" cy="48.992584" cx="46.178547" id="XMLID_181_"/>
   </g>
   <g stroke="null" id="XMLID_177_">
    <circle stroke="null" r="4.714848" fill="#b7eabc" cy="48.992584" cx="46.178547" id="XMLID_178_"/>
   </g>
   <g stroke="null" id="XMLID_204_">
    <ellipse stroke="null" transform="matrix(0.22171783627375594,-0.03571348028934848,0.03594210111833936,0.22030753153491842,-4.260800413064935,13.487580741736702) " ry="21.123" rx="21.123" fill="#b7eabc" cy="163.441265" cx="277.874191" id="XMLID_207_"/>
   </g>
   <g stroke="null" id="XMLID_185_">
    <ellipse stroke="null" transform="matrix(0.22171783627375594,-0.03571348028934848,0.03594210111833936,0.22030753153491842,-4.260800413064935,13.487580741736702) " ry="21.123" rx="21.123" fill="#b7eabc" cy="163.441265" cx="277.874191" id="XMLID_186_"/>
   </g>
   <g stroke="null" id="XMLID_212_">
    <circle stroke="null" r="4.714846" fill="#b7eabc" cy="61.197889" cx="61.294222" id="XMLID_213_"/>
   </g>
   <g stroke="null" id="XMLID_210_">
    <circle stroke="null" r="4.714846" fill="#b7eabc" cy="61.197889" cx="61.294222" id="XMLID_211_"/>
   </g>
   <g stroke="null" id="XMLID_1843_">
    <circle stroke="null" r="4.714847" fill="#b7eabc" cy="22.261267" cx="31.559547" id="XMLID_1844_"/>
   </g>
   <g stroke="null" id="XMLID_1833_">
    <circle stroke="null" r="4.714847" fill="#b7eabc" cy="22.261267" cx="31.559547" id="XMLID_1842_"/>
   </g>
   <g stroke="null" id="XMLID_1545_">
    <g stroke="null" id="XMLID_1828_">
     <ellipse stroke="null" transform="matrix(0.20756563395840982,-0.08548914344262792,0.08603640455202484,0.20624534867098746,1.0633479532210732,37.40065751572902) " ry="21.123" rx="21.123" fill="#b7eabc" cy="74.886393" cx="387.297749" id="XMLID_1829_"/>
    </g>
    <g stroke="null" id="XMLID_1826_">
     <ellipse stroke="null" transform="matrix(0.20756563395840982,-0.08548914344262792,0.08603640455202484,0.20624534867098746,1.0633479532210732,37.40065751572902) " ry="21.123" rx="21.123" fill="#b7eabc" cy="74.886393" cx="387.297749" id="XMLID_1827_"/>
    </g>
   </g>
   <g stroke="null" id="XMLID_624_">
    <path stroke="null" fill="#ffffff" d="m63.703691,97.087481c-1.240676,0 -2.246381,0.999531 -2.246381,2.232093l0,16.071066c0,1.232785 1.005705,2.232093 2.246381,2.232093s2.246381,-0.999531 2.246381,-2.232093l0,-16.071066c0,-1.232785 -1.005705,-2.232093 -2.246381,-2.232093z" id="XMLID_626_"/>
    <path stroke="null" fill="#ffffff" d="m14.035975,112.141829c-0.748494,0.674538 -1.707025,1.016718 -2.848861,1.016718c-3.139767,0 -5.694352,-2.60329 -5.694352,-5.803441s2.554585,-5.803441 5.694352,-5.803441c0.995372,0 1.973895,0.264949 2.829991,0.766054c1.068604,0.625209 2.446085,0.271869 3.075745,-0.790384c0.629661,-1.06203 0.273609,-2.430302 -0.795444,-3.055958c-1.546634,-0.905337 -3.313637,-1.383674 -5.110293,-1.383674c-5.617076,-0.000223 -10.187115,4.6057 -10.187115,10.267402c0,5.661479 4.570038,10.267626 10.187115,10.267626c2.260309,0 4.28924,-0.751992 5.867548,-2.174505c0.918995,-0.82833 0.987959,-2.239905 0.154551,-3.152831c-0.833632,-0.913149 -2.254244,-0.982121 -3.173238,-0.153568z" id="XMLID_1032_"/>
    <path stroke="null" fill="#ffffff" d="m57.862782,97.230558c-1.375751,-0.388607 -2.861489,0.244637 -3.31876,1.4147l-4.129354,10.569851l-4.338302,-10.627662c-0.475646,-1.164483 -1.971096,-1.781433 -3.34081,-1.376755c-1.369451,0.404455 -2.09447,1.676078 -1.619087,2.840784l6.468209,15.844509c0.431809,1.034798 1.585749,1.726524 2.875401,1.726524l0.020212,0c1.297789,-0.007366 2.45068,-0.714046 2.874876,-1.77429l6.171062,-15.795849c0.457009,-1.169616 -0.287698,-2.432981 -1.663449,-2.821811z" id="XMLID_1033_"/>
    <path stroke="null" fill="#ffffff" d="m30.474994,97.104222c-4.30227,0 -7.802581,3.477823 -7.802581,7.752727l0,5.012833c0,4.274904 3.500311,7.752727 7.802581,7.752727s7.802356,-3.477823 7.802356,-7.752727l0,-5.012833c0.000225,-4.274904 -3.500087,-7.752727 -7.802356,-7.752727zm3.309818,12.76556c0,1.813352 -1.484633,3.288542 -3.309594,3.288542s-3.309818,-1.47519 -3.309818,-3.288542l0,-5.012833c0,-1.813352 1.484633,-3.288542 3.309818,-3.288542c1.82496,0 3.309594,1.47519 3.309594,3.288542l0,5.012833z" id="XMLID_1036_"/>
    <path stroke="null" fill="#ffffff" d="m94.684884,97.087481l-2.839426,0c-1.240676,0 -2.246381,0.999531 -2.246381,2.232093c0,1.232785 1.005705,2.232093 2.246381,2.232093l0.593045,0l0,13.838974c0,1.232785 1.005705,2.232093 2.246381,2.232093s2.246381,-0.999531 2.246381,-2.232093l0,-16.071066c0,-1.232785 -1.005705,-2.232093 -2.246381,-2.232093z" id="XMLID_1037_"/>
    <path stroke="null" fill="#ffffff" d="m116.018992,104.098484c0,-3.793441 -3.105847,-6.879532 -6.923572,-6.879532c-3.8175,0 -6.923347,3.086091 -6.923347,6.879532c0,3.756612 3.046542,6.817703 6.813499,6.876631c-1.181597,1.669382 -2.328824,2.561103 -2.367237,2.590343c-0.987509,0.737707 -1.191031,2.130309 -0.45287,3.116448c0.440965,0.589049 1.118249,0.900203 1.804293,0.900203c0.466124,0 0.936067,-0.143747 1.338843,-0.441508c0.2325,-0.171871 5.669193,-4.274011 6.623905,-11.958882c0.056384,-0.352894 0.086486,-0.714716 0.086486,-1.083234zm-9.354156,0c0,-1.33189 1.090393,-2.415347 2.430585,-2.415347c1.340416,0 2.430809,1.083458 2.430809,2.415347s-1.090393,2.415124 -2.430809,2.415124c-1.340191,0 -2.430585,-1.083234 -2.430585,-2.415124z" id="XMLID_1040_"/>
    <path stroke="null" fill="#ffffff" d="m97.43086,43.388915c-2.690266,0 -4.991459,1.681212 -5.898997,4.041204l-2.807078,0c-0.243283,-3.175375 -1.007502,-6.256555 -2.2812,-9.186177c-0.492182,-1.131671 -1.814402,-1.652865 -2.953093,-1.163813c-1.138915,0.488828 -1.663221,1.802638 -1.171263,2.934309c1.325814,3.049708 1.998156,6.295617 1.998156,9.647997c0,5.911697 -2.131816,11.337468 -5.670765,15.56014l-1.414546,-1.405549c-0.877212,-0.871186 -2.299621,-0.871409 -3.176832,0c-0.877212,0.871632 -0.877437,2.284993 -0.000225,3.156625l1.414546,1.405549c-4.249704,3.516439 -9.710208,5.634694 -15.659749,5.634694s-11.410269,-2.118256 -15.659749,-5.634694l0.219696,-0.218299c0.877212,-0.871632 0.877212,-2.284993 0,-3.156848c-0.877212,-0.871409 -2.299621,-0.871409 -3.177057,0l-0.219696,0.218299c-3.538949,-4.222673 -5.670765,-9.648443 -5.670765,-15.56014s2.131816,-11.337468 5.670765,-15.56014l1.847873,1.836119c0.438718,0.435928 1.013567,0.65378 1.588416,0.65378s1.149923,-0.217852 1.588416,-0.65378c0.877212,-0.871632 0.877212,-2.284993 0,-3.156848l-1.847873,-1.836119c4.249704,-3.516439 9.710208,-5.634694 15.659749,-5.634694c3.339246,0 6.575158,0.654896 9.617657,1.946161c1.141386,0.484364 2.460911,-0.04241 2.948151,-1.175866c0.487465,-1.13368 -0.042457,-2.445257 -1.183394,-2.929398c-2.916252,-1.237695 -5.980541,-1.981205 -9.136257,-2.220039l0,-2.729403c2.939839,-0.944398 5.072329,-3.688979 5.072329,-6.920603c0,-4.009954 -3.283311,-7.272381 -7.31871,-7.272381c-4.035624,0 -7.318935,3.262426 -7.318935,7.272381c0,3.2314 2.132714,5.975981 5.072554,6.920603l0,2.730296c-6.31031,0.482578 -12.060597,2.981629 -16.599635,6.846944l-1.787895,-1.776522c0.461856,-0.926765 0.722886,-1.969375 0.722886,-3.071806c0,-3.830494 -3.136173,-6.946942 -6.991413,-6.946942c-3.855015,0 -6.991413,3.116448 -6.991413,6.946942s3.136398,6.946942 6.991413,6.946942c1.109488,0 2.158772,-0.259369 3.09147,-0.718287l1.787895,1.776522c-3.890059,4.510166 -6.405107,10.223877 -6.890775,16.494048l-2.808201,0c-0.907538,-2.359991 -3.208731,-4.041204 -5.898997,-4.041204c-3.481442,0 -6.313455,2.814222 -6.313455,6.273296s2.832238,6.273296 6.313455,6.273296c2.690266,0 4.991459,-1.681212 5.898997,-4.041204l2.807977,0c0.485668,6.270171 3.000941,11.983882 6.890999,16.494048l-3.416072,3.394343c-0.932698,-0.458918 -1.981982,-0.718287 -3.09147,-0.718287c-3.855015,0 -6.991413,3.116224 -6.991413,6.946718s3.136398,6.946942 6.991413,6.946942s6.991413,-3.116448 6.991413,-6.946942c0,-1.10243 -0.26103,-2.145041 -0.722886,-3.071806l3.416072,-3.394343c4.539263,3.865315 10.289325,6.364365 16.599635,6.846944l0,2.790339c-2.375324,0.901765 -4.067073,3.188544 -4.067073,5.861475c0,3.459074 2.832238,6.273296 6.313455,6.273296s6.313455,-2.814222 6.313455,-6.273296c0,-2.673154 -1.691974,-4.95971 -4.067073,-5.861475l0,-2.790339c6.31031,-0.482578 12.060372,-2.981852 16.599635,-6.846944l1.639184,1.628981c-0.461856,0.926765 -0.722886,1.969375 -0.722886,3.071806c0,3.830494 3.136398,6.946942 6.991413,6.946942s6.991413,-3.116448 6.991413,-6.946942s-3.136173,-6.946718 -6.991413,-6.946718c-1.109488,0 -2.158772,0.259369 -3.09147,0.718287l-1.639409,-1.628981c3.890059,-4.510166 6.405107,-10.223877 6.890775,-16.494048l2.807977,0c0.907538,2.360215 3.208731,4.041204 5.899222,4.041204c3.481217,0 6.313455,-2.814222 6.313455,-6.273296c0.000449,-3.459297 -2.831564,-6.273296 -6.312781,-6.273296zm-37.621047,-34.915507c1.558315,0 2.825948,1.259793 2.825948,2.808196s-1.267633,2.808196 -2.825948,2.808196s-2.826172,-1.259793 -2.826172,-2.808196s1.267858,-2.808196 2.826172,-2.808196zm-26.902438,16.940243c-1.377706,0 -2.49865,-1.113814 -2.49865,-2.482757s1.120944,-2.482757 2.49865,-2.482757s2.49865,1.113814 2.49865,2.482757s-1.120944,2.482757 -2.49865,2.482757zm-10.718608,26.057671c-1.003908,0 -1.820692,-0.811589 -1.820692,-1.809111s0.816784,-1.809111 1.820692,-1.809111s1.820692,0.811589 1.820692,1.809111s-0.81656,1.809111 -1.820692,1.809111zm9.090656,29.02256c-1.377706,0 -2.49865,-1.113814 -2.49865,-2.482757s1.120944,-2.482533 2.49865,-2.482533s2.49865,1.113591 2.49865,2.482533c-0.000225,1.368942 -1.121169,2.482757 -2.49865,2.482757zm28.530391,8.359186c-1.003908,0 -1.820692,-0.811589 -1.820692,-1.809111s0.816784,-1.809111 1.820692,-1.809111s1.820692,0.811589 1.820692,1.809111s-0.816784,1.809111 -1.820692,1.809111zm26.753728,-15.089838c1.377706,0 2.49865,1.113591 2.49865,2.482533s-1.120944,2.482757 -2.49865,2.482757s-2.49865,-1.113814 -2.49865,-2.482757s1.120944,-2.482533 2.49865,-2.482533zm10.867319,-22.291908c-1.003908,0 -1.820917,-0.811589 -1.820917,-1.809111s0.816784,-1.809111 1.820917,-1.809111c1.003908,0 1.820692,0.811589 1.820692,1.809111c-0.000225,0.997522 -0.816784,1.809111 -1.820692,1.809111z" id="XMLID_1043_"/>
    <path stroke="null" fill="#ffffff" d="m40.534963,49.662211c0,3.830494 3.136398,6.946942 6.991413,6.946942s6.991413,-3.116448 6.991413,-6.946942s-3.136398,-6.946942 -6.991413,-6.946942s-6.991413,3.116224 -6.991413,6.946942zm9.489838,0c0,1.368942 -1.120944,2.482757 -2.49865,2.482757s-2.49865,-1.113814 -2.49865,-2.482757s1.120944,-2.482757 2.49865,-2.482757s2.49865,1.113814 2.49865,2.482757z" id="XMLID_1052_"/>
    <path stroke="null" fill="#ffffff" d="m64.583149,33.285572c-3.855015,0 -6.991413,3.116224 -6.991413,6.946942c0,3.830494 3.136173,6.946942 6.991413,6.946942c3.855015,0 6.991413,-3.116448 6.991413,-6.946942s-3.136398,-6.946942 -6.991413,-6.946942zm0,9.429698c-1.377706,0 -2.49865,-1.113814 -2.49865,-2.482757s1.120944,-2.482757 2.49865,-2.482757s2.49865,1.113814 2.49865,2.482757s-1.12072,2.482757 -2.49865,2.482757z" id="XMLID_1055_"/>
    <path stroke="null" fill="#ffffff" d="m62.642051,54.920575c-3.855015,0 -6.991413,3.116224 -6.991413,6.946718s3.136398,6.946942 6.991413,6.946942s6.991188,-3.116448 6.991188,-6.946942c0,-3.830271 -3.136173,-6.946718 -6.991188,-6.946718zm0,9.429698c-1.377706,0 -2.49865,-1.113814 -2.49865,-2.482757s1.120944,-2.482533 2.49865,-2.482533s2.498425,1.113814 2.498425,2.482533c0,1.368942 -1.12072,2.482757 -2.498425,2.482757z" id="XMLID_1058_"/>
    <path stroke="null" fill="#ffffff" d="m89.228199,27.377669c3.855015,0 6.991413,-3.116224 6.991413,-6.946942s-3.136398,-6.946942 -6.991413,-6.946942s-6.991188,3.116448 -6.991188,6.946942s3.136173,6.946942 6.991188,6.946942zm0,-9.429475c1.377706,0 2.49865,1.113814 2.49865,2.482757s-1.120944,2.482757 -2.49865,2.482757s-2.498425,-1.113814 -2.498425,-2.482757c-0.000225,-1.369166 1.12072,-2.482757 2.498425,-2.482757z" id="XMLID_1061_"/>
    <path stroke="null" fill="#ffffff" d="m78.688852,33.059907c0.590798,0 1.170365,-0.238834 1.588192,-0.654003s0.65819,-0.991049 0.65819,-1.580322c0,-0.58704 -0.240363,-1.16292 -0.65819,-1.578089s-0.997393,-0.654003 -1.588192,-0.654003s-1.170365,0.238834 -1.588192,0.654003s-0.65819,0.991049 -0.65819,1.578089c0,0.589272 0.240363,1.165152 0.65819,1.580322c0.417827,0.414946 0.997393,0.654003 1.588192,0.654003z" id="XMLID_1062_"/>
    <path stroke="null" fill="#ffffff" d="m76.328354,97.087481l-3.639138,0c-0.596414,0 -1.168568,0.235932 -1.589989,0.655342c-0.421421,0.419633 -0.657516,0.988371 -0.656393,1.580991l0,16.074861c0.002246,0.592621 0.274283,1.160018 0.697726,1.577197c0.420747,0.4145 0.989306,0.64686 1.581452,0.64686l0.011681,0c0.099964,-0.00067 2.462932,-0.013169 3.767855,-0.035713c4.985843,-0.086605 8.604539,-4.389856 8.604539,-10.231912c0.000225,-6.141379 -3.527268,-10.267626 -8.777735,-10.267626zm0.094797,16.036245c-0.409515,0.006919 -0.935618,0.013169 -1.462394,0.018303c-0.006065,-1.885002 -0.017746,-9.627015 -0.021116,-11.590364l1.388713,0c3.976095,0 4.285197,4.441864 4.285197,5.803441c0,2.834981 -1.295713,5.718175 -4.1904,5.76862z" id="XMLID_1065_"/>
   </g>
  </g>
 </g>
</svg>