<svg xmlns="http://www.w3.org/2000/svg" height="512" width="512"><path d="M227.611 86.479h231.164v90.735H227.611z" fill="#688d97"/><path d="M493.815 437.809v63.889c0 5.69-4.612 10.302-10.302 10.302H202.872c-5.69 0-10.302-4.612-10.302-10.302v-63.889c0-71.363 57.851-129.215 129.215-129.215H364.6c71.363 0 129.215 57.852 129.215 129.215z" fill="#007bff"/><path d="M442.695 424.156V512h-15.453v-87.844a7.73 7.73 0 017.726-7.726 7.722 7.722 0 017.727 7.726zM259.137 424.156V512h-15.453v-87.844a7.729 7.729 0 017.726-7.726 7.729 7.729 0 017.727 7.726z" fill="#007bff"/><path d="M493.816 437.813v63.881c0 5.69-4.612 10.302-10.302 10.302h-24.606v-74.183c0-71.366-57.852-129.218-129.208-129.218h34.898c71.365-.001 129.218 57.852 129.218 129.218z" fill="#007bff"/><path d="M370.601 277.67v48.767c0 15.133-12.274 27.406-27.406 27.406-15.144 0-27.418-12.274-27.418-27.406V277.67z" fill="#fdb0a0"/><path d="M370.601 277.67v36.77c-8.292 3.743-17.583 5.842-27.406 5.842-9.824 0-19.125-2.099-27.418-5.842v-36.77z" fill="#f9a08f"/><circle cx="442.575" cy="180.147" fill="#f9a08f" r="31.392"/><circle cx="243.81" cy="180.147" fill="#f9a08f" r="31.392"/><path d="M433.698 138.882v60.303c0 49.909-39.917 91.257-89.826 91.638-50.3.361-91.195-40.287-91.195-90.505v-61.436c0-49.991 40.535-90.505 90.516-90.505 25.001 0 47.622 10.126 64.001 26.505 16.368 16.389 26.504 39.01 26.504 64z" fill="#fdb0a0"/><path d="M433.698 138.882v13.165c-7.262 2.38-14.988 3.636-22.94 3.636h-135.12a73.829 73.829 0 01-22.961-3.647v-13.154c0-49.991 40.535-90.505 90.516-90.505 25.001 0 47.622 10.126 64.001 26.505 16.368 16.389 26.504 39.01 26.504 64z" fill="#f9a08f"/><path d="M385.757 185.468l-.092-.001c-4.268-.049-7.729-3.549-7.679-7.816.048-4.236 3.456-7.637 7.68-7.637l.092.001.087.001a7.727 7.727 0 01-.088 15.452z" fill="#ba5d4f"/><g><path d="M300.716 185.468c-4.268 0-7.77-3.459-7.77-7.726 0-4.268 3.417-7.726 7.684-7.726h.086a7.726 7.726 0 110 15.452z" fill="#ba5d4f"/></g><g><path d="M305.352 0c-39.732 0-74.106 28.304-81.014 67.431a136.505 136.505 0 00-1.277 8.97 53.019 53.019 0 003.671 25.899l.012.029c8.154 19.816 27.464 32.751 48.892 32.751h135.125a52.87 52.87 0 0048.916-32.808 53.045 53.045 0 003.648-25.842 135.92 135.92 0 00-1.28-8.998C455.137 28.305 420.763 0 381.031 0z" fill="#3f5959"/><path d="M463.633 82.165a53.122 53.122 0 01-3.955 20.108c-8.138 19.85-27.463 32.809-48.92 32.809h-32.201c21.457 0 40.782-12.959 48.92-32.809a53.119 53.119 0 003.646-25.846c-.33-3.028-.752-6.037-1.277-8.993C422.933 28.3 388.559.003 348.827.003h32.201c39.731 0 74.106 28.297 81.018 67.431a134.64 134.64 0 011.277 8.993c.207 1.916.31 3.832.31 5.738z" fill="#384848"/></g><g><path d="M336.378 184.368c-14.693 5.352-48.735 21.053-57.549 53.982v28.032a24.255 24.255 0 0013.716 21.836c10.959 5.295 28.194 11.185 50.648 11.185 22.453 0 39.689-5.889 50.648-11.185a24.255 24.255 0 0013.716-21.836V238.35c-8.814-32.929-42.856-48.63-57.549-53.982a19.905 19.905 0 00-13.63 0z" fill="#eff5f6"/><path d="M407.558 238.355v28.031c0 9.303-5.336 17.781-13.722 21.829-10.312 4.986-26.198 10.497-46.76 11.126 7.747-2.071 14.227-4.667 19.347-7.139a24.244 24.244 0 0013.712-21.84v-28.031c-8.375-31.317-39.58-47.048-55.259-53.116a127.95 127.95 0 0111.497-4.852 20.015 20.015 0 0113.64 0c14.69 5.357 48.727 21.057 57.545 53.992z" fill="#cbe5e7"/></g><path d="M355.435 273.393h-24.484a5.15 5.15 0 01-5.151-5.151v-24.484a5.15 5.15 0 015.151-5.151h24.484a5.15 5.15 0 015.151 5.151v24.484a5.152 5.152 0 01-5.151 5.151z" fill="#8dcafc"/><g><circle cx="164.117" cy="181.419" fill="#fcb3a9" r="16.605"/><path d="M175.856 193.158c-6.484 6.484-16.998 6.488-23.481.004a16.505 16.505 0 01-3.906-6.183c5.844 2.071 12.624.765 17.298-3.91 4.675-4.675 5.981-11.455 3.91-17.298a16.505 16.505 0 016.183 3.906c6.485 6.483 6.48 16.997-.004 23.481z" fill="#fc9085"/><circle cx="120.251" cy="115.824" fill="#fcb3a9" r="16.605"/><path d="M131.991 127.563c-6.484 6.484-16.998 6.488-23.481.004a16.505 16.505 0 01-3.906-6.183c5.843 2.071 12.624.765 17.298-3.91s5.981-11.455 3.91-17.298a16.505 16.505 0 016.183 3.906c6.484 6.483 6.48 16.997-.004 23.481z" fill="#fc9085"/><g fill="#007bff"><circle cx="96.047" cy="179.521" r="58.871"/><path d="M137.678 221.151c-22.987 22.987-60.272 22.987-83.259 0a58.975 58.975 0 01-8.501-10.74c22.699 14.008 52.835 11.17 72.512-8.508s22.516-49.813 8.508-72.512a58.932 58.932 0 0110.74 8.501c22.988 22.987 22.988 60.271 0 83.259z"/></g><circle cx="79.113" cy="235.24" fill="#fcb3a9" r="16.605"/><path d="M90.852 246.979c-6.484 6.484-16.998 6.488-23.481.004a16.505 16.505 0 01-3.906-6.183c5.844 2.071 12.624.765 17.298-3.91 4.675-4.675 5.981-11.455 3.91-17.298a16.505 16.505 0 016.183 3.906c6.484 6.483 6.48 16.997-.004 23.481z" fill="#fc9085"/><g><circle cx="114.237" cy="186.016" fill="#fcb3a9" r="16.605"/><path d="M125.977 197.755c-6.484 6.484-16.998 6.488-23.481.004a16.505 16.505 0 01-3.906-6.183c5.844 2.071 12.624.765 17.298-3.91 4.675-4.675 5.981-11.455 3.91-17.298a16.505 16.505 0 016.183 3.906c6.484 6.483 6.479 16.997-.004 23.481z" fill="#fc9085"/></g><g><circle cx="41.558" cy="177.731" fill="#fcb3a9" r="16.605"/><path d="M53.298 189.47c-6.484 6.484-16.998 6.488-23.481.004a16.505 16.505 0 01-3.906-6.183c5.844 2.071 12.624.765 17.298-3.91 4.675-4.675 5.981-11.455 3.91-17.298a16.505 16.505 0 016.183 3.906c6.484 6.483 6.48 16.997-.004 23.481z" fill="#fc9085"/></g><g><path d="M239.365 362.585a7.706 7.706 0 01-5.464-2.263l-72.985-72.987H25.911a7.726 7.726 0 110-15.452h138.206a7.73 7.73 0 015.464 2.263l75.248 75.25a7.729 7.729 0 010 10.928 7.714 7.714 0 01-5.464 2.261z" fill="#eff5f6"/></g><g><path d="M143.701 324.96H45.979a7.726 7.726 0 110-15.452h97.722c4.268 0 7.726 3.459 7.726 7.726s-3.458 7.726-7.726 7.726z" fill="#007bff"/></g><g><path d="M143.701 352.089H88.029a7.726 7.726 0 110-15.452h55.672c4.268 0 7.726 3.459 7.726 7.726s-3.458 7.726-7.726 7.726z" fill="#7da2b0"/></g><g><path d="M143.701 379.216H88.029a7.726 7.726 0 110-15.452h55.672c4.268 0 7.726 3.459 7.726 7.726s-3.458 7.726-7.726 7.726z" fill="#7da2b0"/></g><g fill="#007bff"><path d="M133.078 456.117h-24.697c-5.69 0-10.302-4.612-10.302-10.302v-24.697c0-5.69 4.612-10.302 10.302-10.302h24.697c5.69 0 10.302 4.612 10.302 10.302v24.697c0 5.69-4.612 10.302-10.302 10.302z"/><path d="M143.378 421.116v24.704c0 5.687-4.605 10.302-10.302 10.302h-22.643c5.687 0 10.302-4.615 10.302-10.302v-24.704c0-5.687-4.615-10.302-10.302-10.302h22.643c5.697 0 10.302 4.615 10.302 10.302z"/></g></g></svg>