<svg xmlns="http://www.w3.org/2000/svg" viewBox="0 0 1900 1019.83"><defs><style>.cls-65{fill:#001842}</style></defs><g style="isolation:isolate"><g id="Layer_1" data-name="Layer 1"><path d="M1000.75 256.06C994 128.86 891 15 735.81 15c-4.33 0-8.73.08-13.14.26-129.78 5.33-216.21 129.57-216.21 129.57S421.85 19.34 292.14 12.14q-9-.5-17.74-.49C121.8 11.65 19.11 123 10.59 248.84c-8.76 129.1 81.34 246.27 154.18 326 99 108.37 248.9 219 336.58 270.56 88.41-50.27 239.9-158.72 340.49-265.62 74-78.66 165.8-194.5 158.91-323.72z" transform="translate(-10 -11.65)" fill="#2ad2ff"/><g style="mix-blend-mode:multiply" opacity=".2"><path fill="#fff" d="M950.84 1019.83v-86.29H441.38V570.67l256.63-256.63 252.83 252.83 58.99-63.04-311.82-311.82L243.6 646.42l61.02 61.02 50.48-50.48v362.87h595.74z"/><path fill="#fbfbfb" d="M952.74 1017.93v-86.29H443.28V568.77l256.63-256.63 252.83 252.83 58.99-63.04-311.82-311.82L245.5 644.52l61.01 61.02 50.48-50.48v362.87h595.75z"/><path fill="#f7f7f7" d="M954.63 1016.03v-86.28H445.18V566.87l256.63-256.62 252.82 252.83 59-63.04-311.82-311.83L247.4 642.63l61.01 61.01 50.48-50.48v362.87h595.74z"/><path fill="#f2f2f2" d="M956.53 1014.14v-86.29H447.08V564.98l256.63-256.63 252.82 252.83 59-63.04-311.82-311.83-454.42 454.42 61.02 61.02 50.48-50.49v362.88h595.74z"/><path fill="#eee" d="M958.43 1012.24v-86.29H448.98V563.08L705.6 306.45l252.83 252.83 58.99-63.04L705.6 184.42 251.19 638.83l61.02 61.02 50.48-50.48v362.87h595.74z"/><path fill="#eaeaea" d="M960.33 1010.34v-86.29H450.87V561.18L707.5 304.55l252.83 252.83 58.99-63.04L707.5 182.52 253.09 636.93l61.02 61.02 50.47-50.48v362.87h595.75z"/><path fill="#e6e6e6" d="M962.23 1008.44v-86.29H452.77V559.28L709.4 302.65l252.83 252.83 58.99-63.04L709.4 180.62 254.99 635.03 316 696.05l50.48-50.48v362.87h595.75z"/><path fill="#e2e2e2" d="M964.12 1006.54v-86.28H454.67V557.38L711.3 300.76l252.82 252.83 59-63.04L711.3 178.72 256.88 633.14l61.02 61.01 50.48-50.48v362.87h595.74z"/><path fill="#dedede" d="M966.02 1004.65v-86.29H456.57V555.49L713.2 298.86l252.82 252.83 59-63.04L713.2 176.83 258.78 631.24l61.02 61.02 50.48-50.48v362.87h595.74z"/><path fill="#d9d9d9" d="M967.92 1002.75v-86.29H458.46V553.59l256.63-256.63 252.83 252.83 58.99-63.04-311.82-311.82-454.41 454.41 61.02 61.02 50.48-50.48v362.87h595.74z"/><path fill="#d5d5d5" d="M969.82 1000.85v-86.29H460.36V551.69l256.63-256.63 252.83 252.83 58.99-63.04-311.82-311.82-454.41 454.41 61.01 61.02 50.48-50.48v362.87h595.75z"/><path fill="#d1d1d1" d="M971.71 998.95v-86.29H462.26V549.79l256.63-256.62L971.71 546l59-63.05-311.82-311.82-454.41 454.41 61.01 61.02 50.48-50.48v362.87h595.74z"/><path fill="#cdcdcd" d="M973.61 997.06v-86.29H464.16V547.9l256.63-256.63L973.61 544.1l59-63.04-311.82-311.83-454.42 454.42 61.02 61.01 50.48-50.48v362.88h595.74z"/><path fill="#c9c9c9" d="M975.51 995.16v-86.29H466.06V546l256.62-256.63L975.51 542.2l58.99-63.04-311.82-311.82-454.41 454.41 61.02 61.02 50.48-50.48v362.87h595.74z"/><path fill="#c4c4c4" d="M977.41 993.26v-86.29H467.95V544.1l256.63-256.63L977.41 540.3l58.99-63.04-311.82-311.82-454.41 454.41 61.02 61.02 50.48-50.48v362.87h595.74z"/><path fill="silver" d="M979.3 991.36v-86.29H469.85V542.2l256.63-256.63L979.3 538.4l59-63.04-311.82-311.82-454.41 454.41 61.01 61.02 50.48-50.48v362.87H979.3z"/><path fill="#bcbcbc" d="M981.2 989.46v-86.28H471.75V540.3l256.63-256.62L981.2 536.51l59-63.04-311.82-311.83-454.42 454.42 61.02 61.01 50.48-50.48v362.87H981.2z"/><path fill="#b8b8b8" d="M983.1 987.57v-86.29H473.65V538.41l256.62-256.63L983.1 534.61l59-63.04-311.83-311.82-454.41 454.41 61.02 61.02 50.48-50.48v362.87H983.1z"/><path fill="#b4b4b4" d="M985 985.67v-86.29H475.54V536.51l256.63-256.63L985 532.71l58.99-63.04-311.82-311.82-454.41 454.41 61.02 61.02 50.48-50.48v362.87H985z"/><path fill="#b0b0b0" d="M986.9 983.77v-86.29H477.44V534.61l256.63-256.63L986.9 530.81l58.99-63.04-311.82-311.82-454.41 454.41 61.01 61.02 50.48-50.48v362.87H986.9z"/><path fill="#ababab" d="M988.79 981.87v-86.28H479.34V532.71l256.63-256.62 252.82 252.82 59-63.04-311.82-311.82-454.41 454.42 61.01 61.01L393.05 619v362.87h595.74z"/><path fill="#a7a7a7" d="M990.69 979.98v-86.29H481.24V530.82l256.63-256.63 252.82 252.83 59-63.04-311.82-311.83-454.42 454.42 61.02 61.01 50.48-50.47v362.87h595.74z"/><path fill="#a3a3a3" d="M992.59 978.08v-86.29H483.13V528.92l256.63-256.63 252.83 252.83 58.99-63.04-311.82-311.82-454.41 454.41 61.02 61.02 50.48-50.48v362.87h595.74z"/><path fill="#9f9f9f" d="M994.49 976.18v-86.29H485.03V527.02l256.63-256.63 252.83 252.83 58.99-63.04-311.82-311.82-454.41 454.41 61.02 61.02 50.48-50.48v362.87h595.74z"/><path fill="#9b9b9b" d="M996.39 974.28v-86.29H486.93V525.12L743.56 268.5l252.83 252.82 58.99-63.04-311.82-311.82-454.41 454.41 61.01 61.02 50.48-50.48v362.87h595.75z"/><path fill="#969696" d="M998.28 972.38V886.1H488.83V523.23L745.46 266.6l252.82 252.83 59-63.05-311.82-311.82-454.41 454.42 61.01 61.01 50.48-50.48v362.87h595.74z"/><path fill="#929292" d="M1000.18 970.49V884.2H490.73V521.33L747.36 264.7l252.82 252.83 58.99-63.04-311.81-311.83-454.42 454.42 61.02 61.02 50.48-50.48v362.87h595.74z"/><path fill="#8e8e8e" d="M1002.08 968.59V882.3H492.62V519.43L749.25 262.8l252.83 252.83 58.99-63.04-311.82-311.82-454.41 454.41 61.02 61.02 50.48-50.48v362.87h595.74z"/><path fill="#8a8a8a" d="M1003.98 966.69V880.4H494.52V517.53L751.15 260.9l252.83 252.83 58.99-63.04-311.82-311.82-454.41 454.41 61.01 61.02 50.48-50.48v362.87h595.75z"/><path fill="#868686" d="M1005.88 964.79V878.5H496.42V515.63l256.63-256.62 252.83 252.82 58.99-63.04-311.82-311.82-454.41 454.41 61.01 61.02 50.48-50.48v362.87h595.75z"/><path fill="#828282" d="M1007.77 962.89v-86.28H498.32V513.74l256.63-256.63 252.82 252.83 59-63.04-311.82-311.83-454.42 454.42 61.02 61.01 50.48-50.48v362.87h595.74z"/><path fill="#7d7d7d" d="M1009.67 961v-86.29H500.22V511.84l256.63-256.63 252.82 252.83 58.99-63.04-311.81-311.82-454.42 454.41 61.02 61.02 50.48-50.48V961h595.74z"/><path fill="#797979" d="M1011.57 959.1v-86.29H502.11V509.94l256.63-256.63 252.83 252.83 58.99-63.04-311.82-311.82-454.41 454.41 61.02 61.02 50.47-50.48V959.1h595.75z"/><path fill="#757575" d="M1013.47 957.2v-86.29H504.01V508.04l256.63-256.63 252.83 252.83 58.99-63.04-311.82-311.82-454.41 454.41 61.01 61.02 50.48-50.48V957.2h595.75z"/><path fill="#717171" d="M1015.36 955.3v-86.28H505.91V506.14l256.63-256.62 252.82 252.83 59-63.04-311.82-311.83L308.13 581.9l61.01 61.01 50.48-50.48V955.3h595.74z"/><path fill="#6d6d6d" d="M1017.26 953.41v-86.29H507.81V504.25l256.63-256.63 252.82 252.83 59-63.04-311.82-311.83L310.02 580l61.02 61.01 50.48-50.47v362.87h595.74z"/><path fill="#696969" d="M1019.16 951.51v-86.29H509.7V502.35l256.63-256.63 252.83 252.83 58.99-63.04-311.82-311.82L311.92 578.1l61.02 61.02 50.48-50.48v362.87h595.74z"/><path fill="#646464" d="M1021.06 949.61v-86.29H511.6V500.45l256.63-256.63 252.83 252.83 58.99-63.04-311.82-311.82L313.82 576.2l61.01 61.02 50.48-50.48v362.87h595.75z"/><path fill="#606060" d="M1022.96 947.71v-86.29H513.5V498.55l256.63-256.62 252.83 252.82 58.99-63.04-311.82-311.82L315.72 574.3l61.01 61.02 50.48-50.48v362.87h595.75z"/><path fill="#5c5c5c" d="M1024.85 945.82v-86.29H515.4V496.66l256.63-256.63 252.82 252.83 59-63.04-311.82-311.83-454.42 454.42 61.02 61.01 50.48-50.48v362.88h595.74z"/><path fill="#585858" d="M1026.75 943.92v-86.29H517.3V494.76l256.62-256.63 252.83 252.83 58.99-63.04L773.92 116.1 319.51 570.51l61.02 61.02 50.48-50.48v362.87h595.74z"/><path fill="#545454" d="M1028.65 942.02v-86.29H519.19V492.86l256.63-256.63 252.83 252.83 58.99-63.04L775.82 114.2 321.41 568.61l61.02 61.02 50.47-50.48v362.87h595.75z"/><path fill="#4f4f4f" d="M1030.55 940.12v-86.29H521.09V490.96l256.63-256.63 252.83 252.83 58.99-63.04L777.72 112.3 323.31 566.71l61.01 61.02 50.48-50.48v362.87h595.75z"/><path fill="#4b4b4b" d="M1032.44 938.22v-86.28H522.99V489.06l256.63-256.62 252.82 252.82 59-63.03L779.62 110.4 325.2 564.82l61.02 61.01 50.48-50.48v362.87h595.74z"/><path fill="#474747" d="M1034.34 936.33v-86.29H524.89V487.17l256.63-256.63 252.82 252.83 59-63.04L781.52 108.5 327.1 562.92l61.02 61.01 50.48-50.47v362.87h595.74z"/><path fill="#434343" d="M1036.24 934.43v-86.29H526.78V485.27l256.63-256.63 252.83 252.83 58.99-63.04-311.82-311.82L329 561.02l61.02 61.02 50.48-50.48v362.87h595.74z"/><path fill="#3f3f3f" d="M1038.14 932.53v-86.29H528.68V483.37l256.63-256.63 252.83 252.83 58.99-63.04-311.82-311.82L330.9 559.12l61.02 61.02 50.47-50.48v362.87h595.75z"/><path fill="#3b3b3b" d="M1040.04 930.63v-86.29H530.58V481.47l256.63-256.63 252.83 252.83 58.99-63.04-311.82-311.82L332.8 557.22l61.01 61.02 50.48-50.48v362.87h595.75z"/><path fill="#363636" d="M1041.93 928.74v-86.29H532.48V479.58l256.63-256.63 252.82 252.83 59-63.04-311.82-311.83-454.42 454.42 61.02 61.01 50.48-50.48v362.88h595.74z"/><path fill="#323232" d="M1043.83 926.84v-86.29H534.38V477.68L791 221.05l252.83 252.83 59-63.04L791 99.02 336.59 553.43l61.02 61.02 50.48-50.48v362.87h595.74z"/><path fill="#2e2e2e" d="M1045.73 924.94v-86.29H536.27V475.78L792.9 219.15l252.83 252.83 58.99-63.04L792.9 97.12 338.49 551.53l61.02 61.02 50.48-50.48v362.87h595.74z"/><path fill="#2a2a2a" d="M1047.63 923.04v-86.29H538.17V473.88L794.8 217.25l252.83 252.83 58.99-63.04L794.8 95.22 340.39 549.63l61.01 61.02 50.48-50.48v362.87h595.75z"/><path fill="#262626" d="M1049.52 921.14v-86.28H540.07V471.99L796.7 215.36l252.82 252.83 59-63.05L796.7 93.32 342.29 547.74l61.01 61.01 50.48-50.48v362.87h595.74z"/><path fill="#212121" d="M1051.42 919.25v-86.29H541.97V470.09L798.6 213.46l252.82 252.83 59-63.04L798.6 91.42 344.18 545.84l61.02 61.02 50.48-50.48v362.87h595.74z"/><path fill="#1d1d1d" d="M1053.32 917.35v-86.29H543.87V468.19l256.62-256.63 252.83 252.83 58.99-63.04L800.49 89.53 346.08 543.94l61.02 61.02 50.48-50.48v362.87h595.74z"/><path fill="#191919" d="M1055.22 915.45v-86.29H545.76V466.29l256.63-256.63 252.83 252.83 58.99-63.04L802.39 87.63 347.98 542.04 409 603.06l50.48-50.48v362.87h595.74z"/><path fill="#151515" d="M1057.12 913.55v-86.29H547.66V464.39l256.63-256.63 252.83 252.83 58.99-63.04L804.29 85.73 349.88 540.14l61.01 61.02 50.48-50.48v362.87h595.75z"/><path fill="#111" d="M1059.01 911.65v-86.28H549.56V462.5l256.63-256.63 252.82 252.83 59-63.04L806.19 83.83 351.77 538.25l61.02 61.01 50.48-50.48v362.87h595.74z"/><path fill="#0d0d0d" d="M1060.91 909.76v-86.29H551.46V460.6l256.63-256.63 252.82 252.83 58.99-63.04L808.09 81.94 353.67 536.35l61.02 61.02 50.48-50.48v362.87h595.74z"/><path fill="#080808" d="M1062.81 907.86v-86.29H553.35V458.7l256.63-256.63 252.83 252.83 58.99-63.04L809.98 80.04 355.57 534.45l61.02 61.02 50.48-50.48v362.87h595.74z"/><path fill="#040404" d="M1064.71 905.96v-86.29H555.25V456.8l256.63-256.63L1064.71 453l58.99-63.04L811.88 78.14 357.47 532.55l61.01 61.02 50.48-50.48v362.87h595.75z"/><path d="M1066.6 904.06v-86.29H557.15V454.9l256.63-256.62 252.82 252.83 59-63.05L813.78 76.24 359.37 530.65l61.01 61.02 50.48-50.48v362.87h595.74z"/></g><path class="cls-65" d="M1066.6 904.06v-86.29H557.15V454.9l256.63-256.62 252.82 252.83 59-63.05L813.78 76.24 359.37 530.65l61.01 61.02 50.48-50.48v362.87h595.74z"/><path class="cls-65" d="M738 569.59v-25.34Q738 527 721.12 527h-6q-16.5 0-16.49 17.3v47.87q0 8.05 3.22 10.86a81.14 81.14 0 0010.45 7.24l36.61 19.71A170.41 170.41 0 01766 640.59a27.37 27.37 0 017.84 9.25q2.82 5.43 2.82 20.72v61.55q0 48.67-46.66 48.68h-23.77q-46.26 0-46.26-53.11V713.2h38.62v15.69q0 16.9 17.3 16.9h6.83q15.28 0 15.29-16.9v-49.08q0-8-3.22-10.86a83.51 83.51 0 00-10.46-7.24l-36.6-20.52q-12.08-6.42-17.5-10.86a24.79 24.79 0 01-7.85-11.46q-2.42-7-2.41-18.3v-59.14Q660 492 706.23 492h24.14q46.26 0 46.26 49.48v28.16zM870.35 527v253.79h-38.62V527h-37v-35h112.63v35zM966.09 780.79h-38.62V541.43q0-49.47 46.27-49.48h29q46.26 0 46.26 49.48v239.36h-38.62V675h-44.29zM1010.34 640v-96.16q0-16.89-16.89-16.89H983q-16.9 0-16.9 16.89V640zM1147.11 780.79h-38.62v-106.2L1061 492h38.21l29 125.51h1.2L1155.56 492h38.22l-46.67 182.64zM1366.35 780.79V649.64h-47.47v131.15h-38.62V492h38.62v122.7h47.47V492H1405v288.79zM1485.82 780.79q-46.66 0-46.67-49.08V541.43q0-49.47 46.27-49.48h37q46.24 0 46.26 49.48v190.28q0 49.08-46.67 49.08zm9.25-35h19.71q15.29 0 15.29-16.9v-185q0-16.89-17.3-16.89h-18.1q-16.89 0-16.9 16.89v185q0 16.91 17.3 16.9zM1681.32 661.71l35.8-169.71h42.65v288.79h-38.62l4-189.07-29 136.77h-29.77l-29-136.77 4 189.07h-38.62V492h42.64zM1796 780.79V492h95.74v35h-57.12v87.7h50.68v35h-50.68v96.15h57.12v35zM1134.94 910.68a45.8 45.8 0 01-14.7-6.33l7.35-16.51a47.61 47.61 0 0012.33 5.66 46.94 46.94 0 0013.79 2.14q12.9 0 12.9-6.44 0-3.39-3.68-5a68.18 68.18 0 00-11.82-3.45 113.16 113.16 0 01-14.93-4.12 25.21 25.21 0 01-10.29-7.07q-4.29-4.86-4.29-13.12a22.72 22.72 0 014-13.07 26.49 26.49 0 0111.82-9.21q7.86-3.4 19.29-3.4a68 68 0 0115.38 1.76 47.12 47.12 0 0113.34 5.14l-6.9 16.63q-11.31-6.11-21.94-6.11-6.68 0-9.72 2a5.94 5.94 0 00-3.06 5.15q0 3.16 3.62 4.75a66.13 66.13 0 0011.57 3.22 107.7 107.7 0 0115 4.13 25.85 25.85 0 0110.29 7q4.35 4.8 4.35 13.06a22.3 22.3 0 01-4 12.89q-4 5.77-11.88 9.22t-19.23 3.45a72.87 72.87 0 01-18.59-2.37zM1263.31 896.1h-33.48l-6.22 15.38h-22.84l34.94-79.17h22.06l35.06 79.17h-23.3zm-6.56-16.52l-10.18-25.33-10.18 25.33zM1386.36 832.31l-33.93 79.17h-22l-33.82-79.17h24.2l21.49 51.57 21.94-51.57zM1465.87 894.17v17.31h-63.56v-79.17h62.09v17.3h-39.93V863h35.18v16.7h-35.18v14.47zM1533.84 832.31h22.4v61.41H1594v17.76h-60.17zM1614.14 832.31h22.39v79.17h-22.39zM1743.86 832.31l-33.93 79.17h-22l-33.82-79.17h24.2l21.49 51.57 22-51.57zM1823.37 894.17v17.31h-63.56v-79.17h62.09v17.3H1782V863h35.17v16.7H1782v14.47zM1856.28 910.68a45.8 45.8 0 01-14.7-6.33l7.35-16.51a47.77 47.77 0 0012.33 5.66 47 47 0 0013.8 2.14q12.89 0 12.89-6.44c0-2.26-1.23-3.94-3.67-5a68.63 68.63 0 00-11.83-3.45 112.54 112.54 0 01-14.92-4.12 25.18 25.18 0 01-10.3-7.07q-4.29-4.86-4.29-13.12a22.8 22.8 0 014-13.07 26.49 26.49 0 0111.82-9.21q7.86-3.4 19.29-3.4a68 68 0 0115.38 1.76 47.12 47.12 0 0113.34 5.14l-6.89 16.63q-11.32-6.11-21.95-6.11c-4.44 0-7.69.66-9.72 2a5.94 5.94 0 00-3.06 5.15q0 3.16 3.62 4.75a65.86 65.86 0 0011.65 3.28 107.7 107.7 0 0115 4.13 25.88 25.88 0 0110.3 7q4.33 4.8 4.34 13.06a22.3 22.3 0 01-4 12.89q-4 5.77-11.88 9.22t-19.23 3.45a72.87 72.87 0 01-18.67-2.43z" transform="translate(-10 -11.65)"/></g></g></svg>