<svg xmlns="http://www.w3.org/2000/svg" viewBox="0 0 1900 1019.83"><defs><style>.cls-1{isolation:isolate;}.cls-2{fill:#2ad2ff;}.cls-3{opacity:0.2;mix-blend-mode:multiply;}.cls-4{fill:#fff;}.cls-5{fill:#fbfbfb;}.cls-6{fill:#f7f7f7;}.cls-7{fill:#f2f2f2;}.cls-8{fill:#eee;}.cls-9{fill:#eaeaea;}.cls-10{fill:#e6e6e6;}.cls-11{fill:#e2e2e2;}.cls-12{fill:#dedede;}.cls-13{fill:#d9d9d9;}.cls-14{fill:#d5d5d5;}.cls-15{fill:#d1d1d1;}.cls-16{fill:#cdcdcd;}.cls-17{fill:#c9c9c9;}.cls-18{fill:#c4c4c4;}.cls-19{fill:silver;}.cls-20{fill:#bcbcbc;}.cls-21{fill:#b8b8b8;}.cls-22{fill:#b4b4b4;}.cls-23{fill:#b0b0b0;}.cls-24{fill:#ababab;}.cls-25{fill:#a7a7a7;}.cls-26{fill:#a3a3a3;}.cls-27{fill:#9f9f9f;}.cls-28{fill:#9b9b9b;}.cls-29{fill:#969696;}.cls-30{fill:#929292;}.cls-31{fill:#8e8e8e;}.cls-32{fill:#8a8a8a;}.cls-33{fill:#868686;}.cls-34{fill:#828282;}.cls-35{fill:#7d7d7d;}.cls-36{fill:#797979;}.cls-37{fill:#757575;}.cls-38{fill:#717171;}.cls-39{fill:#6d6d6d;}.cls-40{fill:#696969;}.cls-41{fill:#646464;}.cls-42{fill:#606060;}.cls-43{fill:#5c5c5c;}.cls-44{fill:#585858;}.cls-45{fill:#545454;}.cls-46{fill:#4f4f4f;}.cls-47{fill:#4b4b4b;}.cls-48{fill:#474747;}.cls-49{fill:#434343;}.cls-50{fill:#3f3f3f;}.cls-51{fill:#3b3b3b;}.cls-52{fill:#363636;}.cls-53{fill:#323232;}.cls-54{fill:#2e2e2e;}.cls-55{fill:#2a2a2a;}.cls-56{fill:#262626;}.cls-57{fill:#212121;}.cls-58{fill:#1d1d1d;}.cls-59{fill:#191919;}.cls-60{fill:#151515;}.cls-61{fill:#111;}.cls-62{fill:#0d0d0d;}.cls-63{fill:#080808;}.cls-64{fill:#040404;}.cls-65{fill:#001842;}</style></defs><g class="cls-1"><g id="Layer_1" data-name="Layer 1"><path class="cls-2" d="M1000.75,256.06C994,128.86,891,15,735.81,15c-4.33,0-8.73.08-13.14.26C592.89,20.59,506.46,144.83,506.46,144.83S421.85,19.34,292.14,12.14q-9-.5-17.74-.49C121.8,11.65,19.11,123,10.59,248.84c-8.76,129.1,81.34,246.27,154.18,326,99,108.37,248.9,219,336.58,270.56,88.41-50.27,239.9-158.72,340.49-265.62C915.84,501.12,1007.64,385.28,1000.75,256.06Z" transform="translate(-10 -11.65)"/><g class="cls-3"><polygon class="cls-4" points="950.84 1019.83 950.84 933.54 441.38 933.54 441.38 570.67 698.01 314.04 950.84 566.87 1009.83 503.83 698.01 192.01 243.6 646.42 304.62 707.44 355.1 656.96 355.1 1019.83 950.84 1019.83"/><polygon class="cls-5" points="952.74 1017.93 952.74 931.64 443.28 931.64 443.28 568.77 699.91 312.14 952.74 564.97 1011.73 501.93 699.91 190.11 245.5 644.52 306.51 705.54 356.99 655.06 356.99 1017.93 952.74 1017.93"/><polygon class="cls-6" points="954.63 1016.03 954.63 929.75 445.18 929.75 445.18 566.87 701.81 310.25 954.63 563.08 1013.63 500.04 701.81 188.21 247.4 642.63 308.41 703.64 358.89 653.16 358.89 1016.03 954.63 1016.03"/><polygon class="cls-7" points="956.53 1014.14 956.53 927.85 447.08 927.85 447.08 564.98 703.71 308.35 956.53 561.18 1015.53 498.14 703.71 186.31 249.29 640.73 310.31 701.75 360.79 651.26 360.79 1014.14 956.53 1014.14"/><polygon class="cls-8" points="958.43 1012.24 958.43 925.95 448.98 925.95 448.98 563.08 705.6 306.45 958.43 559.28 1017.42 496.24 705.6 184.42 251.19 638.83 312.21 699.85 362.69 649.37 362.69 1012.24 958.43 1012.24"/><polygon class="cls-9" points="960.33 1010.34 960.33 924.05 450.87 924.05 450.87 561.18 707.5 304.55 960.33 557.38 1019.32 494.34 707.5 182.52 253.09 636.93 314.11 697.95 364.58 647.47 364.58 1010.34 960.33 1010.34"/><polygon class="cls-10" points="962.23 1008.44 962.23 922.15 452.77 922.15 452.77 559.28 709.4 302.65 962.23 555.48 1021.22 492.44 709.4 180.62 254.99 635.03 316 696.05 366.48 645.57 366.48 1008.44 962.23 1008.44"/><polygon class="cls-11" points="964.12 1006.54 964.12 920.26 454.67 920.26 454.67 557.38 711.3 300.76 964.12 553.59 1023.12 490.55 711.3 178.72 256.88 633.14 317.9 694.15 368.38 643.67 368.38 1006.54 964.12 1006.54"/><polygon class="cls-12" points="966.02 1004.65 966.02 918.36 456.57 918.36 456.57 555.49 713.2 298.86 966.02 551.69 1025.02 488.65 713.2 176.83 258.78 631.24 319.8 692.26 370.28 641.78 370.28 1004.65 966.02 1004.65"/><polygon class="cls-13" points="967.92 1002.75 967.92 916.46 458.46 916.46 458.46 553.59 715.09 296.96 967.92 549.79 1026.91 486.75 715.09 174.93 260.68 629.34 321.7 690.36 372.18 639.88 372.18 1002.75 967.92 1002.75"/><polygon class="cls-14" points="969.82 1000.85 969.82 914.56 460.36 914.56 460.36 551.69 716.99 295.06 969.82 547.89 1028.81 484.85 716.99 173.03 262.58 627.44 323.59 688.46 374.07 637.98 374.07 1000.85 969.82 1000.85"/><polygon class="cls-15" points="971.71 998.95 971.71 912.66 462.26 912.66 462.26 549.79 718.89 293.17 971.71 546 1030.71 482.95 718.89 171.13 264.48 625.54 325.49 686.56 375.97 636.08 375.97 998.95 971.71 998.95"/><polygon class="cls-16" points="973.61 997.06 973.61 910.77 464.16 910.77 464.16 547.9 720.79 291.27 973.61 544.1 1032.61 481.06 720.79 169.23 266.37 623.65 327.39 684.66 377.87 634.18 377.87 997.06 973.61 997.06"/><polygon class="cls-17" points="975.51 995.16 975.51 908.87 466.06 908.87 466.06 546 722.68 289.37 975.51 542.2 1034.5 479.16 722.68 167.34 268.27 621.75 329.29 682.77 379.77 632.29 379.77 995.16 975.51 995.16"/><polygon class="cls-18" points="977.41 993.26 977.41 906.97 467.95 906.97 467.95 544.1 724.58 287.47 977.41 540.3 1036.4 477.26 724.58 165.44 270.17 619.85 331.19 680.87 381.67 630.39 381.67 993.26 977.41 993.26"/><polygon class="cls-19" points="979.3 991.36 979.3 905.07 469.85 905.07 469.85 542.2 726.48 285.57 979.3 538.4 1038.3 475.36 726.48 163.54 272.07 617.95 333.08 678.97 383.56 628.49 383.56 991.36 979.3 991.36"/><polygon class="cls-20" points="981.2 989.46 981.2 903.18 471.75 903.18 471.75 540.3 728.38 283.68 981.2 536.51 1040.2 473.47 728.38 161.64 273.96 616.06 334.98 677.07 385.46 626.59 385.46 989.46 981.2 989.46"/><polygon class="cls-21" points="983.1 987.57 983.1 901.28 473.65 901.28 473.65 538.41 730.27 281.78 983.1 534.61 1042.1 471.57 730.27 159.75 275.86 614.16 336.88 675.18 387.36 624.7 387.36 987.57 983.1 987.57"/><polygon class="cls-22" points="985 985.67 985 899.38 475.54 899.38 475.54 536.51 732.17 279.88 985 532.71 1043.99 469.67 732.17 157.85 277.76 612.26 338.78 673.28 389.26 622.8 389.26 985.67 985 985.67"/><polygon class="cls-23" points="986.9 983.77 986.9 897.48 477.44 897.48 477.44 534.61 734.07 277.98 986.9 530.81 1045.89 467.77 734.07 155.95 279.66 610.36 340.67 671.38 391.15 620.9 391.15 983.77 986.9 983.77"/><polygon class="cls-24" points="988.79 981.87 988.79 895.59 479.34 895.59 479.34 532.71 735.97 276.09 988.79 528.91 1047.79 465.87 735.97 154.05 281.56 608.47 342.57 669.48 393.05 619 393.05 981.87 988.79 981.87"/><polygon class="cls-25" points="990.69 979.98 990.69 893.69 481.24 893.69 481.24 530.82 737.87 274.19 990.69 527.02 1049.69 463.98 737.87 152.15 283.45 606.57 344.47 667.58 394.95 617.11 394.95 979.98 990.69 979.98"/><polygon class="cls-26" points="992.59 978.08 992.59 891.79 483.13 891.79 483.13 528.92 739.76 272.29 992.59 525.12 1051.58 462.08 739.76 150.26 285.35 604.67 346.37 665.69 396.85 615.21 396.85 978.08 992.59 978.08"/><polygon class="cls-27" points="994.49 976.18 994.49 889.89 485.03 889.89 485.03 527.02 741.66 270.39 994.49 523.22 1053.48 460.18 741.66 148.36 287.25 602.77 348.27 663.79 398.75 613.31 398.75 976.18 994.49 976.18"/><polygon class="cls-28" points="996.39 974.28 996.39 887.99 486.93 887.99 486.93 525.12 743.56 268.5 996.39 521.32 1055.38 458.28 743.56 146.46 289.15 600.87 350.16 661.89 400.64 611.41 400.64 974.28 996.39 974.28"/><polygon class="cls-29" points="998.28 972.38 998.28 886.1 488.83 886.1 488.83 523.23 745.46 266.6 998.28 519.43 1057.28 456.38 745.46 144.56 291.05 598.98 352.06 659.99 402.54 609.51 402.54 972.38 998.28 972.38"/><polygon class="cls-30" points="1000.18 970.49 1000.18 884.2 490.73 884.2 490.73 521.33 747.36 264.7 1000.18 517.53 1059.17 454.49 747.36 142.66 292.94 597.08 353.96 658.1 404.44 607.62 404.44 970.49 1000.18 970.49"/><polygon class="cls-31" points="1002.08 968.59 1002.08 882.3 492.62 882.3 492.62 519.43 749.25 262.8 1002.08 515.63 1061.07 452.59 749.25 140.77 294.84 595.18 355.86 656.2 406.34 605.72 406.34 968.59 1002.08 968.59"/><polygon class="cls-32" points="1003.98 966.69 1003.98 880.4 494.52 880.4 494.52 517.53 751.15 260.9 1003.98 513.73 1062.97 450.69 751.15 138.87 296.74 593.28 357.75 654.3 408.23 603.82 408.23 966.69 1003.98 966.69"/><polygon class="cls-33" points="1005.88 964.79 1005.88 878.5 496.42 878.5 496.42 515.63 753.05 259.01 1005.88 511.83 1064.87 448.79 753.05 136.97 298.64 591.38 359.65 652.4 410.13 601.92 410.13 964.79 1005.88 964.79"/><polygon class="cls-34" points="1007.77 962.89 1007.77 876.61 498.32 876.61 498.32 513.74 754.95 257.11 1007.77 509.94 1066.77 446.9 754.95 135.07 300.53 589.49 361.55 650.5 412.03 600.02 412.03 962.89 1007.77 962.89"/><polygon class="cls-35" points="1009.67 961 1009.67 874.71 500.22 874.71 500.22 511.84 756.85 255.21 1009.67 508.04 1068.66 445 756.85 133.18 302.43 587.59 363.45 648.61 413.93 598.13 413.93 961 1009.67 961"/><polygon class="cls-36" points="1011.57 959.1 1011.57 872.81 502.11 872.81 502.11 509.94 758.74 253.31 1011.57 506.14 1070.56 443.1 758.74 131.28 304.33 585.69 365.35 646.71 415.82 596.23 415.82 959.1 1011.57 959.1"/><polygon class="cls-37" points="1013.47 957.2 1013.47 870.91 504.01 870.91 504.01 508.04 760.64 251.41 1013.47 504.24 1072.46 441.2 760.64 129.38 306.23 583.79 367.24 644.81 417.72 594.33 417.72 957.2 1013.47 957.2"/><polygon class="cls-38" points="1015.36 955.3 1015.36 869.02 505.91 869.02 505.91 506.14 762.54 249.52 1015.36 502.35 1074.36 439.31 762.54 127.48 308.13 581.9 369.14 642.91 419.62 592.43 419.62 955.3 1015.36 955.3"/><polygon class="cls-39" points="1017.26 953.41 1017.26 867.12 507.81 867.12 507.81 504.25 764.44 247.62 1017.26 500.45 1076.26 437.41 764.44 125.58 310.02 580 371.04 641.01 421.52 590.54 421.52 953.41 1017.26 953.41"/><polygon class="cls-40" points="1019.16 951.51 1019.16 865.22 509.7 865.22 509.7 502.35 766.33 245.72 1019.16 498.55 1078.15 435.51 766.33 123.69 311.92 578.1 372.94 639.12 423.42 588.64 423.42 951.51 1019.16 951.51"/><polygon class="cls-41" points="1021.06 949.61 1021.06 863.32 511.6 863.32 511.6 500.45 768.23 243.82 1021.06 496.65 1080.05 433.61 768.23 121.79 313.82 576.2 374.83 637.22 425.31 586.74 425.31 949.61 1021.06 949.61"/><polygon class="cls-42" points="1022.96 947.71 1022.96 861.42 513.5 861.42 513.5 498.55 770.13 241.93 1022.96 494.75 1081.95 431.71 770.13 119.89 315.72 574.3 376.73 635.32 427.21 584.84 427.21 947.71 1022.96 947.71"/><polygon class="cls-43" points="1024.85 945.82 1024.85 859.53 515.4 859.53 515.4 496.66 772.03 240.03 1024.85 492.86 1083.85 429.82 772.03 117.99 317.61 572.41 378.63 633.42 429.11 582.94 429.11 945.82 1024.85 945.82"/><polygon class="cls-44" points="1026.75 943.92 1026.75 857.63 517.3 857.63 517.3 494.76 773.92 238.13 1026.75 490.96 1085.74 427.92 773.92 116.1 319.51 570.51 380.53 631.53 431.01 581.05 431.01 943.92 1026.75 943.92"/><polygon class="cls-45" points="1028.65 942.02 1028.65 855.73 519.19 855.73 519.19 492.86 775.82 236.23 1028.65 489.06 1087.64 426.02 775.82 114.2 321.41 568.61 382.43 629.63 432.9 579.15 432.9 942.02 1028.65 942.02"/><polygon class="cls-46" points="1030.55 940.12 1030.55 853.83 521.09 853.83 521.09 490.96 777.72 234.33 1030.55 487.16 1089.54 424.12 777.72 112.3 323.31 566.71 384.32 627.73 434.8 577.25 434.8 940.12 1030.55 940.12"/><polygon class="cls-47" points="1032.44 938.22 1032.44 851.94 522.99 851.94 522.99 489.06 779.62 232.44 1032.44 485.26 1091.44 422.23 779.62 110.4 325.2 564.82 386.22 625.83 436.7 575.35 436.7 938.22 1032.44 938.22"/><polygon class="cls-48" points="1034.34 936.33 1034.34 850.04 524.89 850.04 524.89 487.17 781.52 230.54 1034.34 483.37 1093.34 420.33 781.52 108.5 327.1 562.92 388.12 623.93 438.6 573.46 438.6 936.33 1034.34 936.33"/><polygon class="cls-49" points="1036.24 934.43 1036.24 848.14 526.78 848.14 526.78 485.27 783.41 228.64 1036.24 481.47 1095.23 418.43 783.41 106.61 329 561.02 390.02 622.04 440.5 571.56 440.5 934.43 1036.24 934.43"/><polygon class="cls-50" points="1038.14 932.53 1038.14 846.24 528.68 846.24 528.68 483.37 785.31 226.74 1038.14 479.57 1097.13 416.53 785.31 104.71 330.9 559.12 391.92 620.14 442.39 569.66 442.39 932.53 1038.14 932.53"/><polygon class="cls-51" points="1040.04 930.63 1040.04 844.34 530.58 844.34 530.58 481.47 787.21 224.84 1040.04 477.67 1099.03 414.63 787.21 102.81 332.8 557.22 393.81 618.24 444.29 567.76 444.29 930.63 1040.04 930.63"/><polygon class="cls-52" points="1041.93 928.74 1041.93 842.45 532.48 842.45 532.48 479.58 789.11 222.95 1041.93 475.78 1100.93 412.74 789.11 100.91 334.69 555.33 395.71 616.34 446.19 565.86 446.19 928.74 1041.93 928.74"/><polygon class="cls-53" points="1043.83 926.84 1043.83 840.55 534.38 840.55 534.38 477.68 791 221.05 1043.83 473.88 1102.83 410.84 791 99.02 336.59 553.43 397.61 614.45 448.09 563.97 448.09 926.84 1043.83 926.84"/><polygon class="cls-54" points="1045.73 924.94 1045.73 838.65 536.27 838.65 536.27 475.78 792.9 219.15 1045.73 471.98 1104.72 408.94 792.9 97.12 338.49 551.53 399.51 612.55 449.99 562.07 449.99 924.94 1045.73 924.94"/><polygon class="cls-55" points="1047.63 923.04 1047.63 836.75 538.17 836.75 538.17 473.88 794.8 217.25 1047.63 470.08 1106.62 407.04 794.8 95.22 340.39 549.63 401.4 610.65 451.88 560.17 451.88 923.04 1047.63 923.04"/><polygon class="cls-56" points="1049.52 921.14 1049.52 834.86 540.07 834.86 540.07 471.99 796.7 215.36 1049.52 468.19 1108.52 405.14 796.7 93.32 342.29 547.74 403.3 608.75 453.78 558.27 453.78 921.14 1049.52 921.14"/><polygon class="cls-57" points="1051.42 919.25 1051.42 832.96 541.97 832.96 541.97 470.09 798.6 213.46 1051.42 466.29 1110.42 403.25 798.6 91.42 344.18 545.84 405.2 606.86 455.68 556.38 455.68 919.25 1051.42 919.25"/><polygon class="cls-58" points="1053.32 917.35 1053.32 831.06 543.87 831.06 543.87 468.19 800.49 211.56 1053.32 464.39 1112.31 401.35 800.49 89.53 346.08 543.94 407.1 604.96 457.58 554.48 457.58 917.35 1053.32 917.35"/><polygon class="cls-59" points="1055.22 915.45 1055.22 829.16 545.76 829.16 545.76 466.29 802.39 209.66 1055.22 462.49 1114.21 399.45 802.39 87.63 347.98 542.04 409 603.06 459.48 552.58 459.48 915.45 1055.22 915.45"/><polygon class="cls-60" points="1057.12 913.55 1057.12 827.26 547.66 827.26 547.66 464.39 804.29 207.76 1057.12 460.59 1116.11 397.55 804.29 85.73 349.88 540.14 410.89 601.16 461.37 550.68 461.37 913.55 1057.12 913.55"/><polygon class="cls-61" points="1059.01 911.65 1059.01 825.37 549.56 825.37 549.56 462.5 806.19 205.87 1059.01 458.7 1118.01 395.66 806.19 83.83 351.77 538.25 412.79 599.26 463.27 548.78 463.27 911.65 1059.01 911.65"/><polygon class="cls-62" points="1060.91 909.76 1060.91 823.47 551.46 823.47 551.46 460.6 808.09 203.97 1060.91 456.8 1119.9 393.76 808.09 81.94 353.67 536.35 414.69 597.37 465.17 546.89 465.17 909.76 1060.91 909.76"/><polygon class="cls-63" points="1062.81 907.86 1062.81 821.57 553.35 821.57 553.35 458.7 809.98 202.07 1062.81 454.9 1121.8 391.86 809.98 80.04 355.57 534.45 416.59 595.47 467.07 544.99 467.07 907.86 1062.81 907.86"/><polygon class="cls-64" points="1064.71 905.96 1064.71 819.67 555.25 819.67 555.25 456.8 811.88 200.17 1064.71 453 1123.7 389.96 811.88 78.14 357.47 532.55 418.48 593.57 468.96 543.09 468.96 905.96 1064.71 905.96"/><polygon points="1066.6 904.06 1066.6 817.77 557.15 817.77 557.15 454.9 813.78 198.28 1066.6 451.11 1125.6 388.06 813.78 76.24 359.37 530.65 420.38 591.67 470.86 541.19 470.86 904.06 1066.6 904.06"/></g><polygon class="cls-65" points="1066.6 904.06 1066.6 817.77 557.15 817.77 557.15 454.9 813.78 198.28 1066.6 451.11 1125.6 388.06 813.78 76.24 359.37 530.65 420.38 591.67 470.86 541.19 470.86 904.06 1066.6 904.06"/><path class="cls-65" d="M738,569.59V544.25Q738,527,721.12,527h-6q-16.5,0-16.49,17.3v47.87q0,8.05,3.22,10.86a81.14,81.14,0,0,0,10.45,7.24l36.61,19.71A170.41,170.41,0,0,1,766,640.59a27.37,27.37,0,0,1,7.84,9.25q2.82,5.43,2.82,20.72v61.55q0,48.67-46.66,48.68H706.23q-46.26,0-46.26-53.11V713.2h38.62v15.69q0,16.9,17.3,16.9h6.83q15.28,0,15.29-16.9V679.81q0-8-3.22-10.86a83.51,83.51,0,0,0-10.46-7.24l-36.6-20.52q-12.08-6.42-17.5-10.86a24.79,24.79,0,0,1-7.85-11.46q-2.42-7-2.41-18.3V541.43Q660,492,706.23,492h24.14q46.26,0,46.26,49.48v28.16Z" transform="translate(-10 -11.65)"/><path class="cls-65" d="M870.35,527V780.79H831.73V527h-37V492H907.36v35Z" transform="translate(-10 -11.65)"/><path class="cls-65" d="M966.09,780.79H927.47V541.43q0-49.47,46.27-49.48h29q46.26,0,46.26,49.48V780.79h-38.62V675H966.09ZM1010.34,640V543.84q0-16.89-16.89-16.89H983q-16.9,0-16.9,16.89V640Z" transform="translate(-10 -11.65)"/><path class="cls-65" d="M1147.11,780.79h-38.62V674.59L1061,492h38.21l29,125.51h1.2L1155.56,492h38.22l-46.67,182.64Z" transform="translate(-10 -11.65)"/><path class="cls-65" d="M1366.35,780.79V649.64h-47.47V780.79h-38.62V492h38.62v122.7h47.47V492H1405V780.79Z" transform="translate(-10 -11.65)"/><path class="cls-65" d="M1485.82,780.79q-46.66,0-46.67-49.08V541.43q0-49.47,46.27-49.48h37q46.24,0,46.26,49.48V731.71q0,49.08-46.67,49.08Zm9.25-35h19.71q15.29,0,15.29-16.9v-185q0-16.89-17.3-16.89h-18.1q-16.89,0-16.9,16.89v185Q1477.77,745.8,1495.07,745.79Z" transform="translate(-10 -11.65)"/><path class="cls-65" d="M1681.32,661.71,1717.12,492h42.65V780.79h-38.62l4-189.07-29,136.77h-29.77l-29-136.77,4,189.07h-38.62V492h42.64Z" transform="translate(-10 -11.65)"/><path class="cls-65" d="M1796,780.79V492h95.74v35h-57.12v87.7h50.68v35h-50.68v96.15h57.12v35Z" transform="translate(-10 -11.65)"/><path class="cls-65" d="M1134.94,910.68a45.8,45.8,0,0,1-14.7-6.33l7.35-16.51a47.61,47.61,0,0,0,12.33,5.66,46.94,46.94,0,0,0,13.79,2.14q12.9,0,12.9-6.44,0-3.39-3.68-5a68.18,68.18,0,0,0-11.82-3.45,113.16,113.16,0,0,1-14.93-4.12,25.21,25.21,0,0,1-10.29-7.07q-4.29-4.86-4.29-13.12a22.72,22.72,0,0,1,4-13.07,26.49,26.49,0,0,1,11.82-9.21q7.86-3.4,19.29-3.4a68,68,0,0,1,15.38,1.76,47.12,47.12,0,0,1,13.34,5.14l-6.9,16.63q-11.31-6.11-21.94-6.11-6.68,0-9.72,2a5.94,5.94,0,0,0-3.06,5.15q0,3.16,3.62,4.75A66.13,66.13,0,0,0,1159,863.3a107.7,107.7,0,0,1,15,4.13,25.85,25.85,0,0,1,10.29,7q4.35,4.8,4.35,13.06a22.3,22.3,0,0,1-4,12.89q-4,5.77-11.88,9.22t-19.23,3.45A72.87,72.87,0,0,1,1134.94,910.68Z" transform="translate(-10 -11.65)"/><path class="cls-65" d="M1263.31,896.1h-33.48l-6.22,15.38h-22.84l34.94-79.17h22.06l35.06,79.17h-23.3Zm-6.56-16.52-10.18-25.33-10.18,25.33Z" transform="translate(-10 -11.65)"/><path class="cls-65" d="M1386.36,832.31l-33.93,79.17h-22l-33.82-79.17h24.2l21.49,51.57,21.94-51.57Z" transform="translate(-10 -11.65)"/><path class="cls-65" d="M1465.87,894.17v17.31h-63.56V832.31h62.09v17.3h-39.93V863h35.18V879.7h-35.18v14.47Z" transform="translate(-10 -11.65)"/><path class="cls-65" d="M1533.84,832.31h22.4v61.41H1594v17.76h-60.17Z" transform="translate(-10 -11.65)"/><path class="cls-65" d="M1614.14,832.31h22.39v79.17h-22.39Z" transform="translate(-10 -11.65)"/><path class="cls-65" d="M1743.86,832.31l-33.93,79.17h-22l-33.82-79.17h24.2l21.49,51.57,22-51.57Z" transform="translate(-10 -11.65)"/><path class="cls-65" d="M1823.37,894.17v17.31h-63.56V832.31h62.09v17.3H1782V863h35.17V879.7H1782v14.47Z" transform="translate(-10 -11.65)"/><path class="cls-65" d="M1856.28,910.68a45.8,45.8,0,0,1-14.7-6.33l7.35-16.51a47.77,47.77,0,0,0,12.33,5.66,47,47,0,0,0,13.8,2.14q12.89,0,12.89-6.44c0-2.26-1.23-3.94-3.67-5a68.63,68.63,0,0,0-11.83-3.45,112.54,112.54,0,0,1-14.92-4.12,25.18,25.18,0,0,1-10.3-7.07q-4.29-4.86-4.29-13.12a22.8,22.8,0,0,1,4-13.07,26.49,26.49,0,0,1,11.82-9.21q7.86-3.4,19.29-3.4a68,68,0,0,1,15.38,1.76,47.12,47.12,0,0,1,13.34,5.14l-6.89,16.63q-11.32-6.11-21.95-6.11c-4.44,0-7.69.66-9.72,2a5.94,5.94,0,0,0-3.06,5.15q0,3.16,3.62,4.75a65.86,65.86,0,0,0,11.65,3.28,107.7,107.7,0,0,1,15,4.13,25.88,25.88,0,0,1,10.3,7q4.33,4.8,4.34,13.06a22.3,22.3,0,0,1-4,12.89q-4,5.77-11.88,9.22t-19.23,3.45A72.87,72.87,0,0,1,1856.28,910.68Z" transform="translate(-10 -11.65)"/></g></g></svg>