<svg version="1.1" id="Layer_1" xmlns="http://www.w3.org/2000/svg" x="0" y="0" viewBox="0 0 2609 2000" xml:space="preserve"><style>.st1{fill:#9cdedc}.st2{fill:#74bdc1}.st3{fill:#8fd0d6}.st4{opacity:.5;fill:#fff}.st6{fill:#333}.st7{fill:#ffc0bb}.st10{fill:#cfe4ff}.st11{fill:#122f5b}.st12{fill:#55769f}.st13{fill:#fff}.st15{fill:#f99893}.st17{fill:#3660ac}.st18{fill:#daeef7}.st19{fill:#224887}.st20{opacity:.8;fill:#fff}.st21{fill:#e72c3b}.st22{fill:#b20b1f}.st23{fill:#b6d5e0}.st25{opacity:.9;fill:#fff}.st26{fill:#feb546}.st27{fill:#f4a640}.st28{opacity:.2;fill:#fff}</style><path d="M2474.62 1613.96c-25.05-192.18 70.36-394.63 4.05-576.74-21.06-57.83-57.16-108.75-86.58-162.81-44.41-81.62-73.84-171.36-86.38-263.43-8.21-60.23-9.28-121.57-22.95-180.8-37.92-164.32-179.94-299.62-345.9-329.52-133.75-24.1-271.68 15.91-393.28 76.6-121.6 60.69-231.87 141.72-350.65 207.76C1066.52 455.31 930.57 508.43 790 542.45c-52.09 12.61-105.53 22.86-153.26 47.23-118.56 60.52-178.49 193.99-221.08 320.1-42.59 126.11-81.01 261.91-179.55 351.39-26.41 23.99-56.52 43.91-81 69.86-80.59 85.41-84.21 222.74-37.34 330.41 42.68 98.03 142.74 230.16 240.79 279.72 3.5 1.77 7.08 3.42 10.71 4.97h277.78c52.52-9.67 102.76-20.16 145.04-24.26 165.3-16.05 331.8-1.04 497.6 8.58 337.37 19.59 675.6 16.84 1013.53 14.09 49.45-.4 102.82-2.09 141.96-32.32 41.72-32.22 56.21-89.53 54.11-142.2-2.11-52.65-17.85-103.78-24.67-156.06z" fill="#e2fafa"/><path class="st1" d="M2253.15 1305.82c-15.95 2.01-40.25 34.48-43.11 37.75-1.61 1.84-3.28 3.75-5.01 5.81l10.58 13.1-17.49-4.29c-29.32 39.85-41.51 91.53-32.66 140.32 1.14 6.32 2.53 12.12 3.88 17.73 2.13 8.9 4.14 17.31 3.82 23.05-.59 10.65-9.89 24.41-19.72 38.98-14.07 20.83-31.57 46.74-34 79.86-1.8 24.52 5.32 46.31 11.04 63.81 3.9 11.95 7.59 23.24 7.13 31.23-.51 8.77-6.42 20.36-12.69 32.63-4.24 8.32-9.05 17.74-13.01 27.89-15.91 40.79-15.35 87.35 1.55 127.75l77.8-32.54c-8.41-20.12-8.71-44.25-.78-64.56 2.43-6.22 5.89-13.01 9.56-20.21 9.01-17.66 20.22-39.63 21.76-66.07 1.39-23.91-5.28-44.31-11.16-62.31-3.95-12.09-7.68-23.5-7.09-31.46.79-10.71 10.01-24.37 19.78-38.83 12.64-18.71 28-41.47 32.73-69.84-15.24 6.38-41.23 17.46-44.79 20.24-3.8 2.97 29.3-24.23 46.24-38.15-.06-15.55-3.4-29.57-6.16-41.1-1.13-4.7-2.19-9.13-2.91-13.14-4.99-27.54 3.02-58.01 20.92-79.54 1.23-1.47 2.64-3.08 4.13-4.79 6.61-7.54 14.83-16.92 20.79-29.86 1.53-3.31 2.8-6.63 3.86-9.94 9.17-28.77-15.02-57.29-44.99-53.52z"/><path class="st2" d="M2405.47 1435.57c-13.42-3.04-42.48 15.99-45.74 17.78-2.03 1.12-4.13 2.27-6.35 3.57-13.87 8.11-26.33 18.41-36.99 30.31l13.08 32.18-20.83-22.84c-15.29 19.96-25.85 43.52-30.11 68.45-.93 5.42-1.5 10.5-2.06 15.4-.89 7.79-1.73 15.14-3.66 19.67-3.59 8.4-15.09 16.76-27.27 25.61-17.41 12.65-39.08 28.4-50.71 54.34-8.62 19.21-9.26 38.83-9.77 54.59-.35 10.76-.68 20.93-3.39 27.22-2.97 6.91-11.12 14.51-19.75 22.56-5.85 5.45-12.47 11.64-18.63 18.65-24.73 28.18-37.89 65.82-36.1 103.28l72.13-3.45c-.89-18.65 5.93-38.16 18.25-52.2 3.77-4.3 8.55-8.75 13.6-13.47 12.41-11.58 27.86-25.99 36.83-46.82 8.11-18.84 8.71-37.21 9.24-53.41.36-10.88.69-21.16 3.49-27.39 3.76-8.39 15.18-16.69 27.27-25.47 17.73-12.89 39.8-28.92 51.22-55.64a79.96 79.96 0 001.96-5.02h-31.55l35.38-13.52c1.66-7.66 2.49-14.94 3.22-21.34.47-4.11.91-7.99 1.5-11.43 4.03-23.63 19.39-45.81 40.09-57.9 1.42-.83 3.02-1.71 4.72-2.65 7.52-4.14 16.88-9.29 25.47-17.96 2.2-2.22 4.19-4.52 6.01-6.87.65-.83 1.23-1.69 1.78-2.55l-26.52-6.81 31.87-8.45c1.71-16.98-9.19-34.23-27.68-38.42z"/><path class="st3" d="M2440.83 1607.78c-9.63-4.38-34.45 5.42-37.19 6.26-1.7.52-3.46 1.07-5.33 1.7-33.08 11.14-60.42 37.2-73.14 69.7-1.54 3.93-2.76 7.67-3.95 11.27-1.88 5.72-3.65 11.13-5.82 14.23-4.01 5.76-13.97 10.26-24.51 15.03-15.07 6.81-33.82 15.29-46.62 33-9.48 13.12-13.01 27.78-15.85 39.56-1.94 8.04-3.77 15.64-6.79 19.96-3.31 4.74-10.63 9.19-18.38 13.9-5.25 3.19-11.2 6.81-16.92 11.13-23 17.36-38.76 43.64-43.24 72.1l54.82 8.63c2.23-14.17 10.4-27.8 21.85-36.44 3.51-2.65 7.79-5.26 12.33-8.02 11.14-6.78 25.01-15.22 35-29.5 9.03-12.92 12.34-26.64 15.26-38.76 1.96-8.13 3.81-15.82 6.89-20.07 4.14-5.73 14.02-10.19 24.49-14.92 15.35-6.94 34.45-15.57 47.21-33.9 3.03-4.35 5.39-8.84 7.32-13.23l-19.21-7.39 23.91-5.06c.33-1 .66-1.98.97-2.93.99-3.02 1.93-5.87 2.91-8.37 6.71-17.15 21.72-31.46 39.18-37.34 1.2-.4 2.54-.82 3.97-1.26 6.3-1.94 14.15-4.36 21.96-9.55 2-1.33 3.86-2.75 5.59-4.23 15.09-12.93 11.39-37.26-6.71-45.5z"/><path class="st4" d="M1339.97 765.33c-7.98-12.84-20.18-22.44-32.57-31.1-63.77-44.61-139.77-71.54-217.4-77.04-18.28-1.3-40.85-4.31-47.04-21.56-5.69-15.84 7.82-32.6 23.05-39.75s32.71-8.71 47.6-16.56c14.89-7.84 26.91-26.28 19.09-41.19-4.69-8.95-14.82-13.44-24.36-16.78-60.13-21.05-123.57-22-187.55-16.52a1607.798 1607.798 0 01-130.8 37.61c-52.09 12.61-105.53 22.86-153.26 47.23-4.25 2.17-8.41 4.44-12.51 6.79 39.13 8.43 78.66 15.03 118.42 19.73 16.62 1.96 36.59 6.07 42.15 21.85 4.76 13.49-4.11 28.8.07 42.48 5.57 18.21 29.11 22.24 48.14 22.97s42.55 4.66 48.25 22.83c2.53 8.08.43 17.05-3.77 24.41-10.91 19.11-33.99 28-55.89 30.13-21.9 2.14-44.05-1-65.97.99-51.61 4.7-101.83 37.51-151.86 23.99-22.31-6.03-41.14-20.69-62.07-30.48-20.14-9.43-41.54-14.13-63.54-16.1-13.77 25.93-25.93 53.03-36.9 80.5 44.71-1.1 92.23-1.4 130.28 22.07 11.09 6.84 20.99 15.52 32.25 22.08 14.54 8.47 31.08 13.2 47.82 14.9 65.68 6.65 126.39-31.88 190.04-49.44 88.03-24.28 182.2-7.94 269.71 18.16 35 10.44 69.95 22.5 106.36 25.41s75.35-4.48 102.67-28.73c27.31-24.24 38.88-67.86 19.59-98.88z"/><path class="st2" d="M1915.24 1883.36s-144.3-123.95-299.71-37c0 0 0-157.25-114.7-173.91s-216.46 74-190.56 172.06c0 0-238.66-46.25-283.06 66.6l888.03 7.4v-35.15z"/><path d="M2309.63 1940c-89.69-170.79-254.34-93.38-254.34-93.38s-28.26-157.27-238.37-111.81c0 0-88.47 25.8-100.75 133.93 0 0-122.87-44.23-146.21 77.41l739.67-6.15z" fill="#9de0de"/><path class="st6" d="M773.59 841.05s-18.43 10.42-23.96 25.16c-4.73 12.58-25.8 10.38-38.98 27.2-14.63 18.68-35.44 46.61 12.28 65.45 29.65 11.7 76.85 20.71 87.56 12.81 10.7-7.9 36.22-4.74 30.48-87.73 0 0-69.79-29.13-70.49-29.3-.7-.19 3.11-13.59 3.11-13.59z"/><path class="st6" d="M841.02 876.43c0 23.71-19.22 42.93-42.93 42.93s-42.93-19.22-42.93-42.93 19.22-42.93 42.93-42.93 42.93 19.22 42.93 42.93z"/><path class="st7" d="M956.11 1006.15l-3.13 1.47c-13.34 3.2-89.42 21.33-92.93 19.01-3.85-2.54-21.04-38.03-21.04-38.03l-19.53 31.79s17.64 33.42 29.12 38.71c11.2 5.16 90.07-23.48 112.29-36.98l2.25-1c2.16.46 7.83 1.26 7.83 1.26 22.67 2.57 20.34 2.71 20.52 1.82.18-.88-8.98-4.83-8.44-5.69.54-.85 13.87.05 13.23-1.08-.63-1.12-12.92-3.58-12.68-4.37.23-.79 13.1.29 13.05-1.6-.04-1.88-14.15-2.54-13.62-4.03.52-1.48 14.97-.41 14.68-2.13-.25-1.45-16.4-3.08-21.54-3.56-.66-.06-1.03-.91-.64-1.47 5.93-8.76 5.9-9.84 4.84-10.37-.76-.38-8.21 5.25-15.47 10.08l-8.79 6.17z"/><path d="M597.86 1155.43h485.67c20.15 0 36.49 16.34 36.49 36.49v708.54c0 20.15-16.34 36.49-36.49 36.49H597.86c-20.15 0-36.49-16.34-36.49-36.49v-708.54c.01-20.15 16.34-36.49 36.49-36.49z" fill="#e03268"/><path fill="#f3fcff" d="M602.51 1192.78h476.38v666.43H602.51z"/><path class="st10" d="M959.53 1209.95H701.6v-29.63c0-27.12 21.99-49.11 49.11-49.11h159.72c27.12 0 49.11 21.99 49.11 49.11v29.63zM637.37 1269.49h250.57v18.6H637.37zM637.37 1337.77h250.57v18.6H637.37zM637.37 1406.05h250.57v18.6H637.37zM637.37 1474.33h250.57v18.6H637.37zM637.37 1542.61h250.57v18.6H637.37zM637.37 1610.89h250.57v18.6H637.37zM637.37 1679.17h250.57v18.6H637.37zM637.37 1747.45h250.57v18.6H637.37zM944.5 1269.49h142.13v136.4H944.5zM944.5 1449.57h142.13v136.4H944.5zM944.5 1629.64h142.13v136.4H944.5z"/><path class="st7" d="M925.23 1299.57l-1.11 26.9-23.36-8.99 3.11-19.35z"/><path class="st11" d="M944.63 1359.73l-54.23-18.04a3.19 3.19 0 01-2.02-4.04 3.19 3.19 0 014.04-2.02l54.23 18.04a3.19 3.19 0 012.02 4.04 3.185 3.185 0 01-4.04 2.02z"/><path class="st12" d="M898.28 1317.09l-7.61 16.21c-.94 2-.4 4.28 1.13 4.78l53.14 17.68c1.38.46 3.03.05 4.3-1.33 1.3-1.41 2.28-3.87 1.02-8.02-2.49-8.22-17.29-15.01-23.16-23.18a.961.961 0 00-.48-.36l-24.45-8.14c-1.41-.43-3.04.56-3.89 2.36z"/><path class="st13" d="M919.88 1331.54c-.31-.36-.23-1.06.16-1.48 1.81-1.96 6.95-6.51 13.2-3.15.36.19.45.79.21 1.29l-.01.02c-.23.49-.69.71-1.04.52-5.61-2.99-10.03 1.05-11.52 2.7-.32.37-.75.41-1 .1zM924.68 1335.55c-.31-.36-.23-1.06.16-1.48 1.81-1.96 6.95-6.51 13.2-3.15.36.19.45.79.21 1.29l-.01.02c-.23.49-.69.71-1.04.52-5.61-2.99-10.03 1.05-11.52 2.7-.33.37-.75.4-1 .1z"/><path class="st13" d="M929.13 1339.29c-.31-.36-.23-1.06.16-1.48 1.81-1.96 6.95-6.51 13.2-3.15.36.19.45.79.21 1.29l-.01.02c-.23.49-.69.71-1.04.52-5.61-2.99-10.03 1.05-11.52 2.7-.32.36-.74.4-1 .1z"/><path class="st11" d="M748.01 1111.51s-10.9 51.3 38.56 63.49c49.47 12.18 111.89 13.42 111.89 13.42l1.15 119.5 26.04 2.98s77.7-161.04-13.77-192.75l-83.69-4.87-34.3-4.64s-34.32-10.81-34.83-9.2c-.51 1.62-10.28 12.94-11.05 12.07z"/><path class="st7" d="M806.26 942.18s-30.5-6.83-46.32-6.29c-15.82.53 5.68 42.17 5.68 42.17l25.84.57s15.76-10.5 18.06-10.36c8.71.52 1.92-24.54 1.92-24.54l-5.18-1.55z"/><path class="st7" d="M775.58 909.35l-9.08 27.54s7.9 16.34 32.1 9.29c0 0-2.76-5.7.94-17.45 3.79-12-23.96-19.38-23.96-19.38z"/><path d="M775.58 909.35l-4.26 12.87c2.54 9.4 10.77 15.81 26.3 17.8-.01-2.8.43-6.54 1.92-11.28 3.79-12.01-23.96-19.39-23.96-19.39z" opacity=".6" fill="#fc8d84"/><path class="st15" d="M830.93 889.19c-1.96 4.47-.65 9.37 2.92 10.94 3.58 1.57 8.07-.78 10.03-5.25 1.96-4.47.65-9.37-2.92-10.94-3.57-1.58-8.06.77-10.03 5.25z"/><path class="st7" d="M828.93 915.6c1.18-1.92 2.19-3.96 3-6.11 2.32-5.76 3.58-11.91 4.24-17.28.14-1.15.35-2.29.58-3.43.93-4.6 1.05-9.5.1-14.56-3.06-16.3-16.72-28.88-33.22-30.54-22.23-2.24-41.1 14.84-41.68 36.58-2.33-1.38-4.97-1.75-7.34-.77-4.54 1.88-6.31 8.01-3.95 13.68 2.35 5.67 7.94 8.74 12.48 6.86.63-.26 1.2-.61 1.72-1.02 1.39 18.54 16.17 33.23 34.35 33.41 8.89.09 17.04-3.31 23.25-8.96.41-.33.85-.71 1.31-1.16 2.01-2 3.71-4.26 5.16-6.7z"/><path class="st15" d="M820.3 882.31c-.72 2.05-1.09 4.19-1.21 6.37-.06 1.09-.03 2.19.12 3.32.17 1.12.43 2.28 1.14 3.39l.31.4.28.35c.12.16.29.3.37.48.22.32.36.68.41 1.04.15.73-.19 1.52-.72 2.23-1.15 1.43-3.16 2.21-5.25 2.64 2.09.41 4.57.15 6.42-1.54.9-.82 1.6-2.11 1.5-3.52a3.42 3.42 0 00-.2-1.01c-.09-.34-.26-.63-.43-.92-.16-.31-.39-.52-.59-.79-.13-.15-.15-.19-.21-.28l-.17-.23c-.45-.67-.72-1.62-.94-2.58-.24-.96-.3-1.99-.43-3.02-.19-2.06-.27-4.17-.4-6.33z"/><path class="st7" d="M881.89 1296.33l-12.03 34.47-17.7-17.7 6.4-16.32z"/><path class="st6" d="M807.51 886.7a3.31 3.31 0 01-3.33 3.27 3.31 3.31 0 01-3.27-3.33 3.31 3.31 0 013.33-3.27c1.83.02 3.29 1.51 3.27 3.33zM832.01 887.3a3.31 3.31 0 01-3.33 3.27 3.31 3.31 0 01-3.27-3.33 3.295 3.295 0 013.33-3.26c1.83.01 3.29 1.5 3.27 3.32z"/><path d="M807.02 908.62s4.49-1.61 8.71 1.16c0 0 4.56-2.86 8.16-.13 0 0-1.67 6.8-9.17 6.34-7.49-.46-7.7-7.37-7.7-7.37z" opacity=".3" fill="#f99893"/><path class="st15" d="M803.1 906.18c.85.69 1.73 1.32 2.66 1.87.92.57 1.87 1.08 2.85 1.51 1.96.86 4.03 1.47 6.15 1.65 2.12.19 4.25-.07 6.3-.7 2.04-.65 3.96-1.67 5.78-2.88-.81.73-1.68 1.41-2.61 2-.93.6-1.93 1.06-2.96 1.48-1.04.39-2.13.67-3.23.83-1.11.14-2.23.17-3.35.09-2.23-.21-4.4-.87-6.36-1.9-1.95-1.02-3.76-2.32-5.23-3.95z"/><path class="st6" d="M808.74 876.84c-1.7-.46-3.29-.79-4.86-.98-1.57-.18-3.1-.17-4.58.07-1.47.25-2.95.63-4.36 1.33-.75.26-1.4.74-2.16 1.09-.73.4-1.4.89-2.22 1.29.39-.78.84-1.55 1.38-2.25.6-.64 1.17-1.37 1.93-1.87 1.41-1.16 3.21-1.86 5.04-2.15 1.84-.29 3.74-.09 5.44.52 1.69.62 3.26 1.58 4.39 2.95zM823.8 876.84c1.29-1.23 2.96-1.99 4.72-2.4 1.76-.4 3.67-.37 5.47.14 1.78.52 3.48 1.43 4.74 2.75.69.59 1.17 1.38 1.69 2.09.45.77-1.23.04-.94.86-.76-.49.67.48 0 0-.71-.44-1.29-.99-2.01-1.34-1.31-.87-2.73-1.42-4.17-1.85-1.44-.41-2.96-.62-4.54-.62-1.6-.01-3.22.13-4.96.37z"/><path class="st17" d="M824.8 1019.87s-6.72 19.64-7.94 30.07c-3.03 25.9 2.58 48.14 7.94 62.88 7.52 20.68-56.21 9.19-57.46 8.57-1.25-.63-53.89-20.99-53.89-20.99l-3.97-40.59-6.06-39.93 2.82-23.5 118.56 23.49z"/><path class="st7" d="M723.85 962.78s8.16.71 7.27 14.89c-.89 14.18-7.51 41.19-7.51 41.19s-64.32 123.61-78.42 135.64c-.76.65-1.73 1.01-2.73 1.05l-43.34-.17s2.78-2.78 5.77-3.57l20.2-5.36c.8-.21 1.47-.74 1.87-1.46l6.47-11.81 48.78-130.11c4.98-11.59 16.81-18.22 24.95-27.86 5.94-7.06 12.42-13.13 16.69-12.43z"/><path class="st17" d="M811.44 943.73c-.6 12.33-17.86 32.87-17.86 32.87-3.13-6.87-33.26-40.29-33.64-40.71-12.41.19-38.75 2.03-54.84 13.46-21.62 15.35-34.56 49.84-34.56 49.84s39.17 19.74 48.88 20.68h108.72s16.61-1.25 32.59-9.4c-.02 0-2.59-51.09-49.29-66.74z"/><path class="st18" d="M736.81 978.63c-1.12 3.35-2.11 6.74-3.11 10.12-1.01 3.39-1.92 6.8-2.82 10.21-.86 3.43-1.73 6.85-2.48 10.31-.74 3.46-1.47 6.93-2.03 10.43l.83-.83c-1.07.11-2.38.07-3.59-.02-1.23-.08-2.47-.26-3.71-.44-2.46-.44-4.93-.91-7.36-1.59l-1.83-.48-1.81-.55c-1.2-.38-2.42-.72-3.61-1.15l-3.58-1.24-3.54-1.37c-2.37-.89-4.68-1.93-7.03-2.9l-6.93-3.16-6.87-3.32c-2.26-1.17-4.53-2.33-6.81-3.46 2.15 1.36 4.33 2.69 6.51 4.02 2.2 1.29 4.42 2.55 6.66 3.79 2.25 1.2 4.53 2.36 6.82 3.5l3.48 1.61c1.16.54 2.32 1.09 3.51 1.55 4.7 2.03 9.55 3.75 14.52 5.12l1.87.5 1.89.43c1.25.31 2.54.51 3.81.73 1.29.18 2.57.36 3.88.43 1.33.09 2.57.14 4.04-.02l.71-.08.11-.75c1.06-6.93 2.46-13.83 3.93-20.72l2.24-10.33 2.3-10.34zM819.47 970.7c1.53 4.01 2.93 8.04 4.17 12.09 1.22 4.06 2.3 8.16 3.02 12.31.4 2.07.66 4.16.84 6.25.21 2.09.23 4.19.16 6.28-.16 4.19-6.36 23.88-8.18 27.78 2.58-3.46 9.33-23.32 9.78-27.65.52-4.35.17-8.74-.57-13.01-.41-2.13-.88-4.25-1.47-6.33-.62-2.07-1.27-4.13-2.06-6.14-1.55-4.02-3.39-7.94-5.69-11.58z"/><path class="st19" d="M711.68 1098.92c-10.51 13.8-12.72 32.45-5.05 48.01 5.33 10.8 15.39 20.87 33.94 25.44 49.47 12.18 111.89 13.42 111.89 13.42l1.15 119.51 26.04 2.98s77.7-161.04-13.77-192.76l-83.69-4.87-34.3-4.64s-34.32-10.81-34.83-9.2c-.1.34-.62 1.11-1.38 2.11z"/><path class="st18" d="M866.37 1188.97c-1.33-.24-2.65-.47-3.96-.77-1.31-.3-2.6-.66-3.88-1.04-.64-.2-1.29-.42-1.92-.65.66-.14 1.31-.33 1.95-.56 1.27-.45 2.45-1.09 3.56-1.82 1.07-.79 2.09-1.64 2.98-2.62.89-.97 1.66-2.04 2.33-3.15l-1.32 1.43c-.47.44-.91.91-1.4 1.32-.94.87-1.99 1.61-3.06 2.27-1.08.66-2.23 1.19-3.42 1.6-1.17.4-2.45.69-3.62.73l-2.15.08 1.91.89c1.3.6 2.59 1 3.91 1.37 1.32.37 2.66.63 4 .86 1.35.22 2.69.41 4.05.51 1.36.1 2.71.17 4.07.16-1.36-.2-2.7-.37-4.03-.61z"/><path class="st20" d="M2190.13 399.19c-4.58-19.94-22.43-34.82-43.76-34.82-3.92 0-7.71.5-11.33 1.45-10.53-22.52-33.38-38.12-59.87-38.12-6.85 0-13.46 1.04-19.67 2.98-14.26-23.62-40.18-39.41-69.78-39.41-35.22 0-65.22 22.35-76.59 53.65a55.604 55.604 0 00-27.18-7.05c-30.87 0-55.9 25.03-55.9 55.9 0 1.83.09 3.64.27 5.42h363.81z"/><path class="st13" d="M1934.96 609.09c-.43-33.34-24.13-61.83-56.84-68.3l-59.05-11.69a39.785 39.785 0 01-23.56-14.46l-22.85-29.11a33.017 33.017 0 00-25.96-12.63h-155.57c-10.13 0-19.71 4.66-25.96 12.63l-22.84 29.11a39.785 39.785 0 01-23.56 14.46l-59.05 11.69c-32.71 6.47-56.42 34.96-56.84 68.3l-6.91 542.24a75.864 75.864 0 0027.12 59.12c34.04 28.52 101.74 68.22 214.44 67.65v33.65c0 19.67 15.94 35.61 35.61 35.61s35.61-15.94 35.61-35.61v-33.69c107.65-1.4 172.82-39.82 206-67.62a75.864 75.864 0 0027.12-59.12l-6.91-542.23zm-266.04-101.93c15.94 0 28.86 12.92 28.86 28.86s-12.92 28.86-28.86 28.86-28.86-12.92-28.86-28.86c0-15.93 12.92-28.86 28.86-28.86z"/><path class="st18" d="M1458.26 663.26c-13.32 1.81-23.29 12.99-23.46 26.32l-5.53 430.06c-.26 19.83 8.48 38.73 23.81 51.47 30.81 25.59 93.01 61.54 197.52 58.76 12.21-.32 24.43-.32 36.64 0 104.51 2.77 166.71-33.17 197.52-58.76 15.33-12.74 24.07-31.64 23.81-51.47L1903 685.82c-.17-13.44-10.32-24.7-23.77-26.36-172.77-21.36-327.9-8.84-420.97 3.8z"/><path class="st21" d="M1883.3 829.14l-213.94 31.94-214.4-53.81-.14-.21-3.73 292.5a60.54 60.54 0 0021.65 47.18c28 23.46 84.54 56.4 179.53 53.86 11.1-.3 22.2-.3 33.3 0 94.99 2.54 151.53-30.4 179.53-53.86 13.94-11.67 21.88-29 21.65-47.18l-3.45-270.42z"/><path class="st22" d="M1454.96 807.28s182.67 53.17 290.96-7.83c108.29-61 203.54 25.45 78.68 90.27-128.21 66.55-369.64-82.44-369.64-82.44z"/><path class="st13" d="M1621.11 916.01H1481.5c-5.91 0-10.7-4.79-10.7-10.7V765.7c0-5.91 4.79-10.7 10.7-10.7h139.61c5.91 0 10.7 4.79 10.7 10.7v139.61c0 5.91-4.79 10.7-10.7 10.7z"/><path class="st4" d="M1846.39 1126.4h-13.94c-12.2 0-22.09-9.89-22.09-22.09V711.03c0-12.2 9.89-22.09 22.09-22.09h13.94c12.2 0 22.09 9.89 22.09 22.09v393.27c0 12.2-9.89 22.1-22.09 22.1z"/><path class="st23" d="M1488.67 785.14h123.88v7.43h-123.88zM1488.67 811.46h123.88v7.43h-123.88zM1488.67 837.79h123.88v7.43h-123.88zM1488.67 864.12h123.88v7.43h-123.88z"/><path class="st7" d="M1098.09 1139.27c-3.09-.19-5.37-2.98-5.34-6.07.26-24.44.8-160.56-20-156.92-22.85 3.99-18.86 188.94-17.77 209.25 1.09 20.31 3.63 118.95 8.7 141.44 5.08 22.48 16.26 499.01 10.52 609.99h214.33s-56.57-517.15-44.97-555.59 20.31-65.28 47.87-104.45 23.94-105.17 32.64-124.03 29.01-45.33 11.6-53.31c-17.41-7.98-49.68 42.79-62.74 91.39 0 0-8.34 13.42-14.51-3.26s-17.04-201.27-17.77-215.06c-.73-13.78-7.25-25.39-17.04-24.3-9.79 1.09-14.14 35.18-15.23 91.03-1.09 55.85 1.88 101.18-10.12 99.01-12-2.18-6.56-176.25-15.99-205.63s-27.92-9.07-27.56 26.47c.36 35.54 5.8 174.08-5.44 172.62-11.24-1.45-5.8-192.57-25.39-190.76-20.24 1.87-20.31 31.55-20.31 82.32.01 46.34 10.58 116.83-5.48 115.86z"/><path class="st15" d="M1076.39 1169.21s90.3-28.29 158.3-3.81c0 .01-82.15-6.52-158.3 3.81zM1079.29 1219.99s78.33 68.18 93.93 101.91c0 0 42.07-76.88 76.16-104.45 0 0-51.86 22.49-75.07 64.55-.01 0-43.89-46.42-95.02-62.01zM1079.29 1332.05s6.53 42.79 70.35 36.63c0-.01-51.91-8.98-70.35-36.63z"/><path class="st18" d="M1219.22 1500.32h-109.77c-7.84 0-14.2 6.36-14.2 14.2v109.77c0 7.84 6.36 14.2 14.2 14.2h40.69v47.79c0 7.84 6.36 14.2 14.2 14.2 7.84 0 14.2-6.36 14.2-14.2v-47.79h40.69c7.84 0 14.2-6.36 14.2-14.2v-109.77c-.01-7.84-6.37-14.2-14.21-14.2z"/><path d="M1200.93 1613.71h-73.2c-4.25 0-7.7-3.45-7.7-7.7v-73.2c0-4.25 3.45-7.7 7.7-7.7h73.2c4.25 0 7.7 3.45 7.7 7.7v73.2c0 4.26-3.44 7.7-7.7 7.7z" fill="#eaf5f9"/><path class="st25" d="M1340.89 1447.98h75.42v462.63h-75.42z"/><path class="st26" d="M1423.5 1487.85h-89.8c-3.99 0-7.22-3.23-7.22-7.22v-52.33c0-3.99 3.23-7.22 7.22-7.22h89.8c3.99 0 7.22 3.23 7.22 7.22v52.33c0 3.99-3.23 7.22-7.22 7.22z"/><path class="st27" d="M1336.97 1421.08h11.98v66.54h-11.98zM1360.73 1421.08h11.98v66.54h-11.98zM1384.49 1421.08h11.98v66.54h-11.98zM1408.26 1421.08h11.98v66.54h-11.98z"/><path class="st27" d="M1397.42 1508.87h-37.63c-5.99 0-10.84-4.85-10.84-10.84v-10.42h59.31v10.42c0 5.99-4.86 10.84-10.84 10.84z"/><path class="st21" d="M1408.41 1910.61h-59.62v-245.73l25.39 9.37 34.23-9.37z"/><path class="st22" d="M1348.79 1664.88s25.93 7.75 41.3-1.14 26.81.32 11.17 13.15c-16.09 13.21-52.47-12.01-52.47-12.01z"/><path class="st28" d="M1362.99 1904.36h-4.52a3.63 3.63 0 01-3.63-3.63v-398.85a3.63 3.63 0 013.63-3.63h4.52a3.63 3.63 0 013.63 3.63v398.85a3.63 3.63 0 01-3.63 3.63z"/><path class="st25" d="M1471.22 1447.98h75.42v462.63h-75.42z"/><path class="st26" d="M1553.83 1487.85h-89.8c-3.99 0-7.22-3.23-7.22-7.22v-52.33c0-3.99 3.23-7.22 7.22-7.22h89.8c3.99 0 7.22 3.23 7.22 7.22v52.33c.01 3.99-3.23 7.22-7.22 7.22z"/><path class="st27" d="M1467.3 1421.08h11.98v66.54h-11.98zM1491.06 1421.08h11.98v66.54h-11.98zM1514.83 1421.08h11.98v66.54h-11.98zM1538.59 1421.08h11.98v66.54h-11.98z"/><path class="st27" d="M1527.75 1508.87h-37.63c-5.99 0-10.84-4.85-10.84-10.84v-10.42h59.31v10.42c0 5.99-4.86 10.84-10.84 10.84z"/><path class="st21" d="M1538.74 1910.61h-59.61v-245.73l25.38 9.37 34.23-9.37z"/><path class="st22" d="M1479.13 1664.88s25.93 7.75 41.3-1.14 26.81.32 11.17 13.15c-16.1 13.21-52.47-12.01-52.47-12.01z"/><path class="st28" d="M1493.32 1904.36h-4.52a3.63 3.63 0 01-3.63-3.63v-398.85a3.63 3.63 0 013.63-3.63h4.52a3.63 3.63 0 013.63 3.63v398.85c0 2.01-1.62 3.63-3.63 3.63z"/><path class="st25" d="M1601.56 1447.98h75.42v462.63h-75.42z"/><path class="st26" d="M1684.16 1487.85h-89.8c-3.99 0-7.22-3.23-7.22-7.22v-52.33c0-3.99 3.23-7.22 7.22-7.22h89.8c3.99 0 7.22 3.23 7.22 7.22v52.33c.01 3.99-3.23 7.22-7.22 7.22z"/><path class="st27" d="M1597.63 1421.08h11.98v66.54h-11.98zM1621.39 1421.08h11.98v66.54h-11.98zM1645.16 1421.08h11.98v66.54h-11.98zM1668.92 1421.08h11.98v66.54h-11.98z"/><path class="st27" d="M1658.08 1508.87h-37.63c-5.99 0-10.84-4.85-10.84-10.84v-10.42h59.31v10.42c0 5.99-4.85 10.84-10.84 10.84z"/><path class="st21" d="M1669.07 1910.61h-59.61v-245.73l25.38 9.37 34.23-9.37z"/><path class="st22" d="M1609.46 1664.88s25.93 7.75 41.31-1.14 26.81.32 11.17 13.15c-16.11 13.21-52.48-12.01-52.48-12.01z"/><path class="st28" d="M1623.65 1904.36h-4.51a3.63 3.63 0 01-3.63-3.63v-398.85a3.63 3.63 0 013.63-3.63h4.51a3.63 3.63 0 013.63 3.63v398.85c0 2.01-1.62 3.63-3.63 3.63z"/><path d="M1782.04 1605.07c6.57 0 11.89-5.32 11.89-11.89v-30.27c0-6.57-5.32-11.89-11.89-11.89h-546.22c-6.57 0-11.89 5.32-11.89 11.89v30.27c0 6.57 5.32 11.89 11.89 11.89h39.99v299.29h-43.12c-4.84 0-8.77 3.93-8.77 8.77v15.61c0 4.84 3.93 8.77 8.77 8.77h552.46c4.84 0 8.77-3.93 8.77-8.77v-15.61c0-4.84-3.93-8.77-8.77-8.77h-43.12v-299.29h40.01zm-60.89 299.29h-424.44v-299.29h424.44v299.29z" fill="#18196b"/><path class="st13" d="M1845.51 1643.83c-4.76-53.42-33.61-100.19-59.09-141.51-12.46-20.21-25.35-41.1-39.09-61.13-3.86-5.62-7.86-11.3-11.73-16.8-23.05-32.73-46.88-66.58-52.23-104.58l-24.24 3.41c6.17 43.85 31.73 80.16 56.45 115.26 3.83 5.44 7.79 11.06 11.56 16.56 13.4 19.53 26.13 40.17 38.47 60.18 24.03 38.96 51.26 83.12 55.51 130.78 2.84 31.88-5.58 62.24-23.09 83.31-22.69 27.29-62.03 42.5-120.27 46.48-17.68 1.21-36.5 1.74-54.33-2.49-9.47-2.25-18.68-5.83-28.43-9.63-3.5-1.36-7.12-2.77-10.75-4.11-42.56-15.72-81.63-19.69-116.13-11.82-31.99 7.3-59.63 24.59-86.35 41.31-6.97 4.36-14.18 8.87-21.27 13.06-40.71 24.09-74.04 32.38-101.93 25.33-25.61-6.47-49.04-27.06-64.27-56.49-13.66-26.39-12.4-47.91-17.26-78.35-2.33 4.67-7.13 7.88-12.7 7.88-3.39 0-6.49-1.19-8.94-3.17 1.09 18.08 4.91 61.23 17.15 84.89 18.45 35.64 47.61 60.78 80.02 68.97 8.37 2.11 17.03 3.18 26.01 3.18 28.01 0 59.15-10.32 94.39-31.18 7.34-4.35 14.68-8.94 21.78-13.38 26.16-16.36 50.87-31.81 78.82-38.2 29.79-6.8 64.17-3.13 102.2 10.92 3.43 1.27 6.95 2.64 10.35 3.96 10.1 3.93 20.54 7.99 31.65 10.63 21.07 5 43 4.38 61.67 3.1 65.27-4.46 110.22-22.54 137.42-55.25 21.62-26 32.06-62.86 28.65-101.12z"/><path class="st21" d="M1838.8 1644.42c-4.62-51.84-33.02-97.89-58.11-138.57-12.42-20.14-25.26-40.96-38.91-60.85-3.83-5.58-7.82-11.25-11.68-16.74-23.51-33.38-47.82-67.91-53.39-107.52l-10.91 1.54c5.94 42.25 31.03 77.87 55.29 112.33 3.84 5.46 7.81 11.1 11.61 16.63 13.5 19.67 26.27 40.38 38.65 60.45 24.42 39.59 52.09 84.47 56.48 133.72 3 33.63-5.98 65.79-24.62 88.21-23.93 28.78-64.81 44.78-124.99 48.89-18.21 1.25-37.64 1.78-56.35-2.66-9.92-2.36-19.78-6.2-29.32-9.91-3.47-1.35-7.06-2.75-10.64-4.07-41.32-15.26-79.1-19.15-112.3-11.57-30.88 7.05-58.03 24.03-84.28 40.45-7.01 4.38-14.25 8.91-21.41 13.15-42.31 25.04-77.32 33.57-107.01 26.07-27.48-6.94-52.49-28.78-68.6-59.92-13.6-26.27-11.76-46.85-15.98-76.03a14.183 14.183 0 01-10.81 2.19c4.35 29.95 2.76 51.38 17.01 78.91 17.56 33.93 45.15 57.82 75.69 65.54 7.82 1.97 15.93 2.97 24.36 2.97 26.78 0 56.79-10.01 90.96-30.24 7.27-4.3 14.58-8.87 21.64-13.29 25.48-15.94 51.83-32.41 80.9-39.05 31.08-7.1 66.75-3.34 106.03 11.17 3.48 1.29 7.03 2.67 10.46 4 9.88 3.85 20.1 7.83 30.77 10.36 20.15 4.79 40.57 4.24 59.65 2.93 63.34-4.33 106.75-21.62 132.71-52.84 20.47-24.66 30.36-59.74 27.1-96.25z"/><path class="st7" d="M1965.33 1895.83l-.55 15.95 25-1.22 5.89-19.5zM2122.78 1871.74l18.13 27.13 19.58-15.6-6.62-19.27z"/><g><path class="st13" d="M2131.37 1936.77l46.29-33.53a3.2 3.2 0 10-3.76-5.18l-46.29 33.53a3.2 3.2 0 00-.71 4.47 3.218 3.218 0 004.47.71z"/><path class="st6" d="M2162.73 1882.15l12.14 13.17c1.5 1.62 1.67 3.96.37 4.9l-45.35 32.85c-1.18.85-2.87.96-4.5.03-1.66-.96-3.33-3-3.38-7.34-.1-8.59 11.98-19.52 15.11-29.07.06-.2.18-.36.35-.48l20.87-15.12c1.18-.86 3.04-.41 4.39 1.06z"/><path class="st13" d="M2146.48 1902.43c.18-.44-.1-1.08-.59-1.36-2.32-1.33-8.58-4.12-13.53.97-.29.29-.19.89.19 1.3l.01.01c.37.39.87.47 1.15.18 4.45-4.54 9.88-2.02 11.8-.89.4.25.82.16.97-.21zM2143.12 1907.7c.18-.44-.1-1.08-.59-1.36-2.32-1.33-8.58-4.12-13.53.97-.29.29-.19.89.19 1.3l.01.01c.37.39.87.47 1.15.18 4.45-4.54 9.88-2.02 11.8-.89.4.24.81.15.97-.21z"/><path class="st13" d="M2139.99 1912.6c.18-.44-.1-1.08-.59-1.36-2.32-1.33-8.58-4.12-13.53.97-.29.29-.19.89.19 1.3l.01.01c.37.39.87.47 1.15.18 4.45-4.54 9.88-2.02 11.8-.89.4.25.82.16.97-.21z"/></g><path class="st21" d="M1676.71 1320.74s-5.99-74.28 4.19-158.42c10.19-84.14-23.76 6.89-23.76 6.89s-.73 118.17 8.66 153.06c9.39 34.9 10.91-1.53 10.91-1.53z"/><path class="st6" d="M2081.13 1270.74c.94.52 1.84 1.12 2.6 1.87 2.57 2.53 3.33 6.55 6.1 8.87 1.38 1.16 3.12 1.77 4.73 2.57 2.2 1.09 4.3 2.71 5.16 5 .49 1.3.54 2.72.59 4.1.08 2.51.16 5.08-.58 7.48-.43 1.39-1.14 2.7-1.49 4.12-.7 2.81.05 5.79-.38 8.65-.33 2.16-1.31 4.15-2.28 6.11-.51 1.02-1.03 2.07-1.81 2.9-2.01 2.13-5.28 2.44-8.19 2.16-2.91-.28-5.86-1.01-8.73-.46-2.41.46-4.54 1.79-6.79 2.77a24.64 24.64 0 01-10.98 2.02c-1.05-.05-2.13-.18-3.05-.7-.95-.54-1.63-1.44-2.28-2.32-3.58-4.84-7.19-9.74-9.64-15.24s-3.67-11.75-2.27-17.6c1.05-4.38 3.52-8.32 6.5-11.69 2.99-3.37 6.5-6.23 9.99-9.07 6.01-4.92 16-5.31 22.8-1.54z"/><path class="st7" d="M1981.92 1482.7l6.63-28.5-27.06-20.35s-4.68 33.98-7.04 47.63l-54.67.96-10.49 1.98s72.9 30.53 77.54 21.16c1.31-2.64 5.22-6.45 8.95-10.92 1.94.48 3.17.77 3.17.77l1.76-7.58c.99-1.67 1.8-3.39 2.34-5.14l-1.13-.01z"/><path d="M2003.96 1351.98s-34.94 13.79-48.47 86.07c0 0 8.74 11.84 28.26 13.15s13.57-46.42 13.57-46.42l6.64-52.8z" fill="#1b4b79"/><path class="st7" d="M2045.16 1328.25l-1.33 20.95-28.55 5.93h-5.04l1.05-25.09 30.28-10.7z"/><path class="st7" d="M2000.38 1361.79c-1.29 14.07 4.53 16.69 4.53 16.69l43.11-32c-26.76 2.62-44.06 5.5-44.06 5.5s-2.22 10.19-3.58 9.81z"/><path class="st6" d="M2071.91 1282.7s8.8-36.11-12.17-49.64c-20.97-13.53-43.19-12.02-58.32-3.92-15.14 8.1-24.2 36.36-17.41 52.5l50.24-15.42 37.66 16.48z"/><path class="st7" d="M1895.11 1463.83c-5.01-2.17-8.67-4.4-10.09-6.62l-1.61-4.18c-2-5.23-5.03-7.52-6.93-6.5l-.32.26 2.31 15.39-4.35-.65-2.3 26.36 20.72-2.79 2.57-21.27z"/><path class="st11" d="M2053.79 1527.3l-20.73 181.33s-19.65 155.17-35.53 189.68h-35.2l7.66-346.79 62.04-39 21.76 14.78z"/><path class="st15" d="M2045.77 1322.78s-.61 6.08-1.13 13.65c-10.86 11.89-31.21 7.81-33.89 6.66.16-3.81 0-11.52 0-11.52l35.02-8.79z"/><path class="st19" d="M2070.34 1509.76s39.34 50.73 30.02 131.47c-9.32 80.75-7.25 109.73-7.25 109.73s50.72 46.58 66.25 113.87c0 0-22.26 15.53-37.27 18.12 0 0-74.54-113.87-80.23-127.33-5.69-13.46-41.11-225.05-41.11-225.05l69.59-20.81z"/><path class="st15" d="M1990.54 1288.03c1.79 4.86.09 9.96-3.8 11.39s-8.49-1.35-10.28-6.21c-1.79-4.86-.09-9.96 3.8-11.39s8.49 1.35 10.28 6.21z"/><path class="st7" d="M1990.95 1316.11a39.468 39.468 0 01-2.78-6.66c-2.08-6.24-3.02-12.83-3.37-18.56-.08-1.23-.22-2.45-.4-3.67-.69-4.92-.49-10.11.84-15.41 4.29-17.05 19.56-29.47 37.12-30.17 23.66-.94 42.53 18.36 41.74 41.4 2.55-1.31 5.38-1.53 7.81-.34 4.68 2.29 6.15 8.88 3.3 14.72-2.86 5.85-8.96 8.73-13.64 6.45-.65-.32-1.23-.73-1.75-1.2-2.67 19.53-19.25 34.11-38.5 33.13-9.41-.48-17.81-4.6-24.02-10.99-.42-.37-.85-.81-1.31-1.32-2.01-2.21-3.67-4.71-5.04-7.38z"/><path class="st6" d="M2026.97 1288.54a3.76 3.76 0 003.57 3.95 3.76 3.76 0 003.95-3.57 3.76 3.76 0 00-3.57-3.95 3.767 3.767 0 00-3.95 3.57zM1993.56 1288.54a3.76 3.76 0 003.57 3.95c2.08.11 3.84-1.49 3.95-3.57s-1.49-3.84-3.57-3.95a3.773 3.773 0 00-3.95 3.57zM2023.8 1282.27c1.71-.91 3.49-1.58 5.3-2.03 1.81-.43 3.67-.59 5.49-.42.91.08 1.81.26 2.69.51.45.11.88.28 1.31.43.22.08.43.18.64.26.21.09.43.17.64.28 1.68.8 3.26 1.85 4.81 3.02a15.27 15.27 0 00-4.32-3.95c-.85-.52-1.76-.95-2.71-1.27-.95-.32-1.94-.54-2.95-.63-2.01-.19-4.04.08-5.91.76-.94.33-1.83.76-2.68 1.26-.82.51-1.62 1.08-2.31 1.78zM2008.64 1282.27c-.68-.7-1.49-1.27-2.32-1.78-.85-.5-1.74-.93-2.68-1.26-1.87-.67-3.9-.94-5.91-.76-1 .09-1.99.31-2.95.63-.96.31-1.86.75-2.71 1.27-1.7 1.03-3.17 2.38-4.32 3.95 1.55-1.17 3.13-2.22 4.81-3.02.21-.11.42-.19.64-.28.22-.09.42-.19.64-.26.44-.15.87-.32 1.31-.43.88-.25 1.78-.43 2.69-.51 1.82-.17 3.67-.01 5.49.42 1.82.44 3.6 1.12 5.31 2.03z"/><path class="st13" d="M2094.62 1408.74c-.91-.95-1.77-2.01-2.55-3.1-.78-1.1-1.53-2.23-2.17-3.41a30.03 30.03 0 01-1.78-3.65c-.54-1.25-.94-2.55-1.35-3.86.18 1.36.44 2.72.87 4.04.19.67.45 1.31.69 1.96.28.63.54 1.28.86 1.89.62 1.24 1.32 2.44 2.13 3.57.64.92 1.32 1.79 2.09 2.62-.69.14-1.42.23-2.13.26-.99.05-1.99.01-2.97-.14-.5-.06-.98-.18-1.47-.28-.48-.14-.97-.26-1.43-.45-.96-.32-1.84-.81-2.74-1.31.79.65 1.63 1.26 2.57 1.69.92.47 1.92.8 2.94 1.02 1.02.22 2.07.33 3.12.31 1.05-.01 2.08-.12 3.14-.39l.75-.2-.57-.57z"/><path class="st15" d="M2013.05 1286.81c-1.06 1.71-1.96 3.5-2.78 5.33-.82 1.83-1.54 3.71-2.1 5.66-.26.98-.49 1.98-.56 3.06-.01.27-.01.55.03.84.02.15.06.3.09.45.06.16.1.32.22.49.06.08.12.16.19.24l.16.14c.11.09.21.18.31.26.22.15.44.31.66.44.89.55 1.84.94 2.79 1.27.96.32 1.93.6 2.92.77-1.81-.86-3.63-1.71-5.18-2.83-.2-.14-.37-.29-.55-.44l-.25-.23-.12-.12-.03-.06c-.12-.2-.13-.7-.09-1.13.09-.91.32-1.87.59-2.8.52-1.89 1.17-3.76 1.8-5.64.66-1.9 1.31-3.79 1.9-5.7z"/><path class="st17" d="M2087.8 1468.48c0-.01 0-.01 0 0 5.13-28.54 7.33-59.17 7.33-59.17.29-7.06.2-13.31-.17-18.84-7.15-5.82-17.12-14.07-17.12-14.07l-17.05-29.05s.01-.01.01-.02c-6.48-.6-13.35-.88-13.35-.88l-42.55 32.02-.95-26.5c-.21.16-.43.32-.63.49-18.39 15.02-30.32 36.72-32.89 60.59-1.82 16.84-1.6 34.79-.58 50.83 0 0-7.27 92.87-10.77 107.71 0 0 96.45 9.6 147.95 0 0 .01-19.7-62.65-19.23-103.11z"/><g><path class="st6" d="M1964.1 1541.88l-73.78 4.45c-4.66.28-9.83-2.71-11.54-6.67l-38.81-89.81c-1.71-3.97.67-7.41 5.33-7.69l73.78-4.45c4.66-.28 9.83 2.71 11.54 6.67l38.81 89.81c1.72 3.97-.67 7.41-5.33 7.69z"/><path d="M1897.24 1443.54l-25.12 1.51c-2.01.12-4.25-1.17-4.99-2.88l-.7-1.61c-.74-1.71.29-3.2 2.3-3.32l25.12-1.51c2.01-.12 4.25 1.17 4.99 2.88l.7 1.61c.74 1.71-.29 3.2-2.3 3.32z" fill="#c8eef1"/></g><path class="st7" d="M1869.78 1518.93l-.31.14c-1.86.82-4.04.11-5.05-1.66l-11.56-20.08a2.91 2.91 0 01.08-3.12c1.96-2.92 6.17-8.93 7.61-8.71 1.9.29-3.9 10.27-3.11 10.48.79.2 8.99-6.45 9.69-5.36.62.97-6.6 8.71-6.27 9.31s8.67-4.24 9.57-3.37c.81.78-7.04 7.04-6.93 7.47l6.28 14.9zM1936.11 1542.11c.08-1.4 11.8-10.23 11.13-10.85-.67-.62-13.73 7.2-14.68 5.4-.95-1.81 13.65-9.9 12.31-11.02-1.34-1.13-16.09 7.54-16.69 5.75-.5-1.5 15.75-11.6 20.94-14.77.67-.41.61-1.4-.1-1.73-10.92-5.15-11.46-6.18-10.62-7.25.6-.76 11.48.63 21.74 1.35l12.45 1.19c3.5-.83 108.07-25.53 113.77-32.39 5.8-6.98-9.76-44.69-9.76-44.69l33.96-14.58s15.55 61.86.57 80.93c-8.07 10.27-137.94 28.61-137.94 28.61-2.05 1.58-7.64 5.34-7.64 5.34-22.67 14.43-20.13 13.33-20.79 12.59-.66-.74 6.95-9.33 5.93-9.85-1.01-.54-14.66 7.37-14.58 5.97z"/><path class="st17" d="M2060.8 1347.36s38.04 14.4 62.13 70.41c0 0-11.82 26.14-50.97 27.03l-11.16-97.44z"/><path d="M2122.93 1417.77c-2.58 4.33-5.97 8.08-9.79 11.25-3.78 3.23-8 5.88-12.46 8.02-4.54 1.95-9.19 3.68-14.04 4.68-2.39.63-4.88.82-7.31 1.25-2.46.25-4.94.36-7.41.55l1.29.98c-1.25-4.96-2.66-9.83-4.17-14.69-1.54-4.85-3.12-9.69-5.03-14.41-1.87-4.74-3.97-9.39-6.35-13.9-2.48-4.42-5.2-8.9-9.11-12.19 3.49 3.7 5.9 8.19 7.98 12.76 2.13 4.56 4 9.24 5.63 14.02 1.6 4.78 3.24 9.55 4.65 14.4 1.42 4.84 2.74 9.73 3.92 14.61l.26 1.08 1.03-.09c2.54-.23 5.09-.39 7.62-.69 2.51-.48 5.06-.72 7.53-1.41 2.48-.62 4.96-1.24 7.35-2.17 2.45-.75 4.73-1.95 7.04-3.02 4.5-2.42 8.74-5.34 12.43-8.85 3.6-3.56 6.86-7.57 8.94-12.18z" fill="#fbf9eb"/><path class="st7" d="M1862.92 1504.27s8.35-2.54 9.08-1.6-9.12 6.26-9.08 6.01c.04-.24 0-4.41 0-4.41z"/><path class="st6" d="M2069.17 1277.72l-.94-.11-.63-7.84-3.5-7.25s-13.72-19.48-14.21-19.97c-.48-.48-10.95-6.76-11.59-7.08-.64-.32-15.3 2.09-15.3 2.09s-25.78-5.55-21.42 8.86c4.36 14.4 23.19 21.9 24.15 21.25-3.06-3.22-3.38-12.4-3.38-12.4 14.49 16.75 41.74 27.76 41.74 27.76s2.86-2.18 7.81-.34l-2.73-4.97z"/><path class="st13" d="M2004.7 1311.68c1 4.45 5.31 7.75 10.42 7.66 5.11-.09 9.29-3.54 10.13-8.01l-20.55.35z"/><g><path class="st12" d="M750.51 1623.46h-17.37v-46.01c0-11.6-9.44-21.03-21.03-21.03h-173.4c-11.6 0-21.03 9.44-21.03 21.03v46.01h-17.37v-46.01c0-21.17 17.23-38.4 38.4-38.4h173.4c21.18 0 38.4 17.23 38.4 38.4v46.01z"/><path class="st19" d="M532.28 1618.58h-46.57v-3.9c0-5.1 4.14-9.24 9.24-9.24h28.1c5.1 0 9.24 4.14 9.24 9.24v3.9zM765.11 1618.58h-46.57v-3.9c0-5.1 4.14-9.24 9.24-9.24h28.1c5.1 0 9.24 4.14 9.24 9.24v3.9z"/><path class="st26" d="M807.06 1937.04H434.57c-13.78 0-24.95-11.17-24.95-24.95v-268.56c0-13.78 11.17-24.95 24.95-24.95h372.49c13.78 0 24.95 11.17 24.95 24.95v268.56c0 13.78-11.17 24.95-24.95 24.95z"/><path class="st27" d="M479.21 1618.58h59.55v318.46h-59.55zM712.04 1618.58h59.55v318.46h-59.55z"/><path class="st13" d="M684.97 1762.08h-43.83v-43.83h-31.47v43.83h-43.82v31.47h43.82v43.82h31.47v-43.82h43.83z"/></g><path class="st6" d="M761.95 880.26s30.11-10.63 49.59-32.74c0 0 14.44 19.85 24.33 22.69 0 0 .89-31.64-31.66-35.98-32.54-4.34-49.47 20.99-42.26 46.03z"/><path class="st4" d="M2282.76 430.19c-10.25-44.41-28.12-86.7-51.99-125.36-33.51-1.09-67.06-.92-100.56.53-18.68.81-37.79 1.96-55.69-3.44-17.9-5.39-34.66-18.91-38.11-37.29-2.05-10.89.14-23.79-7.68-31.65-4.13-4.15-10.11-5.72-15.79-7.13-25.82-6.4-52.08-12.84-78.65-11.63-55.16 2.52-115.65 36.39-161.17 5.14-19.86-13.64-31.22-38.71-28.38-62.63s19.76-45.63 42.27-54.24c37.87-14.48 85.27 6.18 121.27-6-124.7-14.13-251.74 24.4-364.7 80.77-13.11 6.54-26.08 13.33-38.95 20.31 1.29 17.57 14.65 33.64 30.76 41.87 18.6 9.5 40.14 10.86 61 12.04l69.96 3.96c8.04.46 17.05 1.38 22.18 7.59 6.67 8.07 3.1 20.01 3.65 30.47 1 19 17.09 34.49 35.03 40.82 17.94 6.33 37.51 5.38 56.51 4.35 35.88-1.94 71.76-3.88 107.64-5.81 11.87-.64 24.51-1.11 34.8 4.84 7.79 4.51 13.17 12.11 18.8 19.13 48.41 60.36 127.74 87.6 204.62 96.33 46.03 5.22 92.44 4.89 138.8 5.28-1.62-9.46-3.46-18.88-5.62-28.25z"/><path class="st22" d="M1012.31 810.1l-23.21-42.61-23.21 42.61s-51.3 95.34-34.81 136c.16.41.33.81.5 1.21 21.61 50.76 93.43 50.76 115.04 0 .17-.4.34-.8.5-1.21 16.49-40.66-34.81-136-34.81-136z"/><path class="st21" d="M989.1 767.49l-23.21 42.61s-42.7 79.37-37.66 124.15c29.53 28.78 82.91 21.9 101.03-20.65.17-.4.34-.8.5-1.21 11.83-29.17-11.23-86.48-25.21-116.54l-15.45-28.36z"/><path class="st13" d="M1076.41 827.66c-3.16 2.69-6.2 5.47-9.18 8.3-5.94 5.67-11.57 11.59-16.99 17.66-5.4 6.09-10.58 12.36-15.55 18.78-3.38 4.36-6.66 8.8-9.84 13.31l-2.38-1.89c-1.57-1.23-3.18-2.42-4.77-3.63-1.6-1.2-3.24-2.36-4.86-3.54-3.29-2.31-6.6-4.6-10.04-6.75-3.44-2.16-6.92-4.27-10.63-6.14 2 3.65 4.23 7.05 6.51 10.41 2.27 3.36 4.67 6.59 7.1 9.8 1.24 1.58 2.45 3.18 3.71 4.73 1.27 1.55 2.51 3.11 3.8 4.64l3.88 4.56 3.96 4.47 5.29 5.97 6.07-6.77c5.44-6.06 10.63-12.32 15.63-18.72 5-6.4 9.8-12.96 14.37-19.7 4.55-6.75 8.9-13.66 12.93-20.81 2.01-3.58 3.96-7.21 5.78-10.94 1.82-3.73 3.59-7.5 5.08-11.48-3.48 2.42-6.71 5.06-9.87 7.74z"/><path class="st20" d="M929.95 716.41c-3.28-14.27-16.05-24.92-31.32-24.92-2.8 0-5.52.36-8.11 1.04-7.54-16.12-23.89-27.28-42.86-27.28-4.9 0-9.63.75-14.08 2.13-10.21-16.91-28.76-28.21-49.95-28.21-25.21 0-46.69 16-54.82 38.4a39.833 39.833 0 00-19.45-5.05c-22.1 0-40.01 17.91-40.01 40.01 0 1.31.07 2.6.19 3.88h260.41zM1432.46 462.02c-2.67-11.61-13.06-20.27-25.47-20.27-2.28 0-4.49.29-6.6.84-6.13-13.11-19.43-22.19-34.86-22.19-3.99 0-7.83.61-11.45 1.73-8.3-13.75-23.39-22.94-40.63-22.94-20.5 0-37.97 13.01-44.59 31.23a32.403 32.403 0 00-15.82-4.11c-17.97 0-32.54 14.57-32.54 32.54 0 1.07.05 2.12.16 3.16h211.8z"/><path class="st1" d="M272.54 1915.51c4.04 3.93 7.44 11.7 11.03 19.93 2.92 6.68 6.05 13.85 10.23 20.92h106.14c-2.88-1.8-5.83-3.5-8.86-5.04-6.86-3.5-13.82-6.21-19.97-8.61-9.07-3.54-17.64-6.88-22.02-11.26-4-4-7.35-11.69-10.91-19.83-5.2-11.92-11.68-26.77-24.15-38.86-16.84-16.33-38.25-21.79-55.45-26.18-12.04-3.07-23.4-5.97-28.72-11.31-2.86-2.88-5.75-8.26-8.81-13.96-1.93-3.59-3.92-7.31-6.28-11.18-19.52-31.99-53.3-54.43-90.35-60.03-2.1-.32-4.06-.56-5.96-.8-3.05-.38-31.13-6.11-40.49.32-17.6 12.09-16.97 38.5 1.41 49.37 2.11 1.25 4.34 2.4 6.7 3.43 9.22 4.03 17.97 5.12 25 5.99 1.59.2 3.09.39 4.43.59 19.55 2.95 38.1 15.28 48.4 32.15 1.5 2.46 3.02 5.3 4.64 8.31.51.95 1.03 1.92 1.57 2.92l26.23.88-18.93 11.4c2.86 4.27 6.19 8.58 10.21 12.62 16.91 17 38.72 22.56 56.24 27.02 11.94 3.06 23.22 5.93 28.67 11.21z"/><path class="st3" d="M287.41 1823.62c4.12 6.07 6.4 16.87 8.8 28.31 3.59 17.04 7.65 36.34 19.74 54.75 13.37 20.35 32.4 32.7 47.69 42.62 3.73 2.42 7.33 4.76 10.65 7.08h98.57c-10.15-21.59-25.14-40.89-43.84-55.88-7.81-6.26-15.98-11.56-23.18-16.24-10.63-6.9-20.66-13.41-25.1-20.16-4.04-6.15-6.29-16.84-8.67-28.15-3.49-16.57-7.83-37.19-20.53-55.89-17.15-25.25-43-37.85-63.77-47.97-14.53-7.08-28.25-13.77-33.62-21.98-2.89-4.42-5.15-12.04-7.54-20.11-1.51-5.09-3.07-10.34-5.06-15.9-9.16-25.56-24.73-48.5-44.62-66.74l-17.75 28.03 7.82-36.46c-13.49-10.59-28.59-19.16-44.77-25.14-2.59-.96-5.03-1.79-7.38-2.59-3.78-1.29-38.05-15.98-51.68-10.26-18.77 7.89-27.07 28.16-22.09 45.79l35.27 2.98-26.76 12.16c.75.81 1.53 1.6 2.36 2.37a78.26 78.26 0 007.64 6.14c10.69 7.56 21.55 11.26 30.28 14.23 1.97.67 3.84 1.31 5.49 1.92 24.14 8.92 44.52 29.5 53.2 53.73 1.26 3.53 2.46 7.55 3.72 11.81 1.97 6.63 4.2 14.16 7.39 21.96l39.93 7.68-33.36 5.9c.95 1.65 1.94 3.3 3.02 4.94 17.07 26.12 43.4 38.95 64.55 49.26 14.43 7 28.05 13.64 33.6 21.81z"/><path class="st2" d="M257.54 1596.68c-.76 12.7-1.68 28.15 1.16 44.6 20.52 11.55 60.59 34.13 56.02 31.7-4.28-2.28-33.83-9.13-51.13-13.03 10.31 29.11 30.8 50.3 47.66 67.72 13.03 13.47 25.34 26.19 28.17 37.36 2.1 8.3.29 21.07-1.62 34.58-2.85 20.13-6.09 42.94-.15 67.96 6.56 27.67 22.52 48.81 35.35 65.79 5.22 6.92 10.16 13.46 13.89 19.58.69 1.12 1.34 2.27 1.97 3.43h96.39c-4.44-17.73-11.48-34.82-21.03-50.51-6.08-9.99-12.93-19.06-18.97-27.06-8.91-11.8-17.33-22.96-19.51-32.13-1.98-8.36-.19-20.99 1.7-34.35 2.78-19.58 6.23-43.94-.26-69.53-8.76-34.55-32.1-58.68-50.87-78.08-13.12-13.56-25.52-26.38-28.14-37.53-1.41-6.01-.85-15.27-.26-25.08.37-6.18.76-12.58.79-19.47.23-53.23-22.3-105.6-60.75-142.25l-17.69 7.81 8.73-15.82c-2.21-1.86-4.33-3.56-6.38-5.21-3.64-2.92-35.4-32.71-52.63-31.86-32.4 1.61-52.65 36.28-37.54 64.99 1.74 3.3 3.7 6.57 5.94 9.78 8.72 12.56 19.17 20.95 27.56 27.68 1.9 1.52 3.69 2.96 5.26 4.29 22.94 19.41 37.11 50.13 36.97 80.18-.02 4.4-.31 9.29-.63 14.46z"/><path fill="#082948" d="M217.73 1936.96h2268.42v19.41H217.73z"/><path class="st20" d="M2411.33 908.18c-3.65.69-7.24 1.59-10.73 2.68-21.12-34.98-59.5-58.37-103.34-58.37-52.16 0-96.59 33.1-113.42 79.45-11.92-6.64-25.63-10.44-40.25-10.44-45.72 0-82.78 37.06-82.78 82.78 0 2.71.14 5.39.39 8.03h407.35c-16.09-36.07-37.09-69.89-57.22-104.13z"/><g><path class="st2" d="M2201.06 665.75h-45.6v-37.02h-37.02v-45.6h37.02v-37.02h45.6v37.02h37.02v45.6h-37.02v37.02zm-39.48-6.12h33.36v-37.02h37.02v-33.36h-37.02v-37.02h-33.36v37.02h-37.02v33.36h37.02v37.02z"/></g><g><path class="st2" d="M2385.91 1277.25h-29.8v-24.19h-24.19v-29.8h24.19v-24.19h29.8v24.19h24.19v29.8h-24.19v24.19zm-25.81-4h21.8v-24.19h24.19v-21.8h-24.19v-24.19h-21.8v24.19h-24.19v21.8h24.19v24.19z"/></g><g><path class="st2" d="M550.61 977.39h-23.67v-19.22h-19.22V934.5h19.22v-19.22h23.67v19.22h19.22v23.67h-19.22v19.22zm-20.5-3.18h17.32V955h19.22v-17.32h-19.22v-19.22h-17.32v19.22h-19.22V955h19.22v19.21z"/></g><g><path class="st2" d="M487.07 1430.53h-15.71v-12.75h-12.75v-15.71h12.75v-12.75h15.71v12.75h12.75v15.71h-12.75v12.75zm-13.6-2.11h11.49v-12.75h12.75v-11.49h-12.75v-12.75h-11.49v12.75h-12.75v11.49h12.75v12.75z"/></g><g><path class="st2" d="M1609.47 356.24h-23.67v-19.22h-19.22v-23.67h19.22v-19.22h23.67v19.22h19.22v23.67h-19.22v19.22zm-20.5-3.18h17.32v-19.22h19.22v-17.32h-19.22V297.3h-17.32v19.22h-19.22v17.32h19.22v19.22z"/></g><g><path class="st1" d="M2117.65 1112.55c-11.05 0-20.04-8.99-20.04-20.04s8.99-20.04 20.04-20.04 20.04 8.99 20.04 20.04-8.99 20.04-20.04 20.04zm0-35.01c-8.25 0-14.96 6.71-14.96 14.96s6.71 14.96 14.96 14.96 14.96-6.71 14.96-14.96-6.71-14.96-14.96-14.96z"/></g><g><path class="st1" d="M1908.58 210.21c-11.05 0-20.04-8.99-20.04-20.04 0-11.05 8.99-20.04 20.04-20.04s20.04 8.99 20.04 20.04c0 11.05-8.99 20.04-20.04 20.04zm0-35c-8.25 0-14.96 6.71-14.96 14.96s6.71 14.96 14.96 14.96 14.96-6.71 14.96-14.96-6.71-14.96-14.96-14.96z"/></g><g><path class="st3" d="M1207.75 567.78c-10.76 0-19.51-8.75-19.51-19.51s8.75-19.51 19.51-19.51 19.51 8.75 19.51 19.51-8.75 19.51-19.51 19.51zm0-34.08c-8.03 0-14.56 6.53-14.56 14.56 0 8.03 6.53 14.56 14.56 14.56 8.03 0 14.56-6.53 14.56-14.56 0-8.02-6.53-14.56-14.56-14.56z"/></g><g><path class="st2" d="M308.47 1351.75c-12.59 0-22.83-10.24-22.83-22.83s10.24-22.83 22.83-22.83c12.59 0 22.83 10.24 22.83 22.83s-10.25 22.83-22.83 22.83zm0-39.86c-9.39 0-17.04 7.64-17.04 17.04 0 9.39 7.64 17.04 17.04 17.04 9.39 0 17.04-7.64 17.04-17.04-.01-9.39-7.65-17.04-17.04-17.04z"/></g><g><path class="st13" d="M1934.89 1936.96l57.15-.17c1.77 0 3.19-1.44 3.19-3.21a3.203 3.203 0 00-3.21-3.19l-57.15.17c-1.77 0-3.19 1.44-3.19 3.21a3.21 3.21 0 003.21 3.19z"/><path class="st6" d="M1992.25 1910.96l2.16 17.78c.27 2.19-.96 4.19-2.57 4.19l-56 .16c-1.46 0-2.9-.9-3.67-2.6-.79-1.75-.95-4.38 1.54-7.93 4.94-7.03 21.12-8.84 29.25-14.77.17-.12.36-.19.57-.19l25.77-.08c1.47.01 2.71 1.46 2.95 3.44z"/><path class="st13" d="M1967.22 1917.93c.4-.25.55-.93.31-1.45-1.11-2.43-4.56-8.36-11.55-7.12-.4.07-.68.61-.61 1.16v.02c.07.54.43.88.82.82 6.26-1.09 9.2 4.13 10.1 6.17.2.43.59.6.93.4zM1961.41 1920.23c.4-.25.55-.93.31-1.45-1.11-2.43-4.56-8.36-11.55-7.12-.4.07-.68.61-.61 1.16v.02c.07.54.43.88.82.82 6.26-1.09 9.2 4.13 10.1 6.17.2.44.59.61.93.4z"/><path class="st13" d="M1956 1922.38c.4-.25.55-.93.31-1.45-1.11-2.43-4.56-8.36-11.55-7.12-.4.07-.68.61-.61 1.16v.02c.07.54.43.89.82.82 6.26-1.09 9.2 4.13 10.1 6.17.21.44.6.61.93.4z"/></g><g><path class="st11" d="M875.09 1369.53l-42.23-38.52a3.196 3.196 0 01-.21-4.52c1.19-1.3 3.21-1.4 4.52-.21l42.23 38.52c1.3 1.19 1.4 3.21.21 4.52a3.196 3.196 0 01-4.52.21z"/><path class="st12" d="M850.06 1311.74l-13.54 11.72c-1.67 1.45-2.11 3.74-.92 4.83l41.37 37.74c1.07.98 2.75 1.28 4.46.53 1.76-.77 3.65-2.61 4.19-6.92 1.06-8.53-9.71-20.74-11.75-30.59a.967.967 0 00-.29-.52l-19.04-17.37c-1.08-.97-2.98-.73-4.48.58z"/><path class="st13" d="M863.93 1333.72c-.13-.46.22-1.06.74-1.29 2.45-1.06 8.99-3.13 13.34 2.49.25.32.09.91-.33 1.27l-.01.01c-.41.35-.92.37-1.16.05-3.91-5.01-9.59-3.12-11.63-2.21-.44.2-.84.06-.95-.32zM866.68 1339.33c-.13-.46.22-1.06.74-1.29 2.45-1.06 8.99-3.13 13.34 2.49.25.32.09.91-.33 1.27l-.01.01c-.41.35-.92.37-1.16.05-3.91-5.01-9.59-3.12-11.63-2.21-.44.2-.84.06-.95-.32z"/><path class="st13" d="M869.24 1344.55c-.13-.46.22-1.06.74-1.29 2.45-1.06 8.99-3.13 13.34 2.49.25.32.09.91-.33 1.27l-.01.01c-.41.35-.92.37-1.16.05-3.91-5.01-9.59-3.12-11.63-2.21-.44.2-.84.06-.95-.32z"/></g></svg>