<?xml version="1.0" encoding="utf-8"?>
<!-- Generator: Adobe Illustrator 24.0.1, SVG Export Plug-In . SVG Version: 6.00 Build 0)  -->
<svg version="1.1" id="Layer_1" xmlns="http://www.w3.org/2000/svg" xmlns:xlink="http://www.w3.org/1999/xlink" x="0px" y="0px"
	 viewBox="0 0 2609 2000" style="enable-background:new 0 0 2609 2000;" xml:space="preserve">
<style type="text/css">
	.st0{fill:#E2FAFA;}
	.st1{fill:#9CDEDC;}
	.st2{fill:#74BDC1;}
	.st3{fill:#8FD0D6;}
	.st4{opacity:0.5;fill:#FFFFFF;}
	.st5{fill:#9DE0DE;}
	.st6{fill:#333333;}
	.st7{fill:#FFC0BB;}
	.st8{fill:#E03268;}
	.st9{fill:#F3FCFF;}
	.st10{fill:#CFE4FF;}
	.st11{fill:#122F5B;}
	.st12{fill:#55769F;}
	.st13{fill:#FFFFFF;}
	.st14{opacity:0.6;fill:#FC8D84;}
	.st15{fill:#F99893;}
	.st16{opacity:0.3;fill:#F99893;}
	.st17{fill:#3660AC;}
	.st18{fill:#DAEEF7;}
	.st19{fill:#224887;}
	.st20{opacity:0.8;fill:#FFFFFF;}
	.st21{fill:#E72C3B;}
	.st22{fill:#B20B1F;}
	.st23{fill:#B6D5E0;}
	.st24{fill:#EAF5F9;}
	.st25{opacity:0.9;fill:#FFFFFF;}
	.st26{fill:#FEB546;}
	.st27{fill:#F4A640;}
	.st28{opacity:0.2;fill:#FFFFFF;}
	.st29{fill:#18196B;}
	.st30{fill:#1B4B79;}
	.st31{fill:#C8EEF1;}
	.st32{fill:#FBF9EB;}
	.st33{fill:#082948;}
</style>
<g>
	<path class="st0" d="M2474.62,1613.96c-25.05-192.18,70.36-394.63,4.05-576.74c-21.06-57.83-57.16-108.75-86.58-162.81
		c-44.41-81.62-73.84-171.36-86.38-263.43c-8.21-60.23-9.28-121.57-22.95-180.8c-37.92-164.32-179.94-299.62-345.9-329.52
		c-133.75-24.1-271.68,15.91-393.28,76.6c-121.6,60.69-231.87,141.72-350.65,207.76C1066.52,455.31,930.57,508.43,790,542.45
		c-52.09,12.61-105.53,22.86-153.26,47.23C518.18,650.2,458.25,783.67,415.66,909.78c-42.59,126.11-81.01,261.91-179.55,351.39
		c-26.41,23.99-56.52,43.91-81,69.86c-80.59,85.41-84.21,222.74-37.34,330.41c42.68,98.03,142.74,230.16,240.79,279.72
		c3.5,1.77,7.08,3.42,10.71,4.97h277.78c52.52-9.67,102.76-20.16,145.04-24.26c165.3-16.05,331.8-1.04,497.6,8.58
		c337.37,19.59,675.6,16.84,1013.53,14.09c49.45-0.4,102.82-2.09,141.96-32.32c41.72-32.22,56.21-89.53,54.11-142.2
		C2497.18,1717.37,2481.44,1666.24,2474.62,1613.96z"/>
	<path class="st1" d="M2253.15,1305.82L2253.15,1305.82c-15.95,2.01-40.25,34.48-43.11,37.75c-1.61,1.84-3.28,3.75-5.01,5.81
		l10.58,13.1l-17.49-4.29c-29.32,39.85-41.51,91.53-32.66,140.32c1.14,6.32,2.53,12.12,3.88,17.73c2.13,8.9,4.14,17.31,3.82,23.05
		c-0.59,10.65-9.89,24.41-19.72,38.98c-14.07,20.83-31.57,46.74-34,79.86c-1.8,24.52,5.32,46.31,11.04,63.81
		c3.9,11.95,7.59,23.24,7.13,31.23c-0.51,8.77-6.42,20.36-12.69,32.63c-4.24,8.32-9.05,17.74-13.01,27.89
		c-15.91,40.79-15.35,87.35,1.55,127.75l77.8-32.54c-8.41-20.12-8.71-44.25-0.78-64.56c2.43-6.22,5.89-13.01,9.56-20.21
		c9.01-17.66,20.22-39.63,21.76-66.07c1.39-23.91-5.28-44.31-11.16-62.31c-3.95-12.09-7.68-23.5-7.09-31.46
		c0.79-10.71,10.01-24.37,19.78-38.83c12.64-18.71,28-41.47,32.73-69.84c-15.24,6.38-41.23,17.46-44.79,20.24
		c-3.8,2.97,29.3-24.23,46.24-38.15c-0.06-15.55-3.4-29.57-6.16-41.1c-1.13-4.7-2.19-9.13-2.91-13.14
		c-4.99-27.54,3.02-58.01,20.92-79.54c1.23-1.47,2.64-3.08,4.13-4.79c6.61-7.54,14.83-16.92,20.79-29.86
		c1.53-3.31,2.8-6.63,3.86-9.94C2307.31,1330.57,2283.12,1302.05,2253.15,1305.82z"/>
	<path class="st2" d="M2405.47,1435.57L2405.47,1435.57c-13.42-3.04-42.48,15.99-45.74,17.78c-2.03,1.12-4.13,2.27-6.35,3.57
		c-13.87,8.11-26.33,18.41-36.99,30.31l13.08,32.18l-20.83-22.84c-15.29,19.96-25.85,43.52-30.11,68.45
		c-0.93,5.42-1.5,10.5-2.06,15.4c-0.89,7.79-1.73,15.14-3.66,19.67c-3.59,8.4-15.09,16.76-27.27,25.61
		c-17.41,12.65-39.08,28.4-50.71,54.34c-8.62,19.21-9.26,38.83-9.77,54.59c-0.35,10.76-0.68,20.93-3.39,27.22
		c-2.97,6.91-11.12,14.51-19.75,22.56c-5.85,5.45-12.47,11.64-18.63,18.65c-24.73,28.18-37.89,65.82-36.1,103.28l72.13-3.45
		c-0.89-18.65,5.93-38.16,18.25-52.2c3.77-4.3,8.55-8.75,13.6-13.47c12.41-11.58,27.86-25.99,36.83-46.82
		c8.11-18.84,8.71-37.21,9.24-53.41c0.36-10.88,0.69-21.16,3.49-27.39c3.76-8.39,15.18-16.69,27.27-25.47
		c17.73-12.89,39.8-28.92,51.22-55.64c0.72-1.67,1.37-3.35,1.96-5.02h-31.55l35.38-13.52c1.66-7.66,2.49-14.94,3.22-21.34
		c0.47-4.11,0.91-7.99,1.5-11.43c4.03-23.63,19.39-45.81,40.09-57.9c1.42-0.83,3.02-1.71,4.72-2.65
		c7.52-4.14,16.88-9.29,25.47-17.96c2.2-2.22,4.19-4.52,6.01-6.87c0.65-0.83,1.23-1.69,1.78-2.55l-26.52-6.81l31.87-8.45
		C2434.86,1457.01,2423.96,1439.76,2405.47,1435.57z"/>
	<path class="st3" d="M2440.83,1607.78L2440.83,1607.78c-9.63-4.38-34.45,5.42-37.19,6.26c-1.7,0.52-3.46,1.07-5.33,1.7
		c-33.08,11.14-60.42,37.2-73.14,69.7c-1.54,3.93-2.76,7.67-3.95,11.27c-1.88,5.72-3.65,11.13-5.82,14.23
		c-4.01,5.76-13.97,10.26-24.51,15.03c-15.07,6.81-33.82,15.29-46.62,33c-9.48,13.12-13.01,27.78-15.85,39.56
		c-1.94,8.04-3.77,15.64-6.79,19.96c-3.31,4.74-10.63,9.19-18.38,13.9c-5.25,3.19-11.2,6.81-16.92,11.13
		c-23,17.36-38.76,43.64-43.24,72.1l54.82,8.63c2.23-14.17,10.4-27.8,21.85-36.44c3.51-2.65,7.79-5.26,12.33-8.02
		c11.14-6.78,25.01-15.22,35-29.5c9.03-12.92,12.34-26.64,15.26-38.76c1.96-8.13,3.81-15.82,6.89-20.07
		c4.14-5.73,14.02-10.19,24.49-14.92c15.35-6.94,34.45-15.57,47.21-33.9c3.03-4.35,5.39-8.84,7.32-13.23l-19.21-7.39l23.91-5.06
		c0.33-1,0.66-1.98,0.97-2.93c0.99-3.02,1.93-5.87,2.91-8.37c6.71-17.15,21.72-31.46,39.18-37.34c1.2-0.4,2.54-0.82,3.97-1.26
		c6.3-1.94,14.15-4.36,21.96-9.55c2-1.33,3.86-2.75,5.59-4.23C2462.63,1640.35,2458.93,1616.02,2440.83,1607.78z"/>
	<path class="st4" d="M1339.97,765.33c-7.98-12.84-20.18-22.44-32.57-31.1c-63.77-44.61-139.77-71.54-217.4-77.04
		c-18.28-1.3-40.85-4.31-47.04-21.56c-5.69-15.84,7.82-32.6,23.05-39.75s32.71-8.71,47.6-16.56c14.89-7.84,26.91-26.28,19.09-41.19
		c-4.69-8.95-14.82-13.44-24.36-16.78c-60.13-21.05-123.57-22-187.55-16.52c-43.04,14.37-86.69,26.93-130.8,37.61
		c-52.09,12.61-105.53,22.86-153.26,47.23c-4.25,2.17-8.41,4.44-12.51,6.79c39.13,8.43,78.66,15.03,118.42,19.73
		c16.62,1.96,36.59,6.07,42.15,21.85c4.76,13.49-4.11,28.8,0.07,42.48c5.57,18.21,29.11,22.24,48.14,22.97s42.55,4.66,48.25,22.83
		c2.53,8.08,0.43,17.05-3.77,24.41c-10.91,19.11-33.99,28-55.89,30.13c-21.9,2.14-44.05-1-65.97,0.99
		c-51.61,4.7-101.83,37.51-151.86,23.99c-22.31-6.03-41.14-20.69-62.07-30.48c-20.14-9.43-41.54-14.13-63.54-16.1
		c-13.77,25.93-25.93,53.03-36.9,80.5c44.71-1.1,92.23-1.4,130.28,22.07c11.09,6.84,20.99,15.52,32.25,22.08
		c14.54,8.47,31.08,13.2,47.82,14.9c65.68,6.65,126.39-31.88,190.04-49.44c88.03-24.28,182.2-7.94,269.71,18.16
		c35,10.44,69.95,22.5,106.36,25.41s75.35-4.48,102.67-28.73C1347.69,839.97,1359.26,796.35,1339.97,765.33z"/>
	<path class="st2" d="M1915.24,1883.36c0,0-144.3-123.95-299.71-37c0,0,0-157.25-114.7-173.91s-216.46,74-190.56,172.06
		c0,0-238.66-46.25-283.06,66.6l888.03,7.4V1883.36z"/>
	<path class="st5" d="M2309.63,1940c-89.69-170.79-254.34-93.38-254.34-93.38s-28.26-157.27-238.37-111.81
		c0,0-88.47,25.8-100.75,133.93c0,0-122.87-44.23-146.21,77.41L2309.63,1940z"/>
	<path class="st6" d="M773.59,841.05c0,0-18.43,10.42-23.96,25.16c-4.73,12.58-25.8,10.38-38.98,27.2
		c-14.63,18.68-35.44,46.61,12.28,65.45c29.65,11.7,76.85,20.71,87.56,12.81c10.7-7.9,36.22-4.74,30.48-87.73
		c0,0-69.79-29.13-70.49-29.3C769.78,854.45,773.59,841.05,773.59,841.05z"/>
	<path class="st6" d="M841.02,876.43c0,23.71-19.22,42.93-42.93,42.93c-23.71,0-42.93-19.22-42.93-42.93
		c0-23.71,19.22-42.93,42.93-42.93C821.8,833.5,841.02,852.72,841.02,876.43z"/>
	<path class="st7" d="M956.11,1006.15l-3.13,1.47c-13.34,3.2-89.42,21.33-92.93,19.01c-3.85-2.54-21.04-38.03-21.04-38.03
		l-19.53,31.79c0,0,17.64,33.42,29.12,38.71c11.2,5.16,90.07-23.48,112.29-36.98l2.25-1c2.16,0.46,7.83,1.26,7.83,1.26
		c22.67,2.57,20.34,2.71,20.52,1.82c0.18-0.88-8.98-4.83-8.44-5.69c0.54-0.85,13.87,0.05,13.23-1.08
		c-0.63-1.12-12.92-3.58-12.68-4.37c0.23-0.79,13.1,0.29,13.05-1.6c-0.04-1.88-14.15-2.54-13.62-4.03
		c0.52-1.48,14.97-0.41,14.68-2.13c-0.25-1.45-16.4-3.08-21.54-3.56c-0.66-0.06-1.03-0.91-0.64-1.47c5.93-8.76,5.9-9.84,4.84-10.37
		c-0.76-0.38-8.21,5.25-15.47,10.08L956.11,1006.15z"/>
	<g>
		<path class="st8" d="M597.86,1155.43h485.67c20.15,0,36.49,16.34,36.49,36.49v708.54c0,20.15-16.34,36.49-36.49,36.49H597.86
			c-20.15,0-36.49-16.34-36.49-36.49v-708.54C561.38,1171.77,577.71,1155.43,597.86,1155.43z"/>
		<rect x="602.51" y="1192.78" class="st9" width="476.38" height="666.43"/>
		<path class="st10" d="M959.53,1209.95H701.6v-29.63c0-27.12,21.99-49.11,49.11-49.11h159.72c27.12,0,49.11,21.99,49.11,49.11
			V1209.95z"/>
		<rect x="637.37" y="1269.49" class="st10" width="250.57" height="18.6"/>
		<rect x="637.37" y="1337.77" class="st10" width="250.57" height="18.6"/>
		<rect x="637.37" y="1406.05" class="st10" width="250.57" height="18.6"/>
		<rect x="637.37" y="1474.33" class="st10" width="250.57" height="18.6"/>
		<rect x="637.37" y="1542.61" class="st10" width="250.57" height="18.6"/>
		<rect x="637.37" y="1610.89" class="st10" width="250.57" height="18.6"/>
		<rect x="637.37" y="1679.17" class="st10" width="250.57" height="18.6"/>
		<rect x="637.37" y="1747.45" class="st10" width="250.57" height="18.6"/>
		<rect x="944.5" y="1269.49" class="st10" width="142.13" height="136.4"/>
		<rect x="944.5" y="1449.57" class="st10" width="142.13" height="136.4"/>
		<rect x="944.5" y="1629.64" class="st10" width="142.13" height="136.4"/>
	</g>
	<polygon class="st7" points="925.23,1299.57 924.12,1326.47 900.76,1317.48 903.87,1298.13 	"/>
	<g>
		<path class="st11" d="M944.63,1359.73l-54.23-18.04c-1.68-0.56-2.58-2.37-2.02-4.04l0,0c0.56-1.68,2.37-2.58,4.04-2.02
			l54.23,18.04c1.68,0.56,2.58,2.37,2.02,4.04l0,0C948.12,1359.39,946.3,1360.29,944.63,1359.73z"/>
		<path class="st12" d="M898.28,1317.09l-7.61,16.21c-0.94,2-0.4,4.28,1.13,4.78l53.14,17.68c1.38,0.46,3.03,0.05,4.3-1.33
			c1.3-1.41,2.28-3.87,1.02-8.02c-2.49-8.22-17.29-15.01-23.16-23.18c-0.12-0.17-0.28-0.29-0.48-0.36l-24.45-8.14
			C900.76,1314.3,899.13,1315.29,898.28,1317.09z"/>
		<g>
			<path class="st13" d="M919.88,1331.54L919.88,1331.54c-0.31-0.36-0.23-1.06,0.16-1.48c1.81-1.96,6.95-6.51,13.2-3.15
				c0.36,0.19,0.45,0.79,0.21,1.29l-0.01,0.02c-0.23,0.49-0.69,0.71-1.04,0.52c-5.61-2.99-10.03,1.05-11.52,2.7
				C920.56,1331.81,920.13,1331.85,919.88,1331.54z"/>
		</g>
		<g>
			<path class="st13" d="M924.68,1335.55L924.68,1335.55c-0.31-0.36-0.23-1.06,0.16-1.48c1.81-1.96,6.95-6.51,13.2-3.15
				c0.36,0.19,0.45,0.79,0.21,1.29l-0.01,0.02c-0.23,0.49-0.69,0.71-1.04,0.52c-5.61-2.99-10.03,1.05-11.52,2.7
				C925.35,1335.82,924.93,1335.85,924.68,1335.55z"/>
		</g>
		<g>
			<path class="st13" d="M929.13,1339.29L929.13,1339.29c-0.31-0.36-0.23-1.06,0.16-1.48c1.81-1.96,6.95-6.51,13.2-3.15
				c0.36,0.19,0.45,0.79,0.21,1.29l-0.01,0.02c-0.23,0.49-0.69,0.71-1.04,0.52c-5.61-2.99-10.03,1.05-11.52,2.7
				C929.81,1339.55,929.39,1339.59,929.13,1339.29z"/>
		</g>
	</g>
	<path class="st11" d="M748.01,1111.51c0,0-10.9,51.3,38.56,63.49c49.47,12.18,111.89,13.42,111.89,13.42l1.15,119.5l26.04,2.98
		c0,0,77.7-161.04-13.77-192.75l-83.69-4.87l-34.3-4.64c0,0-34.32-10.81-34.83-9.2C758.55,1101.06,748.78,1112.38,748.01,1111.51z"
		/>
	<path class="st7" d="M806.26,942.18c0,0-30.5-6.83-46.32-6.29c-15.82,0.53,5.68,42.17,5.68,42.17l25.84,0.57
		c0,0,15.76-10.5,18.06-10.36c8.71,0.52,1.92-24.54,1.92-24.54L806.26,942.18z"/>
	<path class="st7" d="M775.58,909.35l-9.08,27.54c0,0,7.9,16.34,32.1,9.29c0,0-2.76-5.7,0.94-17.45
		C803.33,916.73,775.58,909.35,775.58,909.35z"/>
	<path class="st14" d="M775.58,909.35l-4.26,12.87c2.54,9.4,10.77,15.81,26.3,17.8c-0.01-2.8,0.43-6.54,1.92-11.28
		C803.33,916.73,775.58,909.35,775.58,909.35z"/>
	<path class="st15" d="M830.93,889.19c-1.96,4.47-0.65,9.37,2.92,10.94c3.58,1.57,8.07-0.78,10.03-5.25
		c1.96-4.47,0.65-9.37-2.92-10.94C837.39,882.36,832.9,884.71,830.93,889.19z"/>
	<path class="st7" d="M828.93,915.6c1.18-1.92,2.19-3.96,3-6.11c2.32-5.76,3.58-11.91,4.24-17.28c0.14-1.15,0.35-2.29,0.58-3.43
		c0.93-4.6,1.05-9.5,0.1-14.56c-3.06-16.3-16.72-28.88-33.22-30.54c-22.23-2.24-41.1,14.84-41.68,36.58
		c-2.33-1.38-4.97-1.75-7.34-0.77c-4.54,1.88-6.31,8.01-3.95,13.68c2.35,5.67,7.94,8.74,12.48,6.86c0.63-0.26,1.2-0.61,1.72-1.02
		c1.39,18.54,16.17,33.23,34.35,33.41c8.89,0.09,17.04-3.31,23.25-8.96c0.41-0.33,0.85-0.71,1.31-1.16
		C825.78,920.3,827.48,918.04,828.93,915.6z"/>
	<path class="st15" d="M820.3,882.31c-0.72,2.05-1.09,4.19-1.21,6.37c-0.06,1.09-0.03,2.19,0.12,3.32c0.17,1.12,0.43,2.28,1.14,3.39
		l0.31,0.4l0.28,0.35c0.12,0.16,0.29,0.3,0.37,0.48c0.22,0.32,0.36,0.68,0.41,1.04c0.15,0.73-0.19,1.52-0.72,2.23
		c-1.15,1.43-3.16,2.21-5.25,2.64c2.09,0.41,4.57,0.15,6.42-1.54c0.9-0.82,1.6-2.11,1.5-3.52c-0.02-0.35-0.08-0.69-0.2-1.01
		c-0.09-0.34-0.26-0.63-0.43-0.92c-0.16-0.31-0.39-0.52-0.59-0.79c-0.13-0.15-0.15-0.19-0.21-0.28l-0.17-0.23
		c-0.45-0.67-0.72-1.62-0.94-2.58c-0.24-0.96-0.3-1.99-0.43-3.02C820.51,886.58,820.43,884.47,820.3,882.31z"/>
	<polygon class="st7" points="881.89,1296.33 869.86,1330.8 852.16,1313.1 858.56,1296.78 	"/>
	<path class="st6" d="M807.51,886.7c-0.02,1.82-1.51,3.28-3.33,3.27c-1.82-0.02-3.28-1.51-3.27-3.33c0.02-1.82,1.51-3.28,3.33-3.27
		C806.07,883.39,807.53,884.88,807.51,886.7z"/>
	<path class="st6" d="M832.01,887.3c-0.02,1.82-1.51,3.28-3.33,3.27c-1.82-0.02-3.28-1.51-3.27-3.33c0.02-1.82,1.51-3.28,3.33-3.26
		C830.57,883.99,832.03,885.48,832.01,887.3z"/>
	<path class="st16" d="M807.02,908.62c0,0,4.49-1.61,8.71,1.16c0,0,4.56-2.86,8.16-0.13c0,0-1.67,6.8-9.17,6.34
		C807.23,915.53,807.02,908.62,807.02,908.62z"/>
	<path class="st15" d="M803.1,906.18c0.85,0.69,1.73,1.32,2.66,1.87c0.92,0.57,1.87,1.08,2.85,1.51c1.96,0.86,4.03,1.47,6.15,1.65
		c2.12,0.19,4.25-0.07,6.3-0.7c2.04-0.65,3.96-1.67,5.78-2.88c-0.81,0.73-1.68,1.41-2.61,2c-0.93,0.6-1.93,1.06-2.96,1.48
		c-1.04,0.39-2.13,0.67-3.23,0.83c-1.11,0.14-2.23,0.17-3.35,0.09c-2.23-0.21-4.4-0.87-6.36-1.9
		C806.38,909.11,804.57,907.81,803.1,906.18z"/>
	<path class="st6" d="M808.74,876.84c-1.7-0.46-3.29-0.79-4.86-0.98c-1.57-0.18-3.1-0.17-4.58,0.07c-1.47,0.25-2.95,0.63-4.36,1.33
		c-0.75,0.26-1.4,0.74-2.16,1.09c-0.73,0.4-1.4,0.89-2.22,1.29c0.39-0.78,0.84-1.55,1.38-2.25c0.6-0.64,1.17-1.37,1.93-1.87
		c1.41-1.16,3.21-1.86,5.04-2.15c1.84-0.29,3.74-0.09,5.44,0.52C806.04,874.51,807.61,875.47,808.74,876.84z"/>
	<path class="st6" d="M823.8,876.84c1.29-1.23,2.96-1.99,4.72-2.4c1.76-0.4,3.67-0.37,5.47,0.14c1.78,0.52,3.48,1.43,4.74,2.75
		c0.69,0.59,1.17,1.38,1.69,2.09c0.45,0.77-1.23,0.04-0.94,0.86c-0.76-0.49,0.67,0.48,0,0c-0.71-0.44-1.29-0.99-2.01-1.34
		c-1.31-0.87-2.73-1.42-4.17-1.85c-1.44-0.41-2.96-0.62-4.54-0.62C827.16,876.46,825.54,876.6,823.8,876.84z"/>
	<path class="st17" d="M824.8,1019.87c0,0-6.72,19.64-7.94,30.07c-3.03,25.9,2.58,48.14,7.94,62.88
		c7.52,20.68-56.21,9.19-57.46,8.57c-1.25-0.63-53.89-20.99-53.89-20.99l-3.97-40.59l-6.06-39.93l2.82-23.5L824.8,1019.87z"/>
	<path class="st7" d="M723.85,962.78c0,0,8.16,0.71,7.27,14.89c-0.89,14.18-7.51,41.19-7.51,41.19s-64.32,123.61-78.42,135.64
		c-0.76,0.65-1.73,1.01-2.73,1.05l-43.34-0.17c0,0,2.78-2.78,5.77-3.57l20.2-5.36c0.8-0.21,1.47-0.74,1.87-1.46l6.47-11.81
		l48.78-130.11c4.98-11.59,16.81-18.22,24.95-27.86C713.1,968.15,719.58,962.08,723.85,962.78z"/>
	<g>
		<path class="st17" d="M811.44,943.73c-0.6,12.33-17.86,32.87-17.86,32.87c-3.13-6.87-33.26-40.29-33.64-40.71
			c-12.41,0.19-38.75,2.03-54.84,13.46c-21.62,15.35-34.56,49.84-34.56,49.84s39.17,19.74,48.88,20.68h108.72
			c0,0,16.61-1.25,32.59-9.4C860.71,1010.47,858.14,959.38,811.44,943.73z"/>
	</g>
	<path class="st18" d="M736.81,978.63c-1.12,3.35-2.11,6.74-3.11,10.12c-1.01,3.39-1.92,6.8-2.82,10.21
		c-0.86,3.43-1.73,6.85-2.48,10.31c-0.74,3.46-1.47,6.93-2.03,10.43l0.83-0.83c-1.07,0.11-2.38,0.07-3.59-0.02
		c-1.23-0.08-2.47-0.26-3.71-0.44c-2.46-0.44-4.93-0.91-7.36-1.59l-1.83-0.48l-1.81-0.55c-1.2-0.38-2.42-0.72-3.61-1.15l-3.58-1.24
		l-3.54-1.37c-2.37-0.89-4.68-1.93-7.03-2.9l-6.93-3.16l-6.87-3.32c-2.26-1.17-4.53-2.33-6.81-3.46c2.15,1.36,4.33,2.69,6.51,4.02
		c2.2,1.29,4.42,2.55,6.66,3.79c2.25,1.2,4.53,2.36,6.82,3.5l3.48,1.61c1.16,0.54,2.32,1.09,3.51,1.55
		c4.7,2.03,9.55,3.75,14.52,5.12l1.87,0.5l1.89,0.43c1.25,0.31,2.54,0.51,3.81,0.73c1.29,0.18,2.57,0.36,3.88,0.43
		c1.33,0.09,2.57,0.14,4.04-0.02l0.71-0.08l0.11-0.75c1.06-6.93,2.46-13.83,3.93-20.72l2.24-10.33L736.81,978.63z"/>
	<path class="st18" d="M819.47,970.7c1.53,4.01,2.93,8.04,4.17,12.09c1.22,4.06,2.3,8.16,3.02,12.31c0.4,2.07,0.66,4.16,0.84,6.25
		c0.21,2.09,0.23,4.19,0.16,6.28c-0.16,4.19-6.36,23.88-8.18,27.78c2.58-3.46,9.33-23.32,9.78-27.65c0.52-4.35,0.17-8.74-0.57-13.01
		c-0.41-2.13-0.88-4.25-1.47-6.33c-0.62-2.07-1.27-4.13-2.06-6.14C823.61,978.26,821.77,974.34,819.47,970.7z"/>
	<path class="st19" d="M711.68,1098.92c-10.51,13.8-12.72,32.45-5.05,48.01c5.33,10.8,15.39,20.87,33.94,25.44
		c49.47,12.18,111.89,13.42,111.89,13.42l1.15,119.51l26.04,2.98c0,0,77.7-161.04-13.77-192.76l-83.69-4.87l-34.3-4.64
		c0,0-34.32-10.81-34.83-9.2C712.96,1097.15,712.44,1097.92,711.68,1098.92z"/>
	<path class="st18" d="M866.37,1188.97c-1.33-0.24-2.65-0.47-3.96-0.77c-1.31-0.3-2.6-0.66-3.88-1.04c-0.64-0.2-1.29-0.42-1.92-0.65
		c0.66-0.14,1.31-0.33,1.95-0.56c1.27-0.45,2.45-1.09,3.56-1.82c1.07-0.79,2.09-1.64,2.98-2.62c0.89-0.97,1.66-2.04,2.33-3.15
		l-1.32,1.43c-0.47,0.44-0.91,0.91-1.4,1.32c-0.94,0.87-1.99,1.61-3.06,2.27c-1.08,0.66-2.23,1.19-3.42,1.6
		c-1.17,0.4-2.45,0.69-3.62,0.73l-2.15,0.08l1.91,0.89c1.3,0.6,2.59,1,3.91,1.37c1.32,0.37,2.66,0.63,4,0.86
		c1.35,0.22,2.69,0.41,4.05,0.51c1.36,0.1,2.71,0.17,4.07,0.16C869.04,1189.38,867.7,1189.21,866.37,1188.97z"/>
	<path class="st20" d="M2190.13,399.19c-4.58-19.94-22.43-34.82-43.76-34.82c-3.92,0-7.71,0.5-11.33,1.45
		c-10.53-22.52-33.38-38.12-59.87-38.12c-6.85,0-13.46,1.04-19.67,2.98c-14.26-23.62-40.18-39.41-69.78-39.41
		c-35.22,0-65.22,22.35-76.59,53.65c-8.05-4.49-17.31-7.05-27.18-7.05c-30.87,0-55.9,25.03-55.9,55.9c0,1.83,0.09,3.64,0.27,5.42
		H2190.13z"/>
	<g>
		<path class="st13" d="M1934.96,609.09c-0.43-33.34-24.13-61.83-56.84-68.3l-59.05-11.69c-9.33-1.85-17.69-6.98-23.56-14.46
			l-22.85-29.11c-6.26-7.97-15.83-12.63-25.96-12.63h-155.57c-10.13,0-19.71,4.66-25.96,12.63l-22.84,29.11
			c-5.87,7.48-14.23,12.61-23.56,14.46l-59.05,11.69c-32.71,6.47-56.42,34.96-56.84,68.3l-6.91,542.24
			c-0.29,22.78,9.66,44.49,27.12,59.12c34.04,28.52,101.74,68.22,214.44,67.65v33.65c0,19.67,15.94,35.61,35.61,35.61l0,0
			c19.67,0,35.61-15.94,35.61-35.61v-33.69c107.65-1.4,172.82-39.82,206-67.62c17.46-14.63,27.41-36.34,27.12-59.12L1934.96,609.09z
			 M1668.92,507.16c15.94,0,28.86,12.92,28.86,28.86c0,15.94-12.92,28.86-28.86,28.86c-15.94,0-28.86-12.92-28.86-28.86
			C1640.06,520.09,1652.98,507.16,1668.92,507.16z"/>
		<path class="st18" d="M1458.26,663.26c-13.32,1.81-23.29,12.99-23.46,26.32l-5.53,430.06c-0.26,19.83,8.48,38.73,23.81,51.47
			c30.81,25.59,93.01,61.54,197.52,58.76c12.21-0.32,24.43-0.32,36.64,0c104.51,2.77,166.71-33.17,197.52-58.76
			c15.33-12.74,24.07-31.64,23.81-51.47L1903,685.82c-0.17-13.44-10.32-24.7-23.77-26.36
			C1706.46,638.1,1551.33,650.62,1458.26,663.26z"/>
		<path class="st21" d="M1883.3,829.14l-213.94,31.94l-214.4-53.81l-0.14-0.21l-3.73,292.5c-0.23,18.18,7.71,35.5,21.65,47.18
			c28,23.46,84.54,56.4,179.53,53.86c11.1-0.3,22.2-0.3,33.3,0c94.99,2.54,151.53-30.4,179.53-53.86
			c13.94-11.67,21.88-29,21.65-47.18L1883.3,829.14L1883.3,829.14z"/>
		<path class="st22" d="M1454.96,807.28c0,0,182.67,53.17,290.96-7.83c108.29-61,203.54,25.45,78.68,90.27
			C1696.39,956.27,1454.96,807.28,1454.96,807.28z"/>
		<path class="st13" d="M1621.11,916.01H1481.5c-5.91,0-10.7-4.79-10.7-10.7V765.7c0-5.91,4.79-10.7,10.7-10.7h139.61
			c5.91,0,10.7,4.79,10.7,10.7v139.61C1631.81,911.22,1627.02,916.01,1621.11,916.01z"/>
		<path class="st4" d="M1846.39,1126.4h-13.94c-12.2,0-22.09-9.89-22.09-22.09V711.03c0-12.2,9.89-22.09,22.09-22.09h13.94
			c12.2,0,22.09,9.89,22.09,22.09v393.27C1868.48,1116.5,1858.59,1126.4,1846.39,1126.4z"/>
		<rect x="1488.67" y="785.14" class="st23" width="123.88" height="7.43"/>
		<rect x="1488.67" y="811.46" class="st23" width="123.88" height="7.43"/>
		<rect x="1488.67" y="837.79" class="st23" width="123.88" height="7.43"/>
		<rect x="1488.67" y="864.12" class="st23" width="123.88" height="7.43"/>
	</g>
	<path class="st7" d="M1098.09,1139.27c-3.09-0.19-5.37-2.98-5.34-6.07c0.26-24.44,0.8-160.56-20-156.92
		c-22.85,3.99-18.86,188.94-17.77,209.25c1.09,20.31,3.63,118.95,8.7,141.44c5.08,22.48,16.26,499.01,10.52,609.99h214.33
		c0,0-56.57-517.15-44.97-555.59s20.31-65.28,47.87-104.45s23.94-105.17,32.64-124.03c8.7-18.86,29.01-45.33,11.6-53.31
		c-17.41-7.98-49.68,42.79-62.74,91.39c0,0-8.34,13.42-14.51-3.26c-6.17-16.68-17.04-201.27-17.77-215.06
		c-0.73-13.78-7.25-25.39-17.04-24.3c-9.79,1.09-14.14,35.18-15.23,91.03c-1.09,55.85,1.88,101.18-10.12,99.01
		c-12-2.18-6.56-176.25-15.99-205.63s-27.92-9.07-27.56,26.47c0.36,35.54,5.8,174.08-5.44,172.62
		c-11.24-1.45-5.8-192.57-25.39-190.76c-20.24,1.87-20.31,31.55-20.31,82.32C1103.58,1069.75,1114.15,1140.24,1098.09,1139.27z"/>
	<path class="st15" d="M1076.39,1169.21c0,0,90.3-28.29,158.3-3.81C1234.69,1165.41,1152.54,1158.88,1076.39,1169.21z"/>
	<path class="st15" d="M1079.29,1219.99c0,0,78.33,68.18,93.93,101.91c0,0,42.07-76.88,76.16-104.45c0,0-51.86,22.49-75.07,64.55
		C1174.3,1282,1130.42,1235.58,1079.29,1219.99z"/>
	<path class="st15" d="M1079.29,1332.05c0,0,6.53,42.79,70.35,36.63C1149.64,1368.67,1097.73,1359.7,1079.29,1332.05z"/>
	<path class="st18" d="M1219.22,1500.32h-109.77c-7.84,0-14.2,6.36-14.2,14.2v109.77c0,7.84,6.36,14.2,14.2,14.2h40.69v47.79
		c0,7.84,6.36,14.2,14.2,14.2l0,0c7.84,0,14.2-6.36,14.2-14.2v-47.79h40.69c7.84,0,14.2-6.36,14.2-14.2v-109.77
		C1233.42,1506.68,1227.06,1500.32,1219.22,1500.32z"/>
	<path class="st24" d="M1200.93,1613.71h-73.2c-4.25,0-7.7-3.45-7.7-7.7v-73.2c0-4.25,3.45-7.7,7.7-7.7h73.2
		c4.25,0,7.7,3.45,7.7,7.7v73.2C1208.63,1610.27,1205.19,1613.71,1200.93,1613.71z"/>
	<g>
		<rect x="1340.89" y="1447.98" class="st25" width="75.42" height="462.63"/>
		<path class="st26" d="M1423.5,1487.85h-89.8c-3.99,0-7.22-3.23-7.22-7.22v-52.33c0-3.99,3.23-7.22,7.22-7.22h89.8
			c3.99,0,7.22,3.23,7.22,7.22v52.33C1430.72,1484.62,1427.49,1487.85,1423.5,1487.85z"/>
		<rect x="1336.97" y="1421.08" class="st27" width="11.98" height="66.54"/>
		<rect x="1360.73" y="1421.08" class="st27" width="11.98" height="66.54"/>
		<rect x="1384.49" y="1421.08" class="st27" width="11.98" height="66.54"/>
		<rect x="1408.26" y="1421.08" class="st27" width="11.98" height="66.54"/>
		<path class="st27" d="M1397.42,1508.87h-37.63c-5.99,0-10.84-4.85-10.84-10.84v-10.42h59.31v10.42
			C1408.26,1504.02,1403.4,1508.87,1397.42,1508.87z"/>
		<polygon class="st21" points="1408.41,1910.61 1348.79,1910.61 1348.79,1664.88 1374.18,1674.25 1408.41,1664.88 		"/>
		<path class="st22" d="M1348.79,1664.88c0,0,25.93,7.75,41.3-1.14s26.81,0.32,11.17,13.15
			C1385.17,1690.1,1348.79,1664.88,1348.79,1664.88z"/>
		<path class="st28" d="M1362.99,1904.36h-4.52c-2.01,0-3.63-1.63-3.63-3.63v-398.85c0-2.01,1.63-3.63,3.63-3.63h4.52
			c2.01,0,3.63,1.63,3.63,3.63v398.85C1366.62,1902.74,1364.99,1904.36,1362.99,1904.36z"/>
		<rect x="1471.22" y="1447.98" class="st25" width="75.42" height="462.63"/>
		<path class="st26" d="M1553.83,1487.85h-89.8c-3.99,0-7.22-3.23-7.22-7.22v-52.33c0-3.99,3.23-7.22,7.22-7.22h89.8
			c3.99,0,7.22,3.23,7.22,7.22v52.33C1561.06,1484.62,1557.82,1487.85,1553.83,1487.85z"/>
		<rect x="1467.3" y="1421.08" class="st27" width="11.98" height="66.54"/>
		<rect x="1491.06" y="1421.08" class="st27" width="11.98" height="66.54"/>
		<rect x="1514.83" y="1421.08" class="st27" width="11.98" height="66.54"/>
		<rect x="1538.59" y="1421.08" class="st27" width="11.98" height="66.54"/>
		<path class="st27" d="M1527.75,1508.87h-37.63c-5.99,0-10.84-4.85-10.84-10.84v-10.42h59.31v10.42
			C1538.59,1504.02,1533.73,1508.87,1527.75,1508.87z"/>
		<polygon class="st21" points="1538.74,1910.61 1479.13,1910.61 1479.13,1664.88 1504.51,1674.25 1538.74,1664.88 		"/>
		<path class="st22" d="M1479.13,1664.88c0,0,25.93,7.75,41.3-1.14s26.81,0.32,11.17,13.15
			C1515.5,1690.1,1479.13,1664.88,1479.13,1664.88z"/>
		<path class="st28" d="M1493.32,1904.36h-4.52c-2.01,0-3.63-1.63-3.63-3.63v-398.85c0-2.01,1.63-3.63,3.63-3.63h4.52
			c2.01,0,3.63,1.63,3.63,3.63v398.85C1496.95,1902.74,1495.33,1904.36,1493.32,1904.36z"/>
		<rect x="1601.56" y="1447.98" class="st25" width="75.42" height="462.63"/>
		<path class="st26" d="M1684.16,1487.85h-89.8c-3.99,0-7.22-3.23-7.22-7.22v-52.33c0-3.99,3.23-7.22,7.22-7.22h89.8
			c3.99,0,7.22,3.23,7.22,7.22v52.33C1691.39,1484.62,1688.15,1487.85,1684.16,1487.85z"/>
		<rect x="1597.63" y="1421.08" class="st27" width="11.98" height="66.54"/>
		<rect x="1621.39" y="1421.08" class="st27" width="11.98" height="66.54"/>
		<rect x="1645.16" y="1421.08" class="st27" width="11.98" height="66.54"/>
		<rect x="1668.92" y="1421.08" class="st27" width="11.98" height="66.54"/>
		<path class="st27" d="M1658.08,1508.87h-37.63c-5.99,0-10.84-4.85-10.84-10.84v-10.42h59.31v10.42
			C1668.92,1504.02,1664.07,1508.87,1658.08,1508.87z"/>
		<polygon class="st21" points="1669.07,1910.61 1609.46,1910.61 1609.46,1664.88 1634.84,1674.25 1669.07,1664.88 		"/>
		<path class="st22" d="M1609.46,1664.88c0,0,25.93,7.75,41.31-1.14s26.81,0.32,11.17,13.15
			C1645.83,1690.1,1609.46,1664.88,1609.46,1664.88z"/>
		<path class="st28" d="M1623.65,1904.36h-4.51c-2.01,0-3.63-1.63-3.63-3.63v-398.85c0-2.01,1.63-3.63,3.63-3.63h4.51
			c2.01,0,3.63,1.63,3.63,3.63v398.85C1627.28,1902.74,1625.66,1904.36,1623.65,1904.36z"/>
	</g>
	<path class="st29" d="M1782.04,1605.07c6.57,0,11.89-5.32,11.89-11.89v-30.27c0-6.57-5.32-11.89-11.89-11.89h-546.22
		c-6.57,0-11.89,5.32-11.89,11.89v30.27c0,6.57,5.32,11.89,11.89,11.89h39.99v299.29h-43.12c-4.84,0-8.77,3.93-8.77,8.77v15.61
		c0,4.84,3.93,8.77,8.77,8.77h552.46c4.84,0,8.77-3.93,8.77-8.77v-15.61c0-4.84-3.93-8.77-8.77-8.77h-43.12v-299.29H1782.04z
		 M1721.15,1904.36h-424.44v-299.29h424.44V1904.36z"/>
	<path class="st13" d="M1845.51,1643.83c-4.76-53.42-33.61-100.19-59.09-141.51c-12.46-20.21-25.35-41.1-39.09-61.13
		c-3.86-5.62-7.86-11.3-11.73-16.8c-23.05-32.73-46.88-66.58-52.23-104.58l-24.24,3.41c6.17,43.85,31.73,80.16,56.45,115.26
		c3.83,5.44,7.79,11.06,11.56,16.56c13.4,19.53,26.13,40.17,38.47,60.18c24.03,38.96,51.26,83.12,55.51,130.78
		c2.84,31.88-5.58,62.24-23.09,83.31c-22.69,27.29-62.03,42.5-120.27,46.48c-17.68,1.21-36.5,1.74-54.33-2.49
		c-9.47-2.25-18.68-5.83-28.43-9.63c-3.5-1.36-7.12-2.77-10.75-4.11c-42.56-15.72-81.63-19.69-116.13-11.82
		c-31.99,7.3-59.63,24.59-86.35,41.31c-6.97,4.36-14.18,8.87-21.27,13.06c-40.71,24.09-74.04,32.38-101.93,25.33
		c-25.61-6.47-49.04-27.06-64.27-56.49c-13.66-26.39-12.4-47.91-17.26-78.35c-2.33,4.67-7.13,7.88-12.7,7.88
		c-3.39,0-6.49-1.19-8.94-3.17c1.09,18.08,4.91,61.23,17.15,84.89c18.45,35.64,47.61,60.78,80.02,68.97
		c8.37,2.11,17.03,3.18,26.01,3.18c28.01,0,59.15-10.32,94.39-31.18c7.34-4.35,14.68-8.94,21.78-13.38
		c26.16-16.36,50.87-31.81,78.82-38.2c29.79-6.8,64.17-3.13,102.2,10.92c3.43,1.27,6.95,2.64,10.35,3.96
		c10.1,3.93,20.54,7.99,31.65,10.63c21.07,5,43,4.38,61.67,3.1c65.27-4.46,110.22-22.54,137.42-55.25
		C1838.48,1718.95,1848.92,1682.09,1845.51,1643.83z"/>
	<path class="st21" d="M1838.8,1644.42c-4.62-51.84-33.02-97.89-58.11-138.57c-12.42-20.14-25.26-40.96-38.91-60.85
		c-3.83-5.58-7.82-11.25-11.68-16.74c-23.51-33.38-47.82-67.91-53.39-107.52l-10.91,1.54c5.94,42.25,31.03,77.87,55.29,112.33
		c3.84,5.46,7.81,11.1,11.61,16.63c13.5,19.67,26.27,40.38,38.65,60.45c24.42,39.59,52.09,84.47,56.48,133.72
		c3,33.63-5.98,65.79-24.62,88.21c-23.93,28.78-64.81,44.78-124.99,48.89c-18.21,1.25-37.64,1.78-56.35-2.66
		c-9.92-2.36-19.78-6.2-29.32-9.91c-3.47-1.35-7.06-2.75-10.64-4.07c-41.32-15.26-79.1-19.15-112.3-11.57
		c-30.88,7.05-58.03,24.03-84.28,40.45c-7.01,4.38-14.25,8.91-21.41,13.15c-42.31,25.04-77.32,33.57-107.01,26.07
		c-27.48-6.94-52.49-28.78-68.6-59.92c-13.6-26.27-11.76-46.85-15.98-76.03c-2.28,1.55-5.03,2.47-8,2.47c-0.96,0-1.9-0.1-2.81-0.28
		c4.35,29.95,2.76,51.38,17.01,78.91c17.56,33.93,45.15,57.82,75.69,65.54c7.82,1.97,15.93,2.97,24.36,2.97
		c26.78,0,56.79-10.01,90.96-30.24c7.27-4.3,14.58-8.87,21.64-13.29c25.48-15.94,51.83-32.41,80.9-39.05
		c31.08-7.1,66.75-3.34,106.03,11.17c3.48,1.29,7.03,2.67,10.46,4c9.88,3.85,20.1,7.83,30.77,10.36
		c20.15,4.79,40.57,4.24,59.65,2.93c63.34-4.33,106.75-21.62,132.71-52.84C1832.17,1716.01,1842.06,1680.93,1838.8,1644.42z"/>
	<polygon class="st7" points="1965.33,1895.83 1964.78,1911.78 1989.78,1910.56 1995.67,1891.06 	"/>
	<polygon class="st7" points="2122.78,1871.74 2140.91,1898.87 2160.49,1883.27 2153.87,1864 	"/>
	<g>
		<path class="st13" d="M2131.37,1936.77l46.29-33.53c1.43-1.04,1.75-3.04,0.71-4.47l0,0c-1.04-1.43-3.04-1.75-4.47-0.71
			l-46.29,33.53c-1.43,1.04-1.75,3.04-0.71,4.47l0,0C2127.94,1937.48,2129.94,1937.8,2131.37,1936.77z"/>
		<path class="st6" d="M2162.73,1882.15l12.14,13.17c1.5,1.62,1.67,3.96,0.37,4.9l-45.35,32.85c-1.18,0.85-2.87,0.96-4.5,0.03
			c-1.66-0.96-3.33-3-3.38-7.34c-0.1-8.59,11.98-19.52,15.11-29.07c0.06-0.2,0.18-0.36,0.35-0.48l20.87-15.12
			C2159.52,1880.23,2161.38,1880.68,2162.73,1882.15z"/>
		<g>
			<path class="st13" d="M2146.48,1902.43L2146.48,1902.43c0.18-0.44-0.1-1.08-0.59-1.36c-2.32-1.33-8.58-4.12-13.53,0.97
				c-0.29,0.29-0.19,0.89,0.19,1.3l0.01,0.01c0.37,0.39,0.87,0.47,1.15,0.18c4.45-4.54,9.88-2.02,11.8-0.89
				C2145.91,1902.89,2146.33,1902.8,2146.48,1902.43z"/>
		</g>
		<g>
			<path class="st13" d="M2143.12,1907.7L2143.12,1907.7c0.18-0.44-0.1-1.08-0.59-1.36c-2.32-1.33-8.58-4.12-13.53,0.97
				c-0.29,0.29-0.19,0.89,0.19,1.3l0.01,0.01c0.37,0.39,0.87,0.47,1.15,0.18c4.45-4.54,9.88-2.02,11.8-0.89
				C2142.55,1908.15,2142.96,1908.06,2143.12,1907.7z"/>
		</g>
		<g>
			<path class="st13" d="M2139.99,1912.6L2139.99,1912.6c0.18-0.44-0.1-1.08-0.59-1.36c-2.32-1.33-8.58-4.12-13.53,0.97
				c-0.29,0.29-0.19,0.89,0.19,1.3l0.01,0.01c0.37,0.39,0.87,0.47,1.15,0.18c4.45-4.54,9.88-2.02,11.8-0.89
				C2139.42,1913.06,2139.84,1912.97,2139.99,1912.6z"/>
		</g>
	</g>
	<path class="st21" d="M1676.71,1320.74c0,0-5.99-74.28,4.19-158.42c10.19-84.14-23.76,6.89-23.76,6.89s-0.73,118.17,8.66,153.06
		C1675.19,1357.17,1676.71,1320.74,1676.71,1320.74z"/>
	<path class="st6" d="M2081.13,1270.74c0.94,0.52,1.84,1.12,2.6,1.87c2.57,2.53,3.33,6.55,6.1,8.87c1.38,1.16,3.12,1.77,4.73,2.57
		c2.2,1.09,4.3,2.71,5.16,5c0.49,1.3,0.54,2.72,0.59,4.1c0.08,2.51,0.16,5.08-0.58,7.48c-0.43,1.39-1.14,2.7-1.49,4.12
		c-0.7,2.81,0.05,5.79-0.38,8.65c-0.33,2.16-1.31,4.15-2.28,6.11c-0.51,1.02-1.03,2.07-1.81,2.9c-2.01,2.13-5.28,2.44-8.19,2.16
		c-2.91-0.28-5.86-1.01-8.73-0.46c-2.41,0.46-4.54,1.79-6.79,2.77c-3.44,1.5-7.23,2.2-10.98,2.02c-1.05-0.05-2.13-0.18-3.05-0.7
		c-0.95-0.54-1.63-1.44-2.28-2.32c-3.58-4.84-7.19-9.74-9.64-15.24c-2.45-5.5-3.67-11.75-2.27-17.6c1.05-4.38,3.52-8.32,6.5-11.69
		c2.99-3.37,6.5-6.23,9.99-9.07C2064.34,1267.36,2074.33,1266.97,2081.13,1270.74z"/>
	<path class="st7" d="M1981.92,1482.7l6.63-28.5l-27.06-20.35c0,0-4.68,33.98-7.04,47.63l-54.67,0.96l-10.49,1.98
		c0,0,72.9,30.53,77.54,21.16c1.31-2.64,5.22-6.45,8.95-10.92c1.94,0.48,3.17,0.77,3.17,0.77l1.76-7.58
		c0.99-1.67,1.8-3.39,2.34-5.14L1981.92,1482.7z"/>
	<path class="st30" d="M2003.96,1351.98c0,0-34.94,13.79-48.47,86.07c0,0,8.74,11.84,28.26,13.15s13.57-46.42,13.57-46.42
		L2003.96,1351.98z"/>
	<polygon class="st7" points="2045.16,1328.25 2043.83,1349.2 2015.28,1355.13 2010.24,1355.13 2011.29,1330.04 2041.57,1319.34 	
		"/>
	<path class="st7" d="M2000.38,1361.79c-1.29,14.07,4.53,16.69,4.53,16.69l43.11-32c-26.76,2.62-44.06,5.5-44.06,5.5
		S2001.74,1362.17,2000.38,1361.79z"/>
	<path class="st6" d="M2071.91,1282.7c0,0,8.8-36.11-12.17-49.64c-20.97-13.53-43.19-12.02-58.32-3.92
		c-15.14,8.1-24.2,36.36-17.41,52.5l50.24-15.42L2071.91,1282.7z"/>
	<path class="st7" d="M1895.11,1463.83c-5.01-2.17-8.67-4.4-10.09-6.62l-1.61-4.18c-2-5.23-5.03-7.52-6.93-6.5l-0.32,0.26
		c0,0,1.27,8.46,2.31,15.39l-4.35-0.65l-2.3,26.36l20.72-2.79L1895.11,1463.83z"/>
	<path class="st11" d="M2053.79,1527.3l-20.73,181.33c0,0-19.65,155.17-35.53,189.68h-35.2l7.66-346.79l62.04-39L2053.79,1527.3z"/>
	<path class="st15" d="M2045.77,1322.78c0,0-0.61,6.08-1.13,13.65c-10.86,11.89-31.21,7.81-33.89,6.66c0.16-3.81,0-11.52,0-11.52
		L2045.77,1322.78z"/>
	<path class="st19" d="M2070.34,1509.76c0,0,39.34,50.73,30.02,131.47c-9.32,80.75-7.25,109.73-7.25,109.73
		s50.72,46.58,66.25,113.87c0,0-22.26,15.53-37.27,18.12c0,0-74.54-113.87-80.23-127.33c-5.69-13.46-41.11-225.05-41.11-225.05
		L2070.34,1509.76z"/>
	<path class="st15" d="M1990.54,1288.03c1.79,4.86,0.09,9.96-3.8,11.39s-8.49-1.35-10.28-6.21c-1.79-4.86-0.09-9.96,3.8-11.39
		S1988.75,1283.17,1990.54,1288.03z"/>
	<path class="st7" d="M1990.95,1316.11c-1.12-2.11-2.05-4.34-2.78-6.66c-2.08-6.24-3.02-12.83-3.37-18.56
		c-0.08-1.23-0.22-2.45-0.4-3.67c-0.69-4.92-0.49-10.11,0.84-15.41c4.29-17.05,19.56-29.47,37.12-30.17
		c23.66-0.94,42.53,18.36,41.74,41.4c2.55-1.31,5.38-1.53,7.81-0.34c4.68,2.29,6.15,8.88,3.3,14.72c-2.86,5.85-8.96,8.73-13.64,6.45
		c-0.65-0.32-1.23-0.73-1.75-1.2c-2.67,19.53-19.25,34.11-38.5,33.13c-9.41-0.48-17.81-4.6-24.02-10.99
		c-0.42-0.37-0.85-0.81-1.31-1.32C1993.98,1321.28,1992.32,1318.78,1990.95,1316.11z"/>
	<path class="st6" d="M2026.97,1288.54c-0.11,2.08,1.49,3.84,3.57,3.95c2.08,0.11,3.84-1.49,3.95-3.57
		c0.11-2.08-1.49-3.84-3.57-3.95C2028.84,1284.87,2027.08,1286.46,2026.97,1288.54z"/>
	<path class="st6" d="M1993.56,1288.54c-0.11,2.08,1.49,3.84,3.57,3.95c2.08,0.11,3.84-1.49,3.95-3.57s-1.49-3.84-3.57-3.95
		C1995.44,1284.87,1993.67,1286.46,1993.56,1288.54z"/>
	<path class="st6" d="M2023.8,1282.27c1.71-0.91,3.49-1.58,5.3-2.03c1.81-0.43,3.67-0.59,5.49-0.42c0.91,0.08,1.81,0.26,2.69,0.51
		c0.45,0.11,0.88,0.28,1.31,0.43c0.22,0.08,0.43,0.18,0.64,0.26c0.21,0.09,0.43,0.17,0.64,0.28c1.68,0.8,3.26,1.85,4.81,3.02
		c-1.15-1.56-2.62-2.91-4.32-3.95c-0.85-0.52-1.76-0.95-2.71-1.27c-0.95-0.32-1.94-0.54-2.95-0.63c-2.01-0.19-4.04,0.08-5.91,0.76
		c-0.94,0.33-1.83,0.76-2.68,1.26C2025.29,1281,2024.49,1281.57,2023.8,1282.27z"/>
	<path class="st6" d="M2008.64,1282.27c-0.68-0.7-1.49-1.27-2.32-1.78c-0.85-0.5-1.74-0.93-2.68-1.26c-1.87-0.67-3.9-0.94-5.91-0.76
		c-1,0.09-1.99,0.31-2.95,0.63c-0.96,0.31-1.86,0.75-2.71,1.27c-1.7,1.03-3.17,2.38-4.32,3.95c1.55-1.17,3.13-2.22,4.81-3.02
		c0.21-0.11,0.42-0.19,0.64-0.28c0.22-0.09,0.42-0.19,0.64-0.26c0.44-0.15,0.87-0.32,1.31-0.43c0.88-0.25,1.78-0.43,2.69-0.51
		c1.82-0.17,3.67-0.01,5.49,0.42C2005.15,1280.68,2006.93,1281.36,2008.64,1282.27z"/>
	<path class="st13" d="M2094.62,1408.74c-0.91-0.95-1.77-2.01-2.55-3.1c-0.78-1.1-1.53-2.23-2.17-3.41
		c-0.67-1.17-1.27-2.39-1.78-3.65c-0.54-1.25-0.94-2.55-1.35-3.86c0.18,1.36,0.44,2.72,0.87,4.04c0.19,0.67,0.45,1.31,0.69,1.96
		c0.28,0.63,0.54,1.28,0.86,1.89c0.62,1.24,1.32,2.44,2.13,3.57c0.64,0.92,1.32,1.79,2.09,2.62c-0.69,0.14-1.42,0.23-2.13,0.26
		c-0.99,0.05-1.99,0.01-2.97-0.14c-0.5-0.06-0.98-0.18-1.47-0.28c-0.48-0.14-0.97-0.26-1.43-0.45c-0.96-0.32-1.84-0.81-2.74-1.31
		c0.79,0.65,1.63,1.26,2.57,1.69c0.92,0.47,1.92,0.8,2.94,1.02c1.02,0.22,2.07,0.33,3.12,0.31c1.05-0.01,2.08-0.12,3.14-0.39
		l0.75-0.2L2094.62,1408.74z"/>
	<path class="st15" d="M2013.05,1286.81c-1.06,1.71-1.96,3.5-2.78,5.33c-0.82,1.83-1.54,3.71-2.1,5.66
		c-0.26,0.98-0.49,1.98-0.56,3.06c-0.01,0.27-0.01,0.55,0.03,0.84c0.02,0.15,0.06,0.3,0.09,0.45c0.06,0.16,0.1,0.32,0.22,0.49
		c0.06,0.08,0.12,0.16,0.19,0.24l0.16,0.14c0.11,0.09,0.21,0.18,0.31,0.26c0.22,0.15,0.44,0.31,0.66,0.44
		c0.89,0.55,1.84,0.94,2.79,1.27c0.96,0.32,1.93,0.6,2.92,0.77c-1.81-0.86-3.63-1.71-5.18-2.83c-0.2-0.14-0.37-0.29-0.55-0.44
		l-0.25-0.23l-0.12-0.12c-0.01-0.02-0.02-0.04-0.03-0.06c-0.12-0.2-0.13-0.7-0.09-1.13c0.09-0.91,0.32-1.87,0.59-2.8
		c0.52-1.89,1.17-3.76,1.8-5.64C2011.81,1290.61,2012.46,1288.72,2013.05,1286.81z"/>
	<path class="st17" d="M2087.8,1468.48C2087.8,1468.47,2087.8,1468.47,2087.8,1468.48c5.13-28.54,7.33-59.17,7.33-59.17
		c0.29-7.06,0.2-13.31-0.17-18.84c-7.15-5.82-17.12-14.07-17.12-14.07l-17.05-29.05c0,0,0.01-0.01,0.01-0.02
		c-6.48-0.6-13.35-0.88-13.35-0.88l-42.55,32.02l-0.95-26.5c-0.21,0.16-0.43,0.32-0.63,0.49c-18.39,15.02-30.32,36.72-32.89,60.59
		c-1.82,16.84-1.6,34.79-0.58,50.83l0,0c0,0-7.27,92.87-10.77,107.71c0,0,96.45,9.6,147.95,0
		C2107.03,1571.6,2087.33,1508.94,2087.8,1468.48z"/>
	<g>
		<path class="st6" d="M1964.1,1541.88l-73.78,4.45c-4.66,0.28-9.83-2.71-11.54-6.67l-38.81-89.81c-1.71-3.97,0.67-7.41,5.33-7.69
			l73.78-4.45c4.66-0.28,9.83,2.71,11.54,6.67l38.81,89.81C1971.15,1538.16,1968.76,1541.6,1964.1,1541.88z"/>
		<path class="st31" d="M1897.24,1443.54l-25.12,1.51c-2.01,0.12-4.25-1.17-4.99-2.88l-0.7-1.61c-0.74-1.71,0.29-3.2,2.3-3.32
			l25.12-1.51c2.01-0.12,4.25,1.17,4.99,2.88l0.7,1.61C1900.28,1441.93,1899.25,1443.42,1897.24,1443.54z"/>
	</g>
	<path class="st7" d="M1869.78,1518.93l-0.31,0.14c-1.86,0.82-4.04,0.11-5.05-1.66l-11.56-20.08c-0.58-0.97-0.55-2.18,0.08-3.12
		c1.96-2.92,6.17-8.93,7.61-8.71c1.9,0.29-3.9,10.27-3.11,10.48c0.79,0.2,8.99-6.45,9.69-5.36c0.62,0.97-6.6,8.71-6.27,9.31
		s8.67-4.24,9.57-3.37c0.81,0.78-7.04,7.04-6.93,7.47L1869.78,1518.93z"/>
	<path class="st7" d="M1936.11,1542.11c0.08-1.4,11.8-10.23,11.13-10.85c-0.67-0.62-13.73,7.2-14.68,5.4
		c-0.95-1.81,13.65-9.9,12.31-11.02c-1.34-1.13-16.09,7.54-16.69,5.75c-0.5-1.5,15.75-11.6,20.94-14.77c0.67-0.41,0.61-1.4-0.1-1.73
		c-10.92-5.15-11.46-6.18-10.62-7.25c0.6-0.76,11.48,0.63,21.74,1.35l12.45,1.19c3.5-0.83,108.07-25.53,113.77-32.39
		c5.8-6.98-9.76-44.69-9.76-44.69l33.96-14.58c0,0,15.55,61.86,0.57,80.93c-8.07,10.27-137.94,28.61-137.94,28.61
		c-2.05,1.58-7.64,5.34-7.64,5.34c-22.67,14.43-20.13,13.33-20.79,12.59c-0.66-0.74,6.95-9.33,5.93-9.85
		C1949.68,1535.6,1936.03,1543.51,1936.11,1542.11z"/>
	<path class="st17" d="M2060.8,1347.36c0,0,38.04,14.4,62.13,70.41c0,0-11.82,26.14-50.97,27.03L2060.8,1347.36z"/>
	<path class="st32" d="M2122.93,1417.77c-2.58,4.33-5.97,8.08-9.79,11.25c-3.78,3.23-8,5.88-12.46,8.02
		c-4.54,1.95-9.19,3.68-14.04,4.68c-2.39,0.63-4.88,0.82-7.31,1.25c-2.46,0.25-4.94,0.36-7.41,0.55l1.29,0.98
		c-1.25-4.96-2.66-9.83-4.17-14.69c-1.54-4.85-3.12-9.69-5.03-14.41c-1.87-4.74-3.97-9.39-6.35-13.9c-2.48-4.42-5.2-8.9-9.11-12.19
		c3.49,3.7,5.9,8.19,7.98,12.76c2.13,4.56,4,9.24,5.63,14.02c1.6,4.78,3.24,9.55,4.65,14.4c1.42,4.84,2.74,9.73,3.92,14.61
		l0.26,1.08l1.03-0.09c2.54-0.23,5.09-0.39,7.62-0.69c2.51-0.48,5.06-0.72,7.53-1.41c2.48-0.62,4.96-1.24,7.35-2.17
		c2.45-0.75,4.73-1.95,7.04-3.02c4.5-2.42,8.74-5.34,12.43-8.85C2117.59,1426.39,2120.85,1422.38,2122.93,1417.77z"/>
	<path class="st7" d="M1862.92,1504.27c0,0,8.35-2.54,9.08-1.6s-9.12,6.26-9.08,6.01
		C1862.96,1508.44,1862.92,1504.27,1862.92,1504.27z"/>
	<path class="st6" d="M2069.17,1277.72l-0.94-0.11l-0.63-7.84l-3.5-7.25c0,0-13.72-19.48-14.21-19.97
		c-0.48-0.48-10.95-6.76-11.59-7.08c-0.64-0.32-15.3,2.09-15.3,2.09s-25.78-5.55-21.42,8.86c4.36,14.4,23.19,21.9,24.15,21.25
		c-3.06-3.22-3.38-12.4-3.38-12.4c14.49,16.75,41.74,27.76,41.74,27.76s2.86-2.18,7.81-0.34L2069.17,1277.72z"/>
	<path class="st13" d="M2004.7,1311.68c1,4.45,5.31,7.75,10.42,7.66c5.11-0.09,9.29-3.54,10.13-8.01L2004.7,1311.68z"/>
	<g>
		<g>
			<path class="st12" d="M750.51,1623.46h-17.37v-46.01c0-11.6-9.44-21.03-21.03-21.03h-173.4c-11.6,0-21.03,9.44-21.03,21.03v46.01
				h-17.37v-46.01c0-21.17,17.23-38.4,38.4-38.4h173.4c21.18,0,38.4,17.23,38.4,38.4V1623.46z"/>
		</g>
		<path class="st19" d="M532.28,1618.58h-46.57v-3.9c0-5.1,4.14-9.24,9.24-9.24h28.1c5.1,0,9.24,4.14,9.24,9.24V1618.58z"/>
		<path class="st19" d="M765.11,1618.58h-46.57v-3.9c0-5.1,4.14-9.24,9.24-9.24h28.1c5.1,0,9.24,4.14,9.24,9.24V1618.58z"/>
		<path class="st26" d="M807.06,1937.04H434.57c-13.78,0-24.95-11.17-24.95-24.95v-268.56c0-13.78,11.17-24.95,24.95-24.95h372.49
			c13.78,0,24.95,11.17,24.95,24.95v268.56C832.01,1925.87,820.84,1937.04,807.06,1937.04z"/>
		<rect x="479.21" y="1618.58" class="st27" width="59.55" height="318.46"/>
		<rect x="712.04" y="1618.58" class="st27" width="59.55" height="318.46"/>
		<polygon class="st13" points="684.97,1762.08 641.14,1762.08 641.14,1718.25 609.67,1718.25 609.67,1762.08 565.85,1762.08 
			565.85,1793.55 609.67,1793.55 609.67,1837.37 641.14,1837.37 641.14,1793.55 684.97,1793.55 		"/>
	</g>
	<path class="st6" d="M761.95,880.26c0,0,30.11-10.63,49.59-32.74c0,0,14.44,19.85,24.33,22.69c0,0,0.89-31.64-31.66-35.98
		C771.67,829.89,754.74,855.22,761.95,880.26z"/>
	<path class="st4" d="M2282.76,430.19c-10.25-44.41-28.12-86.7-51.99-125.36c-33.51-1.09-67.06-0.92-100.56,0.53
		c-18.68,0.81-37.79,1.96-55.69-3.44c-17.9-5.39-34.66-18.91-38.11-37.29c-2.05-10.89,0.14-23.79-7.68-31.65
		c-4.13-4.15-10.11-5.72-15.79-7.13c-25.82-6.4-52.08-12.84-78.65-11.63c-55.16,2.52-115.65,36.39-161.17,5.14
		c-19.86-13.64-31.22-38.71-28.38-62.63c2.84-23.92,19.76-45.63,42.27-54.24c37.87-14.48,85.27,6.18,121.27-6
		c-124.7-14.13-251.74,24.4-364.7,80.77c-13.11,6.54-26.08,13.33-38.95,20.31c1.29,17.57,14.65,33.64,30.76,41.87
		c18.6,9.5,40.14,10.86,61,12.04c23.32,1.32,46.64,2.64,69.96,3.96c8.04,0.46,17.05,1.38,22.18,7.59c6.67,8.07,3.1,20.01,3.65,30.47
		c1,19,17.09,34.49,35.03,40.82c17.94,6.33,37.51,5.38,56.51,4.35c35.88-1.94,71.76-3.88,107.64-5.81
		c11.87-0.64,24.51-1.11,34.8,4.84c7.79,4.51,13.17,12.11,18.8,19.13c48.41,60.36,127.74,87.6,204.62,96.33
		c46.03,5.22,92.44,4.89,138.8,5.28C2286.76,448.98,2284.92,439.56,2282.76,430.19z"/>
	<path class="st22" d="M1012.31,810.1l-23.21-42.61l-23.21,42.61c0,0-51.3,95.34-34.81,136c0.16,0.41,0.33,0.81,0.5,1.21
		c21.61,50.76,93.43,50.76,115.04,0c0.17-0.4,0.34-0.8,0.5-1.21C1063.61,905.44,1012.31,810.1,1012.31,810.1z"/>
	<path class="st21" d="M989.1,767.49l-23.21,42.61c0,0-42.7,79.37-37.66,124.15c29.53,28.78,82.91,21.9,101.03-20.65
		c0.17-0.4,0.34-0.8,0.5-1.21c11.83-29.17-11.23-86.48-25.21-116.54L989.1,767.49z"/>
	<path class="st13" d="M1076.41,827.66c-3.16,2.69-6.2,5.47-9.18,8.3c-5.94,5.67-11.57,11.59-16.99,17.66
		c-5.4,6.09-10.58,12.36-15.55,18.78c-3.38,4.36-6.66,8.8-9.84,13.31l-2.38-1.89c-1.57-1.23-3.18-2.42-4.77-3.63
		c-1.6-1.2-3.24-2.36-4.86-3.54c-3.29-2.31-6.6-4.6-10.04-6.75c-3.44-2.16-6.92-4.27-10.63-6.14c2,3.65,4.23,7.05,6.51,10.41
		c2.27,3.36,4.67,6.59,7.1,9.8c1.24,1.58,2.45,3.18,3.71,4.73c1.27,1.55,2.51,3.11,3.8,4.64l3.88,4.56l3.96,4.47l5.29,5.97
		l6.07-6.77c5.44-6.06,10.63-12.32,15.63-18.72c5-6.4,9.8-12.96,14.37-19.7c4.55-6.75,8.9-13.66,12.93-20.81
		c2.01-3.58,3.96-7.21,5.78-10.94c1.82-3.73,3.59-7.5,5.08-11.48C1082.8,822.34,1079.57,824.98,1076.41,827.66z"/>
	<path class="st20" d="M929.95,716.41c-3.28-14.27-16.05-24.92-31.32-24.92c-2.8,0-5.52,0.36-8.11,1.04
		c-7.54-16.12-23.89-27.28-42.86-27.28c-4.9,0-9.63,0.75-14.08,2.13c-10.21-16.91-28.76-28.21-49.95-28.21
		c-25.21,0-46.69,16-54.82,38.4c-5.76-3.21-12.39-5.05-19.45-5.05c-22.1,0-40.01,17.91-40.01,40.01c0,1.31,0.07,2.6,0.19,3.88
		H929.95z"/>
	<path class="st20" d="M1432.46,462.02c-2.67-11.61-13.06-20.27-25.47-20.27c-2.28,0-4.49,0.29-6.6,0.84
		c-6.13-13.11-19.43-22.19-34.86-22.19c-3.99,0-7.83,0.61-11.45,1.73c-8.3-13.75-23.39-22.94-40.63-22.94
		c-20.5,0-37.97,13.01-44.59,31.23c-4.68-2.61-10.08-4.11-15.82-4.11c-17.97,0-32.54,14.57-32.54,32.54c0,1.07,0.05,2.12,0.16,3.16
		H1432.46z"/>
	<path class="st1" d="M272.54,1915.51c4.04,3.93,7.44,11.7,11.03,19.93c2.92,6.68,6.05,13.85,10.23,20.92h106.14
		c-2.88-1.8-5.83-3.5-8.86-5.04c-6.86-3.5-13.82-6.21-19.97-8.61c-9.07-3.54-17.64-6.88-22.02-11.26c-4-4-7.35-11.69-10.91-19.83
		c-5.2-11.92-11.68-26.77-24.15-38.86c-16.84-16.33-38.25-21.79-55.45-26.18c-12.04-3.07-23.4-5.97-28.72-11.31
		c-2.86-2.88-5.75-8.26-8.81-13.96c-1.93-3.59-3.92-7.31-6.28-11.18c-19.52-31.99-53.3-54.43-90.35-60.03
		c-2.1-0.32-4.06-0.56-5.96-0.8c-3.05-0.38-31.13-6.11-40.49,0.32l0,0c-17.6,12.09-16.97,38.5,1.41,49.37
		c2.11,1.25,4.34,2.4,6.7,3.43c9.22,4.03,17.97,5.12,25,5.99c1.59,0.2,3.09,0.39,4.43,0.59c19.55,2.95,38.1,15.28,48.4,32.15
		c1.5,2.46,3.02,5.3,4.64,8.31c0.51,0.95,1.03,1.92,1.57,2.92l26.23,0.88l-18.93,11.4c2.86,4.27,6.19,8.58,10.21,12.62
		c16.91,17,38.72,22.56,56.24,27.02C255.81,1907.36,267.09,1910.23,272.54,1915.51z"/>
	<path class="st3" d="M287.41,1823.62c4.12,6.07,6.4,16.87,8.8,28.31c3.59,17.04,7.65,36.34,19.74,54.75
		c13.37,20.35,32.4,32.7,47.69,42.62c3.73,2.42,7.33,4.76,10.65,7.08h98.57c-10.15-21.59-25.14-40.89-43.84-55.88
		c-7.81-6.26-15.98-11.56-23.18-16.24c-10.63-6.9-20.66-13.41-25.1-20.16c-4.04-6.15-6.29-16.84-8.67-28.15
		c-3.49-16.57-7.83-37.19-20.53-55.89c-17.15-25.25-43-37.85-63.77-47.97c-14.53-7.08-28.25-13.77-33.62-21.98
		c-2.89-4.42-5.15-12.04-7.54-20.11c-1.51-5.09-3.07-10.34-5.06-15.9c-9.16-25.56-24.73-48.5-44.62-66.74l-17.75,28.03l7.82-36.46
		c-13.49-10.59-28.59-19.16-44.77-25.14c-2.59-0.96-5.03-1.79-7.38-2.59c-3.78-1.29-38.05-15.98-51.68-10.26l0,0
		c-18.77,7.89-27.07,28.16-22.09,45.79l35.27,2.98l-26.76,12.16c0.75,0.81,1.53,1.6,2.36,2.37c2.36,2.15,4.9,4.21,7.64,6.14
		c10.69,7.56,21.55,11.26,30.28,14.23c1.97,0.67,3.84,1.31,5.49,1.92c24.14,8.92,44.52,29.5,53.2,53.73
		c1.26,3.53,2.46,7.55,3.72,11.81c1.97,6.63,4.2,14.16,7.39,21.96l39.93,7.68l-33.36,5.9c0.95,1.65,1.94,3.3,3.02,4.94
		c17.07,26.12,43.4,38.95,64.55,49.26C268.24,1808.81,281.86,1815.45,287.41,1823.62z"/>
	<path class="st2" d="M257.54,1596.68c-0.76,12.7-1.68,28.15,1.16,44.6c20.52,11.55,60.59,34.13,56.02,31.7
		c-4.28-2.28-33.83-9.13-51.13-13.03c10.31,29.11,30.8,50.3,47.66,67.72c13.03,13.47,25.34,26.19,28.17,37.36
		c2.1,8.3,0.29,21.07-1.62,34.58c-2.85,20.13-6.09,42.94-0.15,67.96c6.56,27.67,22.52,48.81,35.35,65.79
		c5.22,6.92,10.16,13.46,13.89,19.58c0.69,1.12,1.34,2.27,1.97,3.43h96.39c-4.44-17.73-11.48-34.82-21.03-50.51
		c-6.08-9.99-12.93-19.06-18.97-27.06c-8.91-11.8-17.33-22.96-19.51-32.13c-1.98-8.36-0.19-20.99,1.7-34.35
		c2.78-19.58,6.23-43.94-0.26-69.53c-8.76-34.55-32.1-58.68-50.87-78.08c-13.12-13.56-25.52-26.38-28.14-37.53
		c-1.41-6.01-0.85-15.27-0.26-25.08c0.37-6.18,0.76-12.58,0.79-19.47c0.23-53.23-22.3-105.6-60.75-142.25l-17.69,7.81l8.73-15.82
		c-2.21-1.86-4.33-3.56-6.38-5.21c-3.64-2.92-35.4-32.71-52.63-31.86l0,0c-32.4,1.61-52.65,36.28-37.54,64.99
		c1.74,3.3,3.7,6.57,5.94,9.78c8.72,12.56,19.17,20.95,27.56,27.68c1.9,1.52,3.69,2.96,5.26,4.29
		c22.94,19.41,37.11,50.13,36.97,80.18C258.15,1586.62,257.86,1591.51,257.54,1596.68z"/>
	<rect x="217.73" y="1936.96" class="st33" width="2268.42" height="19.41"/>
	<path class="st20" d="M2411.33,908.18c-3.65,0.69-7.24,1.59-10.73,2.68c-21.12-34.98-59.5-58.37-103.34-58.37
		c-52.16,0-96.59,33.1-113.42,79.45c-11.92-6.64-25.63-10.44-40.25-10.44c-45.72,0-82.78,37.06-82.78,82.78
		c0,2.71,0.14,5.39,0.39,8.03h407.35C2452.46,976.24,2431.46,942.42,2411.33,908.18z"/>
	<g>
		<path class="st2" d="M2201.06,665.75h-45.6v-37.02h-37.02v-45.6h37.02v-37.02h45.6v37.02h37.02v45.6h-37.02V665.75z
			 M2161.58,659.63h33.36v-37.02h37.02v-33.36h-37.02v-37.02h-33.36v37.02h-37.02v33.36h37.02V659.63z"/>
	</g>
	<g>
		<path class="st2" d="M2385.91,1277.25h-29.8v-24.19h-24.19v-29.8h24.19v-24.19h29.8v24.19h24.19v29.8h-24.19V1277.25z
			 M2360.1,1273.25h21.8v-24.19h24.19v-21.8h-24.19v-24.19h-21.8v24.19h-24.19v21.8h24.19V1273.25z"/>
	</g>
	<g>
		<path class="st2" d="M550.61,977.39h-23.67v-19.22h-19.22V934.5h19.22v-19.22h23.67v19.22h19.22v23.67h-19.22V977.39z
			 M530.11,974.21h17.32V955h19.22v-17.32h-19.22v-19.22h-17.32v19.22h-19.22V955h19.22V974.21z"/>
	</g>
	<g>
		<path class="st2" d="M487.07,1430.53h-15.71v-12.75h-12.75v-15.71h12.75v-12.75h15.71v12.75h12.75v15.71h-12.75V1430.53z
			 M473.47,1428.42h11.49v-12.75h12.75v-11.49h-12.75v-12.75h-11.49v12.75h-12.75v11.49h12.75V1428.42z"/>
	</g>
	<g>
		<path class="st2" d="M1609.47,356.24h-23.67v-19.22h-19.22v-23.67h19.22v-19.22h23.67v19.22h19.22v23.67h-19.22V356.24z
			 M1588.97,353.06h17.32v-19.22h19.22v-17.32h-19.22v-19.22h-17.32v19.22h-19.22v17.32h19.22V353.06z"/>
	</g>
	<g>
		<g>
			<path class="st1" d="M2117.65,1112.55c-11.05,0-20.04-8.99-20.04-20.04s8.99-20.04,20.04-20.04s20.04,8.99,20.04,20.04
				S2128.7,1112.55,2117.65,1112.55z M2117.65,1077.54c-8.25,0-14.96,6.71-14.96,14.96s6.71,14.96,14.96,14.96
				s14.96-6.71,14.96-14.96S2125.9,1077.54,2117.65,1077.54z"/>
		</g>
	</g>
	<g>
		<g>
			<path class="st1" d="M1908.58,210.21c-11.05,0-20.04-8.99-20.04-20.04c0-11.05,8.99-20.04,20.04-20.04s20.04,8.99,20.04,20.04
				C1928.62,201.22,1919.63,210.21,1908.58,210.21z M1908.58,175.21c-8.25,0-14.96,6.71-14.96,14.96c0,8.25,6.71,14.96,14.96,14.96
				c8.25,0,14.96-6.71,14.96-14.96C1923.54,181.92,1916.83,175.21,1908.58,175.21z"/>
		</g>
	</g>
	<g>
		<g>
			<path class="st3" d="M1207.75,567.78c-10.76,0-19.51-8.75-19.51-19.51s8.75-19.51,19.51-19.51s19.51,8.75,19.51,19.51
				S1218.51,567.78,1207.75,567.78z M1207.75,533.7c-8.03,0-14.56,6.53-14.56,14.56c0,8.03,6.53,14.56,14.56,14.56
				c8.03,0,14.56-6.53,14.56-14.56C1222.31,540.24,1215.78,533.7,1207.75,533.7z"/>
		</g>
	</g>
	<g>
		<path class="st2" d="M308.47,1351.75c-12.59,0-22.83-10.24-22.83-22.83s10.24-22.83,22.83-22.83c12.59,0,22.83,10.24,22.83,22.83
			S321.05,1351.75,308.47,1351.75z M308.47,1311.89c-9.39,0-17.04,7.64-17.04,17.04c0,9.39,7.64,17.04,17.04,17.04
			c9.39,0,17.04-7.64,17.04-17.04C325.5,1319.54,317.86,1311.89,308.47,1311.89z"/>
	</g>
	<g>
		<path class="st13" d="M1934.89,1936.96l57.15-0.17c1.77,0,3.19-1.44,3.19-3.21l0,0c-0.01-1.77-1.44-3.19-3.21-3.19l-57.15,0.17
			c-1.77,0-3.19,1.44-3.19,3.21l0,0C1931.69,1935.53,1933.12,1936.96,1934.89,1936.96z"/>
		<path class="st6" d="M1992.25,1910.96l2.16,17.78c0.27,2.19-0.96,4.19-2.57,4.19l-56,0.16c-1.46,0-2.9-0.9-3.67-2.6
			c-0.79-1.75-0.95-4.38,1.54-7.93c4.94-7.03,21.12-8.84,29.25-14.77c0.17-0.12,0.36-0.19,0.57-0.19l25.77-0.08
			C1990.77,1907.53,1992.01,1908.98,1992.25,1910.96z"/>
		<g>
			<path class="st13" d="M1967.22,1917.93L1967.22,1917.93c0.4-0.25,0.55-0.93,0.31-1.45c-1.11-2.43-4.56-8.36-11.55-7.12
				c-0.4,0.07-0.68,0.61-0.61,1.16l0,0.02c0.07,0.54,0.43,0.88,0.82,0.82c6.26-1.09,9.2,4.13,10.1,6.17
				C1966.49,1917.96,1966.88,1918.13,1967.22,1917.93z"/>
		</g>
		<g>
			<path class="st13" d="M1961.41,1920.23L1961.41,1920.23c0.4-0.25,0.55-0.93,0.31-1.45c-1.11-2.43-4.56-8.36-11.55-7.12
				c-0.4,0.07-0.68,0.61-0.61,1.16l0,0.02c0.07,0.54,0.43,0.88,0.82,0.82c6.26-1.09,9.2,4.13,10.1,6.17
				C1960.68,1920.27,1961.07,1920.44,1961.41,1920.23z"/>
		</g>
		<g>
			<path class="st13" d="M1956,1922.38L1956,1922.38c0.4-0.25,0.55-0.93,0.31-1.45c-1.11-2.43-4.56-8.36-11.55-7.12
				c-0.4,0.07-0.68,0.61-0.61,1.16l0,0.02c0.07,0.54,0.43,0.89,0.82,0.82c6.26-1.09,9.2,4.13,10.1,6.17
				C1955.28,1922.42,1955.67,1922.59,1956,1922.38z"/>
		</g>
	</g>
	<g>
		<path class="st11" d="M875.09,1369.53l-42.23-38.52c-1.31-1.19-1.4-3.21-0.21-4.52l0,0c1.19-1.3,3.21-1.4,4.52-0.21l42.23,38.52
			c1.3,1.19,1.4,3.21,0.21,4.52l0,0C878.42,1370.63,876.4,1370.72,875.09,1369.53z"/>
		<path class="st12" d="M850.06,1311.74l-13.54,11.72c-1.67,1.45-2.11,3.74-0.92,4.83l41.37,37.74c1.07,0.98,2.75,1.28,4.46,0.53
			c1.76-0.77,3.65-2.61,4.19-6.92c1.06-8.53-9.71-20.74-11.75-30.59c-0.04-0.2-0.14-0.38-0.29-0.52l-19.04-17.37
			C853.46,1310.19,851.56,1310.43,850.06,1311.74z"/>
		<g>
			<path class="st13" d="M863.93,1333.72L863.93,1333.72c-0.13-0.46,0.22-1.06,0.74-1.29c2.45-1.06,8.99-3.13,13.34,2.49
				c0.25,0.32,0.09,0.91-0.33,1.27l-0.01,0.01c-0.41,0.35-0.92,0.37-1.16,0.05c-3.91-5.01-9.59-3.12-11.63-2.21
				C864.44,1334.24,864.04,1334.1,863.93,1333.72z"/>
		</g>
		<g>
			<path class="st13" d="M866.68,1339.33L866.68,1339.33c-0.13-0.46,0.22-1.06,0.74-1.29c2.45-1.06,8.99-3.13,13.34,2.49
				c0.25,0.32,0.09,0.91-0.33,1.27l-0.01,0.01c-0.41,0.35-0.92,0.37-1.16,0.05c-3.91-5.01-9.59-3.12-11.63-2.21
				C867.19,1339.85,866.79,1339.71,866.68,1339.33z"/>
		</g>
		<g>
			<path class="st13" d="M869.24,1344.55L869.24,1344.55c-0.13-0.46,0.22-1.06,0.74-1.29c2.45-1.06,8.99-3.13,13.34,2.49
				c0.25,0.32,0.09,0.91-0.33,1.27l-0.01,0.01c-0.41,0.35-0.92,0.37-1.16,0.05c-3.91-5.01-9.59-3.12-11.63-2.21
				C869.75,1345.07,869.35,1344.93,869.24,1344.55z"/>
		</g>
	</g>
</g>
</svg>
