<svg height="512" viewBox="0 0 480 480" width="512" xmlns="http://www.w3.org/2000/svg"><g fill="#e84857"><path d="M264 0h-48c-4.4 0-8 3.6-8 8s3.6 8 8 8h16v30c0 4.4 3.6 8 8 8s8-3.6 8-8V16h16c4.4 0 8-3.6 8-8s-3.6-8-8-8zM264 464h-16v-30c0-4.4-3.6-8-8-8s-8 3.6-8 8v30h-16c-4.4 0-8 3.6-8 8s3.6 8 8 8h48c4.4 0 8-3.6 8-8s-3.6-8-8-8zM54 240c0-4.4-3.6-8-8-8H16v-16c0-4.4-3.6-8-8-8s-8 3.6-8 8v48c0 4.4 3.6 8 8 8s8-3.6 8-8v-16h30c4.4 0 8-3.6 8-8zM472 208c-4.4 0-8 3.6-8 8v16h-30c-4.4 0-8 3.6-8 8s3.6 8 8 8h30v16c0 4.4 3.6 8 8 8s8-3.6 8-8v-48c0-4.4-3.6-8-8-8zM87.3 75.9l11.3-11.3c3.1-3.1 3.1-8.2 0-11.3s-8.2-3.1-11.3 0l-34 34C48.2 92.4 51.9 101 59 101c2 0 4.1-.8 5.7-2.3L76 87.4l21.2 21.2c3.1 3.1 8.2 3.1 11.3 0s3.1-8.2 0-11.3zM415.4 381.4l-11.3 11.3-21.2-21.2c-3.1-3.1-8.2-3.1-11.3 0s-3.1 8.2 0 11.3l21.2 21.2-11.3 11.3c-3.1 3.1-3.1 8.2 0 11.3s8.2 3.1 11.3 0l33.9-33.9c3.1-3.1 3.1-8.2 0-11.3s-8.2-3.1-11.3 0zM97.2 371.5L76 392.7l-11.3-11.3c-3.1-3.1-8.2-3.1-11.3 0s-3.1 8.2 0 11.3l33.9 33.9c1.6 1.6 3.6 2.3 5.7 2.3 7.1 0 10.7-8.6 5.7-13.7L87.3 404l21.2-21.2c3.1-3.1 3.1-8.2 0-11.3s-8.2-3.1-11.3 0zM382.8 108.5L404 87.3l11.3 11.3c1.6 1.6 3.6 2.3 5.7 2.3 7.1 0 10.7-8.6 5.7-13.7l-33.9-33.9c-3.1-3.1-8.2-3.1-11.3 0s-3.1 8.2 0 11.3L392.7 76l-21.2 21.2c-3.1 3.1-3.1 8.2 0 11.3s8.2 3.1 11.3 0z"/></g><path d="M434 240c0 107.1-86.9 194-194 194-53.6 0-102.1-21.7-137.2-56.8-75.7-75.7-75.8-198.5 0-274.4C137.9 67.7 186.4 46 240 46c107.1 0 194 86.9 194 194z" fill="#fe4f60"/><path d="M239.8 299c19.8 0 36.1 16.3 36.1 36.1s-16.3 36.1-36.1 36.1-36.1-16.3-36.1-36.1S220 299 239.8 299z" fill="#e84857"/><circle cx="334" cy="222.1" fill="#e84857" r="40.9"/><path d="M275.3 49.2c27.5 5.1 25.3 45-2.6 47.5-93.4 8.3-167.6 82.4-176 176-2.5 27.9-42.4 30.1-47.5 2.6-11.1-60.1 6.1-125 53.6-172.5 47.5-47.4 112.3-64.6 172.5-53.6z" fill="#ff6d7a"/><path d="M169.8 134c31.1 0 56.8 25.6 56.8 56.8 0 31.1-25.6 56.8-56.8 56.8-31.1 0-56.8-25.6-56.8-56.8s25.6-56.8 56.8-56.8z" fill="#e84857"/><path d="M472 377c0 52.1-42.9 95-95 95-34.3 0-64.6-18.6-81.3-46.1C257.2 362.4 304.2 282 377 282c52 0 95 42.8 95 95z" fill="#42434d"/><path d="M361.8 414.2l-26.5-26.5c-3.1-3.1-3.1-8.2 0-11.3s8.2-3.1 11.3 0l20.8 20.8 44.3-44.3c3.1-3.1 8.2-3.1 11.3 0s3.1 8.2 0 11.3l-50 50c-3 3.1-8 3.1-11.2 0z" fill="#fff"/><path d="M382.4 315c-32.2 9.1-58.4 35.5-67.4 67.8-5.1 18.4-33 15.9-33-5.8 0-52.5 43.4-95.6 96-95 19.4.2 23 27.7 4.4 33z" fill="#4d4e59"/></svg>