<svg xmlns="http://www.w3.org/2000/svg" viewBox="0 0 1200 1200"><path fill="#34A59A" d="M1149.068 615.187c-5.366-39.891-32.917-72.531-55.657-105.743-61.214-89.405-93.136-196.648-157.116-284.094S755.593 71.58 656.746 115.959c-46.362 20.815-80.186 62.193-123.643 88.539-56.095 34.008-128.013 40.534-189.314 17.178-41.544-15.829-78.25-44.426-121.765-53.535-51.909-10.866-109.159 9.98-141.928 51.679-32.769 41.699-39.488 102.254-16.657 150.123 18.603 39.003 54.175 68.359 70.512 108.364 37.449 91.703-38.664 197.188-12.36 292.687 17.157 62.286 75.674 109.679 81.918 173.982.51 5.255.639 10.566.588 15.9 81.001 87.827 279.852 241.557 571.375 60.968 0 0 80.747-54.977 116.825-137.441l1.825 4.438c12.545-16.645 26.918-32.055 43.929-45.691 42.781-34.269 94.416-55.933 138.005-89.169 43.588-33.237 80.32-84.469 73.012-138.794z"/><path fill="#273252" d="M903.427 854.098c-62.885 145.636-207.894 247.831-376.342 247.831S213.629 999.734 150.744 854.098h-15.539c63.738 153.728 215.376 262.144 391.881 262.144s328.143-108.417 391.881-262.144h-15.54z"/><path fill="#FCB598" d="M593.625 727.646s14.386-4.272 33.615-12.722c-5.236-45.533-11.268-126.411-6.719-236.766 0 0-122.819 66.952-230.972 42.084 0 0 21.409 104.68 5.907 193.222 45.346 23.228 115.921 43.996 198.169 14.182z"/><path fill="#FF9D7B" d="M621.305 476.167s-125.298 59.594-233.84 37.15c0 0 6.593 28.989 9.833 68.431 54.946.573 168.984 8.436 224.007 60.948-3.254-41.754-3.173-97.298 0-166.529z"/><path fill="#FCB598" d="M652.196 342.289c.07-8.983 16.626-8.443 21.825-8.385 27.668.308 47.657 37.144 35.663 67.037-6.18 15.402-17.53 22.447-31.026 26.772-6.224 1.994-26.972 8.033-26.898-5.569l.436-79.855z"/><path fill="#EA6565" d="M684.938 357.738c4.29 3.307 7.585 7.924 9.633 13.157 2.005 5.237 2.45 11.349.741 16.921-.844 2.776-2.136 5.375-3.709 7.742-.847 1.137-1.647 2.309-2.625 3.317-.479.51-.91 1.068-1.428 1.534l-1.525 1.421c-4.143 3.687-8.928 6.409-13.998 8.239 4.028-3.582 7.994-7.019 11.269-10.928a45.69 45.69 0 004.409-6.065c1.222-2.134 2.247-4.342 2.937-6.646 1.403-4.602 1.397-9.542.279-14.414-1.132-4.881-3.245-9.661-5.983-14.278z"/><path fill="#EA6565" d="M693.545 379.035c-1.184 3.186-3.194 6-5.589 8.458-2.416 2.438-5.36 4.478-8.704 5.722-3.321 1.278-7.07 1.609-10.54.902-3.474-.718-6.624-2.404-9.059-4.737 3.254.919 6.359 1.643 9.42 1.694 3.05.067 6.006-.443 8.82-1.511 2.82-1.044 5.51-2.575 8.084-4.396 2.591-1.813 5.059-3.887 7.568-6.132z"/><path fill="#FCB598" d="M348.027 342.289c-.07-8.983-16.626-8.443-21.825-8.385-27.668.308-47.657 37.144-35.663 67.037 6.18 15.402 17.53 22.447 31.026 26.772 6.224 1.994 26.972 8.033 26.898-5.569l-.436-79.855z"/><path fill="#EA6565" d="M315.286 357.738c-2.739 4.617-4.852 9.398-5.983 14.277-1.119 4.872-1.124 9.812.279 14.414.69 2.303 1.716 4.512 2.937 6.646a45.69 45.69 0 004.409 6.065c3.275 3.91 7.241 7.346 11.269 10.928-5.07-1.83-9.855-4.552-13.998-8.239l-1.525-1.421c-.518-.465-.949-1.023-1.428-1.534-.977-1.008-1.777-2.18-2.625-3.317-1.573-2.367-2.865-4.967-3.709-7.742-1.709-5.572-1.265-11.684.741-16.921 2.047-5.232 5.343-9.85 9.633-13.156z"/><path fill="#EA6565" d="M306.678 379.035c2.509 2.245 4.978 4.319 7.568 6.131 2.574 1.821 5.264 3.352 8.084 4.396a23.256 23.256 0 008.82 1.511c3.061-.051 6.166-.775 9.42-1.694-2.435 2.334-5.585 4.019-9.059 4.737-3.471.707-7.219.376-10.54-.902-3.344-1.244-6.289-3.283-8.704-5.722-2.395-2.457-4.405-5.271-5.589-8.457z"/><path fill="#FCB598" d="M360.116 210.181c-4.337 3.357-6.095 21.218-7.298 26.116a508.187 508.187 0 00-11.852 67.792c-6.501 61.549-2.152 127.514 27.761 182.911 17.533 32.471 44.432 60.004 76.812 79.217 40.851 24.239 79.955 19.587 120.21-4.608 52.922-31.808 81.378-88.02 90.064-147.82 7.252-49.93 2.498-101.211-6.905-150.516-.002.001-107.795-193.062-288.792-53.092z"/><path fill="#312E4C" d="M614.742 300.638c5.209 1.69 9.176-4.724 5.321-8.614-5.814-5.867-12.723-10.47-20.07-13.601-12.703-5.413-26.644-6.626-40.157-5.067-7.176.828-17.378 2.567-21.496 10.066-3.839 6.991-.965 11.134 5.594 10.643 18.898-1.413 37.059-1.672 55.781 2.479a163.088 163.088 0 0115.027 4.094zM377.728 307.194c-6.355 2.395-11.607-5.51-6.785-10.292a63.461 63.461 0 0115.442-11.25c12.259-6.355 26.069-8.616 39.66-8.079 7.218.285 17.522 1.25 22.194 8.417 4.355 6.681 1.801 11.029-4.776 11.035-18.951.016-37.079 1.126-55.435 6.677a163.069 163.069 0 00-10.3 3.492z"/><ellipse fill="#FF8B88" cx="400.213" cy="429.37" rx="33.701" ry="34.01" opacity=".3"/><ellipse fill="#FF8B88" cx="600.532" cy="427.599" rx="33.701" ry="34.01" opacity=".3"/><path fill="#EA5467" d="M524.34 410.472c-.727-3.183-2.541-6.393-3.692-9.248-3.366-8.342-6.107-18.054-8.238-27.22-1.713-7.366-1.514-23.053-8.443-27.301-9.464-5.8-14.363 8.865-15.68 15.692-2.579 13.372-1.814 25.956-9.986 37.736-4.988 7.189-8.645 13.5-.365 19.97 5.718 4.468 15.304 8.972 22.649 7.872 7.189-1.076 17.601-3.834 22.352-9.892 1.862-2.374 2.002-4.983 1.403-7.609z"/><path fill="#312E4C" d="M559.884 335.584c-1.456 3.85-2.287 8.268-2.287 12.97 0 14.91 8.325 26.998 18.595 26.998s18.595-12.087 18.595-26.998c0-4.702-.831-9.12-2.287-12.97h-32.616z"/><path fill="#FCB598" d="M545.733 365.499c.765 3.37 1.62 6.537 2.608 9.548 1.001 3.001 2.198 5.775 3.606 8.245.372.59.689 1.264 1.099 1.795.398.552.803 1.092 1.193 1.664.866.978 1.713 2.046 2.698 2.83 1.889 1.832 4.078 2.881 6.37 4.22-2.409.311-4.994.063-7.326-1.443l-.894-.504c-.299-.17-.553-.457-.833-.681-.542-.489-1.109-.942-1.634-1.477-.498-.585-.982-1.202-1.473-1.808-.487-.612-.869-1.367-1.305-2.049-1.64-2.862-2.798-6.22-3.493-9.694-.68-3.475-.98-7.107-.616-10.646z"/><path fill="#312E4C" d="M400.181 335.584c-1.456 3.85-2.287 8.268-2.287 12.97 0 14.91 8.325 26.998 18.595 26.998s18.595-12.087 18.595-26.998c0-4.702-.831-9.12-2.287-12.97h-32.616z"/><path fill="#FCB598" d="M446.948 365.499c.365 3.539.065 7.171-.617 10.645-.694 3.474-1.853 6.832-3.493 9.694-.436.682-.818 1.437-1.306 2.049-.491.606-.974 1.222-1.473 1.808-.525.535-1.092.988-1.634 1.477-.279.225-.534.512-.833.681l-.894.504c-2.333 1.507-4.917 1.754-7.326 1.443 2.291-1.339 4.481-2.388 6.37-4.22.985-.783 1.832-1.852 2.698-2.83.39-.572.795-1.113 1.193-1.664.411-.531.728-1.205 1.099-1.795 1.408-2.47 2.604-5.245 3.606-8.245.99-3.01 1.845-6.177 2.61-9.547z"/><g><path fill="#312E4C" d="M488.728 477.681c7.378-2.632 15.709-1.677 22.914 1.397s13.405 8.119 18.945 13.657c.882.881 1.791 1.855 2.007 3.083.344 1.954-1.165 3.72-2.677 5.005-6.065 5.152-14.116 7.903-22.066 7.54-5.288-.241-10.418-1.792-15.64-2.653-5.229-.863-10.575-1.039-15.728-2.28-22.27-5.367 1.369-21.869 12.245-25.749z"/></g><g><path fill="#EA6565" d="M498.844 492.272c-9.614 0-18.281 4.069-24.421 10.587.639.201 1.324.392 2.062.57 5.153 1.241 10.498 1.417 15.727 2.28 5.222.862 10.353 2.412 15.64 2.653 5.821.266 11.694-1.145 16.804-3.939-6.182-7.426-15.449-12.151-25.812-12.151z"/></g><g><ellipse fill="#E4BAE5" cx="407.206" cy="355.735" rx="2.526" ry="6.165"/></g><g><ellipse fill="#E4BAE5" cx="566.831" cy="355.735" rx="2.526" ry="6.165"/></g><g><path fill="#312E4C" d="M348.221 329.765c3.524-4.954 4.214-11.309 4.941-17.345 3.643-30.281 6.806-65.515 32.52-86.009 12.611-10.051 28.627-14.572 44.174-18.859 28.279-7.798 59.274-15.441 86.106-3.587 12.246 5.41 22.609 14.554 35.041 19.52 33.419 13.351 71.286 8.853 89.071 47.627 3.699 8.065 5.495 16.861 8.575 25.182 4.916 13.281 1.53 29.026 9.093 40.579 12.843-16.923 18.631-55.017 24.536-83.41 2.539-12.208 4.434-24.878 1.912-37.09-5.746-27.815-32.364-59.364-52.08-78.808-15.123-14.915-34.143-26.749-55.198-29.553-19.676-2.621-39.406 2.719-58.977 6.037-44.662 7.572-78.674-17.05-120.672-27.34-14.361-3.519-30.085-4.84-43.472 1.458-13.94 6.564-36.774 25.462-30.164 42.947 1.895 5.014 5.034 9.512 6.665 14.626 7.428 23.306-14.773 43.956-20.894 64.933-8.619 29.537-3.515 60.668 6.912 88.99 3.353 9.111 17.993 49.665 31.911 30.102z"/></g><g><path fill="#EFFAFD" d="M514.309 438.261c-.066 1.589-.649 3.199-.233 4.733.26.959.884 1.768 1.432 2.597a19.121 19.121 0 011.912 3.727c.726 1.906 1.136 4.056.434 5.971s-2.818 3.41-4.776 2.84c-1.504-.438-2.464-1.867-3.294-3.196-.833-1.331-1.676-2.686-2.1-4.198-.935-3.33.281-6.843 1.481-10.086.874-2.358 5.427-9.321 5.144-2.388z"/></g><g><path fill="#EFFAFD" d="M524.308 427.19c-.048 1.161-.474 2.338-.17 3.46.19.701.646 1.293 1.047 1.898a13.957 13.957 0 011.397 2.724c.531 1.393.83 2.965.317 4.364-.513 1.4-2.06 2.492-3.491 2.076-1.099-.32-1.801-1.365-2.408-2.336-.609-.973-1.225-1.963-1.535-3.068-.683-2.434.205-5.001 1.083-7.372.639-1.724 3.967-6.814 3.76-1.746z"/></g><g><path fill="#FFCA61" d="M600.338 1105.834s168.482-32.257 278.29-201.025c-71.856-159.878-239.91-265.864-239.91-265.864-83.321 94.304-255.475-12.86-255.475-12.86a1733.538 1733.538 0 00-31.709 31.057C198.863 810.696 196.802 876.691 178.881 930.246c39.511 60.639 165.787 212.614 421.457 175.588z"/><path fill="#FFCA61" d="M382.774 566.735s122.336 70.962 268.986-2.896c0 0 37.785 7.548 0 39.974 0 0-40.054 35.991 44.609 77.66l-133.061 48.91s-92.917-22.447-103.778-28.24c-10.862-5.793-111.066-41.898-111.066-41.898s38.716-35.581 18.049-72.51c-.001-.001-17.047-23.897 16.261-21z"/><path fill="#FFCA61" d="M380.173 728.728l-5.953-4.472c.399-.53.692-1.496 1.003-2.519.418-1.379.893-2.94 1.884-4.374l.236-.342c1.329-1.921 2.607-3.762 3.796-5.65.941-1.496 2.159-2.581 3.233-3.535.775-.689 1.507-1.343 1.812-1.882l.287-.507c1.122-1.98 2.226-3.927 3.192-5.862.253-.507.311-1.538.365-2.533.081-1.479.174-3.152.887-4.807.541-1.258.941-2.557 1.365-3.933.29-.94.58-1.874.91-2.796.676-1.891 1.966-3.287 3.003-4.407.498-.539 1.249-1.349 1.351-1.682.178-.63.078-1.644-.028-2.716-.137-1.385-.293-2.958.046-4.604.37-1.809 1.227-3.267 1.981-4.554.462-.786.985-1.676 1.043-2.145.146-1.178.39-2.351.636-3.508.277-1.308.539-2.545.58-3.609-.047-.306-.644-1.278-1-1.859-.854-1.39-1.918-3.12-2.021-5.205-.053-1.081-.044-2.133-.034-3.167.013-1.358.025-2.639-.137-3.8-.224-1.582-.11-3.061-.012-4.366.082-1.081.161-2.103 0-2.775-.227-.96-.415-1.918-.601-2.863-.29-1.482-.564-2.878-.969-4.074-.483-1.432-1.18-2.852-1.853-4.23a71.161 71.161 0 01-1.068-2.245c-.407-.907-.775-1.815-1.136-2.698-.574-1.414-1.118-2.745-1.717-3.806l-.171-.3c-1.25-2.201-2.433-4.283-3.492-5.774-.691-.972-1.168-1.667-1.539-2.206-.99-1.443-1.03-1.499-2.753-3.214l5.246-5.279c2.083 2.068 2.398 2.463 3.644 4.28.354.516.809 1.178 1.468 2.106 1.28 1.8 2.551 4.039 3.899 6.41l.171.303c.84 1.479 1.501 3.102 2.139 4.672.33.807.666 1.638 1.037 2.466.296.663.625 1.331.959 2.015.741 1.514 1.58 3.229 2.218 5.114.563 1.664.898 3.373 1.222 5.028.166.851.334 1.714.539 2.578.427 1.8.295 3.529.18 5.058-.078 1.016-.152 1.98-.041 2.763.242 1.711.225 3.338.209 4.911-.009.89-.019 1.797.027 2.728.059.262.582 1.111.926 1.673.978 1.591 2.196 3.573 2.097 6.048-.066 1.697-.407 3.305-.736 4.861-.202.951-.411 1.912-.53 2.878-.247 1.994-1.184 3.591-2.01 4.999-.485.828-.987 1.682-1.111 2.283-.11.542-.018 1.476.071 2.377.153 1.552.345 3.488-.218 5.473-.576 2.039-1.946 3.52-3.046 4.71-.608.657-1.298 1.399-1.461 1.859-.293.819-.548 1.647-.806 2.483-.462 1.502-.941 3.055-1.641 4.678-.19.445-.243 1.417-.292 2.277-.087 1.588-.196 3.564-1.137 5.447-1.021 2.047-2.187 4.112-3.374 6.207l-.286.504c-.912 1.614-2.202 2.763-3.342 3.776-.773.689-1.504 1.34-1.884 1.944-1.245 1.977-2.581 3.909-3.972 5.918l-.236.342c-.328.474-.61 1.402-.882 2.298-.462 1.522-.985 3.246-2.173 4.831zM429.296 763.723l-5.95-4.472c.938-1.249 2.031-2.256 2.994-3.143.831-.769 1.616-1.491 2.094-2.183.903-1.308 1.991-2.363 2.952-3.293.81-.786 1.575-1.529 2.003-2.209.678-1.075 1.259-2.265 1.875-3.526.499-1.019.993-2.024 1.53-2.972a72.47 72.47 0 011.725-2.846c.757-1.205 1.471-2.345 2.022-3.444.08-.289-.053-1.423-.131-2.1-.196-1.67-.439-3.75.411-5.73l.747-1.711c.719-1.638 1.417-3.22 2.002-4.852.706-1.971 2.121-3.379 3.258-4.51.499-.495 1.253-1.246 1.385-1.567.395-1.396.667-2.963.931-4.478.153-.881.305-1.75.479-2.592.153-.748.019-1.812-.122-2.937-.166-1.314-.353-2.801-.161-4.357.138-1.108.055-2.324-.034-3.612-.08-1.167-.152-2.321-.106-3.464.059-1.485-.059-2.943-.184-4.489-.066-.831-.133-1.659-.174-2.489-.096-1.968.529-3.738 1.033-5.158.243-.689.613-1.732.576-2.08-.082-.592-.644-1.493-1.186-2.368-.747-1.202-1.591-2.56-1.984-4.215-.281-1.187-.451-2.371-.611-3.535-.174-1.249-.339-2.433-.66-3.385a66.537 66.537 0 01-.893-2.907c-.406-1.396-.789-2.716-1.28-3.812-.666-1.488-.999-2.978-1.292-4.292-.239-1.069-.464-2.08-.781-2.636-.351-.619-1.303-1.255-2.226-1.874-1.141-.766-2.435-1.632-3.36-2.934-.856-1.205-1.368-1.977-1.747-2.545-.733-1.105-.778-1.169-2.336-2.719l5.246-5.279c1.938 1.924 2.274 2.351 3.289 3.877.351.527.825 1.24 1.616 2.354.178.221.934.728 1.435 1.063 1.488.996 3.339 2.236 4.556 4.383.865 1.523 1.24 3.205 1.572 4.687.239 1.066.462 2.071.822 2.875.703 1.567 1.175 3.199 1.633 4.778.247.851.499 1.72.794 2.592.549 1.62.77 3.214.984 4.752.13.934.256 1.885.482 2.84.112.474.597 1.252 1.063 2.006.862 1.387 1.932 3.111 2.234 5.261.299 2.121-.383 4.05-.931 5.597-.299.848-.639 1.806-.614 2.309.037.754.099 1.502.159 2.256.137 1.697.277 3.45.202 5.382-.034.875.034 1.765.096 2.663.103 1.508.219 3.217-.006 5.034-.08.633.035 1.544.158 2.51.202 1.6.43 3.411.028 5.364-.158.769-.295 1.564-.436 2.371-.296 1.7-.602 3.461-1.111 5.255-.598 2.115-2.09 3.6-3.29 4.793-.573.571-1.359 1.352-1.498 1.738-.655 1.835-1.438 3.615-2.193 5.338l-.725 1.661c-.052.25.066 1.258.143 1.924.215 1.832.482 4.115-.602 6.289-.713 1.426-1.56 2.775-2.377 4.077-.527.84-1.06 1.685-1.551 2.551-.464.822-.888 1.694-1.32 2.578-.676 1.382-1.374 2.81-2.264 4.224-.903 1.435-2.081 2.578-3.12 3.585-.784.76-1.523 1.476-2.012 2.183-.949 1.373-2.13 2.46-3.171 3.42-.801.74-1.558 1.438-2.09 2.145zM638.076 741.78c-.225-.203-1.277-.598-1.904-.831-1.698-.636-3.81-1.429-5.176-3.338-1.51-2.112-2.938-4.271-4.286-6.339-.913-1.402-1.651-2.819-2.364-4.189-.446-.857-.885-1.706-1.358-2.51-1.081-1.841-1.289-3.844-1.455-5.453-.085-.816-.19-1.829-.395-2.224-1.055-2.033-2.268-4.398-3.345-6.796-.355-.792-.919-1.614-1.514-2.486-.819-1.196-1.747-2.554-2.354-4.165a78.745 78.745 0 00-1.019-2.527c-.622-1.488-1.264-3.028-1.75-4.648-.638-2.118-.298-4.148-.024-5.78.131-.781.295-1.756.206-2.153-.162-.734-.586-1.585-1.037-2.486-.679-1.364-1.449-2.907-1.708-4.757l-.267-1.82c-.284-1.894-.577-3.85-.686-5.824-.11-1.982-.009-3.827.088-5.609.04-.707.078-1.411.1-2.106.025-.739-.184-1.688-.404-2.692-.339-1.544-.723-3.29-.488-5.182.236-1.873.837-3.55 1.368-5.025.306-.854.617-1.691.801-2.525.468-2.127 1.653-3.753 2.604-5.058.51-.698 1.035-1.42 1.184-1.882.259-.81.373-1.773.492-2.796.172-1.476.368-3.152 1.072-4.796.292-.68.404-1.679.521-2.74.175-1.585.376-3.382 1.287-5.049 1.019-1.862 2.302-3.373 3.335-4.587.518-.61 1.01-1.178 1.399-1.744 1.943-2.828 2.585-3.452 3.743-4.492.395-.354.884-.789 1.636-1.561l5.329 5.196c-.919.943-1.513 1.476-1.994 1.909-.766.686-1.053.943-2.579 3.164-.521.76-1.168 1.532-1.862 2.348-.896 1.055-1.823 2.145-2.476 3.341-.206.377-.326 1.44-.42 2.298-.165 1.479-.351 3.155-1.077 4.849-.278.651-.396 1.661-.521 2.728-.149 1.27-.317 2.707-.798 4.207-.514 1.602-1.439 2.872-2.256 3.994-.598.819-1.217 1.667-1.349 2.271-.268 1.217-.675 2.348-1.066 3.441-.439 1.222-.854 2.377-.987 3.435-.077.619.152 1.656.371 2.66.295 1.343.629 2.863.574 4.531-.025.751-.066 1.508-.108 2.271-.091 1.656-.177 3.217-.09 4.79.09 1.626.346 3.329.616 5.132l.278 1.891c.09.651.53 1.535.997 2.469.601 1.208 1.283 2.572 1.642 4.198.402 1.809.119 3.503-.131 4.996-.146.869-.327 1.95-.19 2.407.376 1.252.918 2.551 1.491 3.924.38.91.763 1.832 1.116 2.772.29.772.893 1.653 1.53 2.583.719 1.052 1.535 2.242 2.162 3.641.996 2.218 2.153 4.475 3.161 6.416.856 1.647 1.034 3.367 1.192 4.884.097.94.208 2.003.47 2.451.536.913 1.037 1.873 1.544 2.846.658 1.267 1.28 2.463 1.994 3.559 1.293 1.98 2.66 4.05 4.108 6.074.159.106 1.105.463 1.729.695 1.672.627 3.751 1.405 5.174 3.237l-5.876 4.562zM574.382 757.735c-.461-.68-1.195-1.37-1.972-2.103-1.055-.99-2.251-2.115-3.165-3.585-.392-.63-1.124-1.314-1.9-2.036-1.109-1.031-2.365-2.201-3.257-3.782-.963-1.711-1.283-3.488-1.563-5.058-.175-.978-.342-1.903-.613-2.442-1.197-2.386-2.324-4.634-3.307-6.867-.331-.754-.923-1.573-1.549-2.436-.87-1.202-1.857-2.563-2.472-4.209-.757-2.033-.592-4.071-.46-5.709.066-.816.147-1.832.022-2.248-.255-.84-.697-1.732-1.164-2.675-.648-1.308-1.38-2.787-1.766-4.463-.417-1.806-.399-3.526-.383-5.043.01-.984.021-1.915-.097-2.675-.345-2.23-.726-4.878-.928-7.588-.055-.739-.362-1.658-.689-2.631-.496-1.482-1.057-3.161-1.04-5.049.019-2 .613-3.726 1.137-5.246.312-.91.608-1.77.672-2.416.184-1.876.731-3.514 1.211-4.958.297-.896.579-1.741.725-2.501.138-.725.08-1.673.016-2.681-.097-1.552-.208-3.314.324-5.146.203-.704.224-1.691.246-2.74.034-1.6.072-3.414.773-5.19.949-2.407 2.984-3.718 4.62-4.772.533-.345 1.339-.863 1.539-1.111.115-.247.093-1.449.078-2.245-.032-1.75-.072-3.927 1.133-5.83 1.214-1.912 2.834-3.187 4.134-4.212.635-.498 1.29-1.016 1.566-1.364 2.061-2.616 3.299-3.311 4.704-3.947.516-.233.826-.374 1.557-1.034l4.984 5.532c-1.47 1.323-2.48 1.835-3.472 2.283-.532.242-.826.374-1.925 1.77-.822 1.043-1.832 1.841-2.809 2.61-.99.778-1.924 1.514-2.454 2.348-.006.13.012 1.078.024 1.709.031 1.714.071 3.847-.951 5.862-.95 1.871-2.684 2.987-4.076 3.885-.583.377-1.558 1.005-1.762 1.317-.178.465-.2 1.523-.222 2.545-.029 1.414-.063 3.014-.539 4.654-.169.589-.109 1.573-.044 2.613.085 1.355.181 2.893-.134 4.542-.239 1.246-.611 2.365-.974 3.452-.392 1.178-.762 2.292-.865 3.335-.147 1.511-.623 2.893-1.041 4.109-.373 1.081-.725 2.103-.732 2.896-.006.639.315 1.597.654 2.61.436 1.302.931 2.778 1.055 4.448.183 2.448.538 4.914.862 7.005.211 1.361.197 2.645.184 3.888-.013 1.208-.025 2.348.191 3.29.191.828.673 1.8 1.184 2.831.554 1.119 1.181 2.389 1.616 3.818.538 1.77.398 3.491.274 5.011-.077.952-.163 2.027.015 2.507.261.698.875 1.544 1.524 2.442.791 1.093 1.688 2.33 2.337 3.809.932 2.121 2.005 4.254 3.103 6.442.795 1.582 1.078 3.158 1.329 4.551.193 1.081.377 2.103.722 2.716.323.574 1.06 1.261 1.84 1.985 1.049.975 2.237 2.08 3.153 3.556.401.645 1.149 1.349 1.941 2.091.99.931 2.112 1.988 3.036 3.349l-6.16 4.181zM514.404 756.665h-7.444c0-.863-.143-1.096-.613-1.874-.673-1.113-1.691-2.793-1.691-5.732 0-1.714-.087-2.572-.172-3.429-.099-.981-.211-2.089-.211-4.177 0-2.525.477-3.906.862-5.014.281-.816.452-1.308.452-2.581 0-1.402-.162-1.997-.386-2.819-.289-1.06-.647-2.377-.647-4.772 0-2.03.071-3.043.141-4.056.062-.884.124-1.768.124-3.535 0-2.704.694-4.224 1.2-5.335.362-.798.529-1.161.529-2.248 0-2.053.088-3.078.177-4.106.075-.866.15-1.732.15-3.464 0-1.208-.171-1.653-.482-2.46-.411-1.072-.975-2.542-.975-5.129 0-1.178-.175-1.614-.493-2.407-.436-1.081-1.031-2.563-1.031-5.179 0-2.737.731-4.271 1.265-5.391.371-.781.541-1.137.541-2.192 0-1.714-.084-2.572-.168-3.432a36.875 36.875 0 01-.205-4.154c0-2.53.489-3.915.881-5.026.284-.807.457-1.296.457-2.554 0-1.202-.171-1.644-.483-2.448-.415-1.072-.984-2.545-.984-5.135 0-1.455-.147-2.071-.352-2.922-.247-1.034-.555-2.318-.555-4.651 0-3.214 1.48-5.043 2.365-6.133.645-.798.706-.887.706-1.449 0-.445 0-.489-.739-1.329-.969-1.102-2.594-2.949-2.594-6.245h7.444c0 .442 0 .489.738 1.326.971 1.102 2.595 2.949 2.595 6.248 0 3.214-1.48 5.043-2.365 6.133-.645.798-.706.887-.706 1.449 0 1.452.147 2.068.351 2.919.249 1.034.557 2.321.557 4.654 0 1.202.171 1.644.483 2.448.415 1.072.984 2.545.984 5.135 0 2.533-.489 3.918-.881 5.031-.284.804-.457 1.293-.457 2.548 0 1.714.084 2.569.168 3.426.096.975.205 2.08.205 4.159 0 2.737-.731 4.271-1.265 5.391-.371.781-.541 1.137-.541 2.192 0 1.175.175 1.611.493 2.404.434 1.081 1.031 2.563 1.031 5.182 0 1.208.171 1.653.482 2.46.411 1.072.975 2.542.975 5.129 0 2.053-.088 3.078-.177 4.106-.075.866-.15 1.732-.15 3.464 0 2.704-.694 4.224-1.2 5.335-.362.798-.529 1.161-.529 2.248 0 2.027-.071 3.04-.141 4.053-.062.884-.124 1.767-.124 3.538 0 1.399.162 1.994.386 2.816.287 1.06.647 2.38.647 4.775 0 2.525-.477 3.906-.862 5.014-.281.816-.452 1.308-.452 2.581 0 1.714.087 2.572.172 3.429.099.981.211 2.089.211 4.177 0 .863.143 1.096.613 1.874.673 1.115 1.69 2.794 1.69 5.734z"/></g><g><path fill="#EA5467" d="M695.18 937.328c-2.22-75.541-67.481-157.823-113.735-188.166-13.033-8.563-22.945-10.996-30.238-7.426-11.814 5.761-13.48 25.902-14.961 43.637-.475 5.788-.923 11.234-1.69 15.753-3.092 18.264 2.036 40.545 5.578 52.784 1.848 2.245 17.189 18.181 20.38 18.808-3.19-.625-8.874-5.832-14.673-12.201-1.904-2.115-23.473-18.469-22.681-28.107-.313-195.125-.232-229.444.19-235.889.052-.714.104-1.083.158-1.295l-.029-.027c.108-.185.449-.845.982-1.85a438.13 438.13 0 016.007-11.109H487.73a434.488 434.488 0 016.014 11.135c.531.979.847 1.639.981 1.824l-.053.027c.053.237.105.633.156 1.453.422 6.812.503 42.097.192 235.72-.258 5.941-20.782 26.004-22.685 28.119-6.185 6.793-12.238 12.264-15.279 12.264-4.413 0-11.153-4.256-15.354-9.673-1.977-2.55-3.181-5.089-3.55-7.399.369 2.31 1.574 4.849 3.55 7.398 4.201 5.418 10.941 9.673 15.355 9.673 3.041 0 9.094-5.471 15.279-12.264a204.414 204.414 0 005.709-6.607c3.542-12.239 8.67-34.52 5.575-52.784-.763-4.52-1.215-9.965-1.69-15.753-1.453-17.735-3.144-37.876-14.959-43.637-7.295-3.569-17.207-1.137-30.238 7.426-46.254 30.342-111.511 112.624-113.735 188.166-2.14 73.029.927 121.451 60.738 128.985 6.82.845 13.299 1.294 19.458 1.268 22.916 0 40.994-5.974 53.838-17.894 15.807-14.643 23.025-37.823 21.517-68.88-2.908-58.728-5.26-89.601-5.762-96.023 12.025-11.55 23.997-21.991 26.564-24.238l.003-.002h19.475c2.565 2.247 14.537 12.661 26.565 24.212 1.11 1.057 2.194 2.114 3.279 3.171 8.984 8.749 17.494 17.788 21.594 24.08a48.817 48.817 0 01.001.001c-4.099-6.292-12.609-15.331-21.594-24.08-1.085-1.057-2.169-2.114-3.279-3.171-.503 6.343-2.855 37.241-5.736 96.051-1.534 31.056 5.71 54.237 21.486 68.88 12.846 11.92 30.927 17.92 53.843 17.894 6.159 0 12.633-.423 19.452-1.269 59.811-7.533 62.878-55.955 60.74-128.985z"/><path fill="#EA5467" d="M493.322 598.214l1.504-1.534a6.778 6.778 0 00-1.504 1.534z"/><path fill="#FFF" d="M614.605 984.156c-13.729 0-24.899-11.169-24.899-24.899 0-13.729 11.169-24.899 24.899-24.899 13.729 0 24.899 11.169 24.899 24.899 0 13.729-11.17 24.899-24.899 24.899zm0-46.28c-11.79 0-21.381 9.592-21.381 21.381s9.591 21.381 21.381 21.381c11.79 0 21.381-9.591 21.381-21.381s-9.592-21.381-21.381-21.381z"/><circle transform="rotate(-24.947 623.85 956.159)" fill="#FFF" cx="623.875" cy="956.22" r="2.104"/><path fill="#FFF" d="M623.876 958.682c-.284 0-.57-.05-.845-.151a2.445 2.445 0 01-1.387-1.273 2.465 2.465 0 011.193-3.269 2.444 2.444 0 011.882-.081c.617.225 1.11.678 1.387 1.273a2.464 2.464 0 01-2.23 3.501zm-.002-4.21a1.75 1.75 0 00-1.583 2.485c.197.423.547.744.985.904.438.16.913.14 1.336-.057a1.75 1.75 0 00.847-2.321 1.758 1.758 0 00-1.585-1.011z"/><circle transform="rotate(-24.947 614.746 961.968)" fill="#FFF" cx="614.771" cy="962.029" r="2.104"/><path fill="#FFF" d="M614.772 964.492c-.285 0-.57-.05-.845-.151a2.444 2.444 0 01-1.387-1.274 2.448 2.448 0 01-.081-1.882 2.445 2.445 0 011.273-1.387 2.443 2.443 0 011.882-.08c.617.225 1.11.678 1.387 1.273a2.464 2.464 0 01-2.229 3.501zm-.002-4.21a1.746 1.746 0 00-1.64 1.149c-.16.438-.14.913.057 1.336.197.423.546.744.985.904.439.16.913.139 1.336-.057a1.75 1.75 0 00.847-2.321 1.737 1.737 0 00-.985-.904 1.739 1.739 0 00-.6-.107z"/><circle transform="rotate(-24.947 614.76 950.155)" fill="#FFF" cx="614.785" cy="950.216" r="2.104"/><path fill="#FFF" d="M614.789 952.677a2.464 2.464 0 01-2.235-1.423 2.444 2.444 0 01-.08-1.882 2.444 2.444 0 011.274-1.387 2.465 2.465 0 013.269 1.193c.277.596.306 1.264.081 1.882s-.678 1.11-1.273 1.387c-.337.156-.689.23-1.036.23zm-.007-4.207c-.246 0-.496.052-.734.163a1.734 1.734 0 00-.904.985c-.16.438-.14.913.057 1.336a1.75 1.75 0 002.321.847c.423-.197.744-.547.904-.985a1.75 1.75 0 00-1.644-2.346z"/><g><path fill="#FFF" d="M615.042 936.331v-9.992M613.283 926.339h3.518v9.991h-3.518zM615.042 982.718v9.278M613.283 982.718h3.518v9.278h-3.518z"/><g><path fill="#FFF" d="M609.689 990.951h10.705v3.518h-10.705z"/></g><g><path fill="#FFF" d="M609.689 924.58h10.705v3.518h-10.705z"/></g></g><g><path fill="#FFF" d="M591.848 959.524h-9.992M581.856 957.766h9.991v3.518h-9.991zM638.236 959.524h9.277M638.236 957.766h9.277v3.518h-9.277z"/><g><path fill="#FFF" d="M646.468 954.172h3.518v10.705h-3.518z"/></g><g><path fill="#FFF" d="M580.097 954.172h3.518v10.705h-3.518z"/></g></g><g><path fill="#FFF" d="M602.909 971.3l-13.559 13.559M588.095 983.614l13.56-13.56 2.487 2.488-13.56 13.56zM639.663 934.546l-13.56 13.56M624.849 946.86l13.56-13.56 2.487 2.488-13.56 13.56z"/><g><path fill="#FFF" d="M635.966 931.018l2.487-2.487 7.57 7.57-2.488 2.487z"/></g><g><path fill="#FFF" d="M584.396 982.588l2.488-2.488 7.57 7.57-2.488 2.487z"/></g></g><g><path fill="#FFF" d="M603.266 947.035l-13.559-13.559M588.453 934.717l2.487-2.488 13.56 13.56-2.488 2.487zM640.02 983.789l-13.56-13.56M625.206 971.47l2.487-2.487 13.56 13.56-2.488 2.487z"/><g><path fill="#FFF" d="M635.965 987.67l7.57-7.57 2.487 2.488-7.57 7.57z"/></g><g><path fill="#FFF" d="M584.396 936.1l7.57-7.57 2.487 2.487-7.57 7.57z"/></g></g><g><path fill="#FFF" d="M397.619 967.791c-19.551 0-35.457-15.906-35.457-35.457 0-19.551 15.906-35.457 35.457-35.457 19.551 0 35.457 15.906 35.457 35.457 0 19.551-15.906 35.457-35.457 35.457zm0-65.905c-16.789 0-30.448 13.659-30.448 30.448s13.659 30.448 30.448 30.448 30.448-13.659 30.448-30.448-13.659-30.448-30.448-30.448z"/><circle transform="rotate(-24.947 410.806 927.952)" fill="#FFF" cx="410.82" cy="928.01" r="2.996"/><path fill="#FFF" d="M410.821 931.516c-.405 0-.811-.071-1.203-.214a3.484 3.484 0 01-1.976-1.813 3.51 3.51 0 011.699-4.655 3.478 3.478 0 012.679-.115 3.48 3.48 0 011.975 1.813 3.508 3.508 0 01-3.174 4.984zm-.003-5.995a2.491 2.491 0 00-2.255 3.539c.28.602.779 1.06 1.403 1.288.624.228 1.3.199 1.902-.081a2.49 2.49 0 001.206-3.305 2.47 2.47 0 00-1.402-1.288 2.475 2.475 0 00-.854-.153z"/><circle transform="rotate(-24.947 397.843 936.224)" fill="#FFF" cx="397.855" cy="936.282" r="2.996"/><path fill="#FFF" d="M397.857 939.788a3.51 3.51 0 01-1.204-.214 3.478 3.478 0 01-1.975-1.814 3.479 3.479 0 01-.115-2.679 3.48 3.48 0 011.813-1.975 3.478 3.478 0 012.679-.115 3.484 3.484 0 011.976 1.813 3.51 3.51 0 01-3.174 4.984zm-.004-5.994a2.47 2.47 0 00-1.048.234c-.602.28-1.06.778-1.288 1.402-.228.624-.199 1.3.081 1.902A2.47 2.47 0 00397 938.62c.624.228 1.3.198 1.902-.081a2.491 2.491 0 001.207-3.305 2.475 2.475 0 00-1.403-1.288 2.46 2.46 0 00-.853-.152z"/><circle transform="rotate(-24.947 397.863 919.403)" fill="#FFF" cx="397.875" cy="919.46" r="2.996"/><path fill="#FFF" d="M397.881 922.964a3.51 3.51 0 01-3.183-2.026 3.479 3.479 0 01-.115-2.679 3.478 3.478 0 011.814-1.975 3.509 3.509 0 014.655 1.699c.395.848.436 1.8.115 2.679a3.497 3.497 0 01-3.286 2.302zm-.009-5.991a2.46 2.46 0 00-1.045.232 2.47 2.47 0 00-1.288 1.402c-.228.624-.199 1.3.081 1.902a2.494 2.494 0 003.305 1.207 2.475 2.475 0 001.288-1.403c.228-.624.199-1.3-.081-1.902a2.493 2.493 0 00-2.26-1.438z"/><g><path fill="#FFF" d="M398.241 899.686v-14.228M395.736 885.458h5.009v14.228h-5.009zM398.241 965.744v13.212M395.736 965.744h5.009v13.212h-5.009z"/><g><path fill="#FFF" d="M390.618 977.468h15.245v5.009h-15.245z"/></g><g><path fill="#FFF" d="M390.618 882.953h15.245v5.009h-15.245z"/></g></g><g><path fill="#FFF" d="M365.211 932.715h-14.228M350.983 930.211h14.228v5.009h-14.228zM431.27 932.715h13.212M431.27 930.211h13.212v5.009H431.27z"/><g><path fill="#FFF" d="M442.994 925.093h5.009v15.244h-5.009z"/></g><g><path fill="#FFF" d="M348.479 925.093h5.009v15.244h-5.009z"/></g></g><g><path fill="#FFF" d="M380.964 949.484l-19.31 19.309M359.874 967.018l19.31-19.31 3.542 3.543-19.31 19.31zM433.303 897.145l-19.31 19.31M412.213 914.68l19.309-19.309 3.542 3.542-19.31 19.309z"/><g><path fill="#FFF" d="M428.044 892.12l3.542-3.541 10.779 10.779-3.542 3.541z"/></g><g><path fill="#FFF" d="M354.606 965.558l3.542-3.542 10.779 10.779-3.542 3.542z"/></g></g><g><path fill="#FFF" d="M381.472 914.93l-19.309-19.309M360.383 897.388l3.542-3.542 19.31 19.31-3.543 3.541zM433.811 967.269l-19.31-19.31M412.72 949.727l3.543-3.542 19.309 19.31-3.542 3.541z"/><g><path fill="#FFF" d="M428.043 972.795l10.779-10.779 3.542 3.542-10.78 10.779z"/></g><g><path fill="#FFF" d="M354.607 899.357l10.78-10.779 3.541 3.542-10.78 10.78z"/></g></g></g></g><g><path fill="#273252" d="M903.427 854.098c-62.885 145.636-207.894 247.831-376.342 247.831S213.629 999.734 150.744 854.098h-15.539c63.738 153.728 215.376 262.144 391.881 262.144s328.143-108.417 391.881-262.144h-15.54z"/></g></svg>