<?xml version="1.0" encoding="utf-8"?>
<!-- Generator: Adobe Illustrator 21.1.0, SVG Export Plug-In . SVG Version: 6.00 Build 0)  -->
<svg version="1.1" id="Capa_1" xmlns="http://www.w3.org/2000/svg" xmlns:xlink="http://www.w3.org/1999/xlink" x="0px" y="0px"
	 viewBox="0 0 1200 1200" enable-background="new 0 0 1200 1200" xml:space="preserve">
<g>
	<g>
		<g>
			<path fill="#34A59A" d="M1149.068,615.187c-5.366-39.891-32.917-72.531-55.657-105.743
				c-61.214-89.405-93.136-196.648-157.116-284.094S755.593,71.58,656.746,115.959c-46.362,20.815-80.186,62.193-123.643,88.539
				c-56.095,34.008-128.013,40.534-189.314,17.178c-41.544-15.829-78.25-44.426-121.765-53.535
				c-51.909-10.866-109.159,9.98-141.928,51.679c-32.769,41.699-39.488,102.254-16.657,150.123
				c18.603,39.003,54.175,68.359,70.512,108.364c37.449,91.703-38.664,197.188-12.36,292.687
				c17.157,62.286,75.674,109.679,81.918,173.982c0.51,5.255,0.639,10.566,0.588,15.9c81.001,87.827,279.852,241.557,571.375,60.968
				c0,0,80.747-54.977,116.825-137.441l1.825,4.438c12.545-16.645,26.918-32.055,43.929-45.691
				c42.781-34.269,94.416-55.933,138.005-89.169C1119.644,720.744,1156.376,669.512,1149.068,615.187z"/>
		</g>
	</g>
	<g>
		<g>
			<path fill="#273252" d="M903.427,854.098c-62.885,145.636-207.894,247.831-376.342,247.831S213.629,999.734,150.744,854.098
				h-15.539c63.738,153.728,215.376,262.144,391.881,262.144s328.143-108.417,391.881-262.144H903.427z"/>
		</g>
	</g>
	<g>
		<g>
			<g>
				<path fill="#FCB598" d="M593.625,727.646c0,0,14.386-4.272,33.615-12.722c-5.236-45.533-11.268-126.411-6.719-236.766
					c0,0-122.819,66.952-230.972,42.084c0,0,21.409,104.68,5.907,193.222C440.802,736.692,511.377,757.46,593.625,727.646z"/>
			</g>
		</g>
		<g>
			<g>
				<path fill="#FF9D7B" d="M621.305,476.167c0,0-125.298,59.594-233.84,37.15c0,0,6.593,28.989,9.833,68.431
					c54.946,0.573,168.984,8.436,224.007,60.948C618.051,600.942,618.132,545.398,621.305,476.167z"/>
			</g>
		</g>
		<g>
			<g>
				<g>
					<g>
						<g>
							<g>
								<path fill="#FCB598" d="M652.196,342.289c0.07-8.983,16.626-8.443,21.825-8.385c27.668,0.308,47.657,37.144,35.663,67.037
									c-6.18,15.402-17.53,22.447-31.026,26.772c-6.224,1.994-26.972,8.033-26.898-5.569
									C651.761,422.115,652.193,342.905,652.196,342.289z"/>
							</g>
						</g>
						<g>
							<g>
								<path fill="#EA6565" d="M684.938,357.738c4.29,3.307,7.585,7.924,9.633,13.157c2.005,5.237,2.45,11.349,0.741,16.921
									c-0.844,2.776-2.136,5.375-3.709,7.742c-0.847,1.137-1.647,2.309-2.625,3.317c-0.479,0.51-0.91,1.068-1.428,1.534
									l-1.525,1.421c-4.143,3.687-8.928,6.409-13.998,8.239c4.028-3.582,7.994-7.019,11.269-10.928
									c1.657-1.931,3.132-3.958,4.409-6.065c1.222-2.134,2.247-4.342,2.937-6.646c1.403-4.602,1.397-9.542,0.279-14.414
									C689.789,367.135,687.676,362.355,684.938,357.738z"/>
							</g>
						</g>
						<g>
							<g>
								<path fill="#EA6565" d="M693.545,379.035c-1.184,3.186-3.194,6-5.589,8.458c-2.416,2.438-5.36,4.478-8.704,5.722
									c-3.321,1.278-7.07,1.609-10.54,0.902c-3.474-0.718-6.624-2.404-9.059-4.737c3.254,0.919,6.359,1.643,9.42,1.694
									c3.05,0.067,6.006-0.443,8.82-1.511c2.82-1.044,5.51-2.575,8.084-4.396C688.568,383.354,691.036,381.28,693.545,379.035z"/>
							</g>
						</g>
					</g>
				</g>
				<g>
					<g>
						<g>
							<g>
								<path fill="#FCB598" d="M348.027,342.289c-0.07-8.983-16.626-8.443-21.825-8.385c-27.668,0.308-47.657,37.144-35.663,67.037
									c6.18,15.402,17.53,22.447,31.026,26.772c6.224,1.994,26.972,8.033,26.898-5.569
									C348.463,422.115,348.031,342.905,348.027,342.289z"/>
							</g>
						</g>
						<g>
							<g>
								<path fill="#EA6565" d="M315.286,357.738c-2.739,4.617-4.852,9.398-5.983,14.277c-1.119,4.872-1.124,9.812,0.279,14.414
									c0.69,2.303,1.716,4.512,2.937,6.646c1.277,2.107,2.752,4.134,4.409,6.065c3.275,3.91,7.241,7.346,11.269,10.928
									c-5.07-1.83-9.855-4.552-13.998-8.239l-1.525-1.421c-0.518-0.465-0.949-1.023-1.428-1.534
									c-0.977-1.008-1.777-2.18-2.625-3.317c-1.573-2.367-2.865-4.967-3.709-7.742c-1.709-5.572-1.265-11.684,0.741-16.921
									C307.7,365.662,310.996,361.044,315.286,357.738z"/>
							</g>
						</g>
						<g>
							<g>
								<path fill="#EA6565" d="M306.678,379.035c2.509,2.245,4.978,4.319,7.568,6.131c2.574,1.821,5.264,3.352,8.084,4.396
									c2.814,1.068,5.77,1.578,8.82,1.511c3.061-0.051,6.166-0.775,9.42-1.694c-2.435,2.334-5.585,4.019-9.059,4.737
									c-3.471,0.707-7.219,0.376-10.54-0.902c-3.344-1.244-6.289-3.283-8.704-5.722
									C309.872,385.035,307.862,382.221,306.678,379.035z"/>
							</g>
						</g>
					</g>
				</g>
				<g>
					<g>
						<path fill="#FCB598" d="M360.116,210.181c-4.337,3.357-6.095,21.218-7.298,26.116c-5.474,22.284-9.442,44.974-11.852,67.792
							c-6.501,61.549-2.152,127.514,27.761,182.911c17.533,32.471,44.432,60.004,76.812,79.217
							c40.851,24.239,79.955,19.587,120.21-4.608c52.922-31.808,81.378-88.02,90.064-147.82
							c7.252-49.93,2.498-101.211-6.905-150.516C648.906,263.274,541.113,70.211,360.116,210.181z"/>
					</g>
				</g>
				<g>
					<g>
						<path fill="#312E4C" d="M614.742,300.638c5.209,1.69,9.176-4.724,5.321-8.614c-5.814-5.867-12.723-10.47-20.07-13.601
							c-12.703-5.413-26.644-6.626-40.157-5.067c-7.176,0.828-17.378,2.567-21.496,10.066c-3.839,6.991-0.965,11.134,5.594,10.643
							c18.898-1.413,37.059-1.672,55.781,2.479C604.774,297.666,609.79,299.031,614.742,300.638z"/>
					</g>
				</g>
				<g>
					<g>
						<path fill="#312E4C" d="M377.728,307.194c-6.355,2.395-11.607-5.51-6.785-10.292c4.597-4.559,9.849-8.351,15.442-11.25
							c12.259-6.355,26.069-8.616,39.66-8.079c7.218,0.285,17.522,1.25,22.194,8.417c4.355,6.681,1.801,11.029-4.776,11.035
							c-18.951,0.016-37.079,1.126-55.435,6.677C384.563,304.749,381.127,305.914,377.728,307.194z"/>
					</g>
				</g>
				<g>
					<g opacity="0.3">
						<ellipse fill="#FF8B88" cx="400.213" cy="429.37" rx="33.701" ry="34.01"/>
					</g>
				</g>
				<g>
					<g opacity="0.3">
						<ellipse fill="#FF8B88" cx="600.532" cy="427.599" rx="33.701" ry="34.01"/>
					</g>
				</g>
				<g>
					<g>
						<path fill="#EA5467" d="M524.34,410.472c-0.727-3.183-2.541-6.393-3.692-9.248c-3.366-8.342-6.107-18.054-8.238-27.22
							c-1.713-7.366-1.514-23.053-8.443-27.301c-9.464-5.8-14.363,8.865-15.68,15.692c-2.579,13.372-1.814,25.956-9.986,37.736
							c-4.988,7.189-8.645,13.5-0.365,19.97c5.718,4.468,15.304,8.972,22.649,7.872c7.189-1.076,17.601-3.834,22.352-9.892
							C524.799,415.707,524.939,413.098,524.34,410.472z"/>
					</g>
				</g>
				<g>
					<g>
						<g>
							<path fill="#312E4C" d="M559.884,335.584c-1.456,3.85-2.287,8.268-2.287,12.97c0,14.91,8.325,26.998,18.595,26.998
								c10.27,0,18.595-12.087,18.595-26.998c0-4.702-0.831-9.12-2.287-12.97H559.884z"/>
						</g>
					</g>
				</g>
				<g>
					<g>
						<g>
							<path fill="#FCB598" d="M545.733,365.499c0.765,3.37,1.62,6.537,2.608,9.548c1.001,3.001,2.198,5.775,3.606,8.245
								c0.372,0.59,0.689,1.264,1.099,1.795c0.398,0.552,0.803,1.092,1.193,1.664c0.866,0.978,1.713,2.046,2.698,2.83
								c1.889,1.832,4.078,2.881,6.37,4.22c-2.409,0.311-4.994,0.063-7.326-1.443l-0.894-0.504c-0.299-0.17-0.553-0.457-0.833-0.681
								c-0.542-0.489-1.109-0.942-1.634-1.477c-0.498-0.585-0.982-1.202-1.473-1.808c-0.487-0.612-0.869-1.367-1.305-2.049
								c-1.64-2.862-2.798-6.22-3.493-9.694C545.669,372.67,545.369,369.038,545.733,365.499z"/>
						</g>
					</g>
				</g>
				<g>
					<g>
						<g>
							<g>
								<path fill="#312E4C" d="M400.181,335.584c-1.456,3.85-2.287,8.268-2.287,12.97c0,14.91,8.325,26.998,18.595,26.998
									c10.27,0,18.595-12.087,18.595-26.998c0-4.702-0.831-9.12-2.287-12.97H400.181z"/>
							</g>
						</g>
					</g>
					<g>
						<g>
							<g>
								<path fill="#FCB598" d="M446.948,365.499c0.365,3.539,0.065,7.171-0.617,10.645c-0.694,3.474-1.853,6.832-3.493,9.694
									c-0.436,0.682-0.818,1.437-1.306,2.049c-0.491,0.606-0.974,1.222-1.473,1.808c-0.525,0.535-1.092,0.988-1.634,1.477
									c-0.279,0.225-0.534,0.512-0.833,0.681l-0.894,0.504c-2.333,1.507-4.917,1.754-7.326,1.443
									c2.291-1.339,4.481-2.388,6.37-4.22c0.985-0.783,1.832-1.852,2.698-2.83c0.39-0.572,0.795-1.113,1.193-1.664
									c0.411-0.531,0.728-1.205,1.099-1.795c1.408-2.47,2.604-5.245,3.606-8.245C445.328,372.036,446.183,368.869,446.948,365.499
									z"/>
							</g>
						</g>
					</g>
				</g>
				<g>
					<g>
						<path fill="#312E4C" d="M488.728,477.681c7.378-2.632,15.709-1.677,22.914,1.397s13.405,8.119,18.945,13.657
							c0.882,0.881,1.791,1.855,2.007,3.083c0.344,1.954-1.165,3.72-2.677,5.005c-6.065,5.152-14.116,7.903-22.066,7.54
							c-5.288-0.241-10.418-1.792-15.64-2.653c-5.229-0.863-10.575-1.039-15.728-2.28
							C454.213,498.063,477.852,481.561,488.728,477.681z"/>
					</g>
				</g>
				<g>
					<g>
						<path fill="#EA6565" d="M498.844,492.272c-9.614,0-18.281,4.069-24.421,10.587c0.639,0.201,1.324,0.392,2.062,0.57
							c5.153,1.241,10.498,1.417,15.727,2.28c5.222,0.862,10.353,2.412,15.64,2.653c5.821,0.266,11.694-1.145,16.804-3.939
							C518.474,496.997,509.207,492.272,498.844,492.272z"/>
					</g>
				</g>
				<g>
					<g>
						<ellipse fill="#E4BAE5" cx="407.206" cy="355.735" rx="2.526" ry="6.165"/>
					</g>
				</g>
				<g>
					<g>
						<ellipse fill="#E4BAE5" cx="566.831" cy="355.735" rx="2.526" ry="6.165"/>
					</g>
				</g>
				<g>
					<path fill="#312E4C" d="M348.221,329.765c3.524-4.954,4.214-11.309,4.941-17.345c3.643-30.281,6.806-65.515,32.52-86.009
						c12.611-10.051,28.627-14.572,44.174-18.859c28.279-7.798,59.274-15.441,86.106-3.587c12.246,5.41,22.609,14.554,35.041,19.52
						c33.419,13.351,71.286,8.853,89.071,47.627c3.699,8.065,5.495,16.861,8.575,25.182c4.916,13.281,1.53,29.026,9.093,40.579
						c12.843-16.923,18.631-55.017,24.536-83.41c2.539-12.208,4.434-24.878,1.912-37.09c-5.746-27.815-32.364-59.364-52.08-78.808
						c-15.123-14.915-34.143-26.749-55.198-29.553c-19.676-2.621-39.406,2.719-58.977,6.037
						c-44.662,7.572-78.674-17.05-120.672-27.34c-14.361-3.519-30.085-4.84-43.472,1.458c-13.94,6.564-36.774,25.462-30.164,42.947
						c1.895,5.014,5.034,9.512,6.665,14.626c7.428,23.306-14.773,43.956-20.894,64.933c-8.619,29.537-3.515,60.668,6.912,88.99
						C319.663,308.774,334.303,349.328,348.221,329.765z"/>
				</g>
			</g>
			<g>
				<g>
					<path fill="#EFFAFD" d="M514.309,438.261c-0.066,1.589-0.649,3.199-0.233,4.733c0.26,0.959,0.884,1.768,1.432,2.597
						c0.771,1.167,1.414,2.42,1.912,3.727c0.726,1.906,1.136,4.056,0.434,5.971c-0.702,1.915-2.818,3.41-4.776,2.84
						c-1.504-0.438-2.464-1.867-3.294-3.196c-0.833-1.331-1.676-2.686-2.1-4.198c-0.935-3.33,0.281-6.843,1.481-10.086
						C510.039,438.291,514.592,431.328,514.309,438.261z"/>
				</g>
			</g>
			<g>
				<g>
					<path fill="#EFFAFD" d="M524.308,427.19c-0.048,1.161-0.474,2.338-0.17,3.46c0.19,0.701,0.646,1.293,1.047,1.898
						c0.564,0.853,1.033,1.769,1.397,2.724c0.531,1.393,0.83,2.965,0.317,4.364c-0.513,1.4-2.06,2.492-3.491,2.076
						c-1.099-0.32-1.801-1.365-2.408-2.336c-0.609-0.973-1.225-1.963-1.535-3.068c-0.683-2.434,0.205-5.001,1.083-7.372
						C521.187,427.212,524.515,422.122,524.308,427.19z"/>
				</g>
			</g>
		</g>
	</g>
	<g>
		<g>
			<path fill="#FFCA61" d="M600.338,1105.834c0,0,168.482-32.257,278.29-201.025c-71.856-159.878-239.91-265.864-239.91-265.864
				c-83.321,94.304-255.475-12.86-255.475-12.86c-11.236,10.736-21.79,21.081-31.709,31.057
				C198.863,810.696,196.802,876.691,178.881,930.246C218.392,990.885,344.668,1142.86,600.338,1105.834z"/>
		</g>
		<g>
			<path fill="#FFCA61" d="M382.774,566.735c0,0,122.336,70.962,268.986-2.896c0,0,37.785,7.548,0,39.974
				c0,0-40.054,35.991,44.609,77.66l-133.061,48.91c0,0-92.917-22.447-103.778-28.24c-10.862-5.793-111.066-41.898-111.066-41.898
				s38.716-35.581,18.049-72.51C366.512,587.734,349.466,563.838,382.774,566.735z"/>
		</g>
		<g>
			<g>
				<g>
					<path fill="#FFCA61" d="M380.173,728.728l-5.953-4.472c0.399-0.53,0.692-1.496,1.003-2.519c0.418-1.379,0.893-2.94,1.884-4.374
						l0.236-0.342c1.329-1.921,2.607-3.762,3.796-5.65c0.941-1.496,2.159-2.581,3.233-3.535c0.775-0.689,1.507-1.343,1.812-1.882
						l0.287-0.507c1.122-1.98,2.226-3.927,3.192-5.862c0.253-0.507,0.311-1.538,0.365-2.533c0.081-1.479,0.174-3.152,0.887-4.807
						c0.541-1.258,0.941-2.557,1.365-3.933c0.29-0.94,0.58-1.874,0.91-2.796c0.676-1.891,1.966-3.287,3.003-4.407
						c0.498-0.539,1.249-1.349,1.351-1.682c0.178-0.63,0.078-1.644-0.028-2.716c-0.137-1.385-0.293-2.958,0.046-4.604
						c0.37-1.809,1.227-3.267,1.981-4.554c0.462-0.786,0.985-1.676,1.043-2.145c0.146-1.178,0.39-2.351,0.636-3.508
						c0.277-1.308,0.539-2.545,0.58-3.609c-0.047-0.306-0.644-1.278-1-1.859c-0.854-1.39-1.918-3.12-2.021-5.205
						c-0.053-1.081-0.044-2.133-0.034-3.167c0.013-1.358,0.025-2.639-0.137-3.8c-0.224-1.582-0.11-3.061-0.012-4.366
						c0.082-1.081,0.161-2.103,0-2.775c-0.227-0.96-0.415-1.918-0.601-2.863c-0.29-1.482-0.564-2.878-0.969-4.074
						c-0.483-1.432-1.18-2.852-1.853-4.23c-0.373-0.76-0.738-1.508-1.068-2.245c-0.407-0.907-0.775-1.815-1.136-2.698
						c-0.574-1.414-1.118-2.745-1.717-3.806l-0.171-0.3c-1.25-2.201-2.433-4.283-3.492-5.774c-0.691-0.972-1.168-1.667-1.539-2.206
						c-0.99-1.443-1.03-1.499-2.753-3.214l5.246-5.279c2.083,2.068,2.398,2.463,3.644,4.28c0.354,0.516,0.809,1.178,1.468,2.106
						c1.28,1.8,2.551,4.039,3.899,6.41l0.171,0.303c0.84,1.479,1.501,3.102,2.139,4.672c0.33,0.807,0.666,1.638,1.037,2.466
						c0.296,0.663,0.625,1.331,0.959,2.015c0.741,1.514,1.58,3.229,2.218,5.114c0.563,1.664,0.898,3.373,1.222,5.028
						c0.166,0.851,0.334,1.714,0.539,2.578c0.427,1.8,0.295,3.529,0.18,5.058c-0.078,1.016-0.152,1.98-0.041,2.763
						c0.242,1.711,0.225,3.338,0.209,4.911c-0.009,0.89-0.019,1.797,0.027,2.728c0.059,0.262,0.582,1.111,0.926,1.673
						c0.978,1.591,2.196,3.573,2.097,6.048c-0.066,1.697-0.407,3.305-0.736,4.861c-0.202,0.951-0.411,1.912-0.53,2.878
						c-0.247,1.994-1.184,3.591-2.01,4.999c-0.485,0.828-0.987,1.682-1.111,2.283c-0.11,0.542-0.018,1.476,0.071,2.377
						c0.153,1.552,0.345,3.488-0.218,5.473c-0.576,2.039-1.946,3.52-3.046,4.71c-0.608,0.657-1.298,1.399-1.461,1.859
						c-0.293,0.819-0.548,1.647-0.806,2.483c-0.462,1.502-0.941,3.055-1.641,4.678c-0.19,0.445-0.243,1.417-0.292,2.277
						c-0.087,1.588-0.196,3.564-1.137,5.447c-1.021,2.047-2.187,4.112-3.374,6.207l-0.286,0.504
						c-0.912,1.614-2.202,2.763-3.342,3.776c-0.773,0.689-1.504,1.34-1.884,1.944c-1.245,1.977-2.581,3.909-3.972,5.918
						l-0.236,0.342c-0.328,0.474-0.61,1.402-0.882,2.298C381.884,725.419,381.361,727.143,380.173,728.728z"/>
				</g>
			</g>
			<g>
				<g>
					<path fill="#FFCA61" d="M429.296,763.723l-5.95-4.472c0.938-1.249,2.031-2.256,2.994-3.143
						c0.831-0.769,1.616-1.491,2.094-2.183c0.903-1.308,1.991-2.363,2.952-3.293c0.81-0.786,1.575-1.529,2.003-2.209
						c0.678-1.075,1.259-2.265,1.875-3.526c0.499-1.019,0.993-2.024,1.53-2.972c0.546-0.966,1.137-1.909,1.725-2.846
						c0.757-1.205,1.471-2.345,2.022-3.444c0.08-0.289-0.053-1.423-0.131-2.1c-0.196-1.67-0.439-3.75,0.411-5.73l0.747-1.711
						c0.719-1.638,1.417-3.22,2.002-4.852c0.706-1.971,2.121-3.379,3.258-4.51c0.499-0.495,1.253-1.246,1.385-1.567
						c0.395-1.396,0.667-2.963,0.931-4.478c0.153-0.881,0.305-1.75,0.479-2.592c0.153-0.748,0.019-1.812-0.122-2.937
						c-0.166-1.314-0.353-2.801-0.161-4.357c0.138-1.108,0.055-2.324-0.034-3.612c-0.08-1.167-0.152-2.321-0.106-3.464
						c0.059-1.485-0.059-2.943-0.184-4.489c-0.066-0.831-0.133-1.659-0.174-2.489c-0.096-1.968,0.529-3.738,1.033-5.158
						c0.243-0.689,0.613-1.732,0.576-2.08c-0.082-0.592-0.644-1.493-1.186-2.368c-0.747-1.202-1.591-2.56-1.984-4.215
						c-0.281-1.187-0.451-2.371-0.611-3.535c-0.174-1.249-0.339-2.433-0.66-3.385c-0.331-0.975-0.616-1.95-0.893-2.907
						c-0.406-1.396-0.789-2.716-1.28-3.812c-0.666-1.488-0.999-2.978-1.292-4.292c-0.239-1.069-0.464-2.08-0.781-2.636
						c-0.351-0.619-1.303-1.255-2.226-1.874c-1.141-0.766-2.435-1.632-3.36-2.934c-0.856-1.205-1.368-1.977-1.747-2.545
						c-0.733-1.105-0.778-1.169-2.336-2.719l5.246-5.279c1.938,1.924,2.274,2.351,3.289,3.877c0.351,0.527,0.825,1.24,1.616,2.354
						c0.178,0.221,0.934,0.728,1.435,1.063c1.488,0.996,3.339,2.236,4.556,4.383c0.865,1.523,1.24,3.205,1.572,4.687
						c0.239,1.066,0.462,2.071,0.822,2.875c0.703,1.567,1.175,3.199,1.633,4.778c0.247,0.851,0.499,1.72,0.794,2.592
						c0.549,1.62,0.77,3.214,0.984,4.752c0.13,0.934,0.256,1.885,0.482,2.84c0.112,0.474,0.597,1.252,1.063,2.006
						c0.862,1.387,1.932,3.111,2.234,5.261c0.299,2.121-0.383,4.05-0.931,5.597c-0.299,0.848-0.639,1.806-0.614,2.309
						c0.037,0.754,0.099,1.502,0.159,2.256c0.137,1.697,0.277,3.45,0.202,5.382c-0.034,0.875,0.034,1.765,0.096,2.663
						c0.103,1.508,0.219,3.217-0.006,5.034c-0.08,0.633,0.035,1.544,0.158,2.51c0.202,1.6,0.43,3.411,0.028,5.364
						c-0.158,0.769-0.295,1.564-0.436,2.371c-0.296,1.7-0.602,3.461-1.111,5.255c-0.598,2.115-2.09,3.6-3.29,4.793
						c-0.573,0.571-1.359,1.352-1.498,1.738c-0.655,1.835-1.438,3.615-2.193,5.338l-0.725,1.661
						c-0.052,0.25,0.066,1.258,0.143,1.924c0.215,1.832,0.482,4.115-0.602,6.289c-0.713,1.426-1.56,2.775-2.377,4.077
						c-0.527,0.84-1.06,1.685-1.551,2.551c-0.464,0.822-0.888,1.694-1.32,2.578c-0.676,1.382-1.374,2.81-2.264,4.224
						c-0.903,1.435-2.081,2.578-3.12,3.585c-0.784,0.76-1.523,1.476-2.012,2.183c-0.949,1.373-2.13,2.46-3.171,3.42
						C430.585,762.318,429.828,763.016,429.296,763.723z"/>
				</g>
			</g>
			<g>
				<g>
					<path fill="#FFCA61" d="M638.076,741.78c-0.225-0.203-1.277-0.598-1.904-0.831c-1.698-0.636-3.81-1.429-5.176-3.338
						c-1.51-2.112-2.938-4.271-4.286-6.339c-0.913-1.402-1.651-2.819-2.364-4.189c-0.446-0.857-0.885-1.706-1.358-2.51
						c-1.081-1.841-1.289-3.844-1.455-5.453c-0.085-0.816-0.19-1.829-0.395-2.224c-1.055-2.033-2.268-4.398-3.345-6.796
						c-0.355-0.792-0.919-1.614-1.514-2.486c-0.819-1.196-1.747-2.554-2.354-4.165c-0.323-0.857-0.673-1.697-1.019-2.527
						c-0.622-1.488-1.264-3.028-1.75-4.648c-0.638-2.118-0.298-4.148-0.024-5.78c0.131-0.781,0.295-1.756,0.206-2.153
						c-0.162-0.734-0.586-1.585-1.037-2.486c-0.679-1.364-1.449-2.907-1.708-4.757l-0.267-1.82c-0.284-1.894-0.577-3.85-0.686-5.824
						c-0.11-1.982-0.009-3.827,0.088-5.609c0.04-0.707,0.078-1.411,0.1-2.106c0.025-0.739-0.184-1.688-0.404-2.692
						c-0.339-1.544-0.723-3.29-0.488-5.182c0.236-1.873,0.837-3.55,1.368-5.025c0.306-0.854,0.617-1.691,0.801-2.525
						c0.468-2.127,1.653-3.753,2.604-5.058c0.51-0.698,1.035-1.42,1.184-1.882c0.259-0.81,0.373-1.773,0.492-2.796
						c0.172-1.476,0.368-3.152,1.072-4.796c0.292-0.68,0.404-1.679,0.521-2.74c0.175-1.585,0.376-3.382,1.287-5.049
						c1.019-1.862,2.302-3.373,3.335-4.587c0.518-0.61,1.01-1.178,1.399-1.744c1.943-2.828,2.585-3.452,3.743-4.492
						c0.395-0.354,0.884-0.789,1.636-1.561l5.329,5.196c-0.919,0.943-1.513,1.476-1.994,1.909c-0.766,0.686-1.053,0.943-2.579,3.164
						c-0.521,0.76-1.168,1.532-1.862,2.348c-0.896,1.055-1.823,2.145-2.476,3.341c-0.206,0.377-0.326,1.44-0.42,2.298
						c-0.165,1.479-0.351,3.155-1.077,4.849c-0.278,0.651-0.396,1.661-0.521,2.728c-0.149,1.27-0.317,2.707-0.798,4.207
						c-0.514,1.602-1.439,2.872-2.256,3.994c-0.598,0.819-1.217,1.667-1.349,2.271c-0.268,1.217-0.675,2.348-1.066,3.441
						c-0.439,1.222-0.854,2.377-0.987,3.435c-0.077,0.619,0.152,1.656,0.371,2.66c0.295,1.343,0.629,2.863,0.574,4.531
						c-0.025,0.751-0.066,1.508-0.108,2.271c-0.091,1.656-0.177,3.217-0.09,4.79c0.09,1.626,0.346,3.329,0.616,5.132l0.278,1.891
						c0.09,0.651,0.53,1.535,0.997,2.469c0.601,1.208,1.283,2.572,1.642,4.198c0.402,1.809,0.119,3.503-0.131,4.996
						c-0.146,0.869-0.327,1.95-0.19,2.407c0.376,1.252,0.918,2.551,1.491,3.924c0.38,0.91,0.763,1.832,1.116,2.772
						c0.29,0.772,0.893,1.653,1.53,2.583c0.719,1.052,1.535,2.242,2.162,3.641c0.996,2.218,2.153,4.475,3.161,6.416
						c0.856,1.647,1.034,3.367,1.192,4.884c0.097,0.94,0.208,2.003,0.47,2.451c0.536,0.913,1.037,1.873,1.544,2.846
						c0.658,1.267,1.28,2.463,1.994,3.559c1.293,1.98,2.66,4.05,4.108,6.074c0.159,0.106,1.105,0.463,1.729,0.695
						c1.672,0.627,3.751,1.405,5.174,3.237L638.076,741.78z"/>
				</g>
			</g>
			<g>
				<g>
					<path fill="#FFCA61" d="M574.382,757.735c-0.461-0.68-1.195-1.37-1.972-2.103c-1.055-0.99-2.251-2.115-3.165-3.585
						c-0.392-0.63-1.124-1.314-1.9-2.036c-1.109-1.031-2.365-2.201-3.257-3.782c-0.963-1.711-1.283-3.488-1.563-5.058
						c-0.175-0.978-0.342-1.903-0.613-2.442c-1.197-2.386-2.324-4.634-3.307-6.867c-0.331-0.754-0.923-1.573-1.549-2.436
						c-0.87-1.202-1.857-2.563-2.472-4.209c-0.757-2.033-0.592-4.071-0.46-5.709c0.066-0.816,0.147-1.832,0.022-2.248
						c-0.255-0.84-0.697-1.732-1.164-2.675c-0.648-1.308-1.38-2.787-1.766-4.463c-0.417-1.806-0.399-3.526-0.383-5.043
						c0.01-0.984,0.021-1.915-0.097-2.675c-0.345-2.23-0.726-4.878-0.928-7.588c-0.055-0.739-0.362-1.658-0.689-2.631
						c-0.496-1.482-1.057-3.161-1.04-5.049c0.019-2,0.613-3.726,1.137-5.246c0.312-0.91,0.608-1.77,0.672-2.416
						c0.184-1.876,0.731-3.514,1.211-4.958c0.297-0.896,0.579-1.741,0.725-2.501c0.138-0.725,0.08-1.673,0.016-2.681
						c-0.097-1.552-0.208-3.314,0.324-5.146c0.203-0.704,0.224-1.691,0.246-2.74c0.034-1.6,0.072-3.414,0.773-5.19
						c0.949-2.407,2.984-3.718,4.62-4.772c0.533-0.345,1.339-0.863,1.539-1.111c0.115-0.247,0.093-1.449,0.078-2.245
						c-0.032-1.75-0.072-3.927,1.133-5.83c1.214-1.912,2.834-3.187,4.134-4.212c0.635-0.498,1.29-1.016,1.566-1.364
						c2.061-2.616,3.299-3.311,4.704-3.947c0.516-0.233,0.826-0.374,1.557-1.034l4.984,5.532c-1.47,1.323-2.48,1.835-3.472,2.283
						c-0.532,0.242-0.826,0.374-1.925,1.77c-0.822,1.043-1.832,1.841-2.809,2.61c-0.99,0.778-1.924,1.514-2.454,2.348
						c-0.006,0.13,0.012,1.078,0.024,1.709c0.031,1.714,0.071,3.847-0.951,5.862c-0.95,1.871-2.684,2.987-4.076,3.885
						c-0.583,0.377-1.558,1.005-1.762,1.317c-0.178,0.465-0.2,1.523-0.222,2.545c-0.029,1.414-0.063,3.014-0.539,4.654
						c-0.169,0.589-0.109,1.573-0.044,2.613c0.085,1.355,0.181,2.893-0.134,4.542c-0.239,1.246-0.611,2.365-0.974,3.452
						c-0.392,1.178-0.762,2.292-0.865,3.335c-0.147,1.511-0.623,2.893-1.041,4.109c-0.373,1.081-0.725,2.103-0.732,2.896
						c-0.006,0.639,0.315,1.597,0.654,2.61c0.436,1.302,0.931,2.778,1.055,4.448c0.183,2.448,0.538,4.914,0.862,7.005
						c0.211,1.361,0.197,2.645,0.184,3.888c-0.013,1.208-0.025,2.348,0.191,3.29c0.191,0.828,0.673,1.8,1.184,2.831
						c0.554,1.119,1.181,2.389,1.616,3.818c0.538,1.77,0.398,3.491,0.274,5.011c-0.077,0.952-0.163,2.027,0.015,2.507
						c0.261,0.698,0.875,1.544,1.524,2.442c0.791,1.093,1.688,2.33,2.337,3.809c0.932,2.121,2.005,4.254,3.103,6.442
						c0.795,1.582,1.078,3.158,1.329,4.551c0.193,1.081,0.377,2.103,0.722,2.716c0.323,0.574,1.06,1.261,1.84,1.985
						c1.049,0.975,2.237,2.08,3.153,3.556c0.401,0.645,1.149,1.349,1.941,2.091c0.99,0.931,2.112,1.988,3.036,3.349L574.382,757.735
						z"/>
				</g>
			</g>
			<g>
				<g>
					<path fill="#FFCA61" d="M514.404,756.665h-7.444c0-0.863-0.143-1.096-0.613-1.874c-0.673-1.113-1.691-2.793-1.691-5.732
						c0-1.714-0.087-2.572-0.172-3.429c-0.099-0.981-0.211-2.089-0.211-4.177c0-2.525,0.477-3.906,0.862-5.014
						c0.281-0.816,0.452-1.308,0.452-2.581c0-1.402-0.162-1.997-0.386-2.819c-0.289-1.06-0.647-2.377-0.647-4.772
						c0-2.03,0.071-3.043,0.141-4.056c0.062-0.884,0.124-1.768,0.124-3.535c0-2.704,0.694-4.224,1.2-5.335
						c0.362-0.798,0.529-1.161,0.529-2.248c0-2.053,0.088-3.078,0.177-4.106c0.075-0.866,0.15-1.732,0.15-3.464
						c0-1.208-0.171-1.653-0.482-2.46c-0.411-1.072-0.975-2.542-0.975-5.129c0-1.178-0.175-1.614-0.493-2.407
						c-0.436-1.081-1.031-2.563-1.031-5.179c0-2.737,0.731-4.271,1.265-5.391c0.371-0.781,0.541-1.137,0.541-2.192
						c0-1.714-0.084-2.572-0.168-3.432c-0.096-0.972-0.205-2.077-0.205-4.154c0-2.53,0.489-3.915,0.881-5.026
						c0.284-0.807,0.457-1.296,0.457-2.554c0-1.202-0.171-1.644-0.483-2.448c-0.415-1.072-0.984-2.545-0.984-5.135
						c0-1.455-0.147-2.071-0.352-2.922c-0.247-1.034-0.555-2.318-0.555-4.651c0-3.214,1.48-5.043,2.365-6.133
						c0.645-0.798,0.706-0.887,0.706-1.449c0-0.445,0-0.489-0.739-1.329c-0.969-1.102-2.594-2.949-2.594-6.245h7.444
						c0,0.442,0,0.489,0.738,1.326c0.971,1.102,2.595,2.949,2.595,6.248c0,3.214-1.48,5.043-2.365,6.133
						c-0.645,0.798-0.706,0.887-0.706,1.449c0,1.452,0.147,2.068,0.351,2.919c0.249,1.034,0.557,2.321,0.557,4.654
						c0,1.202,0.171,1.644,0.483,2.448c0.415,1.072,0.984,2.545,0.984,5.135c0,2.533-0.489,3.918-0.881,5.031
						c-0.284,0.804-0.457,1.293-0.457,2.548c0,1.714,0.084,2.569,0.168,3.426c0.096,0.975,0.205,2.08,0.205,4.159
						c0,2.737-0.731,4.271-1.265,5.391c-0.371,0.781-0.541,1.137-0.541,2.192c0,1.175,0.175,1.611,0.493,2.404
						c0.434,1.081,1.031,2.563,1.031,5.182c0,1.208,0.171,1.653,0.482,2.46c0.411,1.072,0.975,2.542,0.975,5.129
						c0,2.053-0.088,3.078-0.177,4.106c-0.075,0.866-0.15,1.732-0.15,3.464c0,2.704-0.694,4.224-1.2,5.335
						c-0.362,0.798-0.529,1.161-0.529,2.248c0,2.027-0.071,3.04-0.141,4.053c-0.062,0.884-0.124,1.767-0.124,3.538
						c0,1.399,0.162,1.994,0.386,2.816c0.287,1.06,0.647,2.38,0.647,4.775c0,2.525-0.477,3.906-0.862,5.014
						c-0.281,0.816-0.452,1.308-0.452,2.581c0,1.714,0.087,2.572,0.172,3.429c0.099,0.981,0.211,2.089,0.211,4.177
						c0,0.863,0.143,1.096,0.613,1.874C513.387,752.046,514.404,753.725,514.404,756.665z"/>
				</g>
			</g>
		</g>
	</g>
	<g>
		<g>
			<g>
				<g>
					<path fill="#EA5467" d="M695.18,937.328c-2.22-75.541-67.481-157.823-113.735-188.166
						c-13.033-8.563-22.945-10.996-30.238-7.426c-11.814,5.761-13.48,25.902-14.961,43.637c-0.475,5.788-0.923,11.234-1.69,15.753
						c-3.092,18.264,2.036,40.545,5.578,52.784c1.848,2.245,17.189,18.181,20.38,18.808c-3.19-0.625-8.874-5.832-14.673-12.201
						c-1.904-2.115-23.473-18.469-22.681-28.107c-0.313-195.125-0.232-229.444,0.19-235.889l0,0
						c0.052-0.714,0.104-1.083,0.158-1.295l-0.029-0.027c0.108-0.185,0.449-0.845,0.982-1.85c2.1-4.013,4.098-7.704,6.007-11.109
						h-42.738c1.912,3.413,3.912,7.112,6.014,11.135c0.531,0.979,0.847,1.639,0.981,1.824l-0.053,0.027
						c0.053,0.237,0.105,0.633,0.156,1.453c0.422,6.812,0.503,42.097,0.192,235.72c-0.258,5.941-20.782,26.004-22.685,28.119
						c-6.185,6.793-12.238,12.264-15.279,12.264c-4.413,0-11.153-4.256-15.354-9.673c-1.977-2.55-3.181-5.089-3.55-7.399
						c0.369,2.31,1.574,4.849,3.55,7.398c4.201,5.418,10.941,9.673,15.355,9.673c3.041,0,9.094-5.471,15.279-12.264
						c1.903-2.115,3.858-4.362,5.709-6.607c3.542-12.239,8.67-34.52,5.575-52.784c-0.763-4.52-1.215-9.965-1.69-15.753
						c-1.453-17.735-3.144-37.876-14.959-43.637c-7.295-3.569-17.207-1.137-30.238,7.426
						c-46.254,30.342-111.511,112.624-113.735,188.166c-2.14,73.029,0.927,121.451,60.738,128.985
						c6.82,0.845,13.299,1.294,19.458,1.268c22.916,0,40.994-5.974,53.838-17.894c15.807-14.643,23.025-37.823,21.517-68.88
						c-2.908-58.728-5.26-89.601-5.762-96.023c12.025-11.55,23.997-21.991,26.564-24.238l0.003-0.002h19.475
						c2.565,2.247,14.537,12.661,26.565,24.212c1.11,1.057,2.194,2.114,3.279,3.171c8.984,8.749,17.494,17.788,21.594,24.08
						c0.436,0.669,0.841,1.337,1.232,2.005c-0.391-0.667-0.796-1.335-1.231-2.004c-4.099-6.292-12.609-15.331-21.594-24.08
						c-1.085-1.057-2.169-2.114-3.279-3.171c-0.503,6.343-2.855,37.241-5.736,96.051c-1.534,31.056,5.71,54.237,21.486,68.88
						c12.846,11.92,30.927,17.92,53.843,17.894c6.159,0,12.633-0.423,19.452-1.269C694.251,1058.78,697.318,1010.358,695.18,937.328
						z"/>
				</g>
			</g>
			<g>
				<g>
					<path fill="#EA5467" d="M493.322,598.214l1.504-1.534C494.19,597.156,493.69,597.686,493.322,598.214z"/>
				</g>
			</g>
		</g>
		<g>
			<g>
				<g>
					<g>
						<path fill="#FFFFFF" d="M614.605,984.156c-13.729,0-24.899-11.169-24.899-24.899c0-13.729,11.169-24.899,24.899-24.899
							c13.729,0,24.899,11.169,24.899,24.899C639.504,972.986,628.334,984.156,614.605,984.156z M614.605,937.876
							c-11.79,0-21.381,9.592-21.381,21.381s9.591,21.381,21.381,21.381c11.79,0,21.381-9.591,21.381-21.381
							S626.394,937.876,614.605,937.876z"/>
					</g>
				</g>
			</g>
			<g>
				<g>
					<g>
						<g>
							
								<ellipse transform="matrix(0.9067 -0.4218 0.4218 0.9067 -345.1025 352.3493)" fill="#FFFFFF" cx="623.875" cy="956.22" rx="2.104" ry="2.104"/>
						</g>
					</g>
					<g>
						<g>
							<path fill="#FFFFFF" d="M623.876,958.682c-0.284,0-0.57-0.05-0.845-0.151c-0.617-0.225-1.11-0.678-1.387-1.273
								c-0.572-1.23-0.036-2.697,1.193-3.269c0.596-0.278,1.263-0.306,1.882-0.081c0.617,0.225,1.11,0.678,1.387,1.273
								c0.572,1.23,0.037,2.697-1.193,3.269C624.582,958.605,624.23,958.682,623.876,958.682z M623.874,954.472
								c-0.251,0-0.501,0.055-0.736,0.164c-0.873,0.406-1.253,1.447-0.847,2.321c0.197,0.423,0.547,0.744,0.985,0.904
								c0.438,0.16,0.913,0.14,1.336-0.057c0.873-0.406,1.253-1.447,0.847-2.321l0,0c-0.197-0.423-0.546-0.744-0.985-0.904
								C624.278,954.508,624.076,954.472,623.874,954.472z"/>
						</g>
					</g>
				</g>
				<g>
					<g>
						<g>
							
								<ellipse transform="matrix(0.9067 -0.4218 0.4218 0.9067 -348.4021 349.0515)" fill="#FFFFFF" cx="614.771" cy="962.029" rx="2.104" ry="2.104"/>
						</g>
					</g>
					<g>
						<g>
							<path fill="#FFFFFF" d="M614.772,964.492c-0.285,0-0.57-0.05-0.845-0.151c-0.617-0.225-1.11-0.678-1.387-1.274
								c-0.277-0.596-0.306-1.264-0.081-1.882c0.225-0.617,0.678-1.11,1.273-1.387c0.595-0.277,1.263-0.306,1.882-0.08
								c0.617,0.225,1.11,0.678,1.387,1.273l0,0c0.572,1.23,0.037,2.697-1.193,3.269
								C615.478,964.414,615.126,964.492,614.772,964.492z M614.77,960.282c-0.251,0-0.501,0.055-0.736,0.164
								c-0.423,0.197-0.744,0.546-0.904,0.985c-0.16,0.438-0.14,0.913,0.057,1.336c0.197,0.423,0.546,0.744,0.985,0.904
								c0.439,0.16,0.913,0.139,1.336-0.057c0.873-0.406,1.253-1.447,0.847-2.321c-0.197-0.423-0.547-0.744-0.985-0.904
								C615.174,960.317,614.971,960.282,614.77,960.282z"/>
						</g>
					</g>
				</g>
				<g>
					<g>
						<g>
							
								<ellipse transform="matrix(0.9067 -0.4218 0.4218 0.9067 -343.4182 347.9554)" fill="#FFFFFF" cx="614.785" cy="950.216" rx="2.104" ry="2.104"/>
						</g>
					</g>
					<g>
						<g>
							<path fill="#FFFFFF" d="M614.789,952.677c-0.928,0-1.818-0.527-2.235-1.423c-0.277-0.596-0.306-1.264-0.08-1.882
								c0.225-0.617,0.678-1.11,1.274-1.387c1.231-0.572,2.696-0.036,3.269,1.193c0.277,0.596,0.306,1.264,0.081,1.882
								s-0.678,1.11-1.273,1.387C615.488,952.603,615.136,952.677,614.789,952.677z M614.782,948.47
								c-0.246,0-0.496,0.052-0.734,0.163c-0.423,0.197-0.744,0.546-0.904,0.985c-0.16,0.438-0.14,0.913,0.057,1.336
								c0.406,0.873,1.447,1.252,2.321,0.847c0.423-0.197,0.744-0.547,0.904-0.985c0.16-0.438,0.14-0.913-0.057-1.336
								C616.073,948.844,615.441,948.47,614.782,948.47z"/>
						</g>
					</g>
				</g>
			</g>
			<g>
				<g>
					<g>
						<g>
							<line fill="#FFFFFF" x1="615.042" y1="936.331" x2="615.042" y2="926.339"/>
						</g>
					</g>
					<g>
						<g>
							<rect x="613.283" y="926.339" fill="#FFFFFF" width="3.518" height="9.991"/>
						</g>
					</g>
				</g>
				<g>
					<g>
						<g>
							<line fill="#FFFFFF" x1="615.042" y1="982.718" x2="615.042" y2="991.996"/>
						</g>
					</g>
					<g>
						<g>
							<rect x="613.283" y="982.718" fill="#FFFFFF" width="3.518" height="9.278"/>
						</g>
					</g>
				</g>
				<g>
					<g>
						<g>
							<rect x="609.689" y="990.951" fill="#FFFFFF" width="10.705" height="3.518"/>
						</g>
					</g>
				</g>
				<g>
					<g>
						<g>
							<rect x="609.689" y="924.58" fill="#FFFFFF" width="10.705" height="3.518"/>
						</g>
					</g>
				</g>
			</g>
			<g>
				<g>
					<g>
						<g>
							<line fill="#FFFFFF" x1="591.848" y1="959.524" x2="581.856" y2="959.524"/>
						</g>
					</g>
					<g>
						<g>
							<rect x="581.856" y="957.766" fill="#FFFFFF" width="9.991" height="3.518"/>
						</g>
					</g>
				</g>
				<g>
					<g>
						<g>
							<line fill="#FFFFFF" x1="638.236" y1="959.524" x2="647.513" y2="959.524"/>
						</g>
					</g>
					<g>
						<g>
							<rect x="638.236" y="957.766" fill="#FFFFFF" width="9.277" height="3.518"/>
						</g>
					</g>
				</g>
				<g>
					<g>
						<g>
							<rect x="646.468" y="954.172" fill="#FFFFFF" width="3.518" height="10.705"/>
						</g>
					</g>
				</g>
				<g>
					<g>
						<g>
							<rect x="580.097" y="954.172" fill="#FFFFFF" width="3.518" height="10.705"/>
						</g>
					</g>
				</g>
			</g>
			<g>
				<g>
					<g>
						<g>
							<line fill="#FFFFFF" x1="602.909" y1="971.3" x2="589.35" y2="984.859"/>
						</g>
					</g>
					<g>
						<g>
							
								<rect x="586.541" y="976.321" transform="matrix(0.7071 -0.7071 0.7071 0.7071 -517.0044 708.0001)" fill="#FFFFFF" width="19.176" height="3.518"/>
						</g>
					</g>
				</g>
				<g>
					<g>
						<g>
							<line fill="#FFFFFF" x1="639.663" y1="934.546" x2="626.103" y2="948.106"/>
						</g>
					</g>
					<g>
						<g>
							
								<rect x="623.295" y="939.567" transform="matrix(0.7071 -0.7071 0.7071 0.7071 -480.2509 723.2239)" fill="#FFFFFF" width="19.176" height="3.518"/>
						</g>
					</g>
				</g>
				<g>
					<g>
						<g>
							
								<rect x="639.246" y="928.209" transform="matrix(0.7071 -0.7071 0.7071 0.7071 -472.3816 726.6926)" fill="#FFFFFF" width="3.518" height="10.705"/>
						</g>
					</g>
				</g>
				<g>
					<g>
						<g>
							
								<rect x="587.676" y="979.779" transform="matrix(0.7071 -0.7071 0.7071 0.7071 -523.9514 705.3317)" fill="#FFFFFF" width="3.518" height="10.705"/>
						</g>
					</g>
				</g>
			</g>
			<g>
				<g>
					<g>
						<g>
							<line fill="#FFFFFF" x1="603.266" y1="947.035" x2="589.707" y2="933.476"/>
						</g>
					</g>
					<g>
						<g>
							
								<rect x="594.728" y="930.667" transform="matrix(0.7071 -0.7071 0.7071 0.7071 -490.1542 697.1741)" fill="#FFFFFF" width="3.518" height="19.176"/>
						</g>
					</g>
				</g>
				<g>
					<g>
						<g>
							<line fill="#FFFFFF" x1="640.02" y1="983.789" x2="626.46" y2="970.229"/>
						</g>
					</g>
					<g>
						<g>
							
								<rect x="631.481" y="967.421" transform="matrix(0.7071 -0.7071 0.7071 0.7071 -505.3781 733.9276)" fill="#FFFFFF" width="3.518" height="19.176"/>
						</g>
					</g>
				</g>
				<g>
					<g>
						<g>
							
								<rect x="635.652" y="983.372" transform="matrix(0.7071 -0.7071 0.7071 0.7071 -508.8469 741.797)" fill="#FFFFFF" width="10.705" height="3.518"/>
						</g>
					</g>
				</g>
				<g>
					<g>
						<g>
							
								<rect x="584.083" y="931.802" transform="matrix(0.7071 -0.7071 0.7071 0.7071 -487.486 690.2272)" fill="#FFFFFF" width="10.705" height="3.518"/>
						</g>
					</g>
				</g>
			</g>
		</g>
		<g>
			<g>
				<g>
					<g>
						<path fill="#FFFFFF" d="M397.619,967.791c-19.551,0-35.457-15.906-35.457-35.457c0-19.551,15.906-35.457,35.457-35.457
							c19.551,0,35.457,15.906,35.457,35.457C433.076,951.885,417.17,967.791,397.619,967.791z M397.619,901.886
							c-16.789,0-30.448,13.659-30.448,30.448s13.659,30.448,30.448,30.448c16.789,0,30.448-13.659,30.448-30.448
							S414.408,901.886,397.619,901.886z"/>
					</g>
				</g>
			</g>
			<g>
				<g>
					<g>
						<g>
							
								<ellipse transform="matrix(0.9067 -0.4218 0.4218 0.9067 -353.0819 259.856)" fill="#FFFFFF" cx="410.82" cy="928.01" rx="2.996" ry="2.996"/>
						</g>
					</g>
					<g>
						<g>
							<path fill="#FFFFFF" d="M410.821,931.516c-0.405,0-0.811-0.071-1.203-0.214c-0.879-0.321-1.581-0.965-1.976-1.813
								c-0.814-1.752-0.052-3.84,1.699-4.655c0.848-0.395,1.799-0.436,2.679-0.115c0.879,0.321,1.581,0.965,1.975,1.813
								c0.815,1.752,0.053,3.84-1.699,4.655C411.827,931.406,411.325,931.516,410.821,931.516z M410.818,925.521
								c-0.358,0-0.714,0.078-1.048,0.234c-1.244,0.578-1.785,2.061-1.207,3.305c0.28,0.602,0.779,1.06,1.403,1.288
								c0.624,0.228,1.3,0.199,1.902-0.081c1.244-0.579,1.785-2.061,1.206-3.305l0,0c-0.28-0.603-0.778-1.06-1.402-1.288
								C411.394,925.572,411.106,925.521,410.818,925.521z"/>
						</g>
					</g>
				</g>
				<g>
					<g>
						<g>
							
								<ellipse transform="matrix(0.9067 -0.4218 0.4218 0.9067 -357.7807 255.1597)" fill="#FFFFFF" cx="397.855" cy="936.282" rx="2.996" ry="2.996"/>
						</g>
					</g>
					<g>
						<g>
							<path fill="#FFFFFF" d="M397.857,939.788c-0.405,0-0.812-0.071-1.204-0.214c-0.879-0.321-1.581-0.965-1.975-1.814
								c-0.395-0.848-0.436-1.8-0.115-2.679c0.321-0.879,0.965-1.581,1.813-1.975c0.848-0.395,1.799-0.436,2.679-0.115
								c0.879,0.321,1.581,0.965,1.976,1.813l0,0c0.814,1.752,0.052,3.84-1.699,4.655
								C398.862,939.678,398.361,939.788,397.857,939.788z M397.853,933.794c-0.358,0-0.714,0.078-1.048,0.234
								c-0.602,0.28-1.06,0.778-1.288,1.402c-0.228,0.624-0.199,1.3,0.081,1.902c0.28,0.603,0.778,1.06,1.402,1.288
								c0.624,0.228,1.3,0.198,1.902-0.081c1.244-0.578,1.785-2.061,1.207-3.305c-0.28-0.602-0.779-1.06-1.403-1.288
								C398.43,933.844,398.141,933.794,397.853,933.794z"/>
						</g>
					</g>
				</g>
				<g>
					<g>
						<g>
							
								<ellipse transform="matrix(0.9067 -0.4218 0.4218 0.9067 -350.6834 253.5988)" fill="#FFFFFF" cx="397.875" cy="919.46" rx="2.996" ry="2.996"/>
						</g>
					</g>
					<g>
						<g>
							<path fill="#FFFFFF" d="M397.881,922.964c-1.322,0-2.59-0.751-3.183-2.026c-0.395-0.849-0.436-1.8-0.115-2.679
								c0.321-0.879,0.965-1.581,1.814-1.975c1.752-0.815,3.839-0.052,4.655,1.699c0.395,0.848,0.436,1.8,0.115,2.679
								c-0.321,0.879-0.965,1.581-1.813,1.976C398.877,922.859,398.375,922.964,397.881,922.964z M397.872,916.973
								c-0.351,0-0.707,0.074-1.045,0.232c-0.603,0.28-1.06,0.778-1.288,1.402c-0.228,0.624-0.199,1.3,0.081,1.902
								c0.578,1.243,2.061,1.783,3.305,1.207c0.602-0.28,1.06-0.779,1.288-1.403c0.228-0.624,0.199-1.3-0.081-1.902
								C399.71,917.506,398.81,916.973,397.872,916.973z"/>
						</g>
					</g>
				</g>
			</g>
			<g>
				<g>
					<g>
						<g>
							<line fill="#FFFFFF" x1="398.241" y1="899.686" x2="398.241" y2="885.458"/>
						</g>
					</g>
					<g>
						<g>
							<rect x="395.736" y="885.458" fill="#FFFFFF" width="5.009" height="14.228"/>
						</g>
					</g>
				</g>
				<g>
					<g>
						<g>
							<line fill="#FFFFFF" x1="398.241" y1="965.744" x2="398.241" y2="978.956"/>
						</g>
					</g>
					<g>
						<g>
							<rect x="395.736" y="965.744" fill="#FFFFFF" width="5.009" height="13.212"/>
						</g>
					</g>
				</g>
				<g>
					<g>
						<g>
							<rect x="390.618" y="977.468" fill="#FFFFFF" width="15.245" height="5.009"/>
						</g>
					</g>
				</g>
				<g>
					<g>
						<g>
							<rect x="390.618" y="882.953" fill="#FFFFFF" width="15.245" height="5.009"/>
						</g>
					</g>
				</g>
			</g>
			<g>
				<g>
					<g>
						<g>
							<line fill="#FFFFFF" x1="365.211" y1="932.715" x2="350.983" y2="932.715"/>
						</g>
					</g>
					<g>
						<g>
							<rect x="350.983" y="930.211" fill="#FFFFFF" width="14.228" height="5.009"/>
						</g>
					</g>
				</g>
				<g>
					<g>
						<g>
							<line fill="#FFFFFF" x1="431.27" y1="932.715" x2="444.482" y2="932.715"/>
						</g>
					</g>
					<g>
						<g>
							<rect x="431.27" y="930.211" fill="#FFFFFF" width="13.212" height="5.009"/>
						</g>
					</g>
				</g>
				<g>
					<g>
						<g>
							<rect x="442.994" y="925.093" fill="#FFFFFF" width="5.009" height="15.244"/>
						</g>
					</g>
				</g>
				<g>
					<g>
						<g>
							<rect x="348.479" y="925.093" fill="#FFFFFF" width="5.009" height="15.244"/>
						</g>
					</g>
				</g>
			</g>
			<g>
				<g>
					<g>
						<g>
							<line fill="#FFFFFF" x1="380.964" y1="949.484" x2="361.654" y2="968.793"/>
						</g>
					</g>
					<g>
						<g>
							
								<rect x="357.655" y="956.634" transform="matrix(0.7071 -0.7071 0.7071 0.7071 -569.4594 543.4803)" fill="#FFFFFF" width="27.308" height="5.009"/>
						</g>
					</g>
				</g>
				<g>
					<g>
						<g>
							<line fill="#FFFFFF" x1="433.303" y1="897.145" x2="413.993" y2="916.455"/>
						</g>
					</g>
					<g>
						<g>
							
								<rect x="409.994" y="904.295" transform="matrix(0.7071 -0.7071 0.7071 0.7071 -517.1207 565.1599)" fill="#FFFFFF" width="27.307" height="5.009"/>
						</g>
					</g>
				</g>
				<g>
					<g>
						<g>
							
								<rect x="432.709" y="888.12" transform="matrix(0.7071 -0.7071 0.7071 0.7071 -505.9144 570.0993)" fill="#FFFFFF" width="5.009" height="15.244"/>
						</g>
					</g>
				</g>
				<g>
					<g>
						<g>
							
								<rect x="359.271" y="961.558" transform="matrix(0.7071 -0.7071 0.7071 0.7071 -579.3521 539.6804)" fill="#FFFFFF" width="5.009" height="15.244"/>
						</g>
					</g>
				</g>
			</g>
			<g>
				<g>
					<g>
						<g>
							<line fill="#FFFFFF" x1="381.472" y1="914.93" x2="362.163" y2="895.621"/>
						</g>
					</g>
					<g>
						<g>
							
								<rect x="369.313" y="891.621" transform="matrix(0.7071 -0.7071 0.7071 0.7071 -531.2235 528.0636)" fill="#FFFFFF" width="5.009" height="27.308"/>
						</g>
					</g>
				</g>
				<g>
					<g>
						<g>
							<line fill="#FFFFFF" x1="433.811" y1="967.269" x2="414.501" y2="947.959"/>
						</g>
					</g>
					<g>
						<g>
							
								<rect x="421.651" y="943.96" transform="matrix(0.7071 -0.7071 0.7071 0.7071 -552.9029 580.4023)" fill="#FFFFFF" width="5.009" height="27.308"/>
						</g>
					</g>
				</g>
				<g>
					<g>
						<g>
							
								<rect x="427.591" y="966.675" transform="matrix(0.7071 -0.7071 0.7071 0.7071 -557.8427 591.6087)" fill="#FFFFFF" width="15.244" height="5.009"/>
						</g>
					</g>
				</g>
				<g>
					<g>
						<g>
							
								<rect x="354.154" y="893.238" transform="matrix(0.7071 -0.7071 0.7071 0.7071 -527.4238 518.171)" fill="#FFFFFF" width="15.244" height="5.009"/>
						</g>
					</g>
				</g>
			</g>
		</g>
	</g>
	<g>
		<g>
			<path fill="#273252" d="M903.427,854.098c-62.885,145.636-207.894,247.831-376.342,247.831S213.629,999.734,150.744,854.098
				h-15.539c63.738,153.728,215.376,262.144,391.881,262.144s328.143-108.417,391.881-262.144H903.427z"/>
		</g>
	</g>
</g>
</svg>
