<svg xmlns="http://www.w3.org/2000/svg" viewBox="0 0 1200 1200"><path fill="none" d="M385.498 1045.979c-8.502-4.097-16.852-8.458-25.076-13.019 8.224 4.561 16.573 8.922 25.076 13.019zM347.265 1025.397zM245.951 945.557c4.163 4.264 8.376 8.478 12.689 12.591-4.313-4.113-8.527-8.327-12.689-12.591zM418.582 139.551zM418.582 1060.45zM353.726 170.784zM303.973 203.526zM107.033 642.105c-.479-5.69-.891-11.4-1.176-17.143-.297-5.982-.454-11.999-.537-18.035-.032-2.308-.088-4.61-.088-6.926 0-1.395.041-2.781.053-4.173.392-47.392 7.447-93.19 20.275-136.513a491.914 491.914 0 0145.224-105.588c-41.702 72.522-65.552 156.613-65.552 246.274s23.85 173.752 65.552 246.274a491.53 491.53 0 01-53.893-139.183 493.971 493.971 0 01-9.858-64.987zM180.751 862.786c-3.418-5.44-6.759-10.931-9.967-16.512 3.208 5.581 6.55 11.072 9.967 16.512zM234.323 933.272zM333.325 183.179zM323.371 1010.27zM389.568 152.122c5.892-2.773 11.83-5.463 17.846-8.007a491.696 491.696 0 00-21.916 9.908c.358-.172.723-.333 1.082-.505.99-.475 1.994-.929 2.988-1.396zM182.067 335.106c.375-.591.735-1.192 1.112-1.781a493.716 493.716 0 00-12.395 20.401c2.736-4.759 5.577-9.448 8.465-14.105.935-1.508 1.867-3.017 2.818-4.515zM407.414 1055.887zM258.64 241.853zM241.853 258.64a496.884 496.884 0 00-58.675 74.686 496.548 496.548 0 0126.9-37.901 497.852 497.852 0 0131.775-36.785z"/><path fill="#A694C4" d="M137.195 458.312c6.814-.076 20.9-.452 33.545 1.987 1.12-27.503 3.175-54.868 6.031-81.912 1.35-12.781 2.925-25.54 4.638-38.283l-2.162-.482c-2.888 4.656-5.729 9.346-8.465 14.105a491.914 491.914 0 00-45.224 105.588c3.821-.581 7.693-.958 11.637-1.003zM1082.034 709.787c-4.542 1.456-11.976 3.71-20.376 5.491a298.254 298.254 0 01-1.317 4.237l-4.855 15.3c-4.834 15.229-22.296 16.292-30.773 5.94-4.899-5.983-9.263-14.475-11.887-23.482-17.329 82.137-49.337 160.229-97.712 226.501-.225 12.897-.39 25.602-.496 38.096a497.827 497.827 0 0035.236-32.015 496.811 496.811 0 0073.285-93.298 492.474 492.474 0 0045.633-97.869 490.644 490.644 0 0013.326-46.949c.163-.706.303-1.421.463-2.128-.177.057-.349.12-.527.176zM251.191 868.723c-27.094-50.177-46.34-103.596-59.308-158.693-2.498 2.801-5.816 4.72-9.648 5.979-2.573 9.472-7.096 18.485-12.222 24.746-8.477 10.352-25.939 9.289-30.773-5.94l-4.855-15.3c-.785-2.47-1.545-4.966-2.22-7.482a224.757 224.757 0 01-15.273-4.942 491.548 491.548 0 0053.893 139.183c3.208 5.581 6.55 11.072 9.967 16.512a496.85 496.85 0 0053.571 70.485 497.64 497.64 0 0011.628 12.286c4.163 4.264 8.376 8.478 12.689 12.591a497.479 497.479 0 0064.731 52.122c5.316 3.591 10.725 7.054 16.186 10.44a477.824 477.824 0 007.709 4.687c.403.24.807.477 1.211.716a1387.009 1387.009 0 00-4.697-33.345c-36.69-36.908-68.079-78.653-92.589-124.045z"/><path fill="#312E4C" d="M181.41 340.104c.223-1.665.427-3.333.657-4.998-.951 1.497-1.883 3.007-2.818 4.516l2.161.482zM1069.603 458.312c1.551.018 3.079.14 4.611.242-14.117-47.398-35.135-91.814-61.907-132.088 7.144 44.985 12.535 90.419 15.449 135.974 14.161-4.773 33.483-4.22 41.847-4.128z"/><path fill="#EA6565" d="M1064.255 662.488c9.937-3.587 19.459-8.468 28.206-14.688.434-4.521.8-9.062 1.111-13.618-8.61 10.064-18.867 19.014-29.317 28.306zM1056.339 611.567c-8.205-.135-16.53-2.077-25.253-4.54 6.528 6.256 14.972 10.775 24.284 12.699 9.304 1.894 19.353 1.008 28.255-2.418 3.891-1.446 7.535-3.358 10.994-5.521.09-3.846.145-7.701.146-11.569-4.782 2.904-9.697 5.416-14.783 7.3-7.544 2.861-15.465 4.229-23.643 4.049z"/><path fill="#EFFAFD" d="M1059.057 683.541c-2.365-2.476-5.377-3.98-8.329-5.442-9.032-4.472-19.557-8.934-28.363-3.918-.721.412-1.407.883-2.063 1.398-2.093 13.985-4.565 27.898-7.476 41.694 2.623 9.008 6.987 17.499 11.887 23.482 8.477 10.352 25.939 9.289 30.773-5.94l4.855-15.3c.446-1.406.89-2.817 1.317-4.237 1.398-4.644 2.583-9.37 2.81-14.25.295-6.371-1.27-13.155-5.411-17.487z"/><path fill="#EA6565" d="M142.544 662.488c-10.8-9.603-21.431-18.814-30.21-29.295a125.855 125.855 0 01-6.477-8.231c.285 5.743.697 11.453 1.176 17.143 10.636 9.007 22.727 15.768 35.511 20.383zM105.32 606.926c5.288 4.324 11.275 7.935 17.853 10.382 8.903 3.426 18.952 4.313 28.256 2.418 8.921-1.844 17.026-6.087 23.432-11.939l-.053-.519c-8.391 2.341-16.43 4.167-24.348 4.298-8.178.18-16.1-1.188-23.644-4.049-7.508-2.781-14.673-6.853-21.53-11.691-.011 1.392-.053 2.778-.053 4.173 0 2.318.055 4.619.087 6.927z"/><path fill="#EFFAFD" d="M139.24 734.815c4.834 15.229 22.296 16.292 30.773 5.94 5.126-6.261 9.649-15.274 12.222-24.746 2.353-8.662 3.076-17.707 1.072-25.395-1.763-6.767-5.376-13.259-10.947-16.433-8.805-5.016-19.331-.554-28.362 3.918-2.952 1.462-5.964 2.966-8.33 5.442-4.14 4.332-5.705 11.117-5.41 17.488.174 3.75.94 7.403 1.907 11.004.675 2.516 1.436 5.012 2.22 7.482l4.855 15.3z"/><path fill="#FCB598" d="M1012.826 717.273c2.911-13.795 5.383-27.709 7.476-41.694a16.8 16.8 0 012.063-1.398c8.805-5.016 19.331-.554 28.363 3.918 2.952 1.462 5.964 2.966 8.329 5.442 4.141 4.332 5.706 11.117 5.41 17.488-.227 4.879-1.412 9.606-2.81 14.25 8.4-1.781 15.834-4.035 20.376-5.491.178-.056.35-.12.527-.177a492.273 492.273 0 004.479-22.028 495.812 495.812 0 005.174-36.995c.094-.926.158-1.861.247-2.788-8.747 6.22-18.268 11.101-28.206 14.688 10.45-9.292 20.707-18.242 29.316-28.307.506-7.423.872-14.885 1.047-22.395-3.458 2.163-7.103 4.075-10.994 5.521-8.902 3.426-18.952 4.313-28.255 2.418-9.312-1.924-17.756-6.443-24.284-12.699 8.723 2.463 17.047 4.404 25.253 4.54 8.178.18 16.1-1.188 23.644-4.049 5.086-1.884 10.001-4.396 14.783-7.3 0-.073.003-.145.003-.218 0-49.158-7.204-96.626-20.553-141.446-1.532-.102-3.06-.224-4.611-.242-8.365-.093-27.686-.645-41.847 4.128-2.914-45.555-8.305-90.989-15.449-135.974a496.065 496.065 0 00-22.443-31.116l-32.404-1.984-35.701.244-35.67 1.849-35.665-2.502-35.675.915-35.674.499-35.675.297-35.733.014-14.257-31.568-8.982-33.177-8.522-33.298-6.388-33.729-3.177-17.497.252 19.15-2.884 34.832-8.118 34.064-14.842 31.71-19.539 27.776-35.784.295-36.083 1.764-36.058-.828-36.027.096-36.022.579-36.032-.108-36.032-.618-36.032-.338-30.731-.431c.05.194.091.389.142.581l-2.862.746c-.119-.455-.216-.915-.333-1.37l-2.231-.031-35.998-.229-36.02 2.216-15.03.154a496.548 496.548 0 00-26.9 37.901c-.377.589-.737 1.19-1.112 1.781-.23 1.665-.433 3.333-.657 4.998-1.713 12.743-3.288 25.503-4.638 38.283-2.856 27.044-4.912 54.408-6.031 81.912-12.645-2.439-26.731-2.063-33.545-1.987-3.945.045-7.817.422-11.635 1.002-12.828 43.323-19.882 89.121-20.275 136.513 6.858 4.838 14.022 8.91 21.53 11.691 7.545 2.861 15.467 4.229 23.644 4.049 7.918-.131 15.957-1.957 24.348-4.298l.053.519c-6.406 5.852-14.511 10.094-23.432 11.939-9.304 1.894-19.352 1.008-28.256-2.418-6.578-2.446-12.565-6.058-17.853-10.382.082 6.036.24 12.053.537 18.035a125.928 125.928 0 006.477 8.231c8.779 10.481 19.41 19.693 30.21 29.295-12.784-4.615-24.874-11.376-35.511-20.384a494.097 494.097 0 009.857 64.986c2.595.938 5.213 1.844 7.874 2.697a246.21 246.21 0 007.399 2.245c-.967-3.601-1.733-7.254-1.907-11.004-.295-6.372 1.27-13.156 5.41-17.488 2.366-2.476 5.378-3.98 8.33-5.442 9.032-4.472 19.557-8.934 28.362-3.918 5.571 3.174 9.184 9.665 10.947 16.433 2.004 7.689 1.281 16.734-1.072 25.395 3.833-1.259 7.151-3.178 9.648-5.979 12.968 55.097 32.214 108.516 59.308 158.693 24.511 45.392 55.899 87.137 92.588 124.045a1387.009 1387.009 0 014.697 33.345 497.066 497.066 0 0011.946 6.847c8.224 4.561 16.574 8.922 25.076 13.019a491.696 491.696 0 0055.816 22.794c49.812 16.855 103.182 25.995 158.686 25.995 85.392 0 165.73-21.632 235.835-59.716a494.922 494.922 0 0040.794-24.782 497.124 497.124 0 0037.988-28.401c.106-12.494.271-25.198.496-38.096 48.38-66.269 80.388-144.361 97.717-226.497zm-338.15-55.546c-5.918 0-5.909-9.183 0-9.183 5.918 0 5.908 9.183 0 9.183zm-153.828-52.313c5.919 0 5.908 9.183 0 9.183-5.918 0-5.908-9.183 0-9.183zm27.315-32.508c-5.918 0-5.909-9.183 0-9.183 5.919 0 5.909 9.183 0 9.183zm-3.236 58.945c21.906-31.579 19.857-65.316 26.77-101.162 3.529-18.302 16.663-57.614 42.033-42.064 18.577 11.386 18.043 53.439 22.635 73.185 5.712 24.57 13.061 50.606 22.085 72.97 3.087 7.652 7.95 16.256 9.898 24.791 1.607 7.04 1.231 14.033-3.765 20.401-12.736 16.238-40.647 23.631-59.919 26.517-19.689 2.948-45.387-9.125-60.715-21.103-22.198-17.345-12.392-34.263.978-53.535zm105.309-56.07c-5.918 0-5.909-9.183 0-9.183 5.918 0 5.909 9.183 0 9.183zm248.711 35.94c-5.919 0-5.908-9.183 0-9.183 5.919.001 5.908 9.183 0 9.183zm-138.013 24.44c-5.918 0-5.908-9.183 0-9.183 5.918.001 5.908 9.183 0 9.183zm-35.941 27.316c-5.919 0-5.908-9.183 0-9.183 5.919 0 5.908 9.183 0 9.183zm-25.878-70.445c-5.918 0-5.909-9.182 0-9.182 5.919 0 5.909 9.182 0 9.182zm0 31.628c-5.918 0-5.909-9.183 0-9.183 5.919.001 5.909 9.183 0 9.183zm173.483 171.994c-49.145 0-89.04-39.623-90.231-88.929-3.829-1.352-3.746-7.393.205-8.587 3.241-47.379 42.253-84.826 90.026-84.826 27.305 0 51.724 12.277 68.29 31.598.383-.099.735-.242 1.187-.242 3.938 0 5.191 4.031 3.889 6.752 10.642 14.957 16.977 33.244 16.977 53.063.001 50.351-40.448 91.171-90.343 91.171zm-5.639-317.364c7.606 3.262 14.547 7.931 21.677 11.998a239.158 239.158 0 0119.842 14.752c-7.976-2.417-15.419-5.592-23.042-8.287l-11.414-3.966c-3.764-1.377-7.492-2.799-11.355-3.867-3.828-1.152-7.623-2.351-11.369-3.668-3.779-1.221-7.656-2.123-11.467-3.201-7.55-2.424-15.319-3.946-22.983-5.849-15.428-3.365-31.027-5.746-46.813-7.275-10.343-.886-20.758-1.4-31.312-1.373-5.279 3.112-10.354 7.393-15.082 13.279 3.077-10.888 9.047-20.324 16.141-27.101 7.126-6.765 15.25-11.196 23.495-13.767 8.22-2.682 16.83-3.347 24.999-2.996 8.195.344 16.146 1.636 23.881 2.884 15.484 2.615 30.002 5.241 44.398 2.586 14.524-2.515 28.911-9.49 43.19-20.265-9.482 19.032-24.071 33.066-40.269 40.047-6.631 2.928-13.597 4.425-20.457 5.008 9.584 3.022 18.982 6.55 27.94 11.061zM678.9 388.143c2.228-22.826 25.529-37.883 42.336-47.501 31.647-18.112 67.279-29.843 104.295-29.922 21.409-.046 43.295 4.001 63.816 12.317 13.605 5.514 10.604 25.507-4.014 26.845a437.085 437.085 0 00-41.349 5.783c-50.514 9.541-94.988 29.358-140.06 52.795-15.644 8.136-27.101.962-25.024-20.317zm-366.181-39.179a170.155 170.155 0 0149.861-11.705c36.901-2.928 73.367 5.87 106.38 21.353 17.532 8.222 41.978 21.337 46.054 43.907 3.799 21.04-7.038 29.119-23.291 22.282-46.826-19.7-92.763-35.84-143.884-41.248a438.161 438.161 0 00-29.082-2.098c-18.193-.705-22.931-25.702-6.038-32.491zM505.034 671.79c-5.918 0-5.908-9.183 0-9.183 5.919 0 5.909 9.183 0 9.183zm-23.002-21.564c-5.918 0-5.909-9.184 0-9.184 5.918 0 5.909 9.184 0 9.184zm-56.068 28.195c5.918 0 5.908 9.183 0 9.183-5.918-.001-5.908-9.183 0-9.183zm-2.875-53.193c5.918 0 5.909 9.183 0 9.183-5.918 0-5.909-9.183 0-9.183zm25.458-152.673c-10.553-.027-20.968.488-31.312 1.373-15.785 1.529-31.384 3.909-46.813 7.275-7.664 1.904-15.432 3.426-22.982 5.849-3.811 1.077-7.689 1.98-11.468 3.201-3.745 1.317-7.541 2.515-11.369 3.668-3.864 1.068-7.591 2.489-11.355 3.867l-11.413 3.966c-7.623 2.694-15.066 5.869-23.042 8.287a239.31 239.31 0 0119.841-14.752c7.131-4.067 14.072-8.736 21.677-11.998 8.958-4.511 18.357-8.039 27.938-11.06-6.859-.582-13.826-2.08-20.456-5.008-16.199-6.981-30.787-21.015-40.27-40.047 14.279 10.775 28.666 17.75 43.19 20.265 14.397 2.655 28.914.029 44.398-2.586 7.736-1.248 15.687-2.54 23.881-2.884 8.17-.351 16.78.314 24.999 2.996 8.245 2.572 16.369 7.002 23.495 13.767 7.093 6.777 13.063 16.213 16.14 27.101-4.724-5.888-9.8-10.168-15.079-13.28zm19.109 256.183c5.918 0 5.908 9.183 0 9.183-5.919 0-5.909-9.183 0-9.183zm-222.4-14.508c0-50.352 40.448-91.17 90.343-91.17s90.343 40.818 90.343 91.17c0 50.353-40.448 91.171-90.343 91.171s-90.343-40.818-90.343-91.171zm32.33 131.921c15.654-.611 31.252-.499 46.853-.421 15.588.25 31.171.552 46.728 1.201 15.572.444 31.103 1.439 46.651 2.205 3.056.174 6.108.396 9.162.591-8.95-4.913-17.797-10.015-26.665-15.078l-30.158-17.216 34.243 3.329a1176.757 1176.757 0 0130.952 3.397c10.313 1.193 20.623 2.424 30.916 3.868 10.303 1.321 20.589 2.851 30.873 4.418 10.281 1.601 20.556 3.295 30.808 5.263-10.433.375-20.845.473-31.251.479-10.402-.027-20.802-.093-31.185-.366-9.465-.138-18.915-.46-28.363-.818.155.083.314.161.469.245l30.079 15.972 35.995 19.112-40.566-3.572c-15.502-1.365-31.017-2.555-46.507-4.063-15.481-1.626-30.981-3.025-46.437-4.972-15.473-1.743-30.918-3.833-46.36-5.976-15.43-2.313-30.861-4.594-46.237-7.598zm196.968 118.791c-14.124 4.928-28.169 10.062-42.403 14.701-14.164 4.823-28.447 9.333-42.748 13.796-14.36 4.308-28.708 8.647-43.303 12.335 13.357-6.944 26.962-13.236 40.556-19.559 13.653-6.168 27.322-12.289 41.112-18.098 13.718-5.992 27.626-11.49 41.455-17.193 2.728-1.1 5.472-2.157 8.207-3.239-9.793-.604-19.574-1.416-29.357-2.184l-33.268-2.611 31.13-11.133a1138.086 1138.086 0 0128.297-9.728c9.454-3.187 18.92-6.34 28.459-9.301 6.895-2.231 13.831-4.348 20.779-6.438-28.157-18.188 23.808-53.414 49.413-62.548 19.777-7.056 42.111-4.496 61.426 3.743 19.315 8.24 35.936 21.766 50.788 36.611 2.363 2.363 4.801 4.973 5.381 8.264.922 5.239-3.123 9.974-7.176 13.416-4.355 3.699-9.111 6.896-14.122 9.635l.018.02a86.294 86.294 0 01-5.538 2.764c-.774.353-1.567.661-2.351.992a87.352 87.352 0 01-6.925 2.599 86.311 86.311 0 01-5.037 1.467c-.587.153-1.165.338-1.755.477a85.617 85.617 0 01-6.79 1.316c-.699.108-1.399.183-2.1.274a85.408 85.408 0 01-5.272.519c-.71.047-1.417.1-2.128.129-2.382.098-4.767.129-7.151.021-14.174-.648-27.926-4.803-41.926-7.113-14.019-2.314-28.348-2.784-42.161-6.112a82.822 82.822 0 01-5.448-1.506l-.08-.023a.012.012 0 00.003-.002 63.91 63.91 0 01-3.321-1.168c-8.361 3.906-16.734 7.779-25.169 11.486-8.285 3.758-16.632 7.349-24.991 10.908.169.008.339.011.508.021l32.691 1.562 39.119 1.869-36.727 13.513c-14.036 5.163-28.011 10.483-42.095 15.518z"/><path fill="#312E4C" d="M703.924 408.46c45.072-23.438 89.546-43.254 140.06-52.795a437.04 437.04 0 0141.349-5.783c14.619-1.338 17.619-21.331 4.014-26.845-20.521-8.316-42.407-12.363-63.816-12.317-37.016.078-72.648 11.809-104.295 29.922-16.807 9.618-40.108 24.675-42.336 47.501-2.077 21.279 9.38 28.453 25.024 20.317zM318.757 381.454c9.73.377 19.43 1.078 29.082 2.098 51.121 5.408 97.058 21.547 143.884 41.248 16.253 6.837 27.09-1.242 23.291-22.282-4.075-22.57-28.521-35.685-46.054-43.907-33.014-15.482-69.48-24.281-106.38-21.353a170.18 170.18 0 00-49.861 11.705c-16.893 6.79-12.155 31.787 6.038 32.491z"/><path fill="#FF8B88" d="M425.942 714.23c0-50.352-40.448-91.17-90.343-91.17s-90.343 40.818-90.343 91.17c0 50.353 40.448 91.171 90.343 91.171s90.343-40.818 90.343-91.171zm-47.42-9.375c-5.918 0-5.908-9.182 0-9.182 5.919 0 5.909 9.182 0 9.182zm-2.875-65.25c5.918 0 5.908 9.183 0 9.183-5.918 0-5.909-9.183 0-9.183zm-7.188 99.196c5.918 0 5.909 9.183 0 9.183-5.919 0-5.909-9.183 0-9.183zm-67.57-33.946c-5.918 0-5.908-9.182 0-9.182 5.919 0 5.909 9.182 0 9.182zm27.316-58.943c-5.919 0-5.909-9.183 0-9.183 5.918 0 5.909 9.183 0 9.183zM942.076 658.851c-5.465 0-5.809-7.742-1.187-8.941-16.566-19.321-40.985-31.598-68.29-31.598-47.773 0-86.784 37.447-90.026 84.826.428-.129.844-.277 1.364-.277 5.918 0 5.908 9.183 0 9.183-.598 0-1.092-.15-1.569-.319 1.191 49.306 41.086 88.929 90.231 88.929 49.895 0 90.344-40.819 90.344-91.17 0-19.819-6.335-38.106-16.977-53.063-.656 1.368-1.913 2.43-3.89 2.43zm-135.138 10.063c-5.918 0-5.909-9.182 0-9.182 5.919 0 5.909 9.182 0 9.182zm43.13 66.132c-5.919 0-5.909-9.184 0-9.184 5.918.001 5.908 9.184 0 9.184zm11.501-89.134c-5.919 0-5.909-9.183 0-9.183 5.918 0 5.908 9.183 0 9.183zm21.564 66.131c-5.918 0-5.908-9.183 0-9.183 5.918.001 5.909 9.183 0 9.183z"/><path fill="#D3A98C" d="M699.115 628.66c5.908 0 5.918-9.183 0-9.183-5.908.001-5.918 9.183 0 9.183zM724.993 667.477c5.908 0 5.919-9.183 0-9.183-5.909 0-5.919 9.183 0 9.183zM760.934 640.161c5.908 0 5.919-9.183 0-9.183-5.909.001-5.919 9.183 0 9.183zM806.938 659.732c-5.909 0-5.918 9.182 0 9.182 5.909 0 5.919-9.182 0-9.182zM861.569 636.729c-5.909 0-5.919 9.183 0 9.183 5.908 0 5.918-9.183 0-9.183zM883.133 702.861c-5.908 0-5.918 9.183 0 9.183 5.909-.001 5.918-9.183 0-9.183zM482.032 650.226c5.909 0 5.918-9.184 0-9.184-5.909 0-5.918 9.184 0 9.184zM520.848 618.597c5.908 0 5.919-9.183 0-9.183-5.908 0-5.918 9.183 0 9.183zM505.034 671.79c5.909 0 5.919-9.183 0-9.183-5.908 0-5.918 9.183 0 9.183zM378.522 704.855c5.909 0 5.919-9.182 0-9.182-5.909 0-5.918 9.182 0 9.182zM423.089 625.228c-5.909 0-5.918 9.183 0 9.183 5.909 0 5.918-9.183 0-9.183zM425.964 687.603c5.908 0 5.918-9.183 0-9.183-5.908.001-5.918 9.183 0 9.183zM328.205 636.729c-5.909 0-5.919 9.183 0 9.183 5.909 0 5.918-9.183 0-9.183zM548.163 576.906c5.909 0 5.918-9.183 0-9.183-5.908 0-5.918 9.183 0 9.183zM650.236 579.781c5.909 0 5.918-9.183 0-9.183-5.909 0-5.919 9.183 0 9.183zM942.076 658.851c1.978 0 3.234-1.062 3.889-2.431 1.302-2.721.048-6.752-3.889-6.752-.452 0-.804.143-1.187.242-4.623 1.199-4.278 8.941 1.187 8.941zM674.676 661.727c5.909 0 5.918-9.183 0-9.183-5.909 0-5.919 9.183 0 9.183zM699.115 587.85c-5.909 0-5.918 9.182 0 9.182 5.909 0 5.919-9.182 0-9.182zM783.936 702.861c-.52 0-.936.148-1.364.277-3.951 1.194-4.034 7.234-.205 8.587.477.169.971.319 1.569.319 5.909-.001 5.919-9.183 0-9.183zM467.656 737.921c5.908 0 5.918-9.183 0-9.183-5.909 0-5.919 9.183 0 9.183zM368.459 747.984c5.909 0 5.918-9.183 0-9.183-5.909 0-5.919 9.183 0 9.183zM300.889 695.673c-5.908 0-5.918 9.182 0 9.182 5.909 0 5.919-9.182 0-9.182zM375.647 648.788c5.908 0 5.918-9.183 0-9.183-5.909 0-5.918 9.183 0 9.183zM898.947 615.721c5.908 0 5.919-9.183 0-9.183-5.908.001-5.919 9.183 0 9.183zM850.068 725.863c-5.909 0-5.919 9.184 0 9.184 5.908-.001 5.918-9.184 0-9.184z"/><path fill="#EA5467" d="M543.949 689.386c15.329 11.977 41.026 24.05 60.715 21.103 19.272-2.885 47.184-10.279 59.919-26.517 4.995-6.368 5.371-13.361 3.765-20.401-1.948-8.535-6.811-17.139-9.898-24.791-9.023-22.363-16.372-48.399-22.085-72.97-4.591-19.746-4.058-61.799-22.635-73.185-25.37-15.55-38.504 23.763-42.033 42.064-6.913 35.846-4.864 69.582-26.77 101.162-13.37 19.272-23.176 36.19-.978 53.535z"/><path fill="#312E4C" d="M899.747 427.175c-14.278 10.775-28.666 17.75-43.19 20.265-14.397 2.655-28.914.029-44.398-2.586-7.736-1.248-15.687-2.54-23.881-2.884-8.17-.351-16.78.314-24.999 2.996-8.245 2.572-16.368 7.002-23.495 13.767-7.094 6.777-13.064 16.213-16.141 27.101 4.728-5.886 9.804-10.166 15.082-13.279 10.553-.027 20.968.488 31.312 1.373 15.786 1.529 31.385 3.909 46.813 7.275 7.664 1.904 15.432 3.426 22.983 5.849 3.811 1.077 7.688 1.98 11.467 3.201 3.745 1.317 7.541 2.515 11.369 3.668 3.864 1.068 7.591 2.489 11.355 3.867l11.414 3.966c7.623 2.694 15.066 5.869 23.042 8.287a239.158 239.158 0 00-19.842-14.752c-7.13-4.067-14.071-8.736-21.677-11.998-8.958-4.511-18.356-8.039-27.938-11.06 6.859-.582 13.826-2.08 20.457-5.008 16.196-6.982 30.784-21.016 40.267-40.048zM225.109 295.271l36.02-2.216 35.998.229 2.231.031c-6.324-24.515-11.294-49.322-15.031-74.293a498.464 498.464 0 00-25.686 22.831 498.515 498.515 0 00-16.786 16.787 497.82 497.82 0 00-31.775 36.785l15.029-.154zM333.142 293.789l36.032.338 36.032.618 36.032.108 36.022-.579 36.027-.096 36.058.828 36.083-1.764 35.784-.295 19.539-27.776 14.842-31.71 8.118-34.064 2.884-34.832-.252-19.15 3.177 17.497 6.388 33.729 8.522 33.298 8.982 33.177 14.257 31.568 35.733-.014 35.675-.297 35.674-.499 35.675-.915 35.665 2.502 35.67-1.849 35.701-.244 32.404 1.984a497.554 497.554 0 00-63.466-67.151c-.325 14.776-1.029 29.55-2.204 44.297l-2.991-.237a768.098 768.098 0 002.28-46.635 495.077 495.077 0 00-123.982-78.486c4.989 48.492 5.983 97.384 2.749 145.979l-3.077-.208c3.261-48.999 2.227-98.299-2.901-147.183-60.18-26.037-126.534-40.495-196.274-40.495-6.66 0-13.28.171-19.877.431-9.59 61.836-12.627 124.683-8.678 187.069l-3.077.194c-3.951-62.408-.935-125.277 8.615-187.144-35.809 1.641-70.621 7.091-104.048 15.95-7.107 54.841-9.09 110.334-5.6 165.47l-3.078.194c-3.475-54.906-1.539-110.167 5.459-164.792-9.581 2.609-19.061 5.464-28.401 8.624a489.448 489.448 0 00-33.9 12.886c-6.016 2.544-11.954 5.235-17.846 8.007 3.223 47.782 10.31 95.289 21.403 141.832l-2.999.718c-11.041-46.325-18.119-93.602-21.393-141.155-.358.172-.723.333-1.082.505a494.383 494.383 0 00-62.128 35.709 496.785 496.785 0 00-19.398 13.795 494.98 494.98 0 00-16.977 13.308c3.787 25.726 8.874 51.283 15.415 76.524l30.732.431z"/><path fill="#B499C4" d="M299.69 294.685l2.862-.746c-.051-.193-.092-.388-.142-.581-6.541-25.241-11.628-50.798-15.415-76.524-.891.728-1.784 1.454-2.67 2.188 3.737 24.971 8.708 49.778 15.031 74.293.119.455.215.915.334 1.37zM407.972 294.671l2.999-.718c-11.093-46.543-18.18-94.05-21.403-141.832-.995.468-1.998.921-2.989 1.395 3.274 47.553 10.352 94.83 21.393 141.155zM464.256 287.397l3.078-.194c-3.49-55.136-1.507-110.629 5.6-165.47-1.075.285-2.147.579-3.22.871-6.997 54.625-8.933 109.886-5.458 164.793zM568.368 292.927l3.077-.194c-3.948-62.387-.911-125.233 8.678-187.069-1.047.042-2.096.071-3.14.119-9.55 61.867-12.566 124.736-8.615 187.144zM924.195 272.497c1.175-14.748 1.88-29.521 2.204-44.297-.974-.856-1.935-1.727-2.916-2.575a768.098 768.098 0 01-2.28 46.635l2.992.237zM799.173 292.909l3.077.208c3.234-48.595 2.241-97.487-2.749-145.979a543.758 543.758 0 00-3.229-1.413c5.127 48.885 6.162 98.186 2.901 147.184z"/><path fill="#312E4C" d="M548.772 898.964c14.558-10.148 32.196-16.111 51.228-16.111 27.772 0 52.605 12.658 69.178 32.555 5.011-2.739 9.767-5.936 14.122-9.635 4.054-3.443 8.099-8.177 7.176-13.416-.58-3.29-3.018-5.901-5.381-8.264-14.852-14.845-31.473-28.371-50.788-36.611-19.315-8.239-41.649-10.799-61.426-3.743-25.605 9.134-77.57 44.36-49.413 62.548 2.623-.79 5.243-1.587 7.869-2.368a1071.711 1071.711 0 0117.435-4.955zM540.061 912.762z"/><path fill="#312E4C" d="M540.099 905.838c-2.265 1.085-4.524 2.184-6.793 3.255-.695.326-1.394.645-2.09.97 1.06.4 2.142.795 3.322 1.166a91.846 91.846 0 015.561-5.391zM633.427 925.837c-.709.048-1.418.1-2.128.129.712-.029 1.418-.082 2.128-.129zM640.8 925.044c-.698.108-1.4.183-2.1.274.7-.09 1.401-.165 2.1-.274zM649.345 923.251c-.587.153-1.165.337-1.755.477.59-.139 1.168-.324 1.755-.477zM656.986 920.886zM663.658 918.193c-.773.353-1.567.661-2.351.992.784-.332 1.577-.639 2.351-.992z"/><path fill="#EA6565" d="M600 882.854c-19.033 0-36.671 5.963-51.228 16.111 3.825-1.053 7.652-2.104 11.503-3.089-6.678 3.445-13.418 6.727-20.176 9.963a91.528 91.528 0 00-5.56 5.391l-.005.004.08.023a84.082 84.082 0 005.448 1.506c13.813 3.328 28.142 3.798 42.161 6.112 14 2.31 27.752 6.465 41.926 7.113 2.384.108 4.769.077 7.151-.021.71-.029 1.419-.081 2.128-.129a85.408 85.408 0 005.272-.519c.7-.091 1.402-.166 2.1-.274a85.617 85.617 0 006.79-1.316c.59-.141 1.169-.324 1.755-.477a86.539 86.539 0 005.037-1.467 86.965 86.965 0 006.925-2.599c.784-.331 1.578-.639 2.351-.992a86.818 86.818 0 005.538-2.764l-.018-.02c-16.572-19.899-41.406-32.556-69.178-32.556z"/><path fill="#312E4C" d="M447.489 458.732c-7.126-6.765-15.25-11.196-23.495-13.767-8.219-2.682-16.83-3.347-24.999-2.996-8.194.344-16.145 1.636-23.881 2.884-15.484 2.615-30.001 5.241-44.398 2.586-14.524-2.515-28.911-9.49-43.19-20.265 9.483 19.032 24.071 33.066 40.27 40.047 6.63 2.928 13.597 4.425 20.456 5.008-9.581 3.022-18.98 6.55-27.938 11.06-7.605 3.262-14.546 7.931-21.677 11.998a239.31 239.31 0 00-19.841 14.752c7.976-2.417 15.418-5.592 23.042-8.287l11.413-3.966c3.765-1.377 7.492-2.799 11.355-3.867 3.828-1.152 7.624-2.351 11.369-3.668 3.779-1.221 7.656-2.123 11.468-3.201 7.55-2.424 15.319-3.946 22.982-5.849 15.428-3.365 31.027-5.746 46.813-7.275 10.344-.886 20.759-1.4 31.312-1.373 5.279 3.112 10.355 7.393 15.082 13.279-3.08-10.887-9.05-20.323-16.143-27.1z"/><path fill="#EFFAFD" d="M553.373 935.91l-39.119-1.869-32.691-1.562c-.169-.009-.339-.013-.508-.021 8.36-3.559 16.707-7.15 24.991-10.908 8.436-3.707 16.809-7.58 25.169-11.486.696-.325 1.394-.644 2.09-.97 2.269-1.071 4.528-2.17 6.793-3.255 6.758-3.236 13.498-6.518 20.176-9.963-3.851.986-7.678 2.036-11.503 3.089a1058.824 1058.824 0 00-17.434 4.956c-2.626.781-5.246 1.579-7.869 2.368-6.947 2.09-13.884 4.207-20.779 6.438-9.539 2.961-19.005 6.114-28.459 9.301a1129.938 1129.938 0 00-28.297 9.728l-31.13 11.133 33.268 2.611c9.783.768 19.564 1.58 29.357 2.184-2.735 1.083-5.48 2.139-8.207 3.239-13.829 5.704-27.737 11.201-41.455 17.193-13.79 5.809-27.459 11.929-41.112 18.098-13.594 6.324-27.198 12.616-40.556 19.559 14.596-3.687 28.943-8.026 43.303-12.335 14.301-4.464 28.584-8.973 42.748-13.796 14.234-4.639 28.279-9.772 42.403-14.701 14.084-5.035 28.059-10.355 42.093-15.519l36.728-13.512zM416.618 864.698c15.491 1.508 31.006 2.698 46.507 4.063l40.566 3.572-35.995-19.112-30.079-15.972c-.155-.083-.314-.161-.469-.245 9.448.358 18.899.68 28.363.818 10.384.273 20.783.339 31.185.366 10.405-.006 20.818-.104 31.251-.479-10.253-1.968-20.527-3.661-30.808-5.263-10.284-1.567-20.57-3.097-30.873-4.418-10.293-1.444-20.602-2.675-30.916-3.868a1184.862 1184.862 0 00-30.952-3.397l-34.243-3.329 30.158 17.216c8.869 5.063 17.716 10.165 26.665 15.078-3.054-.195-6.106-.417-9.162-.591-15.548-.766-31.078-1.761-46.651-2.205-15.557-.649-31.14-.951-46.728-1.201-15.601-.078-31.199-.19-46.853.421 15.376 3.004 30.806 5.285 46.234 7.599 15.442 2.142 30.887 4.232 46.36 5.976 15.459 1.946 30.959 3.344 46.44 4.971z"/><path fill="#EA5467" d="M1150 600.001c0-303.271-246.728-550-550-550s-550 246.729-550 550C50 903.271 296.729 1150 600 1150s550-246.729 550-549.999zm-74.001 135.449a492.618 492.618 0 01-7.226 23.237 492.474 492.474 0 01-45.633 97.869 496.852 496.852 0 01-73.285 93.298 497.827 497.827 0 01-35.236 32.015 496.664 496.664 0 01-37.988 28.401 494.922 494.922 0 01-40.794 24.782c-70.105 38.084-150.444 59.716-235.835 59.716-55.505 0-108.874-9.14-158.686-25.995a490.602 490.602 0 01-33.9-12.886 491.696 491.696 0 01-21.916-9.908c-8.502-4.097-16.852-8.458-25.076-13.019a497.066 497.066 0 01-11.946-6.847c-.404-.239-.808-.476-1.211-.716a477.824 477.824 0 01-7.709-4.687c-5.461-3.386-10.87-6.85-16.186-10.44a497.343 497.343 0 01-64.731-52.122c-4.313-4.113-8.526-8.327-12.689-12.591a495.861 495.861 0 01-11.628-12.286 496.929 496.929 0 01-53.571-70.485c-3.417-5.44-6.759-10.931-9.967-16.512-41.702-72.522-65.552-156.613-65.552-246.274s23.85-173.752 65.552-246.274a493.716 493.716 0 0112.395-20.401 496.934 496.934 0 0158.675-74.686 499.452 499.452 0 0116.786-16.787 497.993 497.993 0 0125.686-22.831c.886-.735 1.779-1.46 2.67-2.188a496.226 496.226 0 0116.977-13.308 496.785 496.785 0 0129.353-20.347 494.383 494.383 0 0152.173-29.157 491.696 491.696 0 0155.816-22.794c9.34-3.16 18.82-6.015 28.401-8.624 1.072-.292 2.144-.586 3.22-.871 33.428-8.859 68.239-14.309 104.048-15.95 1.045-.048 2.094-.077 3.14-.119 6.597-.26 13.217-.431 19.877-.431 69.74 0 136.094 14.458 196.272 40.493a495.02 495.02 0 01127.211 79.899c.981.848 1.942 1.718 2.916 2.575a497.676 497.676 0 0163.466 67.151 496.178 496.178 0 0122.443 31.116c26.772 40.273 47.79 84.689 61.907 132.088 13.349 44.82 20.553 92.288 20.553 141.446 0 .073-.003.145-.003.218a500.707 500.707 0 01-1.193 33.964 496.106 496.106 0 01-1.111 13.618c-.089.927-.153 1.862-.247 2.788a494.955 494.955 0 01-5.174 36.995 491.152 491.152 0 01-4.479 22.028c-.159.706-.3 1.421-.463 2.128a494.147 494.147 0 01-6.102 23.711z"/></svg>