<?xml version="1.0" encoding="utf-8"?>
<!-- Generator: Adobe Illustrator 21.1.0, SVG Export Plug-In . SVG Version: 6.00 Build 0)  -->
<svg version="1.1" id="Capa_1" xmlns="http://www.w3.org/2000/svg" xmlns:xlink="http://www.w3.org/1999/xlink" x="0px" y="0px"
	 viewBox="0 0 1200 1200" enable-background="new 0 0 1200 1200" xml:space="preserve">
<g>
	<path fill="none" d="M385.498,1045.979c-8.502-4.097-16.852-8.458-25.076-13.019
		C368.646,1037.521,376.995,1041.882,385.498,1045.979z"/>
	<path fill="none" d="M347.265,1025.397c-2.586-1.539-5.155-3.101-7.709-4.687C342.11,1022.297,344.679,1023.858,347.265,1025.397z"
		/>
	<path fill="none" d="M245.951,945.557c4.163,4.264,8.376,8.478,12.689,12.591C254.327,954.035,250.113,949.821,245.951,945.557z"/>
	<path fill="none" d="M418.582,139.551c7.49-2.954,15.069-5.73,22.732-8.323C433.65,133.822,426.071,136.598,418.582,139.551z"/>
	<path fill="none" d="M418.582,1060.45c7.49,2.954,15.069,5.73,22.732,8.323C433.65,1066.179,426.071,1063.403,418.582,1060.45z"/>
	<path fill="none" d="M353.726,170.784c10.361-5.958,20.957-11.551,31.772-16.762C374.683,159.233,364.087,164.826,353.726,170.784z
		"/>
	<path fill="none" d="M303.973,203.526c6.35-4.749,12.818-9.349,19.398-13.795C316.791,194.177,310.322,198.777,303.973,203.526z"/>
	<path fill="none" d="M107.033,642.105c-0.479-5.69-0.891-11.4-1.176-17.143c-0.297-5.982-0.454-11.999-0.537-18.035
		c-0.032-2.308-0.088-4.61-0.088-6.926c0-1.395,0.041-2.781,0.053-4.173c0.392-47.392,7.447-93.19,20.275-136.513
		c11.017-37.208,26.256-72.602,45.224-105.588c-41.702,72.522-65.552,156.613-65.552,246.274s23.85,173.752,65.552,246.274
		c-24.597-42.775-42.949-89.589-53.893-139.183C112.215,685.906,108.897,664.214,107.033,642.105z"/>
	<path fill="none" d="M180.751,862.786c-3.418-5.44-6.759-10.931-9.967-16.512C173.992,851.855,177.334,857.346,180.751,862.786z"/>
	<path fill="none" d="M234.323,933.272c-17.096-18.748-32.75-38.828-46.831-60.044C201.572,894.443,217.226,914.524,234.323,933.272
		z"/>
	<path fill="none" d="M333.325,183.179c6.692-4.291,13.494-8.423,20.401-12.395C346.82,174.756,340.017,178.888,333.325,183.179z"/>
	<path fill="none" d="M323.371,1010.27c-6.58-4.446-13.048-9.046-19.398-13.795C310.322,1001.224,316.791,1005.824,323.371,1010.27z
		"/>
	<path fill="none" d="M389.568,152.122c5.892-2.773,11.83-5.463,17.846-8.007c-7.399,3.129-14.706,6.434-21.916,9.908
		c0.358-0.172,0.723-0.333,1.082-0.505C387.57,153.043,388.574,152.589,389.568,152.122z"/>
	<path fill="none" d="M182.067,335.106c0.375-0.591,0.735-1.192,1.112-1.781c-4.29,6.691-8.424,13.494-12.395,20.401
		c2.736-4.759,5.577-9.448,8.465-14.105C180.184,338.113,181.116,336.604,182.067,335.106z"/>
	<path fill="none" d="M407.414,1055.887c-7.399-3.129-14.706-6.434-21.916-9.908
		C392.708,1049.453,400.015,1052.758,407.414,1055.887z"/>
	<path fill="none" d="M258.64,241.853c-5.728,5.462-11.325,11.059-16.786,16.787C247.315,252.912,252.912,247.315,258.64,241.853z"
		/>
	<path fill="none" d="M241.853,258.64c-21.845,22.912-41.514,47.918-58.675,74.686c8.379-13.069,17.365-25.71,26.9-37.901
		C220.074,282.647,230.674,270.366,241.853,258.64z"/>
	<path fill="#A694C4" d="M137.195,458.312c6.814-0.076,20.9-0.452,33.545,1.987c1.12-27.503,3.175-54.868,6.031-81.912
		c1.35-12.781,2.925-25.54,4.638-38.283l-2.162-0.482c-2.888,4.656-5.729,9.346-8.465,14.105
		c-18.968,32.986-34.207,68.38-45.224,105.588C129.379,458.734,133.251,458.357,137.195,458.312z"/>
	<path fill="#A694C4" d="M1082.034,709.787c-4.542,1.456-11.976,3.71-20.376,5.491c-0.427,1.419-0.871,2.831-1.317,4.237
		c-1.618,5.099-3.237,10.2-4.855,15.3c-4.834,15.229-22.296,16.292-30.773,5.94c-4.899-5.983-9.263-14.475-11.887-23.482
		c-17.329,82.137-49.337,160.229-97.712,226.501c-0.225,12.897-0.39,25.602-0.496,38.096c12.254-10.108,24.014-20.793,35.236-32.015
		c27.98-27.979,52.625-59.295,73.285-93.298c18.595-30.604,33.963-63.384,45.633-97.869c2.593-7.664,5.004-15.411,7.226-23.237
		c2.223-7.827,4.258-15.732,6.1-23.712c0.163-0.706,0.303-1.421,0.463-2.128C1082.384,709.668,1082.212,709.731,1082.034,709.787z"
		/>
	<path fill="#A694C4" d="M251.191,868.723c-27.094-50.177-46.34-103.596-59.308-158.693c-2.498,2.801-5.816,4.72-9.648,5.979
		c-2.573,9.472-7.096,18.485-12.222,24.746c-8.477,10.352-25.939,9.289-30.773-5.94c-1.619-5.1-3.237-10.201-4.855-15.3
		c-0.785-2.47-1.545-4.966-2.22-7.482c-2.901-0.829-5.429-1.614-7.399-2.245c-2.661-0.852-5.279-1.759-7.874-2.697
		c10.945,49.595,29.296,96.408,53.893,139.183c3.208,5.581,6.55,11.072,9.967,16.512c2.205,3.51,4.45,6.991,6.74,10.441
		c14.081,21.216,29.735,41.297,46.831,60.044c3.8,4.167,7.689,8.251,11.628,12.286c4.163,4.264,8.376,8.478,12.689,12.591
		c14.321,13.653,29.458,26.455,45.333,38.327c6.35,4.749,12.818,9.349,19.398,13.795c5.316,3.591,10.725,7.054,16.186,10.44
		c2.554,1.586,5.123,3.148,7.709,4.687c0.403,0.24,0.807,0.477,1.211,0.716c-1.526-11.873-3.115-23.026-4.697-33.345
		C307.09,955.86,275.701,914.115,251.191,868.723z"/>
	<path fill="#312E4C" d="M181.41,340.104c0.223-1.665,0.427-3.333,0.657-4.998c-0.951,1.497-1.883,3.007-2.818,4.516L181.41,340.104
		z"/>
	<path fill="#312E4C" d="M1069.603,458.312c1.551,0.018,3.079,0.14,4.611,0.242c-14.117-47.398-35.135-91.814-61.907-132.088
		c7.144,44.985,12.535,90.419,15.449,135.974C1041.917,457.667,1061.239,458.22,1069.603,458.312z"/>
	<path fill="#EA6565" d="M1064.255,662.488c9.937-3.587,19.459-8.468,28.206-14.688c0.434-4.521,0.8-9.062,1.111-13.618
		C1084.962,644.246,1074.705,653.196,1064.255,662.488z"/>
	<path fill="#EA6565" d="M1056.339,611.567c-8.205-0.135-16.53-2.077-25.253-4.54c6.528,6.256,14.972,10.775,24.284,12.699
		c9.304,1.894,19.353,1.008,28.255-2.418c3.891-1.446,7.535-3.358,10.994-5.521c0.09-3.846,0.145-7.701,0.146-11.569
		c-4.782,2.904-9.697,5.416-14.783,7.3C1072.438,610.379,1064.517,611.747,1056.339,611.567z"/>
	<path fill="#EFFAFD" d="M1059.057,683.541c-2.365-2.476-5.377-3.98-8.329-5.442c-9.032-4.472-19.557-8.934-28.363-3.918
		c-0.721,0.412-1.407,0.883-2.063,1.398c-2.093,13.985-4.565,27.898-7.476,41.694c2.623,9.008,6.987,17.499,11.887,23.482
		c8.477,10.352,25.939,9.289,30.773-5.94c1.618-5.1,3.237-10.201,4.855-15.3c0.446-1.406,0.89-2.817,1.317-4.237
		c1.398-4.644,2.583-9.37,2.81-14.25C1064.763,694.657,1063.198,687.873,1059.057,683.541z"/>
	<path fill="#EA6565" d="M142.544,662.488c-10.8-9.603-21.431-18.814-30.21-29.295c-2.295-2.675-4.448-5.424-6.477-8.231
		c0.285,5.743,0.697,11.453,1.176,17.143C117.669,651.112,129.76,657.873,142.544,662.488z"/>
	<path fill="#EA6565" d="M105.32,606.926c5.288,4.324,11.275,7.935,17.853,10.382c8.903,3.426,18.952,4.313,28.256,2.418
		c8.921-1.844,17.026-6.087,23.432-11.939c-0.018-0.173-0.035-0.346-0.053-0.519c-8.391,2.341-16.43,4.167-24.348,4.298
		c-8.178,0.18-16.1-1.188-23.644-4.049c-7.508-2.781-14.673-6.853-21.53-11.691c-0.011,1.392-0.053,2.778-0.053,4.173
		C105.233,602.317,105.288,604.618,105.32,606.926z"/>
	<path fill="#EFFAFD" d="M139.24,734.815c4.834,15.229,22.296,16.292,30.773,5.94c5.126-6.261,9.649-15.274,12.222-24.746
		c2.353-8.662,3.076-17.707,1.072-25.395c-1.763-6.767-5.376-13.259-10.947-16.433c-8.805-5.016-19.331-0.554-28.362,3.918
		c-2.952,1.462-5.964,2.966-8.33,5.442c-4.14,4.332-5.705,11.117-5.41,17.488c0.174,3.75,0.94,7.403,1.907,11.004
		c0.675,2.516,1.436,5.012,2.22,7.482C136.002,724.614,137.621,729.715,139.24,734.815z"/>
	<path fill="#FCB598" d="M1012.826,717.273c2.911-13.795,5.383-27.709,7.476-41.694c0.656-0.516,1.342-0.987,2.063-1.398
		c8.805-5.016,19.331-0.554,28.363,3.918c2.952,1.462,5.964,2.966,8.329,5.442c4.141,4.332,5.706,11.117,5.41,17.488
		c-0.227,4.879-1.412,9.606-2.81,14.25c8.4-1.781,15.834-4.035,20.376-5.491c0.178-0.056,0.35-0.12,0.527-0.177
		c1.648-7.285,3.156-14.624,4.479-22.028c0.725-4.06,1.401-8.139,2.027-12.234c1.251-8.19,2.302-16.445,3.147-24.761
		c0.094-0.926,0.158-1.861,0.247-2.788c-8.747,6.22-18.268,11.101-28.206,14.688c10.45-9.292,20.707-18.242,29.316-28.307
		c0.506-7.423,0.872-14.885,1.047-22.395c-3.458,2.163-7.103,4.075-10.994,5.521c-8.902,3.426-18.952,4.313-28.255,2.418
		c-9.312-1.924-17.756-6.443-24.284-12.699c8.723,2.463,17.047,4.404,25.253,4.54c8.178,0.18,16.1-1.188,23.644-4.049
		c5.086-1.884,10.001-4.396,14.783-7.3c0-0.073,0.003-0.145,0.003-0.218c0-49.158-7.204-96.626-20.553-141.446
		c-1.532-0.102-3.06-0.224-4.611-0.242c-8.365-0.093-27.686-0.645-41.847,4.128c-2.914-45.555-8.305-90.989-15.449-135.974
		c-7.09-10.666-14.568-21.053-22.443-31.116l-32.404-1.984l-35.701,0.244l-35.67,1.849l-35.665-2.502l-35.675,0.915l-35.674,0.499
		l-35.675,0.297l-35.733,0.014l-14.257-31.568l-8.982-33.177l-8.522-33.298l-6.388-33.729l-3.177-17.497l0.252,19.15l-2.884,34.832
		l-8.118,34.064l-14.842,31.71l-19.539,27.776l-35.784,0.295l-36.083,1.764l-36.058-0.828l-36.027,0.096l-36.022,0.579
		l-36.032-0.108l-36.032-0.618l-36.032-0.338l-30.731-0.431c0.05,0.194,0.091,0.389,0.142,0.581l-2.862,0.746
		c-0.119-0.455-0.216-0.915-0.333-1.37l-2.231-0.031l-35.998-0.229l-36.02,2.216l-15.03,0.154
		c-9.535,12.191-18.521,24.832-26.9,37.901c-0.377,0.589-0.737,1.19-1.112,1.781c-0.23,1.665-0.433,3.333-0.657,4.998
		c-1.713,12.743-3.288,25.503-4.638,38.283c-2.856,27.044-4.912,54.408-6.031,81.912c-12.645-2.439-26.731-2.063-33.545-1.987
		c-3.945,0.045-7.817,0.422-11.635,1.002c-12.828,43.323-19.882,89.121-20.275,136.513c6.858,4.838,14.022,8.91,21.53,11.691
		c7.545,2.861,15.467,4.229,23.644,4.049c7.918-0.131,15.957-1.957,24.348-4.298c0.018,0.173,0.035,0.346,0.053,0.519
		c-6.406,5.852-14.511,10.094-23.432,11.939c-9.304,1.894-19.352,1.008-28.256-2.418c-6.578-2.446-12.565-6.058-17.853-10.382
		c0.082,6.036,0.24,12.053,0.537,18.035c2.03,2.807,4.182,5.557,6.477,8.231c8.779,10.481,19.41,19.693,30.21,29.295
		c-12.784-4.615-24.874-11.376-35.511-20.384c1.864,22.109,5.182,43.801,9.857,64.986c2.595,0.938,5.213,1.844,7.874,2.697
		c1.971,0.631,4.499,1.416,7.399,2.245c-0.967-3.601-1.733-7.254-1.907-11.004c-0.295-6.372,1.27-13.156,5.41-17.488
		c2.366-2.476,5.378-3.98,8.33-5.442c9.032-4.472,19.557-8.934,28.362-3.918c5.571,3.174,9.184,9.665,10.947,16.433
		c2.004,7.689,1.281,16.734-1.072,25.395c3.833-1.259,7.151-3.178,9.648-5.979c12.968,55.097,32.214,108.516,59.308,158.693
		c24.511,45.392,55.899,87.137,92.588,124.045c1.582,10.319,3.171,21.472,4.697,33.345c3.948,2.335,7.929,4.619,11.946,6.847
		c8.224,4.561,16.574,8.922,25.076,13.019c7.21,3.474,14.517,6.779,21.916,9.908c3.7,1.565,7.422,3.086,11.168,4.563
		c7.49,2.954,15.069,5.73,22.732,8.323c49.812,16.855,103.182,25.995,158.686,25.995c85.392,0,165.73-21.632,235.835-59.716
		c14.021-7.617,27.633-15.891,40.794-24.782c13.124-8.868,25.801-18.349,37.988-28.401c0.106-12.494,0.271-25.198,0.496-38.096
		C963.489,877.501,995.497,799.409,1012.826,717.273z M674.676,661.727c-5.918,0-5.909-9.183,0-9.183
		C680.594,652.544,680.584,661.727,674.676,661.727z M520.848,609.414c5.919,0,5.908,9.183,0,9.183
		C514.93,618.597,514.94,609.414,520.848,609.414z M548.163,576.906c-5.918,0-5.909-9.183,0-9.183
		C554.082,567.723,554.072,576.906,548.163,576.906z M544.927,635.851c21.906-31.579,19.857-65.316,26.77-101.162
		c3.529-18.302,16.663-57.614,42.033-42.064c18.577,11.386,18.043,53.439,22.635,73.185c5.712,24.57,13.061,50.606,22.085,72.97
		c3.087,7.652,7.95,16.256,9.898,24.791c1.607,7.04,1.231,14.033-3.765,20.401c-12.736,16.238-40.647,23.631-59.919,26.517
		c-19.689,2.948-45.387-9.125-60.715-21.103C521.751,672.041,531.557,655.123,544.927,635.851z M650.236,579.781
		c-5.918,0-5.909-9.183,0-9.183C656.154,570.598,656.145,579.781,650.236,579.781z M898.947,615.721c-5.919,0-5.908-9.183,0-9.183
		C904.866,606.539,904.855,615.721,898.947,615.721z M760.934,640.161c-5.918,0-5.908-9.183,0-9.183
		C766.852,630.979,766.842,640.161,760.934,640.161z M724.993,667.477c-5.919,0-5.908-9.183,0-9.183
		C730.912,658.294,730.901,667.477,724.993,667.477z M699.115,597.032c-5.918,0-5.909-9.182,0-9.182
		C705.034,587.85,705.024,597.032,699.115,597.032z M699.115,628.66c-5.918,0-5.909-9.183,0-9.183
		C705.034,619.478,705.024,628.66,699.115,628.66z M872.598,800.654c-49.145,0-89.04-39.623-90.231-88.929
		c-3.829-1.352-3.746-7.393,0.205-8.587c3.241-47.379,42.253-84.826,90.026-84.826c27.305,0,51.724,12.277,68.29,31.598
		c0.383-0.099,0.735-0.242,1.187-0.242c3.938,0,5.191,4.031,3.889,6.752c10.642,14.957,16.977,33.244,16.977,53.063
		C962.942,759.834,922.493,800.654,872.598,800.654z M866.959,483.29c7.606,3.262,14.547,7.931,21.677,11.998
		c6.877,4.578,13.509,9.516,19.842,14.752c-7.976-2.417-15.419-5.592-23.042-8.287l-11.414-3.966
		c-3.764-1.377-7.492-2.799-11.355-3.867c-3.828-1.152-7.623-2.351-11.369-3.668c-3.779-1.221-7.656-2.123-11.467-3.201
		c-7.55-2.424-15.319-3.946-22.983-5.849c-15.428-3.365-31.027-5.746-46.813-7.275c-10.343-0.886-20.758-1.4-31.312-1.373
		c-5.279,3.112-10.354,7.393-15.082,13.279c3.077-10.888,9.047-20.324,16.141-27.101c7.126-6.765,15.25-11.196,23.495-13.767
		c8.22-2.682,16.83-3.347,24.999-2.996c8.195,0.344,16.146,1.636,23.881,2.884c15.484,2.615,30.002,5.241,44.398,2.586
		c14.524-2.515,28.911-9.49,43.19-20.265c-9.482,19.032-24.071,33.066-40.269,40.047c-6.631,2.928-13.597,4.425-20.457,5.008
		C848.603,475.251,858.001,478.779,866.959,483.29z M678.9,388.143c2.228-22.826,25.529-37.883,42.336-47.501
		c31.647-18.112,67.279-29.843,104.295-29.922c21.409-0.046,43.295,4.001,63.816,12.317c13.605,5.514,10.604,25.507-4.014,26.845
		c-13.9,1.271-27.7,3.204-41.349,5.783c-50.514,9.541-94.988,29.358-140.06,52.795C688.28,416.596,676.823,409.422,678.9,388.143z
		 M312.719,348.964c16.104-6.473,33.027-10.369,49.861-11.705c36.901-2.928,73.367,5.87,106.38,21.353
		c17.532,8.222,41.978,21.337,46.054,43.907c3.799,21.04-7.038,29.119-23.291,22.282c-46.826-19.7-92.763-35.84-143.884-41.248
		c-9.652-1.02-19.352-1.721-29.082-2.098C300.564,380.75,295.826,355.753,312.719,348.964z M505.034,671.79
		c-5.918,0-5.908-9.183,0-9.183C510.953,662.607,510.943,671.79,505.034,671.79z M482.032,650.226c-5.918,0-5.909-9.184,0-9.184
		C487.95,641.042,487.941,650.226,482.032,650.226z M425.964,678.421c5.918,0,5.908,9.183,0,9.183
		C420.046,687.603,420.056,678.421,425.964,678.421z M423.089,625.228c5.918,0,5.909,9.183,0,9.183
		C417.171,634.411,417.18,625.228,423.089,625.228z M448.547,472.555c-10.553-0.027-20.968,0.488-31.312,1.373
		c-15.785,1.529-31.384,3.909-46.813,7.275c-7.664,1.904-15.432,3.426-22.982,5.849c-3.811,1.077-7.689,1.98-11.468,3.201
		c-3.745,1.317-7.541,2.515-11.369,3.668c-3.864,1.068-7.591,2.489-11.355,3.867l-11.413,3.966
		c-7.623,2.694-15.066,5.869-23.042,8.287c6.333-5.236,12.965-10.174,19.841-14.752c7.131-4.067,14.072-8.736,21.677-11.998
		c8.958-4.511,18.357-8.039,27.938-11.06c-6.859-0.582-13.826-2.08-20.456-5.008c-16.199-6.981-30.787-21.015-40.27-40.047
		c14.279,10.775,28.666,17.75,43.19,20.265c14.397,2.655,28.914,0.029,44.398-2.586c7.736-1.248,15.687-2.54,23.881-2.884
		c8.17-0.351,16.78,0.314,24.999,2.996c8.245,2.572,16.369,7.002,23.495,13.767c7.093,6.777,13.063,16.213,16.14,27.101
		C458.902,479.947,453.826,475.667,448.547,472.555z M467.656,728.738c5.918,0,5.908,9.183,0,9.183
		C461.737,737.921,461.747,728.738,467.656,728.738z M245.256,714.23c0-50.352,40.448-91.17,90.343-91.17
		s90.343,40.818,90.343,91.17c0,50.353-40.448,91.171-90.343,91.171S245.256,764.583,245.256,714.23z M277.586,846.151
		c15.654-0.611,31.252-0.499,46.853-0.421c15.588,0.25,31.171,0.552,46.728,1.201c15.572,0.444,31.103,1.439,46.651,2.205
		c3.056,0.174,6.108,0.396,9.162,0.591c-8.95-4.913-17.797-10.015-26.665-15.078l-30.158-17.216l34.243,3.329
		c10.327,1.003,20.646,2.12,30.952,3.397c10.313,1.193,20.623,2.424,30.916,3.868c10.303,1.321,20.589,2.851,30.873,4.418
		c10.281,1.601,20.556,3.295,30.808,5.263c-10.433,0.375-20.845,0.473-31.251,0.479c-10.402-0.027-20.802-0.093-31.185-0.366
		c-9.465-0.138-18.915-0.46-28.363-0.818c0.155,0.083,0.314,0.161,0.469,0.245l30.079,15.972l35.995,19.112l-40.566-3.572
		c-15.502-1.365-31.017-2.555-46.507-4.063c-15.481-1.626-30.981-3.025-46.437-4.972c-15.473-1.743-30.918-3.833-46.36-5.976
		C308.393,851.436,292.962,849.155,277.586,846.151z M474.554,964.942c-14.124,4.928-28.169,10.062-42.403,14.701
		c-14.164,4.823-28.447,9.333-42.748,13.796c-14.36,4.308-28.708,8.647-43.303,12.335c13.357-6.944,26.962-13.236,40.556-19.559
		c13.653-6.168,27.322-12.289,41.112-18.098c13.718-5.992,27.626-11.49,41.455-17.193c2.728-1.1,5.472-2.157,8.207-3.239
		c-9.793-0.604-19.574-1.416-29.357-2.184l-33.268-2.611l31.13-11.133c9.388-3.358,18.815-6.615,28.297-9.728
		c9.454-3.187,18.92-6.34,28.459-9.301c6.895-2.231,13.831-4.348,20.779-6.438c-28.157-18.188,23.808-53.414,49.413-62.548
		c19.777-7.056,42.111-4.496,61.426,3.743c19.315,8.24,35.936,21.766,50.788,36.611c2.363,2.363,4.801,4.973,5.381,8.264
		c0.922,5.239-3.123,9.974-7.176,13.416c-4.355,3.699-9.111,6.896-14.122,9.635c0.005,0.007,0.012,0.014,0.018,0.02
		c-1.81,0.99-3.661,1.906-5.538,2.764c-0.774,0.353-1.567,0.661-2.351,0.992c-1.427,0.603-2.864,1.175-4.32,1.701
		c-0.866,0.312-1.73,0.614-2.605,0.898c-1.663,0.543-3.344,1.026-5.037,1.467c-0.587,0.153-1.165,0.338-1.755,0.477
		c-2.244,0.536-4.511,0.963-6.79,1.316c-0.699,0.108-1.399,0.183-2.1,0.274c-1.752,0.227-3.509,0.401-5.272,0.519
		c-0.71,0.047-1.417,0.1-2.128,0.129c-2.382,0.098-4.767,0.129-7.151,0.021c-14.174-0.648-27.926-4.803-41.926-7.113
		c-14.019-2.314-28.348-2.784-42.161-6.112c-1.951-0.47-3.755-0.974-5.448-1.506c-0.025-0.008-0.055-0.015-0.08-0.023
		c0.002-0.001,0.003-0.002,0.003-0.002c-1.178-0.373-2.261-0.768-3.321-1.168c-8.361,3.906-16.734,7.779-25.169,11.486
		c-8.285,3.758-16.632,7.349-24.991,10.908c0.169,0.008,0.339,0.011,0.508,0.021l32.691,1.562l39.119,1.869l-36.727,13.513
		C502.613,954.587,488.638,959.907,474.554,964.942z"/>
	<path fill="#312E4C" d="M703.924,408.46c45.072-23.438,89.546-43.254,140.06-52.795c13.648-2.579,27.449-4.512,41.349-5.783
		c14.619-1.338,17.619-21.331,4.014-26.845c-20.521-8.316-42.407-12.363-63.816-12.317c-37.016,0.078-72.648,11.809-104.295,29.922
		c-16.807,9.618-40.108,24.675-42.336,47.501C676.823,409.422,688.28,416.596,703.924,408.46z"/>
	<path fill="#312E4C" d="M318.757,381.454c9.73,0.377,19.43,1.078,29.082,2.098c51.121,5.408,97.058,21.547,143.884,41.248
		c16.253,6.837,27.09-1.242,23.291-22.282c-4.075-22.57-28.521-35.685-46.054-43.907c-33.014-15.482-69.48-24.281-106.38-21.353
		c-16.834,1.336-33.758,5.233-49.861,11.705C295.826,355.753,300.564,380.75,318.757,381.454z"/>
	<path fill="#FF8B88" d="M425.942,714.23c0-50.352-40.448-91.17-90.343-91.17s-90.343,40.818-90.343,91.17
		c0,50.353,40.448,91.171,90.343,91.171S425.942,764.583,425.942,714.23z M378.522,704.855c-5.918,0-5.908-9.182,0-9.182
		C384.441,695.673,384.431,704.855,378.522,704.855z M375.647,639.605c5.918,0,5.908,9.183,0,9.183
		C369.729,648.788,369.738,639.605,375.647,639.605z M368.459,738.801c5.918,0,5.909,9.183,0,9.183
		C362.54,747.984,362.55,738.801,368.459,738.801z M300.889,704.855c-5.918,0-5.908-9.182,0-9.182
		C306.808,695.673,306.798,704.855,300.889,704.855z M328.205,645.912c-5.919,0-5.909-9.183,0-9.183
		C334.123,636.729,334.114,645.912,328.205,645.912z"/>
	<path fill="#FF8B88" d="M942.076,658.851c-5.465,0-5.809-7.742-1.187-8.941c-16.566-19.321-40.985-31.598-68.29-31.598
		c-47.773,0-86.784,37.447-90.026,84.826c0.428-0.129,0.844-0.277,1.364-0.277c5.918,0,5.908,9.183,0,9.183
		c-0.598,0-1.092-0.15-1.569-0.319c1.191,49.306,41.086,88.929,90.231,88.929c49.895,0,90.344-40.819,90.344-91.17
		c0-19.819-6.335-38.106-16.977-53.063C945.31,657.789,944.053,658.851,942.076,658.851z M806.938,668.914
		c-5.918,0-5.909-9.182,0-9.182C812.857,659.732,812.847,668.914,806.938,668.914z M850.068,735.046c-5.919,0-5.909-9.184,0-9.184
		C855.986,725.863,855.976,735.046,850.068,735.046z M861.569,645.912c-5.919,0-5.909-9.183,0-9.183
		C867.487,636.729,867.477,645.912,861.569,645.912z M883.133,712.043c-5.918,0-5.908-9.183,0-9.183
		C889.051,702.861,889.042,712.043,883.133,712.043z"/>
	<path fill="#D3A98C" d="M699.115,628.66c5.908,0,5.918-9.183,0-9.183C693.207,619.478,693.197,628.66,699.115,628.66z"/>
	<path fill="#D3A98C" d="M724.993,667.477c5.908,0,5.919-9.183,0-9.183C719.084,658.294,719.074,667.477,724.993,667.477z"/>
	<path fill="#D3A98C" d="M760.934,640.161c5.908,0,5.919-9.183,0-9.183C755.025,630.979,755.015,640.161,760.934,640.161z"/>
	<path fill="#D3A98C" d="M806.938,659.732c-5.909,0-5.918,9.182,0,9.182C812.847,668.914,812.857,659.732,806.938,659.732z"/>
	<path fill="#D3A98C" d="M861.569,636.729c-5.909,0-5.919,9.183,0,9.183C867.477,645.912,867.487,636.729,861.569,636.729z"/>
	<path fill="#D3A98C" d="M883.133,702.861c-5.908,0-5.918,9.183,0,9.183C889.042,712.043,889.051,702.861,883.133,702.861z"/>
	<path fill="#D3A98C" d="M482.032,650.226c5.909,0,5.918-9.184,0-9.184C476.123,641.042,476.114,650.226,482.032,650.226z"/>
	<path fill="#D3A98C" d="M520.848,618.597c5.908,0,5.919-9.183,0-9.183C514.94,609.414,514.93,618.597,520.848,618.597z"/>
	<path fill="#D3A98C" d="M505.034,671.79c5.909,0,5.919-9.183,0-9.183C499.126,662.607,499.116,671.79,505.034,671.79z"/>
	<path fill="#D3A98C" d="M378.522,704.855c5.909,0,5.919-9.182,0-9.182C372.613,695.673,372.604,704.855,378.522,704.855z"/>
	<path fill="#D3A98C" d="M423.089,625.228c-5.909,0-5.918,9.183,0,9.183C428.998,634.411,429.007,625.228,423.089,625.228z"/>
	<path fill="#D3A98C" d="M425.964,687.603c5.908,0,5.918-9.183,0-9.183C420.056,678.421,420.046,687.603,425.964,687.603z"/>
	<path fill="#D3A98C" d="M328.205,636.729c-5.909,0-5.919,9.183,0,9.183C334.114,645.912,334.123,636.729,328.205,636.729z"/>
	<path fill="#D3A98C" d="M548.163,576.906c5.909,0,5.918-9.183,0-9.183C542.255,567.723,542.245,576.906,548.163,576.906z"/>
	<path fill="#D3A98C" d="M650.236,579.781c5.909,0,5.918-9.183,0-9.183C644.327,570.598,644.317,579.781,650.236,579.781z"/>
	<path fill="#D3A98C" d="M942.076,658.851c1.978,0,3.234-1.062,3.889-2.431c1.302-2.721,0.048-6.752-3.889-6.752
		c-0.452,0-0.804,0.143-1.187,0.242C936.266,651.109,936.611,658.851,942.076,658.851z"/>
	<path fill="#D3A98C" d="M674.676,661.727c5.909,0,5.918-9.183,0-9.183C668.767,652.544,668.757,661.727,674.676,661.727z"/>
	<path fill="#D3A98C" d="M699.115,587.85c-5.909,0-5.918,9.182,0,9.182C705.024,597.032,705.034,587.85,699.115,587.85z"/>
	<path fill="#D3A98C" d="M783.936,702.861c-0.52,0-0.936,0.148-1.364,0.277c-3.951,1.194-4.034,7.234-0.205,8.587
		c0.477,0.169,0.971,0.319,1.569,0.319C789.845,712.043,789.855,702.861,783.936,702.861z"/>
	<path fill="#D3A98C" d="M467.656,737.921c5.908,0,5.918-9.183,0-9.183C461.747,728.738,461.737,737.921,467.656,737.921z"/>
	<path fill="#D3A98C" d="M368.459,747.984c5.909,0,5.918-9.183,0-9.183C362.55,738.801,362.54,747.984,368.459,747.984z"/>
	<path fill="#D3A98C" d="M300.889,695.673c-5.908,0-5.918,9.182,0,9.182C306.798,704.855,306.808,695.673,300.889,695.673z"/>
	<path fill="#D3A98C" d="M375.647,648.788c5.908,0,5.918-9.183,0-9.183C369.738,639.605,369.729,648.788,375.647,648.788z"/>
	<path fill="#D3A98C" d="M898.947,615.721c5.908,0,5.919-9.183,0-9.183C893.039,606.539,893.028,615.721,898.947,615.721z"/>
	<path fill="#D3A98C" d="M850.068,725.863c-5.909,0-5.919,9.184,0,9.184C855.976,735.046,855.986,725.863,850.068,725.863z"/>
	<path fill="#EA5467" d="M543.949,689.386c15.329,11.977,41.026,24.05,60.715,21.103c19.272-2.885,47.184-10.279,59.919-26.517
		c4.995-6.368,5.371-13.361,3.765-20.401c-1.948-8.535-6.811-17.139-9.898-24.791c-9.023-22.363-16.372-48.399-22.085-72.97
		c-4.591-19.746-4.058-61.799-22.635-73.185c-25.37-15.55-38.504,23.763-42.033,42.064c-6.913,35.846-4.864,69.582-26.77,101.162
		C531.557,655.123,521.751,672.041,543.949,689.386z"/>
	<path fill="#312E4C" d="M899.747,427.175c-14.278,10.775-28.666,17.75-43.19,20.265c-14.397,2.655-28.914,0.029-44.398-2.586
		c-7.736-1.248-15.687-2.54-23.881-2.884c-8.17-0.351-16.78,0.314-24.999,2.996c-8.245,2.572-16.368,7.002-23.495,13.767
		c-7.094,6.777-13.064,16.213-16.141,27.101c4.728-5.886,9.804-10.166,15.082-13.279c10.553-0.027,20.968,0.488,31.312,1.373
		c15.786,1.529,31.385,3.909,46.813,7.275c7.664,1.904,15.432,3.426,22.983,5.849c3.811,1.077,7.688,1.98,11.467,3.201
		c3.745,1.317,7.541,2.515,11.369,3.668c3.864,1.068,7.591,2.489,11.355,3.867l11.414,3.966c7.623,2.694,15.066,5.869,23.042,8.287
		c-6.333-5.236-12.965-10.174-19.842-14.752c-7.13-4.067-14.071-8.736-21.677-11.998c-8.958-4.511-18.356-8.039-27.938-11.06
		c6.859-0.582,13.826-2.08,20.457-5.008C875.676,460.241,890.264,446.207,899.747,427.175z"/>
	<path fill="#312E4C" d="M225.109,295.271l36.02-2.216l35.998,0.229l2.231,0.031c-6.324-24.515-11.294-49.322-15.031-74.293
		c-8.822,7.319-17.395,14.927-25.686,22.831c-5.728,5.462-11.325,11.059-16.786,16.787c-11.18,11.726-21.779,24.008-31.775,36.785
		L225.109,295.271z"/>
	<path fill="#312E4C" d="M333.142,293.789l36.032,0.338l36.032,0.618l36.032,0.108l36.022-0.579l36.027-0.096l36.058,0.828
		l36.083-1.764l35.784-0.295l19.539-27.776l14.842-31.71l8.118-34.064l2.884-34.832l-0.252-19.15l3.177,17.497l6.388,33.729
		l8.522,33.298l8.982,33.177l14.257,31.568l35.733-0.014l35.675-0.297l35.674-0.499l35.675-0.915l35.665,2.502l35.67-1.849
		l35.701-0.244l32.404,1.984c-19.028-24.317-40.293-46.793-63.466-67.151c-0.325,14.776-1.029,29.55-2.204,44.297l-2.991-0.237
		c1.238-15.526,1.988-31.08,2.28-46.635c-36.949-31.954-78.691-58.504-123.982-78.486c4.989,48.492,5.983,97.384,2.749,145.979
		l-3.077-0.208c3.261-48.999,2.227-98.299-2.901-147.183C736.094,119.691,669.74,105.233,600,105.233
		c-6.66,0-13.28,0.171-19.877,0.431c-9.59,61.836-12.627,124.683-8.678,187.069l-3.077,0.194
		c-3.951-62.408-0.935-125.277,8.615-187.144c-35.809,1.641-70.621,7.091-104.048,15.95c-7.107,54.841-9.09,110.334-5.6,165.47
		l-3.078,0.194c-3.475-54.906-1.539-110.167,5.459-164.792c-9.581,2.609-19.061,5.464-28.401,8.624
		c-7.664,2.593-15.243,5.369-22.732,8.323c-3.745,1.476-7.468,2.998-11.168,4.563c-6.016,2.544-11.954,5.235-17.846,8.007
		c3.223,47.782,10.31,95.289,21.403,141.832l-2.999,0.718c-11.041-46.325-18.119-93.602-21.393-141.155
		c-0.358,0.172-0.723,0.333-1.082,0.505c-10.815,5.211-21.411,10.804-31.772,16.762c-6.907,3.972-13.709,8.104-20.401,12.395
		c-3.346,2.145-6.664,4.329-9.955,6.552c-6.58,4.446-13.048,9.046-19.398,13.795c-5.762,4.308-11.413,8.757-16.977,13.308
		c3.787,25.726,8.874,51.283,15.415,76.524L333.142,293.789z"/>
	<path fill="#B499C4" d="M299.69,294.685l2.862-0.746c-0.051-0.193-0.092-0.388-0.142-0.581
		c-6.541-25.241-11.628-50.798-15.415-76.524c-0.891,0.728-1.784,1.454-2.67,2.188c3.737,24.971,8.708,49.778,15.031,74.293
		C299.475,293.77,299.571,294.23,299.69,294.685z"/>
	<path fill="#B499C4" d="M407.972,294.671l2.999-0.718c-11.093-46.543-18.18-94.05-21.403-141.832
		c-0.995,0.468-1.998,0.921-2.989,1.395C389.853,201.069,396.931,248.346,407.972,294.671z"/>
	<path fill="#B499C4" d="M464.256,287.397l3.078-0.194c-3.49-55.136-1.507-110.629,5.6-165.47c-1.075,0.285-2.147,0.579-3.22,0.871
		C462.717,177.229,460.781,232.49,464.256,287.397z"/>
	<path fill="#B499C4" d="M568.368,292.927l3.077-0.194c-3.948-62.387-0.911-125.233,8.678-187.069
		c-1.047,0.042-2.096,0.071-3.14,0.119C567.433,167.65,564.417,230.519,568.368,292.927z"/>
	<path fill="#B499C4" d="M924.195,272.497c1.175-14.748,1.88-29.521,2.204-44.297c-0.974-0.856-1.935-1.727-2.916-2.575
		c-0.292,15.555-1.042,31.109-2.28,46.635L924.195,272.497z"/>
	<path fill="#B499C4" d="M799.173,292.909l3.077,0.208c3.234-48.595,2.241-97.487-2.749-145.979
		c-1.075-0.474-2.151-0.946-3.229-1.413C801.399,194.61,802.434,243.911,799.173,292.909z"/>
	<path fill="#312E4C" d="M548.772,898.964c14.558-10.148,32.196-16.111,51.228-16.111c27.772,0,52.605,12.658,69.178,32.555
		c5.011-2.739,9.767-5.936,14.122-9.635c4.054-3.443,8.099-8.177,7.176-13.416c-0.58-3.29-3.018-5.901-5.381-8.264
		c-14.852-14.845-31.473-28.371-50.788-36.611c-19.315-8.239-41.649-10.799-61.426-3.743c-25.605,9.134-77.57,44.36-49.413,62.548
		c2.623-0.79,5.243-1.587,7.869-2.368C537.13,902.217,542.943,900.57,548.772,898.964z"/>
	<path fill="#312E4C" d="M540.061,912.762c-1.951-0.47-3.755-0.975-5.448-1.506C536.307,911.788,538.111,912.292,540.061,912.762z"
		/>
	<path fill="#312E4C" d="M540.099,905.838c-2.265,1.085-4.524,2.184-6.793,3.255c-0.695,0.326-1.394,0.645-2.09,0.97
		c1.06,0.4,2.142,0.795,3.322,1.166C536.31,909.349,538.175,907.562,540.099,905.838z"/>
	<path fill="#312E4C" d="M633.427,925.837c-0.709,0.048-1.418,0.1-2.128,0.129C632.011,925.937,632.717,925.884,633.427,925.837z"/>
	<path fill="#312E4C" d="M640.8,925.044c-0.698,0.108-1.4,0.183-2.1,0.274C639.4,925.228,640.101,925.153,640.8,925.044z"/>
	<path fill="#312E4C" d="M649.345,923.251c-0.587,0.153-1.165,0.337-1.755,0.477C648.18,923.589,648.758,923.404,649.345,923.251z"
		/>
	<path fill="#312E4C" d="M656.986,920.886c-0.864,0.312-1.732,0.614-2.605,0.898C655.256,921.5,656.121,921.197,656.986,920.886z"/>
	<path fill="#312E4C" d="M663.658,918.193c-0.773,0.353-1.567,0.661-2.351,0.992C662.091,918.853,662.884,918.546,663.658,918.193z"
		/>
	<path fill="#EA6565" d="M600,882.854c-19.033,0-36.671,5.963-51.228,16.111c3.825-1.053,7.652-2.104,11.503-3.089
		c-6.678,3.445-13.418,6.727-20.176,9.963c-1.923,1.723-3.789,3.511-5.56,5.391c0,0-0.003,0.003-0.005,0.004
		c0.025,0.008,0.055,0.015,0.08,0.023c1.693,0.53,3.497,1.036,5.448,1.506c13.813,3.328,28.142,3.798,42.161,6.112
		c14,2.31,27.752,6.465,41.926,7.113c2.384,0.108,4.769,0.077,7.151-0.021c0.71-0.029,1.419-0.081,2.128-0.129
		c1.763-0.118,3.52-0.292,5.272-0.519c0.7-0.091,1.402-0.166,2.1-0.274c2.279-0.353,4.546-0.78,6.79-1.316
		c0.59-0.141,1.169-0.324,1.755-0.477c1.693-0.441,3.373-0.924,5.037-1.467c0.873-0.284,1.741-0.587,2.605-0.898
		c1.457-0.526,2.893-1.098,4.32-1.701c0.784-0.331,1.578-0.639,2.351-0.992c1.877-0.859,3.728-1.774,5.538-2.764
		c-0.006-0.006-0.013-0.013-0.018-0.02C652.606,895.511,627.772,882.854,600,882.854z"/>
	<path fill="#312E4C" d="M447.489,458.732c-7.126-6.765-15.25-11.196-23.495-13.767c-8.219-2.682-16.83-3.347-24.999-2.996
		c-8.194,0.344-16.145,1.636-23.881,2.884c-15.484,2.615-30.001,5.241-44.398,2.586c-14.524-2.515-28.911-9.49-43.19-20.265
		c9.483,19.032,24.071,33.066,40.27,40.047c6.63,2.928,13.597,4.425,20.456,5.008c-9.581,3.022-18.98,6.55-27.938,11.06
		c-7.605,3.262-14.546,7.931-21.677,11.998c-6.876,4.578-13.508,9.516-19.841,14.752c7.976-2.417,15.418-5.592,23.042-8.287
		l11.413-3.966c3.765-1.377,7.492-2.799,11.355-3.867c3.828-1.152,7.624-2.351,11.369-3.668c3.779-1.221,7.656-2.123,11.468-3.201
		c7.55-2.424,15.319-3.946,22.982-5.849c15.428-3.365,31.027-5.746,46.813-7.275c10.344-0.886,20.759-1.4,31.312-1.373
		c5.279,3.112,10.355,7.393,15.082,13.279C460.552,474.945,454.582,465.509,447.489,458.732z"/>
	<path fill="#EFFAFD" d="M553.373,935.91l-39.119-1.869l-32.691-1.562c-0.169-0.009-0.339-0.013-0.508-0.021
		c8.36-3.559,16.707-7.15,24.991-10.908c8.436-3.707,16.809-7.58,25.169-11.486c0.696-0.325,1.394-0.644,2.09-0.97
		c2.269-1.071,4.528-2.17,6.793-3.255c6.758-3.236,13.498-6.518,20.176-9.963c-3.851,0.986-7.678,2.036-11.503,3.089
		c-5.829,1.606-11.642,3.253-17.434,4.956c-2.626,0.781-5.246,1.579-7.869,2.368c-6.947,2.09-13.884,4.207-20.779,6.438
		c-9.539,2.961-19.005,6.114-28.459,9.301c-9.482,3.112-18.909,6.369-28.297,9.728l-31.13,11.133l33.268,2.611
		c9.783,0.768,19.564,1.58,29.357,2.184c-2.735,1.083-5.48,2.139-8.207,3.239c-13.829,5.704-27.737,11.201-41.455,17.193
		c-13.79,5.809-27.459,11.929-41.112,18.098c-13.594,6.324-27.198,12.616-40.556,19.559c14.596-3.687,28.943-8.026,43.303-12.335
		c14.301-4.464,28.584-8.973,42.748-13.796c14.234-4.639,28.279-9.772,42.403-14.701c14.084-5.035,28.059-10.355,42.093-15.519
		L553.373,935.91z"/>
	<path fill="#EFFAFD" d="M416.618,864.698c15.491,1.508,31.006,2.698,46.507,4.063l40.566,3.572l-35.995-19.112l-30.079-15.972
		c-0.155-0.083-0.314-0.161-0.469-0.245c9.448,0.358,18.899,0.68,28.363,0.818c10.384,0.273,20.783,0.339,31.185,0.366
		c10.405-0.006,20.818-0.104,31.251-0.479c-10.253-1.968-20.527-3.661-30.808-5.263c-10.284-1.567-20.57-3.097-30.873-4.418
		c-10.293-1.444-20.602-2.675-30.916-3.868c-10.306-1.276-20.624-2.393-30.952-3.397l-34.243-3.329l30.158,17.216
		c8.869,5.063,17.716,10.165,26.665,15.078c-3.054-0.195-6.106-0.417-9.162-0.591c-15.548-0.766-31.078-1.761-46.651-2.205
		c-15.557-0.649-31.14-0.951-46.728-1.201c-15.601-0.078-31.199-0.19-46.853,0.421c15.376,3.004,30.806,5.285,46.234,7.599
		c15.442,2.142,30.887,4.232,46.36,5.976C385.637,861.673,401.137,863.071,416.618,864.698z"/>
	<path fill="#EA5467" d="M1150,600.001c0-303.271-246.728-550-550-550s-550,246.729-550,550C50,903.271,296.729,1150,600,1150
		S1150,903.271,1150,600.001z M1075.999,735.45c-2.223,7.826-4.634,15.574-7.226,23.237c-11.67,34.485-27.038,67.265-45.633,97.869
		c-20.661,34.003-45.305,65.319-73.285,93.298c-11.222,11.222-22.982,21.907-35.236,32.015
		c-12.187,10.053-24.863,19.533-37.988,28.401c-13.161,8.891-26.773,17.165-40.794,24.782
		c-70.105,38.084-150.444,59.716-235.835,59.716c-55.505,0-108.874-9.14-158.686-25.995c-7.664-2.594-15.243-5.369-22.732-8.323
		c-3.745-1.476-7.468-2.998-11.168-4.563c-7.399-3.129-14.706-6.434-21.916-9.908c-8.502-4.097-16.852-8.458-25.076-13.019
		c-4.017-2.228-7.998-4.512-11.946-6.847c-0.404-0.239-0.808-0.476-1.211-0.716c-2.586-1.539-5.155-3.101-7.709-4.687
		c-5.461-3.386-10.87-6.85-16.186-10.44c-6.58-4.446-13.048-9.046-19.398-13.795c-15.875-11.872-31.013-24.674-45.333-38.327
		c-4.313-4.113-8.526-8.327-12.689-12.591c-3.939-4.034-7.828-8.119-11.628-12.286c-17.096-18.748-32.75-38.828-46.831-60.044
		c-2.29-3.45-4.536-6.931-6.74-10.441c-3.417-5.44-6.759-10.931-9.967-16.512c-41.702-72.522-65.552-156.613-65.552-246.274
		s23.85-173.752,65.552-246.274c3.971-6.907,8.105-13.71,12.395-20.401c17.161-26.768,36.83-51.773,58.675-74.686
		c5.461-5.728,11.059-11.325,16.786-16.787c8.291-7.904,16.864-15.513,25.686-22.831c0.886-0.735,1.779-1.46,2.67-2.188
		c5.564-4.551,11.215-8.999,16.977-13.308c6.35-4.749,12.818-9.349,19.398-13.795c3.29-2.222,6.609-4.406,9.955-6.552
		c6.692-4.291,13.494-8.423,20.401-12.395c10.361-5.958,20.957-11.551,31.772-16.762c7.21-3.474,14.517-6.779,21.916-9.908
		c3.7-1.565,7.422-3.086,11.168-4.563c7.49-2.954,15.069-5.73,22.732-8.323c9.34-3.16,18.82-6.015,28.401-8.624
		c1.072-0.292,2.144-0.586,3.22-0.871c33.428-8.859,68.239-14.309,104.048-15.95c1.045-0.048,2.094-0.077,3.14-0.119
		c6.597-0.26,13.217-0.431,19.877-0.431c69.74,0,136.094,14.458,196.272,40.493c1.078,0.467,2.155,0.939,3.229,1.413
		c45.291,19.981,87.033,46.531,123.982,78.486c0.981,0.848,1.942,1.718,2.916,2.575c23.172,20.359,44.438,42.834,63.466,67.151
		c7.875,10.063,15.352,20.449,22.443,31.116c26.772,40.273,47.79,84.689,61.907,132.088c13.349,44.82,20.553,92.288,20.553,141.446
		c0,0.073-0.003,0.145-0.003,0.218c-0.002,3.868-0.056,7.723-0.146,11.569c-0.175,7.509-0.541,14.972-1.047,22.395
		c-0.311,4.556-0.677,9.097-1.111,13.618c-0.089,0.927-0.153,1.862-0.247,2.788c-0.845,8.316-1.895,16.571-3.147,24.761
		c-0.626,4.095-1.302,8.173-2.027,12.234c-1.323,7.404-2.83,14.742-4.479,22.028c-0.159,0.706-0.3,1.421-0.463,2.128
		C1080.257,719.717,1078.222,727.622,1075.999,735.45z"/>
</g>
</svg>
