<svg height="512" width="512" xmlns="http://www.w3.org/2000/svg" data-name="Layer 1"><path d="M61 418.99h390v71H61z" fill="#6d7486"/><path d="M391 362.99H121a30 30 0 00-30 30v26h330v-26a30 30 0 00-30-30z" fill="#b0b5ca"/><path d="M379.81 145.82v217.17H132.19V145.82a123.81 123.81 0 01247.62 0z" fill="#6d7486"/><path d="M313.98 145.79v31.34h-42.31v129.39h-31.34V177.13h-42.31v-31.34h42.31V97.48h31.34v48.31z" fill="#f2838d"/><path d="M61 418.99h30v71H61z" fill="#565e6d"/><path d="M151 362.99h-30a30 30 0 00-30 30v26h30v-26a30 30 0 0130-30z" fill="#9ea5ba"/><path d="M132.19 145.82v217.17h30V145.82A123.832 123.832 0 01271 22.917 123.846 123.846 0 00132.19 145.82z" fill="#565e6d"/><g fill="#b0b5ca"><path d="M164.97 148.781a6.728 6.728 0 116.5-6.724 6.622 6.622 0 01-6.5 6.724zM165.47 337.977a6 6 0 01-6-6v-15.593a6 6 0 0112 0v15.593a6 6 0 01-6 6zM165.47 301.715a6 6 0 01-6-6V165.4a6 6 0 0112 0v130.315a6 6 0 01-6 6zM241 471.985a6 6 0 01-6-6v-19a6 6 0 0112 0v19a6 6 0 01-6 6zM211 471.985a6 6 0 01-6-6v-19a6 6 0 0112 0v19a6 6 0 01-6 6zM181 471.985a6 6 0 01-6-6v-19a6 6 0 0112 0v19a6 6 0 01-6 6zM151 471.985a6 6 0 01-6-6v-19a6 6 0 0112 0v19a6 6 0 01-6 6zM121 471.985a6 6 0 01-6-6v-19a6 6 0 0112 0v19a6 6 0 01-6 6zM91 471.985a6 6 0 01-6-6v-19a6 6 0 0112 0v19a6 6 0 01-6 6zM301 471.985a6 6 0 01-6-6v-19a6 6 0 0112 0v19a6 6 0 01-6 6zM271 471.985a6 6 0 01-6-6v-19a6 6 0 0112 0v19a6 6 0 01-6 6zM361 471.985a6 6 0 01-6-6v-19a6 6 0 0112 0v19a6 6 0 01-6 6zM331 471.985a6 6 0 01-6-6v-19a6 6 0 0112 0v19a6 6 0 01-6 6zM421 471.985a6 6 0 01-6-6v-19a6 6 0 0112 0v19a6 6 0 01-6 6zM391 471.985a6 6 0 01-6-6v-19a6 6 0 0112 0v19a6 6 0 01-6 6z"/></g></svg>