<svg id="Layer_1" height="512" viewBox="0 0 512 512" width="512" xmlns="http://www.w3.org/2000/svg" data-name="Layer 1"><path d="m61 418.99h390v71h-390z" fill="#6d7486"/><path d="m391 362.99h-270a30 30 0 0 0 -30 30v26h330v-26a30 30 0 0 0 -30-30z" fill="#b0b5ca"/><path d="m379.81 145.82v217.17h-247.62v-217.17a123.81 123.81 0 0 1 247.62 0z" fill="#6d7486"/><path d="m313.98 145.79v31.34h-42.31v129.39h-31.34v-129.39h-42.31v-31.34h42.31v-48.31h31.34v48.31z" fill="#f2838d"/><path d="m61 418.99h30v71h-30z" fill="#565e6d"/><path d="m151 362.99h-30a30 30 0 0 0 -30 30v26h30v-26a30 30 0 0 1 30-30z" fill="#9ea5ba"/><path d="m132.19 145.82v217.17h30v-217.17a123.832 123.832 0 0 1 108.81-122.903 123.846 123.846 0 0 0 -138.81 122.903z" fill="#565e6d"/><g fill="#b0b5ca"><path d="m164.97 148.781a6.728 6.728 0 1 1 6.5-6.724 6.622 6.622 0 0 1 -6.5 6.724z"/><path d="m165.47 337.977a6 6 0 0 1 -6-6v-15.593a6 6 0 0 1 12 0v15.593a6 6 0 0 1 -6 6z"/><path d="m165.47 301.715a6 6 0 0 1 -6-6v-130.315a6 6 0 0 1 12 0v130.315a6 6 0 0 1 -6 6z"/><path d="m241 471.985a6 6 0 0 1 -6-6v-19a6 6 0 0 1 12 0v19a6 6 0 0 1 -6 6z"/><path d="m211 471.985a6 6 0 0 1 -6-6v-19a6 6 0 0 1 12 0v19a6 6 0 0 1 -6 6z"/><path d="m181 471.985a6 6 0 0 1 -6-6v-19a6 6 0 0 1 12 0v19a6 6 0 0 1 -6 6z"/><path d="m151 471.985a6 6 0 0 1 -6-6v-19a6 6 0 0 1 12 0v19a6 6 0 0 1 -6 6z"/><path d="m121 471.985a6 6 0 0 1 -6-6v-19a6 6 0 0 1 12 0v19a6 6 0 0 1 -6 6z"/><path d="m91 471.985a6 6 0 0 1 -6-6v-19a6 6 0 0 1 12 0v19a6 6 0 0 1 -6 6z"/><path d="m301 471.985a6 6 0 0 1 -6-6v-19a6 6 0 0 1 12 0v19a6 6 0 0 1 -6 6z"/><path d="m271 471.985a6 6 0 0 1 -6-6v-19a6 6 0 0 1 12 0v19a6 6 0 0 1 -6 6z"/><path d="m361 471.985a6 6 0 0 1 -6-6v-19a6 6 0 0 1 12 0v19a6 6 0 0 1 -6 6z"/><path d="m331 471.985a6 6 0 0 1 -6-6v-19a6 6 0 0 1 12 0v19a6 6 0 0 1 -6 6z"/><path d="m421 471.985a6 6 0 0 1 -6-6v-19a6 6 0 0 1 12 0v19a6 6 0 0 1 -6 6z"/><path d="m391 471.985a6 6 0 0 1 -6-6v-19a6 6 0 0 1 12 0v19a6 6 0 0 1 -6 6z"/></g></svg>