<svg xmlns="http://www.w3.org/2000/svg" viewBox="0 0 1200 1200"><path fill="#34A59A" d="M1149.068 606.171c-5.366-39.891-32.917-72.531-55.657-105.743-61.214-89.405-93.136-196.648-157.116-284.094S755.593 62.564 656.746 106.943c-46.362 20.815-80.186 62.193-123.643 88.539-56.095 34.008-128.013 40.534-189.314 17.178-41.544-15.829-78.25-44.426-121.765-53.535-51.909-10.866-109.159 9.98-141.928 51.679-32.769 41.699-39.488 102.254-16.657 150.123 18.603 39.003 54.175 68.359 70.512 108.364 37.449 91.703-38.664 197.188-12.36 292.687 17.157 62.286 75.674 109.679 81.918 173.982.51 5.255.639 10.566.588 15.9 81.001 87.827 279.852 241.557 571.375 60.968 0 0 80.747-54.977 116.825-137.441l1.825 4.438c12.545-16.645 26.918-32.055 43.929-45.691 42.781-34.269 94.416-55.933 138.005-89.169 43.588-33.237 80.32-84.469 73.012-138.794z"/><path fill="#273252" d="M903.427 845.082c-62.885 145.636-207.894 247.831-376.342 247.831S213.629 990.718 150.744 845.082h-15.539c63.738 153.728 215.376 262.144 391.881 262.144S855.229 998.81 918.967 845.082h-15.54z"/><path fill="#FCB598" d="M770.36 632.937c.112-14.369 26.595-13.506 34.912-13.413 44.258.493 76.232 59.415 57.047 107.232-9.885 24.637-28.04 35.907-49.629 42.824-9.957 3.19-43.145 12.849-43.026-8.909-.001-.044.69-126.749.696-127.734z"/><path fill="#EA6565" d="M822.733 657.648c6.862 5.289 12.133 12.676 15.409 21.046 3.208 8.377 3.919 18.154 1.185 27.067-1.35 4.44-3.417 8.598-5.933 12.385-1.355 1.818-2.635 3.693-4.198 5.305-.767.816-1.456 1.709-2.285 2.453l-2.439 2.272c-6.627 5.897-14.282 10.251-22.391 13.179 6.444-5.73 12.787-11.227 18.026-17.481a73.129 73.129 0 007.052-9.702c1.954-3.414 3.594-6.946 4.699-10.631 2.244-7.362 2.235-15.264.446-23.057-1.81-7.803-5.19-15.45-9.571-22.836z"/><path fill="#EA6565" d="M836.502 691.716c-1.894 5.097-5.109 9.598-8.94 13.53-3.864 3.9-8.574 7.163-13.923 9.152-5.313 2.044-11.309 2.573-16.86 1.443-5.557-1.149-10.595-3.845-14.491-7.578 5.205 1.47 10.172 2.628 15.069 2.709 4.88.108 9.607-.709 14.109-2.416 4.511-1.67 8.814-4.12 12.931-7.032 4.143-2.9 8.091-6.217 12.105-9.808z"/><path fill="#FCB598" d="M283.812 632.937c-.112-14.369-26.595-13.506-34.912-13.413-44.258.493-76.232 59.415-57.047 107.232 9.885 24.637 28.04 35.907 49.629 42.824 9.957 3.19 43.145 12.849 43.026-8.909l-.696-127.734z"/><path fill="#EA6565" d="M231.438 657.648c-4.381 7.385-7.761 15.033-9.57 22.838-1.79 7.793-1.798 15.695.446 23.057 1.104 3.684 2.745 7.217 4.699 10.631a73.129 73.129 0 007.052 9.702c5.239 6.254 11.582 11.751 18.026 17.481-8.11-2.928-15.765-7.282-22.391-13.179l-2.439-2.272c-.829-.745-1.518-1.637-2.285-2.453-1.563-1.613-2.843-3.487-4.198-5.305-2.517-3.786-4.583-7.945-5.933-12.385-2.734-8.913-2.023-18.69 1.185-27.067 3.275-8.372 8.547-15.758 15.408-21.048z"/><path fill="#EA6565" d="M217.67 691.716c4.014 3.591 7.962 6.908 12.105 9.808 4.117 2.912 8.421 5.361 12.931 7.032a37.192 37.192 0 0014.109 2.416c4.896-.081 9.864-1.239 15.069-2.709-3.895 3.733-8.934 6.429-14.491 7.578-5.552 1.13-11.548.601-16.86-1.443-5.349-1.99-10.059-5.252-13.923-9.152-3.831-3.932-7.047-8.433-8.94-13.53z"/><path fill="#FCB598" d="M303.692 421.798c-6.938 5.369-9.75 33.94-11.674 41.774a812.755 812.755 0 00-18.959 108.441c-10.398 98.454-3.442 203.972 44.406 292.585 28.046 51.941 71.073 95.983 122.868 126.715 65.345 38.772 127.896 31.331 192.287-7.371 84.655-50.88 130.172-140.797 144.066-236.453 11.601-79.867 3.996-161.898-11.045-240.765 0 .001-172.426-308.822-461.949-84.926z"/><path fill="#312E4C" d="M710.449 566.311c8.332 2.703 14.677-7.557 8.512-13.779-9.3-9.385-20.352-16.749-32.105-21.756-20.32-8.658-42.62-10.6-64.234-8.105-11.478 1.325-27.797 4.106-34.385 16.101-6.141 11.182-1.543 17.809 8.949 17.025 30.229-2.26 59.279-2.675 89.226 3.966a261.541 261.541 0 0124.037 6.548zM331.322 576.799c-10.166 3.83-18.566-8.814-10.853-16.464a101.546 101.546 0 0124.701-17.996c19.61-10.165 41.7-13.782 63.441-12.924 11.546.456 28.028 1.999 35.501 13.463 6.967 10.687 2.882 17.642-7.64 17.651-30.313.025-59.312 1.802-88.674 10.681a261.665 261.665 0 00-16.476 5.589z"/><ellipse fill="#FF8B88" cx="367.288" cy="772.231" rx="53.908" ry="54.402" opacity=".3"/><ellipse fill="#FF8B88" cx="687.718" cy="769.398" rx="53.908" ry="54.402" opacity=".3"/><path fill="#EA5467" d="M565.841 742.002c-1.162-5.092-4.064-10.227-5.906-14.793-5.384-13.344-9.769-28.88-13.178-43.541-2.74-11.782-2.421-36.875-13.506-43.67-15.139-9.278-22.976 14.18-25.082 25.101-4.125 21.389-2.902 41.52-15.974 60.363-7.978 11.5-13.829 21.595-.584 31.945 9.147 7.147 24.481 14.351 36.229 12.592 11.5-1.722 28.155-6.133 35.754-15.823 2.981-3.801 3.206-7.973 2.247-12.174z"/><path fill="#312E4C" d="M622.698 622.212c-2.329 6.159-3.658 13.226-3.658 20.747 0 23.851 13.317 43.185 29.745 43.185s29.745-19.335 29.745-43.185c0-7.521-1.329-14.589-3.658-20.747h-52.174z"/><path fill="#FCB598" d="M600.062 670.064c1.224 5.391 2.592 10.456 4.172 15.272 1.601 4.8 3.516 9.238 5.768 13.189.595.943 1.102 2.021 1.759 2.871.636.882 1.284 1.747 1.908 2.662 1.385 1.565 2.74 3.273 4.316 4.526 3.021 2.931 6.523 4.609 10.189 6.75-3.854.497-7.988.102-11.719-2.309l-1.429-.806c-.478-.272-.885-.731-1.332-1.09-.867-.783-1.774-1.507-2.614-2.363-.797-.936-1.57-1.922-2.356-2.892-.78-.979-1.39-2.186-2.088-3.278-2.623-4.578-4.476-9.949-5.587-15.507-1.09-5.555-1.57-11.364-.987-17.025z"/><path fill="#312E4C" d="M367.237 622.212c-2.329 6.159-3.658 13.226-3.658 20.747 0 23.851 13.317 43.185 29.745 43.185s29.745-19.335 29.745-43.185c0-7.521-1.329-14.589-3.658-20.747h-52.174z"/><path fill="#FCB598" d="M442.046 670.064c.583 5.661.103 11.47-.986 17.028-1.111 5.558-2.964 10.929-5.587 15.507-.698 1.092-1.309 2.299-2.088 3.278-.785.969-1.559 1.955-2.355 2.892-.84.856-1.747 1.58-2.614 2.363-.447.359-.854.818-1.332 1.09l-1.429.806c-3.731 2.41-7.865 2.806-11.719 2.309 3.665-2.141 7.168-3.819 10.189-6.75 1.576-1.253 2.931-2.962 4.316-4.526.624-.915 1.272-1.78 1.908-2.662.657-.85 1.164-1.928 1.759-2.871 2.252-3.951 4.166-8.389 5.768-13.189 1.578-4.82 2.945-9.885 4.17-15.275z"/><ellipse fill="#E4BAE5" cx="378.474" cy="654.444" rx="4.04" ry="9.861"/><ellipse fill="#E4BAE5" cx="633.81" cy="654.444" rx="4.04" ry="9.861"/><path fill="#312E4C" d="M284.122 612.904c5.638-7.924 6.741-18.09 7.903-27.746 5.828-48.438 10.887-104.798 52.018-137.579 20.173-16.078 45.792-23.309 70.66-30.167 45.235-12.474 94.814-24.7 137.735-5.738 19.588 8.654 36.165 23.28 56.052 31.225 53.457 21.356 114.03 14.161 142.477 76.184 5.917 12.901 8.789 26.97 13.716 40.281 7.864 21.245 2.448 46.43 14.546 64.909 20.544-27.07 29.803-88.005 39.247-133.422 4.061-19.528 7.093-39.795 3.058-59.329-9.191-44.493-51.769-94.958-83.307-126.061-24.191-23.857-54.615-42.788-88.294-47.273-31.474-4.192-63.034 4.35-94.339 9.658-71.442 12.112-125.846-27.273-193.026-43.733-22.971-5.628-48.124-7.742-69.538 2.332-22.298 10.499-58.823 40.729-48.251 68.698 3.032 8.021 8.052 15.216 10.661 23.396 11.883 37.28-23.631 70.312-33.423 103.868-13.786 47.247-5.622 97.044 11.056 142.348 5.367 14.571 28.785 79.441 51.049 48.149z"/><path fill="#EA5467" d="M726.648 673.665c-17.638 0-31.937 14.299-31.937 31.937 0 4.948 1.158 9.614 3.166 13.794L556.125 861.713l16.22 16.157 142.166-142.733a31.818 31.818 0 0012.136 2.401c17.638 0 31.936-14.298 31.936-31.937.001-17.637-14.297-31.936-31.935-31.936z"/><path fill="#312E4C" d="M571.44 896.746c-7.223-19.665-18.486-33.085-33.474-39.891-24.574-11.154-51.582-1.027-51.849-.921l-4.71-12.156c1.303-.501 32.199-12.215 61.82 1.15 18.348 8.286 31.957 24.205 40.449 47.32l-12.236 4.498z"/><g><path fill="#FFF" d="M677.928 750.644l3.072-3.07 10.6 10.602-3.072 3.072z"/></g><g><path fill="#FFF" d="M655.553 773.016l3.072-3.071 10.6 10.603-3.072 3.071z"/></g><g><path fill="#FFF" d="M631.922 796.648l3.072-3.071 10.6 10.603-3.072 3.071z"/></g><g><path fill="#EFFAFD" d="M359.095 467.956c-.182 4.412-1.803 8.885-.646 13.147.723 2.663 2.456 4.912 3.978 7.214a52.988 52.988 0 015.31 10.353c2.016 5.294 3.154 11.265 1.206 16.585-1.949 5.319-7.827 9.471-13.266 7.887-4.178-1.217-6.843-5.187-9.15-8.876-2.312-3.698-4.654-7.46-5.833-11.659-2.596-9.248.78-19.006 4.114-28.015 2.425-6.552 15.074-25.895 14.287-6.636z"/></g><g><path fill="#EFFAFD" d="M386.869 437.205c-.133 3.225-1.318 6.494-.472 9.61.529 1.947 1.796 3.59 2.908 5.273a38.785 38.785 0 013.881 7.567c1.473 3.87 2.306 8.234.881 12.122-1.424 3.888-5.721 6.923-9.697 5.765-3.054-.889-5.002-3.791-6.688-6.488-1.69-2.703-3.402-5.453-4.263-8.522-1.898-6.76.57-13.892 3.007-20.477 1.772-4.789 11.017-18.927 10.443-4.85z"/></g><g><circle fill="#FFF" cx="736.402" cy="701.385" r="8.592"/></g></svg>