<?xml version="1.0"?>
<svg xmlns="http://www.w3.org/2000/svg" xmlns:xlink="http://www.w3.org/1999/xlink" version="1.1" id="Capa_1" x="0px" y="0px" viewBox="0 0 511.999 511.999" style="enable-background:new 0 0 511.999 511.999;" xml:space="preserve" width="512px" height="512px"><g><g>
	<g>
		<path d="M91.219,279.566c-20.453,0-40.508,7.008-56.471,19.734c-3.229,2.575-3.759,7.281-1.185,10.51    c2.575,3.229,7.279,3.761,10.51,1.186c13.517-10.777,29.819-16.473,47.145-16.473c41.736,0,75.69,33.954,75.69,75.69    c0,56.209-58.67,110.157-75.693,124.623c-17.034-14.455-75.687-68.331-75.687-124.623c0-13.615,3.653-26.96,10.565-38.595    c2.109-3.551,0.94-8.139-2.611-10.249c-3.551-2.11-8.139-0.94-10.249,2.611C4.95,337.924,0.572,353.913,0.572,370.214    c0,72.781,82.557,137.502,86.072,140.221c1.348,1.043,2.963,1.564,4.577,1.564c1.614,0,3.229-0.522,4.577-1.564    c3.514-2.719,86.071-67.44,86.071-140.221C181.867,320.232,141.203,279.566,91.219,279.566z" data-original="#000000" class="active-path" data-old_color="#000000" fill="#F6F6F6"/>
	</g>
</g><g>
	<g>
		<path d="M91.218,329.564c-22.415,0-40.651,18.236-40.651,40.651s18.236,40.652,40.651,40.652    c22.416-0.001,40.652-18.237,40.652-40.652C131.87,347.8,113.634,329.564,91.218,329.564z M91.219,395.909    c-14.167-0.001-25.693-11.527-25.693-25.694c0-14.167,11.526-25.693,25.693-25.693s25.694,11.526,25.694,25.693    S105.386,395.909,91.219,395.909z" data-original="#000000" class="active-path" data-old_color="#000000" fill="#F6F6F6"/>
	</g>
</g><g>
	<g>
		<path d="M425.09,111.652c-47.607,0-86.338,38.731-86.338,86.338c0,29.308,13.853,60.714,41.174,93.344    c20.004,23.891,39.755,39.272,40.587,39.916c1.348,1.043,2.963,1.564,4.577,1.564s3.229-0.522,4.577-1.564    c1.029-0.797,25.455-19.832,47.46-48.479c2.515-3.275,1.9-7.971-1.376-10.487c-3.277-2.516-7.97-1.899-10.487,1.376    c-15.309,19.931-32.231,35.24-40.168,41.986c-16.423-13.996-71.386-64.797-71.386-117.657c0-39.359,32.021-71.38,71.38-71.38    c39.359,0,71.38,32.021,71.38,71.38c0,16.047-5.108,33.374-15.18,51.502c-2.006,3.61-0.706,8.164,2.905,10.169    c3.609,2.007,8.165,0.705,10.169-2.905c11.322-20.377,17.063-40.149,17.063-58.768    C511.428,150.383,472.697,111.652,425.09,111.652z" data-original="#000000" class="active-path" data-old_color="#000000" fill="#F6F6F6"/>
	</g>
</g><g>
	<g>
		<path d="M425.09,159.058c-21.467,0-38.931,17.465-38.931,38.931c0,21.467,17.465,38.931,38.931,38.931    s38.931-17.465,38.931-38.931C464.021,176.523,446.556,159.058,425.09,159.058z M425.09,221.963    c-13.219,0-23.974-10.755-23.974-23.974c0-13.219,10.755-23.974,23.974-23.974s23.974,10.755,23.974,23.974    C449.063,211.209,438.308,221.963,425.09,221.963z" data-original="#000000" class="active-path" data-old_color="#000000" fill="#F6F6F6"/>
	</g>
</g><g>
	<g>
		<path d="M117.089,43.181c-19.922,0-36.128,16.207-36.128,36.129s16.207,36.128,36.128,36.128    c19.921,0.001,36.128-16.206,36.128-36.128S137.009,43.181,117.089,43.181z M117.087,100.481    c-11.672,0.001-21.17-9.497-21.17-21.17s9.497-21.171,21.17-21.171c11.673,0,21.17,9.497,21.17,21.171    C138.258,90.984,128.761,100.481,117.087,100.481z" data-original="#000000" class="active-path" data-old_color="#000000" fill="#F6F6F6"/>
	</g>
</g><g>
	<g>
		<path d="M117.089,0c-43.732,0-79.31,35.579-79.31,79.311c0,13.694,3.398,28.131,10.101,42.909    c1.705,3.762,6.137,5.433,9.899,3.723c3.761-1.705,5.428-6.138,3.722-9.9c-5.816-12.824-8.764-25.183-8.764-36.732    c0.001-35.484,28.869-64.353,64.353-64.353s64.353,28.869,64.353,64.353c0,47.423-48.958,93.103-64.358,106.297    c-8.307-7.102-26.359-23.622-41.19-44.752c-2.373-3.381-7.037-4.197-10.418-1.825c-3.382,2.373-4.198,7.038-1.825,10.418    c21.215,30.224,47.742,50.91,48.86,51.775c1.348,1.043,2.963,1.564,4.577,1.564s3.229-0.521,4.577-1.564    c0.76-0.588,18.806-14.642,37.074-36.457c24.991-29.847,37.661-58.598,37.661-85.454C196.399,35.579,160.82,0,117.089,0z" data-original="#000000" class="active-path" data-old_color="#000000" fill="#F6F6F6"/>
	</g>
</g><g>
	<g>
		<path d="M217.741,235.507l-9.136-3.995c-3.787-1.655-8.195,0.074-9.849,3.856c-1.654,3.785,0.072,8.195,3.856,9.849l9.136,3.995    c0.976,0.427,1.992,0.628,2.993,0.628c2.881,0,5.627-1.676,6.857-4.484C223.252,241.571,221.526,237.162,217.741,235.507z" data-original="#000000" class="active-path" data-old_color="#000000" fill="#F6F6F6"/>
	</g>
</g><g>
	<g>
		<path d="M363.934,299.414l-9.136-3.995c-3.787-1.654-8.194,0.072-9.849,3.856c-1.654,3.785,0.072,8.195,3.856,9.849l9.136,3.995    c0.976,0.427,1.992,0.628,2.993,0.628c2.882,0,5.629-1.675,6.857-4.484C369.444,305.478,367.718,301.069,363.934,299.414z" data-original="#000000" class="active-path" data-old_color="#000000" fill="#F6F6F6"/>
	</g>
</g><g>
	<g>
		<path d="M181.192,219.53l-9.137-3.994c-3.789-1.654-8.194,0.073-9.848,3.857c-1.654,3.785,0.073,8.195,3.857,9.848l9.137,3.994    c0.976,0.427,1.991,0.628,2.992,0.628c2.883,0,5.629-1.676,6.857-4.485C186.704,225.592,184.976,221.184,181.192,219.53z" data-original="#000000" class="active-path" data-old_color="#000000" fill="#F6F6F6"/>
	</g>
</g><g>
	<g>
		<path d="M144.644,203.553l-9.137-3.994c-3.789-1.655-8.195,0.073-9.848,3.857c-1.654,3.785,0.073,8.195,3.857,9.848l9.137,3.994    c0.976,0.427,1.991,0.628,2.992,0.628c2.883,0,5.629-1.676,6.857-4.485C150.155,209.616,148.428,205.206,144.644,203.553z" data-original="#000000" class="active-path" data-old_color="#000000" fill="#F6F6F6"/>
	</g>
</g><g>
	<g>
		<path d="M400.482,315.39l-9.137-3.995c-3.782-1.654-8.194,0.073-9.848,3.857s0.072,8.194,3.857,9.848l9.137,3.995    c0.975,0.427,1.991,0.628,2.992,0.628c2.881,0,5.628-1.675,6.857-4.485C405.993,321.454,404.267,317.045,400.482,315.39z" data-original="#000000" class="active-path" data-old_color="#000000" fill="#F6F6F6"/>
	</g>
</g><g>
	<g>
		<path d="M327.386,283.436l-9.137-3.994c-3.788-1.655-8.195,0.073-9.848,3.857c-1.654,3.785,0.073,8.195,3.857,9.848l9.137,3.994    c0.975,0.427,1.991,0.628,2.992,0.628c2.882,0,5.628-1.675,6.857-4.485C332.897,289.499,331.17,285.09,327.386,283.436z" data-original="#000000" class="active-path" data-old_color="#000000" fill="#F6F6F6"/>
	</g>
</g><g>
	<g>
		<path d="M290.836,267.46l-9.137-3.994c-3.788-1.655-8.195,0.073-9.848,3.857c-1.654,3.785,0.073,8.195,3.857,9.848l9.137,3.994    c0.976,0.427,1.991,0.628,2.992,0.628c2.883,0,5.629-1.676,6.857-4.485C296.348,273.523,294.621,269.114,290.836,267.46z" data-original="#000000" class="active-path" data-old_color="#000000" fill="#F6F6F6"/>
	</g>
</g><g>
	<g>
		<path d="M254.288,251.483l-9.137-3.995c-3.783-1.655-8.194,0.073-9.848,3.857s0.072,8.194,3.857,9.848l9.137,3.995    c0.974,0.427,1.991,0.628,2.992,0.628c2.882,0,5.629-1.675,6.857-4.485C259.8,257.547,258.074,253.138,254.288,251.483z" data-original="#000000" class="active-path" data-old_color="#000000" fill="#F6F6F6"/>
	</g>
</g><g>
	<g>
		<path d="M136.402,491.066c-1.943-3.645-6.472-5.027-10.118-3.084l-8.8,4.69c-3.645,1.943-5.025,6.473-3.083,10.119    c1.346,2.525,3.932,3.964,6.607,3.964c1.186,0,2.39-0.283,3.511-0.881l8.8-4.69C136.964,499.241,138.344,494.711,136.402,491.066z    " data-original="#000000" class="active-path" data-old_color="#000000" fill="#F6F6F6"/>
	</g>
</g><g>
	<g>
		<path d="M171.601,472.304c-1.942-3.645-6.472-5.025-10.118-3.083l-8.8,4.69c-3.645,1.943-5.025,6.473-3.083,10.118    c1.346,2.525,3.932,3.964,6.607,3.964c1.186,0,2.39-0.283,3.51-0.88l8.8-4.69C172.162,480.479,173.543,475.948,171.601,472.304z" data-original="#000000" class="active-path" data-old_color="#000000" fill="#F6F6F6"/>
	</g>
</g><g>
	<g>
		<path d="M206.8,453.544c-1.942-3.647-6.471-5.028-10.117-3.084l-8.8,4.69c-3.645,1.943-5.025,6.473-3.083,10.119    c1.346,2.525,3.932,3.964,6.607,3.964c1.186,0,2.39-0.283,3.51-0.88l8.8-4.69C207.361,461.719,208.742,457.188,206.8,453.544z" data-original="#000000" class="active-path" data-old_color="#000000" fill="#F6F6F6"/>
	</g>
</g><g>
	<g>
		<path d="M382.801,359.734c-1.942-3.646-6.472-5.026-10.119-3.083l-8.8,4.69c-3.645,1.943-5.025,6.473-3.083,10.119    c1.346,2.525,3.932,3.964,6.607,3.964c1.186,0,2.39-0.283,3.511-0.88l8.8-4.69C383.362,367.91,384.742,363.379,382.801,359.734z" data-original="#000000" class="active-path" data-old_color="#000000" fill="#F6F6F6"/>
	</g>
</g><g>
	<g>
		<path d="M418.001,340.973c-1.944-3.646-6.472-5.026-10.119-3.084l-8.8,4.69c-3.645,1.943-5.025,6.473-3.083,10.119    c1.346,2.525,3.932,3.964,6.607,3.964c1.186,0,2.39-0.283,3.511-0.881l8.8-4.69C418.562,349.148,419.942,344.618,418.001,340.973z    " data-original="#000000" class="active-path" data-old_color="#000000" fill="#F6F6F6"/>
	</g>
</g><g>
	<g>
		<path d="M347.599,378.496c-1.942-3.647-6.472-5.029-10.117-3.082l-8.799,4.69c-3.645,1.943-5.025,6.472-3.082,10.117    c1.345,2.525,3.932,3.964,6.606,3.964c1.186,0,2.39-0.283,3.51-0.882l8.799-4.69C348.161,386.672,349.541,382.142,347.599,378.496    z" data-original="#000000" class="active-path" data-old_color="#000000" fill="#F6F6F6"/>
	</g>
</g><g>
	<g>
		<path d="M242,434.78c-1.942-3.644-6.471-5.026-10.118-3.083l-8.8,4.69c-3.645,1.943-5.025,6.473-3.083,10.117    c1.346,2.525,3.932,3.964,6.607,3.964c1.186,0,2.39-0.283,3.51-0.88l8.8-4.69C242.561,442.955,243.941,438.425,242,434.78z" data-original="#000000" class="active-path" data-old_color="#000000" fill="#F6F6F6"/>
	</g>
</g><g>
	<g>
		<path d="M312.4,397.257c-1.942-3.645-6.474-5.028-10.117-3.082l-8.799,4.69c-3.645,1.943-5.025,6.472-3.082,10.117    c1.345,2.525,3.932,3.964,6.606,3.964c1.187,0,2.391-0.283,3.511-0.882l8.799-4.69C312.962,405.432,314.342,400.903,312.4,397.257    z" data-original="#000000" class="active-path" data-old_color="#000000" fill="#F6F6F6"/>
	</g>
</g><g>
	<g>
		<path d="M277.2,416.02c-1.943-3.647-6.474-5.03-10.118-3.083l-8.799,4.69c-3.645,1.943-5.025,6.472-3.082,10.117    c1.345,2.525,3.932,3.963,6.606,3.963c1.187,0,2.391-0.282,3.511-0.881l8.799-4.69C277.762,424.194,279.142,419.665,277.2,416.02z    " data-original="#000000" class="active-path" data-old_color="#000000" fill="#F6F6F6"/>
	</g>
</g></g> </svg>
