<svg xmlns="http://www.w3.org/2000/svg" viewBox="0 0 289.8 280.09"><defs><style>.cls-4{fill:#ffd900}.cls-5{fill:#a6de00}.cls-6{fill:#72b100}.cls-7{fill:#f0e8d8}.cls-8{fill:#33496d}.cls-9{fill:#369ae3}.cls-10{fill:#42aaf7}.cls-11{fill:#46a2f9}.cls-12{fill:#3ea0f3}.cls-13{fill:#409afb}.cls-14{fill:#3ea6f3}.cls-15{fill:#329ae5}.cls-16{fill:#2eaaf9}.cls-17{fill:#42b0f5}.cls-18{fill:#389af1}.cls-19{fill:#3caced}.cls-20{fill:#469ae5}.cls-21{fill:#42a4f5}.cls-22{fill:#44aee7}.cls-23{fill:#40aee3}.cls-24{fill:#3eaaed}.cls-25{fill:#30ace5}.cls-26{fill:#30a6e9}.cls-27{fill:#46a6e7}.cls-28{fill:#3aa6ed}.cls-29{fill:#4898ed}.cls-30{fill:#2ea6ef}.cls-31{fill:#48a2f5}.cls-32{fill:#36a0f3}.cls-33,.cls-49{opacity:.3;mix-blend-mode:overlay}.cls-34,.cls-49{fill:#fff}.cls-35{fill:#f0e3c7}.cls-36,.cls-41{fill:#9898a3}.cls-36{opacity:.7}.cls-36,.cls-59{mix-blend-mode:multiply}.cls-37{fill:#eb3127}.cls-38{fill:#f5f0e4}.cls-42{fill:#2a3c59}.cls-43{fill:#34495e}.cls-44{fill:#6d4c41}.cls-45{fill:#4f372f}.cls-47{fill:#ffec82}.cls-48{fill:#1b2630}.cls-50{fill:#2c3e50}.cls-53{fill:#d42d23}.cls-54{fill:#f7f3eb}.cls-55{fill:#314559}.cls-56{fill:#bdc3c7}.cls-57{fill:#3b536b}.cls-58{fill:#5274ad}.cls-59{fill:#c4b4ac}.cls-60{fill:#e74c3c}.cls-62{fill:#c0392b}</style></defs><g style="isolation:isolate"><g id="Layer_1" data-name="Layer 1"><path d="M6.72 256.13c0 19.57 13.25 35.42 29.6 35.42h230.61c16.35 0 29.6-15.85 29.6-35.41z" transform="translate(-6.72 -11.46)" fill="#646f91"/><path d="M6.72 256.13a29.6 29.6 0 0029.6 29.61h230.61a29.6 29.6 0 0029.6-29.6z" transform="translate(-6.72 -11.46)" fill="#8695c2"/><path class="cls-4" d="M295.19 264.77a29.22 29.22 0 001-4.49H7.05a29.22 29.22 0 001 4.49z" transform="translate(-6.72 -11.46)"/><path class="cls-5" d="M296.53 256.14a29.6 29.6 0 00-29.6-29.6H36.32a29.59 29.59 0 00-29.6 29.59z" transform="translate(-6.72 -11.46)"/><path class="cls-6" d="M274.8 227.63c6.52 5.56 4.26 19.16-6.75 19.16H33c-10.35 0-12.95-12-7.85-18.06a29.61 29.61 0 00-18.43 27.4h289.81a29.59 29.59 0 00-21.73-28.5z" transform="translate(-6.72 -11.46)"/><path class="cls-6" d="M92.34 233c0-.69 1-1.24 2.25-1.24s2.24.55 2.24 1.24-1 1.24-2.24 1.24-2.25-.54-2.25-1.24z" transform="translate(-6.72 -11.46)"/><ellipse class="cls-6" cx="167.12" cy="221.82" rx="4.43" ry="2.46"/><path class="cls-6" d="M257.91 249.76c0-1.09 1.59-2 3.55-2s3.55.88 3.55 2-1.59 2-3.55 2-3.55-.91-3.55-2zM155.17 250.26c0-1.19 1.75-2.16 3.9-2.16s3.89 1 3.89 2.16-1.74 2.16-3.89 2.16-3.9-.96-3.9-2.16zM233.79 247.29c0-.75 1.09-1.35 2.43-1.35s2.44.6 2.44 1.35-1.09 1.35-2.44 1.35-2.43-.64-2.43-1.35zM83.18 239.51c0-1 1.48-1.83 3.3-1.83s3.3.82 3.3 1.83-1.48 1.83-3.3 1.83-3.3-.82-3.3-1.83z" transform="translate(-6.72 -11.46)"/><ellipse class="cls-6" cx="178.92" cy="218.55" rx="1.96" ry="1.09"/><path class="cls-6" d="M121.42 244.26c0-1.11 1.63-2 3.63-2s3.63.9 3.63 2-1.63 2-3.63 2-3.63-.88-3.63-2zM101.85 249.68c0-1.08 1.58-2 3.53-2s3.53.87 3.53 2-1.58 2-3.53 2-3.53-.92-3.53-2zM222.58 243.73c0-.64.93-1.16 2.08-1.16s2.08.52 2.08 1.16-.93 1.15-2.08 1.15-2.08-.52-2.08-1.15zM172.48 240.28c0-.91 1.32-1.65 3-1.65s3 .74 3 1.65-1.33 1.64-3 1.64-3-.73-3-1.64zM148.89 240c0-.51.75-.93 1.67-.93s1.68.42 1.68.93-.75.93-1.68.93-1.67-.45-1.67-.93zM135.19 240.44c0-.88 1.29-1.6 2.87-1.6s2.87.72 2.87 1.6-1.28 1.59-2.87 1.59-2.87-.71-2.87-1.59zM122.28 234.11c0-.73 1.07-1.32 2.39-1.32s2.38.59 2.38 1.32-1.07 1.32-2.38 1.32-2.39-.59-2.39-1.32z" transform="translate(-6.72 -11.46)"/><ellipse class="cls-6" cx="16.95" cy="232.55" rx="2.05" ry="1.14"/><path class="cls-6" d="M276.54 245.27c0-.64.93-1.15 2.08-1.15s2.07.51 2.07 1.15-.93 1.15-2.07 1.15-2.08-.51-2.08-1.15zM198.08 231.22c0-.49.71-.89 1.59-.89s1.59.4 1.59.89-.71.88-1.59.88-1.59-.4-1.59-.88zM81.81 232.94c0-.8 1.18-1.45 2.62-1.45s2.63.65 2.63 1.45-1.18 1.46-2.63 1.46-2.62-.65-2.62-1.46zM213.36 242.6c0-.5.73-.91 1.63-.91s1.64.41 1.64.91-.73.9-1.64.9-1.63-.4-1.63-.9zM232.74 230.87c0-.66 1-1.19 2.15-1.19s2.15.53 2.15 1.19-1 1.19-2.15 1.19-2.15-.53-2.15-1.19z" transform="translate(-6.72 -11.46)"/><ellipse class="cls-6" cx="37.42" cy="233.83" rx="1.49" ry=".83"/><path class="cls-6" d="M103.37 241.28c0-.41.6-.75 1.34-.75s1.35.34 1.35.75-.6.75-1.35.75-1.34-.34-1.34-.75zM21.33 233.07c0-.58.85-1 1.9-1s1.89.47 1.89 1-.85 1.05-1.89 1.05-1.9-.47-1.9-1.05zM67.23 244.88c0-1.06 1.55-1.92 3.47-1.92s3.46.86 3.46 1.92-1.55 1.92-3.46 1.92-3.47-.86-3.47-1.92zM59.39 246.35c0-.41.6-.75 1.35-.75s1.34.34 1.34.75-.6.74-1.34.74-1.35-.33-1.35-.74z" transform="translate(-6.72 -11.46)"/><ellipse class="cls-6" cx="234.31" cy="222.89" rx="1.35" ry=".75"/><path class="cls-6" d="M145 230.05c0-.5.74-.91 1.65-.91s1.65.41 1.65.91-.74.92-1.65.92-1.65-.41-1.65-.92zM208.08 246c0-.42.6-.75 1.34-.75s1.35.33 1.35.75-.6.74-1.35.74-1.34-.34-1.34-.74zM111.64 242.32c0-.57.83-1 1.86-1s1.86.47 1.86 1-.83 1-1.86 1-1.86-.43-1.86-1zM39.24 236.48c0-1.58 2.31-2.86 5.15-2.86s5.15 1.28 5.15 2.86-2.3 2.86-5.15 2.86-5.15-1.28-5.15-2.86zM262.9 229.32c0-.42.6-.75 1.35-.75s1.34.33 1.34.75-.6.74-1.34.74-1.35-.33-1.35-.74zM62.56 237.78c0-.42.6-.75 1.35-.75s1.34.33 1.34.75-.6.74-1.34.74-1.35-.33-1.35-.74zM140.5 234.66c0-.41.6-.74 1.35-.74s1.34.33 1.34.74-.6.75-1.34.75-1.35-.33-1.35-.75zM183.09 235.05c0-.42.6-.75 1.35-.75s1.34.33 1.34.75-.6.74-1.34.74-1.35-.33-1.35-.74z" transform="translate(-6.72 -11.46)"/><ellipse class="cls-6" cx="269.83" cy="223.36" rx="2.01" ry="1.11"/><path class="cls-6" d="M193.13 239c0-1.13 1.65-2.05 3.69-2.05s3.69.92 3.69 2.05-1.65 2-3.69 2-3.69-.91-3.69-2zM179.33 251c0-.41.6-.74 1.35-.74s1.34.33 1.34.74-.6.75-1.34.75-1.35-.3-1.35-.75z" transform="translate(-6.72 -11.46)"/><ellipse class="cls-6" cx="279.06" cy="238.93" rx="1.36" ry=".75"/><path class="cls-6" d="M76.91 228.91c0-.42.61-.76 1.38-.76s1.37.34 1.37.76-.61.77-1.37.77-1.38-.35-1.38-.77zM114.19 249.57c0-.41.6-.74 1.35-.74s1.34.33 1.34.74-.6.75-1.34.75-1.35-.32-1.35-.75zM114.54 237.79c0-.41.6-.74 1.35-.74s1.34.33 1.34.74-.6.75-1.34.75-1.35-.33-1.35-.75zM34.66 242.67c0-.41.6-.75 1.35-.75s1.34.34 1.34.75-.6.75-1.34.75-1.35-.34-1.35-.75zM278.77 240.51c0-.41.6-.74 1.34-.74s1.35.33 1.35.74-.6.75-1.35.75-1.34-.34-1.34-.75zM26.18 251.2c0-.68 1-1.23 2.22-1.23s2.22.55 2.22 1.23-1 1.24-2.22 1.24-2.22-.56-2.22-1.24z" transform="translate(-6.72 -11.46)"/><ellipse class="cls-6" cx="43.63" cy="218.77" rx="2.29" ry="1.27"/><path class="cls-6" d="M291.69 248.53c0-.42.6-.75 1.35-.75s1.34.33 1.34.75-.6.74-1.34.74-1.35-.33-1.35-.74zM86.56 248.16c0-.41.6-.74 1.34-.74s1.35.33 1.35.74-.6.75-1.35.75-1.34-.33-1.34-.75zM286.17 244.44c0-.41.6-.74 1.34-.74s1.35.33 1.35.74-.6.75-1.35.75-1.34-.33-1.34-.75zM270.57 230.78c0-.42.6-.75 1.34-.75s1.35.33 1.35.75-.6.74-1.35.74-1.34-.33-1.34-.74zM190.84 233.1c0-.41.6-.75 1.34-.75s1.35.34 1.35.75-.6.75-1.35.75-1.34-.34-1.34-.75zM132.34 234.18c0-.41.6-.74 1.34-.74s1.35.33 1.35.74-.6.75-1.35.75-1.34-.33-1.34-.75z" transform="translate(-6.72 -11.46)"/><path class="cls-7" d="M204.83 150.5v36.26h2.73v6.47h-2.73v36.27h2.73v15.24H20.27V229.5H23v-36.27h-2.73v-6.47H23V150.5h-2.73v-.83h187.29v.83h-2.73z"/><path class="cls-8" d="M18.4 232.06h189.16v12.67H18.4z"/><path class="cls-9" d="M23 150.5h19.83v10.96H23z"/><path class="cls-10" d="M23 163.15h19.83v10.96H23z"/><path class="cls-11" d="M23 175.79h19.83v10.96H23z"/><path class="cls-12" d="M44.41 150.5h19.83v10.96H44.41z"/><path class="cls-13" d="M44.41 163.15h19.83v10.96H44.41z"/><path class="cls-14" d="M44.41 175.79h19.83v10.96H44.41z"/><path class="cls-15" d="M67.92 150.5h21.7v10.96h-21.7z"/><path class="cls-16" d="M67.92 163.15h21.7v23.61h-21.7z"/><path class="cls-17" d="M67.92 175.79h21.7v10.96h-21.7z"/><path class="cls-18" d="M93.3 150.5h19.83v10.96H93.3z"/><path class="cls-19" d="M93.3 163.15h19.83v10.96H93.3z"/><path class="cls-20" d="M93.3 175.79h19.83v10.96H93.3z"/><path class="cls-21" d="M114.71 150.5h19.83v10.96h-19.83z"/><path class="cls-22" d="M114.71 163.15h19.83v10.96h-19.83z"/><path class="cls-23" d="M114.71 175.79h19.83v10.96h-19.83z"/><path class="cls-24" d="M138.22 150.5h21.7v10.96h-21.7z"/><path class="cls-25" d="M138.22 163.15h21.7v23.61h-21.7z"/><path class="cls-26" d="M138.22 175.79h21.7v10.96h-21.7z"/><path class="cls-27" d="M163.6 150.5h19.83v10.96H163.6z"/><path class="cls-28" d="M163.6 163.15h19.83v10.96H163.6z"/><path class="cls-29" d="M163.6 175.79h19.83v10.96H163.6z"/><path class="cls-30" d="M185.01 150.5h19.83v10.96h-19.83z"/><path class="cls-31" d="M185.01 163.15h19.83v10.96h-19.83z"/><path class="cls-32" d="M185.01 175.79h19.83v10.96h-19.83z"/><path class="cls-9" d="M23 150.5h19.83v10.96H23z"/><path class="cls-10" d="M23 163.15h19.83v10.96H23z"/><path class="cls-11" d="M23 175.79h19.83v10.96H23z"/><path class="cls-12" d="M44.41 150.5h19.83v10.96H44.41z"/><path class="cls-13" d="M44.41 163.15h19.83v10.96H44.41z"/><path class="cls-14" d="M44.41 175.79h19.83v10.96H44.41z"/><path class="cls-15" d="M67.92 150.5h21.7v10.96h-21.7z"/><path class="cls-16" d="M67.92 163.15h21.7v23.61h-21.7z"/><path class="cls-17" d="M67.92 175.79h21.7v10.96h-21.7z"/><path class="cls-18" d="M93.3 150.5h19.83v10.96H93.3z"/><path class="cls-19" d="M93.3 163.15h19.83v10.96H93.3z"/><path class="cls-20" d="M93.3 175.79h19.83v10.96H93.3z"/><path class="cls-21" d="M114.71 150.5h19.83v10.96h-19.83z"/><path class="cls-22" d="M114.71 163.15h19.83v10.96h-19.83z"/><path class="cls-23" d="M114.71 175.79h19.83v10.96h-19.83z"/><path class="cls-24" d="M138.22 150.5h21.7v10.96h-21.7z"/><path class="cls-25" d="M138.22 163.15h21.7v23.61h-21.7z"/><path class="cls-26" d="M138.22 175.79h21.7v10.96h-21.7z"/><path class="cls-27" d="M163.6 150.5h19.83v10.96H163.6z"/><path class="cls-28" d="M163.6 163.15h19.83v10.96H163.6z"/><path class="cls-29" d="M163.6 175.79h19.83v10.96H163.6z"/><path class="cls-30" d="M185.01 150.5h19.83v10.96h-19.83z"/><path class="cls-31" d="M185.01 163.15h19.83v10.96h-19.83z"/><path class="cls-32" d="M185.01 175.79h19.83v10.96h-19.83z"/><g class="cls-33"><path class="cls-34" d="M89.62 175.79v-12.64H76.28l-8.36 13.79v9.81h21.7v-10.96zM44.41 174.11h11.86l6.64-10.96h-18.5v10.96zM44.41 161.46h19.52l.31-.5V150.5H44.41v10.96zM64.24 169.5l-2.79 4.61h2.79v-4.61zM67.92 154.89l2.66-4.39h-2.66v4.39zM68.09 163.15l-.17.28v8.56l5.36-8.84h-5.19zM69.11 161.46h5.19l6.65-10.96h-5.19l-6.65 10.96zM114.71 175.79h19.83v10.96h-19.83zM89.62 161.46V150.5h-5.67l-6.65 10.96h12.32zM114.71 163.15h19.83v10.96h-19.83zM93.3 163.15h19.83v10.96H93.3zM42.83 161.46V150.5h-4.74l-6.65 10.96h11.39zM93.3 175.79h19.83v10.96H93.3zM93.3 150.5h19.83v10.96H93.3zM163.6 174.11h6.1l6.65-10.96H163.6v10.96zM138.22 150.5h21.7v10.96h-21.7zM163.6 161.46h13.77l6.06-9.99v-.97H163.6v10.96zM159.92 175.79v-12.64h-21.7v23.6h21.7v-10.96zM163.6 175.79v8.38l5.08-8.38h-5.08zM185.01 175.79v10.96h8.96l6.65-10.96h-15.61zM204.84 163.15h-12.53l-6.65 10.96h15.98l3.2-5.28v-5.68zM183.43 177.79l-5.44 8.96h5.44v-8.96zM64.24 178.06v-2.27h-3.81l-6.65 10.96h5.19l5.27-8.69zM44.41 175.79v10.96h4.19l6.64-10.96H44.41zM23 175.79h19.83v10.96H23zM42.83 174.11v-10.96H30.42l-6.65 10.96h19.06zM204.84 161.46V150.5h-4.87l-6.64 10.96h11.51zM64.24 183l-2.27 3.75h2.27V183zM114.71 150.5h19.83v10.96h-19.83z"/></g><path class="cls-9" d="M23 193.24h19.83v10.96H23z"/><path class="cls-10" d="M23 205.88h19.83v10.96H23z"/><path class="cls-11" d="M23 218.53h19.83v10.96H23z"/><path class="cls-12" d="M44.41 193.24h19.83v10.96H44.41z"/><path class="cls-13" d="M44.41 205.88h19.83v10.96H44.41z"/><path class="cls-14" d="M44.41 218.53h19.83v10.96H44.41z"/><path class="cls-15" d="M67.92 193.24h21.7v10.96h-21.7z"/><path class="cls-16" d="M67.92 205.88h21.7v23.61h-21.7z"/><path class="cls-17" d="M67.92 218.53h21.7v10.96h-21.7z"/><path class="cls-18" d="M93.3 193.24h19.83v10.96H93.3z"/><path class="cls-19" d="M93.3 205.88h19.83v10.96H93.3z"/><path class="cls-20" d="M93.3 218.53h19.83v10.96H93.3z"/><path class="cls-21" d="M114.71 193.24h19.83v10.96h-19.83z"/><path class="cls-22" d="M114.71 205.88h19.83v10.96h-19.83z"/><path class="cls-23" d="M114.71 218.53h19.83v10.96h-19.83z"/><path class="cls-24" d="M138.22 193.24h21.7v10.96h-21.7z"/><path class="cls-25" d="M138.22 205.88h21.7v23.61h-21.7z"/><path class="cls-26" d="M138.22 218.53h21.7v10.96h-21.7z"/><path class="cls-27" d="M163.6 193.24h19.83v10.96H163.6z"/><path class="cls-28" d="M163.6 205.88h19.83v10.96H163.6z"/><path class="cls-29" d="M163.6 218.53h19.83v10.96H163.6z"/><path class="cls-30" d="M185.01 193.24h19.83v10.96h-19.83z"/><path class="cls-31" d="M185.01 205.88h19.83v10.96h-19.83z"/><path class="cls-32" d="M185.01 218.53h19.83v10.96h-19.83z"/><path class="cls-9" d="M23 193.24h19.83v10.96H23z"/><path class="cls-10" d="M23 205.88h19.83v10.96H23z"/><path class="cls-11" d="M23 218.53h19.83v10.96H23z"/><path class="cls-12" d="M44.41 193.24h19.83v10.96H44.41z"/><path class="cls-13" d="M44.41 205.88h19.83v10.96H44.41z"/><path class="cls-14" d="M44.41 218.53h19.83v10.96H44.41z"/><path class="cls-15" d="M67.92 193.24h21.7v10.96h-21.7z"/><path class="cls-16" d="M67.92 205.88h21.7v23.61h-21.7z"/><path class="cls-17" d="M67.92 218.53h21.7v10.96h-21.7z"/><path class="cls-18" d="M93.3 193.24h19.83v10.96H93.3z"/><path class="cls-19" d="M93.3 205.88h19.83v10.96H93.3z"/><path class="cls-20" d="M93.3 218.53h19.83v10.96H93.3z"/><path class="cls-21" d="M114.71 193.24h19.83v10.96h-19.83z"/><path class="cls-22" d="M114.71 205.88h19.83v10.96h-19.83z"/><path class="cls-23" d="M114.71 218.53h19.83v10.96h-19.83z"/><path class="cls-24" d="M138.22 193.24h21.7v10.96h-21.7z"/><path class="cls-25" d="M138.22 205.88h21.7v23.61h-21.7z"/><path class="cls-26" d="M138.22 218.53h21.7v10.96h-21.7z"/><path class="cls-27" d="M163.6 193.24h19.83v10.96H163.6z"/><path class="cls-28" d="M163.6 205.88h19.83v10.96H163.6z"/><path class="cls-29" d="M163.6 218.53h19.83v10.96H163.6z"/><path class="cls-30" d="M185.01 193.24h19.83v10.96h-19.83z"/><path class="cls-31" d="M185.01 205.88h19.83v10.96h-19.83z"/><path class="cls-32" d="M185.01 218.53h19.83v10.96h-19.83z"/><g class="cls-33"><path class="cls-34" d="M89.62 218.53v-12.65H76.28l-8.36 13.79v9.82h21.7v-10.96zM44.41 216.85h11.86l6.64-10.97h-18.5v10.97zM44.41 204.2h19.52l.31-.51v-10.45H44.41v10.96zM64.24 212.24l-2.79 4.61h2.79v-4.61zM67.92 197.63l2.66-4.39h-2.66v4.39zM68.09 205.88l-.17.29v8.56l5.36-8.85h-5.19zM69.11 204.2h5.19l6.65-10.96h-5.19l-6.65 10.96zM114.71 218.53h19.83v10.96h-19.83zM89.62 204.2v-10.96h-5.67L77.3 204.2h12.32zM114.71 205.88h19.83v10.96h-19.83zM93.3 205.88h19.83v10.96H93.3zM42.83 204.2v-10.96h-4.74l-6.65 10.96h11.39zM93.3 218.53h19.83v10.96H93.3zM93.3 193.24h19.83v10.96H93.3zM163.6 216.85h6.1l6.65-10.97H163.6v10.97zM138.22 193.24h21.7v10.96h-21.7zM163.6 204.2h13.77l6.06-9.99v-.97H163.6v10.96zM159.92 218.53v-12.65h-21.7v23.61h21.7v-10.96zM163.6 218.53v8.38l5.08-8.38h-5.08zM185.01 218.53v10.96h8.96l6.65-10.96h-15.61zM204.84 205.88h-12.53l-6.65 10.97h15.98l3.2-5.28v-5.69zM183.43 220.53l-5.44 8.96h5.44v-8.96zM64.24 220.8v-2.27h-3.81l-6.65 10.96h5.19l5.27-8.69zM44.41 218.53v10.96h4.19l6.64-10.96H44.41zM23 218.53h19.83v10.96H23zM42.83 216.85v-10.97H30.42l-6.65 10.97h19.06zM204.84 204.2v-10.96h-4.87l-6.64 10.96h11.51zM64.24 225.74l-2.27 3.75h2.27v-3.75zM114.71 193.24h19.83v10.96h-19.83z"/></g><path class="cls-35" d="M204.84 144.22v-36.26h2.72v-6.48h-2.72V65.22h2.72v-3.08H20.28v3.08H23v36.26h-2.72v6.48H23v36.26h-2.72v5.45h187.28v-5.45h-2.72z"/><path class="cls-9" d="M23 65.22h19.83v10.96H23z"/><path class="cls-10" d="M23 77.87h19.83v10.96H23z"/><path class="cls-11" d="M23 90.52h19.83v10.96H23z"/><path class="cls-12" d="M44.41 65.22h19.83v10.96H44.41z"/><path class="cls-13" d="M44.41 77.87h19.83v10.96H44.41z"/><path class="cls-14" d="M44.41 90.52h19.83v10.96H44.41z"/><path class="cls-15" d="M67.92 65.22h21.7v10.96h-21.7z"/><path class="cls-16" d="M67.92 77.87h21.7v23.61h-21.7z"/><path class="cls-17" d="M67.92 90.52h21.7v10.96h-21.7z"/><path class="cls-18" d="M93.3 65.22h19.83v10.96H93.3z"/><path class="cls-19" d="M93.3 77.87h19.83v10.96H93.3z"/><path class="cls-20" d="M93.3 90.52h19.83v10.96H93.3z"/><path class="cls-21" d="M114.71 65.22h19.83v10.96h-19.83z"/><path class="cls-22" d="M114.71 77.87h19.83v10.96h-19.83z"/><path class="cls-23" d="M114.71 90.52h19.83v10.96h-19.83z"/><path class="cls-24" d="M138.22 65.22h21.7v10.96h-21.7z"/><path class="cls-25" d="M138.22 77.87h21.7v23.61h-21.7z"/><path class="cls-26" d="M138.22 90.52h21.7v10.96h-21.7z"/><path class="cls-27" d="M163.6 65.22h19.83v10.96H163.6z"/><path class="cls-28" d="M163.6 77.87h19.83v10.96H163.6z"/><path class="cls-29" d="M163.6 90.52h19.83v10.96H163.6z"/><path class="cls-30" d="M185.01 65.22h19.83v10.96h-19.83z"/><path class="cls-31" d="M185.01 77.87h19.83v10.96h-19.83z"/><path class="cls-32" d="M185.01 90.52h19.83v10.96h-19.83z"/><path class="cls-9" d="M23 65.22h19.83v10.96H23z"/><path class="cls-10" d="M23 77.87h19.83v10.96H23z"/><path class="cls-11" d="M23 90.52h19.83v10.96H23z"/><path class="cls-12" d="M44.41 65.22h19.83v10.96H44.41z"/><path class="cls-13" d="M44.41 77.87h19.83v10.96H44.41z"/><path class="cls-14" d="M44.41 90.52h19.83v10.96H44.41z"/><path class="cls-15" d="M67.92 65.22h21.7v10.96h-21.7z"/><path class="cls-16" d="M67.92 77.87h21.7v23.61h-21.7z"/><path class="cls-17" d="M67.92 90.52h21.7v10.96h-21.7z"/><path class="cls-18" d="M93.3 65.22h19.83v10.96H93.3z"/><path class="cls-19" d="M93.3 77.87h19.83v10.96H93.3z"/><path class="cls-20" d="M93.3 90.52h19.83v10.96H93.3z"/><path class="cls-21" d="M114.71 65.22h19.83v10.96h-19.83z"/><path class="cls-22" d="M114.71 77.87h19.83v10.96h-19.83z"/><path class="cls-23" d="M114.71 90.52h19.83v10.96h-19.83z"/><path class="cls-24" d="M138.22 65.22h21.7v10.96h-21.7z"/><path class="cls-25" d="M138.22 77.87h21.7v23.61h-21.7z"/><path class="cls-26" d="M138.22 90.52h21.7v10.96h-21.7z"/><path class="cls-27" d="M163.6 65.22h19.83v10.96H163.6z"/><path class="cls-28" d="M163.6 77.87h19.83v10.96H163.6z"/><path class="cls-29" d="M163.6 90.52h19.83v10.96H163.6z"/><path class="cls-30" d="M185.01 65.22h19.83v10.96h-19.83z"/><path class="cls-31" d="M185.01 77.87h19.83v10.96h-19.83z"/><path class="cls-32" d="M185.01 90.52h19.83v10.96h-19.83z"/><g class="cls-33"><path class="cls-34" d="M89.62 90.52V77.87H76.28l-8.36 13.79v9.82h21.7V90.52zM44.41 88.83h11.86l6.64-10.96h-18.5v10.96zM44.41 76.19h19.52l.31-.51V65.22H44.41v10.97zM64.24 84.22l-2.79 4.61h2.79v-4.61zM67.92 69.61l2.66-4.39h-2.66v4.39zM68.09 77.87l-.17.29v8.56l5.36-8.85h-5.19zM69.11 76.19h5.19l6.65-10.97h-5.19l-6.65 10.97zM114.71 90.52h19.83v10.96h-19.83zM89.62 76.19V65.22h-5.67L77.3 76.19h12.32zM114.71 77.87h19.83v10.96h-19.83zM93.3 77.87h19.83v10.96H93.3zM42.83 76.19V65.22h-4.74l-6.65 10.97h11.39zM93.3 90.52h19.83v10.96H93.3zM93.3 65.22h19.83v10.96H93.3zM163.6 88.83h6.1l6.65-10.96H163.6v10.96zM138.22 65.22h21.7v10.96h-21.7zM163.6 76.19h13.77l6.06-10v-.97H163.6v10.97zM159.92 90.52V77.87h-21.7v23.61h21.7V90.52zM163.6 90.52v8.38l5.08-8.38h-5.08zM185.01 90.52v10.96h8.96l6.65-10.96h-15.61zM204.84 77.87h-12.53l-6.65 10.96h15.98l3.2-5.27v-5.69zM183.43 92.51l-5.44 8.97h5.44v-8.97zM64.24 92.78v-2.26h-3.81l-6.65 10.96h5.19l5.27-8.7zM44.41 90.52v10.96h4.19l6.64-10.96H44.41zM23 90.52h19.83v10.96H23zM42.83 88.83V77.87H30.42l-6.65 10.96h19.06zM204.84 76.19V65.22h-4.87l-6.64 10.97h11.51zM64.24 97.73l-2.27 3.75h2.27v-3.75zM114.71 65.22h19.83v10.96h-19.83z"/></g><path class="cls-9" d="M23 107.96h19.83v10.96H23z"/><path class="cls-10" d="M23 120.61h19.83v10.96H23z"/><path class="cls-11" d="M23 133.25h19.83v10.96H23z"/><path class="cls-12" d="M44.41 107.96h19.83v10.96H44.41z"/><path class="cls-13" d="M44.41 120.61h19.83v10.96H44.41z"/><path class="cls-14" d="M44.41 133.25h19.83v10.96H44.41z"/><path class="cls-15" d="M67.92 107.96h21.7v10.96h-21.7z"/><path class="cls-16" d="M67.92 120.61h21.7v23.61h-21.7z"/><path class="cls-17" d="M67.92 133.25h21.7v10.96h-21.7z"/><path class="cls-18" d="M93.3 107.96h19.83v10.96H93.3z"/><path class="cls-19" d="M93.3 120.61h19.83v10.96H93.3z"/><path class="cls-20" d="M93.3 133.25h19.83v10.96H93.3z"/><path class="cls-21" d="M114.71 107.96h19.83v10.96h-19.83z"/><path class="cls-22" d="M114.71 120.61h19.83v10.96h-19.83z"/><path class="cls-23" d="M114.71 133.25h19.83v10.96h-19.83z"/><path class="cls-24" d="M138.22 107.96h21.7v10.96h-21.7z"/><path class="cls-25" d="M138.22 120.61h21.7v23.61h-21.7z"/><path class="cls-26" d="M138.22 133.25h21.7v10.96h-21.7z"/><path class="cls-27" d="M163.6 107.96h19.83v10.96H163.6z"/><path class="cls-28" d="M163.6 120.61h19.83v10.96H163.6z"/><path class="cls-29" d="M163.6 133.25h19.83v10.96H163.6z"/><path class="cls-30" d="M185.01 107.96h19.83v10.96h-19.83z"/><path class="cls-31" d="M185.01 120.61h19.83v10.96h-19.83z"/><path class="cls-32" d="M185.01 133.25h19.83v10.96h-19.83z"/><path class="cls-9" d="M23 107.96h19.83v10.96H23z"/><path class="cls-10" d="M23 120.61h19.83v10.96H23z"/><path class="cls-11" d="M23 133.25h19.83v10.96H23z"/><path class="cls-12" d="M44.41 107.96h19.83v10.96H44.41z"/><path class="cls-13" d="M44.41 120.61h19.83v10.96H44.41z"/><path class="cls-14" d="M44.41 133.25h19.83v10.96H44.41z"/><path class="cls-15" d="M67.92 107.96h21.7v10.96h-21.7z"/><path class="cls-16" d="M67.92 120.61h21.7v23.61h-21.7z"/><path class="cls-17" d="M67.92 133.25h21.7v10.96h-21.7z"/><path class="cls-18" d="M93.3 107.96h19.83v10.96H93.3z"/><path class="cls-19" d="M93.3 120.61h19.83v10.96H93.3z"/><path class="cls-20" d="M93.3 133.25h19.83v10.96H93.3z"/><path class="cls-21" d="M114.71 107.96h19.83v10.96h-19.83z"/><path class="cls-22" d="M114.71 120.61h19.83v10.96h-19.83z"/><path class="cls-23" d="M114.71 133.25h19.83v10.96h-19.83z"/><path class="cls-24" d="M138.22 107.96h21.7v10.96h-21.7z"/><path class="cls-25" d="M138.22 120.61h21.7v23.61h-21.7z"/><path class="cls-26" d="M138.22 133.25h21.7v10.96h-21.7z"/><path class="cls-27" d="M163.6 107.96h19.83v10.96H163.6z"/><path class="cls-28" d="M163.6 120.61h19.83v10.96H163.6z"/><path class="cls-29" d="M163.6 133.25h19.83v10.96H163.6z"/><path class="cls-30" d="M185.01 107.96h19.83v10.96h-19.83z"/><path class="cls-31" d="M185.01 120.61h19.83v10.96h-19.83z"/><path class="cls-32" d="M185.01 133.25h19.83v10.96h-19.83z"/><g class="cls-33"><path class="cls-34" d="M89.62 133.25v-12.64H76.28l-8.36 13.79v9.82h21.7v-10.97zM44.41 131.57h11.86l6.64-10.96h-18.5v10.96zM44.41 118.92h19.52l.31-.5v-10.46H44.41v10.96zM64.24 126.96l-2.79 4.61h2.79v-4.61zM67.92 112.35l2.66-4.39h-2.66v4.39zM68.09 120.61l-.17.28v8.56l5.36-8.84h-5.19zM69.11 118.92h5.19l6.65-10.96h-5.19l-6.65 10.96zM114.71 133.25h19.83v10.96h-19.83zM89.62 118.92v-10.96h-5.67l-6.65 10.96h12.32zM114.71 120.61h19.83v10.96h-19.83zM93.3 120.61h19.83v10.96H93.3zM42.83 118.92v-10.96h-4.74l-6.65 10.96h11.39zM93.3 133.25h19.83v10.96H93.3zM93.3 107.96h19.83v10.96H93.3zM163.6 131.57h6.1l6.65-10.96H163.6v10.96zM138.22 107.96h21.7v10.96h-21.7zM163.6 118.92h13.77l6.06-9.99v-.97H163.6v10.96zM159.92 133.25v-12.64h-21.7v23.61h21.7v-10.97zM163.6 133.25v8.38l5.08-8.38h-5.08zM185.01 133.25v10.97h8.96l6.65-10.97h-15.61zM204.84 120.61h-12.53l-6.65 10.96h15.98l3.2-5.28v-5.68zM183.43 135.25l-5.44 8.97h5.44v-8.97zM64.24 135.52v-2.27h-3.81l-6.65 10.97h5.19l5.27-8.7zM44.41 133.25v10.97h4.19l6.64-10.97H44.41zM23 133.25h19.83v10.96H23zM42.83 131.57v-10.96H30.42l-6.65 10.96h19.06zM204.84 118.92v-10.96h-4.87l-6.64 10.96h11.51zM64.24 140.47l-2.27 3.75h2.27v-3.75zM114.71 107.96h19.83v10.96h-19.83z"/></g><path class="cls-36" d="M20.28 62.14h187.28v3.08H20.28zM23 65.22h181.84v3.72H23zM23 107.96h181.84v3.72H23z"/><path class="cls-35" d="M20.28 24.11h187.28v27.07H20.28z"/><path class="cls-37" d="M14.11 51.18h199.62v10.96H14.11z"/><path class="cls-4" d="M12.54 55.4H215.3v2.51H12.54z"/><path class="cls-8" d="M198.44 40.58h5.97v8.22h-5.97zM190.46 40.58h5.97v8.22h-5.97zM182.47 40.58h5.97v8.22h-5.97zM40.64 27.86h15.19V48.8H40.64zM138.65 27.86h5.51v7.6h-5.51z"/><path class="cls-36" d="M107.63 149.67l-14.21 14.21-.12-13.38L23 220.81v8.69h-2.73v2.56H18.4v12.68H138.22l3.18-122.89-4.77-1.18-29 29z"/><path class="cls-36" d="M23 150.5h181.84v3.72H23zM23 193.24h181.84v3.72H23z"/><path class="cls-38" d="M138.22 120.57h89.08v29.93h-89.08z"/><path class="cls-36" d="M138.22 122.46h89.08v2.56h-89.08zM138.22 143.55h89.08v2.56h-89.08z"/><path class="cls-37" d="M136.63 120.57h92.25v2.56h-92.25zM136.63 141.66h92.25v2.56h-92.25z"/><path class="cls-38" d="M93.3 150.5h133.99v94.24H93.3z"/><path d="M234 163.82V162H100v1.86h11.06v9.1H100v1.86h11.06v9.1H100v1.86h11.06v9.1H100v1.86h11.06v9.1H100v1.87h11.06v9.1H100v1.86h11.06v9.1H100v1.86h11.06v9.1H100v1.86h134v-1.86h-11v-9.1h11v-1.86h-11v-9.1h11v-1.86h-11v-9.1h11v-1.91h-11v-9.1h11v-1.86h-11v-9.1h11v-1.86h-11v-9.1h11v-1.86h-11v-9.1zm-66.25 32.88h9.1v9.1h-9.1zm-1.86 9.1h-9.1v-9.1h9.1zm1.86-11v-9.1h9.1v9.1zm-1.86 0h-9.1v-9.1h9.1zm-11 0h-9.11v-9.1h9.11zm0 1.86v9.1h-9.11v-9.1zm0 11v9.1h-9.11v-9.1zm1.86 0h9.1v9.1h-9.1zm11 0h9.1v9.1h-9.1zm11 0h9.1v9.1h-9.1zm0-1.87v-9.1h9.1v9.1zm0-11v-9.1h9.1v9.1zm0-11v-9.1h9.1v9.1zm-1.86 0h-9.1v-9.1h9.1zm-11 0h-9.1v-9.1h9.1zm-11 0h-9.11v-9.1h9.11zm-11 0h-9.1v-9.1H144zm0 1.86v9.1h-9.1v-9.1zm0 11v9.1h-9.1v-9.1zm0 11v9.1h-9.1v-9.1zm0 11v9.1h-9.1v-9.1zm1.86 0h9.11v9.1h-9.11zm11 0h9.1v9.1h-9.1zm11 0h9.1v9.1h-9.1zm11 0h9.1v9.1h-9.1zm11 0h9.51v9.1h-9.51zm0-1.86v-9.1h9.51v9.1zm0-11v-9.1h9.51v9.1zm0-11v-9.1h9.51v9.1zm0-11v-9.1h9.51v9.1zm0-11v-9.1h9.51v9.1zm-1.86 0h-9.1v-9.1h9.1zm-11 0h-9.1v-9.1h9.1zm-11 0h-9.1v-9.1h9.1zm-11 0h-9.11v-9.1h9.11zm-11 0h-9.1v-9.1H144zm-11 0h-9.1v-9.1H133zm0 1.86v9.1h-9.1v-9.1zm0 11v9.1h-9.1v-9.1zm0 11v9.1h-9.1v-9.1zm0 11v9.1h-9.1v-9.1zm0 11v9.1h-9.1v-9.1zm0 11v9.1h-9.1v-9.1zm1.86 0H144v9.1h-9.1zm11 0h9.11v9.1h-9.11zm11 0h9.1v9.1h-9.1zm11 0h9.1v9.1h-9.1zm11 0h9.1v9.1h-9.1zm11 0h9.51v9.1h-9.51zm11.37 0h9.1v9.1H201zm0-1.86v-9.1h9.1v9.1zm0-11v-9.1h9.1v9.1zm0-11v-9.1h9.1v9.1zm0-11v-9.1h9.1v9.1zm0-11v-9.1h9.1v9.1zm0-11v-9.1h9.1v9.1zm-88.1-9.1H122v9.1h-9.1zm0 11H122v9.1h-9.1zm0 11H122v9.1h-9.1zm0 11H122v9.1h-9.1zm0 11H122v9.1h-9.1zm0 11H122v9.1h-9.1zm0 11H122v9.1h-9.1zm108.16 9.1H212v-9.1h9.1zm0-11H212v-9.1h9.1zm0-11H212v-9.1h9.1zm0-11H212v-9.1h9.1zm0-11H212v-9.1h9.1zm0-11H212v-9.1h9.1zm0-11H212v-9.1h9.1z" transform="translate(-6.72 -11.46)" style="mix-blend-mode:multiply" fill="#d6cab0"/><path class="cls-36" d="M124.95 244.74H93.3v-38.01l19.97-19.97 7.66 4.84 4.02 53.14z"/><g style="mix-blend-mode:multiply" opacity=".5"><path class="cls-41" d="M151.66 139.55v5H157v-5h2.31v12.62H157v-5.56h-5.33v5.56h-2.31v-12.62zM173.13 145.73c0 4.23-2.56 6.64-6 6.64s-5.8-2.71-5.8-6.42c0-3.87 2.43-6.61 6-6.61s5.8 2.79 5.8 6.39zm-9.42.18c0 2.57 1.29 4.61 3.5 4.61s3.49-2.06 3.49-4.7c0-2.38-1.18-4.62-3.49-4.62s-3.5 2.11-3.5 4.71zM175.06 149.66a6.38 6.38 0 003.05.8c1.48 0 2.3-.69 2.3-1.72s-.63-1.52-2.24-2.1c-2.08-.74-3.41-1.85-3.41-3.66 0-2.06 1.72-3.64 4.45-3.64a6.66 6.66 0 013 .64l-.56 1.85a5.39 5.39 0 00-2.51-.6c-1.46 0-2.1.79-2.1 1.52 0 1 .73 1.42 2.42 2.08 2.19.82 3.25 1.93 3.25 3.74 0 2-1.53 3.79-4.79 3.79a7.55 7.55 0 01-3.41-.79zM184.83 139.72a19.8 19.8 0 013.52-.27 5.75 5.75 0 013.73 1 3.56 3.56 0 011.23 2.79 3.83 3.83 0 01-1.08 2.87 5.56 5.56 0 01-4 1.35 6.05 6.05 0 01-1.12-.08v4.76h-2.29zm2.29 5.88a4.89 4.89 0 001.12.09c1.72 0 2.77-.84 2.77-2.32s-1-2.16-2.57-2.16a5.89 5.89 0 00-1.32.12zM197.6 139.55v12.62h-2.3v-12.62zM202.65 141.48h-3.59v-1.93h9.53v1.93H205v10.69h-2.31zM211.23 148.59l-1.09 3.58h-2.37l4-12.62h2.94l4.1 12.62h-2.47l-1.14-3.58zm3.61-1.74l-1-3.11c-.24-.76-.45-1.63-.64-2.36-.19.73-.38 1.61-.6 2.36l-1 3.11zM220.61 139.55h2.3v10.69h5.19v1.93h-7.49z" transform="translate(-6.72 -11.46)"/></g><path class="cls-37" d="M153.27 137.93V143h5.34v-5.06h2.3v12.62h-2.3V145h-5.34v5.56H151v-12.63zM174.75 144.11c0 4.23-2.57 6.65-6.05 6.65s-5.81-2.72-5.81-6.42c0-3.88 2.44-6.61 6-6.61s5.86 2.79 5.86 6.38zm-9.42.19c0 2.56 1.29 4.61 3.5 4.61s3.48-2.06 3.48-4.7c0-2.38-1.18-4.63-3.48-4.63s-3.5 2.12-3.5 4.72zM176.67 148a6.3 6.3 0 003.05.81c1.48 0 2.31-.69 2.31-1.72s-.64-1.52-2.25-2.1c-2.08-.75-3.41-1.85-3.41-3.67 0-2.06 1.73-3.63 4.46-3.63a6.73 6.73 0 013 .63l-.56 1.86a5.27 5.27 0 00-2.51-.6c-1.46 0-2.09.79-2.09 1.52 0 1 .73 1.42 2.41 2.07 2.19.83 3.26 1.93 3.26 3.75 0 2-1.54 3.78-4.79 3.78a7.39 7.39 0 01-3.41-.79zM186.45 138.1a19.9 19.9 0 013.52-.26 5.72 5.72 0 013.72 1 3.57 3.57 0 011.24 2.79 3.81 3.81 0 01-1.09 2.86 5.56 5.56 0 01-4 1.35 7.2 7.2 0 01-1.12-.07v4.75h-2.28zm2.28 5.88a4.43 4.43 0 001.12.09c1.73 0 2.77-.84 2.77-2.32s-1-2.15-2.56-2.15a6.83 6.83 0 00-1.33.11zM199.21 137.93v12.62h-2.3v-12.62zM204.27 139.86h-3.6v-1.93h9.53v1.93h-3.63v10.69h-2.3zM212.84 147l-1.08 3.57h-2.38l4-12.62h2.94l4.1 12.62H218l-1.15-3.57zm3.62-1.74l-1-3.11c-.25-.77-.45-1.63-.64-2.36-.19.73-.37 1.61-.6 2.36l-1 3.11zM222.22 137.93h2.3v10.7h5.19v1.92h-7.49z" transform="translate(-6.72 -11.46)"/><path class="cls-8" d="M115.37 227.41h160.68v17.32H115.37z"/><path class="cls-7" d="M117.75 193.98h155.92v33.43H117.75z"/><path class="cls-37" d="M113.28 186.76h164.87v7.23H113.28z"/><path class="cls-9" d="M120.29 195.45h16.45v9.09h-16.45z"/><path class="cls-10" d="M120.29 205.94h16.45v9.09h-16.45z"/><path class="cls-11" d="M120.29 216.44h16.45v9.09h-16.45z"/><path class="cls-12" d="M138.05 195.45h16.45v9.09h-16.45z"/><path class="cls-13" d="M138.05 205.94h16.45v9.09h-16.45z"/><path class="cls-14" d="M138.05 216.44h16.45v9.09h-16.45z"/><path class="cls-15" d="M157.55 195.45h18v9.09h-18z"/><path class="cls-16" d="M157.55 205.94h18v19.58h-18z"/><path class="cls-17" d="M157.55 216.44h18v9.09h-18z"/><path class="cls-18" d="M178.61 195.45h16.45v9.09h-16.45z"/><path class="cls-19" d="M178.61 205.94h16.45v9.09h-16.45z"/><path class="cls-20" d="M178.61 216.44h16.45v9.09h-16.45z"/><path class="cls-21" d="M196.37 195.45h16.45v9.09h-16.45z"/><path class="cls-22" d="M196.37 205.94h16.45v9.09h-16.45z"/><path class="cls-23" d="M196.37 216.44h16.45v9.09h-16.45z"/><path class="cls-24" d="M215.87 195.45h18v9.09h-18z"/><path class="cls-25" d="M215.87 205.94h18v19.58h-18z"/><path class="cls-26" d="M215.87 216.44h18v9.09h-18z"/><path class="cls-27" d="M236.92 195.45h16.45v9.09h-16.45z"/><path class="cls-28" d="M236.92 205.94h16.45v9.09h-16.45z"/><path class="cls-29" d="M236.92 216.44h16.45v9.09h-16.45z"/><path class="cls-30" d="M254.69 195.45h16.45v9.09h-16.45z"/><path class="cls-31" d="M254.69 205.94h16.45v9.09h-16.45z"/><path class="cls-32" d="M254.69 216.44h16.45v9.09h-16.45z"/><path class="cls-9" d="M120.29 195.45h16.45v9.09h-16.45z"/><path class="cls-10" d="M120.29 205.94h16.45v9.09h-16.45z"/><path class="cls-11" d="M120.29 216.44h16.45v9.09h-16.45z"/><path class="cls-12" d="M138.05 195.45h16.45v9.09h-16.45z"/><path class="cls-13" d="M138.05 205.94h16.45v9.09h-16.45z"/><path class="cls-14" d="M138.05 216.44h16.45v9.09h-16.45z"/><path class="cls-15" d="M157.55 195.45h18v9.09h-18z"/><path class="cls-16" d="M157.55 205.94h18v19.58h-18z"/><path class="cls-17" d="M157.55 216.44h18v9.09h-18z"/><path class="cls-18" d="M178.61 195.45h16.45v9.09h-16.45z"/><path class="cls-19" d="M178.61 205.94h16.45v9.09h-16.45z"/><path class="cls-20" d="M178.61 216.44h16.45v9.09h-16.45z"/><path class="cls-21" d="M196.37 195.45h16.45v9.09h-16.45z"/><path class="cls-22" d="M196.37 205.94h16.45v9.09h-16.45z"/><path class="cls-23" d="M196.37 216.44h16.45v9.09h-16.45z"/><path class="cls-24" d="M215.87 195.45h18v9.09h-18z"/><path class="cls-25" d="M215.87 205.94h18v19.58h-18z"/><path class="cls-26" d="M215.87 216.44h18v9.09h-18z"/><path class="cls-27" d="M236.92 195.45h16.45v9.09h-16.45z"/><path class="cls-28" d="M236.92 205.94h16.45v9.09h-16.45z"/><path class="cls-29" d="M236.92 216.44h16.45v9.09h-16.45z"/><path class="cls-30" d="M254.69 195.45h16.45v9.09h-16.45z"/><path class="cls-31" d="M254.69 205.94h16.45v9.09h-16.45z"/><path class="cls-32" d="M254.69 216.44h16.45v9.09h-16.45z"/><g class="cls-33"><path class="cls-34" d="M175.56 216.44v-10.5h-11.07l-6.94 11.44v8.15h18.01v-9.09zM138.05 215.04h9.84l5.51-9.1h-15.35v9.1zM138.05 204.55h16.2l.25-.42v-8.68h-16.45v9.1zM154.5 211.22l-2.32 3.82h2.32v-3.82zM157.55 199.09l2.21-3.64h-2.21v3.64zM157.7 205.94l-.15.24v7.1l4.45-7.34h-4.3zM158.54 204.55h4.31l5.51-9.1h-4.3l-5.52 9.1zM196.37 216.44h16.45v9.09h-16.45zM175.56 204.55v-9.1h-4.71l-5.51 9.1h10.22zM196.37 205.94h16.45v9.09h-16.45zM178.61 205.94h16.45v9.09h-16.45zM136.74 204.55v-9.1h-3.93l-5.52 9.1h9.45zM178.61 216.44h16.45v9.09h-16.45zM178.61 195.45h16.45v9.09h-16.45zM236.92 215.04h5.07l5.51-9.1h-10.58v9.1zM215.87 195.45h18v9.09h-18zM236.92 204.55h11.43l5.02-8.29v-.81h-16.45v9.1zM233.87 216.44v-10.5h-18v19.59h18v-9.09zM236.92 216.44v6.95l4.22-6.95h-4.22zM254.69 216.44v9.09h7.43l5.51-9.09h-12.94zM271.13 205.94h-10.39l-5.52 9.1h13.26l2.65-4.38v-4.72zM253.37 218.09l-4.51 7.44h4.51v-7.44zM154.5 218.32v-1.88h-3.16l-5.52 9.09h4.31l4.37-7.21zM138.05 216.44v9.09h3.48l5.51-9.09h-8.99zM120.29 216.44h16.45v9.09h-16.45zM136.74 215.04v-9.1h-10.29l-5.52 9.1h15.81zM271.13 204.55v-9.1h-4.03l-5.52 9.1h9.55zM154.5 222.42l-1.88 3.11h1.88v-3.11zM196.37 195.45h16.45v9.09h-16.45z"/></g><path class="cls-36" d="M117.75 193.98h155.92v5.11H117.75z"/><path class="cls-4" d="M113.72 227.41H277.7v4.45H113.72z"/><path class="cls-42" d="M117.75 180.66h2.54v6.09h-2.54zM136.92 180.66h2.54v6.09h-2.54zM156.1 180.66h2.54v6.09h-2.54zM175.27 180.66h2.54v6.09h-2.54zM194.44 180.66h2.54v6.09h-2.54zM213.61 180.66h2.54v6.09h-2.54zM232.79 180.66h2.54v6.09h-2.54zM251.96 180.66h2.54v6.09h-2.54zM271.13 180.66h2.54v6.09h-2.54z"/><rect class="cls-8" x="113.28" y="178.27" width="164.87" height="2.75" rx=".85"/><path class="cls-42" d="M35.96 18.02h2.54v6.09h-2.54zM55.13 18.02h2.54v6.09h-2.54zM74.3 18.02h2.54v6.09H74.3zM93.48 18.02h2.54v6.09h-2.54zM112.65 18.02h2.54v6.09h-2.54zM131.82 18.02h2.54v6.09h-2.54zM151 18.02h2.54v6.09H151zM170.17 18.02h2.54v6.09h-2.54zM189.34 18.02h2.54v6.09h-2.54z"/><rect class="cls-8" x="31.48" y="15.63" width="164.87" height="2.75" rx=".85"/><path class="cls-43" d="M36.1 7.8h2.26v8.36H36.1z"/><path class="cls-4" d="M47 17.89a3 3 0 11-3-3 3 3 0 013 3zM44.12 24.32L44 21.5a2.94 2.94 0 00.51-.05l.49 2.77c-.28.05-.58.08-.88.1zm-3.46-.86a5.15 5.15 0 01-.75-.5l1.73-2.22a3.83 3.83 0 00.42.28zm7.56-.81l-1.89-2.09a3.15 3.15 0 00.36-.37L48.85 22a7.76 7.76 0 01-.63.65zM37.8 20.09a6.5 6.5 0 01-.25-.86l2.75-.61a3.5 3.5 0 00.14.49zm12.49-1.35l-2.79-.39a2.85 2.85 0 000-.51l2.81-.08v.11a6.58 6.58 0 01-.02.87zm-9.86-2.13l-2.65-.94a5.62 5.62 0 01.36-.83l2.49 1.31a3.76 3.76 0 00-.2.46zm6.57-.74c-.1-.14-.2-.28-.31-.41l2.14-1.83a7.4 7.4 0 01.53.72zm-5-1.18l-1.4-2.43a6.63 6.63 0 01.8-.4l1.08 2.6a2.38 2.38 0 00-.48.23zm3-.34a4.05 4.05 0 00-.5-.12l.46-2.77a5.48 5.48 0 01.89.21z" transform="translate(-6.72 -11.46)"/><path class="cls-43" d="M189.48 7.8h2.26v8.36h-2.26z"/><path class="cls-4" d="M200.36 17.89a3 3 0 11-3-3 3 3 0 013 3zM197.51 24.32l-.11-2.82a2.94 2.94 0 00.51-.05l.49 2.77c-.29.05-.6.08-.89.1zm-3.51-.86a4.58 4.58 0 01-.74-.5l1.74-2.22a3.83 3.83 0 00.42.28zm7.56-.81l-1.89-2.09a3.15 3.15 0 00.36-.37l2.2 1.81a5.52 5.52 0 01-.63.65zm-10.41-2.56a6.54 6.54 0 01-.26-.86l2.75-.61a3.51 3.51 0 00.15.49zm12.49-1.35l-2.79-.39a4.24 4.24 0 000-.51l2.82-.08v.11a6.58 6.58 0 01.01.87zm-9.87-2.13l-2.65-.94a5.62 5.62 0 01.36-.83l2.5 1.31a3.82 3.82 0 00-.17.46zm6.54-.74a4 4 0 00-.31-.41l2.14-1.83q.28.34.54.72zm-4.94-1.18L194 12.26a6.09 6.09 0 01.81-.4l1.07 2.6a2.73 2.73 0 00-.47.23zm3-.34a4.37 4.37 0 00-.49-.12l.46-2.77a5.62 5.62 0 01.88.21z" transform="translate(-6.72 -11.46)"/><path class="cls-44" d="M38.16 238v-9.27a2.38 2.38 0 012.37-2.37h5.18a2.38 2.38 0 012.37 2.37V238a2.38 2.38 0 01-2.37 2.37h-5.18a2.38 2.38 0 01-2.37-2.37zm2.37-9.46a.19.19 0 00-.19.19V238a.2.2 0 00.19.2h5.18a.21.21 0 00.19-.2v-9.27a.2.2 0 00-.19-.19z" transform="translate(-6.72 -11.46)"/><path class="cls-45" d="M33.07 238.9v-12.17a2.59 2.59 0 012.59-2.58h4.2a2.59 2.59 0 012.58 2.58v12.17a2.59 2.59 0 01-2.58 2.58h-4.2a2.59 2.59 0 01-2.59-2.58zm2.59-12.31a.14.14 0 00-.14.14v12.17a.13.13 0 00.14.13h4.2a.13.13 0 00.13-.13v-12.17a.14.14 0 00-.13-.14z" transform="translate(-6.72 -11.46)"/><path class="cls-44" d="M36.33 256.19a8.11 8.11 0 001.67-4.91h5a8.05 8.05 0 001.66 4.91z" transform="translate(-6.72 -11.46)"/><path class="cls-44" d="M31.26 197.65h4.95v42.17h-4.95z"/><path class="cls-45" d="M40.34 209.11H38v42.17a8.13 8.13 0 01-1.65 4.91h4z" transform="translate(-6.72 -11.46)"/><path class="cls-5" d="M62.08 210.32c0-14.08-8-37-21.62-37.49-13.65.48-21.63 23.41-21.62 37.49-.25 14.24 9.65 27.08 21.62 27.72 11.96-.64 21.86-13.48 21.62-27.72z" transform="translate(-6.72 -11.46)"/><path class="cls-6" d="M40.27 172.85c-13.54.68-21.44 23.45-21.43 37.47-.25 14.17 9.55 26.93 21.43 27.7z" transform="translate(-6.72 -11.46)"/><ellipse class="cls-5" cx="23.83" cy="212.97" rx="1.91" ry="3.1"/><path class="cls-5" d="M27.5 217c-.64 0-1.15.69-1.15 1.54s.51 1.54 1.15 1.54 1.14-.69 1.14-1.54-.51-1.54-1.14-1.54zM31.55 217c-.5 0-.91.69-.91 1.54s.41 1.54.91 1.54.92-.69.92-1.54-.41-1.54-.92-1.54zM22.67 211.22c-.63 0-1.14.93-1.14 2.07s.51 2.06 1.14 2.06 1.14-.92 1.14-2.06-.51-2.07-1.14-2.07z" transform="translate(-6.72 -11.46)"/><path class="cls-6" d="M45.38 184.44c.73 0 1.33-.9 1.33-2s-.6-2-1.33-2-1.34.9-1.34 2 .6 2 1.34 2z" transform="translate(-6.72 -11.46)"/><ellipse class="cls-6" cx="42.34" cy="177.33" rx="1.48" ry="2.25"/><path class="cls-6" d="M45.21 189.86c.39 0 .71-.55.71-1.23s-.32-1.24-.71-1.24-.72.56-.72 1.24.32 1.23.72 1.23z" transform="translate(-6.72 -11.46)"/><ellipse class="cls-6" cx="44.59" cy="182.98" rx=".77" ry="1.11"/><path d="M256.94 282.91h-68a5.65 5.65 0 01-5.66-5.66 5.66 5.66 0 015.66-5.66h68a5.66 5.66 0 015.66 5.66 5.65 5.65 0 01-5.66 5.66z" transform="translate(-6.72 -11.46)" style="mix-blend-mode:multiply" fill="#9898a3" opacity=".3"/><path class="cls-37" d="M255.7 242.24a2.52 2.52 0 00-.14-.33l1.94-1.06a4.12 4.12 0 01.31.71zM252.18 242.15l-2.08-.78a4.12 4.12 0 01.34-.7l1.89 1.16a1.87 1.87 0 00-.15.32zM255.11 241.37a1.57 1.57 0 00-.3-.2l1.07-1.95a4.55 4.55 0 01.64.44zM252.81 241.31l-1.33-1.78a4.46 4.46 0 01.66-.4l1 2a1.49 1.49 0 00-.33.18zM254.14 241h-.35l-.15-2.22a4.16 4.16 0 01.61 0h.16zM255.39 242.8a1.47 1.47 0 11-1.47-1.47 1.47 1.47 0 011.47 1.47z" transform="translate(-6.72 -11.46)"/><path class="cls-47" d="M252.78 242.18a.26.26 0 000 .26.27.27 0 00.21.07.9.9 0 00.5-.16 1.63 1.63 0 00.36-.38.36.36 0 00.08-.19.24.24 0 00-.11-.19.43.43 0 00-.22-.06.88.88 0 00-.82.65z" transform="translate(-6.72 -11.46)"/><path class="cls-48" d="M246.91 249.12l-13.47-.93-4.12 11.95h18.9l-1.31-11.02zM212.9 249.12l-15.18-.93-4.63 11.95h21.28l-1.47-11.02z"/><path class="cls-7" d="M255.23 248.69h-25.91v-17.44h22.07l3.84 17.44z"/><path class="cls-31" d="M236.81 246.59v-13.25h12.9l2.92 13.25h-15.82z"/><path class="cls-49" d="M245.44 256.93a91.37 91.37 0 0111.1-11.64l-.11-.49h-12.9v13.25h1.11a12.64 12.64 0 01.8-1.12z" transform="translate(-6.72 -11.46)"/><path class="cls-7" d="M236 260.14v10.8h.56c.15-4.57 3.17-9 9-9s8.9 4.45 9.05 9H262v-10.8z" transform="translate(-6.72 -11.46)"/><path class="cls-43" d="M263.24 271.59h-5.49a1.43 1.43 0 01-1.43-1.43V269a1.43 1.43 0 011.43-1.43h5.49z" transform="translate(-6.72 -11.46)"/><path class="cls-43" d="M257.88 267.58h-.51a1 1 0 00-1.05 1v1.93a1 1 0 001.05 1h.51z" transform="translate(-6.72 -11.46)"/><path class="cls-50" d="M241.62 245.79h-3.41a.49.49 0 01-.5-.49.5.5 0 01.5-.5h3.41a.5.5 0 01.5.5.5.5 0 01-.5.49zM241.62 247.66h-3.41a.49.49 0 01-.5-.49.5.5 0 01.5-.5h3.41a.5.5 0 01.5.5.5.5 0 01-.5.49zM241.62 249.53h-3.41a.49.49 0 01-.5-.49.5.5 0 01.5-.5h3.41a.5.5 0 01.5.5.5.5 0 01-.5.49z" transform="translate(-6.72 -11.46)"/><path class="cls-34" d="M262 266.65v-4.39a.82.82 0 01.82.81v2.76a.82.82 0 01-.82.82zM263.45 265.33a1.58 1.58 0 00.22-.23l2.16.81a3.63 3.63 0 01-.48.48zM263.51 263.59l2-1a2.59 2.59 0 01.44.5l-2.21.73a1.51 1.51 0 00-.23-.23zM263.91 264.6v-.06a1.48 1.48 0 000-.21l2.45-.12a1.85 1.85 0 010 .47v.12z" transform="translate(-6.72 -11.46)"/><path class="cls-48" d="M186.97 258.98h50.8v2.32h-50.8z"/><path d="M195 245.89v24.54h6.33c.29-4.44 3.3-8.67 9-8.67s8.75 4.23 9 8.67h16.66V242a2.6 2.6 0 00-2.6-2.6h-32a6.51 6.51 0 00-6.39 6.49z" transform="translate(-6.72 -11.46)" fill="#fcf3d1"/><path class="cls-37" d="M228.51 250.21a6.6 6.6 0 11-6.6-6.6 6.59 6.59 0 016.6 6.6z" transform="translate(-6.72 -11.46)"/><path d="M227.41 250.21a5.5 5.5 0 11-5.5-5.5 5.5 5.5 0 015.5 5.5z" transform="translate(-6.72 -11.46)" fill="#ecf0f1"/><path class="cls-31" d="M211.74 237.74h6.9v2.04h-6.9z"/><path class="cls-31" d="M214.17 235.31h2.04v6.9h-2.04z"/><path class="cls-53" d="M229.32 247.13v1.56h25.91l-.34-1.56h-25.57z"/><path class="cls-53" d="M242.89 262.3a10.18 10.18 0 015.51 0H262v-2.16h-26v2.16zM236 264.4v6.54h.56a9.72 9.72 0 012.69-6.54zM252 264.4a9.67 9.67 0 012.69 6.54H262v-6.54z" transform="translate(-6.72 -11.46)"/><path class="cls-37" d="M216.89 264.4a9.69 9.69 0 012.51 6h16.66v-6zM236.05 241.89a2.59 2.59 0 00-2.59-2.51h-32a6.5 6.5 0 00-5.1 2.51zM195 258.58v3.72h12.1a10.14 10.14 0 016.53 0h22.43v-3.72zM195 264.4v6h6.33a9.74 9.74 0 012.51-6z" transform="translate(-6.72 -11.46)"/><path class="cls-54" d="M236 271.59h1V271a8.72 8.72 0 018.71-8.71v-1A9.75 9.75 0 00236 271zM220 271.59h-1V271a8.72 8.72 0 00-8.71-8.71v-1A9.76 9.76 0 01220 271zM200.5 271.59h1V271a8.72 8.72 0 018.71-8.71v-1a9.76 9.76 0 00-9.71 9.71z" transform="translate(-6.72 -11.46)"/><path class="cls-55" d="M252.61 271.59a7.08 7.08 0 11-7.07-7.08 7.08 7.08 0 017.07 7.08z" transform="translate(-6.72 -11.46)"/><path class="cls-56" d="M249.47 271.59a3.94 3.94 0 11-3.93-3.93 3.93 3.93 0 013.93 3.93z" transform="translate(-6.72 -11.46)"/><path class="cls-54" d="M246.7 271.59a1.16 1.16 0 11-1.16-1.16 1.16 1.16 0 011.16 1.16z" transform="translate(-6.72 -11.46)"/><path class="cls-57" d="M239.27 271.85a5.06 5.06 0 01.26-2.8 6.67 6.67 0 013.47-3.74 2.07 2.07 0 011.26-.23.92.92 0 01.78.89 1 1 0 01-.19.48 4.36 4.36 0 01-1.78 1.17 9.69 9.69 0 00-2.76 2.08 3.54 3.54 0 00-.95 1.58z" transform="translate(-6.72 -11.46)"/><path class="cls-55" d="M217.33 271.59a7.08 7.08 0 11-7.08-7.08 7.08 7.08 0 017.08 7.08z" transform="translate(-6.72 -11.46)"/><path class="cls-56" d="M214.18 271.59a3.93 3.93 0 11-3.93-3.93 3.93 3.93 0 013.93 3.93z" transform="translate(-6.72 -11.46)"/><path class="cls-54" d="M211.41 271.59a1.16 1.16 0 11-1.16-1.16 1.16 1.16 0 011.16 1.16z" transform="translate(-6.72 -11.46)"/><path class="cls-57" d="M204 271.85a5.06 5.06 0 01.25-2.8 6.66 6.66 0 013.48-3.74 2 2 0 011.25-.23.92.92 0 01.79.89 1.12 1.12 0 01-.2.48 4.3 4.3 0 01-1.78 1.17 9.65 9.65 0 00-2.79 2.08 3.47 3.47 0 00-1 1.58z" transform="translate(-6.72 -11.46)"/><path class="cls-47" d="M199.33 261.13h-1.52a.69.69 0 01-.69-.69.69.69 0 01.69-.69h1.52a.69.69 0 01.7.69.69.69 0 01-.7.69zM203.65 241.36h-1.52a.69.69 0 01-.69-.69.69.69 0 01.69-.69h1.52a.69.69 0 01.7.69.69.69 0 01-.7.69zM231.38 241.36h-1.53a.69.69 0 01-.69-.69.69.69 0 01.69-.69h1.53a.69.69 0 01.69.69.69.69 0 01-.69.69zM258.93 261.13h-1.53a.69.69 0 01-.69-.69.69.69 0 01.69-.69h1.53a.69.69 0 01.69.69.69.69 0 01-.69.69z" transform="translate(-6.72 -11.46)"/><rect class="cls-31" x="191.85" y="233.34" width="11.86" height="8.67" rx="1"/><path class="cls-49" d="M199.64 253.42l.06-.07a46.56 46.56 0 0110.47-8 1.26 1.26 0 00-1-.56h-9.26a1.3 1.3 0 00-1.3 1.3v6.07a1.29 1.29 0 001.03 1.26z" transform="translate(-6.72 -11.46)"/><path class="cls-54" d="M255.53 271.59h-1V271a8.72 8.72 0 00-8.71-8.71v-1a9.75 9.75 0 019.74 9.74z" transform="translate(-6.72 -11.46)"/><path class="cls-36" d="M91.85 240.09V238h-4.51v-.13a.94.94 0 00-1-.94.94.94 0 00-1 .94v.13H51.11v-.13a1 1 0 00-1-.94.94.94 0 00-.95.94v.13H44.7v2.09h4.51v1.08H44.7v2.08h4.51v1.08H44.7v2.09h4.51v.05H44.7v3.17h4.51v5.19h-.09a.89.89 0 00-.89.9v.49h3.86v-.49a.9.9 0 00-.9-.9h-.08v-5.19h34.33v5.19h-.09a.89.89 0 00-.89.9v.49h3.86v-.49a.9.9 0 00-.9-.9h-.08v-5.19h4.51v-3.17h-4.51v-.05h4.51v-2.09h-4.51v-1.08h4.51v-2.08h-4.51v-1.08zm-6.41 6.38H51.11v-.05h34.33zm0-2.14H51.11v-1.08h34.33zm0-3.16H51.11v-1.08h34.33z" transform="translate(-6.72 -11.46)"/><path class="cls-58" d="M47.92 225.47h.73a.59.59 0 01.59.59v18.7h-1.9v-18.7a.59.59 0 01.58-.59z"/><path class="cls-59" d="M56 250.47v-12.6a.94.94 0 00-1-.94 1 1 0 00-1 .94v12.6z" transform="translate(-6.72 -11.46)"/><path class="cls-58" d="M46.9 243.38h2.75a.55.55 0 01.55.55v.83h-3.85v-.83a.55.55 0 01.55-.55zM84.15 225.47h.73a.59.59 0 01.59.59v18.7h-1.9v-18.7a.59.59 0 01.58-.59z"/><path class="cls-59" d="M92.18 250.47v-12.6a.94.94 0 00-.94-.94 1 1 0 00-1 .94v12.6z" transform="translate(-6.72 -11.46)"/><path class="cls-58" d="M83.13 243.38h2.75a.55.55 0 01.55.55v.83h-3.85v-.83a.55.55 0 01.55-.55z"/><path class="cls-60" d="M42.82 235.01h47.15v3.17H42.82z"/><path fill="#ff7769" d="M42.82 235.01h47.15v.91H42.82z"/><path class="cls-62" d="M42.82 232.87h47.15v2.09H42.82zM42.82 229.71h47.15v2.09H42.82zM42.82 226.55h47.15v2.09H42.82z"/><path class="cls-36" d="M94.97 234.18h1.01l.62 9.39h-.84l.1 1.21h7.8l.1-1.21h-.84l.62-9.39h1.01l.16-1.83h-9.9l.16 1.83z"/><path class="cls-62" d="M108.38 234.18h-7.56l.64 9.63h6.28l.64-9.63z"/><path d="M109.18 246.5a1 1 0 00-.88 1.11l.34 6.2a.89.89 0 00.85.85.81.81 0 00.79-.85l-.14-6.2a1.06 1.06 0 00-.96-1.11z" transform="translate(-6.72 -11.46)" fill="#912b21"/><path class="cls-60" d="M108.61 243.57h-8.01l.1 1.21h7.8l.11-1.21zM109.55 232.35h-9.9l.16 1.83h9.59l.15-1.83z"/></g></g></svg>