<svg xmlns="http://www.w3.org/2000/svg" viewBox="0 0 289.8 280.09"><defs><style>.cls-1{isolation:isolate;}.cls-2{fill:#646f91;}.cls-3{fill:#8695c2;}.cls-4{fill:#ffd900;}.cls-5{fill:#a6de00;}.cls-6{fill:#72b100;}.cls-7{fill:#f0e8d8;}.cls-8{fill:#33496d;}.cls-9{fill:#369ae3;}.cls-10{fill:#42aaf7;}.cls-11{fill:#46a2f9;}.cls-12{fill:#3ea0f3;}.cls-13{fill:#409afb;}.cls-14{fill:#3ea6f3;}.cls-15{fill:#329ae5;}.cls-16{fill:#2eaaf9;}.cls-17{fill:#42b0f5;}.cls-18{fill:#389af1;}.cls-19{fill:#3caced;}.cls-20{fill:#469ae5;}.cls-21{fill:#42a4f5;}.cls-22{fill:#44aee7;}.cls-23{fill:#40aee3;}.cls-24{fill:#3eaaed;}.cls-25{fill:#30ace5;}.cls-26{fill:#30a6e9;}.cls-27{fill:#46a6e7;}.cls-28{fill:#3aa6ed;}.cls-29{fill:#4898ed;}.cls-30{fill:#2ea6ef;}.cls-31{fill:#48a2f5;}.cls-32{fill:#36a0f3;}.cls-33,.cls-46,.cls-49{opacity:0.3;}.cls-33,.cls-49{mix-blend-mode:overlay;}.cls-34,.cls-49{fill:#fff;}.cls-35{fill:#f0e3c7;}.cls-36,.cls-41,.cls-46{fill:#9898a3;}.cls-36{opacity:0.7;}.cls-36,.cls-39,.cls-40,.cls-46,.cls-59{mix-blend-mode:multiply;}.cls-37{fill:#eb3127;}.cls-38{fill:#f5f0e4;}.cls-39{fill:#d6cab0;}.cls-40{opacity:0.5;}.cls-42{fill:#2a3c59;}.cls-43{fill:#34495e;}.cls-44{fill:#6d4c41;}.cls-45{fill:#4f372f;}.cls-47{fill:#ffec82;}.cls-48{fill:#1b2630;}.cls-50{fill:#2c3e50;}.cls-51{fill:#fcf3d1;}.cls-52{fill:#ecf0f1;}.cls-53{fill:#d42d23;}.cls-54{fill:#f7f3eb;}.cls-55{fill:#314559;}.cls-56{fill:#bdc3c7;}.cls-57{fill:#3b536b;}.cls-58{fill:#5274ad;}.cls-59{fill:#c4b4ac;}.cls-60{fill:#e74c3c;}.cls-61{fill:#ff7769;}.cls-62{fill:#c0392b;}.cls-63{fill:#912b21;}</style></defs><g class="cls-1"><g id="Layer_1" data-name="Layer 1"><path class="cls-2" d="M6.72,256.13c0,19.57,13.25,35.42,29.6,35.42H266.93c16.35,0,29.6-15.85,29.6-35.41Z" transform="translate(-6.72 -11.46)"/><path class="cls-3" d="M6.72,256.13a29.6,29.6,0,0,0,29.6,29.61H266.93a29.6,29.6,0,0,0,29.6-29.6Z" transform="translate(-6.72 -11.46)"/><path class="cls-4" d="M295.19,264.77a29.22,29.22,0,0,0,1-4.49H7.05a29.22,29.22,0,0,0,1,4.49Z" transform="translate(-6.72 -11.46)"/><path class="cls-5" d="M296.53,256.14a29.6,29.6,0,0,0-29.6-29.6H36.32a29.59,29.59,0,0,0-29.6,29.59Z" transform="translate(-6.72 -11.46)"/><path class="cls-6" d="M274.8,227.63c6.52,5.56,4.26,19.16-6.75,19.16H33c-10.35,0-12.95-12-7.85-18.06a29.61,29.61,0,0,0-18.43,27.4H296.53A29.59,29.59,0,0,0,274.8,227.63Z" transform="translate(-6.72 -11.46)"/><path class="cls-6" d="M92.34,233c0-.69,1-1.24,2.25-1.24s2.24.55,2.24,1.24-1,1.24-2.24,1.24S92.34,233.7,92.34,233Z" transform="translate(-6.72 -11.46)"/><ellipse class="cls-6" cx="167.12" cy="221.82" rx="4.43" ry="2.46"/><path class="cls-6" d="M257.91,249.76c0-1.09,1.59-2,3.55-2s3.55.88,3.55,2-1.59,2-3.55,2S257.91,250.85,257.91,249.76Z" transform="translate(-6.72 -11.46)"/><path class="cls-6" d="M155.17,250.26c0-1.19,1.75-2.16,3.9-2.16s3.89,1,3.89,2.16-1.74,2.16-3.89,2.16S155.17,251.46,155.17,250.26Z" transform="translate(-6.72 -11.46)"/><path class="cls-6" d="M233.79,247.29c0-.75,1.09-1.35,2.43-1.35s2.44.6,2.44,1.35-1.09,1.35-2.44,1.35S233.79,248,233.79,247.29Z" transform="translate(-6.72 -11.46)"/><path class="cls-6" d="M83.18,239.51c0-1,1.48-1.83,3.3-1.83s3.3.82,3.3,1.83-1.48,1.83-3.3,1.83S83.18,240.52,83.18,239.51Z" transform="translate(-6.72 -11.46)"/><ellipse class="cls-6" cx="178.92" cy="218.55" rx="1.96" ry="1.09"/><path class="cls-6" d="M121.42,244.26c0-1.11,1.63-2,3.63-2s3.63.9,3.63,2-1.63,2-3.63,2S121.42,245.38,121.42,244.26Z" transform="translate(-6.72 -11.46)"/><path class="cls-6" d="M101.85,249.68c0-1.08,1.58-2,3.53-2s3.53.87,3.53,2-1.58,2-3.53,2S101.85,250.76,101.85,249.68Z" transform="translate(-6.72 -11.46)"/><path class="cls-6" d="M222.58,243.73c0-.64.93-1.16,2.08-1.16s2.08.52,2.08,1.16-.93,1.15-2.08,1.15S222.58,244.36,222.58,243.73Z" transform="translate(-6.72 -11.46)"/><path class="cls-6" d="M172.48,240.28c0-.91,1.32-1.65,3-1.65s3,.74,3,1.65-1.33,1.64-3,1.64S172.48,241.19,172.48,240.28Z" transform="translate(-6.72 -11.46)"/><path class="cls-6" d="M148.89,240c0-.51.75-.93,1.67-.93s1.68.42,1.68.93-.75.93-1.68.93S148.89,240.48,148.89,240Z" transform="translate(-6.72 -11.46)"/><path class="cls-6" d="M135.19,240.44c0-.88,1.29-1.6,2.87-1.6s2.87.72,2.87,1.6-1.28,1.59-2.87,1.59S135.19,241.32,135.19,240.44Z" transform="translate(-6.72 -11.46)"/><path class="cls-6" d="M122.28,234.11c0-.73,1.07-1.32,2.39-1.32s2.38.59,2.38,1.32-1.07,1.32-2.38,1.32S122.28,234.84,122.28,234.11Z" transform="translate(-6.72 -11.46)"/><ellipse class="cls-6" cx="16.95" cy="232.55" rx="2.05" ry="1.14"/><path class="cls-6" d="M276.54,245.27c0-.64.93-1.15,2.08-1.15s2.07.51,2.07,1.15-.93,1.15-2.07,1.15S276.54,245.91,276.54,245.27Z" transform="translate(-6.72 -11.46)"/><path class="cls-6" d="M198.08,231.22c0-.49.71-.89,1.59-.89s1.59.4,1.59.89-.71.88-1.59.88S198.08,231.7,198.08,231.22Z" transform="translate(-6.72 -11.46)"/><path class="cls-6" d="M81.81,232.94c0-.8,1.18-1.45,2.62-1.45s2.63.65,2.63,1.45-1.18,1.46-2.63,1.46S81.81,233.75,81.81,232.94Z" transform="translate(-6.72 -11.46)"/><path class="cls-6" d="M213.36,242.6c0-.5.73-.91,1.63-.91s1.64.41,1.64.91-.73.9-1.64.9S213.36,243.1,213.36,242.6Z" transform="translate(-6.72 -11.46)"/><path class="cls-6" d="M232.74,230.87c0-.66,1-1.19,2.15-1.19s2.15.53,2.15,1.19-1,1.19-2.15,1.19S232.74,231.53,232.74,230.87Z" transform="translate(-6.72 -11.46)"/><ellipse class="cls-6" cx="37.42" cy="233.83" rx="1.49" ry="0.83"/><path class="cls-6" d="M103.37,241.28c0-.41.6-.75,1.34-.75s1.35.34,1.35.75-.6.75-1.35.75S103.37,241.69,103.37,241.28Z" transform="translate(-6.72 -11.46)"/><path class="cls-6" d="M21.33,233.07c0-.58.85-1,1.9-1s1.89.47,1.89,1-.85,1.05-1.89,1.05S21.33,233.65,21.33,233.07Z" transform="translate(-6.72 -11.46)"/><path class="cls-6" d="M67.23,244.88c0-1.06,1.55-1.92,3.47-1.92s3.46.86,3.46,1.92-1.55,1.92-3.46,1.92S67.23,245.94,67.23,244.88Z" transform="translate(-6.72 -11.46)"/><path class="cls-6" d="M59.39,246.35c0-.41.6-.75,1.35-.75s1.34.34,1.34.75-.6.74-1.34.74S59.39,246.76,59.39,246.35Z" transform="translate(-6.72 -11.46)"/><ellipse class="cls-6" cx="234.31" cy="222.89" rx="1.35" ry="0.75"/><path class="cls-6" d="M145,230.05c0-.5.74-.91,1.65-.91s1.65.41,1.65.91-.74.92-1.65.92S145,230.56,145,230.05Z" transform="translate(-6.72 -11.46)"/><path class="cls-6" d="M208.08,246c0-.42.6-.75,1.34-.75s1.35.33,1.35.75-.6.74-1.35.74S208.08,246.4,208.08,246Z" transform="translate(-6.72 -11.46)"/><path class="cls-6" d="M111.64,242.32c0-.57.83-1,1.86-1s1.86.47,1.86,1-.83,1-1.86,1S111.64,242.89,111.64,242.32Z" transform="translate(-6.72 -11.46)"/><path class="cls-6" d="M39.24,236.48c0-1.58,2.31-2.86,5.15-2.86s5.15,1.28,5.15,2.86-2.3,2.86-5.15,2.86S39.24,238.06,39.24,236.48Z" transform="translate(-6.72 -11.46)"/><path class="cls-6" d="M262.9,229.32c0-.42.6-.75,1.35-.75s1.34.33,1.34.75-.6.74-1.34.74S262.9,229.73,262.9,229.32Z" transform="translate(-6.72 -11.46)"/><path class="cls-6" d="M62.56,237.78c0-.42.6-.75,1.35-.75s1.34.33,1.34.75-.6.74-1.34.74S62.56,238.19,62.56,237.78Z" transform="translate(-6.72 -11.46)"/><path class="cls-6" d="M140.5,234.66c0-.41.6-.74,1.35-.74s1.34.33,1.34.74-.6.75-1.34.75S140.5,235.08,140.5,234.66Z" transform="translate(-6.72 -11.46)"/><path class="cls-6" d="M183.09,235.05c0-.42.6-.75,1.35-.75s1.34.33,1.34.75-.6.74-1.34.74S183.09,235.46,183.09,235.05Z" transform="translate(-6.72 -11.46)"/><ellipse class="cls-6" cx="269.83" cy="223.36" rx="2.01" ry="1.11"/><path class="cls-6" d="M193.13,239c0-1.13,1.65-2.05,3.69-2.05s3.69.92,3.69,2.05-1.65,2-3.69,2S193.13,240.09,193.13,239Z" transform="translate(-6.72 -11.46)"/><path class="cls-6" d="M179.33,251c0-.41.6-.74,1.35-.74s1.34.33,1.34.74-.6.75-1.34.75S179.33,251.45,179.33,251Z" transform="translate(-6.72 -11.46)"/><ellipse class="cls-6" cx="279.06" cy="238.93" rx="1.36" ry="0.75"/><path class="cls-6" d="M76.91,228.91c0-.42.61-.76,1.38-.76s1.37.34,1.37.76-.61.77-1.37.77S76.91,229.33,76.91,228.91Z" transform="translate(-6.72 -11.46)"/><path class="cls-6" d="M114.19,249.57c0-.41.6-.74,1.35-.74s1.34.33,1.34.74-.6.75-1.34.75S114.19,250,114.19,249.57Z" transform="translate(-6.72 -11.46)"/><path class="cls-6" d="M114.54,237.79c0-.41.6-.74,1.35-.74s1.34.33,1.34.74-.6.75-1.34.75S114.54,238.21,114.54,237.79Z" transform="translate(-6.72 -11.46)"/><path class="cls-6" d="M34.66,242.67c0-.41.6-.75,1.35-.75s1.34.34,1.34.75-.6.75-1.34.75S34.66,243.08,34.66,242.67Z" transform="translate(-6.72 -11.46)"/><path class="cls-6" d="M278.77,240.51c0-.41.6-.74,1.34-.74s1.35.33,1.35.74-.6.75-1.35.75S278.77,240.92,278.77,240.51Z" transform="translate(-6.72 -11.46)"/><path class="cls-6" d="M26.18,251.2c0-.68,1-1.23,2.22-1.23s2.22.55,2.22,1.23-1,1.24-2.22,1.24S26.18,251.88,26.18,251.2Z" transform="translate(-6.72 -11.46)"/><ellipse class="cls-6" cx="43.63" cy="218.77" rx="2.29" ry="1.27"/><path class="cls-6" d="M291.69,248.53c0-.42.6-.75,1.35-.75s1.34.33,1.34.75-.6.74-1.34.74S291.69,248.94,291.69,248.53Z" transform="translate(-6.72 -11.46)"/><path class="cls-6" d="M86.56,248.16c0-.41.6-.74,1.34-.74s1.35.33,1.35.74-.6.75-1.35.75S86.56,248.58,86.56,248.16Z" transform="translate(-6.72 -11.46)"/><path class="cls-6" d="M286.17,244.44c0-.41.6-.74,1.34-.74s1.35.33,1.35.74-.6.75-1.35.75S286.17,244.86,286.17,244.44Z" transform="translate(-6.72 -11.46)"/><path class="cls-6" d="M270.57,230.78c0-.42.6-.75,1.34-.75s1.35.33,1.35.75-.6.74-1.35.74S270.57,231.19,270.57,230.78Z" transform="translate(-6.72 -11.46)"/><path class="cls-6" d="M190.84,233.1c0-.41.6-.75,1.34-.75s1.35.34,1.35.75-.6.75-1.35.75S190.84,233.51,190.84,233.1Z" transform="translate(-6.72 -11.46)"/><path class="cls-6" d="M132.34,234.18c0-.41.6-.74,1.34-.74s1.35.33,1.35.74-.6.75-1.35.75S132.34,234.6,132.34,234.18Z" transform="translate(-6.72 -11.46)"/><polygon class="cls-7" points="204.83 150.5 204.83 186.76 207.56 186.76 207.56 193.23 204.83 193.23 204.83 229.5 207.56 229.5 207.56 244.74 20.27 244.74 20.27 229.5 23 229.5 23 193.23 20.27 193.23 20.27 186.76 23 186.76 23 150.5 20.27 150.5 20.27 149.67 207.56 149.67 207.56 150.5 204.83 150.5"/><rect class="cls-8" x="18.4" y="232.06" width="189.16" height="12.67"/><rect class="cls-9" x="23" y="150.5" width="19.83" height="10.96"/><rect class="cls-10" x="23" y="163.15" width="19.83" height="10.96"/><rect class="cls-11" x="23" y="175.79" width="19.83" height="10.96"/><rect class="cls-12" x="44.41" y="150.5" width="19.83" height="10.96"/><rect class="cls-13" x="44.41" y="163.15" width="19.83" height="10.96"/><rect class="cls-14" x="44.41" y="175.79" width="19.83" height="10.96"/><rect class="cls-15" x="67.92" y="150.5" width="21.7" height="10.96"/><rect class="cls-16" x="67.92" y="163.15" width="21.7" height="23.61"/><rect class="cls-17" x="67.92" y="175.79" width="21.7" height="10.96"/><rect class="cls-18" x="93.3" y="150.5" width="19.83" height="10.96"/><rect class="cls-19" x="93.3" y="163.15" width="19.83" height="10.96"/><rect class="cls-20" x="93.3" y="175.79" width="19.83" height="10.96"/><rect class="cls-21" x="114.71" y="150.5" width="19.83" height="10.96"/><rect class="cls-22" x="114.71" y="163.15" width="19.83" height="10.96"/><rect class="cls-23" x="114.71" y="175.79" width="19.83" height="10.96"/><rect class="cls-24" x="138.22" y="150.5" width="21.7" height="10.96"/><rect class="cls-25" x="138.22" y="163.15" width="21.7" height="23.61"/><rect class="cls-26" x="138.22" y="175.79" width="21.7" height="10.96"/><rect class="cls-27" x="163.6" y="150.5" width="19.83" height="10.96"/><rect class="cls-28" x="163.6" y="163.15" width="19.83" height="10.96"/><rect class="cls-29" x="163.6" y="175.79" width="19.83" height="10.96"/><rect class="cls-30" x="185.01" y="150.5" width="19.83" height="10.96"/><rect class="cls-31" x="185.01" y="163.15" width="19.83" height="10.96"/><rect class="cls-32" x="185.01" y="175.79" width="19.83" height="10.96"/><rect class="cls-9" x="23" y="150.5" width="19.83" height="10.96"/><rect class="cls-10" x="23" y="163.15" width="19.83" height="10.96"/><rect class="cls-11" x="23" y="175.79" width="19.83" height="10.96"/><rect class="cls-12" x="44.41" y="150.5" width="19.83" height="10.96"/><rect class="cls-13" x="44.41" y="163.15" width="19.83" height="10.96"/><rect class="cls-14" x="44.41" y="175.79" width="19.83" height="10.96"/><rect class="cls-15" x="67.92" y="150.5" width="21.7" height="10.96"/><rect class="cls-16" x="67.92" y="163.15" width="21.7" height="23.61"/><rect class="cls-17" x="67.92" y="175.79" width="21.7" height="10.96"/><rect class="cls-18" x="93.3" y="150.5" width="19.83" height="10.96"/><rect class="cls-19" x="93.3" y="163.15" width="19.83" height="10.96"/><rect class="cls-20" x="93.3" y="175.79" width="19.83" height="10.96"/><rect class="cls-21" x="114.71" y="150.5" width="19.83" height="10.96"/><rect class="cls-22" x="114.71" y="163.15" width="19.83" height="10.96"/><rect class="cls-23" x="114.71" y="175.79" width="19.83" height="10.96"/><rect class="cls-24" x="138.22" y="150.5" width="21.7" height="10.96"/><rect class="cls-25" x="138.22" y="163.15" width="21.7" height="23.61"/><rect class="cls-26" x="138.22" y="175.79" width="21.7" height="10.96"/><rect class="cls-27" x="163.6" y="150.5" width="19.83" height="10.96"/><rect class="cls-28" x="163.6" y="163.15" width="19.83" height="10.96"/><rect class="cls-29" x="163.6" y="175.79" width="19.83" height="10.96"/><rect class="cls-30" x="185.01" y="150.5" width="19.83" height="10.96"/><rect class="cls-31" x="185.01" y="163.15" width="19.83" height="10.96"/><rect class="cls-32" x="185.01" y="175.79" width="19.83" height="10.96"/><g class="cls-33"><polygon class="cls-34" points="89.62 175.79 89.62 163.15 76.28 163.15 67.92 176.94 67.92 186.75 89.62 186.75 89.62 175.79"/><polygon class="cls-34" points="44.41 174.11 56.27 174.11 62.91 163.15 44.41 163.15 44.41 174.11"/><polygon class="cls-34" points="44.41 161.46 63.93 161.46 64.24 160.96 64.24 150.5 44.41 150.5 44.41 161.46"/><polygon class="cls-34" points="64.24 169.5 61.45 174.11 64.24 174.11 64.24 169.5"/><polygon class="cls-34" points="67.92 154.89 70.58 150.5 67.92 150.5 67.92 154.89"/><polygon class="cls-34" points="68.09 163.15 67.92 163.43 67.92 171.99 73.28 163.15 68.09 163.15"/><polygon class="cls-34" points="69.11 161.46 74.3 161.46 80.95 150.5 75.76 150.5 69.11 161.46"/><rect class="cls-34" x="114.71" y="175.79" width="19.83" height="10.96"/><polygon class="cls-34" points="89.62 161.46 89.62 150.5 83.95 150.5 77.3 161.46 89.62 161.46"/><rect class="cls-34" x="114.71" y="163.15" width="19.83" height="10.96"/><rect class="cls-34" x="93.3" y="163.15" width="19.83" height="10.96"/><polygon class="cls-34" points="42.83 161.46 42.83 150.5 38.09 150.5 31.44 161.46 42.83 161.46"/><rect class="cls-34" x="93.3" y="175.79" width="19.83" height="10.96"/><rect class="cls-34" x="93.3" y="150.5" width="19.83" height="10.96"/><polygon class="cls-34" points="163.6 174.11 169.7 174.11 176.35 163.15 163.6 163.15 163.6 174.11"/><rect class="cls-34" x="138.22" y="150.5" width="21.7" height="10.96"/><polygon class="cls-34" points="163.6 161.46 177.37 161.46 183.43 151.47 183.43 150.5 163.6 150.5 163.6 161.46"/><polygon class="cls-34" points="159.92 175.79 159.92 163.15 138.22 163.15 138.22 175.79 138.22 186.75 159.92 186.75 159.92 175.79"/><polygon class="cls-34" points="163.6 175.79 163.6 184.17 168.68 175.79 163.6 175.79"/><polygon class="cls-34" points="185.01 175.79 185.01 186.75 193.97 186.75 200.62 175.79 185.01 175.79"/><polygon class="cls-34" points="204.84 163.15 192.31 163.15 185.66 174.11 201.64 174.11 204.84 168.83 204.84 163.15"/><polygon class="cls-34" points="183.43 177.79 177.99 186.75 183.43 186.75 183.43 177.79"/><polygon class="cls-34" points="64.24 178.06 64.24 175.79 60.43 175.79 53.78 186.75 58.97 186.75 64.24 178.06"/><polygon class="cls-34" points="44.41 175.79 44.41 186.75 48.6 186.75 55.24 175.79 44.41 175.79"/><rect class="cls-34" x="23" y="175.79" width="19.83" height="10.96"/><polygon class="cls-34" points="42.83 174.11 42.83 163.15 30.42 163.15 23.77 174.11 42.83 174.11"/><polygon class="cls-34" points="204.84 161.46 204.84 150.5 199.97 150.5 193.33 161.46 204.84 161.46"/><polygon class="cls-34" points="64.24 183 61.97 186.75 64.24 186.75 64.24 183"/><rect class="cls-34" x="114.71" y="150.5" width="19.83" height="10.96"/></g><rect class="cls-9" x="23" y="193.24" width="19.83" height="10.96"/><rect class="cls-10" x="23" y="205.88" width="19.83" height="10.96"/><rect class="cls-11" x="23" y="218.53" width="19.83" height="10.96"/><rect class="cls-12" x="44.41" y="193.24" width="19.83" height="10.96"/><rect class="cls-13" x="44.41" y="205.88" width="19.83" height="10.96"/><rect class="cls-14" x="44.41" y="218.53" width="19.83" height="10.96"/><rect class="cls-15" x="67.92" y="193.24" width="21.7" height="10.96"/><rect class="cls-16" x="67.92" y="205.88" width="21.7" height="23.61"/><rect class="cls-17" x="67.92" y="218.53" width="21.7" height="10.96"/><rect class="cls-18" x="93.3" y="193.24" width="19.83" height="10.96"/><rect class="cls-19" x="93.3" y="205.88" width="19.83" height="10.96"/><rect class="cls-20" x="93.3" y="218.53" width="19.83" height="10.96"/><rect class="cls-21" x="114.71" y="193.24" width="19.83" height="10.96"/><rect class="cls-22" x="114.71" y="205.88" width="19.83" height="10.96"/><rect class="cls-23" x="114.71" y="218.53" width="19.83" height="10.96"/><rect class="cls-24" x="138.22" y="193.24" width="21.7" height="10.96"/><rect class="cls-25" x="138.22" y="205.88" width="21.7" height="23.61"/><rect class="cls-26" x="138.22" y="218.53" width="21.7" height="10.96"/><rect class="cls-27" x="163.6" y="193.24" width="19.83" height="10.96"/><rect class="cls-28" x="163.6" y="205.88" width="19.83" height="10.96"/><rect class="cls-29" x="163.6" y="218.53" width="19.83" height="10.96"/><rect class="cls-30" x="185.01" y="193.24" width="19.83" height="10.96"/><rect class="cls-31" x="185.01" y="205.88" width="19.83" height="10.96"/><rect class="cls-32" x="185.01" y="218.53" width="19.83" height="10.96"/><rect class="cls-9" x="23" y="193.24" width="19.83" height="10.96"/><rect class="cls-10" x="23" y="205.88" width="19.83" height="10.96"/><rect class="cls-11" x="23" y="218.53" width="19.83" height="10.96"/><rect class="cls-12" x="44.41" y="193.24" width="19.83" height="10.96"/><rect class="cls-13" x="44.41" y="205.88" width="19.83" height="10.96"/><rect class="cls-14" x="44.41" y="218.53" width="19.83" height="10.96"/><rect class="cls-15" x="67.92" y="193.24" width="21.7" height="10.96"/><rect class="cls-16" x="67.92" y="205.88" width="21.7" height="23.61"/><rect class="cls-17" x="67.92" y="218.53" width="21.7" height="10.96"/><rect class="cls-18" x="93.3" y="193.24" width="19.83" height="10.96"/><rect class="cls-19" x="93.3" y="205.88" width="19.83" height="10.96"/><rect class="cls-20" x="93.3" y="218.53" width="19.83" height="10.96"/><rect class="cls-21" x="114.71" y="193.24" width="19.83" height="10.96"/><rect class="cls-22" x="114.71" y="205.88" width="19.83" height="10.96"/><rect class="cls-23" x="114.71" y="218.53" width="19.83" height="10.96"/><rect class="cls-24" x="138.22" y="193.24" width="21.7" height="10.96"/><rect class="cls-25" x="138.22" y="205.88" width="21.7" height="23.61"/><rect class="cls-26" x="138.22" y="218.53" width="21.7" height="10.96"/><rect class="cls-27" x="163.6" y="193.24" width="19.83" height="10.96"/><rect class="cls-28" x="163.6" y="205.88" width="19.83" height="10.96"/><rect class="cls-29" x="163.6" y="218.53" width="19.83" height="10.96"/><rect class="cls-30" x="185.01" y="193.24" width="19.83" height="10.96"/><rect class="cls-31" x="185.01" y="205.88" width="19.83" height="10.96"/><rect class="cls-32" x="185.01" y="218.53" width="19.83" height="10.96"/><g class="cls-33"><polygon class="cls-34" points="89.62 218.53 89.62 205.88 76.28 205.88 67.92 219.67 67.92 229.49 89.62 229.49 89.62 218.53"/><polygon class="cls-34" points="44.41 216.85 56.27 216.85 62.91 205.88 44.41 205.88 44.41 216.85"/><polygon class="cls-34" points="44.41 204.2 63.93 204.2 64.24 203.69 64.24 193.24 44.41 193.24 44.41 204.2"/><polygon class="cls-34" points="64.24 212.24 61.45 216.85 64.24 216.85 64.24 212.24"/><polygon class="cls-34" points="67.92 197.63 70.58 193.24 67.92 193.24 67.92 197.63"/><polygon class="cls-34" points="68.09 205.88 67.92 206.17 67.92 214.73 73.28 205.88 68.09 205.88"/><polygon class="cls-34" points="69.11 204.2 74.3 204.2 80.95 193.24 75.76 193.24 69.11 204.2"/><rect class="cls-34" x="114.71" y="218.53" width="19.83" height="10.96"/><polygon class="cls-34" points="89.62 204.2 89.62 193.24 83.95 193.24 77.3 204.2 89.62 204.2"/><rect class="cls-34" x="114.71" y="205.88" width="19.83" height="10.96"/><rect class="cls-34" x="93.3" y="205.88" width="19.83" height="10.96"/><polygon class="cls-34" points="42.83 204.2 42.83 193.24 38.09 193.24 31.44 204.2 42.83 204.2"/><rect class="cls-34" x="93.3" y="218.53" width="19.83" height="10.96"/><rect class="cls-34" x="93.3" y="193.24" width="19.83" height="10.96"/><polygon class="cls-34" points="163.6 216.85 169.7 216.85 176.35 205.88 163.6 205.88 163.6 216.85"/><rect class="cls-34" x="138.22" y="193.24" width="21.7" height="10.96"/><polygon class="cls-34" points="163.6 204.2 177.37 204.2 183.43 194.21 183.43 193.24 163.6 193.24 163.6 204.2"/><polygon class="cls-34" points="159.92 218.53 159.92 205.88 138.22 205.88 138.22 218.53 138.22 229.49 159.92 229.49 159.92 218.53"/><polygon class="cls-34" points="163.6 218.53 163.6 226.91 168.68 218.53 163.6 218.53"/><polygon class="cls-34" points="185.01 218.53 185.01 229.49 193.97 229.49 200.62 218.53 185.01 218.53"/><polygon class="cls-34" points="204.84 205.88 192.31 205.88 185.66 216.85 201.64 216.85 204.84 211.57 204.84 205.88"/><polygon class="cls-34" points="183.43 220.53 177.99 229.49 183.43 229.49 183.43 220.53"/><polygon class="cls-34" points="64.24 220.8 64.24 218.53 60.43 218.53 53.78 229.49 58.97 229.49 64.24 220.8"/><polygon class="cls-34" points="44.41 218.53 44.41 229.49 48.6 229.49 55.24 218.53 44.41 218.53"/><rect class="cls-34" x="23" y="218.53" width="19.83" height="10.96"/><polygon class="cls-34" points="42.83 216.85 42.83 205.88 30.42 205.88 23.77 216.85 42.83 216.85"/><polygon class="cls-34" points="204.84 204.2 204.84 193.24 199.97 193.24 193.33 204.2 204.84 204.2"/><polygon class="cls-34" points="64.24 225.74 61.97 229.49 64.24 229.49 64.24 225.74"/><rect class="cls-34" x="114.71" y="193.24" width="19.83" height="10.96"/></g><polygon class="cls-35" points="204.84 144.22 204.84 107.96 207.56 107.96 207.56 101.48 204.84 101.48 204.84 65.22 207.56 65.22 207.56 62.14 20.28 62.14 20.28 65.22 23 65.22 23 101.48 20.28 101.48 20.28 107.96 23 107.96 23 144.22 20.28 144.22 20.28 149.67 207.56 149.67 207.56 144.22 204.84 144.22"/><rect class="cls-9" x="23" y="65.22" width="19.83" height="10.96"/><rect class="cls-10" x="23" y="77.87" width="19.83" height="10.96"/><rect class="cls-11" x="23" y="90.52" width="19.83" height="10.96"/><rect class="cls-12" x="44.41" y="65.22" width="19.83" height="10.96"/><rect class="cls-13" x="44.41" y="77.87" width="19.83" height="10.96"/><rect class="cls-14" x="44.41" y="90.52" width="19.83" height="10.96"/><rect class="cls-15" x="67.92" y="65.22" width="21.7" height="10.96"/><rect class="cls-16" x="67.92" y="77.87" width="21.7" height="23.61"/><rect class="cls-17" x="67.92" y="90.52" width="21.7" height="10.96"/><rect class="cls-18" x="93.3" y="65.22" width="19.83" height="10.96"/><rect class="cls-19" x="93.3" y="77.87" width="19.83" height="10.96"/><rect class="cls-20" x="93.3" y="90.52" width="19.83" height="10.96"/><rect class="cls-21" x="114.71" y="65.22" width="19.83" height="10.96"/><rect class="cls-22" x="114.71" y="77.87" width="19.83" height="10.96"/><rect class="cls-23" x="114.71" y="90.52" width="19.83" height="10.96"/><rect class="cls-24" x="138.22" y="65.22" width="21.7" height="10.96"/><rect class="cls-25" x="138.22" y="77.87" width="21.7" height="23.61"/><rect class="cls-26" x="138.22" y="90.52" width="21.7" height="10.96"/><rect class="cls-27" x="163.6" y="65.22" width="19.83" height="10.96"/><rect class="cls-28" x="163.6" y="77.87" width="19.83" height="10.96"/><rect class="cls-29" x="163.6" y="90.52" width="19.83" height="10.96"/><rect class="cls-30" x="185.01" y="65.22" width="19.83" height="10.96"/><rect class="cls-31" x="185.01" y="77.87" width="19.83" height="10.96"/><rect class="cls-32" x="185.01" y="90.52" width="19.83" height="10.96"/><rect class="cls-9" x="23" y="65.22" width="19.83" height="10.96"/><rect class="cls-10" x="23" y="77.87" width="19.83" height="10.96"/><rect class="cls-11" x="23" y="90.52" width="19.83" height="10.96"/><rect class="cls-12" x="44.41" y="65.22" width="19.83" height="10.96"/><rect class="cls-13" x="44.41" y="77.87" width="19.83" height="10.96"/><rect class="cls-14" x="44.41" y="90.52" width="19.83" height="10.96"/><rect class="cls-15" x="67.92" y="65.22" width="21.7" height="10.96"/><rect class="cls-16" x="67.92" y="77.87" width="21.7" height="23.61"/><rect class="cls-17" x="67.92" y="90.52" width="21.7" height="10.96"/><rect class="cls-18" x="93.3" y="65.22" width="19.83" height="10.96"/><rect class="cls-19" x="93.3" y="77.87" width="19.83" height="10.96"/><rect class="cls-20" x="93.3" y="90.52" width="19.83" height="10.96"/><rect class="cls-21" x="114.71" y="65.22" width="19.83" height="10.96"/><rect class="cls-22" x="114.71" y="77.87" width="19.83" height="10.96"/><rect class="cls-23" x="114.71" y="90.52" width="19.83" height="10.96"/><rect class="cls-24" x="138.22" y="65.22" width="21.7" height="10.96"/><rect class="cls-25" x="138.22" y="77.87" width="21.7" height="23.61"/><rect class="cls-26" x="138.22" y="90.52" width="21.7" height="10.96"/><rect class="cls-27" x="163.6" y="65.22" width="19.83" height="10.96"/><rect class="cls-28" x="163.6" y="77.87" width="19.83" height="10.96"/><rect class="cls-29" x="163.6" y="90.52" width="19.83" height="10.96"/><rect class="cls-30" x="185.01" y="65.22" width="19.83" height="10.96"/><rect class="cls-31" x="185.01" y="77.87" width="19.83" height="10.96"/><rect class="cls-32" x="185.01" y="90.52" width="19.83" height="10.96"/><g class="cls-33"><polygon class="cls-34" points="89.62 90.52 89.62 77.87 76.28 77.87 67.92 91.66 67.92 101.48 89.62 101.48 89.62 90.52"/><polygon class="cls-34" points="44.41 88.83 56.27 88.83 62.91 77.87 44.41 77.87 44.41 88.83"/><polygon class="cls-34" points="44.41 76.19 63.93 76.19 64.24 75.68 64.24 65.22 44.41 65.22 44.41 76.19"/><polygon class="cls-34" points="64.24 84.22 61.45 88.83 64.24 88.83 64.24 84.22"/><polygon class="cls-34" points="67.92 69.61 70.58 65.22 67.92 65.22 67.92 69.61"/><polygon class="cls-34" points="68.09 77.87 67.92 78.16 67.92 86.72 73.28 77.87 68.09 77.87"/><polygon class="cls-34" points="69.11 76.19 74.3 76.19 80.95 65.22 75.76 65.22 69.11 76.19"/><rect class="cls-34" x="114.71" y="90.52" width="19.83" height="10.96"/><polygon class="cls-34" points="89.62 76.19 89.62 65.22 83.95 65.22 77.3 76.19 89.62 76.19"/><rect class="cls-34" x="114.71" y="77.87" width="19.83" height="10.96"/><rect class="cls-34" x="93.3" y="77.87" width="19.83" height="10.96"/><polygon class="cls-34" points="42.83 76.19 42.83 65.22 38.09 65.22 31.44 76.19 42.83 76.19"/><rect class="cls-34" x="93.3" y="90.52" width="19.83" height="10.96"/><rect class="cls-34" x="93.3" y="65.22" width="19.83" height="10.96"/><polygon class="cls-34" points="163.6 88.83 169.7 88.83 176.35 77.87 163.6 77.87 163.6 88.83"/><rect class="cls-34" x="138.22" y="65.22" width="21.7" height="10.96"/><polygon class="cls-34" points="163.6 76.19 177.37 76.19 183.43 66.19 183.43 65.22 163.6 65.22 163.6 76.19"/><polygon class="cls-34" points="159.92 90.52 159.92 77.87 138.22 77.87 138.22 90.52 138.22 101.48 159.92 101.48 159.92 90.52"/><polygon class="cls-34" points="163.6 90.52 163.6 98.9 168.68 90.52 163.6 90.52"/><polygon class="cls-34" points="185.01 90.52 185.01 101.48 193.97 101.48 200.62 90.52 185.01 90.52"/><polygon class="cls-34" points="204.84 77.87 192.31 77.87 185.66 88.83 201.64 88.83 204.84 83.56 204.84 77.87"/><polygon class="cls-34" points="183.43 92.51 177.99 101.48 183.43 101.48 183.43 92.51"/><polygon class="cls-34" points="64.24 92.78 64.24 90.52 60.43 90.52 53.78 101.48 58.97 101.48 64.24 92.78"/><polygon class="cls-34" points="44.41 90.52 44.41 101.48 48.6 101.48 55.24 90.52 44.41 90.52"/><rect class="cls-34" x="23" y="90.52" width="19.83" height="10.96"/><polygon class="cls-34" points="42.83 88.83 42.83 77.87 30.42 77.87 23.77 88.83 42.83 88.83"/><polygon class="cls-34" points="204.84 76.19 204.84 65.22 199.97 65.22 193.33 76.19 204.84 76.19"/><polygon class="cls-34" points="64.24 97.73 61.97 101.48 64.24 101.48 64.24 97.73"/><rect class="cls-34" x="114.71" y="65.22" width="19.83" height="10.96"/></g><rect class="cls-9" x="23" y="107.96" width="19.83" height="10.96"/><rect class="cls-10" x="23" y="120.61" width="19.83" height="10.96"/><rect class="cls-11" x="23" y="133.25" width="19.83" height="10.96"/><rect class="cls-12" x="44.41" y="107.96" width="19.83" height="10.96"/><rect class="cls-13" x="44.41" y="120.61" width="19.83" height="10.96"/><rect class="cls-14" x="44.41" y="133.25" width="19.83" height="10.96"/><rect class="cls-15" x="67.92" y="107.96" width="21.7" height="10.96"/><rect class="cls-16" x="67.92" y="120.61" width="21.7" height="23.61"/><rect class="cls-17" x="67.92" y="133.25" width="21.7" height="10.96"/><rect class="cls-18" x="93.3" y="107.96" width="19.83" height="10.96"/><rect class="cls-19" x="93.3" y="120.61" width="19.83" height="10.96"/><rect class="cls-20" x="93.3" y="133.25" width="19.83" height="10.96"/><rect class="cls-21" x="114.71" y="107.96" width="19.83" height="10.96"/><rect class="cls-22" x="114.71" y="120.61" width="19.83" height="10.96"/><rect class="cls-23" x="114.71" y="133.25" width="19.83" height="10.96"/><rect class="cls-24" x="138.22" y="107.96" width="21.7" height="10.96"/><rect class="cls-25" x="138.22" y="120.61" width="21.7" height="23.61"/><rect class="cls-26" x="138.22" y="133.25" width="21.7" height="10.96"/><rect class="cls-27" x="163.6" y="107.96" width="19.83" height="10.96"/><rect class="cls-28" x="163.6" y="120.61" width="19.83" height="10.96"/><rect class="cls-29" x="163.6" y="133.25" width="19.83" height="10.96"/><rect class="cls-30" x="185.01" y="107.96" width="19.83" height="10.96"/><rect class="cls-31" x="185.01" y="120.61" width="19.83" height="10.96"/><rect class="cls-32" x="185.01" y="133.25" width="19.83" height="10.96"/><rect class="cls-9" x="23" y="107.96" width="19.83" height="10.96"/><rect class="cls-10" x="23" y="120.61" width="19.83" height="10.96"/><rect class="cls-11" x="23" y="133.25" width="19.83" height="10.96"/><rect class="cls-12" x="44.41" y="107.96" width="19.83" height="10.96"/><rect class="cls-13" x="44.41" y="120.61" width="19.83" height="10.96"/><rect class="cls-14" x="44.41" y="133.25" width="19.83" height="10.96"/><rect class="cls-15" x="67.92" y="107.96" width="21.7" height="10.96"/><rect class="cls-16" x="67.92" y="120.61" width="21.7" height="23.61"/><rect class="cls-17" x="67.92" y="133.25" width="21.7" height="10.96"/><rect class="cls-18" x="93.3" y="107.96" width="19.83" height="10.96"/><rect class="cls-19" x="93.3" y="120.61" width="19.83" height="10.96"/><rect class="cls-20" x="93.3" y="133.25" width="19.83" height="10.96"/><rect class="cls-21" x="114.71" y="107.96" width="19.83" height="10.96"/><rect class="cls-22" x="114.71" y="120.61" width="19.83" height="10.96"/><rect class="cls-23" x="114.71" y="133.25" width="19.83" height="10.96"/><rect class="cls-24" x="138.22" y="107.96" width="21.7" height="10.96"/><rect class="cls-25" x="138.22" y="120.61" width="21.7" height="23.61"/><rect class="cls-26" x="138.22" y="133.25" width="21.7" height="10.96"/><rect class="cls-27" x="163.6" y="107.96" width="19.83" height="10.96"/><rect class="cls-28" x="163.6" y="120.61" width="19.83" height="10.96"/><rect class="cls-29" x="163.6" y="133.25" width="19.83" height="10.96"/><rect class="cls-30" x="185.01" y="107.96" width="19.83" height="10.96"/><rect class="cls-31" x="185.01" y="120.61" width="19.83" height="10.96"/><rect class="cls-32" x="185.01" y="133.25" width="19.83" height="10.96"/><g class="cls-33"><polygon class="cls-34" points="89.62 133.25 89.62 120.61 76.28 120.61 67.92 134.4 67.92 144.22 89.62 144.22 89.62 133.25"/><polygon class="cls-34" points="44.41 131.57 56.27 131.57 62.91 120.61 44.41 120.61 44.41 131.57"/><polygon class="cls-34" points="44.41 118.92 63.93 118.92 64.24 118.42 64.24 107.96 44.41 107.96 44.41 118.92"/><polygon class="cls-34" points="64.24 126.96 61.45 131.57 64.24 131.57 64.24 126.96"/><polygon class="cls-34" points="67.92 112.35 70.58 107.96 67.92 107.96 67.92 112.35"/><polygon class="cls-34" points="68.09 120.61 67.92 120.89 67.92 129.45 73.28 120.61 68.09 120.61"/><polygon class="cls-34" points="69.11 118.92 74.3 118.92 80.95 107.96 75.76 107.96 69.11 118.92"/><rect class="cls-34" x="114.71" y="133.25" width="19.83" height="10.96"/><polygon class="cls-34" points="89.62 118.92 89.62 107.96 83.95 107.96 77.3 118.92 89.62 118.92"/><rect class="cls-34" x="114.71" y="120.61" width="19.83" height="10.96"/><rect class="cls-34" x="93.3" y="120.61" width="19.83" height="10.96"/><polygon class="cls-34" points="42.83 118.92 42.83 107.96 38.09 107.96 31.44 118.92 42.83 118.92"/><rect class="cls-34" x="93.3" y="133.25" width="19.83" height="10.96"/><rect class="cls-34" x="93.3" y="107.96" width="19.83" height="10.96"/><polygon class="cls-34" points="163.6 131.57 169.7 131.57 176.35 120.61 163.6 120.61 163.6 131.57"/><rect class="cls-34" x="138.22" y="107.96" width="21.7" height="10.96"/><polygon class="cls-34" points="163.6 118.92 177.37 118.92 183.43 108.93 183.43 107.96 163.6 107.96 163.6 118.92"/><polygon class="cls-34" points="159.92 133.25 159.92 120.61 138.22 120.61 138.22 133.25 138.22 144.22 159.92 144.22 159.92 133.25"/><polygon class="cls-34" points="163.6 133.25 163.6 141.63 168.68 133.25 163.6 133.25"/><polygon class="cls-34" points="185.01 133.25 185.01 144.22 193.97 144.22 200.62 133.25 185.01 133.25"/><polygon class="cls-34" points="204.84 120.61 192.31 120.61 185.66 131.57 201.64 131.57 204.84 126.29 204.84 120.61"/><polygon class="cls-34" points="183.43 135.25 177.99 144.22 183.43 144.22 183.43 135.25"/><polygon class="cls-34" points="64.24 135.52 64.24 133.25 60.43 133.25 53.78 144.22 58.97 144.22 64.24 135.52"/><polygon class="cls-34" points="44.41 133.25 44.41 144.22 48.6 144.22 55.24 133.25 44.41 133.25"/><rect class="cls-34" x="23" y="133.25" width="19.83" height="10.96"/><polygon class="cls-34" points="42.83 131.57 42.83 120.61 30.42 120.61 23.77 131.57 42.83 131.57"/><polygon class="cls-34" points="204.84 118.92 204.84 107.96 199.97 107.96 193.33 118.92 204.84 118.92"/><polygon class="cls-34" points="64.24 140.47 61.97 144.22 64.24 144.22 64.24 140.47"/><rect class="cls-34" x="114.71" y="107.96" width="19.83" height="10.96"/></g><rect class="cls-36" x="20.28" y="62.14" width="187.28" height="3.08"/><rect class="cls-36" x="23" y="65.22" width="181.84" height="3.72"/><rect class="cls-36" x="23" y="107.96" width="181.84" height="3.72"/><rect class="cls-35" x="20.28" y="24.11" width="187.28" height="27.07"/><rect class="cls-37" x="14.11" y="51.18" width="199.62" height="10.96"/><rect class="cls-4" x="12.54" y="55.4" width="202.76" height="2.51"/><rect class="cls-8" x="198.44" y="40.58" width="5.97" height="8.22"/><rect class="cls-8" x="190.46" y="40.58" width="5.97" height="8.22"/><rect class="cls-8" x="182.47" y="40.58" width="5.97" height="8.22"/><rect class="cls-8" x="40.64" y="27.86" width="15.19" height="20.94"/><rect class="cls-8" x="138.65" y="27.86" width="5.51" height="7.6"/><polygon class="cls-36" points="107.63 149.67 93.42 163.88 93.3 150.5 23 220.81 23 229.5 20.27 229.5 20.27 232.06 18.4 232.06 18.4 240.47 18.4 244.74 105.3 244.74 138.22 244.74 141.4 121.85 136.63 120.67 107.63 149.67"/><rect class="cls-36" x="23" y="150.5" width="181.84" height="3.72"/><rect class="cls-36" x="23" y="193.24" width="181.84" height="3.72"/><rect class="cls-38" x="138.22" y="120.57" width="89.08" height="29.93"/><rect class="cls-36" x="138.22" y="122.46" width="89.08" height="2.56"/><rect class="cls-36" x="138.22" y="143.55" width="89.08" height="2.56"/><rect class="cls-37" x="136.63" y="120.57" width="92.25" height="2.56"/><rect class="cls-37" x="136.63" y="141.66" width="92.25" height="2.56"/><rect class="cls-38" x="93.3" y="150.5" width="133.99" height="94.24"/><path class="cls-39" d="M234,163.82V162H100v1.86h11.06v9.1H100v1.86h11.06v9.1H100v1.86h11.06v9.1H100v1.86h11.06v9.1H100v1.87h11.06v9.1H100v1.86h11.06v9.1H100v1.86h11.06v9.1H100v1.86H234v-1.86H223v-9.1H234v-1.86H223v-9.1H234v-1.86H223v-9.1H234V205.8H223v-9.1H234v-1.86H223v-9.1H234v-1.86H223v-9.1H234v-1.86H223v-9.1ZM167.75,196.7h9.1v9.1h-9.1Zm-1.86,9.1h-9.1v-9.1h9.1Zm1.86-11v-9.1h9.1v9.1Zm-1.86,0h-9.1v-9.1h9.1Zm-11,0h-9.11v-9.1h9.11Zm0,1.86v9.1h-9.11v-9.1Zm0,11v9.1h-9.11v-9.1Zm1.86,0h9.1v9.1h-9.1Zm11,0h9.1v9.1h-9.1Zm11,0h9.1v9.1h-9.1Zm0-1.87v-9.1h9.1v9.1Zm0-11v-9.1h9.1v9.1Zm0-11v-9.1h9.1v9.1Zm-1.86,0h-9.1v-9.1h9.1Zm-11,0h-9.1v-9.1h9.1Zm-11,0h-9.11v-9.1h9.11Zm-11,0h-9.1v-9.1H144Zm0,1.86v9.1h-9.1v-9.1Zm0,11v9.1h-9.1v-9.1Zm0,11v9.1h-9.1v-9.1Zm0,11v9.1h-9.1v-9.1Zm1.86,0h9.11v9.1h-9.11Zm11,0h9.1v9.1h-9.1Zm11,0h9.1v9.1h-9.1Zm11,0h9.1v9.1h-9.1Zm11,0h9.51v9.1h-9.51Zm0-1.86v-9.1h9.51v9.1Zm0-11v-9.1h9.51v9.1Zm0-11v-9.1h9.51v9.1Zm0-11v-9.1h9.51v9.1Zm0-11v-9.1h9.51v9.1Zm-1.86,0h-9.1v-9.1h9.1Zm-11,0h-9.1v-9.1h9.1Zm-11,0h-9.1v-9.1h9.1Zm-11,0h-9.11v-9.1h9.11Zm-11,0h-9.1v-9.1H144Zm-11,0h-9.1v-9.1H133Zm0,1.86v9.1h-9.1v-9.1Zm0,11v9.1h-9.1v-9.1Zm0,11v9.1h-9.1v-9.1Zm0,11v9.1h-9.1v-9.1Zm0,11v9.1h-9.1v-9.1Zm0,11v9.1h-9.1v-9.1Zm1.86,0H144v9.1h-9.1Zm11,0h9.11v9.1h-9.11Zm11,0h9.1v9.1h-9.1Zm11,0h9.1v9.1h-9.1Zm11,0h9.1v9.1h-9.1Zm11,0h9.51v9.1h-9.51Zm11.37,0h9.1v9.1H201Zm0-1.86v-9.1h9.1v9.1Zm0-11v-9.1h9.1v9.1Zm0-11v-9.1h9.1v9.1Zm0-11v-9.1h9.1v9.1Zm0-11v-9.1h9.1v9.1Zm0-11v-9.1h9.1v9.1Zm-88.1-9.1H122v9.1h-9.1Zm0,11H122v9.1h-9.1Zm0,11H122v9.1h-9.1Zm0,11H122v9.1h-9.1Zm0,11H122v9.1h-9.1Zm0,11H122v9.1h-9.1Zm0,11H122v9.1h-9.1Zm108.16,9.1H212v-9.1h9.1Zm0-11H212v-9.1h9.1Zm0-11H212v-9.1h9.1Zm0-11H212v-9.1h9.1Zm0-11H212v-9.1h9.1Zm0-11H212v-9.1h9.1Zm0-11H212v-9.1h9.1Z" transform="translate(-6.72 -11.46)"/><polygon class="cls-36" points="124.95 244.74 93.3 244.74 93.3 206.73 113.27 186.76 120.93 191.6 124.95 244.74"/><g class="cls-40"><path class="cls-41" d="M151.66,139.55v5H157v-5h2.31v12.62H157v-5.56h-5.33v5.56h-2.31V139.55Z" transform="translate(-6.72 -11.46)"/><path class="cls-41" d="M173.13,145.73c0,4.23-2.56,6.64-6,6.64s-5.8-2.71-5.8-6.42c0-3.87,2.43-6.61,6-6.61S173.13,142.13,173.13,145.73Zm-9.42.18c0,2.57,1.29,4.61,3.5,4.61s3.49-2.06,3.49-4.7c0-2.38-1.18-4.62-3.49-4.62S163.71,143.31,163.71,145.91Z" transform="translate(-6.72 -11.46)"/><path class="cls-41" d="M175.06,149.66a6.38,6.38,0,0,0,3.05.8c1.48,0,2.3-.69,2.3-1.72s-.63-1.52-2.24-2.1c-2.08-.74-3.41-1.85-3.41-3.66,0-2.06,1.72-3.64,4.45-3.64a6.66,6.66,0,0,1,3,.64l-.56,1.85a5.39,5.39,0,0,0-2.51-.6c-1.46,0-2.1.79-2.1,1.52,0,1,.73,1.42,2.42,2.08,2.19.82,3.25,1.93,3.25,3.74,0,2-1.53,3.79-4.79,3.79a7.55,7.55,0,0,1-3.41-.79Z" transform="translate(-6.72 -11.46)"/><path class="cls-41" d="M184.83,139.72a19.8,19.8,0,0,1,3.52-.27,5.75,5.75,0,0,1,3.73,1,3.56,3.56,0,0,1,1.23,2.79,3.83,3.83,0,0,1-1.08,2.87,5.56,5.56,0,0,1-4,1.35,6.05,6.05,0,0,1-1.12-.08v4.76h-2.29Zm2.29,5.88a4.89,4.89,0,0,0,1.12.09c1.72,0,2.77-.84,2.77-2.32s-1-2.16-2.57-2.16a5.89,5.89,0,0,0-1.32.12Z" transform="translate(-6.72 -11.46)"/><path class="cls-41" d="M197.6,139.55v12.62h-2.3V139.55Z" transform="translate(-6.72 -11.46)"/><path class="cls-41" d="M202.65,141.48h-3.59v-1.93h9.53v1.93H205v10.69h-2.31Z" transform="translate(-6.72 -11.46)"/><path class="cls-41" d="M211.23,148.59l-1.09,3.58h-2.37l4-12.62h2.94l4.1,12.62h-2.47l-1.14-3.58Zm3.61-1.74-1-3.11c-.24-.76-.45-1.63-.64-2.36h0c-.19.73-.38,1.61-.6,2.36l-1,3.11Z" transform="translate(-6.72 -11.46)"/><path class="cls-41" d="M220.61,139.55h2.3v10.69h5.19v1.93h-7.49Z" transform="translate(-6.72 -11.46)"/></g><path class="cls-37" d="M153.27,137.93V143h5.34v-5.06h2.3v12.62h-2.3V145h-5.34v5.56H151V137.93Z" transform="translate(-6.72 -11.46)"/><path class="cls-37" d="M174.75,144.11c0,4.23-2.57,6.65-6.05,6.65s-5.81-2.72-5.81-6.42c0-3.88,2.44-6.61,6-6.61S174.75,140.52,174.75,144.11Zm-9.42.19c0,2.56,1.29,4.61,3.5,4.61s3.48-2.06,3.48-4.7c0-2.38-1.18-4.63-3.48-4.63S165.33,141.7,165.33,144.3Z" transform="translate(-6.72 -11.46)"/><path class="cls-37" d="M176.67,148a6.3,6.3,0,0,0,3.05.81c1.48,0,2.31-.69,2.31-1.72s-.64-1.52-2.25-2.1c-2.08-.75-3.41-1.85-3.41-3.67,0-2.06,1.73-3.63,4.46-3.63a6.73,6.73,0,0,1,3,.63l-.56,1.86a5.27,5.27,0,0,0-2.51-.6c-1.46,0-2.09.79-2.09,1.52,0,1,.73,1.42,2.41,2.07,2.19.83,3.26,1.93,3.26,3.75,0,2-1.54,3.78-4.79,3.78a7.39,7.39,0,0,1-3.41-.79Z" transform="translate(-6.72 -11.46)"/><path class="cls-37" d="M186.45,138.1a19.9,19.9,0,0,1,3.52-.26,5.72,5.72,0,0,1,3.72,1,3.57,3.57,0,0,1,1.24,2.79,3.81,3.81,0,0,1-1.09,2.86,5.56,5.56,0,0,1-4,1.35,7.2,7.2,0,0,1-1.12-.07v4.75h-2.28Zm2.28,5.88a4.43,4.43,0,0,0,1.12.09c1.73,0,2.77-.84,2.77-2.32s-1-2.15-2.56-2.15a6.83,6.83,0,0,0-1.33.11Z" transform="translate(-6.72 -11.46)"/><path class="cls-37" d="M199.21,137.93v12.62h-2.3V137.93Z" transform="translate(-6.72 -11.46)"/><path class="cls-37" d="M204.27,139.86h-3.6v-1.93h9.53v1.93h-3.63v10.69h-2.3Z" transform="translate(-6.72 -11.46)"/><path class="cls-37" d="M212.84,147l-1.08,3.57h-2.38l4-12.62h2.94l4.1,12.62H218L216.85,147Zm3.62-1.74-1-3.11c-.25-.77-.45-1.63-.64-2.36h0c-.19.73-.37,1.61-.6,2.36l-1,3.11Z" transform="translate(-6.72 -11.46)"/><path class="cls-37" d="M222.22,137.93h2.3v10.7h5.19v1.92h-7.49Z" transform="translate(-6.72 -11.46)"/><rect class="cls-8" x="115.37" y="227.41" width="160.68" height="17.32"/><rect class="cls-7" x="117.75" y="193.98" width="155.92" height="33.43"/><rect class="cls-37" x="113.28" y="186.76" width="164.87" height="7.23"/><rect class="cls-9" x="120.29" y="195.45" width="16.45" height="9.09"/><rect class="cls-10" x="120.29" y="205.94" width="16.45" height="9.09"/><rect class="cls-11" x="120.29" y="216.44" width="16.45" height="9.09"/><rect class="cls-12" x="138.05" y="195.45" width="16.45" height="9.09"/><rect class="cls-13" x="138.05" y="205.94" width="16.45" height="9.09"/><rect class="cls-14" x="138.05" y="216.44" width="16.45" height="9.09"/><rect class="cls-15" x="157.55" y="195.45" width="18" height="9.09"/><rect class="cls-16" x="157.55" y="205.94" width="18" height="19.58"/><rect class="cls-17" x="157.55" y="216.44" width="18" height="9.09"/><rect class="cls-18" x="178.61" y="195.45" width="16.45" height="9.09"/><rect class="cls-19" x="178.61" y="205.94" width="16.45" height="9.09"/><rect class="cls-20" x="178.61" y="216.44" width="16.45" height="9.09"/><rect class="cls-21" x="196.37" y="195.45" width="16.45" height="9.09"/><rect class="cls-22" x="196.37" y="205.94" width="16.45" height="9.09"/><rect class="cls-23" x="196.37" y="216.44" width="16.45" height="9.09"/><rect class="cls-24" x="215.87" y="195.45" width="18" height="9.09"/><rect class="cls-25" x="215.87" y="205.94" width="18" height="19.58"/><rect class="cls-26" x="215.87" y="216.44" width="18" height="9.09"/><rect class="cls-27" x="236.92" y="195.45" width="16.45" height="9.09"/><rect class="cls-28" x="236.92" y="205.94" width="16.45" height="9.09"/><rect class="cls-29" x="236.92" y="216.44" width="16.45" height="9.09"/><rect class="cls-30" x="254.69" y="195.45" width="16.45" height="9.09"/><rect class="cls-31" x="254.69" y="205.94" width="16.45" height="9.09"/><rect class="cls-32" x="254.69" y="216.44" width="16.45" height="9.09"/><rect class="cls-9" x="120.29" y="195.45" width="16.45" height="9.09"/><rect class="cls-10" x="120.29" y="205.94" width="16.45" height="9.09"/><rect class="cls-11" x="120.29" y="216.44" width="16.45" height="9.09"/><rect class="cls-12" x="138.05" y="195.45" width="16.45" height="9.09"/><rect class="cls-13" x="138.05" y="205.94" width="16.45" height="9.09"/><rect class="cls-14" x="138.05" y="216.44" width="16.45" height="9.09"/><rect class="cls-15" x="157.55" y="195.45" width="18" height="9.09"/><rect class="cls-16" x="157.55" y="205.94" width="18" height="19.58"/><rect class="cls-17" x="157.55" y="216.44" width="18" height="9.09"/><rect class="cls-18" x="178.61" y="195.45" width="16.45" height="9.09"/><rect class="cls-19" x="178.61" y="205.94" width="16.45" height="9.09"/><rect class="cls-20" x="178.61" y="216.44" width="16.45" height="9.09"/><rect class="cls-21" x="196.37" y="195.45" width="16.45" height="9.09"/><rect class="cls-22" x="196.37" y="205.94" width="16.45" height="9.09"/><rect class="cls-23" x="196.37" y="216.44" width="16.45" height="9.09"/><rect class="cls-24" x="215.87" y="195.45" width="18" height="9.09"/><rect class="cls-25" x="215.87" y="205.94" width="18" height="19.58"/><rect class="cls-26" x="215.87" y="216.44" width="18" height="9.09"/><rect class="cls-27" x="236.92" y="195.45" width="16.45" height="9.09"/><rect class="cls-28" x="236.92" y="205.94" width="16.45" height="9.09"/><rect class="cls-29" x="236.92" y="216.44" width="16.45" height="9.09"/><rect class="cls-30" x="254.69" y="195.45" width="16.45" height="9.09"/><rect class="cls-31" x="254.69" y="205.94" width="16.45" height="9.09"/><rect class="cls-32" x="254.69" y="216.44" width="16.45" height="9.09"/><g class="cls-33"><polygon class="cls-34" points="175.56 216.44 175.56 205.94 164.49 205.94 157.55 217.38 157.55 225.53 175.56 225.53 175.56 216.44"/><polygon class="cls-34" points="138.05 215.04 147.89 215.04 153.4 205.94 138.05 205.94 138.05 215.04"/><polygon class="cls-34" points="138.05 204.55 154.25 204.55 154.5 204.13 154.5 195.45 138.05 195.45 138.05 204.55"/><polygon class="cls-34" points="154.5 211.22 152.18 215.04 154.5 215.04 154.5 211.22"/><polygon class="cls-34" points="157.55 199.09 159.76 195.45 157.55 195.45 157.55 199.09"/><polygon class="cls-34" points="157.7 205.94 157.55 206.18 157.55 213.28 162 205.94 157.7 205.94"/><polygon class="cls-34" points="158.54 204.55 162.85 204.55 168.36 195.45 164.06 195.45 158.54 204.55"/><rect class="cls-34" x="196.37" y="216.44" width="16.45" height="9.09"/><polygon class="cls-34" points="175.56 204.55 175.56 195.45 170.85 195.45 165.34 204.55 175.56 204.55"/><rect class="cls-34" x="196.37" y="205.94" width="16.45" height="9.09"/><rect class="cls-34" x="178.61" y="205.94" width="16.45" height="9.09"/><polygon class="cls-34" points="136.74 204.55 136.74 195.45 132.81 195.45 127.29 204.55 136.74 204.55"/><rect class="cls-34" x="178.61" y="216.44" width="16.45" height="9.09"/><rect class="cls-34" x="178.61" y="195.45" width="16.45" height="9.09"/><polygon class="cls-34" points="236.92 215.04 241.99 215.04 247.5 205.94 236.92 205.94 236.92 215.04"/><rect class="cls-34" x="215.87" y="195.45" width="18" height="9.09"/><polygon class="cls-34" points="236.92 204.55 248.35 204.55 253.37 196.26 253.37 195.45 236.92 195.45 236.92 204.55"/><polygon class="cls-34" points="233.87 216.44 233.87 205.94 215.87 205.94 215.87 216.44 215.87 225.53 233.87 225.53 233.87 216.44"/><polygon class="cls-34" points="236.92 216.44 236.92 223.39 241.14 216.44 236.92 216.44"/><polygon class="cls-34" points="254.69 216.44 254.69 225.53 262.12 225.53 267.63 216.44 254.69 216.44"/><polygon class="cls-34" points="271.13 205.94 260.74 205.94 255.22 215.04 268.48 215.04 271.13 210.66 271.13 205.94"/><polygon class="cls-34" points="253.37 218.09 248.86 225.53 253.37 225.53 253.37 218.09"/><polygon class="cls-34" points="154.5 218.32 154.5 216.44 151.34 216.44 145.82 225.53 150.13 225.53 154.5 218.32"/><polygon class="cls-34" points="138.05 216.44 138.05 225.53 141.53 225.53 147.04 216.44 138.05 216.44"/><rect class="cls-34" x="120.29" y="216.44" width="16.45" height="9.09"/><polygon class="cls-34" points="136.74 215.04 136.74 205.94 126.45 205.94 120.93 215.04 136.74 215.04"/><polygon class="cls-34" points="271.13 204.55 271.13 195.45 267.1 195.45 261.58 204.55 271.13 204.55"/><polygon class="cls-34" points="154.5 222.42 152.62 225.53 154.5 225.53 154.5 222.42"/><rect class="cls-34" x="196.37" y="195.45" width="16.45" height="9.09"/></g><rect class="cls-36" x="117.75" y="193.98" width="155.92" height="5.11"/><rect class="cls-4" x="113.72" y="227.41" width="163.98" height="4.45"/><rect class="cls-42" x="117.75" y="180.66" width="2.54" height="6.09"/><rect class="cls-42" x="136.92" y="180.66" width="2.54" height="6.09"/><rect class="cls-42" x="156.1" y="180.66" width="2.54" height="6.09"/><rect class="cls-42" x="175.27" y="180.66" width="2.54" height="6.09"/><rect class="cls-42" x="194.44" y="180.66" width="2.54" height="6.09"/><rect class="cls-42" x="213.61" y="180.66" width="2.54" height="6.09"/><rect class="cls-42" x="232.79" y="180.66" width="2.54" height="6.09"/><rect class="cls-42" x="251.96" y="180.66" width="2.54" height="6.09"/><rect class="cls-42" x="271.13" y="180.66" width="2.54" height="6.09"/><rect class="cls-8" x="113.28" y="178.27" width="164.87" height="2.75" rx="0.85"/><rect class="cls-42" x="35.96" y="18.02" width="2.54" height="6.09"/><rect class="cls-42" x="55.13" y="18.02" width="2.54" height="6.09"/><rect class="cls-42" x="74.3" y="18.02" width="2.54" height="6.09"/><rect class="cls-42" x="93.48" y="18.02" width="2.54" height="6.09"/><rect class="cls-42" x="112.65" y="18.02" width="2.54" height="6.09"/><rect class="cls-42" x="131.82" y="18.02" width="2.54" height="6.09"/><rect class="cls-42" x="151" y="18.02" width="2.54" height="6.09"/><rect class="cls-42" x="170.17" y="18.02" width="2.54" height="6.09"/><rect class="cls-42" x="189.34" y="18.02" width="2.54" height="6.09"/><rect class="cls-8" x="31.48" y="15.63" width="164.87" height="2.75" rx="0.85"/><rect class="cls-43" x="36.1" y="7.8" width="2.26" height="8.36"/><path class="cls-4" d="M47,17.89a3,3,0,1,1-3-3A3,3,0,0,1,47,17.89Z" transform="translate(-6.72 -11.46)"/><path class="cls-4" d="M44.12,24.32,44,21.5a2.94,2.94,0,0,0,.51-.05L45,24.22C44.72,24.27,44.42,24.3,44.12,24.32Zm-3.46-.86a5.15,5.15,0,0,1-.75-.5l1.73-2.22a3.83,3.83,0,0,0,.42.28Zm7.56-.81-1.89-2.09a3.15,3.15,0,0,0,.36-.37L48.85,22A7.76,7.76,0,0,1,48.22,22.65ZM37.8,20.09a6.5,6.5,0,0,1-.25-.86l2.75-.61a3.5,3.5,0,0,0,.14.49Zm12.49-1.35-2.79-.39a2.85,2.85,0,0,0,0-.51l2.81-.08v.11A6.58,6.58,0,0,1,50.29,18.74Zm-9.86-2.13-2.65-.94a5.62,5.62,0,0,1,.36-.83l2.49,1.31A3.76,3.76,0,0,0,40.43,16.61ZM47,15.87c-.1-.14-.2-.28-.31-.41l2.14-1.83a7.4,7.4,0,0,1,.53.72ZM42,14.69,40.6,12.26a6.63,6.63,0,0,1,.8-.4l1.08,2.6A2.38,2.38,0,0,0,42,14.69ZM45,14.35a4.05,4.05,0,0,0-.5-.12l.46-2.77a5.48,5.48,0,0,1,.89.21Z" transform="translate(-6.72 -11.46)"/><rect class="cls-43" x="189.48" y="7.8" width="2.26" height="8.36"/><path class="cls-4" d="M200.36,17.89a3,3,0,1,1-3-3A3,3,0,0,1,200.36,17.89Z" transform="translate(-6.72 -11.46)"/><path class="cls-4" d="M197.51,24.32l-.11-2.82a2.94,2.94,0,0,0,.51-.05l.49,2.77C198.11,24.27,197.8,24.3,197.51,24.32ZM194,23.46a4.58,4.58,0,0,1-.74-.5L195,20.74a3.83,3.83,0,0,0,.42.28Zm7.56-.81-1.89-2.09a3.15,3.15,0,0,0,.36-.37L202.23,22A5.52,5.52,0,0,1,201.6,22.65Zm-10.41-2.56a6.54,6.54,0,0,1-.26-.86l2.75-.61a3.51,3.51,0,0,0,.15.49Zm12.49-1.35-2.79-.39a4.24,4.24,0,0,0,0-.51l2.82-.08v.11A6.58,6.58,0,0,1,203.68,18.74Zm-9.87-2.13-2.65-.94a5.62,5.62,0,0,1,.36-.83l2.5,1.31A3.82,3.82,0,0,0,193.81,16.61Zm6.54-.74a4,4,0,0,0-.31-.41l2.14-1.83q.28.34.54.72Zm-4.94-1.18L194,12.26a6.09,6.09,0,0,1,.81-.4l1.07,2.6A2.73,2.73,0,0,0,195.41,14.69Zm3-.34a4.37,4.37,0,0,0-.49-.12l.46-2.77a5.62,5.62,0,0,1,.88.21Z" transform="translate(-6.72 -11.46)"/><path class="cls-44" d="M38.16,238v-9.27a2.38,2.38,0,0,1,2.37-2.37h5.18a2.38,2.38,0,0,1,2.37,2.37V238a2.38,2.38,0,0,1-2.37,2.37H40.53A2.38,2.38,0,0,1,38.16,238Zm2.37-9.46a.19.19,0,0,0-.19.19V238a.2.2,0,0,0,.19.2h5.18a.21.21,0,0,0,.19-.2v-9.27a.2.2,0,0,0-.19-.19Z" transform="translate(-6.72 -11.46)"/><path class="cls-45" d="M33.07,238.9V226.73a2.59,2.59,0,0,1,2.59-2.58h4.2a2.59,2.59,0,0,1,2.58,2.58V238.9a2.59,2.59,0,0,1-2.58,2.58h-4.2A2.59,2.59,0,0,1,33.07,238.9Zm2.59-12.31a.14.14,0,0,0-.14.14V238.9a.13.13,0,0,0,.14.13h4.2a.13.13,0,0,0,.13-.13V226.73a.14.14,0,0,0-.13-.14Z" transform="translate(-6.72 -11.46)"/><path class="cls-44" d="M36.33,256.19A8.11,8.11,0,0,0,38,251.28h5a8.05,8.05,0,0,0,1.66,4.91Z" transform="translate(-6.72 -11.46)"/><rect class="cls-44" x="31.26" y="197.65" width="4.95" height="42.17"/><path class="cls-45" d="M40.34,209.11H38v42.17a8.13,8.13,0,0,1-1.65,4.91h4Z" transform="translate(-6.72 -11.46)"/><path class="cls-5" d="M62.08,210.32c0-14.08-8-37-21.62-37.49-13.65.48-21.63,23.41-21.62,37.49-.25,14.24,9.65,27.08,21.62,27.72C52.42,237.4,62.32,224.56,62.08,210.32Z" transform="translate(-6.72 -11.46)"/><path class="cls-6" d="M40.27,172.85c-13.54.68-21.44,23.45-21.43,37.47-.25,14.17,9.55,26.93,21.43,27.7Z" transform="translate(-6.72 -11.46)"/><ellipse class="cls-5" cx="23.83" cy="212.97" rx="1.91" ry="3.1"/><path class="cls-5" d="M27.5,217c-.64,0-1.15.69-1.15,1.54s.51,1.54,1.15,1.54,1.14-.69,1.14-1.54S28.13,217,27.5,217Z" transform="translate(-6.72 -11.46)"/><path class="cls-5" d="M31.55,217c-.5,0-.91.69-.91,1.54s.41,1.54.91,1.54.92-.69.92-1.54S32.06,217,31.55,217Z" transform="translate(-6.72 -11.46)"/><path class="cls-5" d="M22.67,211.22c-.63,0-1.14.93-1.14,2.07s.51,2.06,1.14,2.06,1.14-.92,1.14-2.06S23.3,211.22,22.67,211.22Z" transform="translate(-6.72 -11.46)"/><path class="cls-6" d="M45.38,184.44c.73,0,1.33-.9,1.33-2s-.6-2-1.33-2-1.34.9-1.34,2S44.64,184.44,45.38,184.44Z" transform="translate(-6.72 -11.46)"/><ellipse class="cls-6" cx="42.34" cy="177.33" rx="1.48" ry="2.25"/><path class="cls-6" d="M45.21,189.86c.39,0,.71-.55.71-1.23s-.32-1.24-.71-1.24-.72.56-.72,1.24S44.81,189.86,45.21,189.86Z" transform="translate(-6.72 -11.46)"/><ellipse class="cls-6" cx="44.59" cy="182.98" rx="0.77" ry="1.11"/><path class="cls-46" d="M256.94,282.91h-68a5.65,5.65,0,0,1-5.66-5.66h0a5.66,5.66,0,0,1,5.66-5.66h68a5.66,5.66,0,0,1,5.66,5.66h0A5.65,5.65,0,0,1,256.94,282.91Z" transform="translate(-6.72 -11.46)"/><path class="cls-37" d="M255.7,242.24a2.52,2.52,0,0,0-.14-.33l1.94-1.06a4.12,4.12,0,0,1,.31.71Z" transform="translate(-6.72 -11.46)"/><path class="cls-37" d="M252.18,242.15l-2.08-.78a4.12,4.12,0,0,1,.34-.7l1.89,1.16A1.87,1.87,0,0,0,252.18,242.15Z" transform="translate(-6.72 -11.46)"/><path class="cls-37" d="M255.11,241.37a1.57,1.57,0,0,0-.3-.2l1.07-1.95a4.55,4.55,0,0,1,.64.44Z" transform="translate(-6.72 -11.46)"/><path class="cls-37" d="M252.81,241.31l-1.33-1.78a4.46,4.46,0,0,1,.66-.4l1,2A1.49,1.49,0,0,0,252.81,241.31Z" transform="translate(-6.72 -11.46)"/><path class="cls-37" d="M254.14,241h-.35l-.15-2.22a4.16,4.16,0,0,1,.61,0h.16Z" transform="translate(-6.72 -11.46)"/><path class="cls-37" d="M255.39,242.8a1.47,1.47,0,1,1-1.47-1.47A1.47,1.47,0,0,1,255.39,242.8Z" transform="translate(-6.72 -11.46)"/><path class="cls-47" d="M252.78,242.18a.26.26,0,0,0,0,.26.27.27,0,0,0,.21.07.9.9,0,0,0,.5-.16,1.63,1.63,0,0,0,.36-.38.36.36,0,0,0,.08-.19.24.24,0,0,0-.11-.19.43.43,0,0,0-.22-.06A.88.88,0,0,0,252.78,242.18Z" transform="translate(-6.72 -11.46)"/><polygon class="cls-48" points="246.91 249.12 233.44 248.19 229.32 260.14 238.93 260.14 248.22 260.14 246.91 249.12"/><polygon class="cls-48" points="212.9 249.12 197.72 248.19 193.09 260.14 203.9 260.14 214.37 260.14 212.9 249.12"/><polygon class="cls-7" points="255.23 248.69 229.32 248.69 229.32 231.25 251.39 231.25 255.23 248.69"/><polygon class="cls-31" points="236.81 246.59 236.81 233.34 249.71 233.34 252.63 246.59 236.81 246.59"/><path class="cls-49" d="M245.44,256.93a91.37,91.37,0,0,1,11.1-11.64l-.11-.49h-12.9v13.25h1.11A12.64,12.64,0,0,1,245.44,256.93Z" transform="translate(-6.72 -11.46)"/><path class="cls-7" d="M236,260.14v10.8h.56c.15-4.57,3.17-9,9-9s8.9,4.45,9.05,9H262v-10.8Z" transform="translate(-6.72 -11.46)"/><path class="cls-43" d="M263.24,271.59h-5.49a1.43,1.43,0,0,1-1.43-1.43V269a1.43,1.43,0,0,1,1.43-1.43h5.49Z" transform="translate(-6.72 -11.46)"/><path class="cls-43" d="M257.88,267.58h-.51a1,1,0,0,0-1.05,1v1.93a1,1,0,0,0,1.05,1h.51Z" transform="translate(-6.72 -11.46)"/><path class="cls-50" d="M241.62,245.79h-3.41a.49.49,0,0,1-.5-.49h0a.5.5,0,0,1,.5-.5h3.41a.5.5,0,0,1,.5.5h0A.5.5,0,0,1,241.62,245.79Z" transform="translate(-6.72 -11.46)"/><path class="cls-50" d="M241.62,247.66h-3.41a.49.49,0,0,1-.5-.49h0a.5.5,0,0,1,.5-.5h3.41a.5.5,0,0,1,.5.5h0A.5.5,0,0,1,241.62,247.66Z" transform="translate(-6.72 -11.46)"/><path class="cls-50" d="M241.62,249.53h-3.41a.49.49,0,0,1-.5-.49h0a.5.5,0,0,1,.5-.5h3.41a.5.5,0,0,1,.5.5h0A.5.5,0,0,1,241.62,249.53Z" transform="translate(-6.72 -11.46)"/><path class="cls-34" d="M262,266.65h0v-4.39h0a.82.82,0,0,1,.82.81v2.76A.82.82,0,0,1,262,266.65Z" transform="translate(-6.72 -11.46)"/><path class="cls-34" d="M263.45,265.33a1.58,1.58,0,0,0,.22-.23l2.16.81a3.63,3.63,0,0,1-.48.48Z" transform="translate(-6.72 -11.46)"/><path class="cls-34" d="M263.51,263.59l2-1a2.59,2.59,0,0,1,.44.5l-2.21.73A1.51,1.51,0,0,0,263.51,263.59Z" transform="translate(-6.72 -11.46)"/><path class="cls-34" d="M263.91,264.6v-.06a1.48,1.48,0,0,0,0-.21l2.45-.12a1.85,1.85,0,0,1,0,.47s0,.08,0,.12Z" transform="translate(-6.72 -11.46)"/><rect class="cls-48" x="186.97" y="258.98" width="50.8" height="2.32"/><path class="cls-51" d="M195,245.89v24.54h6.33c.29-4.44,3.3-8.67,9-8.67s8.75,4.23,9,8.67h16.66V242a2.6,2.6,0,0,0-2.6-2.6h-32A6.51,6.51,0,0,0,195,245.89Z" transform="translate(-6.72 -11.46)"/><path class="cls-37" d="M228.51,250.21a6.6,6.6,0,1,1-6.6-6.6A6.59,6.59,0,0,1,228.51,250.21Z" transform="translate(-6.72 -11.46)"/><path class="cls-52" d="M227.41,250.21a5.5,5.5,0,1,1-5.5-5.5A5.5,5.5,0,0,1,227.41,250.21Z" transform="translate(-6.72 -11.46)"/><rect class="cls-31" x="211.74" y="237.74" width="6.9" height="2.04"/><rect class="cls-31" x="214.17" y="235.31" width="2.04" height="6.9"/><polygon class="cls-53" points="229.32 247.13 229.32 248.69 255.23 248.69 254.89 247.13 229.32 247.13"/><path class="cls-53" d="M242.89,262.3a10.18,10.18,0,0,1,5.51,0H262v-2.16H236v2.16Z" transform="translate(-6.72 -11.46)"/><path class="cls-53" d="M236,264.4v6.54h.56a9.72,9.72,0,0,1,2.69-6.54Z" transform="translate(-6.72 -11.46)"/><path class="cls-53" d="M252,264.4a9.67,9.67,0,0,1,2.69,6.54H262V264.4Z" transform="translate(-6.72 -11.46)"/><path class="cls-37" d="M216.89,264.4a9.69,9.69,0,0,1,2.51,6h16.66v-6Z" transform="translate(-6.72 -11.46)"/><path class="cls-37" d="M236.05,241.89a2.59,2.59,0,0,0-2.59-2.51h-32a6.5,6.5,0,0,0-5.1,2.51Z" transform="translate(-6.72 -11.46)"/><path class="cls-37" d="M195,258.58v3.72h12.1a10.14,10.14,0,0,1,6.53,0h22.43v-3.72Z" transform="translate(-6.72 -11.46)"/><path class="cls-37" d="M195,264.4v6h6.33a9.74,9.74,0,0,1,2.51-6Z" transform="translate(-6.72 -11.46)"/><path class="cls-54" d="M236,271.59h1V271a8.72,8.72,0,0,1,8.71-8.71v-1A9.75,9.75,0,0,0,236,271Z" transform="translate(-6.72 -11.46)"/><path class="cls-54" d="M220,271.59h-1V271a8.72,8.72,0,0,0-8.71-8.71v-1A9.76,9.76,0,0,1,220,271Z" transform="translate(-6.72 -11.46)"/><path class="cls-54" d="M200.5,271.59h1V271a8.72,8.72,0,0,1,8.71-8.71v-1A9.76,9.76,0,0,0,200.5,271Z" transform="translate(-6.72 -11.46)"/><path class="cls-55" d="M252.61,271.59a7.08,7.08,0,1,1-7.07-7.08A7.08,7.08,0,0,1,252.61,271.59Z" transform="translate(-6.72 -11.46)"/><path class="cls-56" d="M249.47,271.59a3.94,3.94,0,1,1-3.93-3.93A3.93,3.93,0,0,1,249.47,271.59Z" transform="translate(-6.72 -11.46)"/><path class="cls-54" d="M246.7,271.59a1.16,1.16,0,1,1-1.16-1.16A1.16,1.16,0,0,1,246.7,271.59Z" transform="translate(-6.72 -11.46)"/><path class="cls-57" d="M239.27,271.85a5.06,5.06,0,0,1,.26-2.8,6.67,6.67,0,0,1,3.47-3.74,2.07,2.07,0,0,1,1.26-.23.92.92,0,0,1,.78.89,1,1,0,0,1-.19.48,4.36,4.36,0,0,1-1.78,1.17,9.69,9.69,0,0,0-2.76,2.08,3.54,3.54,0,0,0-.95,1.58Z" transform="translate(-6.72 -11.46)"/><path class="cls-55" d="M217.33,271.59a7.08,7.08,0,1,1-7.08-7.08A7.08,7.08,0,0,1,217.33,271.59Z" transform="translate(-6.72 -11.46)"/><path class="cls-56" d="M214.18,271.59a3.93,3.93,0,1,1-3.93-3.93A3.93,3.93,0,0,1,214.18,271.59Z" transform="translate(-6.72 -11.46)"/><path class="cls-54" d="M211.41,271.59a1.16,1.16,0,1,1-1.16-1.16A1.16,1.16,0,0,1,211.41,271.59Z" transform="translate(-6.72 -11.46)"/><path class="cls-57" d="M204,271.85a5.06,5.06,0,0,1,.25-2.8,6.66,6.66,0,0,1,3.48-3.74,2,2,0,0,1,1.25-.23.92.92,0,0,1,.79.89,1.12,1.12,0,0,1-.2.48,4.3,4.3,0,0,1-1.78,1.17A9.65,9.65,0,0,0,205,269.7a3.47,3.47,0,0,0-1,1.58Z" transform="translate(-6.72 -11.46)"/><path class="cls-47" d="M199.33,261.13h-1.52a.69.69,0,0,1-.69-.69h0a.69.69,0,0,1,.69-.69h1.52a.69.69,0,0,1,.7.69h0A.69.69,0,0,1,199.33,261.13Z" transform="translate(-6.72 -11.46)"/><path class="cls-47" d="M203.65,241.36h-1.52a.69.69,0,0,1-.69-.69h0a.69.69,0,0,1,.69-.69h1.52a.69.69,0,0,1,.7.69h0A.69.69,0,0,1,203.65,241.36Z" transform="translate(-6.72 -11.46)"/><path class="cls-47" d="M231.38,241.36h-1.53a.69.69,0,0,1-.69-.69h0a.69.69,0,0,1,.69-.69h1.53a.69.69,0,0,1,.69.69h0A.69.69,0,0,1,231.38,241.36Z" transform="translate(-6.72 -11.46)"/><path class="cls-47" d="M258.93,261.13H257.4a.69.69,0,0,1-.69-.69h0a.69.69,0,0,1,.69-.69h1.53a.69.69,0,0,1,.69.69h0A.69.69,0,0,1,258.93,261.13Z" transform="translate(-6.72 -11.46)"/><rect class="cls-31" x="191.85" y="233.34" width="11.86" height="8.67" rx="1"/><path class="cls-49" d="M199.64,253.42l.06-.07a46.56,46.56,0,0,1,10.47-8,1.26,1.26,0,0,0-1-.56h-9.26a1.3,1.3,0,0,0-1.3,1.3v6.07A1.29,1.29,0,0,0,199.64,253.42Z" transform="translate(-6.72 -11.46)"/><path class="cls-54" d="M255.53,271.59h-1V271a8.72,8.72,0,0,0-8.71-8.71v-1a9.75,9.75,0,0,1,9.74,9.74Z" transform="translate(-6.72 -11.46)"/><path class="cls-36" d="M91.85,240.09V238H87.34v-.13a.94.94,0,0,0-1-.94h0a.94.94,0,0,0-1,.94V238H51.11v-.13a1,1,0,0,0-1-.94h0a.94.94,0,0,0-.95.94V238H44.7v2.09h4.51v1.08H44.7v2.08h4.51v1.08H44.7v2.09h4.51v.05H44.7v3.17h4.51v5.19h-.09a.89.89,0,0,0-.89.9v.49h3.86v-.49a.9.9,0,0,0-.9-.9h-.08v-5.19H85.44v5.19h-.09a.89.89,0,0,0-.89.9v.49h3.86v-.49a.9.9,0,0,0-.9-.9h-.08v-5.19h4.51v-3.17H87.34v-.05h4.51v-2.09H87.34v-1.08h4.51v-2.08H87.34v-1.08Zm-6.41,6.38H51.11v-.05H85.44Zm0-2.14H51.11v-1.08H85.44Zm0-3.16H51.11v-1.08H85.44Z" transform="translate(-6.72 -11.46)"/><path class="cls-58" d="M47.92,225.47h.73a.59.59,0,0,1,.59.59v18.7a0,0,0,0,1,0,0h-1.9a0,0,0,0,1,0,0v-18.7A.59.59,0,0,1,47.92,225.47Z"/><path class="cls-59" d="M56,250.47v-12.6a.94.94,0,0,0-1-.94h0a1,1,0,0,0-1,.94v12.6Z" transform="translate(-6.72 -11.46)"/><path class="cls-58" d="M46.9,243.38h2.75a.55.55,0,0,1,.55.55v.83a0,0,0,0,1,0,0H46.35a0,0,0,0,1,0,0v-.83A.55.55,0,0,1,46.9,243.38Z"/><path class="cls-58" d="M84.15,225.47h.73a.59.59,0,0,1,.59.59v18.7a0,0,0,0,1,0,0h-1.9a0,0,0,0,1,0,0v-18.7A.59.59,0,0,1,84.15,225.47Z"/><path class="cls-59" d="M92.18,250.47v-12.6a.94.94,0,0,0-.94-.94h0a1,1,0,0,0-1,.94v12.6Z" transform="translate(-6.72 -11.46)"/><path class="cls-58" d="M83.13,243.38h2.75a.55.55,0,0,1,.55.55v.83a0,0,0,0,1,0,0H82.58a0,0,0,0,1,0,0v-.83A.55.55,0,0,1,83.13,243.38Z"/><rect class="cls-60" x="42.82" y="235.01" width="47.15" height="3.17"/><rect class="cls-61" x="42.82" y="235.01" width="47.15" height="0.91"/><rect class="cls-62" x="42.82" y="232.87" width="47.15" height="2.09"/><rect class="cls-62" x="42.82" y="229.71" width="47.15" height="2.09"/><rect class="cls-62" x="42.82" y="226.55" width="47.15" height="2.09"/><polygon class="cls-36" points="94.97 234.18 95.98 234.18 96.6 243.57 95.76 243.57 95.86 244.78 103.66 244.78 103.76 243.57 102.92 243.57 103.54 234.18 104.55 234.18 104.71 232.35 94.81 232.35 94.97 234.18"/><polygon class="cls-62" points="108.38 234.18 100.82 234.18 101.46 243.81 107.74 243.81 108.38 234.18"/><path class="cls-63" d="M109.18,246.5h0a1,1,0,0,0-.88,1.11l.34,6.2a.89.89,0,0,0,.85.85h0a.81.81,0,0,0,.79-.85l-.14-6.2A1.06,1.06,0,0,0,109.18,246.5Z" transform="translate(-6.72 -11.46)"/><polygon class="cls-60" points="108.61 243.57 100.6 243.57 100.7 244.78 108.5 244.78 108.61 243.57"/><polygon class="cls-60" points="109.55 232.35 99.65 232.35 99.81 234.18 109.4 234.18 109.55 232.35"/></g></g></svg>