<svg xmlns="http://www.w3.org/2000/svg" viewBox="0 0 64 64" width="512" height="512"><path d="M37 11h-2V9a1 1 0 00-1-1h-4a1 1 0 00-1 1v2h-2a1 1 0 00-1 1v4a1 1 0 001 1h2v2a1 1 0 001 1h4a1 1 0 001-1v-2h2a1 1 0 001-1v-4a1 1 0 00-1-1zm-1 4h-2a1 1 0 00-1 1v2h-2v-2a1 1 0 00-1-1h-2v-2h2a1 1 0 001-1v-2h2v2a1 1 0 001 1h2zM19 32h25a1 1 0 001-1v-4a1 1 0 00-1-1H19a1 1 0 00-1 1v4a1 1 0 001 1zm1-4h23v2H20z"/><path d="M3 60h58a1 1 0 001-1V17a1 1 0 00-1-1H50V5a1 1 0 00-1-1H15a1 1 0 00-1 1v11H3a1 1 0 00-1 1v42a1 1 0 001 1zm47-42h10v2H50zm0 4h10v32h-2v-5a1 1 0 00-1-1h-4a1 1 0 00-1 1v5h-2zm6 28v4h-2v-4zm-6 6h10v2H50zm-27-1v3h-3V42h3zm0-15h-3v-4h3zm16 18H25v-2h14zm-8-16v5h-2v2h2v5h-6V42zm-6-2v-4h2v4zm4 0v-4h2v4zm10 14h-6v-5h2v-2h-2v-5h6zm-6-14v-4h2v4zm6 0h-2v-4h2zm4 18h-2V42h2zm0-18h-2v-4h2zM20 6h24v16H20zm-4 0h2v17a1 1 0 001 1h26a1 1 0 001-1V6h2v52h-3V35a1 1 0 00-1-1H19a1 1 0 00-1 1v23h-2zM4 18h10v2H4zm0 4h10v32h-2v-5a1 1 0 00-1-1H7a1 1 0 00-1 1v5H4zm6 28v4H8v-4zm-6 6h10v2H4z"/><path d="M53 30h4a1 1 0 001-1v-4a1 1 0 00-1-1h-4a1 1 0 00-1 1v4a1 1 0 001 1zm1-4h2v2h-2zM53 38h4a1 1 0 001-1v-4a1 1 0 00-1-1h-4a1 1 0 00-1 1v4a1 1 0 001 1zm1-4h2v2h-2zM53 46h4a1 1 0 001-1v-4a1 1 0 00-1-1h-4a1 1 0 00-1 1v4a1 1 0 001 1zm1-4h2v2h-2zM7 30h4a1 1 0 001-1v-4a1 1 0 00-1-1H7a1 1 0 00-1 1v4a1 1 0 001 1zm1-4h2v2H8zM7 38h4a1 1 0 001-1v-4a1 1 0 00-1-1H7a1 1 0 00-1 1v4a1 1 0 001 1zm1-4h2v2H8zM7 46h4a1 1 0 001-1v-4a1 1 0 00-1-1H7a1 1 0 00-1 1v4a1 1 0 001 1zm1-4h2v2H8z"/></svg>