<svg height="512" viewBox="0 0 64 64" width="512" xmlns="http://www.w3.org/2000/svg"><path d="M15 5h34v54H15z" fill="#aabece"/><path d="M19 5h26v18H19z" fill="#f4f4e6"/><path d="M37 12h-3V9h-4v3h-3v4h3v3h4v-3h3z" fill="#dd3e46"/><path d="M19 35h5v6h-5z" fill="#5a6470"/><path d="M24 35h4v6h-4z" fill="#394d5c"/><path d="M28 35h4v6h-4z" fill="#5a6470"/><path d="M32 35h4v6h-4z" fill="#394d5c"/><path d="M36 35h4v6h-4z" fill="#5a6470"/><path d="M40 35h4v6h-4z" fill="#394d5c"/><path d="M24 41h16v14H24z" fill="#cdeef6"/><path d="M24 55h16v4H24z" fill="#394d5c"/><path d="M31 41h2v14h-2z" fill="#32b1cc"/><path d="M29 47h6v2h-6z" fill="#2d75bb"/><g fill="#7d8d9c"><path d="M19 41h5v18h-5zM40 41h4v18h-4zM19 27h25v4H19z"/></g><path d="M3 21h12v38H3z" fill="#cfdfe8"/><path d="M3 17h12v4H3zM3 55h12v4H3z" fill="#7d8d9c"/><path d="M61 59H49V21h12z" fill="#cfdfe8"/><path d="M61 21H49v-4h12zM61 59H49v-4h12z" fill="#7d8d9c"/><g fill="#fff69a"><path d="M53 25h4v4h-4zM53 33h4v4h-4zM53 41h4v4h-4zM53 49h4v6h-4zM7 25h4v4H7zM7 33h4v4H7zM7 41h4v4H7zM7 49h4v6H7z"/></g></svg>