<svg height="512" viewBox="0 0 64 64" width="512" xmlns="http://www.w3.org/2000/svg"><g id="flat"><path d="m15 5h34v54h-34z" fill="#aabece"/><path d="m19 5h26v18h-26z" fill="#f4f4e6"/><path d="m37 12h-3v-3h-4v3h-3v4h3v3h4v-3h3z" fill="#dd3e46"/><path d="m19 35h5v6h-5z" fill="#5a6470"/><path d="m24 35h4v6h-4z" fill="#394d5c"/><path d="m28 35h4v6h-4z" fill="#5a6470"/><path d="m32 35h4v6h-4z" fill="#394d5c"/><path d="m36 35h4v6h-4z" fill="#5a6470"/><path d="m40 35h4v6h-4z" fill="#394d5c"/><path d="m24 41h16v14h-16z" fill="#cdeef6"/><path d="m24 55h16v4h-16z" fill="#394d5c"/><path d="m31 41h2v14h-2z" fill="#32b1cc"/><path d="m29 47h6v2h-6z" fill="#2d75bb"/><g fill="#7d8d9c"><path d="m19 41h5v18h-5z"/><path d="m40 41h4v18h-4z"/><path d="m19 27h25v4h-25z"/></g><path d="m3 21h12v38h-12z" fill="#cfdfe8"/><path d="m3 17h12v4h-12z" fill="#7d8d9c"/><path d="m3 55h12v4h-12z" fill="#7d8d9c"/><path d="m49 21h12v38h-12z" fill="#cfdfe8" transform="matrix(-1 0 0 -1 110 80)"/><path d="m49 17h12v4h-12z" fill="#7d8d9c" transform="matrix(-1 0 0 -1 110 38)"/><path d="m49 55h12v4h-12z" fill="#7d8d9c" transform="matrix(-1 0 0 -1 110 114)"/><g fill="#fff69a"><path d="m53 25h4v4h-4z"/><path d="m53 33h4v4h-4z"/><path d="m53 41h4v4h-4z"/><path d="m53 49h4v6h-4z"/><path d="m7 25h4v4h-4z"/><path d="m7 33h4v4h-4z"/><path d="m7 41h4v4h-4z"/><path d="m7 49h4v6h-4z"/></g></g></svg>