<?xml version="1.0"?>
<svg xmlns="http://www.w3.org/2000/svg" viewBox="0 0 64 64" width="512" height="512"><g id="outline"><path d="M37,11H35V9a1,1,0,0,0-1-1H30a1,1,0,0,0-1,1v2H27a1,1,0,0,0-1,1v4a1,1,0,0,0,1,1h2v2a1,1,0,0,0,1,1h4a1,1,0,0,0,1-1V17h2a1,1,0,0,0,1-1V12A1,1,0,0,0,37,11Zm-1,4H34a1,1,0,0,0-1,1v2H31V16a1,1,0,0,0-1-1H28V13h2a1,1,0,0,0,1-1V10h2v2a1,1,0,0,0,1,1h2Z"/><path d="M19,32H44a1,1,0,0,0,1-1V27a1,1,0,0,0-1-1H19a1,1,0,0,0-1,1v4A1,1,0,0,0,19,32Zm1-4H43v2H20Z"/><path d="M3,60H61a1,1,0,0,0,1-1V17a1,1,0,0,0-1-1H50V5a1,1,0,0,0-1-1H15a1,1,0,0,0-1,1V16H3a1,1,0,0,0-1,1V59A1,1,0,0,0,3,60ZM50,18H60v2H50Zm0,4H60V54H58V49a1,1,0,0,0-1-1H53a1,1,0,0,0-1,1v5H50Zm6,28v4H54V50Zm-6,6H60v2H50ZM23,55v3H20V42h3Zm0-15H20V36h3ZM39,58H25V56H39ZM31,42v5H29v2h2v5H25V42Zm-6-2V36h2v4Zm4,0V36h2v4ZM39,54H33V49h2V47H33V42h6ZM33,40V36h2v4Zm6,0H37V36h2Zm4,18H41V42h2Zm0-18H41V36h2ZM20,6H44V22H20ZM16,6h2V23a1,1,0,0,0,1,1H45a1,1,0,0,0,1-1V6h2V58H45V35a1,1,0,0,0-1-1H19a1,1,0,0,0-1,1V58H16ZM4,18H14v2H4Zm0,4H14V54H12V49a1,1,0,0,0-1-1H7a1,1,0,0,0-1,1v5H4Zm6,28v4H8V50ZM4,56H14v2H4Z"/><path d="M53,30h4a1,1,0,0,0,1-1V25a1,1,0,0,0-1-1H53a1,1,0,0,0-1,1v4A1,1,0,0,0,53,30Zm1-4h2v2H54Z"/><path d="M53,38h4a1,1,0,0,0,1-1V33a1,1,0,0,0-1-1H53a1,1,0,0,0-1,1v4A1,1,0,0,0,53,38Zm1-4h2v2H54Z"/><path d="M53,46h4a1,1,0,0,0,1-1V41a1,1,0,0,0-1-1H53a1,1,0,0,0-1,1v4A1,1,0,0,0,53,46Zm1-4h2v2H54Z"/><path d="M7,30h4a1,1,0,0,0,1-1V25a1,1,0,0,0-1-1H7a1,1,0,0,0-1,1v4A1,1,0,0,0,7,30Zm1-4h2v2H8Z"/><path d="M7,38h4a1,1,0,0,0,1-1V33a1,1,0,0,0-1-1H7a1,1,0,0,0-1,1v4A1,1,0,0,0,7,38Zm1-4h2v2H8Z"/><path d="M7,46h4a1,1,0,0,0,1-1V41a1,1,0,0,0-1-1H7a1,1,0,0,0-1,1v4A1,1,0,0,0,7,46Zm1-4h2v2H8Z"/></g></svg>
