<svg height="512" viewBox="0 0 64 64" width="512" xmlns="http://www.w3.org/2000/svg"><path d="M61.79 14.41l.01-.01-3-4a1.014 1.014 0 00-.8-.4h-1V3h-2v7h-3V7h-2v3h-1a1.033 1.033 0 00-.71.29L46 12.59V5a3.009 3.009 0 00-3-3H21a3.009 3.009 0 00-3 3v7.59l-2.29-2.3A1.033 1.033 0 0015 10h-1V7h-2v3H9V3H7v7H6a1.014 1.014 0 00-.8.4l-3 4 .01.01A1.006 1.006 0 002 15v46a1 1 0 001 1h58a1 1 0 001-1V15a1.006 1.006 0 00-.21-.59zM6.5 12h8.09l2 2H5zM18 60H4V16h14zm19 0H27V49a5 5 0 0110 0zm7 0h-5V49a7 7 0 00-14 0v11h-5V5a1 1 0 011-1h22a1 1 0 011 1zm5.41-48h8.09l1.5 2H47.41zM60 60H46V16h14z"/><path d="M27 18h3a1 1 0 001-1v-2h2v2a1 1 0 001 1h3a1 1 0 001-1V7a1 1 0 00-1-1h-3a1 1 0 00-1 1v2h-2V7a1 1 0 00-1-1h-3a1 1 0 00-1 1v10a1 1 0 001 1zm1-10h1v2a1 1 0 001 1h4a1 1 0 001-1V8h1v8h-1v-2a1 1 0 00-1-1h-4a1 1 0 00-1 1v2h-1zM39 26h-3v-3a2 2 0 00-2-2h-4a2 2 0 00-2 2v3h-3a2 2 0 00-2 2v4a2 2 0 002 2h3v3a2 2 0 002 2h4a2 2 0 002-2v-3h3a2 2 0 002-2v-4a2 2 0 00-2-2zm0 6h-3a2 2 0 00-2 2v3h-4v-3a2 2 0 00-2-2h-3v-4h3a2 2 0 002-2v-3h4v3a2 2 0 002 2h3zM48 28h2v2h-2zM52 28h2v2h-2zM56 28h2v2h-2zM48 32h2v2h-2zM52 32h2v2h-2zM56 32h2v2h-2zM48 36h2v2h-2zM52 36h2v2h-2zM56 36h2v2h-2zM48 40h2v2h-2zM52 40h2v2h-2zM56 40h2v2h-2zM48 44h2v2h-2zM52 44h2v2h-2zM56 44h2v2h-2zM48 48h2v2h-2zM52 48h2v2h-2zM56 48h2v2h-2zM48 52h2v2h-2zM52 52h2v2h-2zM56 52h2v2h-2zM48 56h2v2h-2zM52 56h2v2h-2zM56 56h2v2h-2zM48 26h10a1 1 0 001-1v-6a1 1 0 00-1-1H48a1 1 0 00-1 1v6a1 1 0 001 1zm1-6h8v4h-8zM14 28h2v2h-2zM10 28h2v2h-2zM6 28h2v2H6zM14 32h2v2h-2zM10 32h2v2h-2zM6 32h2v2H6zM14 36h2v2h-2zM10 36h2v2h-2zM6 36h2v2H6zM14 40h2v2h-2zM10 40h2v2h-2zM6 40h2v2H6zM14 44h2v2h-2zM10 44h2v2h-2zM6 44h2v2H6zM14 48h2v2h-2zM10 48h2v2h-2zM6 48h2v2H6zM14 52h2v2h-2zM10 52h2v2h-2zM6 52h2v2H6zM14 56h2v2h-2zM10 56h2v2h-2zM6 56h2v2H6zM16 18H6a1 1 0 00-1 1v6a1 1 0 001 1h10a1 1 0 001-1v-6a1 1 0 00-1-1zm-1 6H7v-4h8z"/></svg>