<?xml version="1.0" encoding="iso-8859-1"?>
<!-- Generator: Adobe Illustrator 19.0.0, SVG Export Plug-In . SVG Version: 6.00 Build 0)  -->
<svg version="1.1" id="Capa_1" xmlns="http://www.w3.org/2000/svg" xmlns:xlink="http://www.w3.org/1999/xlink" x="0px" y="0px"
	 viewBox="0 0 491.52 491.52" style="enable-background:new 0 0 491.52 491.52;" xml:space="preserve">
<circle style="fill:#334D5C;" cx="245.76" cy="245.76" r="245.76"/>
<path style="opacity:0.1;enable-background:new    ;" d="M489.213,279.056l-170.06-170.06c-0.573-0.766-1.25-1.442-2.016-2.016
	l-0.001-0.001c-1.657-1.239-3.692-2-5.916-2h-86.323c-5.53,0-9.984,4.454-9.984,9.933v86.323c0,2.647,1.04,5.031,2.711,6.814
	c0.148,0.158,0.3,0.31,0.459,0.459l80.535,80.535h-56.006L122.856,169.338l-0.154-0.154v-0.051c-1.843-2.15-4.608-3.482-7.629-3.482
	c-5.581,0-10.138,4.506-10.138,10.086V386.58l101.829,101.829c12.704,2.026,25.721,3.111,38.995,3.111
	C370.189,491.52,472.953,399.027,489.213,279.056z"/>
<g>
	<path style="fill:#DC8744;" d="M115.072,165.636c-5.585,0-10.112,4.528-10.112,10.113V386.56h20.225V175.749
		C125.185,170.164,120.657,165.636,115.072,165.636z"/>
	<path style="fill:#DC8744;" d="M376.447,252.761c-5.585,0-10.113,4.528-10.113,10.113V386.56h20.226V262.874
		C386.56,257.289,382.032,252.761,376.447,252.761z"/>
</g>
<rect x="125.184" y="289.024" style="fill:#FFFFFF;" width="241.152" height="41.774"/>
<rect x="125.184" y="313.395" style="fill:#FCD462;" width="241.152" height="17.408"/>
<path style="fill:#F6C358;" d="M347.083,292.295v27.91c0,3.845-3.117,6.963-6.963,6.963h-71.516c-3.846,0-6.963-3.118-6.963-6.963
	v-27.91"/>
<path style="fill:#E1E6E9;" d="M169.316,275.855c2.028,3.353-0.47,10.992-4.087,12.5c-7.873,3.282-33.757-5.712-39.096-12.781
	c-2.453-3.248,0.189-11.329,4.087-12.5C138.704,260.524,164.902,268.556,169.316,275.855z"/>
<path style="fill:#EBF0F3;" d="M340.121,323.903h-71.516c-3.846,0-6.963-3.117-6.963-6.963v-27.91h85.441v27.91
	C347.083,320.786,343.966,323.903,340.121,323.903z"/>
<path style="fill:#E56353;" d="M311.202,104.96h-86.32c-5.501,0-9.96,4.46-9.96,9.96v86.32c0,5.5,4.459,9.96,9.96,9.96h86.32
	c5.5,0,9.96-4.46,9.96-9.96v-86.32C321.162,109.42,316.702,104.96,311.202,104.96z M304.433,169.155h-25.316v25.315h-22.15v-25.315
	h-25.316v-22.151h25.316V121.69h22.15v25.315h25.316V169.155z"/>
<g>
	<rect x="256.973" y="121.687" style="fill:#FFFFFF;" width="22.149" height="72.781"/>
	<rect x="231.67" y="147.011" style="fill:#FFFFFF;" width="72.781" height="22.149"/>
</g>
<g>
</g>
<g>
</g>
<g>
</g>
<g>
</g>
<g>
</g>
<g>
</g>
<g>
</g>
<g>
</g>
<g>
</g>
<g>
</g>
<g>
</g>
<g>
</g>
<g>
</g>
<g>
</g>
<g>
</g>
</svg>
