<svg xmlns="http://www.w3.org/2000/svg" viewBox="0 0 480 480"><path d="M258.089.676c1.073.08 2.141.181 3.21.275-1.069-.094-2.137-.195-3.21-.275zM246.08.077c.765.019 1.525.058 2.288.084-.763-.026-1.523-.065-2.288-.084zM252.11.303c.956.048 1.907.116 2.86.175-.953-.058-1.903-.127-2.86-.175zM.146 247.974c-.022-.667-.054-1.333-.07-2.001.016.669.048 1.333.07 2.001zM1.438 266.279c-.095-.869-.191-1.738-.276-2.609.085.872.182 1.74.276 2.609zM303.561 8.525c38.557 10.583 73.23 30.554 101.437 57.281C395.485 64.659 385.822 64 376 64c-11.109 0-22.036.772-32.743 2.233.449.587.89 1.186 1.311 1.809 9.12 13.473 8.019 30.146-2.46 37.24-10.479 7.094-26.368 1.922-35.488-11.551-3.803-5.618-5.822-11.79-6.132-17.594a238.909 238.909 0 00-51.329 24.104A31.838 31.838 0 01256 120c0 17.673-14.327 32-32 32-9.635 0-18.268-4.264-24.135-11.001C160.234 183.802 136 241.067 136 304c0 68.614 28.84 130.454 75.002 174.194-77.915-9.391-144.343-56.085-180.868-121.708C71.109 430.151 149.727 480 240 480c132.548 0 240-107.452 240-240 0-110.542-74.741-203.612-176.439-231.475zM186.32 186.32c3.039-2.961 8.32-2.961 11.359 0 1.438 1.52 2.32 3.598 2.32 5.68 0 2.078-.883 4.16-2.32 5.68-1.523 1.438-3.602 2.32-5.68 2.32s-4.164-.883-5.68-2.32c-1.445-1.52-2.32-3.602-2.32-5.68.001-2.16.876-4.16 2.321-5.68zm-4.64 203.359c-1.523 1.438-3.602 2.32-5.68 2.32s-4.164-.883-5.68-2.32c-1.445-1.52-2.32-3.602-2.32-5.68 0-2.082.875-4.16 2.32-5.68 3.039-2.961 8.32-2.961 11.359 0 1.438 1.52 2.32 3.598 2.32 5.68.001 2.079-.882 4.161-2.319 5.68zM184 300c0-24.3 19.699-44 44-44 24.3 0 44 19.699 44 44s-19.699 44-44 44-44-19.699-44-44zm84.277 138.911c-19.656 5.263-38.845-2.626-42.861-17.622-4.016-14.996 8.663-31.419 28.319-36.683 19.656-5.263 38.845 2.626 42.861 17.622s-8.663 31.419-28.319 36.683zM325.68 293.68c-1.523 1.438-3.602 2.32-5.68 2.32s-4.164-.883-5.68-2.32c-1.445-1.52-2.32-3.602-2.32-5.68 0-2.082.875-4.16 2.32-5.68 3.039-2.961 8.32-2.961 11.359 0 1.438 1.52 2.32 3.598 2.32 5.68.001 2.078-.882 4.16-2.319 5.68zM312 216c-13.255 0-24-10.745-24-24s10.745-24 24-24 24 10.745 24 24-10.745 24-24 24zm66.398-69.68c2.797-2.883 8.242-2.961 11.281 0 1.438 1.52 2.32 3.598 2.32 5.68 0 2.078-.883 4.16-2.32 5.68-1.523 1.438-3.602 2.32-5.68 2.32-2.164 0-4.164-.883-5.68-2.32-1.445-1.52-2.32-3.602-2.32-5.68.001-2.16.876-4.16 2.399-5.68zm5.458 206.253c-8.994 8.994-21.755 10.817-28.5 4.071-6.746-6.746-4.923-19.506 4.071-28.5 8.995-8.994 21.755-10.817 28.5-4.072s4.923 19.506-4.071 28.501zm4.433-84.937c-12.304-2.028-20.085-16.971-17.381-33.376 2.704-16.405 14.871-28.059 27.174-26.031s20.085 16.971 17.381 33.376c-2.704 16.405-14.871 28.059-27.174 26.031zM.435 254.289c-.047-.793-.101-1.583-.14-2.378.039.795.094 1.585.14 2.378zM298.142 7.107zM287.051 4.624zM264.009 1.192c1.172.117 2.338.254 3.506.387-1.167-.133-2.333-.27-3.506-.387zM.866 260.34c-.071-.843-.146-1.684-.208-2.529.062.845.138 1.687.208 2.529zM292.635 5.805zM269.87 1.849c1.265.157 2.523.334 3.782.511-1.259-.177-2.517-.354-3.782-.511zM275.664 2.642zM281.394 3.568zM3.982 283.7zM2.149 272.147zM14.108 321.229zM17.864 330.98zM20.031 336.094zM15.854 325.916zM5.1 289.396zM7.731 300.627c-.249-.956-.482-1.918-.72-2.879.238.961.471 1.923.72 2.879zM6.349 295.035c-.219-.931-.424-1.867-.632-2.802.208.935.414 1.871.632 2.802zM2.998 277.952zM9.242 306.163c-.29-1.011-.56-2.031-.837-3.047.276 1.017.547 2.036.837 3.047zM24.746 346.221zM29.933 356.127zM27.283 351.207zM22.327 341.18z" fill="#ffedb9"/><path d="M211.002 478.194C164.84 434.454 136 372.614 136 304c0-62.933 24.234-120.197 63.865-163 5.867 6.736 14.5 11 24.135 11 17.673 0 32-14.327 32-32 0-7.461-2.56-14.319-6.841-19.761a238.864 238.864 0 0151.329-24.104c.31 5.804 2.329 11.977 6.132 17.594 9.12 13.473 25.009 18.645 35.488 11.551 10.479-7.094 11.581-23.766 2.46-37.24a38.71 38.71 0 00-1.311-1.809A242.37 242.37 0 01376 64c9.822 0 19.485.659 28.998 1.806-28.207-26.727-62.88-46.698-101.437-57.281l-.237-.064c-1.72-.47-3.447-.921-5.182-1.353l-.627-.153a238.6 238.6 0 00-4.879-1.149c-.328-.073-.658-.143-.986-.215-1.528-.336-3.06-.66-4.599-.967-.444-.088-.89-.17-1.334-.256a236.733 236.733 0 00-4.322-.8c-.558-.097-1.12-.185-1.679-.278a235.443 235.443 0 00-4.05-.648c-.669-.1-1.342-.187-2.013-.282-1.259-.177-2.517-.354-3.782-.511-.783-.097-1.57-.179-2.355-.269-1.167-.134-2.333-.271-3.506-.387-.901-.09-1.807-.161-2.71-.241-1.069-.094-2.137-.195-3.21-.275-1.036-.077-2.079-.134-3.119-.198-.953-.059-1.904-.127-2.86-.175-1.244-.062-2.494-.099-3.743-.142-.763-.026-1.523-.065-2.288-.084A240.952 240.952 0 00240 0C107.452 0 0 107.452 0 240c0 1.997.027 3.988.076 5.973.016.669.049 1.334.07 2.001.043 1.314.086 2.628.15 3.937.039.795.093 1.585.14 2.378.069 1.176.137 2.351.223 3.522.062.845.137 1.686.208 2.529.093 1.112.187 2.223.296 3.33.085.872.181 1.74.276 2.609.117 1.071.236 2.141.367 3.208.109.889.226 1.775.345 2.66.139 1.037.282 2.072.434 3.105a237.081 237.081 0 00.914 5.72 221.93 221.93 0 001.046 5.66c.182.923.364 1.845.557 2.764.198.948.408 1.893.617 2.837.208.935.414 1.871.632 2.802.213.907.439 1.81.662 2.713.237.96.471 1.923.72 2.879.217.833.448 1.659.673 2.489.277 1.017.547 2.036.837 3.047.185.646.384 1.286.574 1.929a238.16 238.16 0 004.293 13.136c.086.239.167.481.254.72.483 1.329.986 2.649 1.492 3.967.16.418.315.839.477 1.255a238.237 238.237 0 001.533 3.809c.183.445.361.893.546 1.336a234.337 234.337 0 001.621 3.777c.187.427.371.856.561 1.282a241.922 241.922 0 001.735 3.804c.181.388.36.776.543 1.163a242.924 242.924 0 004.414 8.863c.126.241.254.481.381.722a238.433 238.433 0 002.269 4.198l.201.359c36.522 65.626 102.951 112.32 180.865 121.711zM309.08 56.49c9.987-6.761 24.821-2.287 34.093 9.802a238.416 238.416 0 00-42.589 9.867c-.433-8.116 2.386-15.533 8.496-19.669zM202.32 34.32c2.961-2.961 8.32-2.961 11.359 0 1.438 1.52 2.32 3.598 2.32 5.68 0 2.078-.883 4.16-2.32 5.68C212.156 47.117 210.078 48 208 48s-4.164-.883-5.68-2.32C200.875 44.16 200 42.16 200 40s.875-4.242 2.32-5.68zm-10.278 84.033c.829-16.363 13.949-29.482 30.312-30.312A33.27 33.27 0 01224 88c10.219 0 19.213 4.878 25.072 12.335a241.088 241.088 0 00-49.102 40.593c-4.9-5.622-7.97-12.884-7.97-20.928 0-.552.014-1.101.042-1.647zm-87.841-18.152c9.404-9.404 23.699-10.357 31.927-2.128 8.229 8.229 7.276 22.523-2.128 31.927s-23.699 10.357-31.927 2.128-7.276-22.523 2.128-31.927zM120 287.9c0 2.078-.883 4.16-2.32 5.68-1.523 1.438-3.602 2.32-5.68 2.32s-4.164-.883-5.68-2.32c-1.445-1.52-2.32-3.602-2.32-5.68 0-2.082.875-4.16 2.32-5.68 2.961-2.961 8.398-2.961 11.359 0 1.438 1.52 2.321 3.598 2.321 5.68zM48 224c0-17.673 12.536-32 28-32s28 14.327 28 32-12.536 32-28 32-28-14.327-28-32zm29.087 101.087c9.373-9.373 27.101-6.84 39.598 5.657s15.03 30.225 5.657 39.598c-9.373 9.373-27.101 6.84-39.598-5.657s-15.03-30.226-5.657-39.598z" fill="#ffd586"/><ellipse cx="76" cy="224" rx="28" ry="32" fill="#e7b27e"/><ellipse transform="rotate(45.001 99.719 347.714)" cx="99.714" cy="347.714" rx="32" ry="24" fill="#e7b27e"/><ellipse transform="rotate(-134.999 371.642 340.361)" cx="371.641" cy="340.359" rx="17.274" ry="23.032" fill="#ffd586"/><path d="M192 200c2.078 0 4.156-.883 5.68-2.32 1.438-1.52 2.32-3.602 2.32-5.68 0-2.082-.883-4.16-2.32-5.68-3.039-2.961-8.32-2.961-11.359 0-1.445 1.52-2.32 3.52-2.32 5.68 0 2.078.875 4.16 2.32 5.68 1.515 1.437 3.601 2.32 5.679 2.32z" fill="#ffd586"/><path d="M106.32 282.221c-1.445 1.52-2.32 3.598-2.32 5.68 0 2.078.875 4.16 2.32 5.68 1.516 1.438 3.602 2.32 5.68 2.32s4.156-.883 5.68-2.32c1.438-1.52 2.32-3.602 2.32-5.68 0-2.082-.883-4.16-2.32-5.68-2.961-2.961-8.399-2.961-11.36 0z" fill="#e7b27e"/><path d="M314.32 282.32c-1.445 1.52-2.32 3.598-2.32 5.68 0 2.078.875 4.16 2.32 5.68 1.516 1.438 3.602 2.32 5.68 2.32s4.156-.883 5.68-2.32c1.438-1.52 2.32-3.602 2.32-5.68 0-2.082-.883-4.16-2.32-5.68-3.039-2.961-8.321-2.961-11.36 0zM384 160c2.078 0 4.156-.883 5.68-2.32 1.438-1.52 2.32-3.602 2.32-5.68 0-2.082-.883-4.16-2.32-5.68-3.039-2.961-8.484-2.883-11.281 0-1.523 1.52-2.398 3.52-2.398 5.68 0 2.078.875 4.16 2.32 5.68 1.515 1.437 3.515 2.32 5.679 2.32z" fill="#ffd586"/><path d="M208 48c2.078 0 4.156-.883 5.68-2.32 1.438-1.52 2.32-3.602 2.32-5.68 0-2.082-.883-4.16-2.32-5.68-3.039-2.961-8.398-2.961-11.359 0C200.875 35.758 200 37.84 200 40s.875 4.16 2.32 5.68c1.516 1.437 3.602 2.32 5.68 2.32z" fill="#e7b27e"/><path d="M170.32 378.32c-1.445 1.52-2.32 3.598-2.32 5.68 0 2.078.875 4.16 2.32 5.68 1.516 1.438 3.602 2.32 5.68 2.32s4.156-.883 5.68-2.32c1.438-1.52 2.32-3.602 2.32-5.68 0-2.082-.883-4.16-2.32-5.68-3.039-2.961-8.321-2.961-11.36 0z" fill="#ffd586"/><circle cx="228" cy="300" r="44" fill="#ffd586"/><circle cx="312" cy="192" r="24" fill="#ffd586"/><ellipse transform="scale(-1) rotate(75.008 536.517 -340.08)" cx="261.006" cy="411.759" rx="28.109" ry="36.844" fill="#ffd586"/><ellipse transform="rotate(-80.636 393.198 237.922)" cx="393.186" cy="237.933" rx="30.104" ry="22.578" fill="#ffd586"/><path d="M199.97 140.928a241.034 241.034 0 0149.102-40.593C243.213 92.878 234.219 88 224 88c-.552 0-1.101.014-1.647.042-16.363.829-29.482 13.949-30.312 30.312A33.27 33.27 0 00192 120c0 8.043 3.07 15.306 7.97 20.928z" fill="#e7b27e"/><ellipse transform="rotate(45.001 119.102 115.1)" cx="119.1" cy="115.1" rx="21.071" ry="24.081" fill="#e7b27e"/><path d="M300.584 76.159a238.416 238.416 0 0142.589-9.867c-9.272-12.089-24.106-16.563-34.093-9.802-6.11 4.136-8.929 11.553-8.496 19.669z" fill="#e7b27e"/></svg>