<svg id="Layer_1" enable-background="new 0 0 512 512" height="512" viewBox="0 0 512 512" width="512" xmlns="http://www.w3.org/2000/svg"><g><g><g id="XMLID_718_"><g><g id="XMLID_1639_"><g id="XMLID_1640_"><g id="XMLID_1641_"><g id="XMLID_1642_"><g id="XMLID_1643_"><g id="XMLID_1644_"><g id="XMLID_1645_"><g id="XMLID_1646_"><g id="XMLID_1661_"><g id="XMLID_1690_"><g id="XMLID_1852_"><g id="XMLID_1867_"><g id="XMLID_1868_"><g id="XMLID_1987_"><circle cx="256" cy="256" fill="#00337a" r="256"/></g></g></g></g></g></g></g></g></g></g></g></g></g></g></g></g></g><path d="m512 256c0-.976-.026-1.946-.037-2.919l-124.723-124.723s-85.21-31.358-141.24-31.358c-48.959 0-127.326 17.479-127.326 17.479l206.993 207.187c-10.952 68.666-95.35 90-172 90-6.031 0-34.993-14.146-34.993-14.146l113.353 113.353c7.894.734 15.887 1.127 23.973 1.127 141.385 0 256-114.615 256-256z" fill="#002659"/><g><path d="m289.235 256c0-78.696-68.382-142.492-152.735-142.492-6.031 0-11.977.337-17.826.971 33.73-30.367 78.367-48.854 127.326-48.854 105.141 0 190.375 85.234 190.375 190.375s-85.234 190.375-190.375 190.375c-48.959 0-93.596-18.488-127.326-48.854 5.849.634 11.795.971 17.826.971 84.353 0 152.735-63.796 152.735-142.492z" fill="#fff4c5"/><path d="m436.38 256c0 101.79-79.89 184.92-180.38 190.12v-101.37c20.8-24.35 33.24-55.19 33.24-88.75s-12.44-64.4-33.24-88.75v-101.37c100.49 5.2 180.38 88.33 180.38 190.12z" fill="#ffea92"/></g></g></svg>