<svg id="Capa_1" enable-background="new 0 0 512 512" height="512" viewBox="0 0 512 512" width="512" xmlns="http://www.w3.org/2000/svg"><g><g><g><g><path d="m227.611 86.479h231.164v90.735h-231.164z" fill="#688d97"/></g><g><g><g><path d="m493.815 437.809v63.889c0 5.69-4.612 10.302-10.302 10.302h-280.641c-5.69 0-10.302-4.612-10.302-10.302v-63.889c0-71.363 57.851-129.215 129.215-129.215h42.815c71.363 0 129.215 57.852 129.215 129.215z" fill="#fb4a59"/><g><path d="m442.695 424.156v87.844h-15.453v-87.844c0-4.265 3.462-7.726 7.726-7.726 4.276 0 7.727 3.461 7.727 7.726z" fill="#f82f40"/></g><g><path d="m259.137 424.156v87.844h-15.453v-87.844c0-4.265 3.461-7.726 7.726-7.726 4.266 0 7.727 3.461 7.727 7.726z" fill="#f82f40"/></g><path d="m493.816 437.813v63.881c0 5.69-4.612 10.302-10.302 10.302h-24.606v-74.183c0-71.366-57.852-129.218-129.208-129.218h34.898c71.365-.001 129.218 57.852 129.218 129.218z" fill="#f82f40"/><path d="m370.601 277.67v48.767c0 15.133-12.274 27.406-27.406 27.406-15.144 0-27.418-12.274-27.418-27.406v-48.767z" fill="#fdb0a0"/><path d="m370.601 277.67v36.77c-8.292 3.743-17.583 5.842-27.406 5.842-9.824 0-19.125-2.099-27.418-5.842v-36.77z" fill="#f9a08f"/><g><g><g><g><circle cx="442.575" cy="180.147" fill="#f9a08f" r="31.392"/></g><g><circle cx="243.81" cy="180.147" fill="#f9a08f" r="31.392"/></g></g></g></g><path d="m433.698 138.882v60.303c0 49.909-39.917 91.257-89.826 91.638-50.3.361-91.195-40.287-91.195-90.505v-61.436c0-49.991 40.535-90.505 90.516-90.505 25.001 0 47.622 10.126 64.001 26.505 16.368 16.389 26.504 39.01 26.504 64z" fill="#fdb0a0"/><path d="m433.698 138.882v13.165c-7.262 2.38-14.988 3.636-22.94 3.636h-135.12c-7.952 0-15.678-1.267-22.961-3.647v-13.154c0-49.991 40.535-90.505 90.516-90.505 25.001 0 47.622 10.126 64.001 26.505 16.368 16.389 26.504 39.01 26.504 64z" fill="#f9a08f"/><g id="XMLID_226_"><path d="m385.757 185.468c-.031 0-.061 0-.092-.001-4.268-.049-7.729-3.549-7.679-7.816.048-4.236 3.456-7.637 7.68-7.637.031 0 .061 0 .092.001l.087.001c4.268.049 7.686 3.548 7.636 7.815-.049 4.236-3.499 7.637-7.724 7.637z" fill="#ba5d4f"/></g><g id="XMLID_225_"><path d="m300.716 185.468c-4.268 0-7.77-3.459-7.77-7.726 0-4.268 3.417-7.726 7.684-7.726h.086c4.268 0 7.726 3.459 7.726 7.726s-3.459 7.726-7.726 7.726z" fill="#ba5d4f"/></g></g></g></g><g><path d="m305.352 0c-39.732 0-74.106 28.304-81.014 67.431-.521 2.952-.948 5.944-1.277 8.97-.956 8.803.301 17.71 3.671 25.899l.012.029c8.154 19.816 27.464 32.751 48.892 32.751h135.125c21.451 0 40.776-12.961 48.916-32.808 3.352-8.174 4.6-17.059 3.648-25.842-.329-3.036-.757-6.037-1.28-8.998-6.908-39.127-41.282-67.432-81.014-67.432z" fill="#3f5959"/><path d="m463.633 82.165c0 6.881-1.339 13.711-3.955 20.108-8.138 19.85-27.463 32.809-48.92 32.809h-32.201c21.457 0 40.782-12.959 48.92-32.809 2.616-6.397 3.955-13.226 3.955-20.108 0-1.906-.103-3.822-.309-5.738-.33-3.028-.752-6.037-1.277-8.993-6.913-39.134-41.287-67.431-81.019-67.431h32.201c39.731 0 74.106 28.297 81.018 67.431.525 2.956.948 5.964 1.277 8.993.207 1.916.31 3.832.31 5.738z" fill="#384848"/></g></g><g><path d="m336.378 184.368c-14.693 5.352-48.735 21.053-57.549 53.982v28.032c0 9.309 5.334 17.786 13.716 21.836 10.959 5.295 28.194 11.185 50.648 11.185 22.453 0 39.689-5.889 50.648-11.185 8.382-4.05 13.716-12.527 13.716-21.836v-28.032c-8.814-32.929-42.856-48.63-57.549-53.982-4.404-1.604-9.226-1.604-13.63 0z" fill="#eff5f6"/><path d="m407.558 238.355v28.031c0 9.303-5.336 17.781-13.722 21.829-10.312 4.986-26.198 10.497-46.76 11.126 7.747-2.071 14.227-4.667 19.347-7.139 8.386-4.049 13.712-12.527 13.712-21.84v-28.031c-8.375-31.317-39.58-47.048-55.259-53.116 4.42-2.122 8.386-3.719 11.497-4.852 4.409-1.597 9.23-1.597 13.64 0 14.69 5.357 48.727 21.057 57.545 53.992z" fill="#cbe5e7"/></g><path d="m355.435 273.393h-24.484c-2.845 0-5.151-2.306-5.151-5.151v-24.484c0-2.845 2.306-5.151 5.151-5.151h24.484c2.845 0 5.151 2.306 5.151 5.151v24.484c-.001 2.845-2.307 5.151-5.151 5.151z" fill="#8dcafc"/></g><g><g><g><g><g><circle cx="164.117" cy="181.419" fill="#fcb3a9" r="16.605"/><path d="m175.856 193.158c-6.484 6.484-16.998 6.488-23.481.004-1.805-1.805-3.107-3.923-3.906-6.183 5.844 2.071 12.624.765 17.298-3.91 4.675-4.675 5.981-11.455 3.91-17.298 2.26.799 4.378 2.101 6.183 3.906 6.485 6.483 6.48 16.997-.004 23.481z" fill="#fc9085"/></g></g><g><g><circle cx="120.251" cy="115.824" fill="#fcb3a9" r="16.605"/><path d="m131.991 127.563c-6.484 6.484-16.998 6.488-23.481.004-1.805-1.805-3.107-3.923-3.906-6.183 5.843 2.071 12.624.765 17.298-3.91s5.981-11.455 3.91-17.298c2.26.799 4.378 2.101 6.183 3.906 6.484 6.483 6.48 16.997-.004 23.481z" fill="#fc9085"/></g></g><g><circle cx="96.047" cy="179.521" fill="#f82f40" r="58.871"/><path d="m137.678 221.151c-22.987 22.987-60.272 22.987-83.259 0-3.31-3.31-6.141-6.916-8.501-10.74 22.699 14.008 52.835 11.17 72.512-8.508s22.516-49.813 8.508-72.512c3.824 2.359 7.43 5.191 10.74 8.501 22.988 22.987 22.988 60.271 0 83.259z" fill="#e22334"/></g><g><g><circle cx="79.113" cy="235.24" fill="#fcb3a9" r="16.605"/><path d="m90.852 246.979c-6.484 6.484-16.998 6.488-23.481.004-1.805-1.805-3.107-3.923-3.906-6.183 5.844 2.071 12.624.765 17.298-3.91 4.675-4.675 5.981-11.455 3.91-17.298 2.26.799 4.378 2.101 6.183 3.906 6.484 6.483 6.48 16.997-.004 23.481z" fill="#fc9085"/></g></g><g><g><circle cx="114.237" cy="186.016" fill="#fcb3a9" r="16.605"/><path d="m125.977 197.755c-6.484 6.484-16.998 6.488-23.481.004-1.805-1.805-3.107-3.923-3.906-6.183 5.844 2.071 12.624.765 17.298-3.91 4.675-4.675 5.981-11.455 3.91-17.298 2.26.799 4.378 2.101 6.183 3.906 6.484 6.483 6.479 16.997-.004 23.481z" fill="#fc9085"/></g></g><g><g><circle cx="41.558" cy="177.731" fill="#fcb3a9" r="16.605"/><path d="m53.298 189.47c-6.484 6.484-16.998 6.488-23.481.004-1.805-1.805-3.107-3.923-3.906-6.183 5.844 2.071 12.624.765 17.298-3.91 4.675-4.675 5.981-11.455 3.91-17.298 2.26.799 4.378 2.101 6.183 3.906 6.484 6.483 6.48 16.997-.004 23.481z" fill="#fc9085"/></g></g></g></g><g><path d="m239.365 362.585c-1.978 0-3.955-.755-5.464-2.263l-72.985-72.987h-135.005c-4.268 0-7.726-3.459-7.726-7.726s3.459-7.726 7.726-7.726h138.206c2.049 0 4.014.814 5.464 2.263l75.248 75.25c3.017 3.018 3.017 7.909 0 10.928-1.509 1.506-3.487 2.261-5.464 2.261z" fill="#eff5f6"/></g><g><path d="m143.701 324.96h-97.722c-4.268 0-7.726-3.459-7.726-7.726s3.459-7.726 7.726-7.726h97.722c4.268 0 7.726 3.459 7.726 7.726s-3.458 7.726-7.726 7.726z" fill="#fb4a59"/></g><g><path d="m143.701 352.089h-55.672c-4.268 0-7.726-3.459-7.726-7.726s3.459-7.726 7.726-7.726h55.672c4.268 0 7.726 3.459 7.726 7.726s-3.458 7.726-7.726 7.726z" fill="#7da2b0"/></g><g><path d="m143.701 379.216h-55.672c-4.268 0-7.726-3.459-7.726-7.726s3.459-7.726 7.726-7.726h55.672c4.268 0 7.726 3.459 7.726 7.726s-3.458 7.726-7.726 7.726z" fill="#7da2b0"/></g><g><path d="m133.078 456.117h-24.697c-5.69 0-10.302-4.612-10.302-10.302v-24.697c0-5.69 4.612-10.302 10.302-10.302h24.697c5.69 0 10.302 4.612 10.302 10.302v24.697c0 5.69-4.612 10.302-10.302 10.302z" fill="#fb4a59"/><path d="m143.378 421.116v24.704c0 5.687-4.605 10.302-10.302 10.302h-22.643c5.687 0 10.302-4.615 10.302-10.302v-24.704c0-5.687-4.615-10.302-10.302-10.302h22.643c5.697 0 10.302 4.615 10.302 10.302z" fill="#f82f40"/></g></g></g></svg>