<svg xmlns="http://www.w3.org/2000/svg" id="Layer_1" enable-background="new 0 0 512.676 512.676" height="512" viewBox="0 0 512.676 512.676" width="512"><g><path d="m474.259.289h-188.759c-21.217 0-38.417 17.2-38.417 38.417v79.937c0 21.217 17.2 38.417 38.417 38.417h18.431l22.89 39.646c3.294 5.706 11.529 5.706 14.823 0l22.89-39.646h109.724c21.217 0 38.417-17.2 38.417-38.417v-79.937c.001-21.217-17.199-38.417-38.416-38.417z" fill="#9df"/><path d="m474.259.289h-94.895v156.772h94.895c21.217 0 38.417-17.2 38.417-38.417v-79.938c0-21.217-17.2-38.417-38.417-38.417z" fill="#9df"/><g><g><path d="m28.297 112.628 44.595-44.743c7.122-7.122 15.074-6.738 21.354-.459l93.402 93.402c6.027 6.027 6.027 15.8 0 21.827l-52.404 52.404c-7.51 7.51-7.51 19.685 0 27.195l122.182 122.182c6.391 6.391 16.752 6.391 23.143 0l55.847-55.847c6.027-6.027 15.8-6.027 21.827 0l93.645 93.645c6.027 6.027 6.027 15.8 0 21.827l-31.568 31.569c-15.473 15.473-34.637 26.876-55.785 32.496-.976.259-1.946.507-2.911.742-42.111 10.288-86.526-2.727-117.179-33.38l-209.323-209.322c-17.033-17.033-28.872-38.705-33.231-62.396-10.549-57.334 26.406-91.142 28.009-92.899" fill="#0a8"/></g></g><circle cx="320.234" cy="77.744" fill="#192b80" r="15.585"/><circle cx="379.363" cy="77.744" fill="#192b80" r="15.585"/><circle cx="438.493" cy="77.744" fill="#192b80" r="15.585"/><path d="m394.948 77.744c0-8.607-6.978-15.585-15.585-15.585v31.17c8.608 0 15.585-6.978 15.585-15.585z" fill="#192b80"/><path d="m451.888 422.234-93.644-93.644c-6.027-6.027-15.8-6.027-21.827 0l-55.847 55.847c-6.391 6.391-16.752 6.391-23.143 0l-61.751-61.751-52.017 52.017 100.991 100.99c30.279 30.279 74.054 43.282 115.735 33.472.863-.203 1.73-.415 2.601-.637 21.795-5.543 41.578-17.143 57.48-33.045l31.422-31.422c6.027-6.027 6.027-15.799 0-21.827z" fill="#00aa88"/></g></svg>