<?xml version="1.0" encoding="iso-8859-1"?>
<!-- Generator: Adobe Illustrator 19.0.0, SVG Export Plug-In . SVG Version: 6.00 Build 0)  -->
<svg version="1.1" id="Layer_1" xmlns="http://www.w3.org/2000/svg" xmlns:xlink="http://www.w3.org/1999/xlink" x="0px" y="0px"
	 viewBox="0 0 512 512" style="enable-background:new 0 0 512 512;" xml:space="preserve">
<circle style="fill:#334D5C;" cx="256" cy="256" r="256"/>
<path style="opacity:0.1;enable-background:new    ;" d="M504.635,316.96L328.181,140.501l-0.053,0.048
	c-18.096-19.179-43.68-31.216-72.128-31.216c-54.811,0-99.243,44.432-99.243,99.243S256,402.667,256,402.667l0,0l92.165,92.165
	C425.499,464.965,484.667,398.677,504.635,316.96z"/>
<path style="fill:#EBF0F3;" d="M256,109.333v44.133c30.437,0,55.109,24.672,55.109,55.109S286.437,263.685,256,263.685v138.981
	c0.005-0.011,99.243-139.28,99.243-194.091S310.811,109.333,256,109.333z"/>
<path style="fill:#FFFFFF;" d="M256,263.685c-30.437,0-55.109-24.672-55.109-55.109s24.672-55.109,55.109-55.109l0,0v-44.133l0,0
	c-54.811,0-99.243,44.432-99.243,99.243S256,402.667,256,402.667l0,0V263.685L256,263.685z"/>
<g>
</g>
<g>
</g>
<g>
</g>
<g>
</g>
<g>
</g>
<g>
</g>
<g>
</g>
<g>
</g>
<g>
</g>
<g>
</g>
<g>
</g>
<g>
</g>
<g>
</g>
<g>
</g>
<g>
</g>
</svg>
