<svg xmlns="http://www.w3.org/2000/svg" viewBox="0 0 512 512"><circle cx="256" cy="256" r="256" fill="#334d5c"/><path d="M504.635 316.96L328.181 140.501l-.053.048c-18.096-19.179-43.68-31.216-72.128-31.216-54.811 0-99.243 44.432-99.243 99.243S256 402.667 256 402.667l92.165 92.165c77.334-29.867 136.502-96.155 156.47-177.872z" opacity=".1"/><path d="M256 109.333v44.133c30.437 0 55.109 24.672 55.109 55.109s-24.672 55.11-55.109 55.11v138.981c.005-.011 99.243-139.28 99.243-194.091S310.811 109.333 256 109.333z" fill="#ebf0f3"/><path d="M256 263.685c-30.437 0-55.109-24.672-55.109-55.109s24.672-55.109 55.109-55.109v-44.133c-54.811 0-99.243 44.432-99.243 99.243S256 402.667 256 402.667V263.685z" fill="#fff"/></svg>