<svg id="Layer_1" enable-background="new 0 0 512 512" height="512" viewBox="0 0 512 512" width="512" xmlns="http://www.w3.org/2000/svg"><g><g><path d="m224.282 173.546c4.143 0 7.5-3.358 7.5-7.5v-4.617c0-4.142-3.357-7.5-7.5-7.5s-7.5 3.358-7.5 7.5v4.617c0 4.142 3.358 7.5 7.5 7.5z"/><path d="m287.718 173.546c4.143 0 7.5-3.358 7.5-7.5v-4.617c0-4.142-3.357-7.5-7.5-7.5s-7.5 3.358-7.5 7.5v4.617c0 4.142 3.357 7.5 7.5 7.5z"/><path d="m344 316.265h-35.5v-22.5c0-4.142-3.357-7.5-7.5-7.5h-7.5v-11.765h7.5c7.444 0 13.5-6.056 13.5-13.5v-11.719c14.976-13.464 24.728-31.465 27.882-51.092 1.193.199 2.4.312 3.618.312 15.421 0 27.5-15.593 27.5-35.5 0-11.146-4.042-21.522-10.644-28.13 9.64-25.427 18.872-59.411 10.077-80.73-2.89-7.005-6.196-13.036-10.109-18.436-2.43-3.355-7.119-4.103-10.474-1.674-3.354 2.43-4.104 7.12-1.673 10.474 3.211 4.433 5.955 9.456 8.389 15.356 6.627 16.064-1.015 46.67-12.249 74.852-.009.024-.021.048-.029.073-2.323 5.824-4.795 11.547-7.331 17.012-5.111-2.344-9.483-6.364-12.391-11.417-6.083-10.575-20.48-28.316-48.567-28.316-32.202 0-57.246-37.319-57.49-37.688-1.282-1.951-3.4-3.193-5.729-3.36-2.314-.171-4.602.758-6.15 2.506-.133.149-13.338 15.058-23.425 27.332-5.306 6.455-8.08 16.618-8.248 30.208-.083 6.671-3.773 12.656-9.529 15.659-4.78-12.584-14.429-42.456-14.429-78.438 0-11.004 6.288-18.826 19.223-23.914 10.832-4.26 22.05-4.689 22.149-4.692 3.586-.111 6.467-2.124 7.048-5.629.737-1.74 9.445-19.049 62.466-19.049 28.078 0 49.128 3.667 64.353 11.209 3.713 1.838 8.212.32 10.05-3.391 1.839-3.712.32-8.211-3.392-10.05-17.342-8.592-40.57-12.768-71.011-12.768-52.11 0-69.176 16.071-74.632 24.984-20.001 1.922-51.253 12.68-51.253 43.298 0 27.068 5.115 50.895 9.925 67.325-6.214 6.639-9.925 16.64-9.925 27.393 0 19.907 12.079 35.5 27.5 35.5 1.219 0 2.427-.113 3.621-.312 2.881 18.064 11.321 34.721 24.506 47.906 1.103 1.102 2.231 2.167 3.373 3.194v11.712c0 7.444 6.056 13.5 13.5 13.5h7.5v11.765h-7.5c-4.143 0-7.5 3.358-7.5 7.5v22.5h-35.5c-25.089 0-45.5 20.411-45.5 45.5v22.107c0 4.142 3.357 7.5 7.5 7.5s7.5-3.358 7.5-7.5v-22.107c0-15.634 11.824-28.559 27-30.3v165.535h-27v-80.57c0-4.142-3.357-7.5-7.5-7.5s-7.5 3.358-7.5 7.5v88.07c0 4.142 3.357 7.5 7.5 7.5h252c4.143 0 7.5-3.358 7.5-7.5v-142.735c0-25.089-20.411-45.5-45.5-45.5zm-62-15h11.5v15h-29.668c1.641-8.534 9.163-15 18.168-15zm17.5-96.765v25h-87v-25zm15 22.52v-19.163l11.715-5.631c-2.285 8.94-6.256 17.345-11.715 24.794zm44-64.02c0 9.696-5.134 20.5-12.5 20.5-.842 0-1.676-.159-2.5-.463v-16.333c3.86-1 7.251-3.647 9.066-7.523 1.073-2.293 2.286-4.96 3.575-7.899 1.422 3.177 2.359 7.129 2.359 11.718zm-166.044-31.753c.122-9.81 1.84-17.221 4.838-20.869 5.642-6.865 12.294-14.588 17.001-19.994 10.431 12.77 33.996 36.68 64.205 36.68 19.509 0 30.108 11.309 35.565 20.795 3.545 6.163 8.545 11.336 14.435 15.027v21.333c0 .09-.007.178-.007.268l-18.197 8.746c-2.423-2.308-5.693-3.735-9.295-3.735h-90c-3.606 0-6.878 1.43-9.302 3.741l-18.192-8.798c0-.075-.005-.148-.005-.223v-30.754c5.541-5.881 8.849-13.747 8.954-22.217zm-38.956 31.753c0-3.095.451-6.087 1.27-8.793 1.375 3.153 3.844 5.628 7.026 6.985 2.15.918 4.445 1.248 6.704 1.004v20.841c-.824.303-1.658.463-2.5.463-7.366 0-12.5-10.804-12.5-20.5zm32.236 39.184 11.764 5.689v19.189c-5.515-7.498-9.491-15.92-11.764-24.878zm26.764 42.316h87v15h-87zm66 30v11.949c-9.055.944-17.046 5.513-22.5 12.222-5.454-6.71-13.445-11.278-22.5-12.222v-11.949zm-60 26.765h11.5c9.005 0 16.527 6.466 18.168 15h-29.668zm-39 195.735v-165.735h24v165.735zm121.5-16.209c-4.143 0-7.5 3.358-7.5 7.5v8.709h-75v-165.735h75v128.142c0 4.142 3.357 7.5 7.5 7.5s7.5-3.358 7.5-7.5v-128.142h24v165.735h-24v-8.709c0-4.143-3.357-7.5-7.5-7.5zm73.5 16.209h-27v-165.536c15.176 1.742 27 14.666 27 30.3z"/><path d="m256 352.5c-4.143 0-7.5 3.358-7.5 7.5v8.516c0 4.142 3.357 7.5 7.5 7.5s7.5-3.358 7.5-7.5v-8.516c0-4.142-3.357-7.5-7.5-7.5z"/><path d="m256 407.242c-4.143 0-7.5 3.358-7.5 7.5v8.516c0 4.142 3.357 7.5 7.5 7.5s7.5-3.358 7.5-7.5v-8.516c0-4.142-3.357-7.5-7.5-7.5z"/><path d="m256 461.984c-4.143 0-7.5 3.358-7.5 7.5v8.516c0 4.142 3.357 7.5 7.5 7.5s7.5-3.358 7.5-7.5v-8.516c0-4.142-3.357-7.5-7.5-7.5z"/></g></g></svg>