<svg xmlns="http://www.w3.org/2000/svg" height="512" width="512"><path d="M227.611 86.479h231.164v90.735H227.611z" fill="#688d97"/><path d="M493.815 437.809v63.889c0 5.69-4.612 10.302-10.302 10.302H202.872c-5.69 0-10.302-4.612-10.302-10.302v-63.889c0-71.363 57.851-129.215 129.215-129.215H364.6c71.363 0 129.215 57.852 129.215 129.215z" fill="#28a745"/><path d="M442.7 424.156V512h-15.453v-87.844a7.73 7.73 0 017.726-7.726 7.729 7.729 0 017.727 7.726z" fill="#28a745aa"/><path d="M259.142 424.156V512h-15.453v-87.844a7.722 7.722 0 017.726-7.726 7.729 7.729 0 017.727 7.726zM493.816 437.813v63.881c0 5.69-4.612 10.302-10.302 10.302h-24.606v-74.183c0-71.366-57.852-129.218-129.208-129.218h34.898c71.365-.001 129.218 57.852 129.218 129.218z" fill="#28a745"/><path d="M370.601 277.67v48.767c0 15.133-12.274 27.406-27.406 27.406-15.144 0-27.418-12.274-27.418-27.406V277.67z" fill="#fdb0a0"/><g fill="#f9a08f"><path d="M370.601 277.67v36.77c-8.292 3.743-17.583 5.842-27.406 5.842-9.824 0-19.125-2.099-27.418-5.842v-36.77z"/><circle cx="442.575" cy="180.147" r="31.392"/><circle cx="243.81" cy="180.147" r="31.392"/></g><path d="M433.698 138.882v60.303c0 49.909-39.917 91.257-89.826 91.638-50.3.361-91.195-40.287-91.195-90.505v-61.436c0-49.991 40.535-90.505 90.516-90.505 25.001 0 47.622 10.126 64.001 26.505 16.368 16.389 26.504 39.01 26.504 64z" fill="#fdb0a0"/><path d="M433.698 138.882v13.165c-7.262 2.38-14.988 3.636-22.94 3.636h-135.12a73.829 73.829 0 01-22.961-3.647v-13.154c0-49.991 40.535-90.505 90.516-90.505 25.001 0 47.622 10.126 64.001 26.505 16.368 16.389 26.504 39.01 26.504 64z" fill="#f9a08f"/><path d="M305.352 0c-39.732 0-74.106 28.304-81.014 67.431a136.505 136.505 0 00-1.277 8.97 53.019 53.019 0 003.671 25.899l.012.029c8.154 19.816 27.464 32.751 48.892 32.751h135.125a52.87 52.87 0 0048.916-32.808 53.045 53.045 0 003.648-25.842 135.92 135.92 0 00-1.28-8.998C455.137 28.305 420.763 0 381.031 0z" fill="#3f5959"/><path d="M463.633 82.165a53.122 53.122 0 01-3.955 20.108c-8.138 19.85-27.463 32.809-48.92 32.809h-32.201c21.457 0 40.782-12.959 48.92-32.809a53.119 53.119 0 003.646-25.846c-.33-3.028-.752-6.037-1.277-8.993C422.934 28.3 388.559.003 348.828.003h32.201c39.731 0 74.106 28.297 81.018 67.431a134.64 134.64 0 011.277 8.993c.206 1.916.309 3.832.309 5.738z" fill="#384848"/><path d="M133.079 456.117h-24.697c-5.69 0-10.302-4.612-10.302-10.302v-24.697c0-5.69 4.612-10.302 10.302-10.302h24.697c5.69 0 10.302 4.612 10.302 10.302v24.697c-.001 5.69-4.613 10.302-10.302 10.302z" fill="#28a745"/><path d="M143.378 421.116v24.704c0 5.687-4.605 10.302-10.302 10.302h-22.643c5.687 0 10.302-4.615 10.302-10.302v-24.704c0-5.687-4.615-10.302-10.302-10.302h22.643c5.697 0 10.302 4.615 10.302 10.302z" fill="#28a746"/><path d="M103.063 241.187a4.196 4.196 0 01-2.538 0c-21.716-6.906-38.63-18.584-50.335-34.772a83.061 83.061 0 01-5.56-8.801c-4.127-7.548-6.232-16.035-6.232-24.637v-64.189a4.215 4.215 0 013.218-4.096l59.18-14.412c.655-.16 1.34-.16 1.995 0l59.18 14.412a4.215 4.215 0 013.218 4.096v70.42c0 2.521-.424 5.022-1.269 7.397-1.665 4.685-4.85 11.965-10.524 19.811-11.703 16.187-28.617 27.865-50.333 34.771z" fill="#28a745"/><path d="M165.185 108.787v70.423c0 2.514-.422 5.017-1.267 7.397-1.659 4.677-4.842 11.96-10.518 19.81-11.703 16.184-28.618 27.866-50.335 34.769a4.28 4.28 0 01-2.545 0c-7.191-2.287-13.856-5.1-19.975-8.427 20.346-6.995 36.283-18.348 47.46-33.81 5.676-7.85 8.86-15.123 10.528-19.81a22.105 22.105 0 001.267-7.397v-70.423c0-.793-.216-1.535-.597-2.174l22.767 5.543a4.22 4.22 0 013.215 4.099z" fill="#28a74500"/><path d="M385.844 170.016l-.088-.001-.091-.001c-4.224 0-7.632 3.401-7.68 7.638-.049 4.267 3.413 7.767 7.681 7.815l.091.001a7.726 7.726 0 007.723-7.638 7.723 7.723 0 00-7.636-7.814zM300.715 170.015h-.086c-4.268 0-7.684 3.459-7.684 7.726 0 4.268 3.502 7.726 7.77 7.726s7.726-3.459 7.726-7.726a7.725 7.725 0 00-7.726-7.726z" fill="#3f5959"/><path d="M169.581 274.145a7.728 7.728 0 00-5.464-2.263H25.911a7.726 7.726 0 100 15.452h135.006l72.985 72.987a7.706 7.706 0 005.464 2.263 7.729 7.729 0 005.464-13.191z" fill="#eff5f6"/><path d="M143.701 309.507H45.979a7.726 7.726 0 100 15.452h97.722c4.268 0 7.726-3.459 7.726-7.726s-3.458-7.726-7.726-7.726z" fill="#28a745"/><path d="M143.701 336.636H88.03a7.726 7.726 0 100 15.452h55.671c4.268 0 7.726-3.459 7.726-7.726s-3.458-7.726-7.726-7.726zM143.701 363.764H88.03a7.726 7.726 0 100 15.452h55.671c4.268 0 7.726-3.459 7.726-7.726s-3.458-7.726-7.726-7.726z" fill="#7da2b0"/><path d="M83.177 169.257h10.89v10.89a7.725 7.725 0 007.726 7.726 7.725 7.725 0 007.726-7.726v-10.89h10.89a7.726 7.726 0 100-15.452h-10.89v-10.89a7.725 7.725 0 00-7.726-7.726 7.725 7.725 0 00-7.726 7.726v10.89h-10.89a7.726 7.726 0 100 15.452z" fill="#eff5f6"/><path d="M369.854 214.291c-4.277-.142-7.846 3.178-8 7.443a18.609 18.609 0 01-18.666 17.997 18.607 18.607 0 01-18.666-17.996c-.153-4.265-3.737-7.602-7.999-7.444a7.726 7.726 0 00-7.444 7.999 34.006 34.006 0 0034.109 32.893 34.008 34.008 0 0034.109-32.892 7.726 7.726 0 00-7.443-8z" fill="#fc7c6a"/></svg>