<?xml version="1.0" encoding="utf-8"?>
<!-- Generator: Adobe Illustrator 21.1.0, SVG Export Plug-In . SVG Version: 6.00 Build 0)  -->
<svg version="1.1" id="Capa_1" xmlns="http://www.w3.org/2000/svg" xmlns:xlink="http://www.w3.org/1999/xlink" x="0px" y="0px"
	 viewBox="0 0 1200 1200" enable-background="new 0 0 1200 1200" xml:space="preserve">
<g>
	<g>
		<path fill="#34A59A" d="M1149.068,606.171c-5.366-39.891-32.917-72.531-55.657-105.743
			c-61.214-89.405-93.136-196.648-157.116-284.094S755.593,62.564,656.746,106.943c-46.362,20.815-80.186,62.193-123.643,88.539
			c-56.095,34.008-128.013,40.534-189.314,17.178c-41.544-15.829-78.25-44.426-121.765-53.535
			c-51.909-10.866-109.159,9.98-141.928,51.679c-32.769,41.699-39.488,102.254-16.657,150.123
			c18.603,39.003,54.175,68.359,70.512,108.364c37.449,91.703-38.664,197.188-12.36,292.687
			c17.157,62.286,75.674,109.679,81.918,173.982c0.51,5.255,0.639,10.566,0.588,15.9c81.001,87.827,279.852,241.557,571.375,60.968
			c0,0,80.747-54.977,116.825-137.441l1.825,4.438c12.545-16.645,26.918-32.055,43.929-45.691
			c42.781-34.269,94.416-55.933,138.005-89.169C1119.644,711.728,1156.376,660.496,1149.068,606.171z"/>
	</g>
	<g>
		<g>
			<path fill="#273252" d="M903.427,845.082c-62.885,145.636-207.894,247.831-376.342,247.831S213.629,990.718,150.744,845.082
				h-15.539c63.738,153.728,215.376,262.144,391.881,262.144S855.229,998.81,918.967,845.082H903.427z"/>
		</g>
	</g>
	<g>
		<g>
			<g>
				<g>
					<g>
						<g>
							<path fill="#FCB598" d="M770.36,632.937c0.112-14.369,26.595-13.506,34.912-13.413
								c44.258,0.493,76.232,59.415,57.047,107.232c-9.885,24.637-28.04,35.907-49.629,42.824
								c-9.957,3.19-43.145,12.849-43.026-8.909C769.663,760.627,770.354,633.922,770.36,632.937z"/>
						</g>
					</g>
					<g>
						<g>
							<path fill="#EA6565" d="M822.733,657.648c6.862,5.289,12.133,12.676,15.409,21.046c3.208,8.377,3.919,18.154,1.185,27.067
								c-1.35,4.44-3.417,8.598-5.933,12.385c-1.355,1.818-2.635,3.693-4.198,5.305c-0.767,0.816-1.456,1.709-2.285,2.453
								l-2.439,2.272c-6.627,5.897-14.282,10.251-22.391,13.179c6.444-5.73,12.787-11.227,18.026-17.481
								c2.65-3.089,5.009-6.331,7.052-9.702c1.954-3.414,3.594-6.946,4.699-10.631c2.244-7.362,2.235-15.264,0.446-23.057
								C830.494,672.681,827.114,665.034,822.733,657.648z"/>
						</g>
					</g>
					<g>
						<g>
							<path fill="#EA6565" d="M836.502,691.716c-1.894,5.097-5.109,9.598-8.94,13.53c-3.864,3.9-8.574,7.163-13.923,9.152
								c-5.313,2.044-11.309,2.573-16.86,1.443c-5.557-1.149-10.595-3.845-14.491-7.578c5.205,1.47,10.172,2.628,15.069,2.709
								c4.88,0.108,9.607-0.709,14.109-2.416c4.511-1.67,8.814-4.12,12.931-7.032C828.54,698.624,832.488,695.307,836.502,691.716z"
								/>
						</g>
					</g>
				</g>
			</g>
			<g>
				<g>
					<g>
						<g>
							<path fill="#FCB598" d="M283.812,632.937c-0.112-14.369-26.595-13.506-34.912-13.413
								c-44.258,0.493-76.232,59.415-57.047,107.232c9.885,24.637,28.04,35.907,49.629,42.824
								c9.957,3.19,43.145,12.849,43.026-8.909C284.508,760.627,283.817,633.922,283.812,632.937z"/>
						</g>
					</g>
					<g>
						<g>
							<path fill="#EA6565" d="M231.438,657.648c-4.381,7.385-7.761,15.033-9.57,22.838c-1.79,7.793-1.798,15.695,0.446,23.057
								c1.104,3.684,2.745,7.217,4.699,10.631c2.043,3.371,4.402,6.613,7.052,9.702c5.239,6.254,11.582,11.751,18.026,17.481
								c-8.11-2.928-15.765-7.282-22.391-13.179l-2.439-2.272c-0.829-0.745-1.518-1.637-2.285-2.453
								c-1.563-1.613-2.843-3.487-4.198-5.305c-2.517-3.786-4.583-7.945-5.933-12.385c-2.734-8.913-2.023-18.69,1.185-27.067
								C219.305,670.324,224.577,662.938,231.438,657.648z"/>
						</g>
					</g>
					<g>
						<g>
							<path fill="#EA6565" d="M217.67,691.716c4.014,3.591,7.962,6.908,12.105,9.808c4.117,2.912,8.421,5.361,12.931,7.032
								c4.502,1.708,9.229,2.524,14.109,2.416c4.896-0.081,9.864-1.239,15.069-2.709c-3.895,3.733-8.934,6.429-14.491,7.578
								c-5.552,1.13-11.548,0.601-16.86-1.443c-5.349-1.99-10.059-5.252-13.923-9.152
								C222.779,701.314,219.563,696.813,217.67,691.716z"/>
						</g>
					</g>
				</g>
			</g>
			<g>
				<g>
					<path fill="#FCB598" d="M303.149,421.617c-6.938,5.369-9.75,33.94-11.674,41.774c-8.757,35.646-15.104,71.94-18.959,108.441
						c-10.398,98.454-3.442,203.972,44.406,292.585c28.046,51.941,71.073,95.983,122.868,126.715
						c65.345,38.772,127.896,31.331,192.287-7.371c84.654-50.88,130.172-140.797,144.066-236.453
						c11.601-79.867,3.996-161.898-11.045-240.765C765.098,506.544,592.672,197.721,303.149,421.617z"/>
				</g>
			</g>
			<g>
				<g>
					<path fill="#312E4C" d="M710.449,566.311c8.332,2.703,14.677-7.557,8.512-13.779c-9.3-9.385-20.352-16.749-32.105-21.756
						c-20.32-8.658-42.62-10.6-64.234-8.105c-11.478,1.325-27.797,4.106-34.385,16.101c-6.141,11.182-1.543,17.809,8.949,17.025
						c30.229-2.26,59.279-2.675,89.226,3.966C694.504,561.558,702.527,563.742,710.449,566.311z"/>
				</g>
			</g>
			<g>
				<g>
					<path fill="#312E4C" d="M331.322,576.799c-10.166,3.83-18.566-8.814-10.853-16.464c7.354-7.292,15.755-13.359,24.701-17.996
						c19.61-10.165,41.7-13.782,63.441-12.924c11.546,0.456,28.028,1.999,35.501,13.463c6.967,10.687,2.882,17.642-7.64,17.651
						c-30.313,0.025-59.312,1.802-88.674,10.681C342.254,572.887,336.759,574.751,331.322,576.799z"/>
				</g>
			</g>
			<g>
				<g opacity="0.3">
					<ellipse fill="#FF8B88" cx="367.288" cy="772.231" rx="53.908" ry="54.402"/>
				</g>
			</g>
			<g opacity="0.3">
				<g>
					<ellipse fill="#FF8B88" cx="687.718" cy="769.398" rx="53.908" ry="54.402"/>
				</g>
			</g>
			<g>
				<g>
					<path fill="#EA5467" d="M565.841,742.002c-1.162-5.092-4.064-10.227-5.906-14.793c-5.384-13.344-9.769-28.88-13.178-43.541
						c-2.74-11.782-2.421-36.875-13.506-43.67c-15.139-9.278-22.976,14.18-25.082,25.101c-4.125,21.389-2.902,41.52-15.974,60.363
						c-7.978,11.5-13.829,21.595-0.584,31.945c9.147,7.147,24.481,14.351,36.229,12.592c11.5-1.722,28.155-6.133,35.754-15.823
						C566.575,750.375,566.8,746.203,565.841,742.002z"/>
				</g>
			</g>
			<g>
				<g>
					<g>
						<path fill="#312E4C" d="M622.698,622.212c-2.329,6.159-3.658,13.226-3.658,20.747c0,23.851,13.317,43.185,29.745,43.185
							c16.428,0,29.745-19.335,29.745-43.185c0-7.521-1.329-14.589-3.658-20.747H622.698z"/>
					</g>
				</g>
			</g>
			<g>
				<g>
					<g>
						<path fill="#FCB598" d="M600.062,670.064c1.224,5.391,2.592,10.456,4.172,15.272c1.601,4.8,3.516,9.238,5.768,13.189
							c0.595,0.943,1.102,2.021,1.759,2.871c0.636,0.882,1.284,1.747,1.908,2.662c1.385,1.565,2.74,3.273,4.316,4.526
							c3.021,2.931,6.523,4.609,10.189,6.75c-3.854,0.497-7.988,0.102-11.719-2.309l-1.429-0.806
							c-0.478-0.272-0.885-0.731-1.332-1.09c-0.867-0.783-1.774-1.507-2.614-2.363c-0.797-0.936-1.57-1.922-2.356-2.892
							c-0.78-0.979-1.39-2.186-2.088-3.278c-2.623-4.578-4.476-9.949-5.587-15.507C599.959,681.534,599.479,675.725,600.062,670.064
							z"/>
					</g>
				</g>
			</g>
			<g>
				<g>
					<g>
						<g>
							<path fill="#312E4C" d="M367.237,622.212c-2.329,6.159-3.658,13.226-3.658,20.747c0,23.851,13.317,43.185,29.745,43.185
								c16.428,0,29.745-19.335,29.745-43.185c0-7.521-1.329-14.589-3.658-20.747H367.237z"/>
						</g>
					</g>
				</g>
				<g>
					<g>
						<g>
							<path fill="#FCB598" d="M442.046,670.064c0.583,5.661,0.103,11.47-0.986,17.028c-1.111,5.558-2.964,10.929-5.587,15.507
								c-0.698,1.092-1.309,2.299-2.088,3.278c-0.785,0.969-1.559,1.955-2.355,2.892c-0.84,0.856-1.747,1.58-2.614,2.363
								c-0.447,0.359-0.854,0.818-1.332,1.09l-1.429,0.806c-3.731,2.41-7.865,2.806-11.719,2.309
								c3.665-2.141,7.168-3.819,10.189-6.75c1.576-1.253,2.931-2.962,4.316-4.526c0.624-0.915,1.272-1.78,1.908-2.662
								c0.657-0.85,1.164-1.928,1.759-2.871c2.252-3.951,4.166-8.389,5.768-13.189C439.454,680.519,440.821,675.454,442.046,670.064
								z"/>
						</g>
					</g>
				</g>
			</g>
			<g>
				<g>
					<path fill="#312E4C" d="M508.876,849.51c11.801-4.21,25.128-2.682,36.653,2.234c11.525,4.916,21.443,12.988,30.305,21.846
						c1.41,1.41,2.865,2.967,3.211,4.931c0.55,3.125-1.863,5.951-4.282,8.005c-9.702,8.241-22.58,12.641-35.296,12.061
						c-8.458-0.386-16.664-2.866-25.018-4.244c-8.365-1.38-16.915-1.661-25.158-3.647
						C453.666,882.113,491.479,855.716,508.876,849.51z"/>
				</g>
			</g>
			<g>
				<g>
					<path fill="#EA6565" d="M525.057,872.85c-15.379,0-29.243,6.51-39.064,16.934c1.023,0.322,2.117,0.627,3.298,0.912
						c8.242,1.986,16.793,2.266,25.158,3.647c8.354,1.378,16.56,3.858,25.018,4.244c9.312,0.425,18.705-1.831,26.88-6.3
						C556.458,880.407,541.635,872.85,525.057,872.85z"/>
				</g>
			</g>
			<g>
				<g>
					<ellipse fill="#E4BAE5" cx="378.474" cy="654.444" rx="4.04" ry="9.861"/>
				</g>
			</g>
			<g>
				<g>
					<ellipse fill="#E4BAE5" cx="633.81" cy="654.444" rx="4.04" ry="9.861"/>
				</g>
			</g>
			<g>
				<path fill="#312E4C" d="M284.122,612.904c5.638-7.924,6.741-18.09,7.903-27.746c5.828-48.438,10.887-104.798,52.018-137.579
					c20.173-16.078,45.792-23.309,70.66-30.167c45.235-12.474,94.814-24.7,137.735-5.738c19.588,8.654,36.165,23.28,56.052,31.225
					c53.457,21.356,114.03,14.161,142.477,76.184c5.917,12.901,8.789,26.97,13.716,40.281c7.864,21.245,2.448,46.43,14.546,64.909
					c20.544-27.07,29.803-88.005,39.247-133.422c4.061-19.528,7.093-39.795,3.058-59.329
					c-9.191-44.493-51.769-94.958-83.307-126.061c-24.191-23.857-54.615-42.788-88.294-47.273
					c-31.474-4.192-63.034,4.35-94.339,9.658c-71.442,12.112-125.846-27.273-193.026-43.733
					c-22.971-5.628-48.124-7.742-69.538,2.332c-22.298,10.499-58.823,40.729-48.251,68.698c3.032,8.021,8.052,15.216,10.661,23.396
					c11.883,37.28-23.631,70.312-33.423,103.868c-13.786,47.247-5.622,97.044,11.056,142.348
					C238.44,579.326,261.858,644.196,284.122,612.904z"/>
			</g>
		</g>
		<g>
			<g>
				<path fill="#EFFAFD" d="M549.796,786.454c-0.105,2.541-1.038,5.117-0.372,7.571c0.416,1.534,1.415,2.829,2.291,4.155
					c1.234,1.867,2.262,3.871,3.058,5.962c1.161,3.049,1.817,6.488,0.694,9.551c-1.122,3.063-4.508,5.455-7.64,4.542
					c-2.406-0.701-3.941-2.987-5.27-5.112c-1.332-2.13-2.68-4.296-3.359-6.714c-1.495-5.326,0.449-10.945,2.369-16.133
					C542.965,786.502,550.249,775.363,549.796,786.454z"/>
			</g>
		</g>
		<g>
			<g>
				<path fill="#EFFAFD" d="M565.791,768.745c-0.077,1.857-0.759,3.74-0.272,5.534c0.304,1.121,1.034,2.068,1.675,3.037
					c0.902,1.365,1.653,2.829,2.235,4.358c0.849,2.229,1.328,4.742,0.508,6.981c-0.82,2.239-3.295,3.987-5.584,3.32
					c-1.758-0.512-2.881-2.183-3.852-3.736c-0.973-1.557-1.959-3.14-2.455-4.908c-1.093-3.893,0.328-8,1.732-11.792
					C560.798,768.78,566.122,760.638,565.791,768.745z"/>
			</g>
		</g>
	</g>
</g>
</svg>
