<svg id="Capa_1" enable-background="new 0 0 512 512" height="512" viewBox="0 0 512 512" width="512" xmlns="http://www.w3.org/2000/svg"><g><path d="m510.956 258.339-55.143 49.443c-.927.832-1.276 2.133-.888 3.316l23.063 70.387c.583 1.779-.51 3.669-2.342 4.052l-72.517 15.162c-1.222.255-2.176 1.21-2.432 2.432l-15.162 72.516c-.383 1.832-2.274 2.925-4.052 2.342l-70.386-23.064c-1.184-.388-2.485-.04-3.316.888l-49.443 55.143c-1.248 1.392-3.429 1.392-4.677 0l-49.443-55.143c-.832-.927-2.133-1.276-3.316-.888l-70.387 23.063c-1.779.583-3.669-.51-4.052-2.342l-15.162-72.517c-.255-1.222-1.21-2.176-2.432-2.432l-72.516-15.162c-1.832-.383-2.925-2.274-2.342-4.052l23.064-70.386c.388-1.184.04-2.485-.888-3.316l-55.143-49.442c-1.392-1.248-1.392-3.429 0-4.677l55.143-49.443c.927-.832 1.276-2.133.888-3.316l-23.063-70.387c-.583-1.779.51-3.669 2.342-4.052l72.517-15.162c1.222-.255 2.176-1.21 2.432-2.432l15.162-72.516c.383-1.832 2.274-2.925 4.052-2.342l70.386 23.064c1.184.388 2.485.04 3.316-.888l49.443-55.143c1.248-1.392 3.429-1.392 4.677 0l49.443 55.143c.832.927 2.133 1.276 3.316.888l70.387-23.063c1.779-.583 3.669.51 4.052 2.342l15.162 72.517c.255 1.222 1.21 2.176 2.432 2.432l72.516 15.162c1.832.383 2.925 2.274 2.342 4.052l-23.064 70.386c-.388 1.184-.04 2.485.888 3.316l55.143 49.443c1.392 1.247 1.392 3.427 0 4.676z" fill="#fece85"/><g fill="#fec165"><path d="m170.171 48.19-42.287-13.862c.751-.463 1.708-.617 2.635-.319l42.287 13.852c-.782.493-1.739.617-2.635.329z"/><path d="m282.963 445.111 27.241 9.674c-.906-.041-1.801.329-2.418 1.029l-49.449 55.14c-1.245 1.389-3.427 1.389-4.672 0l-16.857-18.802 42.842-46.156c.833-.926 2.129-1.276 3.313-.885z"/><path d="m377.241 104.143-14.048-64.145 18.288-5.989c1.78-.576 3.674.515 4.055 2.346l15.159 72.512c.103.515.34.978.669 1.358l-21.694-3.653c-1.215-.258-2.172-1.204-2.429-2.429z"/><path d="m455.814 307.785c-.926.823-1.276 2.13-.885 3.314l23.063 70.382c.576 1.78-.515 3.674-2.346 4.055l-72.512 15.159c-1.225.257-2.182 1.214-2.439 2.439l-15.159 72.512c-.381 1.832-2.274 2.923-4.055 2.346l-22.466-7.358c.597-.443 1.039-1.091 1.204-1.883l16.126-83.729c.257-1.225 1.204-2.182 2.429-2.439l63.795-12.072c1.832-.381 2.923-2.274 2.336-4.044l-20.706-64.258c-.391-1.183-.041-2.48.885-3.314l47.422-40.558c1.389-1.245 1.389-3.427 0-4.672l-49.069-49.233c-.926-.834-1.276-2.13-.895-3.314l24.719-79.489c.113-.36.165-.72.154-1.07l28.229 5.907c1.832.381 2.923 2.274 2.346 4.055l-23.063 70.382c-.391 1.184-.041 2.491.885 3.314l55.14 49.449c1.389 1.245 1.389 3.427 0 4.672z"/></g><circle cx="256" cy="256" fill="#fdb441" r="160.951"/><path d="m416.954 256c0 88.895-72.059 160.954-160.954 160.954-18.061 0-35.422-2.974-51.631-8.47 10.476 2.151 21.323 3.273 32.438 3.273 88.895 0 160.954-72.059 160.954-160.944 0-70.834-45.755-130.976-109.323-152.495 73.345 15.005 128.516 79.901 128.516 157.682z" fill="#fea613"/><g><g><g><path d="m201.344 245.123c-4.142 0-7.5-3.358-7.5-7.5v-19.456c0-4.142 3.358-7.5 7.5-7.5s7.5 3.358 7.5 7.5v19.456c0 4.142-3.358 7.5-7.5 7.5z" fill="#fb8801"/></g><g><path d="m310.656 245.123c-4.143 0-7.5-3.358-7.5-7.5v-19.456c0-4.142 3.357-7.5 7.5-7.5s7.5 3.358 7.5 7.5v19.456c0 4.142-3.357 7.5-7.5 7.5z" fill="#fb8801"/></g></g><g fill="#fb8801"><circle cx="170.575" cy="274.671" r="22.444"/><circle cx="341.425" cy="274.671" r="22.444"/></g><g><path d="m256 340.245c-19.514 0-36.783-12.427-42.97-30.922-1.314-3.928.805-8.178 4.733-9.492 3.928-1.313 8.178.804 9.492 4.733 4.139 12.37 15.69 20.681 28.746 20.681 13.054 0 24.606-8.311 28.745-20.679 1.313-3.928 5.562-6.046 9.492-4.733 3.928 1.314 6.047 5.564 4.732 9.492-6.188 18.494-23.455 30.92-42.97 30.92z" fill="#fb8801"/></g></g></g></svg>