<?xml version="1.0"?>
<svg xmlns="http://www.w3.org/2000/svg" viewBox="0 0 64 64" width="512" height="512"><g id="Sneeze"><path d="M35.21,25.02l-3.36-.84-.45-2.07A7,7,0,0,0,34.92,17H36a2.006,2.006,0,0,0,2-2V14a2.006,2.006,0,0,0-2-2h-.11A7.045,7.045,0,0,0,38,7V3a1,1,0,0,0-1-1H25a7.008,7.008,0,0,0-7,7v2a3.026,3.026,0,0,0,.51,1.68A1.989,1.989,0,0,0,18,14v1a2.006,2.006,0,0,0,2,2h1.08a7,7,0,0,0,3.52,5.11l-.45,2.07-3.36.84A9.011,9.011,0,0,0,13,34V50a1,1,0,0,0,1,1h3V61a1,1,0,0,0,1,1H38a1,1,0,0,0,1-1V51a4,4,0,0,0,4-4V34A9.011,9.011,0,0,0,35.21,25.02Zm-1.88,1.59-3.18,4.46-.98-1.96,2.23-2.98ZM28,27.33l-1.93-2.57.42-1.93a6.791,6.791,0,0,0,3.02,0l.42,1.93ZM36,14v1H35V14ZM21,15H20V14h1Zm0-5v2a1,1,0,0,1-1-1V9a5,5,0,0,1,5-5H36V7a4.979,4.979,0,0,1-1,2.99,1.014,1.014,0,0,0-.76-.96l-8-2a.978.978,0,0,0-.69.08l-4,2A.988.988,0,0,0,21,10Zm2,6V10.62l3.12-1.56L33,10.78V16a5,5,0,0,1-10,0Zm1.6,10.13,2.23,2.98-.98,1.96-3.18-4.46ZM37,60H19V51H37Zm2-11H15V39h4v5a1,1,0,0,0,1,1H35a1,1,0,0,0,1-1V43a1,1,0,0,1,2,0v1a1,1,0,0,0,1,1,2,2,0,0,1,0,4Zm2-5.45a3.851,3.851,0,0,0-1-.42V43a3.009,3.009,0,0,0-3-3V39h4ZM41,37H36a1,1,0,0,0-1,1v2.78A2.986,2.986,0,0,0,34,43H21V38a1,1,0,0,0-1-1H15V34a7.015,7.015,0,0,1,5.55-6.91l4.64,6.49a.97.97,0,0,0,.89.42.993.993,0,0,0,.81-.55L28,31.24l1.11,2.21a.993.993,0,0,0,.81.55H30a.983.983,0,0,0,.81-.42l4.64-6.49A7.015,7.015,0,0,1,41,34Z"/><rect x="29" y="13" width="2" height="2"/><rect x="25" y="13" width="2" height="2"/><rect x="27" y="35" width="2" height="2"/><rect x="27" y="39" width="2" height="2"/><path d="M50,26h2a2.258,2.258,0,0,0,.759,1.681,4.208,4.208,0,0,1,0,5.967,2.246,2.246,0,0,0,0,3.368,4.21,4.21,0,0,1,0,5.968,2.246,2.246,0,0,0,0,3.368,4.208,4.208,0,0,1,0,5.967A2.258,2.258,0,0,0,52,54H50a4.162,4.162,0,0,1,1.241-2.983,2.243,2.243,0,0,0,0-3.365,4.21,4.21,0,0,1,0-5.968,2.246,2.246,0,0,0,0-3.368,4.21,4.21,0,0,1,0-5.968,2.243,2.243,0,0,0,0-3.365A4.162,4.162,0,0,1,50,26Z"/><path d="M45,26h2a2.258,2.258,0,0,0,.759,1.681,4.208,4.208,0,0,1,0,5.967,2.246,2.246,0,0,0,0,3.368,4.21,4.21,0,0,1,0,5.968,2.246,2.246,0,0,0,0,3.368,4.208,4.208,0,0,1,0,5.967A2.258,2.258,0,0,0,47,54H45a4.162,4.162,0,0,1,1.241-2.983,2.243,2.243,0,0,0,0-3.365,4.21,4.21,0,0,1,0-5.968,2.246,2.246,0,0,0,0-3.368,4.21,4.21,0,0,1,0-5.968,2.243,2.243,0,0,0,0-3.365A4.162,4.162,0,0,1,45,26Z"/><path d="M6,26H4a2.258,2.258,0,0,1-.759,1.681,4.208,4.208,0,0,0,0,5.967,2.246,2.246,0,0,1,0,3.368,4.21,4.21,0,0,0,0,5.968,2.246,2.246,0,0,1,0,3.368,4.208,4.208,0,0,0,0,5.967A2.258,2.258,0,0,1,4,54H6a4.162,4.162,0,0,0-1.241-2.983,2.243,2.243,0,0,1,0-3.365,4.21,4.21,0,0,0,0-5.968,2.246,2.246,0,0,1,0-3.368,4.21,4.21,0,0,0,0-5.968,2.243,2.243,0,0,1,0-3.365A4.162,4.162,0,0,0,6,26Z"/><path d="M11,26H9a2.258,2.258,0,0,1-.759,1.681,4.208,4.208,0,0,0,0,5.967,2.246,2.246,0,0,1,0,3.368,4.21,4.21,0,0,0,0,5.968,2.246,2.246,0,0,1,0,3.368,4.208,4.208,0,0,0,0,5.967A2.258,2.258,0,0,1,9,54h2a4.162,4.162,0,0,0-1.241-2.983,2.243,2.243,0,0,1,0-3.365,4.21,4.21,0,0,0,0-5.968,2.246,2.246,0,0,1,0-3.368,4.21,4.21,0,0,0,0-5.968,2.243,2.243,0,0,1,0-3.365A4.162,4.162,0,0,0,11,26Z"/><path d="M51,2A11,11,0,1,0,62,13,11.013,11.013,0,0,0,51,2Zm0,20a9,9,0,1,1,9-9A9.01,9.01,0,0,1,51,22Z"/><path d="M55.9,12a4.961,4.961,0,0,0-.732-1.753l1.49-1.49L55.243,7.343l-1.49,1.49A4.961,4.961,0,0,0,52,8.1V6H50V8.1a4.961,4.961,0,0,0-1.753.732l-1.49-1.49L45.343,8.757l1.49,1.49A4.961,4.961,0,0,0,46.1,12H44v2h2.1a4.961,4.961,0,0,0,.732,1.753l-1.49,1.49,1.414,1.414,1.49-1.49A4.961,4.961,0,0,0,50,17.9V20h2V17.9a4.961,4.961,0,0,0,1.753-.732l1.49,1.49,1.414-1.414-1.49-1.49A4.961,4.961,0,0,0,55.9,14H58V12ZM51,16a3,3,0,1,1,3-3A3,3,0,0,1,51,16Z"/><rect x="50" y="12" width="2" height="2"/></g></svg>
