<svg xmlns="http://www.w3.org/2000/svg" viewBox="0 0 64 64" width="512" height="512"><path d="M35.21 25.02l-3.36-.84-.45-2.07A7 7 0 0034.92 17H36a2.006 2.006 0 002-2v-1a2.006 2.006 0 00-2-2h-.11A7.045 7.045 0 0038 7V3a1 1 0 00-1-1H25a7.008 7.008 0 00-7 7v2a3.026 3.026 0 00.51 1.68A1.989 1.989 0 0018 14v1a2.006 2.006 0 002 2h1.08a7 7 0 003.52 5.11l-.45 2.07-3.36.84A9.011 9.011 0 0013 34v16a1 1 0 001 1h3v10a1 1 0 001 1h20a1 1 0 001-1V51a4 4 0 004-4V34a9.011 9.011 0 00-7.79-8.98zm-1.88 1.59l-3.18 4.46-.98-1.96 2.23-2.98zm-5.33.72l-1.93-2.57.42-1.93a6.791 6.791 0 003.02 0l.42 1.93zM36 14v1h-1v-1zm-15 1h-1v-1h1zm0-5v2a1 1 0 01-1-1V9a5 5 0 015-5h11v3a4.979 4.979 0 01-1 2.99 1.014 1.014 0 00-.76-.96l-8-2a.978.978 0 00-.69.08l-4 2A.988.988 0 0021 10zm2 6v-5.38l3.12-1.56L33 10.78V16a5 5 0 01-10 0zm1.6 10.13l2.23 2.98-.98 1.96-3.18-4.46zM37 60H19v-9h18zm2-11H15V39h4v5a1 1 0 001 1h15a1 1 0 001-1v-1a1 1 0 012 0v1a1 1 0 001 1 2 2 0 010 4zm2-5.45a3.851 3.851 0 00-1-.42V43a3.009 3.009 0 00-3-3v-1h4zM41 37h-5a1 1 0 00-1 1v2.78A2.986 2.986 0 0034 43H21v-5a1 1 0 00-1-1h-5v-3a7.015 7.015 0 015.55-6.91l4.64 6.49a.97.97 0 00.89.42.993.993 0 00.81-.55L28 31.24l1.11 2.21a.993.993 0 00.81.55H30a.983.983 0 00.81-.42l4.64-6.49A7.015 7.015 0 0141 34z"/><path d="M29 13h2v2h-2zM25 13h2v2h-2zM27 35h2v2h-2zM27 39h2v2h-2zM50 26h2a2.258 2.258 0 00.759 1.681 4.208 4.208 0 010 5.967 2.246 2.246 0 000 3.368 4.21 4.21 0 010 5.968 2.246 2.246 0 000 3.368 4.208 4.208 0 010 5.967A2.258 2.258 0 0052 54h-2a4.162 4.162 0 011.241-2.983 2.243 2.243 0 000-3.365 4.21 4.21 0 010-5.968 2.246 2.246 0 000-3.368 4.21 4.21 0 010-5.968 2.243 2.243 0 000-3.365A4.162 4.162 0 0150 26zM45 26h2a2.258 2.258 0 00.759 1.681 4.208 4.208 0 010 5.967 2.246 2.246 0 000 3.368 4.21 4.21 0 010 5.968 2.246 2.246 0 000 3.368 4.208 4.208 0 010 5.967A2.258 2.258 0 0047 54h-2a4.162 4.162 0 011.241-2.983 2.243 2.243 0 000-3.365 4.21 4.21 0 010-5.968 2.246 2.246 0 000-3.368 4.21 4.21 0 010-5.968 2.243 2.243 0 000-3.365A4.162 4.162 0 0145 26zM6 26H4a2.258 2.258 0 01-.759 1.681 4.208 4.208 0 000 5.967 2.246 2.246 0 010 3.368 4.21 4.21 0 000 5.968 2.246 2.246 0 010 3.368 4.208 4.208 0 000 5.967A2.258 2.258 0 014 54h2a4.162 4.162 0 00-1.241-2.983 2.243 2.243 0 010-3.365 4.21 4.21 0 000-5.968 2.246 2.246 0 010-3.368 4.21 4.21 0 000-5.968 2.243 2.243 0 010-3.365A4.162 4.162 0 006 26zM11 26H9a2.258 2.258 0 01-.759 1.681 4.208 4.208 0 000 5.967 2.246 2.246 0 010 3.368 4.21 4.21 0 000 5.968 2.246 2.246 0 010 3.368 4.208 4.208 0 000 5.967A2.258 2.258 0 019 54h2a4.162 4.162 0 00-1.241-2.983 2.243 2.243 0 010-3.365 4.21 4.21 0 000-5.968 2.246 2.246 0 010-3.368 4.21 4.21 0 000-5.968 2.243 2.243 0 010-3.365A4.162 4.162 0 0011 26zM51 2a11 11 0 1011 11A11.013 11.013 0 0051 2zm0 20a9 9 0 119-9 9.01 9.01 0 01-9 9z"/><path d="M55.9 12a4.961 4.961 0 00-.732-1.753l1.49-1.49-1.415-1.414-1.49 1.49A4.961 4.961 0 0052 8.1V6h-2v2.1a4.961 4.961 0 00-1.753.732l-1.49-1.49-1.414 1.415 1.49 1.49A4.961 4.961 0 0046.1 12H44v2h2.1a4.961 4.961 0 00.732 1.753l-1.49 1.49 1.414 1.414 1.49-1.49A4.961 4.961 0 0050 17.9V20h2v-2.1a4.961 4.961 0 001.753-.732l1.49 1.49 1.414-1.414-1.49-1.49A4.961 4.961 0 0055.9 14H58v-2zM51 16a3 3 0 113-3 3 3 0 01-3 3z"/><path d="M50 12h2v2h-2z"/></svg>