<svg id="Layer_1" data-name="Layer 1" xmlns="http://www.w3.org/2000/svg" viewBox="0 0 196.84 199.55"><defs><style>.cls-1{fill:#f79595;}.cls-2{fill:#ee6161;}.cls-3{fill:#f9b1b1;}.cls-4{fill:#f37c7c;}</style></defs><path class="cls-1" d="M144.73,226a1,1,0,0,1,.77,1.15l-.38,2a1,1,0,1,1-1.93-.4v-.06l-2.56.12a.19.19,0,0,0-.17.13,10.74,10.74,0,0,1-1,2.15.2.2,0,0,0,0,.22l1.13,1.34a1.21,1.21,0,0,1,1.54-.08,1.18,1.18,0,0,1,.22,1.66l-.33.43a1.21,1.21,0,0,1-1.63.28,1.2,1.2,0,0,1-.45-1.36l-1.63-.71a.17.17,0,0,0-.21,0,11.34,11.34,0,0,1-2.61,2.12.17.17,0,0,0-.09.19l.41,2.55.36-.15a1,1,0,0,1,1.3.59,1,1,0,0,1-.59,1.25l-1.85.74a1,1,0,0,1-1.29-.6,1,1,0,0,1,.59-1.24l.05,0-1.49-2.09a.2.2,0,0,0-.2-.07,11.17,11.17,0,0,1-2.79.36,10.86,10.86,0,0,1-2.22-.23.21.21,0,0,0-.2.08L126,238.73l0,0a1.2,1.2,0,0,1,.79,1.12,1.14,1.14,0,0,1-.07.41.84.84,0,0,1-1.2.84l-1.83-.67a1.19,1.19,0,0,1-.72-1.51,1.22,1.22,0,0,1,1.57-.72h0l.3-2.74a.19.19,0,0,0-.1-.19,10.87,10.87,0,0,1-3.08-2.35.18.18,0,0,0-.2,0l-2.24.92a1,1,0,0,1-.35,1.37,1.07,1.07,0,0,1-1.46-.3l-.57-.83a1.05,1.05,0,0,1,1.69-1.26l1.57-1.78a.18.18,0,0,0,0-.21A11.18,11.18,0,0,1,119,227a.18.18,0,0,0-.14-.16l-2.52-.58v.29a1.06,1.06,0,0,1-.32.76,1.07,1.07,0,0,1-.76.31,1.05,1.05,0,0,1-1-1.07v-1.83a1.09,1.09,0,0,1,1.1-1.08,1.07,1.07,0,0,1,1,1.07l2.5-.58A.21.21,0,0,0,119,224a11,11,0,0,1,1.38-4,.18.18,0,0,0,0-.21l-1.19-1.4-.11.13a.94.94,0,0,1-1.35.16,1,1,0,0,1-.13-1.31l.8-1a.93.93,0,0,1,.75-.37.92.92,0,0,1,.56.19.94.94,0,0,1,.23,1.25l1.66.72a.18.18,0,0,0,.21-.05,11.26,11.26,0,0,1,2.73-2.17.2.2,0,0,0,.1-.19l-.39-2.56-.36.14a1,1,0,0,1-1.29-.61,1,1,0,0,1,.61-1.23l1.86-.72a1,1,0,0,1,1.28.61,1,1,0,0,1-.6,1.24l0,0,1.46,2.1a.18.18,0,0,0,.2.08,10.91,10.91,0,0,1,2.64-.32h0a.2.2,0,0,0,.18-.12l.48-1.36a1.24,1.24,0,0,1-.86-1.33,1.27,1.27,0,0,1,1.42-1.08l.67.08a1.27,1.27,0,0,1,1.11,1.37A1.25,1.25,0,0,1,132,213l.16,1.47a.19.19,0,0,0,.15.16,11.15,11.15,0,0,1,3.15,1.22.18.18,0,0,0,.21,0l2-1.63-.31-.24a1,1,0,0,1-.13-1.42,1,1,0,0,1,1.37-.1l1.56,1.23a1,1,0,0,1,.13,1.42,1,1,0,0,1-1.37.1l0,0-1.08,2.33a.2.2,0,0,0,0,.21,11,11,0,0,1,1.9,2.63.2.2,0,0,0,.2.1l1.52-.22a1.18,1.18,0,0,1,.74-1.52,1.2,1.2,0,0,1,1.49.74l.35.94a1.21,1.21,0,0,1-.62,1.53,1.2,1.2,0,0,1-1.49-.47l-1.26.85a.2.2,0,0,0-.08.21,11.06,11.06,0,0,1,.4,2.95c0,.17,0,.34,0,.51a.19.19,0,0,0,.11.18l2.37,1,.08-.38a1,1,0,0,1,1.15-.78Z" transform="translate(-47.15 -41.64)"/><ellipse class="cls-2" cx="87.61" cy="178.35" rx="1.56" ry="1.31"/><circle class="cls-2" cx="81.97" cy="186.5" r="1.71"/><circle class="cls-3" cx="88.63" cy="185.61" r="1.22"/><circle class="cls-3" cx="84.11" cy="191.59" r="1.19"/><path class="cls-4" d="M123.21,224.92a13.09,13.09,0,0,1,5.18-10.44,9.37,9.37,0,0,0-1.08.21.18.18,0,0,1-.2-.08l-1.46-2.1,0,0a1,1,0,0,0,.6-1.24,1,1,0,0,0-1.28-.61l-1.86.72a1,1,0,0,0-.61,1.23,1,1,0,0,0,1.29.61l.36-.14.39,2.56a.2.2,0,0,1-.1.19,11.26,11.26,0,0,0-2.73,2.17.18.18,0,0,1-.21.05l-1.66-.72a.94.94,0,0,0-.23-1.25.92.92,0,0,0-.56-.19.93.93,0,0,0-.75.37l-.8,1a1,1,0,0,0,.13,1.31.94.94,0,0,0,1.35-.16l.11-.13,1.19,1.4a.18.18,0,0,1,0,.21,11,11,0,0,0-1.38,4,.21.21,0,0,1-.14.16l-2.5.58a1.07,1.07,0,0,0-1-1.07,1.09,1.09,0,0,0-1.1,1.08v1.83a1.05,1.05,0,0,0,1,1.07,1.07,1.07,0,0,0,.76-.31,1.06,1.06,0,0,0,.32-.76v-.29l2.52.58a.18.18,0,0,1,.14.16,11.18,11.18,0,0,0,1.28,3.83.18.18,0,0,1,0,.21l-1.57,1.78a1.05,1.05,0,0,0-1.69,1.26l.57.83a1.07,1.07,0,0,0,1.46.3,1,1,0,0,0,.35-1.37l2.24-.92a.18.18,0,0,1,.2,0,10.87,10.87,0,0,0,3.08,2.35.19.19,0,0,1,.1.19l-.3,2.74h0a1.22,1.22,0,0,0-1.57.72,1.19,1.19,0,0,0,.72,1.51l1.83.67a.84.84,0,0,0,1.2-.84,1.14,1.14,0,0,0,.07-.41,1.2,1.2,0,0,0-.79-1.12l0,0,1.49-2.34a.21.21,0,0,1,.2-.08,10.86,10.86,0,0,0,2.22.23h.27a13.11,13.11,0,0,1-7-11.61Z" transform="translate(-47.15 -41.64)"/><circle class="cls-2" cx="76.66" cy="188.74" r="1.24"/><path class="cls-3" d="M133,224.92h-.42a.47.47,0,0,1-.47-.47.48.48,0,0,1,.47-.48H133a.48.48,0,0,1,.47.48A.47.47,0,0,1,133,224.92Z" transform="translate(-47.15 -41.64)"/><path class="cls-3" d="M127.41,233.21H127a.48.48,0,1,1,0-1h.43a.48.48,0,0,1,0,1Z" transform="translate(-47.15 -41.64)"/><path class="cls-2" d="M123,226.3h-.42a.47.47,0,1,1,0-.94H123a.47.47,0,1,1,0,.94Z" transform="translate(-47.15 -41.64)"/><path class="cls-3" d="M131.4,218h-.57a.48.48,0,0,1-.48-.47.49.49,0,0,1,.48-.48h.57a.48.48,0,0,1,.48.48A.47.47,0,0,1,131.4,218Z" transform="translate(-47.15 -41.64)"/><path class="cls-2" d="M135.19,231.66h-.63a.47.47,0,1,1,0-.94h.63a.47.47,0,1,1,0,.94Z" transform="translate(-47.15 -41.64)"/><ellipse class="cls-2" cx="126.28" cy="221.3" rx="3.26" ry="2.73" transform="translate(-157.06 84.07) rotate(-38.26)"/><path class="cls-1" d="M219.1,59.85A1.16,1.16,0,0,1,220,61.2l-.46,2.32a1.15,1.15,0,0,1-1.4.9,1.17,1.17,0,0,1-.85-1.37V63l-3,.13a.22.22,0,0,0-.19.15A13.07,13.07,0,0,1,213,65.79a.21.21,0,0,0,0,.25l1.33,1.58a1.38,1.38,0,0,1,2.05,1.85L216,70a1.42,1.42,0,0,1-1.91.33,1.39,1.39,0,0,1-.53-1.59l-1.91-.84a.23.23,0,0,0-.25,0,12.81,12.81,0,0,1-3,2.48.21.21,0,0,0-.11.22l.49,3,.42-.17a1.16,1.16,0,0,1,1.52.69,1.18,1.18,0,0,1-.69,1.46l-2.17.86a1.14,1.14,0,0,1-1.51-.69A1.18,1.18,0,0,1,207,74.3l.06,0-1.75-2.44a.21.21,0,0,0-.23-.09,13,13,0,0,1-5.87.16A.23.23,0,0,0,199,72l-1.74,2.74.06,0a1.41,1.41,0,0,1,.92,1.32,1.36,1.36,0,0,1-.09.48,1,1,0,0,1-1.4,1l-2.14-.78a1.4,1.4,0,0,1-.85-1.77,1.43,1.43,0,0,1,1.84-.85l.05,0L196,71a.21.21,0,0,0-.12-.22A13.15,13.15,0,0,1,192.24,68a.22.22,0,0,0-.24-.06L189.38,69A1.22,1.22,0,0,1,189,70.6a1.25,1.25,0,0,1-1.71-.35l-.67-1a1.23,1.23,0,0,1,2-1.47l1.84-2.08a.25.25,0,0,0,0-.26,12.74,12.74,0,0,1-1.5-4.49.21.21,0,0,0-.17-.18l-2.94-.68v.34a1.25,1.25,0,1,1-2.5,0l0-2.14a1.28,1.28,0,0,1,1.28-1.27,1.25,1.25,0,0,1,1.22,1.26l2.93-.69a.2.2,0,0,0,.16-.18,12.84,12.84,0,0,1,1.62-4.73.23.23,0,0,0,0-.25l-1.4-1.64L189,51a1.09,1.09,0,0,1-1.58.18,1.12,1.12,0,0,1-.15-1.53l.93-1.23a1.09,1.09,0,0,1,.87-.43,1.07,1.07,0,0,1,.66.22,1.1,1.1,0,0,1,.27,1.46l2,.85a.24.24,0,0,0,.25-.06,13.12,13.12,0,0,1,3.19-2.55.2.2,0,0,0,.11-.22l-.45-3-.42.16a1.15,1.15,0,0,1-1.51-.71,1.18,1.18,0,0,1,.71-1.45l2.18-.83a1.14,1.14,0,0,1,1.5.71,1.17,1.17,0,0,1-.71,1.45l-.06,0,1.71,2.47a.22.22,0,0,0,.24.08,13.14,13.14,0,0,1,3.09-.37h0a.22.22,0,0,0,.2-.14l.57-1.59a1.45,1.45,0,0,1-1-1.56,1.49,1.49,0,0,1,1.66-1.27l.78.1a1.48,1.48,0,0,1,1.3,1.61,1.46,1.46,0,0,1-1.08,1.25l.2,1.72a.21.21,0,0,0,.17.18A12.72,12.72,0,0,1,208.28,48a.23.23,0,0,0,.25,0L210.88,46l-.36-.28a1.15,1.15,0,0,1-.15-1.66A1.17,1.17,0,0,1,212,44l1.82,1.45a1.14,1.14,0,0,1,.15,1.65,1.18,1.18,0,0,1-1.61.13l-.05,0L211,49.88a.21.21,0,0,0,0,.24,13,13,0,0,1,2.23,3.08.22.22,0,0,0,.22.12l1.79-.25a1.38,1.38,0,0,1,.87-1.79,1.41,1.41,0,0,1,1.74.86l.41,1.11a1.41,1.41,0,0,1-.73,1.79,1.39,1.39,0,0,1-1.74-.56l-1.48,1a.2.2,0,0,0-.08.24,13.13,13.13,0,0,1,.46,3.46c0,.2,0,.4,0,.6a.22.22,0,0,0,.13.21l2.77,1.21.09-.45a1.16,1.16,0,0,1,1.35-.91Z" transform="translate(-47.15 -41.64)"/><ellipse class="cls-2" cx="160.28" cy="11.16" rx="1.83" ry="1.53"/><circle class="cls-2" cx="153.67" cy="20.7" r="2"/><circle class="cls-3" cx="161.47" cy="19.66" r="1.43"/><circle class="cls-3" cx="156.18" cy="26.65" r="1.39"/><path class="cls-4" d="M193.9,58.57A15.32,15.32,0,0,1,200,46.34c-.43.06-.86.14-1.27.24a.22.22,0,0,1-.24-.08L196.75,44l.06,0a1.17,1.17,0,0,0,.71-1.45,1.14,1.14,0,0,0-1.5-.71l-2.18.83a1.18,1.18,0,0,0-.71,1.45,1.15,1.15,0,0,0,1.51.71l.42-.16.45,3a.2.2,0,0,1-.11.22,13.12,13.12,0,0,0-3.19,2.55.24.24,0,0,1-.25.06l-2-.85a1.1,1.1,0,0,0-.27-1.46,1.07,1.07,0,0,0-.66-.22,1.09,1.09,0,0,0-.87.43l-.93,1.23a1.12,1.12,0,0,0,.15,1.53A1.09,1.09,0,0,0,189,51l.12-.16,1.4,1.64a.23.23,0,0,1,0,.25,12.84,12.84,0,0,0-1.62,4.73.2.2,0,0,1-.16.18l-2.93.69a1.25,1.25,0,0,0-1.22-1.26,1.28,1.28,0,0,0-1.28,1.27l0,2.14a1.25,1.25,0,1,0,2.5,0v-.34l2.94.68a.21.21,0,0,1,.17.18,12.74,12.74,0,0,0,1.5,4.49.25.25,0,0,1,0,.26l-1.84,2.08a1.23,1.23,0,0,0-2,1.47l.67,1a1.25,1.25,0,0,0,1.71.35,1.22,1.22,0,0,0,.41-1.61L192,67.92a.22.22,0,0,1,.24.06,13.15,13.15,0,0,0,3.61,2.75A.21.21,0,0,1,196,71l-.36,3.21-.05,0a1.43,1.43,0,0,0-1.84.85,1.4,1.4,0,0,0,.85,1.77l2.14.78a1,1,0,0,0,1.4-1,1.36,1.36,0,0,0,.09-.48,1.41,1.41,0,0,0-.92-1.32l-.06,0L199,72a.23.23,0,0,1,.23-.09,13.1,13.1,0,0,0,2.6.26h.32a15.35,15.35,0,0,1-8.21-13.59Z" transform="translate(-47.15 -41.64)"/><circle class="cls-2" cx="147.46" cy="23.32" r="1.45"/><path class="cls-3" d="M205.35,58.57h-.49a.56.56,0,0,1,0-1.11h.49a.56.56,0,1,1,0,1.11Z" transform="translate(-47.15 -41.64)"/><path class="cls-3" d="M198.81,68.27h-.5a.56.56,0,0,1,0-1.11h.5a.56.56,0,1,1,0,1.11Z" transform="translate(-47.15 -41.64)"/><path class="cls-2" d="M193.64,60.19h-.49a.56.56,0,0,1,0-1.11h.49a.56.56,0,0,1,0,1.11Z" transform="translate(-47.15 -41.64)"/><path class="cls-3" d="M203.5,50.48h-.68a.55.55,0,0,1-.55-.56.54.54,0,0,1,.55-.55h.68a.55.55,0,0,1,.55.55A.56.56,0,0,1,203.5,50.48Z" transform="translate(-47.15 -41.64)"/><path class="cls-2" d="M207.94,66.46h-.75a.55.55,0,0,1-.56-.55.56.56,0,0,1,.56-.56h.75a.56.56,0,0,1,.55.56.55.55,0,0,1-.55.55Z" transform="translate(-47.15 -41.64)"/><ellipse class="cls-2" cx="197.49" cy="54.33" rx="3.82" ry="3.19" transform="translate(-38.37 92.31) rotate(-38.26)"/><path class="cls-1" d="M242.93,190.3a1.32,1.32,0,0,1,1,1.55l-.52,2.65a1.32,1.32,0,1,1-2.58-.54v-.08l-3.43.16a.23.23,0,0,0-.22.17,15.31,15.31,0,0,1-1.31,2.88.24.24,0,0,0,0,.29l1.52,1.8a1.6,1.6,0,0,1,1.09-.43,1.54,1.54,0,0,1,1,.32,1.58,1.58,0,0,1,.3,2.22l-.44.58a1.62,1.62,0,0,1-2.18.37,1.58,1.58,0,0,1-.61-1.81l-2.18-1a.26.26,0,0,0-.29.06,14.89,14.89,0,0,1-3.49,2.83.25.25,0,0,0-.12.26l.56,3.41.48-.19a1.3,1.3,0,0,1,1.73.79,1.32,1.32,0,0,1-.79,1.66l-2.47,1a1.31,1.31,0,0,1-1.73-.79,1.33,1.33,0,0,1,.79-1.66l.07,0-2-2.8a.25.25,0,0,0-.27-.09,14.78,14.78,0,0,1-3.73.47,14.62,14.62,0,0,1-3-.3.25.25,0,0,0-.26.11l-2,3.13.07,0a1.6,1.6,0,0,1,1.05,1.5,1.49,1.49,0,0,1-.1.55,1.12,1.12,0,0,1-1.6,1.12l-2.45-.89a1.61,1.61,0,0,1-1-2,1.65,1.65,0,0,1,2.1-1l.06,0,.41-3.67a.27.27,0,0,0-.14-.25,14.92,14.92,0,0,1-4.12-3.14.24.24,0,0,0-.28-.06l-3,1.22a1.42,1.42,0,0,1-.47,1.85,1.45,1.45,0,0,1-2-.41l-.76-1.11A1.41,1.41,0,0,1,208,199.4l2.1-2.38a.26.26,0,0,0,0-.29,14.73,14.73,0,0,1-1.72-5.14.23.23,0,0,0-.19-.2l-3.37-.78V191a1.43,1.43,0,1,1-2.86,0l0-2.45a1.46,1.46,0,0,1,1.47-1.45,1.42,1.42,0,0,1,1.39,1.44l3.35-.79a.26.26,0,0,0,.19-.21,14.73,14.73,0,0,1,1.84-5.4.28.28,0,0,0,0-.29l-1.6-1.87-.14.18a1.25,1.25,0,0,1-1.8.21,1.28,1.28,0,0,1-.18-1.75l1.06-1.41a1.29,1.29,0,0,1,1-.5,1.26,1.26,0,0,1,1,1.93l2.24,1a.25.25,0,0,0,.28-.07,14.9,14.9,0,0,1,3.65-2.91.27.27,0,0,0,.13-.26l-.51-3.42-.49.19a1.31,1.31,0,0,1-1.72-.82,1.33,1.33,0,0,1,.81-1.65l2.48-1a1.32,1.32,0,1,1,.91,2.47l-.06,0,2,2.82a.24.24,0,0,0,.27.1,14.73,14.73,0,0,1,3.54-.43h0a.25.25,0,0,0,.24-.16l.65-1.81a1.68,1.68,0,0,1-1.16-1.79,1.71,1.71,0,0,1,1.9-1.45l.89.12a1.66,1.66,0,0,1,.26,3.26l.22,2a.24.24,0,0,0,.2.21,14.81,14.81,0,0,1,4.22,1.64.26.26,0,0,0,.28,0l2.68-2.18-.4-.32a1.32,1.32,0,1,1,1.66-2l2.09,1.65a1.32,1.32,0,0,1,.17,1.9,1.35,1.35,0,0,1-1.84.14l0,0-1.44,3.12a.23.23,0,0,0,0,.28,14.88,14.88,0,0,1,2.55,3.52.26.26,0,0,0,.25.13l2-.29a1.59,1.59,0,0,1,1-2,1.61,1.61,0,0,1,2,1l.47,1.26a1.61,1.61,0,0,1-.83,2,1.57,1.57,0,0,1-2-.63l-1.7,1.15a.28.28,0,0,0-.1.27,14.84,14.84,0,0,1,.54,4c0,.23,0,.46,0,.69a.27.27,0,0,0,.15.24l3.17,1.38.1-.51a1.32,1.32,0,0,1,1.55-1Z" transform="translate(-47.15 -41.64)"/><ellipse class="cls-2" cx="182.44" cy="140.6" rx="2.09" ry="1.75"/><circle class="cls-2" cx="174.88" cy="151.5" r="2.29"/><circle class="cls-3" cx="183.8" cy="150.31" r="1.64"/><circle class="cls-3" cx="177.74" cy="158.31" r="1.59"/><path class="cls-4" d="M214.12,188.83a17.55,17.55,0,0,1,6.93-14,13.76,13.76,0,0,0-1.45.28.24.24,0,0,1-.27-.1l-2-2.82.06,0a1.32,1.32,0,1,0-.91-2.47l-2.48,1a1.33,1.33,0,0,0-.81,1.65,1.31,1.31,0,0,0,1.72.82l.49-.19.51,3.42a.27.27,0,0,1-.13.26,14.9,14.9,0,0,0-3.65,2.91.25.25,0,0,1-.28.07l-2.24-1a1.26,1.26,0,0,0-1-1.93,1.29,1.29,0,0,0-1,.5l-1.06,1.41a1.28,1.28,0,0,0,.18,1.75,1.25,1.25,0,0,0,1.8-.21l.14-.18,1.6,1.87a.28.28,0,0,1,0,.29,14.73,14.73,0,0,0-1.84,5.4.26.26,0,0,1-.19.21l-3.35.79a1.42,1.42,0,0,0-1.39-1.44,1.46,1.46,0,0,0-1.47,1.45l0,2.45a1.41,1.41,0,0,0,1.42,1.43,1.45,1.45,0,0,0,1.44-1.43v-.39l3.37.78a.23.23,0,0,1,.19.2,14.73,14.73,0,0,0,1.72,5.14.26.26,0,0,1,0,.29L208,199.4a1.41,1.41,0,0,0-2.26,1.68l.76,1.11a1.45,1.45,0,0,0,2,.41,1.42,1.42,0,0,0,.47-1.85l3-1.22a.24.24,0,0,1,.28.06,14.92,14.92,0,0,0,4.12,3.14.27.27,0,0,1,.14.25l-.41,3.67-.06,0a1.65,1.65,0,0,0-2.1,1,1.61,1.61,0,0,0,1,2l2.45.89a1.12,1.12,0,0,0,1.6-1.12,1.49,1.49,0,0,0,.1-.55,1.6,1.6,0,0,0-1.05-1.5l-.07,0,2-3.13a.25.25,0,0,1,.26-.11,14.62,14.62,0,0,0,3,.3h.36a17.56,17.56,0,0,1-9.38-15.55Z" transform="translate(-47.15 -41.64)"/><circle class="cls-2" cx="167.77" cy="154.5" r="1.66"/><path class="cls-3" d="M227.21,188.83h-.56a.64.64,0,0,1-.64-.63.64.64,0,0,1,.64-.64h.56a.64.64,0,0,1,.63.64A.63.63,0,0,1,227.21,188.83Z" transform="translate(-47.15 -41.64)"/><path class="cls-3" d="M219.73,199.93h-.57a.64.64,0,0,1-.64-.64.64.64,0,0,1,.64-.63h.57a.64.64,0,0,1,.64.63A.64.64,0,0,1,219.73,199.93Z" transform="translate(-47.15 -41.64)"/><path class="cls-2" d="M213.81,190.68h-.55a.63.63,0,1,1,0-1.26h.55a.63.63,0,1,1,0,1.26Z" transform="translate(-47.15 -41.64)"/><path class="cls-3" d="M225.09,179.58h-.78a.63.63,0,0,1-.63-.63.64.64,0,0,1,.63-.64h.78a.64.64,0,0,1,.63.64A.63.63,0,0,1,225.09,179.58Z" transform="translate(-47.15 -41.64)"/><path class="cls-2" d="M230.16,197.86h-.85a.64.64,0,0,1-.64-.63.64.64,0,0,1,.64-.64h.85a.64.64,0,0,1,.64.64.64.64,0,0,1-.64.63Z" transform="translate(-47.15 -41.64)"/><ellipse class="cls-2" cx="218.22" cy="183.99" rx="4.37" ry="3.65" transform="translate(-114.21 132.99) rotate(-38.26)"/><path class="cls-1" d="M94.33,78a1.51,1.51,0,0,1,1.2,1.78l-.6,3.06A1.51,1.51,0,0,1,93.08,84,1.54,1.54,0,0,1,92,82.18l0-.09-4,.18a.3.3,0,0,0-.26.2,16.34,16.34,0,0,1-1.51,3.32.3.3,0,0,0,0,.34L88,88.21a1.78,1.78,0,0,1,1.26-.51,1.83,1.83,0,0,1,1.45,2.94l-.51.66a1.86,1.86,0,0,1-2.52.43A1.84,1.84,0,0,1,87,89.64l-2.52-1.1a.29.29,0,0,0-.33.07,17.37,17.37,0,0,1-4,3.26.28.28,0,0,0-.14.3l.64,3.93.56-.22a1.52,1.52,0,1,1,1.09,2.83l-2.85,1.15a1.52,1.52,0,0,1-2-.92A1.55,1.55,0,0,1,78.35,97l.08,0-2.31-3.22a.27.27,0,0,0-.3-.11,17.47,17.47,0,0,1-7.74.2.29.29,0,0,0-.31.12l-2.3,3.62.08,0a1.85,1.85,0,0,1,1.22,1.73,1.94,1.94,0,0,1-.11.63,1.3,1.3,0,0,1-1.85,1.3l-2.83-1a1.83,1.83,0,0,1-1.11-2.33,1.88,1.88,0,0,1,2.42-1.12l.06,0,.47-4.23a.29.29,0,0,0-.15-.29,17.24,17.24,0,0,1-4.76-3.63.31.31,0,0,0-.32-.07L55.14,90a1.62,1.62,0,0,1-.54,2.12,1.66,1.66,0,0,1-2.26-.47l-.88-1.27a1.65,1.65,0,0,1,.3-2.24,1.63,1.63,0,0,1,2.31.3l2.43-2.75a.29.29,0,0,0,0-.33,16.88,16.88,0,0,1-2-5.93.3.3,0,0,0-.22-.24l-3.89-.9v.46a1.66,1.66,0,0,1-.5,1.17,1.68,1.68,0,0,1-1.17.48,1.63,1.63,0,0,1-1.63-1.65l0-2.82a1.68,1.68,0,0,1,1.7-1.68,1.64,1.64,0,0,1,1.6,1.66L54.33,75a.29.29,0,0,0,.22-.24,16.93,16.93,0,0,1,2.13-6.24.29.29,0,0,0,0-.33l-1.84-2.16-.16.21a1.44,1.44,0,0,1-2.08.24,1.48,1.48,0,0,1-.21-2l1.23-1.62a1.47,1.47,0,0,1,1.16-.57,1.42,1.42,0,0,1,.87.29A1.45,1.45,0,0,1,56,64.51l2.57,1.11a.3.3,0,0,0,.33-.07,16.94,16.94,0,0,1,4.21-3.36.3.3,0,0,0,.15-.3L62.63,58l-.56.22a1.52,1.52,0,0,1-2-.94A1.54,1.54,0,0,1,61,55.32l2.87-1.11a1.53,1.53,0,0,1,2,.95,1.55,1.55,0,0,1-.94,1.9l-.08,0,2.26,3.26a.29.29,0,0,0,.31.11A17.14,17.14,0,0,1,71.51,60h0a.28.28,0,0,0,.28-.19l.75-2.09a1.93,1.93,0,0,1-1.34-2.06A2,2,0,0,1,73.39,54l1,.13a1.92,1.92,0,0,1,.29,3.77L75,60.12a.31.31,0,0,0,.23.25,17.12,17.12,0,0,1,4.87,1.89.29.29,0,0,0,.32,0l3.1-2.52L83,59.35a1.52,1.52,0,0,1-.2-2.19A1.54,1.54,0,0,1,84.94,57l2.4,1.91a1.51,1.51,0,0,1,.2,2.19,1.55,1.55,0,0,1-2.12.16l-.06,0-1.66,3.6a.28.28,0,0,0,.06.32,17.12,17.12,0,0,1,2.94,4.06.27.27,0,0,0,.29.15L89.34,69a1.83,1.83,0,0,1,1.16-2.35,1.86,1.86,0,0,1,2.3,1.14l.54,1.45a1.86,1.86,0,0,1-1,2.36,1.82,1.82,0,0,1-2.29-.73l-2,1.33a.28.28,0,0,0-.12.31,17.26,17.26,0,0,1,.62,4.57c0,.26,0,.52,0,.79a.26.26,0,0,0,.17.27l3.66,1.6.11-.59A1.53,1.53,0,0,1,94.33,78Z" transform="translate(-47.15 -41.64)"/><ellipse class="cls-2" cx="31.8" cy="27.02" rx="2.42" ry="2.02"/><circle class="cls-2" cx="23.07" cy="39.6" r="2.64"/><circle class="cls-3" cx="33.37" cy="38.22" r="1.89"/><circle class="cls-3" cx="26.38" cy="47.45" r="1.84"/><path class="cls-4" d="M61.1,76.27a20.23,20.23,0,0,1,8-16.13c-.57.08-1.13.19-1.67.32a.29.29,0,0,1-.31-.11l-2.26-3.26.08,0a1.55,1.55,0,0,0,.94-1.9,1.53,1.53,0,0,0-2-.95L61,55.32a1.54,1.54,0,0,0-.93,1.91,1.52,1.52,0,0,0,2,.94l.56-.22.6,3.94a.3.3,0,0,1-.15.3,16.94,16.94,0,0,0-4.21,3.36.3.3,0,0,1-.33.07L56,64.51a1.45,1.45,0,0,0-.35-1.93,1.42,1.42,0,0,0-.87-.29,1.47,1.47,0,0,0-1.16.57l-1.23,1.62a1.48,1.48,0,0,0,.21,2,1.44,1.44,0,0,0,2.08-.24l.16-.21,1.84,2.16a.29.29,0,0,1,0,.33,16.93,16.93,0,0,0-2.13,6.24.29.29,0,0,1-.22.24l-3.86.91a1.64,1.64,0,0,0-1.6-1.66A1.68,1.68,0,0,0,47.17,76l0,2.82a1.63,1.63,0,0,0,1.63,1.65A1.68,1.68,0,0,0,50,79.94a1.66,1.66,0,0,0,.5-1.17v-.46l3.89.9a.3.3,0,0,1,.22.24,16.88,16.88,0,0,0,2,5.93.29.29,0,0,1,0,.33l-2.43,2.75a1.63,1.63,0,0,0-2.31-.3,1.65,1.65,0,0,0-.3,2.24l.88,1.27a1.66,1.66,0,0,0,2.26.47A1.62,1.62,0,0,0,55.14,90l3.45-1.42a.31.31,0,0,1,.32.07,17.24,17.24,0,0,0,4.76,3.63.29.29,0,0,1,.15.29l-.47,4.23-.06,0a1.88,1.88,0,0,0-2.42,1.12A1.83,1.83,0,0,0,62,100.25l2.83,1a1.3,1.3,0,0,0,1.85-1.3,1.94,1.94,0,0,0,.11-.63,1.85,1.85,0,0,0-1.22-1.73l-.08,0L67.77,94a.29.29,0,0,1,.31-.12,17.58,17.58,0,0,0,3.43.34h.42A20.25,20.25,0,0,1,61.1,76.27Z" transform="translate(-47.15 -41.64)"/><circle class="cls-2" cx="14.88" cy="43.06" r="1.92"/><path class="cls-3" d="M76.2,76.27h-.64a.74.74,0,1,1,0-1.47h.64a.74.74,0,1,1,0,1.47Z" transform="translate(-47.15 -41.64)"/><path class="cls-3" d="M67.58,89.06h-.66a.73.73,0,1,1,0-1.46h.66a.73.73,0,0,1,0,1.46Z" transform="translate(-47.15 -41.64)"/><path class="cls-2" d="M60.75,78.4h-.64a.73.73,0,1,1,0-1.46h.64a.73.73,0,1,1,0,1.46Z" transform="translate(-47.15 -41.64)"/><path class="cls-3" d="M73.76,65.59h-.9a.73.73,0,0,1,0-1.46h.9a.73.73,0,1,1,0,1.46Z" transform="translate(-47.15 -41.64)"/><path class="cls-2" d="M79.61,86.68h-1a.73.73,0,1,1,0-1.46h1a.73.73,0,0,1,0,1.46Z" transform="translate(-47.15 -41.64)"/><ellipse class="cls-2" cx="65.84" cy="70.68" rx="5.04" ry="4.21" transform="translate(-76.77 14.3) rotate(-38.26)"/><path class="cls-1" d="M199.29,131.88A3.46,3.46,0,0,1,202,136l-1.37,7a3.46,3.46,0,0,1-4.23,2.7,3.53,3.53,0,0,1-2.56-4.13l0-.18-9,.41a.64.64,0,0,0-.59.45,39.76,39.76,0,0,1-3.45,7.59.63.63,0,0,0,.06.76l4,4.75a4.16,4.16,0,0,1,2.88-1.15,4.12,4.12,0,0,1,2.53.86,4.17,4.17,0,0,1,.78,5.85l-1.16,1.52a4.24,4.24,0,0,1-5.74,1,4.16,4.16,0,0,1-1.59-4.77L176.81,156a.66.66,0,0,0-.75.17,39.26,39.26,0,0,1-9.21,7.46.64.64,0,0,0-.32.67l1.47,9,1.28-.52a3.48,3.48,0,0,1,4.57,2.09,3.54,3.54,0,0,1-2.08,4.39l-6.52,2.61a3.48,3.48,0,0,1-4.57-2.09,3.54,3.54,0,0,1,2.08-4.39l.18-.07L157.68,168a.66.66,0,0,0-.7-.25,39.37,39.37,0,0,1-17.69.46.67.67,0,0,0-.69.29l-5.26,8.26.19.06a4.22,4.22,0,0,1,2.77,4,4.3,4.3,0,0,1-.25,1.45,2.94,2.94,0,0,1-4.22,2.95l-6.47-2.35a4.22,4.22,0,0,1-2.54-5.34,4.31,4.31,0,0,1,5.54-2.55l.15.05,1.07-9.67a.68.68,0,0,0-.36-.66,39.18,39.18,0,0,1-10.86-8.29.67.67,0,0,0-.73-.17l-7.89,3.24a3.71,3.71,0,0,1-1.24,4.85,3.79,3.79,0,0,1-5.16-1.07l-2-2.91a3.79,3.79,0,0,1,.69-5.12,3.73,3.73,0,0,1,5.27.68l5.56-6.28a.68.68,0,0,0,.08-.76,39,39,0,0,1-4.52-13.53.64.64,0,0,0-.5-.55l-8.88-2v1a3.79,3.79,0,0,1-3.8,3.77,3.74,3.74,0,0,1-3.73-3.77l.06-6.45a3.84,3.84,0,0,1,3.87-3.83,3.76,3.76,0,0,1,3.66,3.78l8.82-2.06a.67.67,0,0,0,.5-.56,38.82,38.82,0,0,1,4.86-14.24.67.67,0,0,0-.07-.76l-4.2-4.94-.37.49a3.3,3.3,0,0,1-4.75.54,3.36,3.36,0,0,1-.46-4.61l2.8-3.7a3.31,3.31,0,0,1,5.43,3.76l5.87,2.55a.66.66,0,0,0,.75-.17,39.22,39.22,0,0,1,9.64-7.68.67.67,0,0,0,.32-.67l-1.35-9-1.29.5A3.46,3.46,0,0,1,121,84.5a3.54,3.54,0,0,1,2.14-4.36l6.55-2.52a3.47,3.47,0,0,1,4.54,2.15,3.54,3.54,0,0,1-2.14,4.36l-.18.07,5.16,7.43a.63.63,0,0,0,.69.26,39.41,39.41,0,0,1,9.34-1.12h0a.65.65,0,0,0,.63-.43l1.71-4.78a4.37,4.37,0,0,1-3-4.7,4.48,4.48,0,0,1,5-3.82l2.35.29a4.46,4.46,0,0,1,3.92,4.84,4.39,4.39,0,0,1-3.25,3.77l.59,5.18a.65.65,0,0,0,.52.56A39.2,39.2,0,0,1,166.68,96a.66.66,0,0,0,.75,0l7.08-5.75-1.08-.85a3.47,3.47,0,0,1-.45-5,3.53,3.53,0,0,1,4.84-.37l5.5,4.36a3.47,3.47,0,0,1,.45,5,3.53,3.53,0,0,1-4.84.37l-.15-.11L175,101.82a.66.66,0,0,0,.13.74,39,39,0,0,1,6.72,9.27.65.65,0,0,0,.67.35l5.37-.75a4.2,4.2,0,0,1,2.64-5.39,4.25,4.25,0,0,1,5.25,2.61L197,112a4.25,4.25,0,0,1-2.21,5.39,4.17,4.17,0,0,1-5.24-1.66l-4.46,3a.65.65,0,0,0-.26.73,39.37,39.37,0,0,1,1.4,10.43c0,.6,0,1.2,0,1.8a.66.66,0,0,0,.39.63L195,136l.27-1.35a3.46,3.46,0,0,1,4.06-2.73Z" transform="translate(-47.15 -41.64)"/><ellipse class="cls-2" cx="116.97" cy="68.98" rx="5.52" ry="4.62"/><circle class="cls-2" cx="97.05" cy="97.73" r="6.03"/><circle class="cls-3" cx="120.57" cy="94.59" r="4.32"/><circle class="cls-3" cx="104.61" cy="115.67" r="4.2"/><path class="cls-4" d="M123.36,128a46.2,46.2,0,0,1,18.27-36.84c-1.29.18-2.57.43-3.83.73a.63.63,0,0,1-.69-.26L132,84.2l.18-.07a3.54,3.54,0,0,0,2.14-4.36,3.47,3.47,0,0,0-4.54-2.15l-6.55,2.52A3.54,3.54,0,0,0,121,84.5a3.46,3.46,0,0,0,4.53,2.15l1.29-.5,1.35,9a.67.67,0,0,1-.32.67,39.22,39.22,0,0,0-9.64,7.68.66.66,0,0,1-.75.17l-5.87-2.55a3.31,3.31,0,0,0-5.43-3.76l-2.8,3.7a3.36,3.36,0,0,0,.46,4.61,3.3,3.3,0,0,0,4.75-.54l.37-.49,4.2,4.94a.67.67,0,0,1,.07.76,38.82,38.82,0,0,0-4.86,14.24.67.67,0,0,1-.5.56l-8.82,2.06a3.76,3.76,0,0,0-3.66-3.78,3.84,3.84,0,0,0-3.87,3.83l-.06,6.45a3.74,3.74,0,0,0,3.73,3.77,3.79,3.79,0,0,0,3.8-3.77v-1l8.88,2a.64.64,0,0,1,.5.55,39,39,0,0,0,4.52,13.53.68.68,0,0,1-.08.76l-5.56,6.28a3.73,3.73,0,0,0-5.27-.68,3.79,3.79,0,0,0-.69,5.12l2,2.91a3.79,3.79,0,0,0,5.16,1.07,3.71,3.71,0,0,0,1.24-4.85l7.89-3.24a.67.67,0,0,1,.73.17,39.18,39.18,0,0,0,10.86,8.29.68.68,0,0,1,.36.66L128.51,175l-.15-.05a4.31,4.31,0,0,0-5.54,2.55,4.22,4.22,0,0,0,2.54,5.34l6.47,2.35a2.94,2.94,0,0,0,4.22-2.95,4.3,4.3,0,0,0,.25-1.45,4.22,4.22,0,0,0-2.77-4l-.19-.06,5.26-8.26a.67.67,0,0,1,.69-.29,39.07,39.07,0,0,0,7.85.79h1a46.29,46.29,0,0,1-24.73-41Z" transform="translate(-47.15 -41.64)"/><circle class="cls-2" cx="78.33" cy="105.62" r="4.38"/><path class="cls-3" d="M157.86,128h-1.48a1.67,1.67,0,1,1,0-3.34h1.48a1.67,1.67,0,0,1,0,3.34Z" transform="translate(-47.15 -41.64)"/><path class="cls-3" d="M138.16,157.24h-1.52a1.67,1.67,0,1,1,0-3.34h1.52a1.67,1.67,0,1,1,0,3.34Z" transform="translate(-47.15 -41.64)"/><path class="cls-2" d="M122.56,132.88H121.1a1.67,1.67,0,1,1,0-3.34h1.46a1.67,1.67,0,0,1,0,3.34Z" transform="translate(-47.15 -41.64)"/><path class="cls-3" d="M152.27,103.62h-2a1.67,1.67,0,1,1,0-3.34h2a1.67,1.67,0,0,1,0,3.34Z" transform="translate(-47.15 -41.64)"/><path class="cls-2" d="M165.64,151.8h-2.25a1.68,1.68,0,0,1,0-3.35h2.25a1.68,1.68,0,1,1,0,3.35Z" transform="translate(-47.15 -41.64)"/><ellipse class="cls-2" cx="134.18" cy="115.23" rx="11.52" ry="9.62" transform="translate(-89.68 66.19) rotate(-38.26)"/><path class="cls-1" d="M71.23,157.4a.47.47,0,0,1,.37.54l-.19.94a.46.46,0,0,1-.56.36.47.47,0,0,1-.34-.55v0l-1.2.06a.08.08,0,0,0-.08.06,5.41,5.41,0,0,1-.46,1,.08.08,0,0,0,0,.1l.53.63a.54.54,0,0,1,.38-.15.6.6,0,0,1,.34.11.56.56,0,0,1,.1.78l-.15.21a.58.58,0,0,1-.77.13A.56.56,0,0,1,69,161l-.77-.34a.1.1,0,0,0-.1,0,5.15,5.15,0,0,1-1.23,1,.1.1,0,0,0,0,.09l.2,1.2.17-.07a.46.46,0,1,1,.33.86l-.87.35a.46.46,0,0,1-.61-.28.47.47,0,0,1,.28-.58h0l-.7-1a.09.09,0,0,0-.09,0,5.1,5.1,0,0,1-2.36.06.1.1,0,0,0-.09,0l-.7,1.1h0a.57.57,0,0,1,.37.53.58.58,0,0,1,0,.19.4.4,0,0,1-.57.4l-.86-.32a.56.56,0,0,1-.34-.71.58.58,0,0,1,.74-.34h0l.14-1.29a.08.08,0,0,0,0-.09,5.25,5.25,0,0,1-1.45-1.1.1.1,0,0,0-.1,0l-1.05.44a.48.48,0,0,1-.17.64.5.5,0,0,1-.68-.14l-.27-.39a.5.5,0,0,1,.09-.68.49.49,0,0,1,.7.09l.74-.84a.08.08,0,0,0,0-.1,5.31,5.31,0,0,1-.6-1.8.08.08,0,0,0-.07-.08l-1.18-.27v.14a.49.49,0,0,1-.15.35.51.51,0,0,1-.36.15.51.51,0,0,1-.5-.5v-.86a.51.51,0,0,1,.52-.51.5.5,0,0,1,.49.5l1.17-.27a.1.1,0,0,0,.07-.08,5.23,5.23,0,0,1,.65-1.9.09.09,0,0,0,0-.1l-.56-.66,0,.07a.44.44,0,1,1-.7-.54l.38-.5a.44.44,0,0,1,.35-.17.44.44,0,0,1,.37.67l.78.34a.08.08,0,0,0,.1,0,5.33,5.33,0,0,1,1.29-1,.09.09,0,0,0,0-.09l-.18-1.21-.17.07a.46.46,0,0,1-.6-.29.47.47,0,0,1,.28-.58l.88-.33a.45.45,0,0,1,.6.28.46.46,0,0,1-.29.58h0l.69,1a.09.09,0,0,0,.09,0,5.16,5.16,0,0,1,1.25-.15h0a.08.08,0,0,0,.08-.06l.23-.63a.59.59,0,0,1,.26-1.14l.31,0a.58.58,0,0,1,.09,1.15l.08.69a.1.1,0,0,0,.07.07,5,5,0,0,1,1.48.58.09.09,0,0,0,.1,0l1-.77-.15-.11a.48.48,0,0,1-.06-.67.49.49,0,0,1,.65-.05l.73.59a.45.45,0,0,1,.06.66.46.46,0,0,1-.64.05h0L68,153.39s0,.08,0,.1a5.21,5.21,0,0,1,.89,1.24.12.12,0,0,0,.09.05l.72-.11a.56.56,0,0,1,1.05-.37l.17.45a.57.57,0,0,1-.3.72.56.56,0,0,1-.7-.23l-.59.41a.09.09,0,0,0,0,.09,5,5,0,0,1,.19,1.4v.24a.07.07,0,0,0,.05.08l1.11.49,0-.18a.46.46,0,0,1,.54-.37Z" transform="translate(-47.15 -41.64)"/><ellipse class="cls-2" cx="19.39" cy="112.93" rx="0.74" ry="0.62"/><circle class="cls-2" cx="16.74" cy="116.76" r="0.8"/><circle class="cls-3" cx="19.87" cy="116.34" r="0.58"/><circle class="cls-3" cx="17.74" cy="119.15" r="0.56"/><path class="cls-4" d="M61.11,156.89A6.17,6.17,0,0,1,63.54,152l-.51.1a.09.09,0,0,1-.09,0l-.69-1h0a.46.46,0,0,0,.29-.58.45.45,0,0,0-.6-.28l-.88.33a.47.47,0,0,0-.28.58.46.46,0,0,0,.6.29l.17-.07.18,1.21a.09.09,0,0,1,0,.09,5.33,5.33,0,0,0-1.29,1,.08.08,0,0,1-.1,0l-.78-.34a.44.44,0,0,0-.37-.67.44.44,0,0,0-.35.17l-.38.5a.44.44,0,1,0,.7.54l0-.07.56.66a.09.09,0,0,1,0,.1,5.23,5.23,0,0,0-.65,1.9.1.1,0,0,1-.07.08l-1.17.27a.5.5,0,0,0-.49-.5.51.51,0,0,0-.52.51v.86a.51.51,0,0,0,.5.5.51.51,0,0,0,.36-.15.49.49,0,0,0,.15-.35v-.14l1.18.27a.08.08,0,0,1,.07.08,5.31,5.31,0,0,0,.6,1.8.08.08,0,0,1,0,.1l-.74.84a.49.49,0,0,0-.7-.09.5.5,0,0,0-.09.68l.27.39a.5.5,0,0,0,.68.14.48.48,0,0,0,.17-.64l1.05-.44a.1.1,0,0,1,.1,0,5.25,5.25,0,0,0,1.45,1.1.08.08,0,0,1,0,.09l-.14,1.29h0a.58.58,0,0,0-.74.34.56.56,0,0,0,.34.71l.86.32a.4.4,0,0,0,.57-.4.58.58,0,0,0,0-.19.57.57,0,0,0-.37-.53h0l.7-1.1a.1.1,0,0,1,.09,0,5.19,5.19,0,0,0,1.05.11h.12a6.17,6.17,0,0,1-3.29-5.46Z" transform="translate(-47.15 -41.64)"/><circle class="cls-2" cx="14.24" cy="117.81" r="0.58"/><path class="cls-3" d="M65.71,156.89h-.2a.22.22,0,0,1-.22-.23.22.22,0,0,1,.22-.22h.2a.22.22,0,0,1,.22.22A.22.22,0,0,1,65.71,156.89Z" transform="translate(-47.15 -41.64)"/><path class="cls-3" d="M63.08,160.78h-.2a.22.22,0,1,1,0-.44h.2a.22.22,0,0,1,0,.44Z" transform="translate(-47.15 -41.64)"/><path class="cls-2" d="M61,157.54h-.2a.22.22,0,0,1-.22-.23.22.22,0,0,1,.22-.22H61a.22.22,0,0,1,.22.22A.22.22,0,0,1,61,157.54Z" transform="translate(-47.15 -41.64)"/><path class="cls-3" d="M65,153.63h-.27a.22.22,0,1,1,0-.44H65a.22.22,0,1,1,0,.44Z" transform="translate(-47.15 -41.64)"/><path class="cls-2" d="M66.74,160.06h-.3a.22.22,0,0,1-.22-.22.22.22,0,0,1,.22-.23h.3a.23.23,0,1,1,0,.45Z" transform="translate(-47.15 -41.64)"/><ellipse class="cls-2" cx="62.55" cy="155.18" rx="1.54" ry="1.28" transform="translate(-129.8 30.41) rotate(-38.26)"/></svg>