<svg id="Layer_1" data-name="Layer 1" xmlns="http://www.w3.org/2000/svg" viewBox="0 0 196.84 199.55"><defs><style>.cls-1{fill:#f79595}.cls-2{fill:#ee6161}.cls-3{fill:#f9b1b1}.cls-4{fill:#f37c7c}</style></defs><path class="cls-1" d="M144.73 226a1 1 0 01.77 1.15l-.38 2a1 1 0 11-1.93-.4v-.06l-2.56.12a.19.19 0 00-.17.13 10.74 10.74 0 01-1 2.15.2.2 0 000 .22l1.13 1.34a1.21 1.21 0 011.54-.08 1.18 1.18 0 01.22 1.66l-.33.43a1.21 1.21 0 01-1.63.28 1.2 1.2 0 01-.45-1.36l-1.63-.71a.17.17 0 00-.21 0 11.34 11.34 0 01-2.61 2.12.17.17 0 00-.09.19l.41 2.55.36-.15a1 1 0 011.3.59 1 1 0 01-.59 1.25l-1.85.74a1 1 0 01-1.29-.6 1 1 0 01.59-1.24h.05l-1.49-2.09a.2.2 0 00-.2-.07 11.17 11.17 0 01-2.79.36 10.86 10.86 0 01-2.22-.23.21.21 0 00-.2.08l-1.48 2.36a1.2 1.2 0 01.79 1.12 1.14 1.14 0 01-.07.41.84.84 0 01-1.2.84l-1.83-.67a1.19 1.19 0 01-.72-1.51 1.22 1.22 0 011.57-.72l.3-2.74a.19.19 0 00-.1-.19 10.87 10.87 0 01-3.08-2.35.18.18 0 00-.2 0l-2.24.92a1 1 0 01-.35 1.37 1.07 1.07 0 01-1.46-.3l-.57-.83a1.05 1.05 0 011.69-1.26l1.57-1.78a.18.18 0 000-.21A11.18 11.18 0 01119 227a.18.18 0 00-.14-.16l-2.52-.58v.29a1.06 1.06 0 01-.32.76 1.07 1.07 0 01-.76.31 1.05 1.05 0 01-1-1.07v-1.83a1.09 1.09 0 011.1-1.08 1.07 1.07 0 011 1.07l2.5-.58a.21.21 0 00.14-.13 11 11 0 011.38-4 .18.18 0 000-.21l-1.19-1.4-.11.13a.94.94 0 01-1.35.16 1 1 0 01-.13-1.31l.8-1a.93.93 0 01.75-.37.92.92 0 01.56.19.94.94 0 01.23 1.25l1.66.72a.18.18 0 00.21-.05 11.26 11.26 0 012.73-2.17.2.2 0 00.1-.19l-.39-2.56-.36.14a1 1 0 01-1.29-.61 1 1 0 01.61-1.23l1.86-.72a1 1 0 011.28.61 1 1 0 01-.6 1.24l1.46 2.1a.18.18 0 00.2.08 10.91 10.91 0 012.64-.32.2.2 0 00.18-.12l.48-1.36a1.24 1.24 0 01-.86-1.33 1.27 1.27 0 011.42-1.08l.67.08a1.27 1.27 0 011.11 1.37 1.25 1.25 0 01-1.05.96l.16 1.47a.19.19 0 00.15.16 11.15 11.15 0 013.15 1.22.18.18 0 00.21 0l2-1.63-.31-.24a1 1 0 01-.13-1.42 1 1 0 011.37-.1l1.56 1.23a1 1 0 01.13 1.42 1 1 0 01-1.37.1l-1.08 2.33a.2.2 0 000 .21 11 11 0 011.9 2.63.2.2 0 00.2.1l1.52-.22a1.18 1.18 0 01.74-1.52 1.2 1.2 0 011.49.74l.35.94a1.21 1.21 0 01-.62 1.53 1.2 1.2 0 01-1.49-.47l-1.26.85a.2.2 0 00-.08.21 11.06 11.06 0 01.4 2.95v.51a.19.19 0 00.11.18l2.37 1 .08-.38a1 1 0 011.15-.78z" transform="translate(-47.15 -41.64)"/><ellipse class="cls-2" cx="87.61" cy="178.35" rx="1.56" ry="1.31"/><circle class="cls-2" cx="81.97" cy="186.5" r="1.71"/><circle class="cls-3" cx="88.63" cy="185.61" r="1.22"/><circle class="cls-3" cx="84.11" cy="191.59" r="1.19"/><path class="cls-4" d="M123.21 224.92a13.09 13.09 0 015.18-10.44 9.37 9.37 0 00-1.08.21.18.18 0 01-.2-.08l-1.46-2.1a1 1 0 00.6-1.24 1 1 0 00-1.28-.61l-1.86.72a1 1 0 00-.61 1.23 1 1 0 001.29.61l.36-.14.39 2.56a.2.2 0 01-.1.19 11.26 11.26 0 00-2.73 2.17.18.18 0 01-.21.05l-1.66-.72a.94.94 0 00-.23-1.25.92.92 0 00-.56-.19.93.93 0 00-.75.37l-.8 1a1 1 0 00.13 1.31.94.94 0 001.35-.16l.11-.13 1.19 1.4a.18.18 0 010 .21 11 11 0 00-1.38 4 .21.21 0 01-.14.16l-2.5.58a1.07 1.07 0 00-1-1.07 1.09 1.09 0 00-1.1 1.08v1.83a1.05 1.05 0 001 1.07 1.07 1.07 0 00.76-.31 1.06 1.06 0 00.32-.76v-.29l2.52.58a.18.18 0 01.14.16 11.18 11.18 0 001.28 3.83.18.18 0 010 .21l-1.57 1.78a1.05 1.05 0 00-1.69 1.26l.57.83a1.07 1.07 0 001.46.3 1 1 0 00.35-1.37l2.24-.92a.18.18 0 01.2 0 10.87 10.87 0 003.08 2.35.19.19 0 01.1.19l-.3 2.74a1.22 1.22 0 00-1.57.72 1.19 1.19 0 00.72 1.51l1.83.67a.84.84 0 001.2-.84 1.14 1.14 0 00.07-.41 1.2 1.2 0 00-.79-1.12l1.49-2.34a.21.21 0 01.2-.08 10.86 10.86 0 002.22.23h.27a13.11 13.11 0 01-7-11.61z" transform="translate(-47.15 -41.64)"/><circle class="cls-2" cx="76.66" cy="188.74" r="1.24"/><path class="cls-3" d="M133 224.92h-.42a.47.47 0 01-.47-.47.48.48 0 01.47-.48h.42a.48.48 0 01.47.48.47.47 0 01-.47.47zM127.41 233.21H127a.48.48 0 110-1h.43a.48.48 0 010 1z" transform="translate(-47.15 -41.64)"/><path class="cls-2" d="M123 226.3h-.42a.47.47 0 110-.94h.42a.47.47 0 110 .94z" transform="translate(-47.15 -41.64)"/><path class="cls-3" d="M131.4 218h-.57a.48.48 0 01-.48-.47.49.49 0 01.48-.48h.57a.48.48 0 01.48.48.47.47 0 01-.48.47z" transform="translate(-47.15 -41.64)"/><path class="cls-2" d="M135.19 231.66h-.63a.47.47 0 110-.94h.63a.47.47 0 110 .94z" transform="translate(-47.15 -41.64)"/><ellipse class="cls-2" cx="126.28" cy="221.3" rx="3.26" ry="2.73" transform="rotate(-38.26 42.655 268.433)"/><path class="cls-1" d="M219.1 59.85a1.16 1.16 0 01.9 1.35l-.46 2.32a1.15 1.15 0 01-1.4.9 1.17 1.17 0 01-.85-1.37V63l-3 .13a.22.22 0 00-.19.15 13.07 13.07 0 01-1.1 2.51.21.21 0 000 .25l1.33 1.58a1.38 1.38 0 012.05 1.85L216 70a1.42 1.42 0 01-1.91.33 1.39 1.39 0 01-.53-1.59l-1.91-.84a.23.23 0 00-.25 0 12.81 12.81 0 01-3 2.48.21.21 0 00-.11.22l.49 3 .42-.17a1.16 1.16 0 011.52.69 1.18 1.18 0 01-.69 1.46l-2.17.86a1.14 1.14 0 01-1.51-.69 1.18 1.18 0 01.65-1.45h.06l-1.75-2.44a.21.21 0 00-.23-.09 13 13 0 01-5.87.16.23.23 0 00-.21.07l-1.74 2.74h.06a1.41 1.41 0 01.92 1.32 1.36 1.36 0 01-.09.48 1 1 0 01-1.4 1l-2.14-.78a1.4 1.4 0 01-.85-1.77 1.43 1.43 0 011.84-.85h.05L196 71a.21.21 0 00-.12-.22 13.15 13.15 0 01-3.64-2.78.22.22 0 00-.24-.06L189.38 69a1.22 1.22 0 01-.38 1.6 1.25 1.25 0 01-1.71-.35l-.67-1a1.23 1.23 0 012-1.47l1.84-2.08a.25.25 0 000-.26 12.74 12.74 0 01-1.5-4.49.21.21 0 00-.17-.18l-2.94-.68v.34a1.25 1.25 0 11-2.5 0v-2.14a1.28 1.28 0 011.28-1.27 1.25 1.25 0 011.22 1.26l2.93-.69a.2.2 0 00.16-.18 12.84 12.84 0 011.62-4.73.23.23 0 000-.25l-1.4-1.64-.16.21a1.09 1.09 0 01-1.58.18 1.12 1.12 0 01-.15-1.53l.93-1.23a1.09 1.09 0 01.87-.43 1.07 1.07 0 01.66.22 1.1 1.1 0 01.27 1.46l2 .85a.24.24 0 00.25-.06 13.12 13.12 0 013.19-2.55.2.2 0 00.11-.22l-.45-3-.42.16a1.15 1.15 0 01-1.51-.71 1.18 1.18 0 01.71-1.45l2.18-.83a1.14 1.14 0 011.5.71 1.17 1.17 0 01-.71 1.45h-.06l1.71 2.47a.22.22 0 00.24.08 13.14 13.14 0 013.09-.37.22.22 0 00.2-.14l.57-1.59a1.45 1.45 0 01-1-1.56 1.49 1.49 0 011.66-1.27l.78.1a1.48 1.48 0 011.3 1.61 1.46 1.46 0 01-1.08 1.25l.2 1.72a.21.21 0 00.17.18 12.72 12.72 0 013.65 1.5.23.23 0 00.25 0l2.35-2-.36-.28a1.15 1.15 0 01-.15-1.66A1.17 1.17 0 01212 44l1.82 1.45a1.14 1.14 0 01.15 1.65 1.18 1.18 0 01-1.61.13h-.05L211 49.88a.21.21 0 000 .24 13 13 0 012.23 3.08.22.22 0 00.22.12l1.79-.25a1.38 1.38 0 01.87-1.79 1.41 1.41 0 011.74.86l.41 1.11a1.41 1.41 0 01-.73 1.79 1.39 1.39 0 01-1.74-.56l-1.48 1a.2.2 0 00-.08.24 13.13 13.13 0 01.46 3.46v.6a.22.22 0 00.13.21l2.77 1.21.09-.45a1.16 1.16 0 011.35-.91z" transform="translate(-47.15 -41.64)"/><ellipse class="cls-2" cx="160.28" cy="11.16" rx="1.83" ry="1.53"/><circle class="cls-2" cx="153.67" cy="20.7" r="2"/><circle class="cls-3" cx="161.47" cy="19.66" r="1.43"/><circle class="cls-3" cx="156.18" cy="26.65" r="1.39"/><path class="cls-4" d="M193.9 58.57a15.32 15.32 0 016.1-12.23c-.43.06-.86.14-1.27.24a.22.22 0 01-.24-.08l-1.74-2.5h.06a1.17 1.17 0 00.71-1.45 1.14 1.14 0 00-1.5-.71l-2.18.83a1.18 1.18 0 00-.71 1.45 1.15 1.15 0 001.51.71l.42-.16.45 3a.2.2 0 01-.11.22 13.12 13.12 0 00-3.19 2.55.24.24 0 01-.25.06l-2-.85a1.1 1.1 0 00-.27-1.46 1.07 1.07 0 00-.66-.22 1.09 1.09 0 00-.87.43l-.93 1.23a1.12 1.12 0 00.15 1.53A1.09 1.09 0 00189 51l.12-.16 1.4 1.64a.23.23 0 010 .25 12.84 12.84 0 00-1.62 4.73.2.2 0 01-.16.18l-2.93.69a1.25 1.25 0 00-1.22-1.26 1.28 1.28 0 00-1.28 1.27v2.14a1.25 1.25 0 102.5 0v-.34l2.94.68a.21.21 0 01.17.18 12.74 12.74 0 001.5 4.49.25.25 0 010 .26l-1.84 2.08a1.23 1.23 0 00-2 1.47l.67 1a1.25 1.25 0 001.71.35 1.22 1.22 0 00.41-1.61l2.63-1.12a.22.22 0 01.24.06 13.15 13.15 0 003.61 2.75.21.21 0 01.15.27l-.36 3.21h-.05a1.43 1.43 0 00-1.84.85 1.4 1.4 0 00.85 1.77l2.14.78a1 1 0 001.4-1 1.36 1.36 0 00.09-.48 1.41 1.41 0 00-.92-1.32h-.06L199 72a.23.23 0 01.23-.09 13.1 13.1 0 002.6.26h.32a15.35 15.35 0 01-8.21-13.59z" transform="translate(-47.15 -41.64)"/><circle class="cls-2" cx="147.46" cy="23.32" r="1.45"/><path class="cls-3" d="M205.35 58.57h-.49a.56.56 0 010-1.11h.49a.56.56 0 110 1.11zM198.81 68.27h-.5a.56.56 0 010-1.11h.5a.56.56 0 110 1.11z" transform="translate(-47.15 -41.64)"/><path class="cls-2" d="M193.64 60.19h-.49a.56.56 0 010-1.11h.49a.56.56 0 010 1.11z" transform="translate(-47.15 -41.64)"/><path class="cls-3" d="M203.5 50.48h-.68a.55.55 0 01-.55-.56.54.54 0 01.55-.55h.68a.55.55 0 01.55.55.56.56 0 01-.55.56z" transform="translate(-47.15 -41.64)"/><path class="cls-2" d="M207.94 66.46h-.75a.55.55 0 01-.56-.55.56.56 0 01.56-.56h.75a.56.56 0 01.55.56.55.55 0 01-.55.55z" transform="translate(-47.15 -41.64)"/><ellipse class="cls-2" cx="197.49" cy="54.33" rx="3.82" ry="3.19" transform="rotate(-38.26 113.877 101.464)"/><path class="cls-1" d="M242.93 190.3a1.32 1.32 0 011 1.55l-.52 2.65a1.32 1.32 0 11-2.58-.54v-.08l-3.43.16a.23.23 0 00-.22.17 15.31 15.31 0 01-1.31 2.88.24.24 0 000 .29l1.52 1.8a1.6 1.6 0 011.09-.43 1.54 1.54 0 011 .32 1.58 1.58 0 01.3 2.22l-.44.58a1.62 1.62 0 01-2.18.37 1.58 1.58 0 01-.61-1.81l-2.18-1a.26.26 0 00-.29.06 14.89 14.89 0 01-3.49 2.83.25.25 0 00-.12.26l.56 3.41.48-.19a1.3 1.3 0 011.73.79 1.32 1.32 0 01-.79 1.66l-2.47 1a1.31 1.31 0 01-1.73-.79 1.33 1.33 0 01.79-1.66h.07l-2-2.8a.25.25 0 00-.27-.09 14.78 14.78 0 01-3.73.47 14.62 14.62 0 01-3-.3.25.25 0 00-.26.11l-2 3.13h.07a1.6 1.6 0 011.05 1.5 1.49 1.49 0 01-.1.55 1.12 1.12 0 01-1.6 1.12l-2.45-.89a1.61 1.61 0 01-1-2 1.65 1.65 0 012.1-1h.06l.41-3.67a.27.27 0 00-.14-.25 14.92 14.92 0 01-4.12-3.14.24.24 0 00-.28-.06l-3 1.22a1.42 1.42 0 01-.47 1.85 1.45 1.45 0 01-2-.41l-.76-1.11a1.41 1.41 0 012.38-1.63l2.1-2.38a.26.26 0 000-.29 14.73 14.73 0 01-1.72-5.14.23.23 0 00-.19-.2l-3.37-.78v.39a1.43 1.43 0 11-2.86 0v-2.45a1.46 1.46 0 011.47-1.45 1.42 1.42 0 011.39 1.44l3.35-.79a.26.26 0 00.19-.21 14.73 14.73 0 011.84-5.4.28.28 0 000-.29l-1.6-1.87-.14.18a1.25 1.25 0 01-1.8.21 1.28 1.28 0 01-.18-1.75l1.06-1.41a1.29 1.29 0 011-.5 1.26 1.26 0 011 1.93l2.24 1a.25.25 0 00.28-.07 14.9 14.9 0 013.65-2.91.27.27 0 00.13-.26l-.51-3.42-.49.19a1.31 1.31 0 01-1.72-.82 1.33 1.33 0 01.81-1.65l2.48-1a1.32 1.32 0 11.91 2.47h-.06l2 2.82a.24.24 0 00.27.1 14.73 14.73 0 013.54-.43.25.25 0 00.24-.16l.65-1.81a1.68 1.68 0 01-1.16-1.79 1.71 1.71 0 011.9-1.45l.89.12a1.66 1.66 0 01.26 3.26l.22 2a.24.24 0 00.2.21 14.81 14.81 0 014.22 1.64.26.26 0 00.28 0l2.68-2.18-.4-.32a1.32 1.32 0 111.66-2l2.09 1.65a1.32 1.32 0 01.17 1.9 1.35 1.35 0 01-1.84.14l-1.44 3.12a.23.23 0 000 .28 14.88 14.88 0 012.55 3.52.26.26 0 00.25.13l2-.29a1.59 1.59 0 011-2 1.61 1.61 0 012 1l.47 1.26a1.61 1.61 0 01-.83 2 1.57 1.57 0 01-2-.63l-1.7 1.15a.28.28 0 00-.1.27 14.84 14.84 0 01.54 4v.69a.27.27 0 00.15.24l3.17 1.38.1-.51a1.32 1.32 0 011.55-1z" transform="translate(-47.15 -41.64)"/><ellipse class="cls-2" cx="182.44" cy="140.6" rx="2.09" ry="1.75"/><circle class="cls-2" cx="174.88" cy="151.5" r="2.29"/><circle class="cls-3" cx="183.8" cy="150.31" r="1.64"/><circle class="cls-3" cx="177.74" cy="158.31" r="1.59"/><path class="cls-4" d="M214.12 188.83a17.55 17.55 0 016.93-14 13.76 13.76 0 00-1.45.28.24.24 0 01-.27-.1l-2-2.82h.06a1.32 1.32 0 10-.91-2.47l-2.48 1a1.33 1.33 0 00-.81 1.65 1.31 1.31 0 001.72.82l.49-.19.51 3.42a.27.27 0 01-.13.26 14.9 14.9 0 00-3.65 2.91.25.25 0 01-.28.07l-2.24-1a1.26 1.26 0 00-1-1.93 1.29 1.29 0 00-1 .5l-1.06 1.41a1.28 1.28 0 00.18 1.75 1.25 1.25 0 001.8-.21l.14-.18 1.6 1.87a.28.28 0 010 .29 14.73 14.73 0 00-1.84 5.4.26.26 0 01-.19.21l-3.35.79a1.42 1.42 0 00-1.39-1.44 1.46 1.46 0 00-1.47 1.45v2.45a1.41 1.41 0 001.42 1.43 1.45 1.45 0 001.44-1.43v-.39l3.37.78a.23.23 0 01.19.2 14.73 14.73 0 001.72 5.14.26.26 0 010 .29L208 199.4a1.41 1.41 0 00-2.26 1.68l.76 1.11a1.45 1.45 0 002 .41 1.42 1.42 0 00.47-1.85l3-1.22a.24.24 0 01.28.06 14.92 14.92 0 004.12 3.14.27.27 0 01.14.25l-.41 3.67h-.06a1.65 1.65 0 00-2.1 1 1.61 1.61 0 001 2l2.45.89a1.12 1.12 0 001.6-1.12 1.49 1.49 0 00.1-.55 1.6 1.6 0 00-1.05-1.5h-.07l2-3.13a.25.25 0 01.26-.11 14.62 14.62 0 003 .3h.36a17.56 17.56 0 01-9.38-15.55z" transform="translate(-47.15 -41.64)"/><circle class="cls-2" cx="167.77" cy="154.5" r="1.66"/><path class="cls-3" d="M227.21 188.83h-.56a.64.64 0 01-.64-.63.64.64 0 01.64-.64h.56a.64.64 0 01.63.64.63.63 0 01-.63.63zM219.73 199.93h-.57a.64.64 0 01-.64-.64.64.64 0 01.64-.63h.57a.64.64 0 01.64.63.64.64 0 01-.64.64z" transform="translate(-47.15 -41.64)"/><path class="cls-2" d="M213.81 190.68h-.55a.63.63 0 110-1.26h.55a.63.63 0 110 1.26z" transform="translate(-47.15 -41.64)"/><path class="cls-3" d="M225.09 179.58h-.78a.63.63 0 01-.63-.63.64.64 0 01.63-.64h.78a.64.64 0 01.63.64.63.63 0 01-.63.63z" transform="translate(-47.15 -41.64)"/><path class="cls-2" d="M230.16 197.86h-.85a.64.64 0 01-.64-.63.64.64 0 01.64-.64h.85a.64.64 0 01.64.64.64.64 0 01-.64.63z" transform="translate(-47.15 -41.64)"/><ellipse class="cls-2" cx="218.22" cy="183.99" rx="4.37" ry="3.65" transform="rotate(-38.26 134.596 231.126)"/><path class="cls-1" d="M94.33 78a1.51 1.51 0 011.2 1.78l-.6 3.06A1.51 1.51 0 0193.08 84 1.54 1.54 0 0192 82.18v-.09l-4 .18a.3.3 0 00-.26.2 16.34 16.34 0 01-1.51 3.32.3.3 0 000 .34L88 88.21a1.78 1.78 0 011.26-.51 1.83 1.83 0 011.45 2.94l-.51.66a1.86 1.86 0 01-2.52.43 1.84 1.84 0 01-.68-2.09l-2.52-1.1a.29.29 0 00-.33.07 17.37 17.37 0 01-4 3.26.28.28 0 00-.14.3l.64 3.93.56-.22a1.52 1.52 0 111.09 2.83l-2.85 1.15a1.52 1.52 0 01-2-.92 1.55 1.55 0 01.9-1.94h.08l-2.31-3.22a.27.27 0 00-.3-.11 17.47 17.47 0 01-7.74.2.29.29 0 00-.31.12l-2.3 3.62h.08a1.85 1.85 0 011.22 1.73 1.94 1.94 0 01-.11.63 1.3 1.3 0 01-1.85 1.3l-2.83-1a1.83 1.83 0 01-1.11-2.33 1.88 1.88 0 012.42-1.12h.06l.47-4.23a.29.29 0 00-.15-.29 17.24 17.24 0 01-4.76-3.63.31.31 0 00-.32-.07L55.14 90a1.62 1.62 0 01-.54 2.12 1.66 1.66 0 01-2.26-.47l-.88-1.27a1.65 1.65 0 01.3-2.24 1.63 1.63 0 012.31.3l2.43-2.75a.29.29 0 000-.33 16.88 16.88 0 01-2-5.93.3.3 0 00-.22-.24l-3.89-.9v.46a1.66 1.66 0 01-.5 1.17 1.68 1.68 0 01-1.17.48 1.63 1.63 0 01-1.63-1.65v-2.82a1.68 1.68 0 011.7-1.68 1.64 1.64 0 011.6 1.66l3.94-.91a.29.29 0 00.22-.24 16.93 16.93 0 012.13-6.24.29.29 0 000-.33l-1.84-2.16-.16.21a1.44 1.44 0 01-2.08.24 1.48 1.48 0 01-.21-2l1.23-1.62a1.47 1.47 0 011.16-.57 1.42 1.42 0 01.87.29 1.45 1.45 0 01.35 1.93l2.57 1.11a.3.3 0 00.33-.07 16.94 16.94 0 014.21-3.36.3.3 0 00.15-.3L62.63 58l-.56.22a1.52 1.52 0 01-2-.94 1.54 1.54 0 01.93-1.96l2.87-1.11a1.53 1.53 0 012 .95 1.55 1.55 0 01-.94 1.9h-.08l2.26 3.26a.29.29 0 00.31.11 17.14 17.14 0 014.09-.43.28.28 0 00.28-.19l.75-2.09a1.93 1.93 0 01-1.34-2.06A2 2 0 0173.39 54l1 .13a1.92 1.92 0 01.29 3.77l.32 2.22a.31.31 0 00.23.25 17.12 17.12 0 014.87 1.89.29.29 0 00.32 0l3.1-2.52-.52-.39a1.52 1.52 0 01-.2-2.19 1.54 1.54 0 012.14-.16l2.4 1.91a1.51 1.51 0 01.2 2.19 1.55 1.55 0 01-2.12.16h-.06l-1.66 3.6a.28.28 0 00.06.32 17.12 17.12 0 012.94 4.06.27.27 0 00.29.15l2.35-.39a1.83 1.83 0 011.16-2.35 1.86 1.86 0 012.3 1.14l.54 1.45a1.86 1.86 0 01-1 2.36 1.82 1.82 0 01-2.29-.73l-2 1.33a.28.28 0 00-.12.31 17.26 17.26 0 01.62 4.57v.79a.26.26 0 00.17.27l3.66 1.6.11-.59A1.53 1.53 0 0194.33 78z" transform="translate(-47.15 -41.64)"/><ellipse class="cls-2" cx="31.8" cy="27.02" rx="2.42" ry="2.02"/><circle class="cls-2" cx="23.07" cy="39.6" r="2.64"/><circle class="cls-3" cx="33.37" cy="38.22" r="1.89"/><circle class="cls-3" cx="26.38" cy="47.45" r="1.84"/><path class="cls-4" d="M61.1 76.27a20.23 20.23 0 018-16.13c-.57.08-1.13.19-1.67.32a.29.29 0 01-.31-.11l-2.26-3.26h.08a1.55 1.55 0 00.94-1.9 1.53 1.53 0 00-2-.95L61 55.32a1.54 1.54 0 00-.93 1.91 1.52 1.52 0 002 .94l.56-.22.6 3.94a.3.3 0 01-.15.3 16.94 16.94 0 00-4.21 3.36.3.3 0 01-.33.07L56 64.51a1.45 1.45 0 00-.35-1.93 1.42 1.42 0 00-.87-.29 1.47 1.47 0 00-1.16.57l-1.23 1.62a1.48 1.48 0 00.21 2 1.44 1.44 0 002.08-.24l.16-.21 1.84 2.16a.29.29 0 010 .33 16.93 16.93 0 00-2.13 6.24.29.29 0 01-.22.24l-3.86.91a1.64 1.64 0 00-1.6-1.66 1.68 1.68 0 00-1.7 1.75v2.82a1.63 1.63 0 001.63 1.65 1.68 1.68 0 001.2-.53 1.66 1.66 0 00.5-1.17v-.46l3.89.9a.3.3 0 01.22.24 16.88 16.88 0 002 5.93.29.29 0 010 .33l-2.43 2.75a1.63 1.63 0 00-2.31-.3 1.65 1.65 0 00-.3 2.24l.88 1.27a1.66 1.66 0 002.26.47 1.62 1.62 0 00.43-2.14l3.45-1.42a.31.31 0 01.32.07 17.24 17.24 0 004.76 3.63.29.29 0 01.15.29l-.47 4.23h-.06a1.88 1.88 0 00-2.42 1.12 1.83 1.83 0 001.13 2.33l2.83 1a1.3 1.3 0 001.85-1.3 1.94 1.94 0 00.11-.63 1.85 1.85 0 00-1.22-1.73h-.08L67.77 94a.29.29 0 01.31-.12 17.58 17.58 0 003.43.34h.42A20.25 20.25 0 0161.1 76.27z" transform="translate(-47.15 -41.64)"/><circle class="cls-2" cx="14.88" cy="43.06" r="1.92"/><path class="cls-3" d="M76.2 76.27h-.64a.74.74 0 110-1.47h.64a.74.74 0 110 1.47zM67.58 89.06h-.66a.73.73 0 110-1.46h.66a.73.73 0 010 1.46z" transform="translate(-47.15 -41.64)"/><path class="cls-2" d="M60.75 78.4h-.64a.73.73 0 110-1.46h.64a.73.73 0 110 1.46z" transform="translate(-47.15 -41.64)"/><path class="cls-3" d="M73.76 65.59h-.9a.73.73 0 010-1.46h.9a.73.73 0 110 1.46z" transform="translate(-47.15 -41.64)"/><path class="cls-2" d="M79.61 86.68h-1a.73.73 0 110-1.46h1a.73.73 0 010 1.46z" transform="translate(-47.15 -41.64)"/><ellipse class="cls-2" cx="65.84" cy="70.68" rx="5.04" ry="4.21" transform="rotate(-38.26 -17.772 117.812)"/><path class="cls-1" d="M199.29 131.88A3.46 3.46 0 01202 136l-1.37 7a3.46 3.46 0 01-4.23 2.7 3.53 3.53 0 01-2.56-4.13v-.18l-9 .41a.64.64 0 00-.59.45 39.76 39.76 0 01-3.45 7.59.63.63 0 00.06.76l4 4.75a4.16 4.16 0 012.88-1.15 4.12 4.12 0 012.53.86 4.17 4.17 0 01.78 5.85l-1.16 1.52a4.24 4.24 0 01-5.74 1 4.16 4.16 0 01-1.59-4.77l-5.75-2.66a.66.66 0 00-.75.17 39.26 39.26 0 01-9.21 7.46.64.64 0 00-.32.67l1.47 9 1.28-.52a3.48 3.48 0 014.57 2.09 3.54 3.54 0 01-2.08 4.39l-6.52 2.61a3.48 3.48 0 01-4.57-2.09 3.54 3.54 0 012.08-4.39l.18-.07-5.26-7.32a.66.66 0 00-.7-.25 39.37 39.37 0 01-17.69.46.67.67 0 00-.69.29l-5.26 8.26.19.06a4.22 4.22 0 012.77 4 4.3 4.3 0 01-.25 1.45 2.94 2.94 0 01-4.22 2.95l-6.47-2.35a4.22 4.22 0 01-2.54-5.34 4.31 4.31 0 015.54-2.55l.15.05 1.07-9.67a.68.68 0 00-.36-.66 39.18 39.18 0 01-10.86-8.29.67.67 0 00-.73-.17l-7.89 3.24a3.71 3.71 0 01-1.24 4.85 3.79 3.79 0 01-5.16-1.07l-2-2.91a3.79 3.79 0 01.69-5.12 3.73 3.73 0 015.27.68l5.56-6.28a.68.68 0 00.08-.76 39 39 0 01-4.52-13.53.64.64 0 00-.5-.55l-8.88-2v1a3.79 3.79 0 01-3.8 3.77 3.74 3.74 0 01-3.73-3.77l.06-6.45a3.84 3.84 0 013.87-3.83 3.76 3.76 0 013.66 3.78l8.82-2.06a.67.67 0 00.5-.56 38.82 38.82 0 014.86-14.24.67.67 0 00-.07-.76l-4.2-4.94-.37.49a3.3 3.3 0 01-4.75.54 3.36 3.36 0 01-.46-4.61l2.8-3.7a3.31 3.31 0 015.43 3.76l5.87 2.55a.66.66 0 00.75-.17 39.22 39.22 0 019.64-7.68.67.67 0 00.32-.67l-1.35-9-1.29.5a3.46 3.46 0 01-4.6-2.24 3.54 3.54 0 012.14-4.36l6.55-2.52a3.47 3.47 0 014.54 2.15 3.54 3.54 0 01-2.14 4.36l-.18.07 5.16 7.43a.63.63 0 00.69.26 39.41 39.41 0 019.34-1.12.65.65 0 00.63-.43l1.71-4.78a4.37 4.37 0 01-3-4.7 4.48 4.48 0 015-3.82l2.35.29a4.46 4.46 0 013.92 4.84 4.39 4.39 0 01-3.25 3.77l.59 5.18a.65.65 0 00.52.56A39.2 39.2 0 01166.68 96a.66.66 0 00.75 0l7.08-5.75-1.08-.85a3.47 3.47 0 01-.45-5 3.53 3.53 0 014.84-.37l5.5 4.36a3.47 3.47 0 01.45 5 3.53 3.53 0 01-4.84.37l-.15-.11-3.78 8.17a.66.66 0 00.13.74 39 39 0 016.72 9.27.65.65 0 00.67.35l5.37-.75a4.2 4.2 0 012.64-5.39 4.25 4.25 0 015.25 2.61L197 112a4.25 4.25 0 01-2.21 5.39 4.17 4.17 0 01-5.24-1.66l-4.46 3a.65.65 0 00-.26.73 39.37 39.37 0 011.4 10.43v1.8a.66.66 0 00.39.63L195 136l.27-1.35a3.46 3.46 0 014.06-2.73z" transform="translate(-47.15 -41.64)"/><ellipse class="cls-2" cx="116.97" cy="68.98" rx="5.52" ry="4.62"/><circle class="cls-2" cx="97.05" cy="97.73" r="6.03"/><circle class="cls-3" cx="120.57" cy="94.59" r="4.32"/><circle class="cls-3" cx="104.61" cy="115.67" r="4.2"/><path class="cls-4" d="M123.36 128a46.2 46.2 0 0118.27-36.84c-1.29.18-2.57.43-3.83.73a.63.63 0 01-.69-.26L132 84.2l.18-.07a3.54 3.54 0 002.14-4.36 3.47 3.47 0 00-4.54-2.15l-6.55 2.52A3.54 3.54 0 00121 84.5a3.46 3.46 0 004.53 2.15l1.29-.5 1.35 9a.67.67 0 01-.32.67 39.22 39.22 0 00-9.64 7.68.66.66 0 01-.75.17l-5.87-2.55a3.31 3.31 0 00-5.43-3.76l-2.8 3.7a3.36 3.36 0 00.46 4.61 3.3 3.3 0 004.75-.54l.37-.49 4.2 4.94a.67.67 0 01.07.76 38.82 38.82 0 00-4.86 14.24.67.67 0 01-.5.56l-8.82 2.06a3.76 3.76 0 00-3.66-3.78 3.84 3.84 0 00-3.87 3.83l-.06 6.45a3.74 3.74 0 003.73 3.77 3.79 3.79 0 003.8-3.77v-1l8.88 2a.64.64 0 01.5.55 39 39 0 004.52 13.53.68.68 0 01-.08.76l-5.56 6.28a3.73 3.73 0 00-5.27-.68 3.79 3.79 0 00-.69 5.12l2 2.91a3.79 3.79 0 005.16 1.07 3.71 3.71 0 001.24-4.85l7.89-3.24a.67.67 0 01.73.17 39.18 39.18 0 0010.86 8.29.68.68 0 01.36.66l-1 9.73-.15-.05a4.31 4.31 0 00-5.54 2.55 4.22 4.22 0 002.54 5.34l6.47 2.35a2.94 2.94 0 004.22-2.95 4.3 4.3 0 00.25-1.45 4.22 4.22 0 00-2.77-4l-.19-.06 5.26-8.26a.67.67 0 01.69-.29 39.07 39.07 0 007.85.79h1a46.29 46.29 0 01-24.73-41z" transform="translate(-47.15 -41.64)"/><circle class="cls-2" cx="78.33" cy="105.62" r="4.38"/><path class="cls-3" d="M157.86 128h-1.48a1.67 1.67 0 110-3.34h1.48a1.67 1.67 0 010 3.34zM138.16 157.24h-1.52a1.67 1.67 0 110-3.34h1.52a1.67 1.67 0 110 3.34z" transform="translate(-47.15 -41.64)"/><path class="cls-2" d="M122.56 132.88h-1.46a1.67 1.67 0 110-3.34h1.46a1.67 1.67 0 010 3.34z" transform="translate(-47.15 -41.64)"/><path class="cls-3" d="M152.27 103.62h-2a1.67 1.67 0 110-3.34h2a1.67 1.67 0 010 3.34z" transform="translate(-47.15 -41.64)"/><path class="cls-2" d="M165.64 151.8h-2.25a1.68 1.68 0 010-3.35h2.25a1.68 1.68 0 110 3.35z" transform="translate(-47.15 -41.64)"/><ellipse class="cls-2" cx="134.18" cy="115.23" rx="11.52" ry="9.62" transform="rotate(-38.26 50.571 162.366)"/><path class="cls-1" d="M71.23 157.4a.47.47 0 01.37.54l-.19.94a.46.46 0 01-.56.36.47.47 0 01-.34-.55l-1.2.06a.08.08 0 00-.08.06 5.41 5.41 0 01-.46 1 .08.08 0 000 .1l.53.63a.54.54 0 01.38-.15.6.6 0 01.34.11.56.56 0 01.1.78l-.15.21a.58.58 0 01-.77.13.56.56 0 01-.2-.62l-.77-.34a.1.1 0 00-.1 0 5.15 5.15 0 01-1.23 1 .1.1 0 000 .09l.2 1.2.17-.07a.46.46 0 11.33.86l-.87.35a.46.46 0 01-.61-.28.47.47 0 01.28-.58l-.7-1a.09.09 0 00-.09 0 5.1 5.1 0 01-2.36.06.1.1 0 00-.09 0l-.7 1.1a.57.57 0 01.37.53.58.58 0 010 .19.4.4 0 01-.57.4l-.86-.32a.56.56 0 01-.34-.71.58.58 0 01.74-.34l.14-1.29a.08.08 0 000-.09 5.25 5.25 0 01-1.45-1.1.1.1 0 00-.1 0l-1.05.44a.48.48 0 01-.17.64.5.5 0 01-.68-.14l-.27-.39a.5.5 0 01.09-.68.49.49 0 01.7.09l.74-.84a.08.08 0 000-.1 5.31 5.31 0 01-.6-1.8.08.08 0 00-.07-.08l-1.18-.27v.14a.49.49 0 01-.15.35.51.51 0 01-.36.15.51.51 0 01-.5-.5v-.86a.51.51 0 01.52-.51.5.5 0 01.49.5l1.17-.27a.1.1 0 00.07-.08 5.23 5.23 0 01.65-1.9.09.09 0 000-.1l-.56-.66v.07a.44.44 0 11-.7-.54l.38-.5a.44.44 0 01.35-.17.44.44 0 01.37.67l.78.34a.08.08 0 00.1 0 5.33 5.33 0 011.29-1 .09.09 0 000-.09l-.18-1.21-.17.07a.46.46 0 01-.6-.29.47.47 0 01.28-.58l.88-.33a.45.45 0 01.6.28.46.46 0 01-.29.58l.69 1a.09.09 0 00.09 0 5.16 5.16 0 011.25-.15.08.08 0 00.08-.06l.23-.63a.59.59 0 01.26-1.14h.31a.58.58 0 01.09 1.15l.08.69a.1.1 0 00.07.07 5 5 0 011.48.58.09.09 0 00.1 0l1-.77-.15-.11a.48.48 0 01-.06-.67.49.49 0 01.65-.05l.73.59a.45.45 0 01.06.66.46.46 0 01-.64.05l-.64 1.09v.1a5.21 5.21 0 01.89 1.24.12.12 0 00.09.05l.72-.11a.56.56 0 011.05-.37l.17.45a.57.57 0 01-.3.72.56.56 0 01-.7-.23l-.59.41a.09.09 0 000 .09 5 5 0 01.19 1.4v.24a.07.07 0 00.05.08l1.11.49v-.18a.46.46 0 01.54-.37z" transform="translate(-47.15 -41.64)"/><ellipse class="cls-2" cx="19.39" cy="112.93" rx=".74" ry=".62"/><circle class="cls-2" cx="16.74" cy="116.76" r=".8"/><circle class="cls-3" cx="19.87" cy="116.34" r=".58"/><circle class="cls-3" cx="17.74" cy="119.15" r=".56"/><path class="cls-4" d="M61.11 156.89a6.17 6.17 0 012.43-4.89l-.51.1a.09.09 0 01-.09 0l-.69-1a.46.46 0 00.29-.58.45.45 0 00-.6-.28l-.88.33a.47.47 0 00-.28.58.46.46 0 00.6.29l.17-.07.18 1.21a.09.09 0 010 .09 5.33 5.33 0 00-1.29 1 .08.08 0 01-.1 0l-.78-.34a.44.44 0 00-.37-.67.44.44 0 00-.35.17l-.38.5a.44.44 0 10.7.54v-.07l.56.66a.09.09 0 010 .1 5.23 5.23 0 00-.65 1.9.1.1 0 01-.07.08l-1.17.27a.5.5 0 00-.49-.5.51.51 0 00-.52.51v.86a.51.51 0 00.5.5.51.51 0 00.36-.15.49.49 0 00.15-.35v-.14l1.18.27a.08.08 0 01.07.08 5.31 5.31 0 00.6 1.8.08.08 0 010 .1l-.74.84a.49.49 0 00-.7-.09.5.5 0 00-.09.68l.27.39a.5.5 0 00.68.14.48.48 0 00.17-.64l1.05-.44a.1.1 0 01.1 0 5.25 5.25 0 001.45 1.1.08.08 0 010 .09l-.14 1.29a.58.58 0 00-.74.34.56.56 0 00.34.71l.86.32a.4.4 0 00.57-.4.58.58 0 000-.19.57.57 0 00-.37-.53l.7-1.1a.1.1 0 01.09 0 5.19 5.19 0 001.05.11h.12a6.17 6.17 0 01-3.29-5.46z" transform="translate(-47.15 -41.64)"/><circle class="cls-2" cx="14.24" cy="117.81" r=".58"/><path class="cls-3" d="M65.71 156.89h-.2a.22.22 0 01-.22-.23.22.22 0 01.22-.22h.2a.22.22 0 01.22.22.22.22 0 01-.22.23zM63.08 160.78h-.2a.22.22 0 110-.44h.2a.22.22 0 010 .44z" transform="translate(-47.15 -41.64)"/><path class="cls-2" d="M61 157.54h-.2a.22.22 0 01-.22-.23.22.22 0 01.22-.22h.2a.22.22 0 01.22.22.22.22 0 01-.22.23z" transform="translate(-47.15 -41.64)"/><path class="cls-3" d="M65 153.63h-.27a.22.22 0 110-.44H65a.22.22 0 110 .44z" transform="translate(-47.15 -41.64)"/><path class="cls-2" d="M66.74 160.06h-.3a.22.22 0 01-.22-.22.22.22 0 01.22-.23h.3a.23.23 0 110 .45z" transform="translate(-47.15 -41.64)"/><ellipse class="cls-2" cx="62.55" cy="155.18" rx="1.54" ry="1.28" transform="rotate(-38.26 -21.065 202.308)"/></svg>